<?xml version="1.0" standalone="no"?>
 <!DOCTYPE svg PUBLIC "-//W3C//DTD SVG 1.1//EN" 
 "http://www.w3.org/Graphics/SVG/1.1/DTD/svg11.dtd"> 
<svg
  xmlns:svg="http://www.w3.org/2000/svg"
  xmlns="http://www.w3.org/2000/svg"
  xmlns:xlink="http://www.w3.org/1999/xlink"
  version="1.1"
  width="29.700220cm" height="21.000720cm" viewBox="0 0 116930 82680">
<title>SVG Picture created as EEC_Project-F_Cu.svg date 2021/01/15 13:40:18 </title>
  <desc>Picture generated by PCBNEW </desc>
<g style="fill:#000000; fill-opacity:1;stroke:#000000; stroke-opacity:1;
stroke-linecap:round; stroke-linejoin:round;"
 transform="translate(0 0) scale(1 1)">
</g>
<g style="fill:#000000; fill-opacity:0.0; 
stroke:#000000; stroke-width:-0.000393701; stroke-opacity:1; 
stroke-linecap:round; stroke-linejoin:round;">
</g>
<g style="fill:#000000; fill-opacity:0.0; 
stroke:#000000; stroke-width:118.11; stroke-opacity:1; 
stroke-linecap:round; stroke-linejoin:round;">
<text x="109056" y="66082.7"
textLength="884.702" font-size="787.402" lengthAdjust="spacingAndGlyphs"
text-anchor="middle" opacity="0">+</text>
<path d="M109280 65829
L108831 65829
" />
<path d="M109055 66054
L109055 65604
" />
<text x="110198" y="74744.1"
textLength="884.702" font-size="787.402" lengthAdjust="spacingAndGlyphs"
text-anchor="middle" opacity="0">+</text>
<path d="M110422 74491
L109972 74491
" />
<path d="M110197 74715
L110197 74266
" />
<text x="105040" y="72775.6"
textLength="884.702" font-size="787.402" lengthAdjust="spacingAndGlyphs"
text-anchor="middle" opacity="0">+</text>
<path d="M105265 72522
L104815 72522
" />
<path d="M105040 72747
L105040 72297
" />
<text x="101064" y="64665.4"
textLength="1953.32" font-size="787.402" lengthAdjust="spacingAndGlyphs"
text-anchor="middle" opacity="0">GND</text>
<path d="M101513 64074
L101570 64046
L101654 64046
L101738 64074
L101795 64131
L101823 64187
L101851 64299
L101851 64384
L101823 64496
L101795 64552
L101738 64609
L101654 64637
L101598 64637
L101513 64609
L101485 64580
L101485 64384
L101598 64384
" />
<path d="M101232 64637
L101232 64046
L100895 64637
L100895 64046
" />
<path d="M100613 64637
L100613 64046
L100473 64046
L100388 64074
L100332 64131
L100304 64187
L100276 64299
L100276 64384
L100304 64496
L100332 64552
L100388 64609
L100473 64637
L100613 64637
" />
<text x="102993" y="64547.2"
textLength="884.702" font-size="787.402" lengthAdjust="spacingAndGlyphs"
text-anchor="middle" opacity="0">+</text>
<path d="M103217 64294
L102768 64294
" />
<path d="M102992 64519
L102992 64069
" />
<g >
</g>
<g style="fill:#000000; fill-opacity:1.0; 
stroke:#000000; stroke-width:0; stroke-opacity:1; 
stroke-linecap:round; stroke-linejoin:round;">
<circle cx="107954" cy="73543.3" r="393.701" /> 
<path style="fill:#000000; fill-opacity:1.0; 
stroke:#000000; stroke-width:0; stroke-opacity:1; 
stroke-linecap:round; stroke-linejoin:round;fill-rule:evenodd;"
d="M 105355,73937
105355,73149.6
104568,73149.6
104568,73937
Z" /> 
</g>
<g >
</g>
<g style="fill:#000000; fill-opacity:1.0; 
stroke:#000000; stroke-width:0; stroke-opacity:1; 
stroke-linecap:round; stroke-linejoin:round;">
<circle cx="109725" cy="76141.7" r="354.331" /> 
<path style="fill:#000000; fill-opacity:1.0; 
stroke:#000000; stroke-width:0; stroke-opacity:1; 
stroke-linecap:round; stroke-linejoin:round;fill-rule:evenodd;"
d="M 109371,75496.1
110080,75496.1
110080,74787.4
109371,74787.4
Z" /> 
</g>
<g >
</g>
<g style="fill:#000000; fill-opacity:1.0; 
stroke:#000000; stroke-width:0; stroke-opacity:1; 
stroke-linecap:round; stroke-linejoin:round;">
<circle cx="107599" cy="70236.2" r="314.961" /> 
</g>
<g style="fill:#000000; fill-opacity:1.0; 
stroke:#000000; stroke-width:39.3701; stroke-opacity:1; 
stroke-linecap:round; stroke-linejoin:round;">
</g>
<g style="fill:#000000; fill-opacity:1.0; 
stroke:#000000; stroke-width:0; stroke-opacity:1; 
stroke-linecap:round; stroke-linejoin:round;">
<circle cx="104599" cy="70236.2" r="314.961" /> 
</g>
<g >
</g>
<g style="fill:#000000; fill-opacity:1.0; 
stroke:#000000; stroke-width:0; stroke-opacity:1; 
stroke-linecap:round; stroke-linejoin:round;">
<circle cx="103030" cy="74300" r="334.646" /> 
<circle cx="102030" cy="74300" r="334.646" /> 
<circle cx="103030" cy="73300" r="334.646" /> 
<circle cx="102030" cy="73300" r="334.646" /> 
<path style="fill:#000000; fill-opacity:1.0; 
stroke:#000000; stroke-width:0; stroke-opacity:1; 
stroke-linecap:round; stroke-linejoin:round;fill-rule:evenodd;"
d="M 102735,72004.7
102735,72595.3
103325,72595.3
103325,72004.7
Z" /> 
<circle cx="102030" cy="72300" r="334.646" /> 
</g>
<g >
</g>
<g style="fill:#000000; fill-opacity:1.0; 
stroke:#000000; stroke-width:0; stroke-opacity:1; 
stroke-linecap:round; stroke-linejoin:round;">
<circle cx="104757" cy="65905.5" r="314.961" /> 
<circle cx="107757" cy="65905.5" r="314.961" /> 
</g>
<g style="fill:#000000; fill-opacity:1.0; 
stroke:#000000; stroke-width:39.3701; stroke-opacity:1; 
stroke-linecap:round; stroke-linejoin:round;">
</g>
<g >
</g>
<g style="fill:#000000; fill-opacity:1.0; 
stroke:#000000; stroke-width:39.3701; stroke-opacity:1; 
stroke-linecap:round; stroke-linejoin:round;">
</g>
<g style="fill:#000000; fill-opacity:1.0; 
stroke:#000000; stroke-width:0; stroke-opacity:1; 
stroke-linecap:round; stroke-linejoin:round;">
<circle cx="109730" cy="74000" r="314.961" /> 
<circle cx="109730" cy="71000" r="314.961" /> 
</g>
<g style="fill:#000000; fill-opacity:1.0; 
stroke:#000000; stroke-width:39.3701; stroke-opacity:1; 
stroke-linecap:round; stroke-linejoin:round;">
</g>
<g >
</g>
<g style="fill:#000000; fill-opacity:1.0; 
stroke:#000000; stroke-width:39.3701; stroke-opacity:1; 
stroke-linecap:round; stroke-linejoin:round;">
</g>
<g style="fill:#000000; fill-opacity:1.0; 
stroke:#000000; stroke-width:0; stroke-opacity:1; 
stroke-linecap:round; stroke-linejoin:round;">
<path style="fill:#000000; fill-opacity:1.0; 
stroke:#000000; stroke-width:0; stroke-opacity:1; 
stroke-linecap:round; stroke-linejoin:round;fill-rule:evenodd;"
d="M 105125,67132.2
105119,67133
105114,67134.4
105108,67136.4
105103,67138.9
105098,67141.8
105093,67145.3
105089,67149.2
105085,67153.5
105082,67158.1
105079,67163.1
105076,67168.3
105074,67173.8
105073,67179.4
105072,67185.2
105072,67190.9
105072,67309.1
105072,67314.8
105073,67320.6
105074,67326.2
105076,67331.7
105079,67336.9
105082,67341.9
105085,67346.5
105089,67350.8
105093,67354.7
105098,67358.2
105103,67361.1
105108,67363.6
105114,67365.6
105119,67367
105125,67367.8
105131,67368.1
105780,67368.1
105786,67367.8
105792,67367
105798,67365.6
105803,67363.6
105808,67361.1
105813,67358.2
105818,67354.7
105822,67350.8
105826,67346.5
105829,67341.9
105832,67336.9
105835,67331.7
105837,67326.2
105838,67320.6
105839,67314.8
105839,67309.1
105839,67190.9
105839,67185.2
105838,67179.4
105837,67173.8
105835,67168.3
105832,67163.1
105829,67158.1
105826,67153.5
105822,67149.2
105818,67145.3
105813,67141.8
105808,67138.9
105803,67136.4
105798,67134.4
105792,67133
105786,67132.2
105780,67131.9
105131,67131.9
Z" /> 
<path style="fill:#000000; fill-opacity:1.0; 
stroke:#000000; stroke-width:0; stroke-opacity:1; 
stroke-linecap:round; stroke-linejoin:round;fill-rule:evenodd;"
d="M 105125,67632.2
105119,67633
105114,67634.4
105108,67636.4
105103,67638.9
105098,67641.8
105093,67645.3
105089,67649.2
105085,67653.5
105082,67658.1
105079,67663.1
105076,67668.3
105074,67673.8
105073,67679.4
105072,67685.2
105072,67690.9
105072,67809.1
105072,67814.8
105073,67820.6
105074,67826.2
105076,67831.7
105079,67836.9
105082,67841.9
105085,67846.5
105089,67850.8
105093,67854.7
105098,67858.2
105103,67861.1
105108,67863.6
105114,67865.6
105119,67867
105125,67867.8
105131,67868.1
105780,67868.1
105786,67867.8
105792,67867
105798,67865.6
105803,67863.6
105808,67861.1
105813,67858.2
105818,67854.7
105822,67850.8
105826,67846.5
105829,67841.9
105832,67836.9
105835,67831.7
105837,67826.2
105838,67820.6
105839,67814.8
105839,67809.1
105839,67690.9
105839,67685.2
105838,67679.4
105837,67673.8
105835,67668.3
105832,67663.1
105829,67658.1
105826,67653.5
105822,67649.2
105818,67645.3
105813,67641.8
105808,67638.9
105803,67636.4
105798,67634.4
105792,67633
105786,67632.2
105780,67631.9
105131,67631.9
Z" /> 
<path style="fill:#000000; fill-opacity:1.0; 
stroke:#000000; stroke-width:0; stroke-opacity:1; 
stroke-linecap:round; stroke-linejoin:round;fill-rule:evenodd;"
d="M 105125,68132.2
105119,68133
105114,68134.4
105108,68136.4
105103,68138.9
105098,68141.8
105093,68145.3
105089,68149.2
105085,68153.5
105082,68158.1
105079,68163.1
105076,68168.3
105074,68173.8
105073,68179.4
105072,68185.2
105072,68190.9
105072,68309.1
105072,68314.8
105073,68320.6
105074,68326.2
105076,68331.7
105079,68336.9
105082,68341.9
105085,68346.5
105089,68350.8
105093,68354.7
105098,68358.2
105103,68361.1
105108,68363.6
105114,68365.6
105119,68367
105125,68367.8
105131,68368.1
105780,68368.1
105786,68367.8
105792,68367
105798,68365.6
105803,68363.6
105808,68361.1
105813,68358.2
105818,68354.7
105822,68350.8
105826,68346.5
105829,68341.9
105832,68336.9
105835,68331.7
105837,68326.2
105838,68320.6
105839,68314.8
105839,68309.1
105839,68190.9
105839,68185.2
105838,68179.4
105837,68173.8
105835,68168.3
105832,68163.1
105829,68158.1
105826,68153.5
105822,68149.2
105818,68145.3
105813,68141.8
105808,68138.9
105803,68136.4
105798,68134.4
105792,68133
105786,68132.2
105780,68131.9
105131,68131.9
Z" /> 
<path style="fill:#000000; fill-opacity:1.0; 
stroke:#000000; stroke-width:0; stroke-opacity:1; 
stroke-linecap:round; stroke-linejoin:round;fill-rule:evenodd;"
d="M 105125,68632.2
105119,68633
105114,68634.4
105108,68636.4
105103,68638.9
105098,68641.8
105093,68645.3
105089,68649.2
105085,68653.5
105082,68658.1
105079,68663.1
105076,68668.3
105074,68673.8
105073,68679.4
105072,68685.2
105072,68690.9
105072,68809.1
105072,68814.8
105073,68820.6
105074,68826.2
105076,68831.7
105079,68836.9
105082,68841.9
105085,68846.5
105089,68850.8
105093,68854.7
105098,68858.2
105103,68861.1
105108,68863.6
105114,68865.6
105119,68867
105125,68867.8
105131,68868.1
105780,68868.1
105786,68867.8
105792,68867
105798,68865.6
105803,68863.6
105808,68861.1
105813,68858.2
105818,68854.7
105822,68850.8
105826,68846.5
105829,68841.9
105832,68836.9
105835,68831.7
105837,68826.2
105838,68820.6
105839,68814.8
105839,68809.1
105839,68690.9
105839,68685.2
105838,68679.4
105837,68673.8
105835,68668.3
105832,68663.1
105829,68658.1
105826,68653.5
105822,68649.2
105818,68645.3
105813,68641.8
105808,68638.9
105803,68636.4
105798,68634.4
105792,68633
105786,68632.2
105780,68631.9
105131,68631.9
Z" /> 
<path style="fill:#000000; fill-opacity:1.0; 
stroke:#000000; stroke-width:0; stroke-opacity:1; 
stroke-linecap:round; stroke-linejoin:round;fill-rule:evenodd;"
d="M 107074,68632.2
107068,68633
107062,68634.4
107057,68636.4
107052,68638.9
107047,68641.8
107042,68645.3
107038,68649.2
107034,68653.5
107031,68658.1
107028,68663.1
107025,68668.3
107023,68673.8
107022,68679.4
107021,68685.2
107021,68690.9
107021,68809.1
107021,68814.8
107022,68820.6
107023,68826.2
107025,68831.7
107028,68836.9
107031,68841.9
107034,68846.5
107038,68850.8
107042,68854.7
107047,68858.2
107052,68861.1
107057,68863.6
107062,68865.6
107068,68867
107074,68867.8
107080,68868.1
107729,68868.1
107735,68867.8
107741,68867
107746,68865.6
107752,68863.6
107757,68861.1
107762,68858.2
107767,68854.7
107771,68850.8
107775,68846.5
107778,68841.9
107781,68836.9
107784,68831.7
107786,68826.2
107787,68820.6
107788,68814.8
107788,68809.1
107788,68690.9
107788,68685.2
107787,68679.4
107786,68673.8
107784,68668.3
107781,68663.1
107778,68658.1
107775,68653.5
107771,68649.2
107767,68645.3
107762,68641.8
107757,68638.9
107752,68636.4
107746,68634.4
107741,68633
107735,68632.2
107729,68631.9
107080,68631.9
Z" /> 
<path style="fill:#000000; fill-opacity:1.0; 
stroke:#000000; stroke-width:0; stroke-opacity:1; 
stroke-linecap:round; stroke-linejoin:round;fill-rule:evenodd;"
d="M 107074,68132.2
107068,68133
107062,68134.4
107057,68136.4
107052,68138.9
107047,68141.8
107042,68145.3
107038,68149.2
107034,68153.5
107031,68158.1
107028,68163.1
107025,68168.3
107023,68173.8
107022,68179.4
107021,68185.2
107021,68190.9
107021,68309.1
107021,68314.8
107022,68320.6
107023,68326.2
107025,68331.7
107028,68336.9
107031,68341.9
107034,68346.5
107038,68350.8
107042,68354.7
107047,68358.2
107052,68361.1
107057,68363.6
107062,68365.6
107068,68367
107074,68367.8
107080,68368.1
107729,68368.1
107735,68367.8
107741,68367
107746,68365.6
107752,68363.6
107757,68361.1
107762,68358.2
107767,68354.7
107771,68350.8
107775,68346.5
107778,68341.9
107781,68336.9
107784,68331.7
107786,68326.2
107787,68320.6
107788,68314.8
107788,68309.1
107788,68190.9
107788,68185.2
107787,68179.4
107786,68173.8
107784,68168.3
107781,68163.1
107778,68158.1
107775,68153.5
107771,68149.2
107767,68145.3
107762,68141.8
107757,68138.9
107752,68136.4
107746,68134.4
107741,68133
107735,68132.2
107729,68131.9
107080,68131.9
Z" /> 
<path style="fill:#000000; fill-opacity:1.0; 
stroke:#000000; stroke-width:0; stroke-opacity:1; 
stroke-linecap:round; stroke-linejoin:round;fill-rule:evenodd;"
d="M 107074,67632.2
107068,67633
107062,67634.4
107057,67636.4
107052,67638.9
107047,67641.8
107042,67645.3
107038,67649.2
107034,67653.5
107031,67658.1
107028,67663.1
107025,67668.3
107023,67673.8
107022,67679.4
107021,67685.2
107021,67690.9
107021,67809.1
107021,67814.8
107022,67820.6
107023,67826.2
107025,67831.7
107028,67836.9
107031,67841.9
107034,67846.5
107038,67850.8
107042,67854.7
107047,67858.2
107052,67861.1
107057,67863.6
107062,67865.6
107068,67867
107074,67867.8
107080,67868.1
107729,67868.1
107735,67867.8
107741,67867
107746,67865.6
107752,67863.6
107757,67861.1
107762,67858.2
107767,67854.7
107771,67850.8
107775,67846.5
107778,67841.9
107781,67836.9
107784,67831.7
107786,67826.2
107787,67820.6
107788,67814.8
107788,67809.1
107788,67690.9
107788,67685.2
107787,67679.4
107786,67673.8
107784,67668.3
107781,67663.1
107778,67658.1
107775,67653.5
107771,67649.2
107767,67645.3
107762,67641.8
107757,67638.9
107752,67636.4
107746,67634.4
107741,67633
107735,67632.2
107729,67631.9
107080,67631.9
Z" /> 
<path style="fill:#000000; fill-opacity:1.0; 
stroke:#000000; stroke-width:0; stroke-opacity:1; 
stroke-linecap:round; stroke-linejoin:round;fill-rule:evenodd;"
d="M 107074,67132.2
107068,67133
107062,67134.4
107057,67136.4
107052,67138.9
107047,67141.8
107042,67145.3
107038,67149.2
107034,67153.5
107031,67158.1
107028,67163.1
107025,67168.3
107023,67173.8
107022,67179.4
107021,67185.2
107021,67190.9
107021,67309.1
107021,67314.8
107022,67320.6
107023,67326.2
107025,67331.7
107028,67336.9
107031,67341.9
107034,67346.5
107038,67350.8
107042,67354.7
107047,67358.2
107052,67361.1
107057,67363.6
107062,67365.6
107068,67367
107074,67367.8
107080,67368.1
107729,67368.1
107735,67367.8
107741,67367
107746,67365.6
107752,67363.6
107757,67361.1
107762,67358.2
107767,67354.7
107771,67350.8
107775,67346.5
107778,67341.9
107781,67336.9
107784,67331.7
107786,67326.2
107787,67320.6
107788,67314.8
107788,67309.1
107788,67190.9
107788,67185.2
107787,67179.4
107786,67173.8
107784,67168.3
107781,67163.1
107778,67158.1
107775,67153.5
107771,67149.2
107767,67145.3
107762,67141.8
107757,67138.9
107752,67136.4
107746,67134.4
107741,67133
107735,67132.2
107729,67131.9
107080,67131.9
Z" /> 
</g>
<g >
</g>
<g style="fill:#000000; fill-opacity:1.0; 
stroke:#000000; stroke-width:0; stroke-opacity:1; 
stroke-linecap:round; stroke-linejoin:round;">
<path style="fill:#000000; fill-opacity:1.0; 
stroke:#000000; stroke-width:0; stroke-opacity:1; 
stroke-linecap:round; stroke-linejoin:round;fill-rule:evenodd;"
d="M 101157,67530
101147,67531.4
101138,67533.8
101129,67537
101120,67541.1
101112,67546.1
101104,67551.9
101097,67558.4
101090,67565.5
101084,67573.3
101079,67581.6
101075,67590.3
101072,67599.4
101070,67608.8
101068,67618.3
101068,67628
101068,68198.8
101068,68208.5
101070,68218
101072,68227.4
101075,68236.5
101079,68245.2
101084,68253.5
101090,68261.3
101097,68268.4
101104,68274.9
101112,68280.7
101120,68285.6
101129,68289.8
101138,68293
101147,68295.4
101157,68296.8
101166,68297.2
101639,68297.2
101648,68296.8
101658,68295.4
101667,68293
101676,68289.8
101685,68285.6
101693,68280.7
101701,68274.9
101708,68268.4
101715,68261.3
101720,68253.5
101725,68245.2
101730,68236.5
101733,68227.4
101735,68218
101737,68208.5
101737,68198.8
101737,67628
101737,67618.3
101735,67608.8
101733,67599.4
101730,67590.3
101725,67581.6
101720,67573.3
101715,67565.5
101708,67558.4
101701,67551.9
101693,67546.1
101685,67541.1
101676,67537
101667,67533.8
101658,67531.4
101648,67530
101639,67529.5
101166,67529.5
Z" /> 
</g>
<g style="fill:#000000; fill-opacity:1.0; 
stroke:#000000; stroke-width:669.291; stroke-opacity:1; 
stroke-linecap:round; stroke-linejoin:round;">
</g>
<g style="fill:#000000; fill-opacity:0.0; 
stroke:#000000; stroke-width:669.291; stroke-opacity:1; 
stroke-linecap:round; stroke-linejoin:round;">
<path d="M102386 67962
L102386 67864
" />
<path d="M103370 67962
L103370 67864
" />
</g>
<g >
</g>
<g style="fill:#000000; fill-opacity:0.0; 
stroke:#000000; stroke-width:669.291; stroke-opacity:1; 
stroke-linecap:round; stroke-linejoin:round;">
</g>
<g style="fill:#000000; fill-opacity:0.0; 
stroke:#000000; stroke-width:0; stroke-opacity:1; 
stroke-linecap:round; stroke-linejoin:round;">
</g>
<g style="fill:#000000; fill-opacity:1.0; 
stroke:#000000; stroke-width:0; stroke-opacity:1; 
stroke-linecap:round; stroke-linejoin:round;">
<path style="fill:#000000; fill-opacity:1.0; 
stroke:#000000; stroke-width:0; stroke-opacity:1; 
stroke-linecap:round; stroke-linejoin:round;fill-rule:evenodd;"
d="M 109588,65571.3
109578,65572.8
109569,65575.1
109560,65578.4
109551,65582.5
109543,65587.5
109535,65593.2
109528,65599.7
109521,65606.9
109515,65614.6
109511,65622.9
109506,65631.6
109503,65640.7
109501,65650.1
109499,65659.6
109499,65669.3
109499,66141.7
109499,66151.4
109501,66160.9
109503,66170.3
109506,66179.4
109511,66188.1
109515,66196.4
109521,66204.2
109528,66211.3
109535,66217.8
109543,66223.6
109551,66228.5
109560,66232.7
109569,66235.9
109578,66238.3
109588,66239.7
109597,66240.2
110168,66240.2
110178,66239.7
110187,66238.3
110197,66235.9
110206,66232.7
110215,66228.5
110223,66223.6
110231,66217.8
110238,66211.3
110244,66204.2
110250,66196.4
110255,66188.1
110259,66179.4
110262,66170.3
110265,66160.9
110266,66151.4
110267,66141.7
110267,65669.3
110266,65659.6
110265,65650.1
110262,65640.7
110259,65631.6
110255,65622.9
110250,65614.6
110244,65606.9
110238,65599.7
110231,65593.2
110223,65587.5
110215,65582.5
110206,65578.4
110197,65575.1
110187,65572.8
110178,65571.3
110168,65570.9
109597,65570.9
Z" /> 
</g>
<g style="fill:#000000; fill-opacity:1.0; 
stroke:#000000; stroke-width:669.291; stroke-opacity:1; 
stroke-linecap:round; stroke-linejoin:round;">
</g>
<g style="fill:#000000; fill-opacity:0.0; 
stroke:#000000; stroke-width:669.291; stroke-opacity:1; 
stroke-linecap:round; stroke-linejoin:round;">
<path d="M109833 66889
L109931 66889
" />
<path d="M109833 67874
L109931 67874
" />
<path d="M109833 68858
L109931 68858
" />
</g>
<g >
</g>
<g style="fill:#000000; fill-opacity:0.0; 
stroke:#000000; stroke-width:669.291; stroke-opacity:1; 
stroke-linecap:round; stroke-linejoin:round;">
</g>
<g style="fill:#000000; fill-opacity:0.0; 
stroke:#000000; stroke-width:0; stroke-opacity:1; 
stroke-linecap:round; stroke-linejoin:round;">
</g>
<g style="fill:#000000; fill-opacity:1.0; 
stroke:#000000; stroke-width:0; stroke-opacity:1; 
stroke-linecap:round; stroke-linejoin:round;">
<path style="fill:#000000; fill-opacity:1.0; 
stroke:#000000; stroke-width:0; stroke-opacity:1; 
stroke-linecap:round; stroke-linejoin:round;fill-rule:evenodd;"
d="M 102684,65106.8
102675,65108.2
102665,65110.5
102656,65113.8
102647,65117.9
102639,65122.9
102631,65128.6
102624,65135.1
102618,65142.3
102612,65150
102607,65158.3
102603,65167.1
102600,65176.2
102597,65185.5
102596,65195.1
102595,65204.7
102595,65795.3
102596,65804.9
102597,65814.5
102600,65823.8
102603,65832.9
102607,65841.7
102612,65850
102618,65857.7
102624,65864.9
102631,65871.4
102639,65877.1
102647,65882.1
102656,65886.2
102665,65889.5
102675,65891.8
102684,65893.2
102694,65893.7
103166,65893.7
103176,65893.2
103185,65891.8
103195,65889.5
103204,65886.2
103213,65882.1
103221,65877.1
103229,65871.4
103236,65864.9
103242,65857.7
103248,65850
103253,65841.7
103257,65832.9
103260,65823.8
103263,65814.5
103264,65804.9
103265,65795.3
103265,65204.7
103264,65195.1
103263,65185.5
103260,65176.2
103257,65167.1
103253,65158.3
103248,65150
103242,65142.3
103236,65135.1
103229,65128.6
103221,65122.9
103213,65117.9
103204,65113.8
103195,65110.5
103185,65108.2
103176,65106.8
103166,65106.3
102694,65106.3
Z" /> 
</g>
<g style="fill:#000000; fill-opacity:1.0; 
stroke:#000000; stroke-width:669.291; stroke-opacity:1; 
stroke-linecap:round; stroke-linejoin:round;">
</g>
<g style="fill:#000000; fill-opacity:0.0; 
stroke:#000000; stroke-width:669.291; stroke-opacity:1; 
stroke-linecap:round; stroke-linejoin:round;">
<path d="M101945 65440
L101945 65559
" />
</g>
<g >
</g>
<g >
</g>
<g style="fill:#000000; fill-opacity:0.0; 
stroke:#000000; stroke-width:669.291; stroke-opacity:1; 
stroke-linecap:round; stroke-linejoin:round;">
</g>
<g style="fill:#000000; fill-opacity:0.0; 
stroke:#000000; stroke-width:196.85; stroke-opacity:1; 
stroke-linecap:round; stroke-linejoin:round;">
<path d="M104428 75698
L108630 75698
" />
<path d="M103030 74300
L104428 75698
" />
<path d="M102402 68503
L102402 67913
" />
<path d="M100827 68858
L102048 68858
" />
<path d="M100670 68700
L100827 68858
" />
<path d="M101930 65100
L101930 65500
" />
<path d="M102048 68858
L102402 68503
" />
<path d="M102230 64800
L101930 65100
" />
<path d="M110509 64800
L102230 64800
" />
<path d="M111103 65393
L110509 64800
" />
<path d="M100670 66759
L100670 68700
" />
<path d="M111103 75314
L111103 65393
" />
<path d="M101930 65500
L100670 66759
" />
<path d="M110276 76141
L111103 75314
" />
<path d="M110276 76141
L109725 76141
" />
<path d="M109252 76141
L109725 76141
" />
<path d="M108809 75698
L109252 76141
" />
<path d="M108630 75698
L108809 75698
" />
<path d="M109774 68750
L109882 68858
" />
<path d="M107404 68750
L109774 68750
" />
<path d="M108741 68759
L108731 68750
" />
<path d="M108741 75587
L108741 68759
" />
<path d="M108630 75698
L108741 75587
" />
<path d="M109725 74004
L109730 74000
" />
<path d="M109725 75141
L109725 74004
" />
<path d="M105930 67250
L105455 67250
" />
<path d="M105930 67250
L106180 67250
" />
<path d="M106180 67250
L106430 67250
" />
<path d="M109430 65250
L109680 65250
" />
<path d="M109380 65250
L109680 65250
" />
<path d="M107180 65250
L109380 65250
" />
<path d="M110630 70099
L109730 71000
" />
<path d="M110630 65511
L110630 70099
" />
<path d="M110368 65250
L110630 65511
" />
<path d="M109882 65275
L109857 65250
" />
<path d="M109882 65905
L109882 65275
" />
<path d="M109857 65250
L110368 65250
" />
<path d="M109680 65250
L109857 65250
" />
<path d="M101402 67338
L101402 67913
" />
<path d="M102930 65811
L101402 67338
" />
<path d="M102930 65500
L102930 65811
" />
<path d="M103335 65905
L104756 65905
" />
<path d="M102930 65500
L103335 65905
" />
<path d="M106524 65905
L107180 65250
" />
<path d="M104756 65905
L106524 65905
" />
<path d="M103718 72300
L103030 72300
" />
<path d="M104941 73523
L103718 72300
" />
<path d="M106455 72009
L104941 73523
" />
<path d="M106455 65907
L106455 72009
" />
<path d="M106457 65905
L106455 65907
" />
<path d="M105455 67750
L104680 67750
" />
<path d="M103565 67750
L103402 67913
" />
<path d="M104680 67750
L103565 67750
" />
<path d="M101430 72700
L102030 73300
" />
<path d="M102930 68354
L102930 69039
" />
<path d="M102930 69039
L101430 70539
" />
<path d="M103534 67750
L102930 68354
" />
<path d="M101430 70539
L101430 72700
" />
<path d="M104680 67750
L103534 67750
" />
<path d="M103150 70236
L104599 70236
" />
<path d="M102030 71356
L103150 70236
" />
<path d="M102030 72300
L102030 71356
" />
<path d="M104599 70236
L104599 68511
" />
<path d="M104861 68250
L105455 68250
" />
<path d="M104599 68511
L104861 68250
" />
<path d="M106080 68850
L106080 69739
" />
<path d="M105980 68750
L106080 68850
" />
<path d="M105455 68750
L105980 68750
" />
<path d="M106080 69739
L104419 71400
" />
<path d="M104419 71400
L102930 71400
" />
<path d="M102541 72811
L103030 73300
" />
<path d="M102541 71788
L102541 72811
" />
<path d="M102930 71400
L102541 71788
" />
</g>
<g style="fill:#000000; fill-opacity:0.0; 
stroke:#000000; stroke-width:157.48; stroke-opacity:1; 
stroke-linecap:round; stroke-linejoin:round;">
<path d="M102530 73800
L102030 74300
" />
<path d="M103230 73800
L102530 73800
" />
</g>
<g style="fill:#000000; fill-opacity:0.0; 
stroke:#000000; stroke-width:196.85; stroke-opacity:1; 
stroke-linecap:round; stroke-linejoin:round;">
<path d="M106880 67250
L106843 67286
" />
<path d="M107404 67250
L106880 67250
" />
<path d="M106843 66586
L106843 67286
" />
<path d="M107524 65905
L106843 66586
" />
<path d="M107756 65905
L107524 65905
" />
<path d="M103682 73800
L103287 73800
" />
<path d="M104213 74330
L103682 73800
" />
<path d="M105591 74330
L104213 74330
" />
<path d="M106024 73897
L105591 74330
" />
<path d="M106024 73105
L106024 73897
" />
<path d="M106843 72286
L106024 73105
" />
<path d="M103287 73800
L103230 73800
" />
<path d="M106843 67286
L106843 72286
" />
<path d="M109022 67750
L109882 66889
" />
<path d="M107404 67750
L109022 67750
" />
<path d="M109506 68250
L109882 67874
" />
<path d="M107404 68250
L109506 68250
" />
<path d="M107930 70566
L107599 70236
" />
<path d="M107953 70590
L107930 70566
" />
<path d="M107953 73543
L107953 70590
" />
</g>
<g >
</g>
</g>
<g style="fill:#FFFFFF; fill-opacity:0.0; 
stroke:#FFFFFF; stroke-width:196.85; stroke-opacity:1; 
stroke-linecap:round; stroke-linejoin:round;">
</g>
<g style="fill:#FFFFFF; fill-opacity:1.0; 
stroke:#FFFFFF; stroke-width:0; stroke-opacity:1; 
stroke-linecap:round; stroke-linejoin:round;">
<circle cx="107954" cy="73543.3" r="68.8976" /> 
</g>
<g style="fill:#FFFFFF; fill-opacity:1.0; 
stroke:#FFFFFF; stroke-width:39.3701; stroke-opacity:1; 
stroke-linecap:round; stroke-linejoin:round;">
</g>
<g style="fill:#FFFFFF; fill-opacity:1.0; 
stroke:#FFFFFF; stroke-width:0; stroke-opacity:1; 
stroke-linecap:round; stroke-linejoin:round;">
<circle cx="104961" cy="73543.3" r="68.8976" /> 
</g>
<g style="fill:#FFFFFF; fill-opacity:1.0; 
stroke:#FFFFFF; stroke-width:39.3701; stroke-opacity:1; 
stroke-linecap:round; stroke-linejoin:round;">
</g>
<g style="fill:#FFFFFF; fill-opacity:1.0; 
stroke:#FFFFFF; stroke-width:0; stroke-opacity:1; 
stroke-linecap:round; stroke-linejoin:round;">
<circle cx="109725" cy="76141.7" r="68.8976" /> 
</g>
<g style="fill:#FFFFFF; fill-opacity:1.0; 
stroke:#FFFFFF; stroke-width:39.3701; stroke-opacity:1; 
stroke-linecap:round; stroke-linejoin:round;">
</g>
<g style="fill:#FFFFFF; fill-opacity:1.0; 
stroke:#FFFFFF; stroke-width:0; stroke-opacity:1; 
stroke-linecap:round; stroke-linejoin:round;">
<circle cx="109725" cy="75141.7" r="68.8976" /> 
</g>
<g style="fill:#FFFFFF; fill-opacity:1.0; 
stroke:#FFFFFF; stroke-width:39.3701; stroke-opacity:1; 
stroke-linecap:round; stroke-linejoin:round;">
</g>
<g style="fill:#FFFFFF; fill-opacity:1.0; 
stroke:#FFFFFF; stroke-width:0; stroke-opacity:1; 
stroke-linecap:round; stroke-linejoin:round;">
<circle cx="107599" cy="70236.2" r="68.8976" /> 
</g>
<g style="fill:#FFFFFF; fill-opacity:1.0; 
stroke:#FFFFFF; stroke-width:39.3701; stroke-opacity:1; 
stroke-linecap:round; stroke-linejoin:round;">
</g>
<g style="fill:#FFFFFF; fill-opacity:1.0; 
stroke:#FFFFFF; stroke-width:0; stroke-opacity:1; 
stroke-linecap:round; stroke-linejoin:round;">
<circle cx="104599" cy="70236.2" r="68.8976" /> 
</g>
<g style="fill:#FFFFFF; fill-opacity:1.0; 
stroke:#FFFFFF; stroke-width:39.3701; stroke-opacity:1; 
stroke-linecap:round; stroke-linejoin:round;">
</g>
<g style="fill:#FFFFFF; fill-opacity:1.0; 
stroke:#FFFFFF; stroke-width:0; stroke-opacity:1; 
stroke-linecap:round; stroke-linejoin:round;">
<circle cx="103030" cy="74300" r="68.8976" /> 
</g>
<g style="fill:#FFFFFF; fill-opacity:1.0; 
stroke:#FFFFFF; stroke-width:39.3701; stroke-opacity:1; 
stroke-linecap:round; stroke-linejoin:round;">
</g>
<g style="fill:#FFFFFF; fill-opacity:1.0; 
stroke:#FFFFFF; stroke-width:0; stroke-opacity:1; 
stroke-linecap:round; stroke-linejoin:round;">
<circle cx="102030" cy="74300" r="68.8976" /> 
</g>
<g style="fill:#FFFFFF; fill-opacity:1.0; 
stroke:#FFFFFF; stroke-width:39.3701; stroke-opacity:1; 
stroke-linecap:round; stroke-linejoin:round;">
</g>
<g style="fill:#FFFFFF; fill-opacity:1.0; 
stroke:#FFFFFF; stroke-width:0; stroke-opacity:1; 
stroke-linecap:round; stroke-linejoin:round;">
<circle cx="103030" cy="73300" r="68.8976" /> 
</g>
<g style="fill:#FFFFFF; fill-opacity:1.0; 
stroke:#FFFFFF; stroke-width:39.3701; stroke-opacity:1; 
stroke-linecap:round; stroke-linejoin:round;">
</g>
<g style="fill:#FFFFFF; fill-opacity:1.0; 
stroke:#FFFFFF; stroke-width:0; stroke-opacity:1; 
stroke-linecap:round; stroke-linejoin:round;">
<circle cx="102030" cy="73300" r="68.8976" /> 
</g>
<g style="fill:#FFFFFF; fill-opacity:1.0; 
stroke:#FFFFFF; stroke-width:39.3701; stroke-opacity:1; 
stroke-linecap:round; stroke-linejoin:round;">
</g>
<g style="fill:#FFFFFF; fill-opacity:1.0; 
stroke:#FFFFFF; stroke-width:0; stroke-opacity:1; 
stroke-linecap:round; stroke-linejoin:round;">
<circle cx="103030" cy="72300" r="68.8976" /> 
</g>
<g style="fill:#FFFFFF; fill-opacity:1.0; 
stroke:#FFFFFF; stroke-width:39.3701; stroke-opacity:1; 
stroke-linecap:round; stroke-linejoin:round;">
</g>
<g style="fill:#FFFFFF; fill-opacity:1.0; 
stroke:#FFFFFF; stroke-width:0; stroke-opacity:1; 
stroke-linecap:round; stroke-linejoin:round;">
<circle cx="102030" cy="72300" r="68.8976" /> 
</g>
<g style="fill:#FFFFFF; fill-opacity:1.0; 
stroke:#FFFFFF; stroke-width:39.3701; stroke-opacity:1; 
stroke-linecap:round; stroke-linejoin:round;">
</g>
<g style="fill:#FFFFFF; fill-opacity:1.0; 
stroke:#FFFFFF; stroke-width:0; stroke-opacity:1; 
stroke-linecap:round; stroke-linejoin:round;">
<circle cx="104757" cy="65905.5" r="68.8976" /> 
</g>
<g style="fill:#FFFFFF; fill-opacity:1.0; 
stroke:#FFFFFF; stroke-width:39.3701; stroke-opacity:1; 
stroke-linecap:round; stroke-linejoin:round;">
</g>
<g style="fill:#FFFFFF; fill-opacity:1.0; 
stroke:#FFFFFF; stroke-width:0; stroke-opacity:1; 
stroke-linecap:round; stroke-linejoin:round;">
<circle cx="107757" cy="65905.5" r="68.8976" /> 
</g>
<g style="fill:#FFFFFF; fill-opacity:1.0; 
stroke:#FFFFFF; stroke-width:39.3701; stroke-opacity:1; 
stroke-linecap:round; stroke-linejoin:round;">
</g>
<g style="fill:#FFFFFF; fill-opacity:1.0; 
stroke:#FFFFFF; stroke-width:0; stroke-opacity:1; 
stroke-linecap:round; stroke-linejoin:round;">
<circle cx="109730" cy="74000" r="68.8976" /> 
</g>
<g style="fill:#FFFFFF; fill-opacity:1.0; 
stroke:#FFFFFF; stroke-width:39.3701; stroke-opacity:1; 
stroke-linecap:round; stroke-linejoin:round;">
</g>
<g style="fill:#FFFFFF; fill-opacity:1.0; 
stroke:#FFFFFF; stroke-width:0; stroke-opacity:1; 
stroke-linecap:round; stroke-linejoin:round;">
<circle cx="109730" cy="71000" r="68.8976" /> 
</g>
<g style="fill:#FFFFFF; fill-opacity:1.0; 
stroke:#FFFFFF; stroke-width:39.3701; stroke-opacity:1; 
stroke-linecap:round; stroke-linejoin:round;">
</g>
<g style="fill:#FFFFFF; fill-opacity:1.0; 
stroke:#FFFFFF; stroke-width:0; stroke-opacity:1; 
stroke-linecap:round; stroke-linejoin:round;">
<circle cx="101402" cy="67913.4" r="68.8976" /> 
</g>
<g style="fill:#FFFFFF; fill-opacity:1.0; 
stroke:#FFFFFF; stroke-width:39.3701; stroke-opacity:1; 
stroke-linecap:round; stroke-linejoin:round;">
</g>
<g style="fill:#FFFFFF; fill-opacity:1.0; 
stroke:#FFFFFF; stroke-width:0; stroke-opacity:1; 
stroke-linecap:round; stroke-linejoin:round;">
<circle cx="102387" cy="67913.4" r="68.8976" /> 
</g>
<g style="fill:#FFFFFF; fill-opacity:1.0; 
stroke:#FFFFFF; stroke-width:39.3701; stroke-opacity:1; 
stroke-linecap:round; stroke-linejoin:round;">
</g>
<g style="fill:#FFFFFF; fill-opacity:1.0; 
stroke:#FFFFFF; stroke-width:0; stroke-opacity:1; 
stroke-linecap:round; stroke-linejoin:round;">
<circle cx="103371" cy="67913.4" r="68.8976" /> 
</g>
<g style="fill:#FFFFFF; fill-opacity:1.0; 
stroke:#FFFFFF; stroke-width:39.3701; stroke-opacity:1; 
stroke-linecap:round; stroke-linejoin:round;">
</g>
<g style="fill:#FFFFFF; fill-opacity:1.0; 
stroke:#FFFFFF; stroke-width:0; stroke-opacity:1; 
stroke-linecap:round; stroke-linejoin:round;">
<circle cx="109883" cy="65905.5" r="68.8976" /> 
</g>
<g style="fill:#FFFFFF; fill-opacity:1.0; 
stroke:#FFFFFF; stroke-width:39.3701; stroke-opacity:1; 
stroke-linecap:round; stroke-linejoin:round;">
</g>
<g style="fill:#FFFFFF; fill-opacity:1.0; 
stroke:#FFFFFF; stroke-width:0; stroke-opacity:1; 
stroke-linecap:round; stroke-linejoin:round;">
<circle cx="109883" cy="66889.8" r="68.8976" /> 
</g>
<g style="fill:#FFFFFF; fill-opacity:1.0; 
stroke:#FFFFFF; stroke-width:39.3701; stroke-opacity:1; 
stroke-linecap:round; stroke-linejoin:round;">
</g>
<g style="fill:#FFFFFF; fill-opacity:1.0; 
stroke:#FFFFFF; stroke-width:0; stroke-opacity:1; 
stroke-linecap:round; stroke-linejoin:round;">
<circle cx="109883" cy="67874" r="68.8976" /> 
</g>
<g style="fill:#FFFFFF; fill-opacity:1.0; 
stroke:#FFFFFF; stroke-width:39.3701; stroke-opacity:1; 
stroke-linecap:round; stroke-linejoin:round;">
</g>
<g style="fill:#FFFFFF; fill-opacity:1.0; 
stroke:#FFFFFF; stroke-width:0; stroke-opacity:1; 
stroke-linecap:round; stroke-linejoin:round;">
<circle cx="109883" cy="68858.3" r="68.8976" /> 
</g>
<g style="fill:#FFFFFF; fill-opacity:1.0; 
stroke:#FFFFFF; stroke-width:39.3701; stroke-opacity:1; 
stroke-linecap:round; stroke-linejoin:round;">
</g>
<g style="fill:#FFFFFF; fill-opacity:1.0; 
stroke:#FFFFFF; stroke-width:0; stroke-opacity:1; 
stroke-linecap:round; stroke-linejoin:round;">
<circle cx="102930" cy="65500" r="68.8976" /> 
</g>
<g style="fill:#FFFFFF; fill-opacity:1.0; 
stroke:#FFFFFF; stroke-width:39.3701; stroke-opacity:1; 
stroke-linecap:round; stroke-linejoin:round;">
</g>
<g style="fill:#FFFFFF; fill-opacity:1.0; 
stroke:#FFFFFF; stroke-width:0; stroke-opacity:1; 
stroke-linecap:round; stroke-linejoin:round;">
<circle cx="101946" cy="65500" r="68.8976" /> 
</g>
<g style="fill:#FFFFFF; fill-opacity:1.0; 
stroke:#FFFFFF; stroke-width:39.3701; stroke-opacity:1; 
stroke-linecap:round; stroke-linejoin:round;">
</g>
<g style="fill:#000000; fill-opacity:1.0; 
stroke:#000000; stroke-width:39.3701; stroke-opacity:1; 
stroke-linecap:round; stroke-linejoin:round;">
</g> 
</svg>
