<?xml version="1.0" standalone="no"?>
 <!DOCTYPE svg PUBLIC "-//W3C//DTD SVG 1.1//EN" 
 "http://www.w3.org/Graphics/SVG/1.1/DTD/svg11.dtd"> 
<svg
  xmlns:svg="http://www.w3.org/2000/svg"
  xmlns="http://www.w3.org/2000/svg"
  xmlns:xlink="http://www.w3.org/1999/xlink"
  version="1.1"
  width="29.700220cm" height="21.000720cm" viewBox="0 0 116930 82680">
<title>SVG Picture created as EEC_Project_1-F_Cu.svg date 2021/01/22 23:01:58 </title>
  <desc>Picture generated by PCBNEW </desc>
<g style="fill:#000000; fill-opacity:1;stroke:#000000; stroke-opacity:1;
stroke-linecap:round; stroke-linejoin:round;"
 transform="translate(0 0) scale(1 1)">
</g>
<g style="fill:#000000; fill-opacity:0.0; 
stroke:#000000; stroke-width:-0.000393701; stroke-opacity:1; 
stroke-linecap:round; stroke-linejoin:round;">
</g>
<g style="fill:#000000; fill-opacity:0.0; 
stroke:#000000; stroke-width:118.11; stroke-opacity:1; 
stroke-linecap:round; stroke-linejoin:round;">
<text x="56800" y="29395.3"
textLength="731.159" font-size="787.402" lengthAdjust="spacingAndGlyphs"
text-anchor="middle" opacity="0">+</text>
<path d="M56575 29142
L57024 29142
" />
<path d="M56800 29367
L56800 28917
" />
<g >
</g>
<g style="fill:#000000; fill-opacity:0.0; 
stroke:#000000; stroke-width:669.291; stroke-opacity:1; 
stroke-linecap:round; stroke-linejoin:round;">
<path d="M67300 33981
L67399 33981
" />
<path d="M67300 34965
L67399 34965
" />
</g>
<g style="fill:#000000; fill-opacity:0.0; 
stroke:#000000; stroke-width:0; stroke-opacity:1; 
stroke-linecap:round; stroke-linejoin:round;">
</g>
<g style="fill:#000000; fill-opacity:1.0; 
stroke:#000000; stroke-width:0; stroke-opacity:1; 
stroke-linecap:round; stroke-linejoin:round;">
<path style="fill:#000000; fill-opacity:1.0; 
stroke:#000000; stroke-width:0; stroke-opacity:1; 
stroke-linecap:round; stroke-linejoin:round;fill-rule:evenodd;"
d="M 67645.1,35615.8
67654.6,35617.2
67664,35619.6
67673.1,35622.8
67681.8,35627
67690.1,35631.9
67697.9,35637.7
67705,35644.2
67711.5,35651.3
67717.3,35659.1
67722.2,35667.4
67726.4,35676.1
67729.6,35685.2
67732,35694.6
67733.4,35704.1
67733.9,35713.8
67733.9,36186.2
67733.4,36195.9
67732,36205.4
67729.6,36214.8
67726.4,36223.9
67722.2,36232.6
67717.3,36240.9
67711.5,36248.7
67705,36255.8
67697.9,36262.3
67690.1,36268.1
67681.8,36273
67673.1,36277.2
67664,36280.4
67654.6,36282.8
67645.1,36284.2
67635.4,36284.6
67064.6,36284.6
67054.9,36284.2
67045.4,36282.8
67036,36280.4
67026.9,36277.2
67018.2,36273
67009.9,36268.1
67002.1,36262.3
66995,36255.8
66988.5,36248.7
66982.7,36240.9
66977.8,36232.6
66973.6,36223.9
66970.4,36214.8
66968,36205.4
66966.6,36195.9
66966.1,36186.2
66966.1,35713.8
66966.6,35704.1
66968,35694.6
66970.4,35685.2
66973.6,35676.1
66977.8,35667.4
66982.7,35659.1
66988.5,35651.3
66995,35644.2
67002.1,35637.7
67009.9,35631.9
67018.2,35627
67026.9,35622.8
67036,35619.6
67045.4,35617.2
67054.9,35615.8
67064.6,35615.4
67635.4,35615.4
Z" /> 
</g>
<g >
</g>
<g style="fill:#000000; fill-opacity:1.0; 
stroke:#000000; stroke-width:0; stroke-opacity:1; 
stroke-linecap:round; stroke-linejoin:round;">
<circle cx="61535.4" cy="29547.2" r="314.961" /> 
</g>
<g style="fill:#000000; fill-opacity:1.0; 
stroke:#000000; stroke-width:39.3701; stroke-opacity:1; 
stroke-linecap:round; stroke-linejoin:round;">
</g>
<g style="fill:#000000; fill-opacity:1.0; 
stroke:#000000; stroke-width:0; stroke-opacity:1; 
stroke-linecap:round; stroke-linejoin:round;">
<circle cx="64535.4" cy="29547.2" r="314.961" /> 
</g>
<g >
</g>
<g style="fill:#000000; fill-opacity:1.0; 
stroke:#000000; stroke-width:0; stroke-opacity:1; 
stroke-linecap:round; stroke-linejoin:round;">
<path style="fill:#000000; fill-opacity:1.0; 
stroke:#000000; stroke-width:0; stroke-opacity:1; 
stroke-linecap:round; stroke-linejoin:round;fill-rule:evenodd;"
d="M 62342.5,28031.5
61712.6,28031.5
61712.6,27401.6
62342.5,27401.6
Z" /> 
<circle cx="62027.6" cy="26338.6" r="314.961" /> 
</g>
<g style="fill:#000000; fill-opacity:1.0; 
stroke:#000000; stroke-width:39.3701; stroke-opacity:1; 
stroke-linecap:round; stroke-linejoin:round;">
</g>
<g >
</g>
<g style="fill:#000000; fill-opacity:1.0; 
stroke:#000000; stroke-width:39.3701; stroke-opacity:1; 
stroke-linecap:round; stroke-linejoin:round;">
</g>
<g style="fill:#000000; fill-opacity:1.0; 
stroke:#000000; stroke-width:0; stroke-opacity:1; 
stroke-linecap:round; stroke-linejoin:round;">
<circle cx="59468.5" cy="28149.6" r="314.961" /> 
</g>
<g style="fill:#000000; fill-opacity:1.0; 
stroke:#000000; stroke-width:39.3701; stroke-opacity:1; 
stroke-linecap:round; stroke-linejoin:round;">
</g>
<g style="fill:#000000; fill-opacity:1.0; 
stroke:#000000; stroke-width:0; stroke-opacity:1; 
stroke-linecap:round; stroke-linejoin:round;">
<circle cx="59468.5" cy="26181.1" r="314.961" /> 
</g>
<g style="fill:#000000; fill-opacity:1.0; 
stroke:#000000; stroke-width:39.3701; stroke-opacity:1; 
stroke-linecap:round; stroke-linejoin:round;">
</g>
<g >
</g>
<g style="fill:#000000; fill-opacity:1.0; 
stroke:#000000; stroke-width:39.3701; stroke-opacity:1; 
stroke-linecap:round; stroke-linejoin:round;">
</g>
<g style="fill:#000000; fill-opacity:1.0; 
stroke:#000000; stroke-width:0; stroke-opacity:1; 
stroke-linecap:round; stroke-linejoin:round;">
<path style="fill:#000000; fill-opacity:1.0; 
stroke:#000000; stroke-width:0; stroke-opacity:1; 
stroke-linecap:round; stroke-linejoin:round;fill-rule:evenodd;"
d="M 66653.5,26673.2
65944.9,26673.2
65944.9,25964.6
66653.5,25964.6
Z" /> 
<circle cx="66299.2" cy="25318.9" r="354.331" /> 
</g>
<g style="fill:#000000; fill-opacity:1.0; 
stroke:#000000; stroke-width:39.3701; stroke-opacity:1; 
stroke-linecap:round; stroke-linejoin:round;">
</g>
<g >
</g>
<g style="fill:#000000; fill-opacity:1.0; 
stroke:#000000; stroke-width:39.3701; stroke-opacity:1; 
stroke-linecap:round; stroke-linejoin:round;">
</g>
<g style="fill:#000000; fill-opacity:1.0; 
stroke:#000000; stroke-width:0; stroke-opacity:1; 
stroke-linecap:round; stroke-linejoin:round;">
<path style="fill:#000000; fill-opacity:1.0; 
stroke:#000000; stroke-width:0; stroke-opacity:1; 
stroke-linecap:round; stroke-linejoin:round;fill-rule:evenodd;"
d="M 57445.9,37066.6
57455.4,37068
57464.8,37070.4
57473.9,37073.6
57482.6,37077.8
57490.9,37082.7
57498.7,37088.5
57505.8,37095
57512.3,37102.1
57518.1,37109.9
57523,37118.2
57527.2,37126.9
57530.4,37136
57532.8,37145.4
57534.2,37154.9
57534.6,37164.6
57534.6,37735.4
57534.2,37745.1
57532.8,37754.6
57530.4,37764
57527.2,37773.1
57523,37781.8
57518.1,37790.1
57512.3,37797.9
57505.8,37805
57498.7,37811.5
57490.9,37817.3
57482.6,37822.2
57473.9,37826.4
57464.8,37829.6
57455.4,37832
57445.9,37833.4
57436.2,37833.9
56963.8,37833.9
56954.1,37833.4
56944.6,37832
56935.2,37829.6
56926.1,37826.4
56917.4,37822.2
56909.1,37817.3
56901.3,37811.5
56894.2,37805
56887.7,37797.9
56881.9,37790.1
56877,37781.8
56872.8,37773.1
56869.6,37764
56867.2,37754.6
56865.8,37745.1
56865.4,37735.4
56865.4,37164.6
56865.8,37154.9
56867.2,37145.4
56869.6,37136
56872.8,37126.9
56877,37118.2
56881.9,37109.9
56887.7,37102.1
56894.2,37095
56901.3,37088.5
56909.1,37082.7
56917.4,37077.8
56926.1,37073.6
56935.2,37070.4
56944.6,37068
56954.1,37066.6
56963.8,37066.1
57436.2,37066.1
Z" /> 
</g>
<g style="fill:#000000; fill-opacity:1.0; 
stroke:#000000; stroke-width:669.291; stroke-opacity:1; 
stroke-linecap:round; stroke-linejoin:round;">
</g>
<g style="fill:#000000; fill-opacity:0.0; 
stroke:#000000; stroke-width:669.291; stroke-opacity:1; 
stroke-linecap:round; stroke-linejoin:round;">
<path d="M58184 37400
L58184 37499
" />
<path d="M59168 37400
L59168 37499
" />
</g>
<g >
</g>
<g style="fill:#000000; fill-opacity:0.0; 
stroke:#000000; stroke-width:669.291; stroke-opacity:1; 
stroke-linecap:round; stroke-linejoin:round;">
</g>
<g style="fill:#000000; fill-opacity:0.0; 
stroke:#000000; stroke-width:0; stroke-opacity:1; 
stroke-linecap:round; stroke-linejoin:round;">
</g>
<g style="fill:#000000; fill-opacity:1.0; 
stroke:#000000; stroke-width:0; stroke-opacity:1; 
stroke-linecap:round; stroke-linejoin:round;">
<path style="fill:#000000; fill-opacity:1.0; 
stroke:#000000; stroke-width:0; stroke-opacity:1; 
stroke-linecap:round; stroke-linejoin:round;fill-rule:evenodd;"
d="M 66358.3,31889.8
66358.3,31220.5
67027.6,31220.5
67027.6,31889.8
Z" /> 
<circle cx="67692.9" cy="31555.1" r="334.646" /> 
<circle cx="66692.9" cy="30555.1" r="334.646" /> 
<circle cx="67692.9" cy="30555.1" r="334.646" /> 
<circle cx="66692.9" cy="29555.1" r="334.646" /> 
<circle cx="67692.9" cy="29555.1" r="334.646" /> 
</g>
<g >
</g>
<g style="fill:#000000; fill-opacity:1.0; 
stroke:#000000; stroke-width:0; stroke-opacity:1; 
stroke-linecap:round; stroke-linejoin:round;">
<path style="fill:#000000; fill-opacity:1.0; 
stroke:#000000; stroke-width:0; stroke-opacity:1; 
stroke-linecap:round; stroke-linejoin:round;fill-rule:evenodd;"
d="M 57342.3,30748.5
57351.9,30749.9
57361.2,30752.3
57370.3,30755.5
57379.1,30759.7
57387.4,30764.6
57395.1,30770.4
57402.3,30776.9
57408.8,30784
57414.5,30791.8
57419.5,30800.1
57423.6,30808.8
57426.9,30817.9
57429.2,30827.3
57430.6,30836.8
57431.1,30846.5
57431.1,31318.9
57430.6,31328.5
57429.2,31338.1
57426.9,31347.5
57423.6,31356.6
57419.5,31365.3
57414.5,31373.6
57408.8,31381.3
57402.3,31388.5
57395.1,31395
57387.4,31400.7
57379.1,31405.7
57370.3,31409.8
57361.2,31413.1
57351.9,31415.4
57342.3,31416.8
57332.7,31417.3
56761.8,31417.3
56752.2,31416.8
56742.6,31415.4
56733.2,31413.1
56724.1,31409.8
56715.4,31405.7
56707.1,31400.7
56699.4,31395
56692.2,31388.5
56685.7,31381.3
56680,31373.6
56675,31365.3
56670.9,31356.6
56667.6,31347.5
56665.3,31338.1
56663.9,31328.5
56663.4,31318.9
56663.4,30846.5
56663.9,30836.8
56665.3,30827.3
56667.6,30817.9
56670.9,30808.8
56675,30800.1
56680,30791.8
56685.7,30784
56692.2,30776.9
56699.4,30770.4
56707.1,30764.6
56715.4,30759.7
56724.1,30755.5
56733.2,30752.3
56742.6,30749.9
56752.2,30748.5
56761.8,30748
57332.7,30748
Z" /> 
</g>
<g style="fill:#000000; fill-opacity:1.0; 
stroke:#000000; stroke-width:669.291; stroke-opacity:1; 
stroke-linecap:round; stroke-linejoin:round;">
</g>
<g style="fill:#000000; fill-opacity:0.0; 
stroke:#000000; stroke-width:669.291; stroke-opacity:1; 
stroke-linecap:round; stroke-linejoin:round;">
<path d="M57096 32066
L56998 32066
" />
<path d="M57096 33051
L56998 33051
" />
<path d="M57096 34035
L56998 34035
" />
</g>
<g >
</g>
<g style="fill:#000000; fill-opacity:0.0; 
stroke:#000000; stroke-width:669.291; stroke-opacity:1; 
stroke-linecap:round; stroke-linejoin:round;">
</g>
<g style="fill:#000000; fill-opacity:0.0; 
stroke:#000000; stroke-width:0; stroke-opacity:1; 
stroke-linecap:round; stroke-linejoin:round;">
</g>
<g style="fill:#000000; fill-opacity:1.0; 
stroke:#000000; stroke-width:0; stroke-opacity:1; 
stroke-linecap:round; stroke-linejoin:round;">
<path style="fill:#000000; fill-opacity:1.0; 
stroke:#000000; stroke-width:0; stroke-opacity:1; 
stroke-linecap:round; stroke-linejoin:round;fill-rule:evenodd;"
d="M 57686.8,27283.9
57696.4,27285.4
57705.7,27287.7
57714.8,27291
57723.6,27295.1
57731.8,27300.1
57739.6,27305.8
57746.8,27312.3
57753.2,27319.4
57759,27327.2
57764,27335.5
57768.1,27344.2
57771.4,27353.3
57773.7,27362.7
57775.1,27372.2
57775.6,27381.9
57775.6,27854.3
57775.1,27864
57773.7,27873.5
57771.4,27882.9
57768.1,27892
57764,27900.7
57759,27909
57753.2,27916.8
57746.8,27923.9
57739.6,27930.4
57731.8,27936.2
57723.6,27941.1
57714.8,27945.3
57705.7,27948.5
57696.4,27950.9
57686.8,27952.3
57677.2,27952.8
57086.6,27952.8
57077,27952.3
57067.4,27950.9
57058,27948.5
57048.9,27945.3
57040.2,27941.1
57031.9,27936.2
57024.2,27930.4
57017,27923.9
57010.5,27916.8
57004.8,27909
56999.8,27900.7
56995.7,27892
56992.4,27882.9
56990.1,27873.5
56988.7,27864
56988.2,27854.3
56988.2,27381.9
56988.7,27372.2
56990.1,27362.7
56992.4,27353.3
56995.7,27344.2
56999.8,27335.5
57004.8,27327.2
57010.5,27319.4
57017,27312.3
57024.2,27305.8
57031.9,27300.1
57040.2,27295.1
57048.9,27291
57058,27287.7
57067.4,27285.4
57077,27283.9
57086.6,27283.5
57677.2,27283.5
Z" /> 
</g>
<g style="fill:#000000; fill-opacity:1.0; 
stroke:#000000; stroke-width:669.291; stroke-opacity:1; 
stroke-linecap:round; stroke-linejoin:round;">
</g>
<g style="fill:#000000; fill-opacity:0.0; 
stroke:#000000; stroke-width:669.291; stroke-opacity:1; 
stroke-linecap:round; stroke-linejoin:round;">
<path d="M57322 26633
L57440 26633
" />
</g>
<g >
</g>
<g style="fill:#000000; fill-opacity:0.0; 
stroke:#000000; stroke-width:669.291; stroke-opacity:1; 
stroke-linecap:round; stroke-linejoin:round;">
</g>
<g style="fill:#000000; fill-opacity:0.0; 
stroke:#000000; stroke-width:0; stroke-opacity:1; 
stroke-linecap:round; stroke-linejoin:round;">
</g>
<g style="fill:#000000; fill-opacity:1.0; 
stroke:#000000; stroke-width:0; stroke-opacity:1; 
stroke-linecap:round; stroke-linejoin:round;">
<path style="fill:#000000; fill-opacity:1.0; 
stroke:#000000; stroke-width:0; stroke-opacity:1; 
stroke-linecap:round; stroke-linejoin:round;fill-rule:evenodd;"
d="M 65078.7,37578.7
65078.7,38366.1
64291.3,38366.1
64291.3,37578.7
Z" /> 
<circle cx="61692.9" cy="37972.4" r="393.701" /> 
</g>
<g style="fill:#000000; fill-opacity:1.0; 
stroke:#000000; stroke-width:39.3701; stroke-opacity:1; 
stroke-linecap:round; stroke-linejoin:round;">
</g>
<g >
</g>
<g style="fill:#000000; fill-opacity:1.0; 
stroke:#000000; stroke-width:39.3701; stroke-opacity:1; 
stroke-linecap:round; stroke-linejoin:round;">
</g>
<g style="fill:#000000; fill-opacity:1.0; 
stroke:#000000; stroke-width:0; stroke-opacity:1; 
stroke-linecap:round; stroke-linejoin:round;">
<circle cx="61547.2" cy="34566.9" r="314.961" /> 
<circle cx="64547.2" cy="34566.9" r="314.961" /> 
</g>
<g style="fill:#000000; fill-opacity:1.0; 
stroke:#000000; stroke-width:39.3701; stroke-opacity:1; 
stroke-linecap:round; stroke-linejoin:round;">
</g>
<g >
</g>
<g style="fill:#000000; fill-opacity:1.0; 
stroke:#000000; stroke-width:39.3701; stroke-opacity:1; 
stroke-linecap:round; stroke-linejoin:round;">
</g>
<g style="fill:#000000; fill-opacity:1.0; 
stroke:#000000; stroke-width:0; stroke-opacity:1; 
stroke-linecap:round; stroke-linejoin:round;">
<circle cx="64566.9" cy="25287.4" r="314.961" /> 
</g>
<g style="fill:#000000; fill-opacity:1.0; 
stroke:#000000; stroke-width:39.3701; stroke-opacity:1; 
stroke-linecap:round; stroke-linejoin:round;">
</g>
<g style="fill:#000000; fill-opacity:1.0; 
stroke:#000000; stroke-width:0; stroke-opacity:1; 
stroke-linecap:round; stroke-linejoin:round;">
<circle cx="64566.9" cy="28287.4" r="314.961" /> 
</g>
<g >
</g>
<g style="fill:#000000; fill-opacity:1.0; 
stroke:#000000; stroke-width:0; stroke-opacity:1; 
stroke-linecap:round; stroke-linejoin:round;">
<path style="fill:#000000; fill-opacity:1.0; 
stroke:#000000; stroke-width:0; stroke-opacity:1; 
stroke-linecap:round; stroke-linejoin:round;fill-rule:evenodd;"
d="M 62427,31179.4
62432.8,31180.3
62438.4,31181.7
62443.9,31183.6
62449.1,31186.1
62454.1,31189.1
62458.7,31192.5
62463,31196.4
62466.9,31200.7
62470.4,31205.4
62473.3,31210.4
62475.8,31215.6
62477.8,31221
62479.2,31226.7
62480,31232.4
62480.3,31238.2
62480.3,31356.3
62480,31362.1
62479.2,31367.8
62477.8,31373.4
62475.8,31378.9
62473.3,31384.1
62470.4,31389.1
62466.9,31393.8
62463,31398.1
62458.7,31401.9
62454.1,31405.4
62449.1,31408.4
62443.9,31410.9
62438.4,31412.8
62432.8,31414.2
62427,31415.1
62421.3,31415.4
61771.7,31415.4
61765.9,31415.1
61760.1,31414.2
61754.5,31412.8
61749.1,31410.9
61743.8,31408.4
61738.8,31405.4
61734.2,31401.9
61729.9,31398.1
61726,31393.8
61722.6,31389.1
61719.6,31384.1
61717.1,31378.9
61715.1,31373.4
61713.7,31367.8
61712.9,31362.1
61712.6,31356.3
61712.6,31238.2
61712.9,31232.4
61713.7,31226.7
61715.1,31221
61717.1,31215.6
61719.6,31210.4
61722.6,31205.4
61726,31200.7
61729.9,31196.4
61734.2,31192.5
61738.8,31189.1
61743.8,31186.1
61749.1,31183.6
61754.5,31181.7
61760.1,31180.3
61765.9,31179.4
61771.7,31179.1
62421.3,31179.1
Z" /> 
<path style="fill:#000000; fill-opacity:1.0; 
stroke:#000000; stroke-width:0; stroke-opacity:1; 
stroke-linecap:round; stroke-linejoin:round;fill-rule:evenodd;"
d="M 62427,31679.4
62432.8,31680.3
62438.4,31681.7
62443.9,31683.6
62449.1,31686.1
62454.1,31689.1
62458.7,31692.5
62463,31696.4
62466.9,31700.7
62470.4,31705.4
62473.3,31710.4
62475.8,31715.6
62477.8,31721
62479.2,31726.7
62480,31732.4
62480.3,31738.2
62480.3,31856.3
62480,31862.1
62479.2,31867.8
62477.8,31873.4
62475.8,31878.9
62473.3,31884.1
62470.4,31889.1
62466.9,31893.8
62463,31898.1
62458.7,31901.9
62454.1,31905.4
62449.1,31908.4
62443.9,31910.9
62438.4,31912.8
62432.8,31914.2
62427,31915.1
62421.3,31915.4
61771.7,31915.4
61765.9,31915.1
61760.1,31914.2
61754.5,31912.8
61749.1,31910.9
61743.8,31908.4
61738.8,31905.4
61734.2,31901.9
61729.9,31898.1
61726,31893.8
61722.6,31889.1
61719.6,31884.1
61717.1,31878.9
61715.1,31873.4
61713.7,31867.8
61712.9,31862.1
61712.6,31856.3
61712.6,31738.2
61712.9,31732.4
61713.7,31726.7
61715.1,31721
61717.1,31715.6
61719.6,31710.4
61722.6,31705.4
61726,31700.7
61729.9,31696.4
61734.2,31692.5
61738.8,31689.1
61743.8,31686.1
61749.1,31683.6
61754.5,31681.7
61760.1,31680.3
61765.9,31679.4
61771.7,31679.1
62421.3,31679.1
Z" /> 
<path style="fill:#000000; fill-opacity:1.0; 
stroke:#000000; stroke-width:0; stroke-opacity:1; 
stroke-linecap:round; stroke-linejoin:round;fill-rule:evenodd;"
d="M 62427,32179.4
62432.8,32180.3
62438.4,32181.7
62443.9,32183.6
62449.1,32186.1
62454.1,32189.1
62458.7,32192.5
62463,32196.4
62466.9,32200.7
62470.4,32205.4
62473.3,32210.4
62475.8,32215.6
62477.8,32221
62479.2,32226.7
62480,32232.4
62480.3,32238.2
62480.3,32356.3
62480,32362.1
62479.2,32367.8
62477.8,32373.4
62475.8,32378.9
62473.3,32384.1
62470.4,32389.1
62466.9,32393.8
62463,32398.1
62458.7,32401.9
62454.1,32405.4
62449.1,32408.4
62443.9,32410.9
62438.4,32412.8
62432.8,32414.2
62427,32415.1
62421.3,32415.4
61771.7,32415.4
61765.9,32415.1
61760.1,32414.2
61754.5,32412.8
61749.1,32410.9
61743.8,32408.4
61738.8,32405.4
61734.2,32401.9
61729.9,32398.1
61726,32393.8
61722.6,32389.1
61719.6,32384.1
61717.1,32378.9
61715.1,32373.4
61713.7,32367.8
61712.9,32362.1
61712.6,32356.3
61712.6,32238.2
61712.9,32232.4
61713.7,32226.7
61715.1,32221
61717.1,32215.6
61719.6,32210.4
61722.6,32205.4
61726,32200.7
61729.9,32196.4
61734.2,32192.5
61738.8,32189.1
61743.8,32186.1
61749.1,32183.6
61754.5,32181.7
61760.1,32180.3
61765.9,32179.4
61771.7,32179.1
62421.3,32179.1
Z" /> 
<path style="fill:#000000; fill-opacity:1.0; 
stroke:#000000; stroke-width:0; stroke-opacity:1; 
stroke-linecap:round; stroke-linejoin:round;fill-rule:evenodd;"
d="M 62427,32679.4
62432.8,32680.3
62438.4,32681.7
62443.9,32683.6
62449.1,32686.1
62454.1,32689.1
62458.7,32692.5
62463,32696.4
62466.9,32700.7
62470.4,32705.4
62473.3,32710.4
62475.8,32715.6
62477.8,32721
62479.2,32726.7
62480,32732.4
62480.3,32738.2
62480.3,32856.3
62480,32862.1
62479.2,32867.8
62477.8,32873.4
62475.8,32878.9
62473.3,32884.1
62470.4,32889.1
62466.9,32893.8
62463,32898.1
62458.7,32901.9
62454.1,32905.4
62449.1,32908.4
62443.9,32910.9
62438.4,32912.8
62432.8,32914.2
62427,32915.1
62421.3,32915.4
61771.7,32915.4
61765.9,32915.1
61760.1,32914.2
61754.5,32912.8
61749.1,32910.9
61743.8,32908.4
61738.8,32905.4
61734.2,32901.9
61729.9,32898.1
61726,32893.8
61722.6,32889.1
61719.6,32884.1
61717.1,32878.9
61715.1,32873.4
61713.7,32867.8
61712.9,32862.1
61712.6,32856.3
61712.6,32738.2
61712.9,32732.4
61713.7,32726.7
61715.1,32721
61717.1,32715.6
61719.6,32710.4
61722.6,32705.4
61726,32700.7
61729.9,32696.4
61734.2,32692.5
61738.8,32689.1
61743.8,32686.1
61749.1,32683.6
61754.5,32681.7
61760.1,32680.3
61765.9,32679.4
61771.7,32679.1
62421.3,32679.1
Z" /> 
<path style="fill:#000000; fill-opacity:1.0; 
stroke:#000000; stroke-width:0; stroke-opacity:1; 
stroke-linecap:round; stroke-linejoin:round;fill-rule:evenodd;"
d="M 64375.9,32679.4
64381.6,32680.3
64387.2,32681.7
64392.7,32683.6
64397.9,32686.1
64402.9,32689.1
64407.5,32692.5
64411.8,32696.4
64415.7,32700.7
64419.2,32705.4
64422.2,32710.4
64424.6,32715.6
64426.6,32721
64428,32726.7
64428.8,32732.4
64429.1,32738.2
64429.1,32856.3
64428.8,32862.1
64428,32867.8
64426.6,32873.4
64424.6,32878.9
64422.2,32884.1
64419.2,32889.1
64415.7,32893.8
64411.8,32898.1
64407.5,32901.9
64402.9,32905.4
64397.9,32908.4
64392.7,32910.9
64387.2,32912.8
64381.6,32914.2
64375.9,32915.1
64370.1,32915.4
63720.5,32915.4
63714.7,32915.1
63709,32914.2
63703.3,32912.8
63697.9,32910.9
63692.6,32908.4
63687.7,32905.4
63683,32901.9
63678.7,32898.1
63674.8,32893.8
63671.4,32889.1
63668.4,32884.1
63665.9,32878.9
63664,32873.4
63662.6,32867.8
63661.7,32862.1
63661.4,32856.3
63661.4,32738.2
63661.7,32732.4
63662.6,32726.7
63664,32721
63665.9,32715.6
63668.4,32710.4
63671.4,32705.4
63674.8,32700.7
63678.7,32696.4
63683,32692.5
63687.7,32689.1
63692.6,32686.1
63697.9,32683.6
63703.3,32681.7
63709,32680.3
63714.7,32679.4
63720.5,32679.1
64370.1,32679.1
Z" /> 
<path style="fill:#000000; fill-opacity:1.0; 
stroke:#000000; stroke-width:0; stroke-opacity:1; 
stroke-linecap:round; stroke-linejoin:round;fill-rule:evenodd;"
d="M 64375.9,32179.4
64381.6,32180.3
64387.2,32181.7
64392.7,32183.6
64397.9,32186.1
64402.9,32189.1
64407.5,32192.5
64411.8,32196.4
64415.7,32200.7
64419.2,32205.4
64422.2,32210.4
64424.6,32215.6
64426.6,32221
64428,32226.7
64428.8,32232.4
64429.1,32238.2
64429.1,32356.3
64428.8,32362.1
64428,32367.8
64426.6,32373.4
64424.6,32378.9
64422.2,32384.1
64419.2,32389.1
64415.7,32393.8
64411.8,32398.1
64407.5,32401.9
64402.9,32405.4
64397.9,32408.4
64392.7,32410.9
64387.2,32412.8
64381.6,32414.2
64375.9,32415.1
64370.1,32415.4
63720.5,32415.4
63714.7,32415.1
63709,32414.2
63703.3,32412.8
63697.9,32410.9
63692.6,32408.4
63687.7,32405.4
63683,32401.9
63678.7,32398.1
63674.8,32393.8
63671.4,32389.1
63668.4,32384.1
63665.9,32378.9
63664,32373.4
63662.6,32367.8
63661.7,32362.1
63661.4,32356.3
63661.4,32238.2
63661.7,32232.4
63662.6,32226.7
63664,32221
63665.9,32215.6
63668.4,32210.4
63671.4,32205.4
63674.8,32200.7
63678.7,32196.4
63683,32192.5
63687.7,32189.1
63692.6,32186.1
63697.9,32183.6
63703.3,32181.7
63709,32180.3
63714.7,32179.4
63720.5,32179.1
64370.1,32179.1
Z" /> 
<path style="fill:#000000; fill-opacity:1.0; 
stroke:#000000; stroke-width:0; stroke-opacity:1; 
stroke-linecap:round; stroke-linejoin:round;fill-rule:evenodd;"
d="M 64375.9,31679.4
64381.6,31680.3
64387.2,31681.7
64392.7,31683.6
64397.9,31686.1
64402.9,31689.1
64407.5,31692.5
64411.8,31696.4
64415.7,31700.7
64419.2,31705.4
64422.2,31710.4
64424.6,31715.6
64426.6,31721
64428,31726.7
64428.8,31732.4
64429.1,31738.2
64429.1,31856.3
64428.8,31862.1
64428,31867.8
64426.6,31873.4
64424.6,31878.9
64422.2,31884.1
64419.2,31889.1
64415.7,31893.8
64411.8,31898.1
64407.5,31901.9
64402.9,31905.4
64397.9,31908.4
64392.7,31910.9
64387.2,31912.8
64381.6,31914.2
64375.9,31915.1
64370.1,31915.4
63720.5,31915.4
63714.7,31915.1
63709,31914.2
63703.3,31912.8
63697.9,31910.9
63692.6,31908.4
63687.7,31905.4
63683,31901.9
63678.7,31898.1
63674.8,31893.8
63671.4,31889.1
63668.4,31884.1
63665.9,31878.9
63664,31873.4
63662.6,31867.8
63661.7,31862.1
63661.4,31856.3
63661.4,31738.2
63661.7,31732.4
63662.6,31726.7
63664,31721
63665.9,31715.6
63668.4,31710.4
63671.4,31705.4
63674.8,31700.7
63678.7,31696.4
63683,31692.5
63687.7,31689.1
63692.6,31686.1
63697.9,31683.6
63703.3,31681.7
63709,31680.3
63714.7,31679.4
63720.5,31679.1
64370.1,31679.1
Z" /> 
<path style="fill:#000000; fill-opacity:1.0; 
stroke:#000000; stroke-width:0; stroke-opacity:1; 
stroke-linecap:round; stroke-linejoin:round;fill-rule:evenodd;"
d="M 64375.9,31179.4
64381.6,31180.3
64387.2,31181.7
64392.7,31183.6
64397.9,31186.1
64402.9,31189.1
64407.5,31192.5
64411.8,31196.4
64415.7,31200.7
64419.2,31205.4
64422.2,31210.4
64424.6,31215.6
64426.6,31221
64428,31226.7
64428.8,31232.4
64429.1,31238.2
64429.1,31356.3
64428.8,31362.1
64428,31367.8
64426.6,31373.4
64424.6,31378.9
64422.2,31384.1
64419.2,31389.1
64415.7,31393.8
64411.8,31398.1
64407.5,31401.9
64402.9,31405.4
64397.9,31408.4
64392.7,31410.9
64387.2,31412.8
64381.6,31414.2
64375.9,31415.1
64370.1,31415.4
63720.5,31415.4
63714.7,31415.1
63709,31414.2
63703.3,31412.8
63697.9,31410.9
63692.6,31408.4
63687.7,31405.4
63683,31401.9
63678.7,31398.1
63674.8,31393.8
63671.4,31389.1
63668.4,31384.1
63665.9,31378.9
63664,31373.4
63662.6,31367.8
63661.7,31362.1
63661.4,31356.3
63661.4,31238.2
63661.7,31232.4
63662.6,31226.7
63664,31221
63665.9,31215.6
63668.4,31210.4
63671.4,31205.4
63674.8,31200.7
63678.7,31196.4
63683,31192.5
63687.7,31189.1
63692.6,31186.1
63697.9,31183.6
63703.3,31181.7
63709,31180.3
63714.7,31179.4
63720.5,31179.1
64370.1,31179.1
Z" /> 
</g>
<g >
</g>
<g style="fill:#000000; fill-opacity:1.0; 
stroke:#000000; stroke-width:0; stroke-opacity:1; 
stroke-linecap:round; stroke-linejoin:round;">
<circle cx="64900" cy="31300" r="157.48" /> 
</g>
<g style="fill:#000000; fill-opacity:1.0; 
stroke:#000000; stroke-width:39.3701; stroke-opacity:1; 
stroke-linecap:round; stroke-linejoin:round;">
</g>
<g style="fill:#000000; fill-opacity:1.0; 
stroke:#000000; stroke-width:0; stroke-opacity:1; 
stroke-linecap:round; stroke-linejoin:round;">
<circle cx="61000" cy="32800" r="157.48" /> 
</g>
<g style="fill:#000000; fill-opacity:1.0; 
stroke:#000000; stroke-width:39.3701; stroke-opacity:1; 
stroke-linecap:round; stroke-linejoin:round;">
</g>
<g style="fill:#000000; fill-opacity:1.0; 
stroke:#000000; stroke-width:0; stroke-opacity:1; 
stroke-linecap:round; stroke-linejoin:round;">
<circle cx="64900" cy="31800" r="157.48" /> 
</g>
<g style="fill:#000000; fill-opacity:1.0; 
stroke:#000000; stroke-width:39.3701; stroke-opacity:1; 
stroke-linecap:round; stroke-linejoin:round;">
</g>
<g style="fill:#000000; fill-opacity:1.0; 
stroke:#000000; stroke-width:0; stroke-opacity:1; 
stroke-linecap:round; stroke-linejoin:round;">
<circle cx="64900" cy="32300" r="157.48" /> 
</g>
<g style="fill:#000000; fill-opacity:1.0; 
stroke:#000000; stroke-width:39.3701; stroke-opacity:1; 
stroke-linecap:round; stroke-linejoin:round;">
</g>
<g style="fill:#000000; fill-opacity:1.0; 
stroke:#000000; stroke-width:0; stroke-opacity:1; 
stroke-linecap:round; stroke-linejoin:round;">
<circle cx="64900" cy="32800" r="157.48" /> 
</g>
<g style="fill:#000000; fill-opacity:1.0; 
stroke:#000000; stroke-width:39.3701; stroke-opacity:1; 
stroke-linecap:round; stroke-linejoin:round;">
</g>
<g style="fill:#000000; fill-opacity:1.0; 
stroke:#000000; stroke-width:0; stroke-opacity:1; 
stroke-linecap:round; stroke-linejoin:round;">
<circle cx="61000" cy="31300" r="157.48" /> 
</g>
<g style="fill:#000000; fill-opacity:1.0; 
stroke:#000000; stroke-width:39.3701; stroke-opacity:1; 
stroke-linecap:round; stroke-linejoin:round;">
</g>
<g style="fill:#000000; fill-opacity:1.0; 
stroke:#000000; stroke-width:0; stroke-opacity:1; 
stroke-linecap:round; stroke-linejoin:round;">
<circle cx="61000" cy="31800" r="157.48" /> 
</g>
<g style="fill:#000000; fill-opacity:1.0; 
stroke:#000000; stroke-width:39.3701; stroke-opacity:1; 
stroke-linecap:round; stroke-linejoin:round;">
</g>
<g style="fill:#000000; fill-opacity:1.0; 
stroke:#000000; stroke-width:0; stroke-opacity:1; 
stroke-linecap:round; stroke-linejoin:round;">
<circle cx="61000" cy="32300" r="157.48" /> 
</g>
<g style="fill:#000000; fill-opacity:1.0; 
stroke:#000000; stroke-width:39.3701; stroke-opacity:1; 
stroke-linecap:round; stroke-linejoin:round;">
</g>
<g >
</g>
<g style="fill:#000000; fill-opacity:1.0; 
stroke:#000000; stroke-width:39.3701; stroke-opacity:1; 
stroke-linecap:round; stroke-linejoin:round;">
</g>
<g style="fill:#000000; fill-opacity:1.0; 
stroke:#000000; stroke-width:196.85; stroke-opacity:1; 
stroke-linecap:round; stroke-linejoin:round;">
</g>
<g style="fill:#000000; fill-opacity:0.0; 
stroke:#000000; stroke-width:196.85; stroke-opacity:1; 
stroke-linecap:round; stroke-linejoin:round;">
<path d="M58937 27618
L59468 28149
" />
<path d="M57381 27618
L58937 27618
" />
<path d="M61594 28149
L62027 27716
" />
<path d="M59468 28149
L61594 28149
" />
<path d="M63996 27716
L64566 28287
" />
<path d="M62027 27716
L63996 27716
" />
<path d="M64566 29515
L64535 29547
" />
<path d="M64566 28287
L64566 29515
" />
<path d="M64897 31297
L64900 31300
" />
<path d="M64045 31297
L64897 31297
" />
<path d="M64535 29547
L64697 29547
" />
<path d="M67350 35950
L67850 35950
" />
<path d="M67850 35950
L68350 35450
" />
<path d="M68350 32212
L67692 31555
" />
<path d="M68350 35450
L68350 32212
" />
<path d="M67350 36413
L65950 37813
" />
<path d="M67350 35950
L67350 36413
" />
<path d="M65950 37813
L65950 38400
" />
<path d="M65950 38400
L65400 38950
" />
<path d="M62670 38950
L61692 37972
" />
<path d="M65400 38950
L62670 38950
" />
<path d="M57381 30748
L57047 31082
" />
<path d="M57381 27618
L57381 30748
" />
<path d="M61365 38300
L61692 37972
" />
<path d="M57650 38300
L61365 38300
" />
<path d="M57200 37850
L57650 38300
" />
<path d="M57200 37450
L57200 37850
" />
<path d="M57200 37450
L56500 37450
" />
<path d="M56500 37450
L56100 37050
" />
<path d="M56100 37050
L56100 31450
" />
<path d="M56467 31082
L57047 31082
" />
<path d="M56100 31450
L56467 31082
" />
<path d="M62059 32834
L62096 32797
" />
<path d="M59015 26633
L59468 26181
" />
<path d="M57381 26633
L59015 26633
" />
<path d="M61870 26181
L62027 26338
" />
<path d="M59468 26181
L61870 26181
" />
<path d="M66279 26338
L66299 26318
" />
<path d="M62027 26338
L66279 26338
" />
<path d="M66299 26318
L66299 26988
" />
<path d="M67692 28381
L67692 29555
" />
<path d="M66299 26988
L67692 28381
" />
<path d="M61002 32797
L61000 32800
" />
<path d="M62096 32797
L61002 32797
" />
<path d="M66267 25287
L66299 25318
" />
<path d="M64566 25287
L66267 25287
" />
<path d="M64897 31797
L64900 31800
" />
<path d="M64045 31797
L64897 31797
" />
<path d="M64897 32297
L64900 32300
" />
<path d="M64045 32297
L64897 32297
" />
<path d="M64897 32797
L64900 32800
" />
<path d="M64045 32797
L64897 32797
" />
<path d="M61002 31297
L61000 31300
" />
<path d="M62096 31297
L61002 31297
" />
<path d="M61002 31797
L61000 31800
" />
<path d="M62096 31797
L61002 31797
" />
<path d="M61002 32297
L61000 32300
" />
<path d="M62096 32297
L61002 32297
" />
<path d="M64685 34704
L64547 34566
" />
<path d="M64685 37972
L64685 34704
" />
</g>
<g >
</g>
</g>
<g style="fill:#FFFFFF; fill-opacity:0.0; 
stroke:#FFFFFF; stroke-width:196.85; stroke-opacity:1; 
stroke-linecap:round; stroke-linejoin:round;">
</g>
<g style="fill:#FFFFFF; fill-opacity:1.0; 
stroke:#FFFFFF; stroke-width:0; stroke-opacity:1; 
stroke-linecap:round; stroke-linejoin:round;">
<circle cx="64900" cy="31300" r="78.7402" /> 
</g>
<g style="fill:#FFFFFF; fill-opacity:1.0; 
stroke:#FFFFFF; stroke-width:39.3701; stroke-opacity:1; 
stroke-linecap:round; stroke-linejoin:round;">
</g>
<g style="fill:#FFFFFF; fill-opacity:1.0; 
stroke:#FFFFFF; stroke-width:0; stroke-opacity:1; 
stroke-linecap:round; stroke-linejoin:round;">
<circle cx="61000" cy="32800" r="78.7402" /> 
</g>
<g style="fill:#FFFFFF; fill-opacity:1.0; 
stroke:#FFFFFF; stroke-width:39.3701; stroke-opacity:1; 
stroke-linecap:round; stroke-linejoin:round;">
</g>
<g style="fill:#FFFFFF; fill-opacity:1.0; 
stroke:#FFFFFF; stroke-width:0; stroke-opacity:1; 
stroke-linecap:round; stroke-linejoin:round;">
<circle cx="64900" cy="31800" r="78.7402" /> 
</g>
<g style="fill:#FFFFFF; fill-opacity:1.0; 
stroke:#FFFFFF; stroke-width:39.3701; stroke-opacity:1; 
stroke-linecap:round; stroke-linejoin:round;">
</g>
<g style="fill:#FFFFFF; fill-opacity:1.0; 
stroke:#FFFFFF; stroke-width:0; stroke-opacity:1; 
stroke-linecap:round; stroke-linejoin:round;">
<circle cx="64900" cy="32300" r="78.7402" /> 
</g>
<g style="fill:#FFFFFF; fill-opacity:1.0; 
stroke:#FFFFFF; stroke-width:39.3701; stroke-opacity:1; 
stroke-linecap:round; stroke-linejoin:round;">
</g>
<g style="fill:#FFFFFF; fill-opacity:1.0; 
stroke:#FFFFFF; stroke-width:0; stroke-opacity:1; 
stroke-linecap:round; stroke-linejoin:round;">
<circle cx="64900" cy="32800" r="78.7402" /> 
</g>
<g style="fill:#FFFFFF; fill-opacity:1.0; 
stroke:#FFFFFF; stroke-width:39.3701; stroke-opacity:1; 
stroke-linecap:round; stroke-linejoin:round;">
</g>
<g style="fill:#FFFFFF; fill-opacity:1.0; 
stroke:#FFFFFF; stroke-width:0; stroke-opacity:1; 
stroke-linecap:round; stroke-linejoin:round;">
<circle cx="61000" cy="31300" r="78.7402" /> 
</g>
<g style="fill:#FFFFFF; fill-opacity:1.0; 
stroke:#FFFFFF; stroke-width:39.3701; stroke-opacity:1; 
stroke-linecap:round; stroke-linejoin:round;">
</g>
<g style="fill:#FFFFFF; fill-opacity:1.0; 
stroke:#FFFFFF; stroke-width:0; stroke-opacity:1; 
stroke-linecap:round; stroke-linejoin:round;">
<circle cx="61000" cy="31800" r="78.7402" /> 
</g>
<g style="fill:#FFFFFF; fill-opacity:1.0; 
stroke:#FFFFFF; stroke-width:39.3701; stroke-opacity:1; 
stroke-linecap:round; stroke-linejoin:round;">
</g>
<g style="fill:#FFFFFF; fill-opacity:1.0; 
stroke:#FFFFFF; stroke-width:0; stroke-opacity:1; 
stroke-linecap:round; stroke-linejoin:round;">
<circle cx="61000" cy="32300" r="78.7402" /> 
</g>
<g style="fill:#FFFFFF; fill-opacity:1.0; 
stroke:#FFFFFF; stroke-width:39.3701; stroke-opacity:1; 
stroke-linecap:round; stroke-linejoin:round;">
</g>
<g style="fill:#FFFFFF; fill-opacity:1.0; 
stroke:#FFFFFF; stroke-width:0; stroke-opacity:1; 
stroke-linecap:round; stroke-linejoin:round;">
<circle cx="67350" cy="33981.5" r="187.008" /> 
</g>
<g style="fill:#FFFFFF; fill-opacity:1.0; 
stroke:#FFFFFF; stroke-width:39.3701; stroke-opacity:1; 
stroke-linecap:round; stroke-linejoin:round;">
</g>
<g style="fill:#FFFFFF; fill-opacity:1.0; 
stroke:#FFFFFF; stroke-width:0; stroke-opacity:1; 
stroke-linecap:round; stroke-linejoin:round;">
<circle cx="67350" cy="34965.7" r="187.008" /> 
</g>
<g style="fill:#FFFFFF; fill-opacity:1.0; 
stroke:#FFFFFF; stroke-width:39.3701; stroke-opacity:1; 
stroke-linecap:round; stroke-linejoin:round;">
</g>
<g style="fill:#FFFFFF; fill-opacity:1.0; 
stroke:#FFFFFF; stroke-width:0; stroke-opacity:1; 
stroke-linecap:round; stroke-linejoin:round;">
<circle cx="67350" cy="35950" r="187.008" /> 
</g>
<g style="fill:#FFFFFF; fill-opacity:1.0; 
stroke:#FFFFFF; stroke-width:39.3701; stroke-opacity:1; 
stroke-linecap:round; stroke-linejoin:round;">
</g>
<g style="fill:#FFFFFF; fill-opacity:1.0; 
stroke:#FFFFFF; stroke-width:0; stroke-opacity:1; 
stroke-linecap:round; stroke-linejoin:round;">
<circle cx="61535.4" cy="29547.2" r="157.48" /> 
</g>
<g style="fill:#FFFFFF; fill-opacity:1.0; 
stroke:#FFFFFF; stroke-width:39.3701; stroke-opacity:1; 
stroke-linecap:round; stroke-linejoin:round;">
</g>
<g style="fill:#FFFFFF; fill-opacity:1.0; 
stroke:#FFFFFF; stroke-width:0; stroke-opacity:1; 
stroke-linecap:round; stroke-linejoin:round;">
<circle cx="64535.4" cy="29547.2" r="157.48" /> 
</g>
<g style="fill:#FFFFFF; fill-opacity:1.0; 
stroke:#FFFFFF; stroke-width:39.3701; stroke-opacity:1; 
stroke-linecap:round; stroke-linejoin:round;">
</g>
<g style="fill:#FFFFFF; fill-opacity:1.0; 
stroke:#FFFFFF; stroke-width:0; stroke-opacity:1; 
stroke-linecap:round; stroke-linejoin:round;">
<circle cx="62027.6" cy="27716.5" r="157.48" /> 
</g>
<g style="fill:#FFFFFF; fill-opacity:1.0; 
stroke:#FFFFFF; stroke-width:39.3701; stroke-opacity:1; 
stroke-linecap:round; stroke-linejoin:round;">
</g>
<g style="fill:#FFFFFF; fill-opacity:1.0; 
stroke:#FFFFFF; stroke-width:0; stroke-opacity:1; 
stroke-linecap:round; stroke-linejoin:round;">
<circle cx="62027.6" cy="26338.6" r="157.48" /> 
</g>
<g style="fill:#FFFFFF; fill-opacity:1.0; 
stroke:#FFFFFF; stroke-width:39.3701; stroke-opacity:1; 
stroke-linecap:round; stroke-linejoin:round;">
</g>
<g style="fill:#FFFFFF; fill-opacity:1.0; 
stroke:#FFFFFF; stroke-width:0; stroke-opacity:1; 
stroke-linecap:round; stroke-linejoin:round;">
<circle cx="59468.5" cy="28149.6" r="157.48" /> 
</g>
<g style="fill:#FFFFFF; fill-opacity:1.0; 
stroke:#FFFFFF; stroke-width:39.3701; stroke-opacity:1; 
stroke-linecap:round; stroke-linejoin:round;">
</g>
<g style="fill:#FFFFFF; fill-opacity:1.0; 
stroke:#FFFFFF; stroke-width:0; stroke-opacity:1; 
stroke-linecap:round; stroke-linejoin:round;">
<circle cx="59468.5" cy="26181.1" r="157.48" /> 
</g>
<g style="fill:#FFFFFF; fill-opacity:1.0; 
stroke:#FFFFFF; stroke-width:39.3701; stroke-opacity:1; 
stroke-linecap:round; stroke-linejoin:round;">
</g>
<g style="fill:#FFFFFF; fill-opacity:1.0; 
stroke:#FFFFFF; stroke-width:0; stroke-opacity:1; 
stroke-linecap:round; stroke-linejoin:round;">
<circle cx="66299.2" cy="26318.9" r="177.165" /> 
</g>
<g style="fill:#FFFFFF; fill-opacity:1.0; 
stroke:#FFFFFF; stroke-width:39.3701; stroke-opacity:1; 
stroke-linecap:round; stroke-linejoin:round;">
</g>
<g style="fill:#FFFFFF; fill-opacity:1.0; 
stroke:#FFFFFF; stroke-width:0; stroke-opacity:1; 
stroke-linecap:round; stroke-linejoin:round;">
<circle cx="66299.2" cy="25318.9" r="177.165" /> 
</g>
<g style="fill:#FFFFFF; fill-opacity:1.0; 
stroke:#FFFFFF; stroke-width:39.3701; stroke-opacity:1; 
stroke-linecap:round; stroke-linejoin:round;">
</g>
<g style="fill:#FFFFFF; fill-opacity:1.0; 
stroke:#FFFFFF; stroke-width:0; stroke-opacity:1; 
stroke-linecap:round; stroke-linejoin:round;">
<circle cx="57200" cy="37450" r="187.008" /> 
</g>
<g style="fill:#FFFFFF; fill-opacity:1.0; 
stroke:#FFFFFF; stroke-width:39.3701; stroke-opacity:1; 
stroke-linecap:round; stroke-linejoin:round;">
</g>
<g style="fill:#FFFFFF; fill-opacity:1.0; 
stroke:#FFFFFF; stroke-width:0; stroke-opacity:1; 
stroke-linecap:round; stroke-linejoin:round;">
<circle cx="58184.3" cy="37450" r="187.008" /> 
</g>
<g style="fill:#FFFFFF; fill-opacity:1.0; 
stroke:#FFFFFF; stroke-width:39.3701; stroke-opacity:1; 
stroke-linecap:round; stroke-linejoin:round;">
</g>
<g style="fill:#FFFFFF; fill-opacity:1.0; 
stroke:#FFFFFF; stroke-width:0; stroke-opacity:1; 
stroke-linecap:round; stroke-linejoin:round;">
<circle cx="59168.5" cy="37450" r="187.008" /> 
</g>
<g style="fill:#FFFFFF; fill-opacity:1.0; 
stroke:#FFFFFF; stroke-width:39.3701; stroke-opacity:1; 
stroke-linecap:round; stroke-linejoin:round;">
</g>
<g style="fill:#FFFFFF; fill-opacity:1.0; 
stroke:#FFFFFF; stroke-width:0; stroke-opacity:1; 
stroke-linecap:round; stroke-linejoin:round;">
<circle cx="66692.9" cy="31555.1" r="196.85" /> 
</g>
<g style="fill:#FFFFFF; fill-opacity:1.0; 
stroke:#FFFFFF; stroke-width:39.3701; stroke-opacity:1; 
stroke-linecap:round; stroke-linejoin:round;">
</g>
<g style="fill:#FFFFFF; fill-opacity:1.0; 
stroke:#FFFFFF; stroke-width:0; stroke-opacity:1; 
stroke-linecap:round; stroke-linejoin:round;">
<circle cx="67692.9" cy="31555.1" r="196.85" /> 
</g>
<g style="fill:#FFFFFF; fill-opacity:1.0; 
stroke:#FFFFFF; stroke-width:39.3701; stroke-opacity:1; 
stroke-linecap:round; stroke-linejoin:round;">
</g>
<g style="fill:#FFFFFF; fill-opacity:1.0; 
stroke:#FFFFFF; stroke-width:0; stroke-opacity:1; 
stroke-linecap:round; stroke-linejoin:round;">
<circle cx="66692.9" cy="30555.1" r="196.85" /> 
</g>
<g style="fill:#FFFFFF; fill-opacity:1.0; 
stroke:#FFFFFF; stroke-width:39.3701; stroke-opacity:1; 
stroke-linecap:round; stroke-linejoin:round;">
</g>
<g style="fill:#FFFFFF; fill-opacity:1.0; 
stroke:#FFFFFF; stroke-width:0; stroke-opacity:1; 
stroke-linecap:round; stroke-linejoin:round;">
<circle cx="67692.9" cy="30555.1" r="196.85" /> 
</g>
<g style="fill:#FFFFFF; fill-opacity:1.0; 
stroke:#FFFFFF; stroke-width:39.3701; stroke-opacity:1; 
stroke-linecap:round; stroke-linejoin:round;">
</g>
<g style="fill:#FFFFFF; fill-opacity:1.0; 
stroke:#FFFFFF; stroke-width:0; stroke-opacity:1; 
stroke-linecap:round; stroke-linejoin:round;">
<circle cx="66692.9" cy="29555.1" r="196.85" /> 
</g>
<g style="fill:#FFFFFF; fill-opacity:1.0; 
stroke:#FFFFFF; stroke-width:39.3701; stroke-opacity:1; 
stroke-linecap:round; stroke-linejoin:round;">
</g>
<g style="fill:#FFFFFF; fill-opacity:1.0; 
stroke:#FFFFFF; stroke-width:0; stroke-opacity:1; 
stroke-linecap:round; stroke-linejoin:round;">
<circle cx="67692.9" cy="29555.1" r="196.85" /> 
</g>
<g style="fill:#FFFFFF; fill-opacity:1.0; 
stroke:#FFFFFF; stroke-width:39.3701; stroke-opacity:1; 
stroke-linecap:round; stroke-linejoin:round;">
</g>
<g style="fill:#FFFFFF; fill-opacity:1.0; 
stroke:#FFFFFF; stroke-width:0; stroke-opacity:1; 
stroke-linecap:round; stroke-linejoin:round;">
<circle cx="57047.2" cy="31082.7" r="187.008" /> 
</g>
<g style="fill:#FFFFFF; fill-opacity:1.0; 
stroke:#FFFFFF; stroke-width:39.3701; stroke-opacity:1; 
stroke-linecap:round; stroke-linejoin:round;">
</g>
<g style="fill:#FFFFFF; fill-opacity:1.0; 
stroke:#FFFFFF; stroke-width:0; stroke-opacity:1; 
stroke-linecap:round; stroke-linejoin:round;">
<circle cx="57047.2" cy="32066.9" r="187.008" /> 
</g>
<g style="fill:#FFFFFF; fill-opacity:1.0; 
stroke:#FFFFFF; stroke-width:39.3701; stroke-opacity:1; 
stroke-linecap:round; stroke-linejoin:round;">
</g>
<g style="fill:#FFFFFF; fill-opacity:1.0; 
stroke:#FFFFFF; stroke-width:0; stroke-opacity:1; 
stroke-linecap:round; stroke-linejoin:round;">
<circle cx="57047.2" cy="33051.2" r="187.008" /> 
</g>
<g style="fill:#FFFFFF; fill-opacity:1.0; 
stroke:#FFFFFF; stroke-width:39.3701; stroke-opacity:1; 
stroke-linecap:round; stroke-linejoin:round;">
</g>
<g style="fill:#FFFFFF; fill-opacity:1.0; 
stroke:#FFFFFF; stroke-width:0; stroke-opacity:1; 
stroke-linecap:round; stroke-linejoin:round;">
<circle cx="57047.2" cy="34035.4" r="187.008" /> 
</g>
<g style="fill:#FFFFFF; fill-opacity:1.0; 
stroke:#FFFFFF; stroke-width:39.3701; stroke-opacity:1; 
stroke-linecap:round; stroke-linejoin:round;">
</g>
<g style="fill:#FFFFFF; fill-opacity:1.0; 
stroke:#FFFFFF; stroke-width:0; stroke-opacity:1; 
stroke-linecap:round; stroke-linejoin:round;">
<circle cx="57381.9" cy="27618.1" r="196.85" /> 
</g>
<g style="fill:#FFFFFF; fill-opacity:1.0; 
stroke:#FFFFFF; stroke-width:39.3701; stroke-opacity:1; 
stroke-linecap:round; stroke-linejoin:round;">
</g>
<g style="fill:#FFFFFF; fill-opacity:1.0; 
stroke:#FFFFFF; stroke-width:0; stroke-opacity:1; 
stroke-linecap:round; stroke-linejoin:round;">
<circle cx="57381.9" cy="26633.9" r="196.85" /> 
</g>
<g style="fill:#FFFFFF; fill-opacity:1.0; 
stroke:#FFFFFF; stroke-width:39.3701; stroke-opacity:1; 
stroke-linecap:round; stroke-linejoin:round;">
</g>
<g style="fill:#FFFFFF; fill-opacity:1.0; 
stroke:#FFFFFF; stroke-width:0; stroke-opacity:1; 
stroke-linecap:round; stroke-linejoin:round;">
<circle cx="64685" cy="37972.4" r="196.85" /> 
</g>
<g style="fill:#FFFFFF; fill-opacity:1.0; 
stroke:#FFFFFF; stroke-width:39.3701; stroke-opacity:1; 
stroke-linecap:round; stroke-linejoin:round;">
</g>
<g style="fill:#FFFFFF; fill-opacity:1.0; 
stroke:#FFFFFF; stroke-width:0; stroke-opacity:1; 
stroke-linecap:round; stroke-linejoin:round;">
<circle cx="61692.9" cy="37972.4" r="196.85" /> 
</g>
<g style="fill:#FFFFFF; fill-opacity:1.0; 
stroke:#FFFFFF; stroke-width:39.3701; stroke-opacity:1; 
stroke-linecap:round; stroke-linejoin:round;">
</g>
<g style="fill:#FFFFFF; fill-opacity:1.0; 
stroke:#FFFFFF; stroke-width:0; stroke-opacity:1; 
stroke-linecap:round; stroke-linejoin:round;">
<circle cx="61547.2" cy="34566.9" r="157.48" /> 
</g>
<g style="fill:#FFFFFF; fill-opacity:1.0; 
stroke:#FFFFFF; stroke-width:39.3701; stroke-opacity:1; 
stroke-linecap:round; stroke-linejoin:round;">
</g>
<g style="fill:#FFFFFF; fill-opacity:1.0; 
stroke:#FFFFFF; stroke-width:0; stroke-opacity:1; 
stroke-linecap:round; stroke-linejoin:round;">
<circle cx="64547.2" cy="34566.9" r="157.48" /> 
</g>
<g style="fill:#FFFFFF; fill-opacity:1.0; 
stroke:#FFFFFF; stroke-width:39.3701; stroke-opacity:1; 
stroke-linecap:round; stroke-linejoin:round;">
</g>
<g style="fill:#FFFFFF; fill-opacity:1.0; 
stroke:#FFFFFF; stroke-width:0; stroke-opacity:1; 
stroke-linecap:round; stroke-linejoin:round;">
<circle cx="64566.9" cy="25287.4" r="157.48" /> 
</g>
<g style="fill:#FFFFFF; fill-opacity:1.0; 
stroke:#FFFFFF; stroke-width:39.3701; stroke-opacity:1; 
stroke-linecap:round; stroke-linejoin:round;">
</g>
<g style="fill:#FFFFFF; fill-opacity:1.0; 
stroke:#FFFFFF; stroke-width:0; stroke-opacity:1; 
stroke-linecap:round; stroke-linejoin:round;">
<circle cx="64566.9" cy="28287.4" r="157.48" /> 
</g>
<g style="fill:#FFFFFF; fill-opacity:1.0; 
stroke:#FFFFFF; stroke-width:39.3701; stroke-opacity:1; 
stroke-linecap:round; stroke-linejoin:round;">
</g>
<g style="fill:#000000; fill-opacity:1.0; 
stroke:#000000; stroke-width:39.3701; stroke-opacity:1; 
stroke-linecap:round; stroke-linejoin:round;">
</g> 
</svg>
