  0
SECTION
  2
HEADER
  9
$ANGBASE
  50
0.0
  9
$ANGDIR
  70
1
  9
$MEASUREMENT
  70
0
  0
ENDSEC
  0
SECTION
  2
TABLES
  0
TABLE
  2
LTYPE
  70
4
  0
LTYPE
  5
40F
  2
CONTINUOUS
  70
0
  3
Solid line
  72
65
  73
0
  40
0.0
  0
LTYPE
  5
410
  2
DASHDOT
 70
0
  3
Dash Dot ____ _ ____ _
 72
65
 73
4
 40
2.0
 49
1.25
 49
-0.25
 49
0.25
 49
-0.25
  0
LTYPE
  5
411
  2
DASHED
 70
0
  3
Dashed __ __ __ __ __
 72
65
 73
2
 40
0.75
 49
0.5
 49
-0.25
  0
LTYPE
  5
43B
  2
DOTTED
 70
0
  3
Dotted .  .  .  .
 72
65
 73
2
 40
0.2
 49
0.0
 49
-0.2
  0
ENDTAB
  0
TABLE
  2
STYLE
  70
4
  0
STYLE
  2
KICAD
  70
0
  40
0
  41
1
  42
1
  50
0
  71
0
  3
isocp.shx
  0
STYLE
  2
KICADB
  70
0
  40
0
  41
1
  42
1
  50
0
  71
0
  3
isocp.shx
  0
STYLE
  2
KICADI
  70
0
  40
0
  41
1
  42
1
  50
15
  71
0
  3
isocp.shx
  0
STYLE
  2
KICADBI
  70
0
  40
0
  41
1
  42
1
  50
15
  71
0
  3
isocp.shx
  0
ENDTAB
  0
TABLE
  2
LAYER
  70
1
  0
LAYER
  2
BLACK
  70
0
  62
7
  6
CONTINUOUS
  0
ENDTAB
  0
ENDSEC
  0
SECTION
  2
ENTITIES
0
LINE
8
BLACK
6
CONTINUOUS
10
1.47048
20
-6.47016
11
1.47193
21
-6.4703
0
LINE
8
BLACK
6
CONTINUOUS
10
1.47193
20
-6.4703
11
1.47378
21
-6.47086
0
LINE
8
BLACK
6
CONTINUOUS
10
1.47378
20
-6.47086
11
1.47549
21
-6.47178
0
LINE
8
BLACK
6
CONTINUOUS
10
1.47549
20
-6.47178
11
1.47699
21
-6.47301
0
LINE
8
BLACK
6
CONTINUOUS
10
1.47699
20
-6.47301
11
1.4773
21
-6.47338
0
LINE
8
BLACK
6
CONTINUOUS
10
1.4773
20
-6.47338
11
1.50662
21
-6.5027
0
LINE
8
BLACK
6
CONTINUOUS
10
1.50662
20
-6.5027
11
1.50699
21
-6.50301
0
LINE
8
BLACK
6
CONTINUOUS
10
1.50699
20
-6.50301
11
1.50822
21
-6.50451
0
LINE
8
BLACK
6
CONTINUOUS
10
1.50822
20
-6.50451
11
1.50914
21
-6.50622
0
LINE
8
BLACK
6
CONTINUOUS
10
1.50914
20
-6.50622
11
1.5097
21
-6.50807
0
LINE
8
BLACK
6
CONTINUOUS
10
1.5097
20
-6.50807
11
1.50989
21
-6.51
0
LINE
8
BLACK
6
CONTINUOUS
10
1.50989
20
-6.51
11
1.50984
21
-6.51048
0
LINE
8
BLACK
6
CONTINUOUS
10
1.50984
20
-6.51048
11
1.50984
21
-6.51786
0
LINE
8
BLACK
6
CONTINUOUS
10
1.50984
20
-6.51786
11
1.51585
21
-6.52034
0
LINE
8
BLACK
6
CONTINUOUS
10
1.51585
20
-6.52034
11
1.52133
21
-6.52401
0
LINE
8
BLACK
6
CONTINUOUS
10
1.52133
20
-6.52401
11
1.52599
21
-6.52867
0
LINE
8
BLACK
6
CONTINUOUS
10
1.52599
20
-6.52867
11
1.52966
21
-6.53415
0
LINE
8
BLACK
6
CONTINUOUS
10
1.52966
20
-6.53415
11
1.53218
21
-6.54024
0
LINE
8
BLACK
6
CONTINUOUS
10
1.53218
20
-6.54024
11
1.53346
21
-6.5467
0
LINE
8
BLACK
6
CONTINUOUS
10
1.53346
20
-6.5467
11
1.53346
21
-6.5533
0
LINE
8
BLACK
6
CONTINUOUS
10
1.53346
20
-6.5533
11
1.53218
21
-6.55976
0
LINE
8
BLACK
6
CONTINUOUS
10
1.53218
20
-6.55976
11
1.52966
21
-6.56585
0
LINE
8
BLACK
6
CONTINUOUS
10
1.52966
20
-6.56585
11
1.52599
21
-6.57133
0
LINE
8
BLACK
6
CONTINUOUS
10
1.52599
20
-6.57133
11
1.52133
21
-6.57599
0
LINE
8
BLACK
6
CONTINUOUS
10
1.52133
20
-6.57599
11
1.51585
21
-6.57966
0
LINE
8
BLACK
6
CONTINUOUS
10
1.51585
20
-6.57966
11
1.50984
21
-6.58214
0
LINE
8
BLACK
6
CONTINUOUS
10
1.50984
20
-6.58214
11
1.50984
21
-6.84952
0
LINE
8
BLACK
6
CONTINUOUS
10
1.50984
20
-6.84952
11
1.50989
21
-6.85
0
LINE
8
BLACK
6
CONTINUOUS
10
1.50989
20
-6.85
11
1.50984
21
-6.85048
0
LINE
8
BLACK
6
CONTINUOUS
10
1.50984
20
-6.85048
11
1.5097
21
-6.85193
0
LINE
8
BLACK
6
CONTINUOUS
10
1.5097
20
-6.85193
11
1.50914
21
-6.85378
0
LINE
8
BLACK
6
CONTINUOUS
10
1.50914
20
-6.85378
11
1.50822
21
-6.85549
0
LINE
8
BLACK
6
CONTINUOUS
10
1.50822
20
-6.85549
11
1.50699
21
-6.85699
0
LINE
8
BLACK
6
CONTINUOUS
10
1.50699
20
-6.85699
11
1.50662
21
-6.8573
0
LINE
8
BLACK
6
CONTINUOUS
10
1.50662
20
-6.8573
11
1.4773
21
-6.88662
0
LINE
8
BLACK
6
CONTINUOUS
10
1.4773
20
-6.88662
11
1.47699
21
-6.88699
0
LINE
8
BLACK
6
CONTINUOUS
10
1.47699
20
-6.88699
11
1.47549
21
-6.88822
0
LINE
8
BLACK
6
CONTINUOUS
10
1.47549
20
-6.88822
11
1.47378
21
-6.88914
0
LINE
8
BLACK
6
CONTINUOUS
10
1.47378
20
-6.88914
11
1.47193
21
-6.8897
0
LINE
8
BLACK
6
CONTINUOUS
10
1.47193
20
-6.8897
11
1.47
21
-6.88989
0
LINE
8
BLACK
6
CONTINUOUS
10
1.47
20
-6.88989
11
1.46952
21
-6.88984
0
LINE
8
BLACK
6
CONTINUOUS
10
1.46952
20
-6.88984
11
1.46214
21
-6.88984
0
LINE
8
BLACK
6
CONTINUOUS
10
1.46214
20
-6.88984
11
1.45966
21
-6.89585
0
LINE
8
BLACK
6
CONTINUOUS
10
1.45966
20
-6.89585
11
1.45599
21
-6.90133
0
LINE
8
BLACK
6
CONTINUOUS
10
1.45599
20
-6.90133
11
1.45133
21
-6.90599
0
LINE
8
BLACK
6
CONTINUOUS
10
1.45133
20
-6.90599
11
1.44585
21
-6.90966
0
LINE
8
BLACK
6
CONTINUOUS
10
1.44585
20
-6.90966
11
1.43976
21
-6.91218
0
LINE
8
BLACK
6
CONTINUOUS
10
1.43976
20
-6.91218
11
1.4333
21
-6.91346
0
LINE
8
BLACK
6
CONTINUOUS
10
1.4333
20
-6.91346
11
1.4267
21
-6.91346
0
LINE
8
BLACK
6
CONTINUOUS
10
1.4267
20
-6.91346
11
1.42024
21
-6.91218
0
LINE
8
BLACK
6
CONTINUOUS
10
1.42024
20
-6.91218
11
1.41415
21
-6.90966
0
LINE
8
BLACK
6
CONTINUOUS
10
1.41415
20
-6.90966
11
1.40867
21
-6.90599
0
LINE
8
BLACK
6
CONTINUOUS
10
1.40867
20
-6.90599
11
1.40401
21
-6.90133
0
LINE
8
BLACK
6
CONTINUOUS
10
1.40401
20
-6.90133
11
1.40034
21
-6.89585
0
LINE
8
BLACK
6
CONTINUOUS
10
1.40034
20
-6.89585
11
1.39782
21
-6.88976
0
LINE
8
BLACK
6
CONTINUOUS
10
1.39782
20
-6.88976
11
1.39654
21
-6.8833
0
LINE
8
BLACK
6
CONTINUOUS
10
1.39654
20
-6.8833
11
1.39654
21
-6.8767
0
LINE
8
BLACK
6
CONTINUOUS
10
1.39654
20
-6.8767
11
1.39782
21
-6.87024
0
LINE
8
BLACK
6
CONTINUOUS
10
1.39782
20
-6.87024
11
1.40034
21
-6.86415
0
LINE
8
BLACK
6
CONTINUOUS
10
1.40034
20
-6.86415
11
1.40401
21
-6.85867
0
LINE
8
BLACK
6
CONTINUOUS
10
1.40401
20
-6.85867
11
1.40867
21
-6.85401
0
LINE
8
BLACK
6
CONTINUOUS
10
1.40867
20
-6.85401
11
1.41415
21
-6.85034
0
LINE
8
BLACK
6
CONTINUOUS
10
1.41415
20
-6.85034
11
1.42024
21
-6.84782
0
LINE
8
BLACK
6
CONTINUOUS
10
1.42024
20
-6.84782
11
1.4267
21
-6.84654
0
LINE
8
BLACK
6
CONTINUOUS
10
1.4267
20
-6.84654
11
1.4333
21
-6.84654
0
LINE
8
BLACK
6
CONTINUOUS
10
1.4333
20
-6.84654
11
1.43976
21
-6.84782
0
LINE
8
BLACK
6
CONTINUOUS
10
1.43976
20
-6.84782
11
1.44585
21
-6.85034
0
LINE
8
BLACK
6
CONTINUOUS
10
1.44585
20
-6.85034
11
1.45133
21
-6.85401
0
LINE
8
BLACK
6
CONTINUOUS
10
1.45133
20
-6.85401
11
1.45599
21
-6.85867
0
LINE
8
BLACK
6
CONTINUOUS
10
1.45599
20
-6.85867
11
1.45966
21
-6.86415
0
LINE
8
BLACK
6
CONTINUOUS
10
1.45966
20
-6.86415
11
1.46214
21
-6.87016
0
LINE
8
BLACK
6
CONTINUOUS
10
1.46214
20
-6.87016
11
1.46592
21
-6.87016
0
LINE
8
BLACK
6
CONTINUOUS
10
1.46592
20
-6.87016
11
1.49016
21
-6.84592
0
LINE
8
BLACK
6
CONTINUOUS
10
1.49016
20
-6.84592
11
1.49016
21
-6.58214
0
LINE
8
BLACK
6
CONTINUOUS
10
1.49016
20
-6.58214
11
1.48415
21
-6.57966
0
LINE
8
BLACK
6
CONTINUOUS
10
1.48415
20
-6.57966
11
1.47867
21
-6.57599
0
LINE
8
BLACK
6
CONTINUOUS
10
1.47867
20
-6.57599
11
1.47401
21
-6.57133
0
LINE
8
BLACK
6
CONTINUOUS
10
1.47401
20
-6.57133
11
1.47034
21
-6.56585
0
LINE
8
BLACK
6
CONTINUOUS
10
1.47034
20
-6.56585
11
1.46782
21
-6.55976
0
LINE
8
BLACK
6
CONTINUOUS
10
1.46782
20
-6.55976
11
1.46654
21
-6.5533
0
LINE
8
BLACK
6
CONTINUOUS
10
1.46654
20
-6.5533
11
1.46654
21
-6.5467
0
LINE
8
BLACK
6
CONTINUOUS
10
1.46654
20
-6.5467
11
1.46782
21
-6.54024
0
LINE
8
BLACK
6
CONTINUOUS
10
1.46782
20
-6.54024
11
1.47034
21
-6.53415
0
LINE
8
BLACK
6
CONTINUOUS
10
1.47034
20
-6.53415
11
1.47401
21
-6.52867
0
LINE
8
BLACK
6
CONTINUOUS
10
1.47401
20
-6.52867
11
1.47867
21
-6.52401
0
LINE
8
BLACK
6
CONTINUOUS
10
1.47867
20
-6.52401
11
1.48415
21
-6.52034
0
LINE
8
BLACK
6
CONTINUOUS
10
1.48415
20
-6.52034
11
1.49016
21
-6.51786
0
LINE
8
BLACK
6
CONTINUOUS
10
1.49016
20
-6.51786
11
1.49016
21
-6.51408
0
LINE
8
BLACK
6
CONTINUOUS
10
1.49016
20
-6.51408
11
1.46592
21
-6.48984
0
LINE
8
BLACK
6
CONTINUOUS
10
1.46592
20
-6.48984
11
0.694077
21
-6.48984
0
LINE
8
BLACK
6
CONTINUOUS
10
0.694077
20
-6.48984
11
0.639843
21
-6.54408
0
LINE
8
BLACK
6
CONTINUOUS
10
0.639843
20
-6.54408
11
0.639843
21
-7.58592
0
LINE
8
BLACK
6
CONTINUOUS
10
0.639843
20
-7.58592
11
0.684077
21
-7.63016
0
LINE
8
BLACK
6
CONTINUOUS
10
0.684077
20
-7.63016
11
0.745923
21
-7.63016
0
LINE
8
BLACK
6
CONTINUOUS
10
0.745923
20
-7.63016
11
0.774567
21
-7.60151
0
LINE
8
BLACK
6
CONTINUOUS
10
0.774567
20
-7.60151
11
0.774567
21
-7.54457
0
LINE
8
BLACK
6
CONTINUOUS
10
0.774567
20
-7.54457
11
0.820157
21
-7.54457
0
LINE
8
BLACK
6
CONTINUOUS
10
0.820157
20
-7.54457
11
0.820158
21
-6.98408
0
LINE
8
BLACK
6
CONTINUOUS
10
0.820158
20
-6.98408
11
0.76577
21
-6.92969
0
LINE
8
BLACK
6
CONTINUOUS
10
0.76577
20
-6.92969
11
0.759761
21
-6.93218
0
LINE
8
BLACK
6
CONTINUOUS
10
0.759761
20
-6.93218
11
0.753296
21
-6.93346
0
LINE
8
BLACK
6
CONTINUOUS
10
0.753296
20
-6.93346
11
0.746704
21
-6.93346
0
LINE
8
BLACK
6
CONTINUOUS
10
0.746704
20
-6.93346
11
0.740239
21
-6.93218
0
LINE
8
BLACK
6
CONTINUOUS
10
0.740239
20
-6.93218
11
0.734149
21
-6.92966
0
LINE
8
BLACK
6
CONTINUOUS
10
0.734149
20
-6.92966
11
0.728668
21
-6.92599
0
LINE
8
BLACK
6
CONTINUOUS
10
0.728668
20
-6.92599
11
0.724006
21
-6.92133
0
LINE
8
BLACK
6
CONTINUOUS
10
0.724006
20
-6.92133
11
0.720344
21
-6.91585
0
LINE
8
BLACK
6
CONTINUOUS
10
0.720344
20
-6.91585
11
0.717821
21
-6.90976
0
LINE
8
BLACK
6
CONTINUOUS
10
0.717821
20
-6.90976
11
0.716535
21
-6.9033
0
LINE
8
BLACK
6
CONTINUOUS
10
0.716535
20
-6.9033
11
0.716535
21
-6.8967
0
LINE
8
BLACK
6
CONTINUOUS
10
0.716535
20
-6.8967
11
0.717821
21
-6.89024
0
LINE
8
BLACK
6
CONTINUOUS
10
0.717821
20
-6.89024
11
0.720344
21
-6.88415
0
LINE
8
BLACK
6
CONTINUOUS
10
0.720344
20
-6.88415
11
0.724006
21
-6.87867
0
LINE
8
BLACK
6
CONTINUOUS
10
0.724006
20
-6.87867
11
0.728668
21
-6.87401
0
LINE
8
BLACK
6
CONTINUOUS
10
0.728668
20
-6.87401
11
0.734149
21
-6.87034
0
LINE
8
BLACK
6
CONTINUOUS
10
0.734149
20
-6.87034
11
0.740239
21
-6.86782
0
LINE
8
BLACK
6
CONTINUOUS
10
0.740239
20
-6.86782
11
0.746704
21
-6.86654
0
LINE
8
BLACK
6
CONTINUOUS
10
0.746704
20
-6.86654
11
0.753296
21
-6.86654
0
LINE
8
BLACK
6
CONTINUOUS
10
0.753296
20
-6.86654
11
0.759761
21
-6.86782
0
LINE
8
BLACK
6
CONTINUOUS
10
0.759761
20
-6.86782
11
0.76577
21
-6.87031
0
LINE
8
BLACK
6
CONTINUOUS
10
0.76577
20
-6.87031
11
0.767698
21
-6.86838
0
LINE
8
BLACK
6
CONTINUOUS
10
0.767698
20
-6.86838
11
0.768007
21
-6.86801
0
LINE
8
BLACK
6
CONTINUOUS
10
0.768007
20
-6.86801
11
0.769505
21
-6.86678
0
LINE
8
BLACK
6
CONTINUOUS
10
0.769505
20
-6.86678
11
0.771215
21
-6.86586
0
LINE
8
BLACK
6
CONTINUOUS
10
0.771215
20
-6.86586
11
0.773071
21
-6.8653
0
LINE
8
BLACK
6
CONTINUOUS
10
0.773071
20
-6.8653
11
0.775
21
-6.86511
0
LINE
8
BLACK
6
CONTINUOUS
10
0.775
20
-6.86511
11
0.775483
21
-6.86516
0
LINE
8
BLACK
6
CONTINUOUS
10
0.775483
20
-6.86516
11
0.915707
21
-6.86516
0
LINE
8
BLACK
6
CONTINUOUS
10
0.915707
20
-6.86516
11
0.915903
21
-6.86492
0
LINE
8
BLACK
6
CONTINUOUS
10
0.915903
20
-6.86492
11
0.916798
21
-6.86418
0
LINE
8
BLACK
6
CONTINUOUS
10
0.916798
20
-6.86418
11
0.917819
21
-6.86364
0
LINE
8
BLACK
6
CONTINUOUS
10
0.917819
20
-6.86364
11
0.918927
21
-6.8633
0
LINE
8
BLACK
6
CONTINUOUS
10
0.918927
20
-6.8633
11
0.920079
21
-6.86319
0
LINE
8
BLACK
6
CONTINUOUS
10
0.920079
20
-6.86319
11
0.985039
21
-6.86319
0
LINE
8
BLACK
6
CONTINUOUS
10
0.985039
20
-6.86319
11
0.986191
21
-6.8633
0
LINE
8
BLACK
6
CONTINUOUS
10
0.986191
20
-6.8633
11
0.987299
21
-6.86364
0
LINE
8
BLACK
6
CONTINUOUS
10
0.987299
20
-6.86364
11
0.98832
21
-6.86418
0
LINE
8
BLACK
6
CONTINUOUS
10
0.98832
20
-6.86418
11
0.989215
21
-6.86492
0
LINE
8
BLACK
6
CONTINUOUS
10
0.989215
20
-6.86492
11
0.98995
21
-6.86581
0
LINE
8
BLACK
6
CONTINUOUS
10
0.98995
20
-6.86581
11
0.990495
21
-6.86683
0
LINE
8
BLACK
6
CONTINUOUS
10
0.990495
20
-6.86683
11
0.990831
21
-6.86794
0
LINE
8
BLACK
6
CONTINUOUS
10
0.990831
20
-6.86794
11
0.990945
21
-6.86909
0
LINE
8
BLACK
6
CONTINUOUS
10
0.990945
20
-6.86909
11
0.990945
21
-6.88091
0
LINE
8
BLACK
6
CONTINUOUS
10
0.990945
20
-6.88091
11
0.990831
21
-6.88206
0
LINE
8
BLACK
6
CONTINUOUS
10
0.990831
20
-6.88206
11
0.990495
21
-6.88317
0
LINE
8
BLACK
6
CONTINUOUS
10
0.990495
20
-6.88317
11
0.98995
21
-6.88419
0
LINE
8
BLACK
6
CONTINUOUS
10
0.98995
20
-6.88419
11
0.989215
21
-6.88508
0
LINE
8
BLACK
6
CONTINUOUS
10
0.989215
20
-6.88508
11
0.98832
21
-6.88582
0
LINE
8
BLACK
6
CONTINUOUS
10
0.98832
20
-6.88582
11
0.987299
21
-6.88636
0
LINE
8
BLACK
6
CONTINUOUS
10
0.987299
20
-6.88636
11
0.986191
21
-6.8867
0
LINE
8
BLACK
6
CONTINUOUS
10
0.986191
20
-6.8867
11
0.985039
21
-6.88681
0
LINE
8
BLACK
6
CONTINUOUS
10
0.985039
20
-6.88681
11
0.920079
21
-6.88681
0
LINE
8
BLACK
6
CONTINUOUS
10
0.920079
20
-6.88681
11
0.918927
21
-6.8867
0
LINE
8
BLACK
6
CONTINUOUS
10
0.918927
20
-6.8867
11
0.917819
21
-6.88636
0
LINE
8
BLACK
6
CONTINUOUS
10
0.917819
20
-6.88636
11
0.916798
21
-6.88582
0
LINE
8
BLACK
6
CONTINUOUS
10
0.916798
20
-6.88582
11
0.915903
21
-6.88508
0
LINE
8
BLACK
6
CONTINUOUS
10
0.915903
20
-6.88508
11
0.915707
21
-6.88484
0
LINE
8
BLACK
6
CONTINUOUS
10
0.915707
20
-6.88484
11
0.779943
21
-6.88484
0
LINE
8
BLACK
6
CONTINUOUS
10
0.779943
20
-6.88484
11
0.782179
21
-6.89024
0
LINE
8
BLACK
6
CONTINUOUS
10
0.782179
20
-6.89024
11
0.783465
21
-6.8967
0
LINE
8
BLACK
6
CONTINUOUS
10
0.783465
20
-6.8967
11
0.783465
21
-6.9033
0
LINE
8
BLACK
6
CONTINUOUS
10
0.783465
20
-6.9033
11
0.782179
21
-6.90976
0
LINE
8
BLACK
6
CONTINUOUS
10
0.782179
20
-6.90976
11
0.77969
21
-6.91577
0
LINE
8
BLACK
6
CONTINUOUS
10
0.77969
20
-6.91577
11
0.836618
21
-6.9727
0
LINE
8
BLACK
6
CONTINUOUS
10
0.836618
20
-6.9727
11
0.836993
21
-6.97301
0
LINE
8
BLACK
6
CONTINUOUS
10
0.836993
20
-6.97301
11
0.838223
21
-6.97451
0
LINE
8
BLACK
6
CONTINUOUS
10
0.838223
20
-6.97451
11
0.838971
21
-6.9759
0
LINE
8
BLACK
6
CONTINUOUS
10
0.838971
20
-6.9759
11
0.839137
21
-6.97622
0
LINE
8
BLACK
6
CONTINUOUS
10
0.839137
20
-6.97622
11
0.8397
21
-6.97807
0
LINE
8
BLACK
6
CONTINUOUS
10
0.8397
20
-6.97807
11
0.83989
21
-6.98
0
LINE
8
BLACK
6
CONTINUOUS
10
0.83989
20
-6.98
11
0.839843
21
-6.98048
0
LINE
8
BLACK
6
CONTINUOUS
10
0.839843
20
-6.98048
11
0.839843
21
-7.54457
0
LINE
8
BLACK
6
CONTINUOUS
10
0.839843
20
-7.54457
11
0.845433
21
-7.54457
0
LINE
8
BLACK
6
CONTINUOUS
10
0.845433
20
-7.54457
11
0.845433
21
-7.56016
0
LINE
8
BLACK
6
CONTINUOUS
10
0.845433
20
-7.56016
11
1.24592
21
-7.56016
0
LINE
8
BLACK
6
CONTINUOUS
10
1.24592
20
-7.56016
11
1.36031
21
-7.44577
0
LINE
8
BLACK
6
CONTINUOUS
10
1.36031
20
-7.44577
11
1.35782
21
-7.43976
0
LINE
8
BLACK
6
CONTINUOUS
10
1.35782
20
-7.43976
11
1.35654
21
-7.4333
0
LINE
8
BLACK
6
CONTINUOUS
10
1.35654
20
-7.4333
11
1.35654
21
-7.4267
0
LINE
8
BLACK
6
CONTINUOUS
10
1.35654
20
-7.4267
11
1.35782
21
-7.42024
0
LINE
8
BLACK
6
CONTINUOUS
10
1.35782
20
-7.42024
11
1.36034
21
-7.41415
0
LINE
8
BLACK
6
CONTINUOUS
10
1.36034
20
-7.41415
11
1.36401
21
-7.40867
0
LINE
8
BLACK
6
CONTINUOUS
10
1.36401
20
-7.40867
11
1.36867
21
-7.40401
0
LINE
8
BLACK
6
CONTINUOUS
10
1.36867
20
-7.40401
11
1.37415
21
-7.40034
0
LINE
8
BLACK
6
CONTINUOUS
10
1.37415
20
-7.40034
11
1.38024
21
-7.39782
0
LINE
8
BLACK
6
CONTINUOUS
10
1.38024
20
-7.39782
11
1.3867
21
-7.39654
0
LINE
8
BLACK
6
CONTINUOUS
10
1.3867
20
-7.39654
11
1.3933
21
-7.39654
0
LINE
8
BLACK
6
CONTINUOUS
10
1.3933
20
-7.39654
11
1.39976
21
-7.39782
0
LINE
8
BLACK
6
CONTINUOUS
10
1.39976
20
-7.39782
11
1.40585
21
-7.40034
0
LINE
8
BLACK
6
CONTINUOUS
10
1.40585
20
-7.40034
11
1.41133
21
-7.40401
0
LINE
8
BLACK
6
CONTINUOUS
10
1.41133
20
-7.40401
11
1.41599
21
-7.40867
0
LINE
8
BLACK
6
CONTINUOUS
10
1.41599
20
-7.40867
11
1.41966
21
-7.41415
0
LINE
8
BLACK
6
CONTINUOUS
10
1.41966
20
-7.41415
11
1.42218
21
-7.42024
0
LINE
8
BLACK
6
CONTINUOUS
10
1.42218
20
-7.42024
11
1.42346
21
-7.4267
0
LINE
8
BLACK
6
CONTINUOUS
10
1.42346
20
-7.4267
11
1.42346
21
-7.4333
0
LINE
8
BLACK
6
CONTINUOUS
10
1.42346
20
-7.4333
11
1.42218
21
-7.43976
0
LINE
8
BLACK
6
CONTINUOUS
10
1.42218
20
-7.43976
11
1.41966
21
-7.44585
0
LINE
8
BLACK
6
CONTINUOUS
10
1.41966
20
-7.44585
11
1.41599
21
-7.45133
0
LINE
8
BLACK
6
CONTINUOUS
10
1.41599
20
-7.45133
11
1.41133
21
-7.45599
0
LINE
8
BLACK
6
CONTINUOUS
10
1.41133
20
-7.45599
11
1.40585
21
-7.45966
0
LINE
8
BLACK
6
CONTINUOUS
10
1.40585
20
-7.45966
11
1.39976
21
-7.46218
0
LINE
8
BLACK
6
CONTINUOUS
10
1.39976
20
-7.46218
11
1.3933
21
-7.46346
0
LINE
8
BLACK
6
CONTINUOUS
10
1.3933
20
-7.46346
11
1.3867
21
-7.46346
0
LINE
8
BLACK
6
CONTINUOUS
10
1.3867
20
-7.46346
11
1.38024
21
-7.46218
0
LINE
8
BLACK
6
CONTINUOUS
10
1.38024
20
-7.46218
11
1.37423
21
-7.45969
0
LINE
8
BLACK
6
CONTINUOUS
10
1.37423
20
-7.45969
11
1.2573
21
-7.57662
0
LINE
8
BLACK
6
CONTINUOUS
10
1.2573
20
-7.57662
11
1.25699
21
-7.57699
0
LINE
8
BLACK
6
CONTINUOUS
10
1.25699
20
-7.57699
11
1.25549
21
-7.57822
0
LINE
8
BLACK
6
CONTINUOUS
10
1.25549
20
-7.57822
11
1.25378
21
-7.57914
0
LINE
8
BLACK
6
CONTINUOUS
10
1.25378
20
-7.57914
11
1.25193
21
-7.5797
0
LINE
8
BLACK
6
CONTINUOUS
10
1.25193
20
-7.5797
11
1.25
21
-7.57989
0
LINE
8
BLACK
6
CONTINUOUS
10
1.25
20
-7.57989
11
1.24952
21
-7.57984
0
LINE
8
BLACK
6
CONTINUOUS
10
1.24952
20
-7.57984
11
0.845433
21
-7.57984
0
LINE
8
BLACK
6
CONTINUOUS
10
0.845433
20
-7.57984
11
0.845433
21
-7.61543
0
LINE
8
BLACK
6
CONTINUOUS
10
0.845433
20
-7.61543
11
0.788486
21
-7.61543
0
LINE
8
BLACK
6
CONTINUOUS
10
0.788486
20
-7.61543
11
0.757302
21
-7.64662
0
LINE
8
BLACK
6
CONTINUOUS
10
0.757302
20
-7.64662
11
0.756993
21
-7.64699
0
LINE
8
BLACK
6
CONTINUOUS
10
0.756993
20
-7.64699
11
0.755495
21
-7.64822
0
LINE
8
BLACK
6
CONTINUOUS
10
0.755495
20
-7.64822
11
0.753785
21
-7.64914
0
LINE
8
BLACK
6
CONTINUOUS
10
0.753785
20
-7.64914
11
0.751929
21
-7.6497
0
LINE
8
BLACK
6
CONTINUOUS
10
0.751929
20
-7.6497
11
0.75
21
-7.64989
0
LINE
8
BLACK
6
CONTINUOUS
10
0.75
20
-7.64989
11
0.749517
21
-7.64984
0
LINE
8
BLACK
6
CONTINUOUS
10
0.749517
20
-7.64984
11
0.680483
21
-7.64984
0
LINE
8
BLACK
6
CONTINUOUS
10
0.680483
20
-7.64984
11
0.68
21
-7.64989
0
LINE
8
BLACK
6
CONTINUOUS
10
0.68
20
-7.64989
11
0.67807
21
-7.6497
0
LINE
8
BLACK
6
CONTINUOUS
10
0.67807
20
-7.6497
11
0.676215
21
-7.64914
0
LINE
8
BLACK
6
CONTINUOUS
10
0.676215
20
-7.64914
11
0.674505
21
-7.64822
0
LINE
8
BLACK
6
CONTINUOUS
10
0.674505
20
-7.64822
11
0.673007
21
-7.64699
0
LINE
8
BLACK
6
CONTINUOUS
10
0.673007
20
-7.64699
11
0.672699
21
-7.64662
0
LINE
8
BLACK
6
CONTINUOUS
10
0.672699
20
-7.64662
11
0.623382
21
-7.5973
0
LINE
8
BLACK
6
CONTINUOUS
10
0.623382
20
-7.5973
11
0.623007
21
-7.59699
0
LINE
8
BLACK
6
CONTINUOUS
10
0.623007
20
-7.59699
11
0.621777
21
-7.59549
0
LINE
8
BLACK
6
CONTINUOUS
10
0.621777
20
-7.59549
11
0.620863
21
-7.59378
0
LINE
8
BLACK
6
CONTINUOUS
10
0.620863
20
-7.59378
11
0.6203
21
-7.59193
0
LINE
8
BLACK
6
CONTINUOUS
10
0.6203
20
-7.59193
11
0.620157
21
-7.59048
0
LINE
8
BLACK
6
CONTINUOUS
10
0.620157
20
-7.59048
11
0.62011
21
-7.59
0
LINE
8
BLACK
6
CONTINUOUS
10
0.62011
20
-7.59
11
0.620157
21
-7.58952
0
LINE
8
BLACK
6
CONTINUOUS
10
0.620157
20
-7.58952
11
0.620158
21
-6.54048
0
LINE
8
BLACK
6
CONTINUOUS
10
0.620158
20
-6.54048
11
0.62011
21
-6.54
0
LINE
8
BLACK
6
CONTINUOUS
10
0.62011
20
-6.54
11
0.6203
21
-6.53807
0
LINE
8
BLACK
6
CONTINUOUS
10
0.6203
20
-6.53807
11
0.620863
21
-6.53622
0
LINE
8
BLACK
6
CONTINUOUS
10
0.620863
20
-6.53622
11
0.621777
21
-6.53451
0
LINE
8
BLACK
6
CONTINUOUS
10
0.621777
20
-6.53451
11
0.622069
21
-6.53415
0
LINE
8
BLACK
6
CONTINUOUS
10
0.622069
20
-6.53415
11
0.623007
21
-6.53301
0
LINE
8
BLACK
6
CONTINUOUS
10
0.623007
20
-6.53301
11
0.623382
21
-6.5327
0
LINE
8
BLACK
6
CONTINUOUS
10
0.623382
20
-6.5327
11
0.682699
21
-6.47338
0
LINE
8
BLACK
6
CONTINUOUS
10
0.682699
20
-6.47338
11
0.683007
21
-6.47301
0
LINE
8
BLACK
6
CONTINUOUS
10
0.683007
20
-6.47301
11
0.684505
21
-6.47178
0
LINE
8
BLACK
6
CONTINUOUS
10
0.684505
20
-6.47178
11
0.686215
21
-6.47086
0
LINE
8
BLACK
6
CONTINUOUS
10
0.686215
20
-6.47086
11
0.688071
21
-6.4703
0
LINE
8
BLACK
6
CONTINUOUS
10
0.688071
20
-6.4703
11
0.689517
21
-6.47016
0
LINE
8
BLACK
6
CONTINUOUS
10
0.689517
20
-6.47016
11
0.689517
21
-6.47016
0
LINE
8
BLACK
6
CONTINUOUS
10
0.689517
20
-6.47016
11
0.69
21
-6.47011
0
LINE
8
BLACK
6
CONTINUOUS
10
0.69
20
-6.47011
11
0.690483
21
-6.47016
0
LINE
8
BLACK
6
CONTINUOUS
10
0.690483
20
-6.47016
11
1.46952
21
-6.47016
0
LINE
8
BLACK
6
CONTINUOUS
10
1.46952
20
-6.47016
11
1.47
21
-6.47011
0
LINE
8
BLACK
6
CONTINUOUS
10
1.47
20
-6.47011
11
1.47048
21
-6.47016
0
LINE
8
BLACK
6
CONTINUOUS
10
0.729187
20
-7.36971
11
0.734919
21
-7.37209
0
LINE
8
BLACK
6
CONTINUOUS
10
0.734919
20
-7.37209
11
0.740078
21
-7.37554
0
LINE
8
BLACK
6
CONTINUOUS
10
0.740078
20
-7.37554
11
0.744465
21
-7.37992
0
LINE
8
BLACK
6
CONTINUOUS
10
0.744465
20
-7.37992
11
0.747911
21
-7.38508
0
LINE
8
BLACK
6
CONTINUOUS
10
0.747911
20
-7.38508
11
0.750286
21
-7.39081
0
LINE
8
BLACK
6
CONTINUOUS
10
0.750286
20
-7.39081
11
0.751496
21
-7.3969
0
LINE
8
BLACK
6
CONTINUOUS
10
0.751496
20
-7.3969
11
0.751496
21
-7.4031
0
LINE
8
BLACK
6
CONTINUOUS
10
0.751496
20
-7.4031
11
0.750286
21
-7.40919
0
LINE
8
BLACK
6
CONTINUOUS
10
0.750286
20
-7.40919
11
0.747911
21
-7.41492
0
LINE
8
BLACK
6
CONTINUOUS
10
0.747911
20
-7.41492
11
0.744465
21
-7.42008
0
LINE
8
BLACK
6
CONTINUOUS
10
0.744465
20
-7.42008
11
0.740078
21
-7.42446
0
LINE
8
BLACK
6
CONTINUOUS
10
0.740078
20
-7.42446
11
0.734919
21
-7.42791
0
LINE
8
BLACK
6
CONTINUOUS
10
0.734919
20
-7.42791
11
0.729843
21
-7.43001
0
LINE
8
BLACK
6
CONTINUOUS
10
0.729843
20
-7.43001
11
0.729843
21
-7.55064
0
LINE
8
BLACK
6
CONTINUOUS
10
0.729843
20
-7.55064
11
0.732587
21
-7.55248
0
LINE
8
BLACK
6
CONTINUOUS
10
0.732587
20
-7.55248
11
0.737523
21
-7.55741
0
LINE
8
BLACK
6
CONTINUOUS
10
0.737523
20
-7.55741
11
0.7414
21
-7.56322
0
LINE
8
BLACK
6
CONTINUOUS
10
0.7414
20
-7.56322
11
0.744071
21
-7.56966
0
LINE
8
BLACK
6
CONTINUOUS
10
0.744071
20
-7.56966
11
0.745433
21
-7.57651
0
LINE
8
BLACK
6
CONTINUOUS
10
0.745433
20
-7.57651
11
0.745433
21
-7.58349
0
LINE
8
BLACK
6
CONTINUOUS
10
0.745433
20
-7.58349
11
0.744071
21
-7.59034
0
LINE
8
BLACK
6
CONTINUOUS
10
0.744071
20
-7.59034
11
0.7414
21
-7.59678
0
LINE
8
BLACK
6
CONTINUOUS
10
0.7414
20
-7.59678
11
0.737523
21
-7.60259
0
LINE
8
BLACK
6
CONTINUOUS
10
0.737523
20
-7.60259
11
0.732587
21
-7.60752
0
LINE
8
BLACK
6
CONTINUOUS
10
0.732587
20
-7.60752
11
0.726784
21
-7.6114
0
LINE
8
BLACK
6
CONTINUOUS
10
0.726784
20
-7.6114
11
0.720335
21
-7.61407
0
LINE
8
BLACK
6
CONTINUOUS
10
0.720335
20
-7.61407
11
0.71349
21
-7.61543
0
LINE
8
BLACK
6
CONTINUOUS
10
0.71349
20
-7.61543
11
0.70651
21
-7.61543
0
LINE
8
BLACK
6
CONTINUOUS
10
0.70651
20
-7.61543
11
0.699665
21
-7.61407
0
LINE
8
BLACK
6
CONTINUOUS
10
0.699665
20
-7.61407
11
0.693216
21
-7.6114
0
LINE
8
BLACK
6
CONTINUOUS
10
0.693216
20
-7.6114
11
0.687413
21
-7.60752
0
LINE
8
BLACK
6
CONTINUOUS
10
0.687413
20
-7.60752
11
0.682477
21
-7.60259
0
LINE
8
BLACK
6
CONTINUOUS
10
0.682477
20
-7.60259
11
0.6786
21
-7.59678
0
LINE
8
BLACK
6
CONTINUOUS
10
0.6786
20
-7.59678
11
0.675929
21
-7.59034
0
LINE
8
BLACK
6
CONTINUOUS
10
0.675929
20
-7.59034
11
0.674567
21
-7.58349
0
LINE
8
BLACK
6
CONTINUOUS
10
0.674567
20
-7.58349
11
0.674567
21
-7.57651
0
LINE
8
BLACK
6
CONTINUOUS
10
0.674567
20
-7.57651
11
0.675929
21
-7.56966
0
LINE
8
BLACK
6
CONTINUOUS
10
0.675929
20
-7.56966
11
0.6786
21
-7.56322
0
LINE
8
BLACK
6
CONTINUOUS
10
0.6786
20
-7.56322
11
0.682477
21
-7.55741
0
LINE
8
BLACK
6
CONTINUOUS
10
0.682477
20
-7.55741
11
0.687413
21
-7.55248
0
LINE
8
BLACK
6
CONTINUOUS
10
0.687413
20
-7.55248
11
0.693216
21
-7.5486
0
LINE
8
BLACK
6
CONTINUOUS
10
0.693216
20
-7.5486
11
0.699665
21
-7.54593
0
LINE
8
BLACK
6
CONTINUOUS
10
0.699665
20
-7.54593
11
0.70651
21
-7.54457
0
LINE
8
BLACK
6
CONTINUOUS
10
0.70651
20
-7.54457
11
0.710158
21
-7.54457
0
LINE
8
BLACK
6
CONTINUOUS
10
0.710158
20
-7.54457
11
0.710157
21
-7.43001
0
LINE
8
BLACK
6
CONTINUOUS
10
0.710157
20
-7.43001
11
0.705081
21
-7.42791
0
LINE
8
BLACK
6
CONTINUOUS
10
0.705081
20
-7.42791
11
0.699922
21
-7.42446
0
LINE
8
BLACK
6
CONTINUOUS
10
0.699922
20
-7.42446
11
0.695535
21
-7.42008
0
LINE
8
BLACK
6
CONTINUOUS
10
0.695535
20
-7.42008
11
0.692089
21
-7.41492
0
LINE
8
BLACK
6
CONTINUOUS
10
0.692089
20
-7.41492
11
0.689714
21
-7.40919
0
LINE
8
BLACK
6
CONTINUOUS
10
0.689714
20
-7.40919
11
0.688504
21
-7.4031
0
LINE
8
BLACK
6
CONTINUOUS
10
0.688504
20
-7.4031
11
0.688504
21
-7.3969
0
LINE
8
BLACK
6
CONTINUOUS
10
0.688504
20
-7.3969
11
0.689714
21
-7.39081
0
LINE
8
BLACK
6
CONTINUOUS
10
0.689714
20
-7.39081
11
0.692089
21
-7.38508
0
LINE
8
BLACK
6
CONTINUOUS
10
0.692089
20
-7.38508
11
0.695535
21
-7.37992
0
LINE
8
BLACK
6
CONTINUOUS
10
0.695535
20
-7.37992
11
0.699922
21
-7.37554
0
LINE
8
BLACK
6
CONTINUOUS
10
0.699922
20
-7.37554
11
0.705081
21
-7.37209
0
LINE
8
BLACK
6
CONTINUOUS
10
0.705081
20
-7.37209
11
0.710813
21
-7.36971
0
LINE
8
BLACK
6
CONTINUOUS
10
0.710813
20
-7.36971
11
0.716898
21
-7.3685
0
LINE
8
BLACK
6
CONTINUOUS
10
0.716898
20
-7.3685
11
0.723102
21
-7.3685
0
LINE
8
BLACK
6
CONTINUOUS
10
0.723102
20
-7.3685
11
0.729187
21
-7.36971
0
LINE
8
BLACK
6
CONTINUOUS
10
0.904187
20
-6.56971
11
0.909919
21
-6.57209
0
LINE
8
BLACK
6
CONTINUOUS
10
0.909919
20
-6.57209
11
0.915078
21
-6.57554
0
LINE
8
BLACK
6
CONTINUOUS
10
0.915078
20
-6.57554
11
0.919465
21
-6.57992
0
LINE
8
BLACK
6
CONTINUOUS
10
0.919465
20
-6.57992
11
0.922911
21
-6.58508
0
LINE
8
BLACK
6
CONTINUOUS
10
0.922911
20
-6.58508
11
0.925014
21
-6.59016
0
LINE
8
BLACK
6
CONTINUOUS
10
0.925014
20
-6.59016
11
0.949517
21
-6.59016
0
LINE
8
BLACK
6
CONTINUOUS
10
0.949517
20
-6.59016
11
0.95
21
-6.59011
0
LINE
8
BLACK
6
CONTINUOUS
10
0.95
20
-6.59011
11
0.950483
21
-6.59016
0
LINE
8
BLACK
6
CONTINUOUS
10
0.950483
20
-6.59016
11
0.951929
21
-6.5903
0
LINE
8
BLACK
6
CONTINUOUS
10
0.951929
20
-6.5903
11
0.953785
21
-6.59086
0
LINE
8
BLACK
6
CONTINUOUS
10
0.953785
20
-6.59086
11
0.955495
21
-6.59178
0
LINE
8
BLACK
6
CONTINUOUS
10
0.955495
20
-6.59178
11
0.956993
21
-6.59301
0
LINE
8
BLACK
6
CONTINUOUS
10
0.956993
20
-6.59301
11
0.957302
21
-6.59338
0
LINE
8
BLACK
6
CONTINUOUS
10
0.957302
20
-6.59338
11
1.01528
21
-6.65136
0
LINE
8
BLACK
6
CONTINUOUS
10
1.01528
20
-6.65136
11
1.01566
21
-6.65167
0
LINE
8
BLACK
6
CONTINUOUS
10
1.01566
20
-6.65167
11
1.01689
21
-6.65317
0
LINE
8
BLACK
6
CONTINUOUS
10
1.01689
20
-6.65317
11
1.0178
21
-6.65488
0
LINE
8
BLACK
6
CONTINUOUS
10
1.0178
20
-6.65488
11
1.01836
21
-6.65673
0
LINE
8
BLACK
6
CONTINUOUS
10
1.01836
20
-6.65673
11
1.0185
21
-6.65818
0
LINE
8
BLACK
6
CONTINUOUS
10
1.0185
20
-6.65818
11
1.01855
21
-6.65866
0
LINE
8
BLACK
6
CONTINUOUS
10
1.01855
20
-6.65866
11
1.0185
21
-6.65914
0
LINE
8
BLACK
6
CONTINUOUS
10
1.0185
20
-6.65914
11
1.0185
21
-6.72818
0
LINE
8
BLACK
6
CONTINUOUS
10
1.0185
20
-6.72818
11
1.01855
21
-6.72866
0
LINE
8
BLACK
6
CONTINUOUS
10
1.01855
20
-6.72866
11
1.0185
21
-6.72915
0
LINE
8
BLACK
6
CONTINUOUS
10
1.0185
20
-6.72915
11
1.0185
21
-7.22458
0
LINE
8
BLACK
6
CONTINUOUS
10
1.0185
20
-7.22458
11
1.16408
21
-7.37016
0
LINE
8
BLACK
6
CONTINUOUS
10
1.16408
20
-7.37016
11
1.37048
21
-7.37016
0
LINE
8
BLACK
6
CONTINUOUS
10
1.37048
20
-7.37016
11
1.37193
21
-7.3703
0
LINE
8
BLACK
6
CONTINUOUS
10
1.37193
20
-7.3703
11
1.37378
21
-7.37086
0
LINE
8
BLACK
6
CONTINUOUS
10
1.37378
20
-7.37086
11
1.37549
21
-7.37178
0
LINE
8
BLACK
6
CONTINUOUS
10
1.37549
20
-7.37178
11
1.37592
21
-7.37213
0
LINE
8
BLACK
6
CONTINUOUS
10
1.37592
20
-7.37213
11
1.43961
21
-7.37213
0
LINE
8
BLACK
6
CONTINUOUS
10
1.43961
20
-7.37213
11
1.44
21
-7.37209
0
LINE
8
BLACK
6
CONTINUOUS
10
1.44
20
-7.37209
11
1.44039
21
-7.37213
0
LINE
8
BLACK
6
CONTINUOUS
10
1.44039
20
-7.37213
11
1.44039
21
-7.37213
0
LINE
8
BLACK
6
CONTINUOUS
10
1.44039
20
-7.37213
11
1.44154
21
-7.37224
0
LINE
8
BLACK
6
CONTINUOUS
10
1.44154
20
-7.37224
11
1.44303
21
-7.37269
0
LINE
8
BLACK
6
CONTINUOUS
10
1.44303
20
-7.37269
11
1.4444
21
-7.37342
0
LINE
8
BLACK
6
CONTINUOUS
10
1.4444
20
-7.37342
11
1.44559
21
-7.37441
0
LINE
8
BLACK
6
CONTINUOUS
10
1.44559
20
-7.37441
11
1.44584
21
-7.37471
0
LINE
8
BLACK
6
CONTINUOUS
10
1.44584
20
-7.37471
11
1.47255
21
-7.40141
0
LINE
8
BLACK
6
CONTINUOUS
10
1.47255
20
-7.40141
11
1.47415
21
-7.40034
0
LINE
8
BLACK
6
CONTINUOUS
10
1.47415
20
-7.40034
11
1.48024
21
-7.39782
0
LINE
8
BLACK
6
CONTINUOUS
10
1.48024
20
-7.39782
11
1.4867
21
-7.39654
0
LINE
8
BLACK
6
CONTINUOUS
10
1.4867
20
-7.39654
11
1.4933
21
-7.39654
0
LINE
8
BLACK
6
CONTINUOUS
10
1.4933
20
-7.39654
11
1.49976
21
-7.39782
0
LINE
8
BLACK
6
CONTINUOUS
10
1.49976
20
-7.39782
11
1.50585
21
-7.40034
0
LINE
8
BLACK
6
CONTINUOUS
10
1.50585
20
-7.40034
11
1.51133
21
-7.40401
0
LINE
8
BLACK
6
CONTINUOUS
10
1.51133
20
-7.40401
11
1.51599
21
-7.40867
0
LINE
8
BLACK
6
CONTINUOUS
10
1.51599
20
-7.40867
11
1.51966
21
-7.41415
0
LINE
8
BLACK
6
CONTINUOUS
10
1.51966
20
-7.41415
11
1.52218
21
-7.42024
0
LINE
8
BLACK
6
CONTINUOUS
10
1.52218
20
-7.42024
11
1.52346
21
-7.4267
0
LINE
8
BLACK
6
CONTINUOUS
10
1.52346
20
-7.4267
11
1.52346
21
-7.4333
0
LINE
8
BLACK
6
CONTINUOUS
10
1.52346
20
-7.4333
11
1.52218
21
-7.43976
0
LINE
8
BLACK
6
CONTINUOUS
10
1.52218
20
-7.43976
11
1.51966
21
-7.44585
0
LINE
8
BLACK
6
CONTINUOUS
10
1.51966
20
-7.44585
11
1.51599
21
-7.45133
0
LINE
8
BLACK
6
CONTINUOUS
10
1.51599
20
-7.45133
11
1.51133
21
-7.45599
0
LINE
8
BLACK
6
CONTINUOUS
10
1.51133
20
-7.45599
11
1.50585
21
-7.45966
0
LINE
8
BLACK
6
CONTINUOUS
10
1.50585
20
-7.45966
11
1.49976
21
-7.46218
0
LINE
8
BLACK
6
CONTINUOUS
10
1.49976
20
-7.46218
11
1.4933
21
-7.46346
0
LINE
8
BLACK
6
CONTINUOUS
10
1.4933
20
-7.46346
11
1.4867
21
-7.46346
0
LINE
8
BLACK
6
CONTINUOUS
10
1.4867
20
-7.46346
11
1.48024
21
-7.46218
0
LINE
8
BLACK
6
CONTINUOUS
10
1.48024
20
-7.46218
11
1.47415
21
-7.45966
0
LINE
8
BLACK
6
CONTINUOUS
10
1.47415
20
-7.45966
11
1.46867
21
-7.45599
0
LINE
8
BLACK
6
CONTINUOUS
10
1.46867
20
-7.45599
11
1.46401
21
-7.45133
0
LINE
8
BLACK
6
CONTINUOUS
10
1.46401
20
-7.45133
11
1.46034
21
-7.44585
0
LINE
8
BLACK
6
CONTINUOUS
10
1.46034
20
-7.44585
11
1.45782
21
-7.43976
0
LINE
8
BLACK
6
CONTINUOUS
10
1.45782
20
-7.43976
11
1.45654
21
-7.4333
0
LINE
8
BLACK
6
CONTINUOUS
10
1.45654
20
-7.4333
11
1.45654
21
-7.4267
0
LINE
8
BLACK
6
CONTINUOUS
10
1.45654
20
-7.4267
11
1.45782
21
-7.42024
0
LINE
8
BLACK
6
CONTINUOUS
10
1.45782
20
-7.42024
11
1.46034
21
-7.41415
0
LINE
8
BLACK
6
CONTINUOUS
10
1.46034
20
-7.41415
11
1.46141
21
-7.41255
0
LINE
8
BLACK
6
CONTINUOUS
10
1.46141
20
-7.41255
11
1.43674
21
-7.38787
0
LINE
8
BLACK
6
CONTINUOUS
10
1.43674
20
-7.38787
11
1.37592
21
-7.38787
0
LINE
8
BLACK
6
CONTINUOUS
10
1.37592
20
-7.38787
11
1.37549
21
-7.38822
0
LINE
8
BLACK
6
CONTINUOUS
10
1.37549
20
-7.38822
11
1.37378
21
-7.38914
0
LINE
8
BLACK
6
CONTINUOUS
10
1.37378
20
-7.38914
11
1.37193
21
-7.3897
0
LINE
8
BLACK
6
CONTINUOUS
10
1.37193
20
-7.3897
11
1.37048
21
-7.38984
0
LINE
8
BLACK
6
CONTINUOUS
10
1.37048
20
-7.38984
11
1.16048
21
-7.38984
0
LINE
8
BLACK
6
CONTINUOUS
10
1.16048
20
-7.38984
11
1.16
21
-7.38989
0
LINE
8
BLACK
6
CONTINUOUS
10
1.16
20
-7.38989
11
1.15807
21
-7.3897
0
LINE
8
BLACK
6
CONTINUOUS
10
1.15807
20
-7.3897
11
1.15622
21
-7.38914
0
LINE
8
BLACK
6
CONTINUOUS
10
1.15622
20
-7.38914
11
1.15451
21
-7.38822
0
LINE
8
BLACK
6
CONTINUOUS
10
1.15451
20
-7.38822
11
1.15301
21
-7.38699
0
LINE
8
BLACK
6
CONTINUOUS
10
1.15301
20
-7.38699
11
1.1527
21
-7.38662
0
LINE
8
BLACK
6
CONTINUOUS
10
1.1527
20
-7.38662
11
1.00204
21
-7.23596
0
LINE
8
BLACK
6
CONTINUOUS
10
1.00204
20
-7.23596
11
1.00167
21
-7.23566
0
LINE
8
BLACK
6
CONTINUOUS
10
1.00167
20
-7.23566
11
1.00044
21
-7.23416
0
LINE
8
BLACK
6
CONTINUOUS
10
1.00044
20
-7.23416
11
0.999525
21
-7.23245
0
LINE
8
BLACK
6
CONTINUOUS
10
0.999525
20
-7.23245
11
0.998962
21
-7.23059
0
LINE
8
BLACK
6
CONTINUOUS
10
0.998962
20
-7.23059
11
0.998819
21
-7.22915
0
LINE
8
BLACK
6
CONTINUOUS
10
0.998819
20
-7.22915
11
0.998772
21
-7.22866
0
LINE
8
BLACK
6
CONTINUOUS
10
0.998772
20
-7.22866
11
0.998819
21
-7.22818
0
LINE
8
BLACK
6
CONTINUOUS
10
0.998819
20
-7.22818
11
0.998819
21
-6.73484
0
LINE
8
BLACK
6
CONTINUOUS
10
0.998819
20
-6.73484
11
0.989411
21
-6.73484
0
LINE
8
BLACK
6
CONTINUOUS
10
0.989411
20
-6.73484
11
0.989215
21
-6.73508
0
LINE
8
BLACK
6
CONTINUOUS
10
0.989215
20
-6.73508
11
0.98832
21
-6.73582
0
LINE
8
BLACK
6
CONTINUOUS
10
0.98832
20
-6.73582
11
0.987299
21
-6.73636
0
LINE
8
BLACK
6
CONTINUOUS
10
0.987299
20
-6.73636
11
0.986191
21
-6.7367
0
LINE
8
BLACK
6
CONTINUOUS
10
0.986191
20
-6.7367
11
0.985039
21
-6.73681
0
LINE
8
BLACK
6
CONTINUOUS
10
0.985039
20
-6.73681
11
0.920079
21
-6.73681
0
LINE
8
BLACK
6
CONTINUOUS
10
0.920079
20
-6.73681
11
0.918927
21
-6.7367
0
LINE
8
BLACK
6
CONTINUOUS
10
0.918927
20
-6.7367
11
0.917819
21
-6.73636
0
LINE
8
BLACK
6
CONTINUOUS
10
0.917819
20
-6.73636
11
0.916798
21
-6.73582
0
LINE
8
BLACK
6
CONTINUOUS
10
0.916798
20
-6.73582
11
0.915903
21
-6.73508
0
LINE
8
BLACK
6
CONTINUOUS
10
0.915903
20
-6.73508
11
0.915169
21
-6.73419
0
LINE
8
BLACK
6
CONTINUOUS
10
0.915169
20
-6.73419
11
0.914623
21
-6.73317
0
LINE
8
BLACK
6
CONTINUOUS
10
0.914623
20
-6.73317
11
0.914287
21
-6.73206
0
LINE
8
BLACK
6
CONTINUOUS
10
0.914287
20
-6.73206
11
0.914173
21
-6.73091
0
LINE
8
BLACK
6
CONTINUOUS
10
0.914173
20
-6.73091
11
0.914173
21
-6.71909
0
LINE
8
BLACK
6
CONTINUOUS
10
0.914173
20
-6.71909
11
0.914287
21
-6.71794
0
LINE
8
BLACK
6
CONTINUOUS
10
0.914287
20
-6.71794
11
0.914623
21
-6.71683
0
LINE
8
BLACK
6
CONTINUOUS
10
0.914623
20
-6.71683
11
0.915169
21
-6.71581
0
LINE
8
BLACK
6
CONTINUOUS
10
0.915169
20
-6.71581
11
0.915903
21
-6.71492
0
LINE
8
BLACK
6
CONTINUOUS
10
0.915903
20
-6.71492
11
0.916798
21
-6.71418
0
LINE
8
BLACK
6
CONTINUOUS
10
0.916798
20
-6.71418
11
0.917819
21
-6.71364
0
LINE
8
BLACK
6
CONTINUOUS
10
0.917819
20
-6.71364
11
0.918927
21
-6.7133
0
LINE
8
BLACK
6
CONTINUOUS
10
0.918927
20
-6.7133
11
0.920079
21
-6.71319
0
LINE
8
BLACK
6
CONTINUOUS
10
0.920079
20
-6.71319
11
0.985039
21
-6.71319
0
LINE
8
BLACK
6
CONTINUOUS
10
0.985039
20
-6.71319
11
0.986191
21
-6.7133
0
LINE
8
BLACK
6
CONTINUOUS
10
0.986191
20
-6.7133
11
0.987299
21
-6.71364
0
LINE
8
BLACK
6
CONTINUOUS
10
0.987299
20
-6.71364
11
0.98832
21
-6.71418
0
LINE
8
BLACK
6
CONTINUOUS
10
0.98832
20
-6.71418
11
0.989215
21
-6.71492
0
LINE
8
BLACK
6
CONTINUOUS
10
0.989215
20
-6.71492
11
0.989411
21
-6.71516
0
LINE
8
BLACK
6
CONTINUOUS
10
0.989411
20
-6.71516
11
0.998819
21
-6.71516
0
LINE
8
BLACK
6
CONTINUOUS
10
0.998819
20
-6.71516
11
0.998819
21
-6.66274
0
LINE
8
BLACK
6
CONTINUOUS
10
0.998819
20
-6.66274
11
0.945923
21
-6.60984
0
LINE
8
BLACK
6
CONTINUOUS
10
0.945923
20
-6.60984
11
0.925014
21
-6.60984
0
LINE
8
BLACK
6
CONTINUOUS
10
0.925014
20
-6.60984
11
0.922911
21
-6.61492
0
LINE
8
BLACK
6
CONTINUOUS
10
0.922911
20
-6.61492
11
0.919465
21
-6.62008
0
LINE
8
BLACK
6
CONTINUOUS
10
0.919465
20
-6.62008
11
0.915078
21
-6.62446
0
LINE
8
BLACK
6
CONTINUOUS
10
0.915078
20
-6.62446
11
0.909919
21
-6.62791
0
LINE
8
BLACK
6
CONTINUOUS
10
0.909919
20
-6.62791
11
0.904187
21
-6.63029
0
LINE
8
BLACK
6
CONTINUOUS
10
0.904187
20
-6.63029
11
0.898102
21
-6.6315
0
LINE
8
BLACK
6
CONTINUOUS
10
0.898102
20
-6.6315
11
0.891898
21
-6.6315
0
LINE
8
BLACK
6
CONTINUOUS
10
0.891898
20
-6.6315
11
0.885813
21
-6.63029
0
LINE
8
BLACK
6
CONTINUOUS
10
0.885813
20
-6.63029
11
0.880081
21
-6.62791
0
LINE
8
BLACK
6
CONTINUOUS
10
0.880081
20
-6.62791
11
0.874922
21
-6.62446
0
LINE
8
BLACK
6
CONTINUOUS
10
0.874922
20
-6.62446
11
0.870535
21
-6.62008
0
LINE
8
BLACK
6
CONTINUOUS
10
0.870535
20
-6.62008
11
0.867089
21
-6.61492
0
LINE
8
BLACK
6
CONTINUOUS
10
0.867089
20
-6.61492
11
0.864714
21
-6.60919
0
LINE
8
BLACK
6
CONTINUOUS
10
0.864714
20
-6.60919
11
0.863504
21
-6.6031
0
LINE
8
BLACK
6
CONTINUOUS
10
0.863504
20
-6.6031
11
0.863504
21
-6.5969
0
LINE
8
BLACK
6
CONTINUOUS
10
0.863504
20
-6.5969
11
0.864714
21
-6.59081
0
LINE
8
BLACK
6
CONTINUOUS
10
0.864714
20
-6.59081
11
0.867089
21
-6.58508
0
LINE
8
BLACK
6
CONTINUOUS
10
0.867089
20
-6.58508
11
0.870535
21
-6.57992
0
LINE
8
BLACK
6
CONTINUOUS
10
0.870535
20
-6.57992
11
0.874922
21
-6.57554
0
LINE
8
BLACK
6
CONTINUOUS
10
0.874922
20
-6.57554
11
0.880081
21
-6.57209
0
LINE
8
BLACK
6
CONTINUOUS
10
0.880081
20
-6.57209
11
0.885813
21
-6.56971
0
LINE
8
BLACK
6
CONTINUOUS
10
0.885813
20
-6.56971
11
0.891898
21
-6.5685
0
LINE
8
BLACK
6
CONTINUOUS
10
0.891898
20
-6.5685
11
0.898102
21
-6.5685
0
LINE
8
BLACK
6
CONTINUOUS
10
0.898102
20
-6.5685
11
0.904187
21
-6.56971
0
LINE
8
BLACK
6
CONTINUOUS
10
1.18107
20
-6.8633
11
1.18218
21
-6.86364
0
LINE
8
BLACK
6
CONTINUOUS
10
1.18218
20
-6.86364
11
1.1832
21
-6.86418
0
LINE
8
BLACK
6
CONTINUOUS
10
1.1832
20
-6.86418
11
1.1841
21
-6.86492
0
LINE
8
BLACK
6
CONTINUOUS
10
1.1841
20
-6.86492
11
1.18483
21
-6.86581
0
LINE
8
BLACK
6
CONTINUOUS
10
1.18483
20
-6.86581
11
1.18538
21
-6.86683
0
LINE
8
BLACK
6
CONTINUOUS
10
1.18538
20
-6.86683
11
1.18571
21
-6.86794
0
LINE
8
BLACK
6
CONTINUOUS
10
1.18571
20
-6.86794
11
1.18583
21
-6.86909
0
LINE
8
BLACK
6
CONTINUOUS
10
1.18583
20
-6.86909
11
1.18583
21
-6.88091
0
LINE
8
BLACK
6
CONTINUOUS
10
1.18583
20
-6.88091
11
1.18571
21
-6.88206
0
LINE
8
BLACK
6
CONTINUOUS
10
1.18571
20
-6.88206
11
1.18538
21
-6.88317
0
LINE
8
BLACK
6
CONTINUOUS
10
1.18538
20
-6.88317
11
1.18483
21
-6.88419
0
LINE
8
BLACK
6
CONTINUOUS
10
1.18483
20
-6.88419
11
1.1841
21
-6.88508
0
LINE
8
BLACK
6
CONTINUOUS
10
1.1841
20
-6.88508
11
1.1832
21
-6.88582
0
LINE
8
BLACK
6
CONTINUOUS
10
1.1832
20
-6.88582
11
1.18218
21
-6.88636
0
LINE
8
BLACK
6
CONTINUOUS
10
1.18218
20
-6.88636
11
1.18107
21
-6.8867
0
LINE
8
BLACK
6
CONTINUOUS
10
1.18107
20
-6.8867
11
1.17992
21
-6.88681
0
LINE
8
BLACK
6
CONTINUOUS
10
1.17992
20
-6.88681
11
1.11496
21
-6.88681
0
LINE
8
BLACK
6
CONTINUOUS
10
1.11496
20
-6.88681
11
1.11381
21
-6.8867
0
LINE
8
BLACK
6
CONTINUOUS
10
1.11381
20
-6.8867
11
1.1127
21
-6.88636
0
LINE
8
BLACK
6
CONTINUOUS
10
1.1127
20
-6.88636
11
1.11168
21
-6.88582
0
LINE
8
BLACK
6
CONTINUOUS
10
1.11168
20
-6.88582
11
1.11078
21
-6.88508
0
LINE
8
BLACK
6
CONTINUOUS
10
1.11078
20
-6.88508
11
1.11059
21
-6.88484
0
LINE
8
BLACK
6
CONTINUOUS
10
1.11059
20
-6.88484
11
1.09908
21
-6.88484
0
LINE
8
BLACK
6
CONTINUOUS
10
1.09908
20
-6.88484
11
1.09484
21
-6.88908
0
LINE
8
BLACK
6
CONTINUOUS
10
1.09484
20
-6.88908
11
1.09484
21
-6.9699
0
LINE
8
BLACK
6
CONTINUOUS
10
1.09484
20
-6.9699
11
1.2551
21
-7.13016
0
LINE
8
BLACK
6
CONTINUOUS
10
1.2551
20
-7.13016
11
1.39952
21
-7.13016
0
LINE
8
BLACK
6
CONTINUOUS
10
1.39952
20
-7.13016
11
1.4
21
-7.13011
0
LINE
8
BLACK
6
CONTINUOUS
10
1.4
20
-7.13011
11
1.40048
21
-7.13016
0
LINE
8
BLACK
6
CONTINUOUS
10
1.40048
20
-7.13016
11
1.40193
21
-7.1303
0
LINE
8
BLACK
6
CONTINUOUS
10
1.40193
20
-7.1303
11
1.40378
21
-7.13086
0
LINE
8
BLACK
6
CONTINUOUS
10
1.40378
20
-7.13086
11
1.40549
21
-7.13178
0
LINE
8
BLACK
6
CONTINUOUS
10
1.40549
20
-7.13178
11
1.40699
21
-7.13301
0
LINE
8
BLACK
6
CONTINUOUS
10
1.40699
20
-7.13301
11
1.4073
21
-7.13338
0
LINE
8
BLACK
6
CONTINUOUS
10
1.4073
20
-7.13338
11
1.44544
21
-7.17152
0
LINE
8
BLACK
6
CONTINUOUS
10
1.44544
20
-7.17152
11
1.44581
21
-7.17183
0
LINE
8
BLACK
6
CONTINUOUS
10
1.44581
20
-7.17183
11
1.44704
21
-7.17332
0
LINE
8
BLACK
6
CONTINUOUS
10
1.44704
20
-7.17332
11
1.44767
21
-7.17451
0
LINE
8
BLACK
6
CONTINUOUS
10
1.44767
20
-7.17451
11
1.44796
21
-7.17503
0
LINE
8
BLACK
6
CONTINUOUS
10
1.44796
20
-7.17503
11
1.44852
21
-7.17689
0
LINE
8
BLACK
6
CONTINUOUS
10
1.44852
20
-7.17689
11
1.44871
21
-7.17882
0
LINE
8
BLACK
6
CONTINUOUS
10
1.44871
20
-7.17882
11
1.44866
21
-7.1793
0
LINE
8
BLACK
6
CONTINUOUS
10
1.44866
20
-7.1793
11
1.44866
21
-7.2807
0
LINE
8
BLACK
6
CONTINUOUS
10
1.44866
20
-7.2807
11
1.44871
21
-7.28118
0
LINE
8
BLACK
6
CONTINUOUS
10
1.44871
20
-7.28118
11
1.44866
21
-7.28166
0
LINE
8
BLACK
6
CONTINUOUS
10
1.44866
20
-7.28166
11
1.44866
21
-7.28166
0
LINE
8
BLACK
6
CONTINUOUS
10
1.44866
20
-7.28166
11
1.44852
21
-7.28311
0
LINE
8
BLACK
6
CONTINUOUS
10
1.44852
20
-7.28311
11
1.44796
21
-7.28497
0
LINE
8
BLACK
6
CONTINUOUS
10
1.44796
20
-7.28497
11
1.44704
21
-7.28668
0
LINE
8
BLACK
6
CONTINUOUS
10
1.44704
20
-7.28668
11
1.44581
21
-7.28817
0
LINE
8
BLACK
6
CONTINUOUS
10
1.44581
20
-7.28817
11
1.44544
21
-7.28848
0
LINE
8
BLACK
6
CONTINUOUS
10
1.44544
20
-7.28848
11
1.41969
21
-7.31423
0
LINE
8
BLACK
6
CONTINUOUS
10
1.41969
20
-7.31423
11
1.42218
21
-7.32024
0
LINE
8
BLACK
6
CONTINUOUS
10
1.42218
20
-7.32024
11
1.42346
21
-7.3267
0
LINE
8
BLACK
6
CONTINUOUS
10
1.42346
20
-7.3267
11
1.42346
21
-7.3333
0
LINE
8
BLACK
6
CONTINUOUS
10
1.42346
20
-7.3333
11
1.42218
21
-7.33976
0
LINE
8
BLACK
6
CONTINUOUS
10
1.42218
20
-7.33976
11
1.41966
21
-7.34585
0
LINE
8
BLACK
6
CONTINUOUS
10
1.41966
20
-7.34585
11
1.41599
21
-7.35133
0
LINE
8
BLACK
6
CONTINUOUS
10
1.41599
20
-7.35133
11
1.41133
21
-7.35599
0
LINE
8
BLACK
6
CONTINUOUS
10
1.41133
20
-7.35599
11
1.40585
21
-7.35966
0
LINE
8
BLACK
6
CONTINUOUS
10
1.40585
20
-7.35966
11
1.39976
21
-7.36218
0
LINE
8
BLACK
6
CONTINUOUS
10
1.39976
20
-7.36218
11
1.3933
21
-7.36346
0
LINE
8
BLACK
6
CONTINUOUS
10
1.3933
20
-7.36346
11
1.3867
21
-7.36346
0
LINE
8
BLACK
6
CONTINUOUS
10
1.3867
20
-7.36346
11
1.38024
21
-7.36218
0
LINE
8
BLACK
6
CONTINUOUS
10
1.38024
20
-7.36218
11
1.37415
21
-7.35966
0
LINE
8
BLACK
6
CONTINUOUS
10
1.37415
20
-7.35966
11
1.36867
21
-7.35599
0
LINE
8
BLACK
6
CONTINUOUS
10
1.36867
20
-7.35599
11
1.36401
21
-7.35133
0
LINE
8
BLACK
6
CONTINUOUS
10
1.36401
20
-7.35133
11
1.36034
21
-7.34585
0
LINE
8
BLACK
6
CONTINUOUS
10
1.36034
20
-7.34585
11
1.35782
21
-7.33976
0
LINE
8
BLACK
6
CONTINUOUS
10
1.35782
20
-7.33976
11
1.35654
21
-7.3333
0
LINE
8
BLACK
6
CONTINUOUS
10
1.35654
20
-7.3333
11
1.35654
21
-7.3267
0
LINE
8
BLACK
6
CONTINUOUS
10
1.35654
20
-7.3267
11
1.35782
21
-7.32024
0
LINE
8
BLACK
6
CONTINUOUS
10
1.35782
20
-7.32024
11
1.36034
21
-7.31415
0
LINE
8
BLACK
6
CONTINUOUS
10
1.36034
20
-7.31415
11
1.36401
21
-7.30867
0
LINE
8
BLACK
6
CONTINUOUS
10
1.36401
20
-7.30867
11
1.36867
21
-7.30401
0
LINE
8
BLACK
6
CONTINUOUS
10
1.36867
20
-7.30401
11
1.37415
21
-7.30034
0
LINE
8
BLACK
6
CONTINUOUS
10
1.37415
20
-7.30034
11
1.38024
21
-7.29782
0
LINE
8
BLACK
6
CONTINUOUS
10
1.38024
20
-7.29782
11
1.3867
21
-7.29654
0
LINE
8
BLACK
6
CONTINUOUS
10
1.3867
20
-7.29654
11
1.3933
21
-7.29654
0
LINE
8
BLACK
6
CONTINUOUS
10
1.3933
20
-7.29654
11
1.39976
21
-7.29782
0
LINE
8
BLACK
6
CONTINUOUS
10
1.39976
20
-7.29782
11
1.40577
21
-7.30031
0
LINE
8
BLACK
6
CONTINUOUS
10
1.40577
20
-7.30031
11
1.42898
21
-7.2771
0
LINE
8
BLACK
6
CONTINUOUS
10
1.42898
20
-7.2771
11
1.42898
21
-7.1829
0
LINE
8
BLACK
6
CONTINUOUS
10
1.42898
20
-7.1829
11
1.39592
21
-7.14984
0
LINE
8
BLACK
6
CONTINUOUS
10
1.39592
20
-7.14984
11
1.25151
21
-7.14984
0
LINE
8
BLACK
6
CONTINUOUS
10
1.25151
20
-7.14984
11
1.25103
21
-7.14989
0
LINE
8
BLACK
6
CONTINUOUS
10
1.25103
20
-7.14989
11
1.25054
21
-7.14984
0
LINE
8
BLACK
6
CONTINUOUS
10
1.25054
20
-7.14984
11
1.25054
21
-7.14984
0
LINE
8
BLACK
6
CONTINUOUS
10
1.25054
20
-7.14984
11
1.2491
21
-7.1497
0
LINE
8
BLACK
6
CONTINUOUS
10
1.2491
20
-7.1497
11
1.24724
21
-7.14914
0
LINE
8
BLACK
6
CONTINUOUS
10
1.24724
20
-7.14914
11
1.24553
21
-7.14822
0
LINE
8
BLACK
6
CONTINUOUS
10
1.24553
20
-7.14822
11
1.24403
21
-7.14699
0
LINE
8
BLACK
6
CONTINUOUS
10
1.24403
20
-7.14699
11
1.24372
21
-7.14662
0
LINE
8
BLACK
6
CONTINUOUS
10
1.24372
20
-7.14662
11
1.07838
21
-6.98128
0
LINE
8
BLACK
6
CONTINUOUS
10
1.07838
20
-6.98128
11
1.07801
21
-6.98097
0
LINE
8
BLACK
6
CONTINUOUS
10
1.07801
20
-6.98097
11
1.07678
21
-6.97947
0
LINE
8
BLACK
6
CONTINUOUS
10
1.07678
20
-6.97947
11
1.07586
21
-6.97776
0
LINE
8
BLACK
6
CONTINUOUS
10
1.07586
20
-6.97776
11
1.0753
21
-6.9759
0
LINE
8
BLACK
6
CONTINUOUS
10
1.0753
20
-6.9759
11
1.07511
21
-6.97397
0
LINE
8
BLACK
6
CONTINUOUS
10
1.07511
20
-6.97397
11
1.07516
21
-6.97349
0
LINE
8
BLACK
6
CONTINUOUS
10
1.07516
20
-6.97349
11
1.07516
21
-6.88548
0
LINE
8
BLACK
6
CONTINUOUS
10
1.07516
20
-6.88548
11
1.07511
21
-6.885
0
LINE
8
BLACK
6
CONTINUOUS
10
1.07511
20
-6.885
11
1.0753
21
-6.88307
0
LINE
8
BLACK
6
CONTINUOUS
10
1.0753
20
-6.88307
11
1.07586
21
-6.88122
0
LINE
8
BLACK
6
CONTINUOUS
10
1.07586
20
-6.88122
11
1.07603
21
-6.88091
0
LINE
8
BLACK
6
CONTINUOUS
10
1.07603
20
-6.88091
11
1.07678
21
-6.87951
0
LINE
8
BLACK
6
CONTINUOUS
10
1.07678
20
-6.87951
11
1.07801
21
-6.87801
0
LINE
8
BLACK
6
CONTINUOUS
10
1.07801
20
-6.87801
11
1.07838
21
-6.8777
0
LINE
8
BLACK
6
CONTINUOUS
10
1.07838
20
-6.8777
11
1.0877
21
-6.86838
0
LINE
8
BLACK
6
CONTINUOUS
10
1.0877
20
-6.86838
11
1.08801
21
-6.86801
0
LINE
8
BLACK
6
CONTINUOUS
10
1.08801
20
-6.86801
11
1.08951
21
-6.86678
0
LINE
8
BLACK
6
CONTINUOUS
10
1.08951
20
-6.86678
11
1.09122
21
-6.86586
0
LINE
8
BLACK
6
CONTINUOUS
10
1.09122
20
-6.86586
11
1.09307
21
-6.8653
0
LINE
8
BLACK
6
CONTINUOUS
10
1.09307
20
-6.8653
11
1.09452
21
-6.86516
0
LINE
8
BLACK
6
CONTINUOUS
10
1.09452
20
-6.86516
11
1.09452
21
-6.86516
0
LINE
8
BLACK
6
CONTINUOUS
10
1.09452
20
-6.86516
11
1.095
21
-6.86511
0
LINE
8
BLACK
6
CONTINUOUS
10
1.095
20
-6.86511
11
1.09548
21
-6.86516
0
LINE
8
BLACK
6
CONTINUOUS
10
1.09548
20
-6.86516
11
1.11059
21
-6.86516
0
LINE
8
BLACK
6
CONTINUOUS
10
1.11059
20
-6.86516
11
1.11078
21
-6.86492
0
LINE
8
BLACK
6
CONTINUOUS
10
1.11078
20
-6.86492
11
1.11168
21
-6.86418
0
LINE
8
BLACK
6
CONTINUOUS
10
1.11168
20
-6.86418
11
1.1127
21
-6.86364
0
LINE
8
BLACK
6
CONTINUOUS
10
1.1127
20
-6.86364
11
1.11381
21
-6.8633
0
LINE
8
BLACK
6
CONTINUOUS
10
1.11381
20
-6.8633
11
1.11496
21
-6.86319
0
LINE
8
BLACK
6
CONTINUOUS
10
1.11496
20
-6.86319
11
1.17992
21
-6.86319
0
LINE
8
BLACK
6
CONTINUOUS
10
1.17992
20
-6.86319
11
1.18107
21
-6.8633
0
LINE
8
BLACK
6
CONTINUOUS
10
1.18107
20
-6.7633
11
1.18218
21
-6.76364
0
LINE
8
BLACK
6
CONTINUOUS
10
1.18218
20
-6.76364
11
1.1832
21
-6.76418
0
LINE
8
BLACK
6
CONTINUOUS
10
1.1832
20
-6.76418
11
1.1841
21
-6.76492
0
LINE
8
BLACK
6
CONTINUOUS
10
1.1841
20
-6.76492
11
1.18429
21
-6.76516
0
LINE
8
BLACK
6
CONTINUOUS
10
1.18429
20
-6.76516
11
1.22452
21
-6.76516
0
LINE
8
BLACK
6
CONTINUOUS
10
1.22452
20
-6.76516
11
1.225
21
-6.76511
0
LINE
8
BLACK
6
CONTINUOUS
10
1.225
20
-6.76511
11
1.22548
21
-6.76516
0
LINE
8
BLACK
6
CONTINUOUS
10
1.22548
20
-6.76516
11
1.22693
21
-6.7653
0
LINE
8
BLACK
6
CONTINUOUS
10
1.22693
20
-6.7653
11
1.22878
21
-6.76586
0
LINE
8
BLACK
6
CONTINUOUS
10
1.22878
20
-6.76586
11
1.23049
21
-6.76678
0
LINE
8
BLACK
6
CONTINUOUS
10
1.23049
20
-6.76678
11
1.23199
21
-6.76801
0
LINE
8
BLACK
6
CONTINUOUS
10
1.23199
20
-6.76801
11
1.2323
21
-6.76838
0
LINE
8
BLACK
6
CONTINUOUS
10
1.2323
20
-6.76838
11
1.4073
21
-6.94338
0
LINE
8
BLACK
6
CONTINUOUS
10
1.4073
20
-6.94338
11
1.4073
21
-6.94338
0
LINE
8
BLACK
6
CONTINUOUS
10
1.4073
20
-6.94338
11
1.41423
21
-6.95031
0
LINE
8
BLACK
6
CONTINUOUS
10
1.41423
20
-6.95031
11
1.42024
21
-6.94782
0
LINE
8
BLACK
6
CONTINUOUS
10
1.42024
20
-6.94782
11
1.4267
21
-6.94654
0
LINE
8
BLACK
6
CONTINUOUS
10
1.4267
20
-6.94654
11
1.4333
21
-6.94654
0
LINE
8
BLACK
6
CONTINUOUS
10
1.4333
20
-6.94654
11
1.43976
21
-6.94782
0
LINE
8
BLACK
6
CONTINUOUS
10
1.43976
20
-6.94782
11
1.44585
21
-6.95034
0
LINE
8
BLACK
6
CONTINUOUS
10
1.44585
20
-6.95034
11
1.45133
21
-6.95401
0
LINE
8
BLACK
6
CONTINUOUS
10
1.45133
20
-6.95401
11
1.45599
21
-6.95867
0
LINE
8
BLACK
6
CONTINUOUS
10
1.45599
20
-6.95867
11
1.45966
21
-6.96415
0
LINE
8
BLACK
6
CONTINUOUS
10
1.45966
20
-6.96415
11
1.46218
21
-6.97024
0
LINE
8
BLACK
6
CONTINUOUS
10
1.46218
20
-6.97024
11
1.46346
21
-6.9767
0
LINE
8
BLACK
6
CONTINUOUS
10
1.46346
20
-6.9767
11
1.46346
21
-6.9833
0
LINE
8
BLACK
6
CONTINUOUS
10
1.46346
20
-6.9833
11
1.46218
21
-6.98976
0
LINE
8
BLACK
6
CONTINUOUS
10
1.46218
20
-6.98976
11
1.45969
21
-6.99577
0
LINE
8
BLACK
6
CONTINUOUS
10
1.45969
20
-6.99577
11
1.55662
21
-7.0927
0
LINE
8
BLACK
6
CONTINUOUS
10
1.55662
20
-7.0927
11
1.55699
21
-7.09301
0
LINE
8
BLACK
6
CONTINUOUS
10
1.55699
20
-7.09301
11
1.55822
21
-7.09451
0
LINE
8
BLACK
6
CONTINUOUS
10
1.55822
20
-7.09451
11
1.55914
21
-7.09622
0
LINE
8
BLACK
6
CONTINUOUS
10
1.55914
20
-7.09622
11
1.5597
21
-7.09807
0
LINE
8
BLACK
6
CONTINUOUS
10
1.5597
20
-7.09807
11
1.55989
21
-7.1
0
LINE
8
BLACK
6
CONTINUOUS
10
1.55989
20
-7.1
11
1.55984
21
-7.10048
0
LINE
8
BLACK
6
CONTINUOUS
10
1.55984
20
-7.10048
11
1.55984
21
-7.26952
0
LINE
8
BLACK
6
CONTINUOUS
10
1.55984
20
-7.26952
11
1.55989
21
-7.27
0
LINE
8
BLACK
6
CONTINUOUS
10
1.55989
20
-7.27
11
1.55984
21
-7.27048
0
LINE
8
BLACK
6
CONTINUOUS
10
1.55984
20
-7.27048
11
1.55984
21
-7.27048
0
LINE
8
BLACK
6
CONTINUOUS
10
1.55984
20
-7.27048
11
1.5597
21
-7.27193
0
LINE
8
BLACK
6
CONTINUOUS
10
1.5597
20
-7.27193
11
1.55914
21
-7.27378
0
LINE
8
BLACK
6
CONTINUOUS
10
1.55914
20
-7.27378
11
1.55822
21
-7.27549
0
LINE
8
BLACK
6
CONTINUOUS
10
1.55822
20
-7.27549
11
1.55699
21
-7.27699
0
LINE
8
BLACK
6
CONTINUOUS
10
1.55699
20
-7.27699
11
1.55662
21
-7.2773
0
LINE
8
BLACK
6
CONTINUOUS
10
1.55662
20
-7.2773
11
1.51969
21
-7.31423
0
LINE
8
BLACK
6
CONTINUOUS
10
1.51969
20
-7.31423
11
1.52218
21
-7.32024
0
LINE
8
BLACK
6
CONTINUOUS
10
1.52218
20
-7.32024
11
1.52346
21
-7.3267
0
LINE
8
BLACK
6
CONTINUOUS
10
1.52346
20
-7.3267
11
1.52346
21
-7.3333
0
LINE
8
BLACK
6
CONTINUOUS
10
1.52346
20
-7.3333
11
1.52218
21
-7.33976
0
LINE
8
BLACK
6
CONTINUOUS
10
1.52218
20
-7.33976
11
1.51966
21
-7.34585
0
LINE
8
BLACK
6
CONTINUOUS
10
1.51966
20
-7.34585
11
1.51599
21
-7.35133
0
LINE
8
BLACK
6
CONTINUOUS
10
1.51599
20
-7.35133
11
1.51133
21
-7.35599
0
LINE
8
BLACK
6
CONTINUOUS
10
1.51133
20
-7.35599
11
1.50585
21
-7.35966
0
LINE
8
BLACK
6
CONTINUOUS
10
1.50585
20
-7.35966
11
1.49976
21
-7.36218
0
LINE
8
BLACK
6
CONTINUOUS
10
1.49976
20
-7.36218
11
1.4933
21
-7.36346
0
LINE
8
BLACK
6
CONTINUOUS
10
1.4933
20
-7.36346
11
1.4867
21
-7.36346
0
LINE
8
BLACK
6
CONTINUOUS
10
1.4867
20
-7.36346
11
1.48024
21
-7.36218
0
LINE
8
BLACK
6
CONTINUOUS
10
1.48024
20
-7.36218
11
1.47415
21
-7.35966
0
LINE
8
BLACK
6
CONTINUOUS
10
1.47415
20
-7.35966
11
1.46867
21
-7.35599
0
LINE
8
BLACK
6
CONTINUOUS
10
1.46867
20
-7.35599
11
1.46401
21
-7.35133
0
LINE
8
BLACK
6
CONTINUOUS
10
1.46401
20
-7.35133
11
1.46034
21
-7.34585
0
LINE
8
BLACK
6
CONTINUOUS
10
1.46034
20
-7.34585
11
1.45782
21
-7.33976
0
LINE
8
BLACK
6
CONTINUOUS
10
1.45782
20
-7.33976
11
1.45654
21
-7.3333
0
LINE
8
BLACK
6
CONTINUOUS
10
1.45654
20
-7.3333
11
1.45654
21
-7.3267
0
LINE
8
BLACK
6
CONTINUOUS
10
1.45654
20
-7.3267
11
1.45782
21
-7.32024
0
LINE
8
BLACK
6
CONTINUOUS
10
1.45782
20
-7.32024
11
1.46034
21
-7.31415
0
LINE
8
BLACK
6
CONTINUOUS
10
1.46034
20
-7.31415
11
1.46401
21
-7.30867
0
LINE
8
BLACK
6
CONTINUOUS
10
1.46401
20
-7.30867
11
1.46867
21
-7.30401
0
LINE
8
BLACK
6
CONTINUOUS
10
1.46867
20
-7.30401
11
1.47415
21
-7.30034
0
LINE
8
BLACK
6
CONTINUOUS
10
1.47415
20
-7.30034
11
1.48024
21
-7.29782
0
LINE
8
BLACK
6
CONTINUOUS
10
1.48024
20
-7.29782
11
1.4867
21
-7.29654
0
LINE
8
BLACK
6
CONTINUOUS
10
1.4867
20
-7.29654
11
1.4933
21
-7.29654
0
LINE
8
BLACK
6
CONTINUOUS
10
1.4933
20
-7.29654
11
1.49976
21
-7.29782
0
LINE
8
BLACK
6
CONTINUOUS
10
1.49976
20
-7.29782
11
1.50577
21
-7.30031
0
LINE
8
BLACK
6
CONTINUOUS
10
1.50577
20
-7.30031
11
1.54016
21
-7.26592
0
LINE
8
BLACK
6
CONTINUOUS
10
1.54016
20
-7.26592
11
1.54016
21
-7.10408
0
LINE
8
BLACK
6
CONTINUOUS
10
1.54016
20
-7.10408
11
1.44577
21
-7.00969
0
LINE
8
BLACK
6
CONTINUOUS
10
1.44577
20
-7.00969
11
1.43976
21
-7.01218
0
LINE
8
BLACK
6
CONTINUOUS
10
1.43976
20
-7.01218
11
1.4333
21
-7.01346
0
LINE
8
BLACK
6
CONTINUOUS
10
1.4333
20
-7.01346
11
1.4267
21
-7.01346
0
LINE
8
BLACK
6
CONTINUOUS
10
1.4267
20
-7.01346
11
1.42024
21
-7.01218
0
LINE
8
BLACK
6
CONTINUOUS
10
1.42024
20
-7.01218
11
1.41415
21
-7.00966
0
LINE
8
BLACK
6
CONTINUOUS
10
1.41415
20
-7.00966
11
1.40867
21
-7.00599
0
LINE
8
BLACK
6
CONTINUOUS
10
1.40867
20
-7.00599
11
1.40401
21
-7.00133
0
LINE
8
BLACK
6
CONTINUOUS
10
1.40401
20
-7.00133
11
1.40034
21
-6.99585
0
LINE
8
BLACK
6
CONTINUOUS
10
1.40034
20
-6.99585
11
1.39782
21
-6.98976
0
LINE
8
BLACK
6
CONTINUOUS
10
1.39782
20
-6.98976
11
1.39654
21
-6.9833
0
LINE
8
BLACK
6
CONTINUOUS
10
1.39654
20
-6.9833
11
1.39654
21
-6.9767
0
LINE
8
BLACK
6
CONTINUOUS
10
1.39654
20
-6.9767
11
1.39782
21
-6.97024
0
LINE
8
BLACK
6
CONTINUOUS
10
1.39782
20
-6.97024
11
1.40031
21
-6.96423
0
LINE
8
BLACK
6
CONTINUOUS
10
1.40031
20
-6.96423
11
1.39338
21
-6.9573
0
LINE
8
BLACK
6
CONTINUOUS
10
1.39338
20
-6.9573
11
1.39338
21
-6.9573
0
LINE
8
BLACK
6
CONTINUOUS
10
1.39338
20
-6.9573
11
1.22092
21
-6.78484
0
LINE
8
BLACK
6
CONTINUOUS
10
1.22092
20
-6.78484
11
1.18429
21
-6.78484
0
LINE
8
BLACK
6
CONTINUOUS
10
1.18429
20
-6.78484
11
1.1841
21
-6.78508
0
LINE
8
BLACK
6
CONTINUOUS
10
1.1841
20
-6.78508
11
1.1832
21
-6.78582
0
LINE
8
BLACK
6
CONTINUOUS
10
1.1832
20
-6.78582
11
1.18218
21
-6.78636
0
LINE
8
BLACK
6
CONTINUOUS
10
1.18218
20
-6.78636
11
1.18107
21
-6.7867
0
LINE
8
BLACK
6
CONTINUOUS
10
1.18107
20
-6.7867
11
1.17992
21
-6.78681
0
LINE
8
BLACK
6
CONTINUOUS
10
1.17992
20
-6.78681
11
1.11496
21
-6.78681
0
LINE
8
BLACK
6
CONTINUOUS
10
1.11496
20
-6.78681
11
1.11381
21
-6.7867
0
LINE
8
BLACK
6
CONTINUOUS
10
1.11381
20
-6.7867
11
1.1127
21
-6.78636
0
LINE
8
BLACK
6
CONTINUOUS
10
1.1127
20
-6.78636
11
1.11168
21
-6.78582
0
LINE
8
BLACK
6
CONTINUOUS
10
1.11168
20
-6.78582
11
1.11078
21
-6.78508
0
LINE
8
BLACK
6
CONTINUOUS
10
1.11078
20
-6.78508
11
1.11005
21
-6.78419
0
LINE
8
BLACK
6
CONTINUOUS
10
1.11005
20
-6.78419
11
1.1095
21
-6.78317
0
LINE
8
BLACK
6
CONTINUOUS
10
1.1095
20
-6.78317
11
1.10917
21
-6.78206
0
LINE
8
BLACK
6
CONTINUOUS
10
1.10917
20
-6.78206
11
1.10906
21
-6.78091
0
LINE
8
BLACK
6
CONTINUOUS
10
1.10906
20
-6.78091
11
1.10906
21
-6.76909
0
LINE
8
BLACK
6
CONTINUOUS
10
1.10906
20
-6.76909
11
1.10917
21
-6.76794
0
LINE
8
BLACK
6
CONTINUOUS
10
1.10917
20
-6.76794
11
1.1095
21
-6.76683
0
LINE
8
BLACK
6
CONTINUOUS
10
1.1095
20
-6.76683
11
1.11005
21
-6.76581
0
LINE
8
BLACK
6
CONTINUOUS
10
1.11005
20
-6.76581
11
1.11078
21
-6.76492
0
LINE
8
BLACK
6
CONTINUOUS
10
1.11078
20
-6.76492
11
1.11168
21
-6.76418
0
LINE
8
BLACK
6
CONTINUOUS
10
1.11168
20
-6.76418
11
1.1127
21
-6.76364
0
LINE
8
BLACK
6
CONTINUOUS
10
1.1127
20
-6.76364
11
1.11381
21
-6.7633
0
LINE
8
BLACK
6
CONTINUOUS
10
1.11381
20
-6.7633
11
1.11496
21
-6.76319
0
LINE
8
BLACK
6
CONTINUOUS
10
1.11496
20
-6.76319
11
1.17992
21
-6.76319
0
LINE
8
BLACK
6
CONTINUOUS
10
1.17992
20
-6.76319
11
1.18107
21
-6.7633
0
LINE
8
BLACK
6
CONTINUOUS
10
1.11078
20
-6.71492
11
1.11168
21
-6.71418
0
LINE
8
BLACK
6
CONTINUOUS
10
1.11168
20
-6.71418
11
1.1127
21
-6.71364
0
LINE
8
BLACK
6
CONTINUOUS
10
1.1127
20
-6.71364
11
1.11381
21
-6.7133
0
LINE
8
BLACK
6
CONTINUOUS
10
1.11381
20
-6.7133
11
1.11496
21
-6.71319
0
LINE
8
BLACK
6
CONTINUOUS
10
1.11496
20
-6.71319
11
1.17992
21
-6.71319
0
LINE
8
BLACK
6
CONTINUOUS
10
1.17992
20
-6.71319
11
1.18107
21
-6.7133
0
LINE
8
BLACK
6
CONTINUOUS
10
1.18107
20
-6.7133
11
1.18218
21
-6.71364
0
LINE
8
BLACK
6
CONTINUOUS
10
1.18218
20
-6.71364
11
1.1832
21
-6.71418
0
LINE
8
BLACK
6
CONTINUOUS
10
1.1832
20
-6.71418
11
1.1841
21
-6.71492
0
LINE
8
BLACK
6
CONTINUOUS
10
1.1841
20
-6.71492
11
1.18483
21
-6.71581
0
LINE
8
BLACK
6
CONTINUOUS
10
1.18483
20
-6.71581
11
1.18538
21
-6.71683
0
LINE
8
BLACK
6
CONTINUOUS
10
1.18538
20
-6.71683
11
1.18571
21
-6.71794
0
LINE
8
BLACK
6
CONTINUOUS
10
1.18571
20
-6.71794
11
1.18583
21
-6.71909
0
LINE
8
BLACK
6
CONTINUOUS
10
1.18583
20
-6.71909
11
1.18583
21
-6.73091
0
LINE
8
BLACK
6
CONTINUOUS
10
1.18583
20
-6.73091
11
1.18571
21
-6.73206
0
LINE
8
BLACK
6
CONTINUOUS
10
1.18571
20
-6.73206
11
1.18538
21
-6.73317
0
LINE
8
BLACK
6
CONTINUOUS
10
1.18538
20
-6.73317
11
1.18483
21
-6.73419
0
LINE
8
BLACK
6
CONTINUOUS
10
1.18483
20
-6.73419
11
1.1841
21
-6.73508
0
LINE
8
BLACK
6
CONTINUOUS
10
1.1841
20
-6.73508
11
1.1832
21
-6.73582
0
LINE
8
BLACK
6
CONTINUOUS
10
1.1832
20
-6.73582
11
1.18218
21
-6.73636
0
LINE
8
BLACK
6
CONTINUOUS
10
1.18218
20
-6.73636
11
1.18107
21
-6.7367
0
LINE
8
BLACK
6
CONTINUOUS
10
1.18107
20
-6.7367
11
1.17992
21
-6.73681
0
LINE
8
BLACK
6
CONTINUOUS
10
1.17992
20
-6.73681
11
1.11496
21
-6.73681
0
LINE
8
BLACK
6
CONTINUOUS
10
1.11496
20
-6.73681
11
1.11381
21
-6.7367
0
LINE
8
BLACK
6
CONTINUOUS
10
1.11381
20
-6.7367
11
1.1127
21
-6.73636
0
LINE
8
BLACK
6
CONTINUOUS
10
1.1127
20
-6.73636
11
1.11168
21
-6.73582
0
LINE
8
BLACK
6
CONTINUOUS
10
1.11168
20
-6.73582
11
1.11078
21
-6.73508
0
LINE
8
BLACK
6
CONTINUOUS
10
1.11078
20
-6.73508
11
1.11059
21
-6.73484
0
LINE
8
BLACK
6
CONTINUOUS
10
1.11059
20
-6.73484
11
1.05728
21
-6.73484
0
LINE
8
BLACK
6
CONTINUOUS
10
1.05728
20
-6.73484
11
1.05728
21
-7.16415
0
LINE
8
BLACK
6
CONTINUOUS
10
1.05728
20
-7.16415
11
1.17917
21
-7.28604
0
LINE
8
BLACK
6
CONTINUOUS
10
1.17917
20
-7.28604
11
1.18056
21
-7.28511
0
LINE
8
BLACK
6
CONTINUOUS
10
1.18056
20
-7.28511
11
1.18773
21
-7.28214
0
LINE
8
BLACK
6
CONTINUOUS
10
1.18773
20
-7.28214
11
1.19534
21
-7.28063
0
LINE
8
BLACK
6
CONTINUOUS
10
1.19534
20
-7.28063
11
1.20309
21
-7.28063
0
LINE
8
BLACK
6
CONTINUOUS
10
1.20309
20
-7.28063
11
1.2107
21
-7.28214
0
LINE
8
BLACK
6
CONTINUOUS
10
1.2107
20
-7.28214
11
1.21786
21
-7.28511
0
LINE
8
BLACK
6
CONTINUOUS
10
1.21786
20
-7.28511
11
1.21925
21
-7.28604
0
LINE
8
BLACK
6
CONTINUOUS
10
1.21925
20
-7.28604
11
1.28191
21
-7.22338
0
LINE
8
BLACK
6
CONTINUOUS
10
1.28191
20
-7.22338
11
1.28222
21
-7.22301
0
LINE
8
BLACK
6
CONTINUOUS
10
1.28222
20
-7.22301
11
1.28372
21
-7.22178
0
LINE
8
BLACK
6
CONTINUOUS
10
1.28372
20
-7.22178
11
1.28543
21
-7.22086
0
LINE
8
BLACK
6
CONTINUOUS
10
1.28543
20
-7.22086
11
1.28728
21
-7.2203
0
LINE
8
BLACK
6
CONTINUOUS
10
1.28728
20
-7.2203
11
1.28921
21
-7.22011
0
LINE
8
BLACK
6
CONTINUOUS
10
1.28921
20
-7.22011
11
1.2897
21
-7.22016
0
LINE
8
BLACK
6
CONTINUOUS
10
1.2897
20
-7.22016
11
1.36047
21
-7.22016
0
LINE
8
BLACK
6
CONTINUOUS
10
1.36047
20
-7.22016
11
1.36047
21
-7.20047
0
LINE
8
BLACK
6
CONTINUOUS
10
1.36047
20
-7.20047
11
1.41953
21
-7.20047
0
LINE
8
BLACK
6
CONTINUOUS
10
1.41953
20
-7.20047
11
1.41953
21
-7.25953
0
LINE
8
BLACK
6
CONTINUOUS
10
1.41953
20
-7.25953
11
1.36047
21
-7.25953
0
LINE
8
BLACK
6
CONTINUOUS
10
1.36047
20
-7.25953
11
1.36047
21
-7.23984
0
LINE
8
BLACK
6
CONTINUOUS
10
1.36047
20
-7.23984
11
1.29329
21
-7.23984
0
LINE
8
BLACK
6
CONTINUOUS
10
1.29329
20
-7.23984
11
1.23317
21
-7.29996
0
LINE
8
BLACK
6
CONTINUOUS
10
1.23317
20
-7.29996
11
1.2341
21
-7.30135
0
LINE
8
BLACK
6
CONTINUOUS
10
1.2341
20
-7.30135
11
1.23707
21
-7.30852
0
LINE
8
BLACK
6
CONTINUOUS
10
1.23707
20
-7.30852
11
1.23858
21
-7.31612
0
LINE
8
BLACK
6
CONTINUOUS
10
1.23858
20
-7.31612
11
1.23858
21
-7.32388
0
LINE
8
BLACK
6
CONTINUOUS
10
1.23858
20
-7.32388
11
1.23707
21
-7.33148
0
LINE
8
BLACK
6
CONTINUOUS
10
1.23707
20
-7.33148
11
1.2341
21
-7.33865
0
LINE
8
BLACK
6
CONTINUOUS
10
1.2341
20
-7.33865
11
1.22979
21
-7.3451
0
LINE
8
BLACK
6
CONTINUOUS
10
1.22979
20
-7.3451
11
1.22431
21
-7.35058
0
LINE
8
BLACK
6
CONTINUOUS
10
1.22431
20
-7.35058
11
1.21786
21
-7.35489
0
LINE
8
BLACK
6
CONTINUOUS
10
1.21786
20
-7.35489
11
1.2107
21
-7.35786
0
LINE
8
BLACK
6
CONTINUOUS
10
1.2107
20
-7.35786
11
1.20309
21
-7.35937
0
LINE
8
BLACK
6
CONTINUOUS
10
1.20309
20
-7.35937
11
1.19534
21
-7.35937
0
LINE
8
BLACK
6
CONTINUOUS
10
1.19534
20
-7.35937
11
1.18773
21
-7.35786
0
LINE
8
BLACK
6
CONTINUOUS
10
1.18773
20
-7.35786
11
1.18056
21
-7.35489
0
LINE
8
BLACK
6
CONTINUOUS
10
1.18056
20
-7.35489
11
1.17412
21
-7.35058
0
LINE
8
BLACK
6
CONTINUOUS
10
1.17412
20
-7.35058
11
1.16863
21
-7.3451
0
LINE
8
BLACK
6
CONTINUOUS
10
1.16863
20
-7.3451
11
1.16432
21
-7.33865
0
LINE
8
BLACK
6
CONTINUOUS
10
1.16432
20
-7.33865
11
1.16136
21
-7.33148
0
LINE
8
BLACK
6
CONTINUOUS
10
1.16136
20
-7.33148
11
1.15984
21
-7.32388
0
LINE
8
BLACK
6
CONTINUOUS
10
1.15984
20
-7.32388
11
1.15984
21
-7.31612
0
LINE
8
BLACK
6
CONTINUOUS
10
1.15984
20
-7.31612
11
1.16136
21
-7.30852
0
LINE
8
BLACK
6
CONTINUOUS
10
1.16136
20
-7.30852
11
1.16432
21
-7.30135
0
LINE
8
BLACK
6
CONTINUOUS
10
1.16432
20
-7.30135
11
1.16525
21
-7.29996
0
LINE
8
BLACK
6
CONTINUOUS
10
1.16525
20
-7.29996
11
1.04082
21
-7.17553
0
LINE
8
BLACK
6
CONTINUOUS
10
1.04082
20
-7.17553
11
1.04045
21
-7.17522
0
LINE
8
BLACK
6
CONTINUOUS
10
1.04045
20
-7.17522
11
1.03922
21
-7.17372
0
LINE
8
BLACK
6
CONTINUOUS
10
1.03922
20
-7.17372
11
1.0383
21
-7.17201
0
LINE
8
BLACK
6
CONTINUOUS
10
1.0383
20
-7.17201
11
1.03823
21
-7.17178
0
LINE
8
BLACK
6
CONTINUOUS
10
1.03823
20
-7.17178
11
1.03774
21
-7.17016
0
LINE
8
BLACK
6
CONTINUOUS
10
1.03774
20
-7.17016
11
1.03755
21
-7.16823
0
LINE
8
BLACK
6
CONTINUOUS
10
1.03755
20
-7.16823
11
1.0376
21
-7.16774
0
LINE
8
BLACK
6
CONTINUOUS
10
1.0376
20
-7.16774
11
1.0376
21
-6.60304
0
LINE
8
BLACK
6
CONTINUOUS
10
1.0376
20
-6.60304
11
1.03755
21
-6.60256
0
LINE
8
BLACK
6
CONTINUOUS
10
1.03755
20
-6.60256
11
1.03765
21
-6.60157
0
LINE
8
BLACK
6
CONTINUOUS
10
1.03765
20
-6.60157
11
0.970923
21
-6.53484
0
LINE
8
BLACK
6
CONTINUOUS
10
0.970923
20
-6.53484
11
0.759843
21
-6.53484
0
LINE
8
BLACK
6
CONTINUOUS
10
0.759843
20
-6.53484
11
0.759843
21
-6.56654
0
LINE
8
BLACK
6
CONTINUOUS
10
0.759843
20
-6.56654
11
0.783465
21
-6.56654
0
LINE
8
BLACK
6
CONTINUOUS
10
0.783465
20
-6.56654
11
0.783465
21
-6.63346
0
LINE
8
BLACK
6
CONTINUOUS
10
0.783465
20
-6.63346
11
0.716535
21
-6.63346
0
LINE
8
BLACK
6
CONTINUOUS
10
0.716535
20
-6.63346
11
0.716535
21
-6.56654
0
LINE
8
BLACK
6
CONTINUOUS
10
0.716535
20
-6.56654
11
0.740157
21
-6.56654
0
LINE
8
BLACK
6
CONTINUOUS
10
0.740157
20
-6.56654
11
0.740158
21
-6.53484
0
LINE
8
BLACK
6
CONTINUOUS
10
0.740158
20
-6.53484
11
0.719077
21
-6.53484
0
LINE
8
BLACK
6
CONTINUOUS
10
0.719077
20
-6.53484
11
0.679843
21
-6.57408
0
LINE
8
BLACK
6
CONTINUOUS
10
0.679843
20
-6.57408
11
0.679843
21
-7.04592
0
LINE
8
BLACK
6
CONTINUOUS
10
0.679843
20
-7.04592
11
0.705736
21
-7.07182
0
LINE
8
BLACK
6
CONTINUOUS
10
0.705736
20
-7.07182
11
0.710813
21
-7.06971
0
LINE
8
BLACK
6
CONTINUOUS
10
0.710813
20
-7.06971
11
0.716898
21
-7.0685
0
LINE
8
BLACK
6
CONTINUOUS
10
0.716898
20
-7.0685
11
0.723102
21
-7.0685
0
LINE
8
BLACK
6
CONTINUOUS
10
0.723102
20
-7.0685
11
0.729187
21
-7.06971
0
LINE
8
BLACK
6
CONTINUOUS
10
0.729187
20
-7.06971
11
0.734919
21
-7.07209
0
LINE
8
BLACK
6
CONTINUOUS
10
0.734919
20
-7.07209
11
0.740078
21
-7.07554
0
LINE
8
BLACK
6
CONTINUOUS
10
0.740078
20
-7.07554
11
0.744465
21
-7.07992
0
LINE
8
BLACK
6
CONTINUOUS
10
0.744465
20
-7.07992
11
0.747911
21
-7.08508
0
LINE
8
BLACK
6
CONTINUOUS
10
0.747911
20
-7.08508
11
0.750286
21
-7.09081
0
LINE
8
BLACK
6
CONTINUOUS
10
0.750286
20
-7.09081
11
0.751496
21
-7.0969
0
LINE
8
BLACK
6
CONTINUOUS
10
0.751496
20
-7.0969
11
0.751496
21
-7.1031
0
LINE
8
BLACK
6
CONTINUOUS
10
0.751496
20
-7.1031
11
0.750286
21
-7.10919
0
LINE
8
BLACK
6
CONTINUOUS
10
0.750286
20
-7.10919
11
0.747911
21
-7.11492
0
LINE
8
BLACK
6
CONTINUOUS
10
0.747911
20
-7.11492
11
0.744465
21
-7.12008
0
LINE
8
BLACK
6
CONTINUOUS
10
0.744465
20
-7.12008
11
0.740078
21
-7.12446
0
LINE
8
BLACK
6
CONTINUOUS
10
0.740078
20
-7.12446
11
0.734919
21
-7.12791
0
LINE
8
BLACK
6
CONTINUOUS
10
0.734919
20
-7.12791
11
0.729187
21
-7.13029
0
LINE
8
BLACK
6
CONTINUOUS
10
0.729187
20
-7.13029
11
0.723102
21
-7.1315
0
LINE
8
BLACK
6
CONTINUOUS
10
0.723102
20
-7.1315
11
0.716898
21
-7.1315
0
LINE
8
BLACK
6
CONTINUOUS
10
0.716898
20
-7.1315
11
0.710813
21
-7.13029
0
LINE
8
BLACK
6
CONTINUOUS
10
0.710813
20
-7.13029
11
0.705081
21
-7.12791
0
LINE
8
BLACK
6
CONTINUOUS
10
0.705081
20
-7.12791
11
0.699922
21
-7.12446
0
LINE
8
BLACK
6
CONTINUOUS
10
0.699922
20
-7.12446
11
0.695535
21
-7.12008
0
LINE
8
BLACK
6
CONTINUOUS
10
0.695535
20
-7.12008
11
0.692089
21
-7.11492
0
LINE
8
BLACK
6
CONTINUOUS
10
0.692089
20
-7.11492
11
0.689714
21
-7.10919
0
LINE
8
BLACK
6
CONTINUOUS
10
0.689714
20
-7.10919
11
0.688504
21
-7.1031
0
LINE
8
BLACK
6
CONTINUOUS
10
0.688504
20
-7.1031
11
0.688504
21
-7.0969
0
LINE
8
BLACK
6
CONTINUOUS
10
0.688504
20
-7.0969
11
0.689714
21
-7.09081
0
LINE
8
BLACK
6
CONTINUOUS
10
0.689714
20
-7.09081
11
0.691817
21
-7.08574
0
LINE
8
BLACK
6
CONTINUOUS
10
0.691817
20
-7.08574
11
0.663382
21
-7.0573
0
LINE
8
BLACK
6
CONTINUOUS
10
0.663382
20
-7.0573
11
0.663007
21
-7.05699
0
LINE
8
BLACK
6
CONTINUOUS
10
0.663007
20
-7.05699
11
0.661777
21
-7.05549
0
LINE
8
BLACK
6
CONTINUOUS
10
0.661777
20
-7.05549
11
0.660863
21
-7.05378
0
LINE
8
BLACK
6
CONTINUOUS
10
0.660863
20
-7.05378
11
0.660863
21
-7.05378
0
LINE
8
BLACK
6
CONTINUOUS
10
0.660863
20
-7.05378
11
0.6603
21
-7.05193
0
LINE
8
BLACK
6
CONTINUOUS
10
0.6603
20
-7.05193
11
0.66011
21
-7.05
0
LINE
8
BLACK
6
CONTINUOUS
10
0.66011
20
-7.05
11
0.660158
21
-7.04952
0
LINE
8
BLACK
6
CONTINUOUS
10
0.660158
20
-7.04952
11
0.660157
21
-6.57048
0
LINE
8
BLACK
6
CONTINUOUS
10
0.660157
20
-6.57048
11
0.66011
21
-6.57
0
LINE
8
BLACK
6
CONTINUOUS
10
0.66011
20
-6.57
11
0.6603
21
-6.56807
0
LINE
8
BLACK
6
CONTINUOUS
10
0.6603
20
-6.56807
11
0.660863
21
-6.56622
0
LINE
8
BLACK
6
CONTINUOUS
10
0.660863
20
-6.56622
11
0.660863
21
-6.56622
0
LINE
8
BLACK
6
CONTINUOUS
10
0.660863
20
-6.56622
11
0.661777
21
-6.56451
0
LINE
8
BLACK
6
CONTINUOUS
10
0.661777
20
-6.56451
11
0.663007
21
-6.56301
0
LINE
8
BLACK
6
CONTINUOUS
10
0.663007
20
-6.56301
11
0.663382
21
-6.5627
0
LINE
8
BLACK
6
CONTINUOUS
10
0.663382
20
-6.5627
11
0.707699
21
-6.51838
0
LINE
8
BLACK
6
CONTINUOUS
10
0.707699
20
-6.51838
11
0.708007
21
-6.51801
0
LINE
8
BLACK
6
CONTINUOUS
10
0.708007
20
-6.51801
11
0.709505
21
-6.51678
0
LINE
8
BLACK
6
CONTINUOUS
10
0.709505
20
-6.51678
11
0.711215
21
-6.51586
0
LINE
8
BLACK
6
CONTINUOUS
10
0.711215
20
-6.51586
11
0.713071
21
-6.5153
0
LINE
8
BLACK
6
CONTINUOUS
10
0.713071
20
-6.5153
11
0.715
21
-6.51511
0
LINE
8
BLACK
6
CONTINUOUS
10
0.715
20
-6.51511
11
0.715483
21
-6.51516
0
LINE
8
BLACK
6
CONTINUOUS
10
0.715483
20
-6.51516
11
0.754517
21
-6.51516
0
LINE
8
BLACK
6
CONTINUOUS
10
0.754517
20
-6.51516
11
0.755
21
-6.51511
0
LINE
8
BLACK
6
CONTINUOUS
10
0.755
20
-6.51511
11
0.755483
21
-6.51516
0
LINE
8
BLACK
6
CONTINUOUS
10
0.755483
20
-6.51516
11
0.974517
21
-6.51516
0
LINE
8
BLACK
6
CONTINUOUS
10
0.974517
20
-6.51516
11
0.975
21
-6.51511
0
LINE
8
BLACK
6
CONTINUOUS
10
0.975
20
-6.51511
11
0.975483
21
-6.51516
0
LINE
8
BLACK
6
CONTINUOUS
10
0.975483
20
-6.51516
11
0.976929
21
-6.5153
0
LINE
8
BLACK
6
CONTINUOUS
10
0.976929
20
-6.5153
11
0.978785
21
-6.51586
0
LINE
8
BLACK
6
CONTINUOUS
10
0.978785
20
-6.51586
11
0.980495
21
-6.51678
0
LINE
8
BLACK
6
CONTINUOUS
10
0.980495
20
-6.51678
11
0.981993
21
-6.51801
0
LINE
8
BLACK
6
CONTINUOUS
10
0.981993
20
-6.51801
11
0.982302
21
-6.51838
0
LINE
8
BLACK
6
CONTINUOUS
10
0.982302
20
-6.51838
11
1.05408
21
-6.59016
0
LINE
8
BLACK
6
CONTINUOUS
10
1.05408
20
-6.59016
11
1.16499
21
-6.59016
0
LINE
8
BLACK
6
CONTINUOUS
10
1.16499
20
-6.59016
11
1.16709
21
-6.58508
0
LINE
8
BLACK
6
CONTINUOUS
10
1.16709
20
-6.58508
11
1.17054
21
-6.57992
0
LINE
8
BLACK
6
CONTINUOUS
10
1.17054
20
-6.57992
11
1.17492
21
-6.57554
0
LINE
8
BLACK
6
CONTINUOUS
10
1.17492
20
-6.57554
11
1.18008
21
-6.57209
0
LINE
8
BLACK
6
CONTINUOUS
10
1.18008
20
-6.57209
11
1.18581
21
-6.56971
0
LINE
8
BLACK
6
CONTINUOUS
10
1.18581
20
-6.56971
11
1.1919
21
-6.5685
0
LINE
8
BLACK
6
CONTINUOUS
10
1.1919
20
-6.5685
11
1.1981
21
-6.5685
0
LINE
8
BLACK
6
CONTINUOUS
10
1.1981
20
-6.5685
11
1.20419
21
-6.56971
0
LINE
8
BLACK
6
CONTINUOUS
10
1.20419
20
-6.56971
11
1.20992
21
-6.57209
0
LINE
8
BLACK
6
CONTINUOUS
10
1.20992
20
-6.57209
11
1.21508
21
-6.57554
0
LINE
8
BLACK
6
CONTINUOUS
10
1.21508
20
-6.57554
11
1.21946
21
-6.57992
0
LINE
8
BLACK
6
CONTINUOUS
10
1.21946
20
-6.57992
11
1.22291
21
-6.58508
0
LINE
8
BLACK
6
CONTINUOUS
10
1.22291
20
-6.58508
11
1.22501
21
-6.59016
0
LINE
8
BLACK
6
CONTINUOUS
10
1.22501
20
-6.59016
11
1.34592
21
-6.59016
0
LINE
8
BLACK
6
CONTINUOUS
10
1.34592
20
-6.59016
11
1.36654
21
-6.56955
0
LINE
8
BLACK
6
CONTINUOUS
10
1.36654
20
-6.56955
11
1.36654
21
-6.51654
0
LINE
8
BLACK
6
CONTINUOUS
10
1.36654
20
-6.51654
11
1.43346
21
-6.51654
0
LINE
8
BLACK
6
CONTINUOUS
10
1.43346
20
-6.51654
11
1.43346
21
-6.56955
0
LINE
8
BLACK
6
CONTINUOUS
10
1.43346
20
-6.56955
11
1.43662
21
-6.5727
0
LINE
8
BLACK
6
CONTINUOUS
10
1.43662
20
-6.5727
11
1.43699
21
-6.57301
0
LINE
8
BLACK
6
CONTINUOUS
10
1.43699
20
-6.57301
11
1.43822
21
-6.57451
0
LINE
8
BLACK
6
CONTINUOUS
10
1.43822
20
-6.57451
11
1.43902
21
-6.57599
0
LINE
8
BLACK
6
CONTINUOUS
10
1.43902
20
-6.57599
11
1.43914
21
-6.57622
0
LINE
8
BLACK
6
CONTINUOUS
10
1.43914
20
-6.57622
11
1.4397
21
-6.57807
0
LINE
8
BLACK
6
CONTINUOUS
10
1.4397
20
-6.57807
11
1.43989
21
-6.58
0
LINE
8
BLACK
6
CONTINUOUS
10
1.43989
20
-6.58
11
1.43984
21
-6.58048
0
LINE
8
BLACK
6
CONTINUOUS
10
1.43984
20
-6.58048
11
1.43984
21
-6.74654
0
LINE
8
BLACK
6
CONTINUOUS
10
1.43984
20
-6.74654
11
1.46346
21
-6.74654
0
LINE
8
BLACK
6
CONTINUOUS
10
1.46346
20
-6.74654
11
1.46346
21
-6.81346
0
LINE
8
BLACK
6
CONTINUOUS
10
1.46346
20
-6.81346
11
1.39654
21
-6.81346
0
LINE
8
BLACK
6
CONTINUOUS
10
1.39654
20
-6.81346
11
1.39654
21
-6.74654
0
LINE
8
BLACK
6
CONTINUOUS
10
1.39654
20
-6.74654
11
1.42016
21
-6.74654
0
LINE
8
BLACK
6
CONTINUOUS
10
1.42016
20
-6.74654
11
1.42016
21
-6.58408
0
LINE
8
BLACK
6
CONTINUOUS
10
1.42016
20
-6.58408
11
1.41955
21
-6.58346
0
LINE
8
BLACK
6
CONTINUOUS
10
1.41955
20
-6.58346
11
1.38045
21
-6.58346
0
LINE
8
BLACK
6
CONTINUOUS
10
1.38045
20
-6.58346
11
1.3573
21
-6.60662
0
LINE
8
BLACK
6
CONTINUOUS
10
1.3573
20
-6.60662
11
1.35699
21
-6.60699
0
LINE
8
BLACK
6
CONTINUOUS
10
1.35699
20
-6.60699
11
1.35549
21
-6.60822
0
LINE
8
BLACK
6
CONTINUOUS
10
1.35549
20
-6.60822
11
1.35378
21
-6.60914
0
LINE
8
BLACK
6
CONTINUOUS
10
1.35378
20
-6.60914
11
1.35241
21
-6.60955
0
LINE
8
BLACK
6
CONTINUOUS
10
1.35241
20
-6.60955
11
1.35193
21
-6.6097
0
LINE
8
BLACK
6
CONTINUOUS
10
1.35193
20
-6.6097
11
1.35
21
-6.60989
0
LINE
8
BLACK
6
CONTINUOUS
10
1.35
20
-6.60989
11
1.34952
21
-6.60984
0
LINE
8
BLACK
6
CONTINUOUS
10
1.34952
20
-6.60984
11
1.22501
21
-6.60984
0
LINE
8
BLACK
6
CONTINUOUS
10
1.22501
20
-6.60984
11
1.22291
21
-6.61492
0
LINE
8
BLACK
6
CONTINUOUS
10
1.22291
20
-6.61492
11
1.21946
21
-6.62008
0
LINE
8
BLACK
6
CONTINUOUS
10
1.21946
20
-6.62008
11
1.21508
21
-6.62446
0
LINE
8
BLACK
6
CONTINUOUS
10
1.21508
20
-6.62446
11
1.20992
21
-6.62791
0
LINE
8
BLACK
6
CONTINUOUS
10
1.20992
20
-6.62791
11
1.20419
21
-6.63029
0
LINE
8
BLACK
6
CONTINUOUS
10
1.20419
20
-6.63029
11
1.1981
21
-6.6315
0
LINE
8
BLACK
6
CONTINUOUS
10
1.1981
20
-6.6315
11
1.1919
21
-6.6315
0
LINE
8
BLACK
6
CONTINUOUS
10
1.1919
20
-6.6315
11
1.18581
21
-6.63029
0
LINE
8
BLACK
6
CONTINUOUS
10
1.18581
20
-6.63029
11
1.18008
21
-6.62791
0
LINE
8
BLACK
6
CONTINUOUS
10
1.18008
20
-6.62791
11
1.17492
21
-6.62446
0
LINE
8
BLACK
6
CONTINUOUS
10
1.17492
20
-6.62446
11
1.17054
21
-6.62008
0
LINE
8
BLACK
6
CONTINUOUS
10
1.17054
20
-6.62008
11
1.16709
21
-6.61492
0
LINE
8
BLACK
6
CONTINUOUS
10
1.16709
20
-6.61492
11
1.16499
21
-6.60984
0
LINE
8
BLACK
6
CONTINUOUS
10
1.16499
20
-6.60984
11
1.05728
21
-6.60984
0
LINE
8
BLACK
6
CONTINUOUS
10
1.05728
20
-6.60984
11
1.05728
21
-6.71516
0
LINE
8
BLACK
6
CONTINUOUS
10
1.05728
20
-6.71516
11
1.11059
21
-6.71516
0
LINE
8
BLACK
6
CONTINUOUS
10
1.11059
20
-6.71516
11
1.11078
21
-6.71492
0
LINE
8
BLACK
6
CONTINUOUS
10
0.909187
20
-6.96971
11
0.914919
21
-6.97209
0
LINE
8
BLACK
6
CONTINUOUS
10
0.914919
20
-6.97209
11
0.920078
21
-6.97554
0
LINE
8
BLACK
6
CONTINUOUS
10
0.920078
20
-6.97554
11
0.924465
21
-6.97992
0
LINE
8
BLACK
6
CONTINUOUS
10
0.924465
20
-6.97992
11
0.927911
21
-6.98508
0
LINE
8
BLACK
6
CONTINUOUS
10
0.927911
20
-6.98508
11
0.930286
21
-6.99081
0
LINE
8
BLACK
6
CONTINUOUS
10
0.930286
20
-6.99081
11
0.931496
21
-6.9969
0
LINE
8
BLACK
6
CONTINUOUS
10
0.931496
20
-6.9969
11
0.931496
21
-7.0031
0
LINE
8
BLACK
6
CONTINUOUS
10
0.931496
20
-7.0031
11
0.930286
21
-7.00919
0
LINE
8
BLACK
6
CONTINUOUS
10
0.930286
20
-7.00919
11
0.927911
21
-7.01492
0
LINE
8
BLACK
6
CONTINUOUS
10
0.927911
20
-7.01492
11
0.924465
21
-7.02008
0
LINE
8
BLACK
6
CONTINUOUS
10
0.924465
20
-7.02008
11
0.920078
21
-7.02446
0
LINE
8
BLACK
6
CONTINUOUS
10
0.920078
20
-7.02446
11
0.914919
21
-7.02791
0
LINE
8
BLACK
6
CONTINUOUS
10
0.914919
20
-7.02791
11
0.909843
21
-7.03001
0
LINE
8
BLACK
6
CONTINUOUS
10
0.909843
20
-7.03001
11
0.909843
21
-7.28063
0
LINE
8
BLACK
6
CONTINUOUS
10
0.909843
20
-7.28063
11
0.93937
21
-7.28063
0
LINE
8
BLACK
6
CONTINUOUS
10
0.93937
20
-7.28063
11
0.93937
21
-7.35937
0
LINE
8
BLACK
6
CONTINUOUS
10
0.93937
20
-7.35937
11
0.86063
21
-7.35937
0
LINE
8
BLACK
6
CONTINUOUS
10
0.86063
20
-7.35937
11
0.86063
21
-7.28063
0
LINE
8
BLACK
6
CONTINUOUS
10
0.86063
20
-7.28063
11
0.890158
21
-7.28063
0
LINE
8
BLACK
6
CONTINUOUS
10
0.890158
20
-7.28063
11
0.890157
21
-7.03001
0
LINE
8
BLACK
6
CONTINUOUS
10
0.890157
20
-7.03001
11
0.885081
21
-7.02791
0
LINE
8
BLACK
6
CONTINUOUS
10
0.885081
20
-7.02791
11
0.879922
21
-7.02446
0
LINE
8
BLACK
6
CONTINUOUS
10
0.879922
20
-7.02446
11
0.875535
21
-7.02008
0
LINE
8
BLACK
6
CONTINUOUS
10
0.875535
20
-7.02008
11
0.872089
21
-7.01492
0
LINE
8
BLACK
6
CONTINUOUS
10
0.872089
20
-7.01492
11
0.869714
21
-7.00919
0
LINE
8
BLACK
6
CONTINUOUS
10
0.869714
20
-7.00919
11
0.868504
21
-7.0031
0
LINE
8
BLACK
6
CONTINUOUS
10
0.868504
20
-7.0031
11
0.868504
21
-6.9969
0
LINE
8
BLACK
6
CONTINUOUS
10
0.868504
20
-6.9969
11
0.869714
21
-6.99081
0
LINE
8
BLACK
6
CONTINUOUS
10
0.869714
20
-6.99081
11
0.872089
21
-6.98508
0
LINE
8
BLACK
6
CONTINUOUS
10
0.872089
20
-6.98508
11
0.875535
21
-6.97992
0
LINE
8
BLACK
6
CONTINUOUS
10
0.875535
20
-6.97992
11
0.879922
21
-6.97554
0
LINE
8
BLACK
6
CONTINUOUS
10
0.879922
20
-6.97554
11
0.885081
21
-6.97209
0
LINE
8
BLACK
6
CONTINUOUS
10
0.885081
20
-6.97209
11
0.890813
21
-6.96971
0
LINE
8
BLACK
6
CONTINUOUS
10
0.890813
20
-6.96971
11
0.896898
21
-6.9685
0
LINE
8
BLACK
6
CONTINUOUS
10
0.896898
20
-6.9685
11
0.903102
21
-6.9685
0
LINE
8
BLACK
6
CONTINUOUS
10
0.903102
20
-6.9685
11
0.909187
21
-6.96971
0
LINE
8
BLACK
6
CONTINUOUS
10
1.18107
20
-6.8133
11
1.18218
21
-6.81364
0
LINE
8
BLACK
6
CONTINUOUS
10
1.18218
20
-6.81364
11
1.1832
21
-6.81418
0
LINE
8
BLACK
6
CONTINUOUS
10
1.1832
20
-6.81418
11
1.1841
21
-6.81492
0
LINE
8
BLACK
6
CONTINUOUS
10
1.1841
20
-6.81492
11
1.18429
21
-6.81516
0
LINE
8
BLACK
6
CONTINUOUS
10
1.18429
20
-6.81516
11
1.20452
21
-6.81516
0
LINE
8
BLACK
6
CONTINUOUS
10
1.20452
20
-6.81516
11
1.205
21
-6.81511
0
LINE
8
BLACK
6
CONTINUOUS
10
1.205
20
-6.81511
11
1.20548
21
-6.81516
0
LINE
8
BLACK
6
CONTINUOUS
10
1.20548
20
-6.81516
11
1.20693
21
-6.8153
0
LINE
8
BLACK
6
CONTINUOUS
10
1.20693
20
-6.8153
11
1.20878
21
-6.81586
0
LINE
8
BLACK
6
CONTINUOUS
10
1.20878
20
-6.81586
11
1.21049
21
-6.81678
0
LINE
8
BLACK
6
CONTINUOUS
10
1.21049
20
-6.81678
11
1.21199
21
-6.81801
0
LINE
8
BLACK
6
CONTINUOUS
10
1.21199
20
-6.81801
11
1.2123
21
-6.81838
0
LINE
8
BLACK
6
CONTINUOUS
10
1.2123
20
-6.81838
11
1.22662
21
-6.8327
0
LINE
8
BLACK
6
CONTINUOUS
10
1.22662
20
-6.8327
11
1.22699
21
-6.83301
0
LINE
8
BLACK
6
CONTINUOUS
10
1.22699
20
-6.83301
11
1.22822
21
-6.83451
0
LINE
8
BLACK
6
CONTINUOUS
10
1.22822
20
-6.83451
11
1.22914
21
-6.83622
0
LINE
8
BLACK
6
CONTINUOUS
10
1.22914
20
-6.83622
11
1.2297
21
-6.83807
0
LINE
8
BLACK
6
CONTINUOUS
10
1.2297
20
-6.83807
11
1.22984
21
-6.83952
0
LINE
8
BLACK
6
CONTINUOUS
10
1.22984
20
-6.83952
11
1.22989
21
-6.84
0
LINE
8
BLACK
6
CONTINUOUS
10
1.22989
20
-6.84
11
1.22984
21
-6.84048
0
LINE
8
BLACK
6
CONTINUOUS
10
1.22984
20
-6.84048
11
1.22984
21
-6.97952
0
LINE
8
BLACK
6
CONTINUOUS
10
1.22984
20
-6.97952
11
1.22989
21
-6.98
0
LINE
8
BLACK
6
CONTINUOUS
10
1.22989
20
-6.98
11
1.22984
21
-6.98048
0
LINE
8
BLACK
6
CONTINUOUS
10
1.22984
20
-6.98048
11
1.22984
21
-6.98048
0
LINE
8
BLACK
6
CONTINUOUS
10
1.22984
20
-6.98048
11
1.2297
21
-6.98193
0
LINE
8
BLACK
6
CONTINUOUS
10
1.2297
20
-6.98193
11
1.22914
21
-6.98378
0
LINE
8
BLACK
6
CONTINUOUS
10
1.22914
20
-6.98378
11
1.22822
21
-6.98549
0
LINE
8
BLACK
6
CONTINUOUS
10
1.22822
20
-6.98549
11
1.22813
21
-6.98561
0
LINE
8
BLACK
6
CONTINUOUS
10
1.22813
20
-6.98561
11
1.23001
21
-6.99016
0
LINE
8
BLACK
6
CONTINUOUS
10
1.23001
20
-6.99016
11
1.30952
21
-6.99016
0
LINE
8
BLACK
6
CONTINUOUS
10
1.30952
20
-6.99016
11
1.31
21
-6.99011
0
LINE
8
BLACK
6
CONTINUOUS
10
1.31
20
-6.99011
11
1.31048
21
-6.99016
0
LINE
8
BLACK
6
CONTINUOUS
10
1.31048
20
-6.99016
11
1.31193
21
-6.9903
0
LINE
8
BLACK
6
CONTINUOUS
10
1.31193
20
-6.9903
11
1.31378
21
-6.99086
0
LINE
8
BLACK
6
CONTINUOUS
10
1.31378
20
-6.99086
11
1.31549
21
-6.99178
0
LINE
8
BLACK
6
CONTINUOUS
10
1.31549
20
-6.99178
11
1.31699
21
-6.99301
0
LINE
8
BLACK
6
CONTINUOUS
10
1.31699
20
-6.99301
11
1.3173
21
-6.99338
0
LINE
8
BLACK
6
CONTINUOUS
10
1.3173
20
-6.99338
11
1.49662
21
-7.1727
0
LINE
8
BLACK
6
CONTINUOUS
10
1.49662
20
-7.1727
11
1.49699
21
-7.17301
0
LINE
8
BLACK
6
CONTINUOUS
10
1.49699
20
-7.17301
11
1.49822
21
-7.17451
0
LINE
8
BLACK
6
CONTINUOUS
10
1.49822
20
-7.17451
11
1.49914
21
-7.17622
0
LINE
8
BLACK
6
CONTINUOUS
10
1.49914
20
-7.17622
11
1.4997
21
-7.17807
0
LINE
8
BLACK
6
CONTINUOUS
10
1.4997
20
-7.17807
11
1.49977
21
-7.17882
0
LINE
8
BLACK
6
CONTINUOUS
10
1.49977
20
-7.17882
11
1.49989
21
-7.18
0
LINE
8
BLACK
6
CONTINUOUS
10
1.49989
20
-7.18
11
1.49984
21
-7.18048
0
LINE
8
BLACK
6
CONTINUOUS
10
1.49984
20
-7.18048
11
1.49984
21
-7.19786
0
LINE
8
BLACK
6
CONTINUOUS
10
1.49984
20
-7.19786
11
1.50585
21
-7.20034
0
LINE
8
BLACK
6
CONTINUOUS
10
1.50585
20
-7.20034
11
1.51133
21
-7.20401
0
LINE
8
BLACK
6
CONTINUOUS
10
1.51133
20
-7.20401
11
1.51599
21
-7.20867
0
LINE
8
BLACK
6
CONTINUOUS
10
1.51599
20
-7.20867
11
1.51966
21
-7.21415
0
LINE
8
BLACK
6
CONTINUOUS
10
1.51966
20
-7.21415
11
1.52218
21
-7.22024
0
LINE
8
BLACK
6
CONTINUOUS
10
1.52218
20
-7.22024
11
1.52346
21
-7.2267
0
LINE
8
BLACK
6
CONTINUOUS
10
1.52346
20
-7.2267
11
1.52346
21
-7.2333
0
LINE
8
BLACK
6
CONTINUOUS
10
1.52346
20
-7.2333
11
1.52218
21
-7.23976
0
LINE
8
BLACK
6
CONTINUOUS
10
1.52218
20
-7.23976
11
1.51966
21
-7.24585
0
LINE
8
BLACK
6
CONTINUOUS
10
1.51966
20
-7.24585
11
1.51599
21
-7.25133
0
LINE
8
BLACK
6
CONTINUOUS
10
1.51599
20
-7.25133
11
1.51133
21
-7.25599
0
LINE
8
BLACK
6
CONTINUOUS
10
1.51133
20
-7.25599
11
1.50585
21
-7.25966
0
LINE
8
BLACK
6
CONTINUOUS
10
1.50585
20
-7.25966
11
1.49976
21
-7.26218
0
LINE
8
BLACK
6
CONTINUOUS
10
1.49976
20
-7.26218
11
1.4933
21
-7.26346
0
LINE
8
BLACK
6
CONTINUOUS
10
1.4933
20
-7.26346
11
1.4867
21
-7.26346
0
LINE
8
BLACK
6
CONTINUOUS
10
1.4867
20
-7.26346
11
1.48024
21
-7.26218
0
LINE
8
BLACK
6
CONTINUOUS
10
1.48024
20
-7.26218
11
1.47415
21
-7.25966
0
LINE
8
BLACK
6
CONTINUOUS
10
1.47415
20
-7.25966
11
1.46867
21
-7.25599
0
LINE
8
BLACK
6
CONTINUOUS
10
1.46867
20
-7.25599
11
1.46401
21
-7.25133
0
LINE
8
BLACK
6
CONTINUOUS
10
1.46401
20
-7.25133
11
1.46034
21
-7.24585
0
LINE
8
BLACK
6
CONTINUOUS
10
1.46034
20
-7.24585
11
1.45782
21
-7.23976
0
LINE
8
BLACK
6
CONTINUOUS
10
1.45782
20
-7.23976
11
1.45654
21
-7.2333
0
LINE
8
BLACK
6
CONTINUOUS
10
1.45654
20
-7.2333
11
1.45654
21
-7.2267
0
LINE
8
BLACK
6
CONTINUOUS
10
1.45654
20
-7.2267
11
1.45782
21
-7.22024
0
LINE
8
BLACK
6
CONTINUOUS
10
1.45782
20
-7.22024
11
1.46034
21
-7.21415
0
LINE
8
BLACK
6
CONTINUOUS
10
1.46034
20
-7.21415
11
1.46401
21
-7.20867
0
LINE
8
BLACK
6
CONTINUOUS
10
1.46401
20
-7.20867
11
1.46867
21
-7.20401
0
LINE
8
BLACK
6
CONTINUOUS
10
1.46867
20
-7.20401
11
1.47415
21
-7.20034
0
LINE
8
BLACK
6
CONTINUOUS
10
1.47415
20
-7.20034
11
1.48016
21
-7.19786
0
LINE
8
BLACK
6
CONTINUOUS
10
1.48016
20
-7.19786
11
1.48016
21
-7.18408
0
LINE
8
BLACK
6
CONTINUOUS
10
1.48016
20
-7.18408
11
1.30592
21
-7.00984
0
LINE
8
BLACK
6
CONTINUOUS
10
1.30592
20
-7.00984
11
1.23001
21
-7.00984
0
LINE
8
BLACK
6
CONTINUOUS
10
1.23001
20
-7.00984
11
1.22791
21
-7.01492
0
LINE
8
BLACK
6
CONTINUOUS
10
1.22791
20
-7.01492
11
1.22446
21
-7.02008
0
LINE
8
BLACK
6
CONTINUOUS
10
1.22446
20
-7.02008
11
1.22008
21
-7.02446
0
LINE
8
BLACK
6
CONTINUOUS
10
1.22008
20
-7.02446
11
1.21492
21
-7.02791
0
LINE
8
BLACK
6
CONTINUOUS
10
1.21492
20
-7.02791
11
1.20919
21
-7.03029
0
LINE
8
BLACK
6
CONTINUOUS
10
1.20919
20
-7.03029
11
1.2031
21
-7.0315
0
LINE
8
BLACK
6
CONTINUOUS
10
1.2031
20
-7.0315
11
1.1969
21
-7.0315
0
LINE
8
BLACK
6
CONTINUOUS
10
1.1969
20
-7.0315
11
1.19081
21
-7.03029
0
LINE
8
BLACK
6
CONTINUOUS
10
1.19081
20
-7.03029
11
1.18508
21
-7.02791
0
LINE
8
BLACK
6
CONTINUOUS
10
1.18508
20
-7.02791
11
1.17992
21
-7.02446
0
LINE
8
BLACK
6
CONTINUOUS
10
1.17992
20
-7.02446
11
1.17554
21
-7.02008
0
LINE
8
BLACK
6
CONTINUOUS
10
1.17554
20
-7.02008
11
1.17209
21
-7.01492
0
LINE
8
BLACK
6
CONTINUOUS
10
1.17209
20
-7.01492
11
1.16971
21
-7.00919
0
LINE
8
BLACK
6
CONTINUOUS
10
1.16971
20
-7.00919
11
1.1685
21
-7.0031
0
LINE
8
BLACK
6
CONTINUOUS
10
1.1685
20
-7.0031
11
1.1685
21
-6.9969
0
LINE
8
BLACK
6
CONTINUOUS
10
1.1685
20
-6.9969
11
1.16971
21
-6.99081
0
LINE
8
BLACK
6
CONTINUOUS
10
1.16971
20
-6.99081
11
1.17209
21
-6.98508
0
LINE
8
BLACK
6
CONTINUOUS
10
1.17209
20
-6.98508
11
1.17554
21
-6.97992
0
LINE
8
BLACK
6
CONTINUOUS
10
1.17554
20
-6.97992
11
1.17992
21
-6.97554
0
LINE
8
BLACK
6
CONTINUOUS
10
1.17992
20
-6.97554
11
1.18508
21
-6.97209
0
LINE
8
BLACK
6
CONTINUOUS
10
1.18508
20
-6.97209
11
1.19081
21
-6.96971
0
LINE
8
BLACK
6
CONTINUOUS
10
1.19081
20
-6.96971
11
1.1969
21
-6.9685
0
LINE
8
BLACK
6
CONTINUOUS
10
1.1969
20
-6.9685
11
1.2031
21
-6.9685
0
LINE
8
BLACK
6
CONTINUOUS
10
1.2031
20
-6.9685
11
1.20919
21
-6.96971
0
LINE
8
BLACK
6
CONTINUOUS
10
1.20919
20
-6.96971
11
1.21016
21
-6.97012
0
LINE
8
BLACK
6
CONTINUOUS
10
1.21016
20
-6.97012
11
1.21016
21
-6.84408
0
LINE
8
BLACK
6
CONTINUOUS
10
1.21016
20
-6.84408
11
1.20092
21
-6.83484
0
LINE
8
BLACK
6
CONTINUOUS
10
1.20092
20
-6.83484
11
1.18429
21
-6.83484
0
LINE
8
BLACK
6
CONTINUOUS
10
1.18429
20
-6.83484
11
1.1841
21
-6.83508
0
LINE
8
BLACK
6
CONTINUOUS
10
1.1841
20
-6.83508
11
1.1832
21
-6.83582
0
LINE
8
BLACK
6
CONTINUOUS
10
1.1832
20
-6.83582
11
1.18218
21
-6.83636
0
LINE
8
BLACK
6
CONTINUOUS
10
1.18218
20
-6.83636
11
1.18107
21
-6.8367
0
LINE
8
BLACK
6
CONTINUOUS
10
1.18107
20
-6.8367
11
1.17992
21
-6.83681
0
LINE
8
BLACK
6
CONTINUOUS
10
1.17992
20
-6.83681
11
1.11496
21
-6.83681
0
LINE
8
BLACK
6
CONTINUOUS
10
1.11496
20
-6.83681
11
1.11381
21
-6.8367
0
LINE
8
BLACK
6
CONTINUOUS
10
1.11381
20
-6.8367
11
1.1127
21
-6.83636
0
LINE
8
BLACK
6
CONTINUOUS
10
1.1127
20
-6.83636
11
1.11168
21
-6.83582
0
LINE
8
BLACK
6
CONTINUOUS
10
1.11168
20
-6.83582
11
1.11078
21
-6.83508
0
LINE
8
BLACK
6
CONTINUOUS
10
1.11078
20
-6.83508
11
1.11005
21
-6.83419
0
LINE
8
BLACK
6
CONTINUOUS
10
1.11005
20
-6.83419
11
1.1095
21
-6.83317
0
LINE
8
BLACK
6
CONTINUOUS
10
1.1095
20
-6.83317
11
1.10917
21
-6.83206
0
LINE
8
BLACK
6
CONTINUOUS
10
1.10917
20
-6.83206
11
1.10906
21
-6.83091
0
LINE
8
BLACK
6
CONTINUOUS
10
1.10906
20
-6.83091
11
1.10906
21
-6.81909
0
LINE
8
BLACK
6
CONTINUOUS
10
1.10906
20
-6.81909
11
1.10917
21
-6.81794
0
LINE
8
BLACK
6
CONTINUOUS
10
1.10917
20
-6.81794
11
1.1095
21
-6.81683
0
LINE
8
BLACK
6
CONTINUOUS
10
1.1095
20
-6.81683
11
1.11005
21
-6.81581
0
LINE
8
BLACK
6
CONTINUOUS
10
1.11005
20
-6.81581
11
1.11078
21
-6.81492
0
LINE
8
BLACK
6
CONTINUOUS
10
1.11078
20
-6.81492
11
1.11168
21
-6.81418
0
LINE
8
BLACK
6
CONTINUOUS
10
1.11168
20
-6.81418
11
1.1127
21
-6.81364
0
LINE
8
BLACK
6
CONTINUOUS
10
1.1127
20
-6.81364
11
1.11381
21
-6.8133
0
LINE
8
BLACK
6
CONTINUOUS
10
1.11381
20
-6.8133
11
1.11496
21
-6.81319
0
LINE
8
BLACK
6
CONTINUOUS
10
1.11496
20
-6.81319
11
1.17992
21
-6.81319
0
LINE
8
BLACK
6
CONTINUOUS
10
1.17992
20
-6.81319
11
1.18107
21
-6.8133
0
LINE
8
BLACK
6
CONTINUOUS
10
0.759761
20
-6.76782
11
0.765851
21
-6.77034
0
LINE
8
BLACK
6
CONTINUOUS
10
0.765851
20
-6.77034
11
0.771332
21
-6.77401
0
LINE
8
BLACK
6
CONTINUOUS
10
0.771332
20
-6.77401
11
0.775994
21
-6.77867
0
LINE
8
BLACK
6
CONTINUOUS
10
0.775994
20
-6.77867
11
0.779656
21
-6.78415
0
LINE
8
BLACK
6
CONTINUOUS
10
0.779656
20
-6.78415
11
0.782179
21
-6.79024
0
LINE
8
BLACK
6
CONTINUOUS
10
0.782179
20
-6.79024
11
0.783465
21
-6.7967
0
LINE
8
BLACK
6
CONTINUOUS
10
0.783465
20
-6.7967
11
0.783465
21
-6.8033
0
LINE
8
BLACK
6
CONTINUOUS
10
0.783465
20
-6.8033
11
0.782179
21
-6.80976
0
LINE
8
BLACK
6
CONTINUOUS
10
0.782179
20
-6.80976
11
0.779943
21
-6.81516
0
LINE
8
BLACK
6
CONTINUOUS
10
0.779943
20
-6.81516
11
0.915707
21
-6.81516
0
LINE
8
BLACK
6
CONTINUOUS
10
0.915707
20
-6.81516
11
0.915903
21
-6.81492
0
LINE
8
BLACK
6
CONTINUOUS
10
0.915903
20
-6.81492
11
0.916798
21
-6.81418
0
LINE
8
BLACK
6
CONTINUOUS
10
0.916798
20
-6.81418
11
0.917819
21
-6.81364
0
LINE
8
BLACK
6
CONTINUOUS
10
0.917819
20
-6.81364
11
0.918927
21
-6.8133
0
LINE
8
BLACK
6
CONTINUOUS
10
0.918927
20
-6.8133
11
0.920079
21
-6.81319
0
LINE
8
BLACK
6
CONTINUOUS
10
0.920079
20
-6.81319
11
0.985039
21
-6.81319
0
LINE
8
BLACK
6
CONTINUOUS
10
0.985039
20
-6.81319
11
0.986191
21
-6.8133
0
LINE
8
BLACK
6
CONTINUOUS
10
0.986191
20
-6.8133
11
0.987299
21
-6.81364
0
LINE
8
BLACK
6
CONTINUOUS
10
0.987299
20
-6.81364
11
0.98832
21
-6.81418
0
LINE
8
BLACK
6
CONTINUOUS
10
0.98832
20
-6.81418
11
0.989215
21
-6.81492
0
LINE
8
BLACK
6
CONTINUOUS
10
0.989215
20
-6.81492
11
0.98995
21
-6.81581
0
LINE
8
BLACK
6
CONTINUOUS
10
0.98995
20
-6.81581
11
0.990495
21
-6.81683
0
LINE
8
BLACK
6
CONTINUOUS
10
0.990495
20
-6.81683
11
0.990831
21
-6.81794
0
LINE
8
BLACK
6
CONTINUOUS
10
0.990831
20
-6.81794
11
0.990945
21
-6.81909
0
LINE
8
BLACK
6
CONTINUOUS
10
0.990945
20
-6.81909
11
0.990945
21
-6.83091
0
LINE
8
BLACK
6
CONTINUOUS
10
0.990945
20
-6.83091
11
0.990831
21
-6.83206
0
LINE
8
BLACK
6
CONTINUOUS
10
0.990831
20
-6.83206
11
0.990495
21
-6.83317
0
LINE
8
BLACK
6
CONTINUOUS
10
0.990495
20
-6.83317
11
0.98995
21
-6.83419
0
LINE
8
BLACK
6
CONTINUOUS
10
0.98995
20
-6.83419
11
0.989215
21
-6.83508
0
LINE
8
BLACK
6
CONTINUOUS
10
0.989215
20
-6.83508
11
0.98832
21
-6.83582
0
LINE
8
BLACK
6
CONTINUOUS
10
0.98832
20
-6.83582
11
0.987299
21
-6.83636
0
LINE
8
BLACK
6
CONTINUOUS
10
0.987299
20
-6.83636
11
0.986191
21
-6.8367
0
LINE
8
BLACK
6
CONTINUOUS
10
0.986191
20
-6.8367
11
0.985039
21
-6.83681
0
LINE
8
BLACK
6
CONTINUOUS
10
0.985039
20
-6.83681
11
0.920079
21
-6.83681
0
LINE
8
BLACK
6
CONTINUOUS
10
0.920079
20
-6.83681
11
0.918927
21
-6.8367
0
LINE
8
BLACK
6
CONTINUOUS
10
0.918927
20
-6.8367
11
0.917819
21
-6.83636
0
LINE
8
BLACK
6
CONTINUOUS
10
0.917819
20
-6.83636
11
0.916798
21
-6.83582
0
LINE
8
BLACK
6
CONTINUOUS
10
0.916798
20
-6.83582
11
0.915903
21
-6.83508
0
LINE
8
BLACK
6
CONTINUOUS
10
0.915903
20
-6.83508
11
0.915707
21
-6.83484
0
LINE
8
BLACK
6
CONTINUOUS
10
0.915707
20
-6.83484
11
0.775483
21
-6.83484
0
LINE
8
BLACK
6
CONTINUOUS
10
0.775483
20
-6.83484
11
0.775
21
-6.83489
0
LINE
8
BLACK
6
CONTINUOUS
10
0.775
20
-6.83489
11
0.773071
21
-6.8347
0
LINE
8
BLACK
6
CONTINUOUS
10
0.773071
20
-6.8347
11
0.771215
21
-6.83414
0
LINE
8
BLACK
6
CONTINUOUS
10
0.771215
20
-6.83414
11
0.769802
21
-6.83338
0
LINE
8
BLACK
6
CONTINUOUS
10
0.769802
20
-6.83338
11
0.769505
21
-6.83322
0
LINE
8
BLACK
6
CONTINUOUS
10
0.769505
20
-6.83322
11
0.768007
21
-6.83199
0
LINE
8
BLACK
6
CONTINUOUS
10
0.768007
20
-6.83199
11
0.767698
21
-6.83162
0
LINE
8
BLACK
6
CONTINUOUS
10
0.767698
20
-6.83162
11
0.76577
21
-6.82969
0
LINE
8
BLACK
6
CONTINUOUS
10
0.76577
20
-6.82969
11
0.759761
21
-6.83218
0
LINE
8
BLACK
6
CONTINUOUS
10
0.759761
20
-6.83218
11
0.753296
21
-6.83346
0
LINE
8
BLACK
6
CONTINUOUS
10
0.753296
20
-6.83346
11
0.746704
21
-6.83346
0
LINE
8
BLACK
6
CONTINUOUS
10
0.746704
20
-6.83346
11
0.740239
21
-6.83218
0
LINE
8
BLACK
6
CONTINUOUS
10
0.740239
20
-6.83218
11
0.734149
21
-6.82966
0
LINE
8
BLACK
6
CONTINUOUS
10
0.734149
20
-6.82966
11
0.728668
21
-6.82599
0
LINE
8
BLACK
6
CONTINUOUS
10
0.728668
20
-6.82599
11
0.724006
21
-6.82133
0
LINE
8
BLACK
6
CONTINUOUS
10
0.724006
20
-6.82133
11
0.720344
21
-6.81585
0
LINE
8
BLACK
6
CONTINUOUS
10
0.720344
20
-6.81585
11
0.717821
21
-6.80976
0
LINE
8
BLACK
6
CONTINUOUS
10
0.717821
20
-6.80976
11
0.716535
21
-6.8033
0
LINE
8
BLACK
6
CONTINUOUS
10
0.716535
20
-6.8033
11
0.716535
21
-6.7967
0
LINE
8
BLACK
6
CONTINUOUS
10
0.716535
20
-6.7967
11
0.717821
21
-6.79024
0
LINE
8
BLACK
6
CONTINUOUS
10
0.717821
20
-6.79024
11
0.720344
21
-6.78415
0
LINE
8
BLACK
6
CONTINUOUS
10
0.720344
20
-6.78415
11
0.724006
21
-6.77867
0
LINE
8
BLACK
6
CONTINUOUS
10
0.724006
20
-6.77867
11
0.728668
21
-6.77401
0
LINE
8
BLACK
6
CONTINUOUS
10
0.728668
20
-6.77401
11
0.734149
21
-6.77034
0
LINE
8
BLACK
6
CONTINUOUS
10
0.734149
20
-6.77034
11
0.740239
21
-6.76782
0
LINE
8
BLACK
6
CONTINUOUS
10
0.740239
20
-6.76782
11
0.746704
21
-6.76654
0
LINE
8
BLACK
6
CONTINUOUS
10
0.746704
20
-6.76654
11
0.753296
21
-6.76654
0
LINE
8
BLACK
6
CONTINUOUS
10
0.753296
20
-6.76654
11
0.759761
21
-6.76782
0
LINE
8
BLACK
6
CONTINUOUS
10
0.759761
20
-6.66782
11
0.765851
21
-6.67034
0
LINE
8
BLACK
6
CONTINUOUS
10
0.765851
20
-6.67034
11
0.771332
21
-6.67401
0
LINE
8
BLACK
6
CONTINUOUS
10
0.771332
20
-6.67401
11
0.775994
21
-6.67867
0
LINE
8
BLACK
6
CONTINUOUS
10
0.775994
20
-6.67867
11
0.779656
21
-6.68415
0
LINE
8
BLACK
6
CONTINUOUS
10
0.779656
20
-6.68415
11
0.782179
21
-6.69024
0
LINE
8
BLACK
6
CONTINUOUS
10
0.782179
20
-6.69024
11
0.783465
21
-6.6967
0
LINE
8
BLACK
6
CONTINUOUS
10
0.783465
20
-6.6967
11
0.783465
21
-6.7033
0
LINE
8
BLACK
6
CONTINUOUS
10
0.783465
20
-6.7033
11
0.782179
21
-6.70976
0
LINE
8
BLACK
6
CONTINUOUS
10
0.782179
20
-6.70976
11
0.77969
21
-6.71577
0
LINE
8
BLACK
6
CONTINUOUS
10
0.77969
20
-6.71577
11
0.829077
21
-6.76516
0
LINE
8
BLACK
6
CONTINUOUS
10
0.829077
20
-6.76516
11
0.915707
21
-6.76516
0
LINE
8
BLACK
6
CONTINUOUS
10
0.915707
20
-6.76516
11
0.915903
21
-6.76492
0
LINE
8
BLACK
6
CONTINUOUS
10
0.915903
20
-6.76492
11
0.916798
21
-6.76418
0
LINE
8
BLACK
6
CONTINUOUS
10
0.916798
20
-6.76418
11
0.917819
21
-6.76364
0
LINE
8
BLACK
6
CONTINUOUS
10
0.917819
20
-6.76364
11
0.918927
21
-6.7633
0
LINE
8
BLACK
6
CONTINUOUS
10
0.918927
20
-6.7633
11
0.920079
21
-6.76319
0
LINE
8
BLACK
6
CONTINUOUS
10
0.920079
20
-6.76319
11
0.985039
21
-6.76319
0
LINE
8
BLACK
6
CONTINUOUS
10
0.985039
20
-6.76319
11
0.986191
21
-6.7633
0
LINE
8
BLACK
6
CONTINUOUS
10
0.986191
20
-6.7633
11
0.987299
21
-6.76364
0
LINE
8
BLACK
6
CONTINUOUS
10
0.987299
20
-6.76364
11
0.98832
21
-6.76418
0
LINE
8
BLACK
6
CONTINUOUS
10
0.98832
20
-6.76418
11
0.989215
21
-6.76492
0
LINE
8
BLACK
6
CONTINUOUS
10
0.989215
20
-6.76492
11
0.98995
21
-6.76581
0
LINE
8
BLACK
6
CONTINUOUS
10
0.98995
20
-6.76581
11
0.990495
21
-6.76683
0
LINE
8
BLACK
6
CONTINUOUS
10
0.990495
20
-6.76683
11
0.990831
21
-6.76794
0
LINE
8
BLACK
6
CONTINUOUS
10
0.990831
20
-6.76794
11
0.990945
21
-6.76909
0
LINE
8
BLACK
6
CONTINUOUS
10
0.990945
20
-6.76909
11
0.990945
21
-6.78091
0
LINE
8
BLACK
6
CONTINUOUS
10
0.990945
20
-6.78091
11
0.990831
21
-6.78206
0
LINE
8
BLACK
6
CONTINUOUS
10
0.990831
20
-6.78206
11
0.990495
21
-6.78317
0
LINE
8
BLACK
6
CONTINUOUS
10
0.990495
20
-6.78317
11
0.98995
21
-6.78419
0
LINE
8
BLACK
6
CONTINUOUS
10
0.98995
20
-6.78419
11
0.989215
21
-6.78508
0
LINE
8
BLACK
6
CONTINUOUS
10
0.989215
20
-6.78508
11
0.98832
21
-6.78582
0
LINE
8
BLACK
6
CONTINUOUS
10
0.98832
20
-6.78582
11
0.987299
21
-6.78636
0
LINE
8
BLACK
6
CONTINUOUS
10
0.987299
20
-6.78636
11
0.986191
21
-6.7867
0
LINE
8
BLACK
6
CONTINUOUS
10
0.986191
20
-6.7867
11
0.985039
21
-6.78681
0
LINE
8
BLACK
6
CONTINUOUS
10
0.985039
20
-6.78681
11
0.920079
21
-6.78681
0
LINE
8
BLACK
6
CONTINUOUS
10
0.920079
20
-6.78681
11
0.918927
21
-6.7867
0
LINE
8
BLACK
6
CONTINUOUS
10
0.918927
20
-6.7867
11
0.917819
21
-6.78636
0
LINE
8
BLACK
6
CONTINUOUS
10
0.917819
20
-6.78636
11
0.916798
21
-6.78582
0
LINE
8
BLACK
6
CONTINUOUS
10
0.916798
20
-6.78582
11
0.915903
21
-6.78508
0
LINE
8
BLACK
6
CONTINUOUS
10
0.915903
20
-6.78508
11
0.915707
21
-6.78484
0
LINE
8
BLACK
6
CONTINUOUS
10
0.915707
20
-6.78484
11
0.825483
21
-6.78484
0
LINE
8
BLACK
6
CONTINUOUS
10
0.825483
20
-6.78484
11
0.825
21
-6.78489
0
LINE
8
BLACK
6
CONTINUOUS
10
0.825
20
-6.78489
11
0.823071
21
-6.7847
0
LINE
8
BLACK
6
CONTINUOUS
10
0.823071
20
-6.7847
11
0.821215
21
-6.78414
0
LINE
8
BLACK
6
CONTINUOUS
10
0.821215
20
-6.78414
11
0.819505
21
-6.78322
0
LINE
8
BLACK
6
CONTINUOUS
10
0.819505
20
-6.78322
11
0.818007
21
-6.78199
0
LINE
8
BLACK
6
CONTINUOUS
10
0.818007
20
-6.78199
11
0.817698
21
-6.78162
0
LINE
8
BLACK
6
CONTINUOUS
10
0.817698
20
-6.78162
11
0.76577
21
-6.72969
0
LINE
8
BLACK
6
CONTINUOUS
10
0.76577
20
-6.72969
11
0.759761
21
-6.73218
0
LINE
8
BLACK
6
CONTINUOUS
10
0.759761
20
-6.73218
11
0.753296
21
-6.73346
0
LINE
8
BLACK
6
CONTINUOUS
10
0.753296
20
-6.73346
11
0.746704
21
-6.73346
0
LINE
8
BLACK
6
CONTINUOUS
10
0.746704
20
-6.73346
11
0.740239
21
-6.73218
0
LINE
8
BLACK
6
CONTINUOUS
10
0.740239
20
-6.73218
11
0.734149
21
-6.72966
0
LINE
8
BLACK
6
CONTINUOUS
10
0.734149
20
-6.72966
11
0.728668
21
-6.72599
0
LINE
8
BLACK
6
CONTINUOUS
10
0.728668
20
-6.72599
11
0.724006
21
-6.72133
0
LINE
8
BLACK
6
CONTINUOUS
10
0.724006
20
-6.72133
11
0.720344
21
-6.71585
0
LINE
8
BLACK
6
CONTINUOUS
10
0.720344
20
-6.71585
11
0.717821
21
-6.70976
0
LINE
8
BLACK
6
CONTINUOUS
10
0.717821
20
-6.70976
11
0.716535
21
-6.7033
0
LINE
8
BLACK
6
CONTINUOUS
10
0.716535
20
-6.7033
11
0.716535
21
-6.6967
0
LINE
8
BLACK
6
CONTINUOUS
10
0.716535
20
-6.6967
11
0.717821
21
-6.69024
0
LINE
8
BLACK
6
CONTINUOUS
10
0.717821
20
-6.69024
11
0.720344
21
-6.68415
0
LINE
8
BLACK
6
CONTINUOUS
10
0.720344
20
-6.68415
11
0.724006
21
-6.67867
0
LINE
8
BLACK
6
CONTINUOUS
10
0.724006
20
-6.67867
11
0.728668
21
-6.67401
0
LINE
8
BLACK
6
CONTINUOUS
10
0.728668
20
-6.67401
11
0.734149
21
-6.67034
0
LINE
8
BLACK
6
CONTINUOUS
10
0.734149
20
-6.67034
11
0.740239
21
-6.66782
0
LINE
8
BLACK
6
CONTINUOUS
10
0.740239
20
-6.66782
11
0.746704
21
-6.66654
0
LINE
8
BLACK
6
CONTINUOUS
10
0.746704
20
-6.66654
11
0.753296
21
-6.66654
0
LINE
8
BLACK
6
CONTINUOUS
10
0.753296
20
-6.66654
11
0.759761
21
-6.66782
0
CIRCLE
8
BLACK
10
0.71
20
-7.58
40
0.00688976
0
CIRCLE
8
BLACK
10
0.81
20
-7.58
40
0.00688976
0
CIRCLE
8
BLACK
10
0.9
20
-7
40
0.00688976
0
CIRCLE
8
BLACK
10
1.2
20
-7
40
0.00688976
0
CIRCLE
8
BLACK
10
1.4
20
-6.55
40
0.00688976
0
CIRCLE
8
BLACK
10
1.5
20
-6.55
40
0.00688976
0
CIRCLE
8
BLACK
10
1.39
20
-7.43
40
0.00688976
0
CIRCLE
8
BLACK
10
1.49
20
-7.43
40
0.00688976
0
CIRCLE
8
BLACK
10
1.39
20
-7.33
40
0.00688976
0
CIRCLE
8
BLACK
10
1.49
20
-7.33
40
0.00688976
0
CIRCLE
8
BLACK
10
1.39
20
-7.23
40
0.00688976
0
CIRCLE
8
BLACK
10
1.49
20
-7.23
40
0.00688976
0
CIRCLE
8
BLACK
10
1.43
20
-6.98
40
0.00688976
0
CIRCLE
8
BLACK
10
1.43
20
-6.88
40
0.00688976
0
CIRCLE
8
BLACK
10
1.43
20
-6.78
40
0.00688976
0
CIRCLE
8
BLACK
10
0.75
20
-6.9
40
0.00688976
0
CIRCLE
8
BLACK
10
0.75
20
-6.8
40
0.00688976
0
CIRCLE
8
BLACK
10
0.75
20
-6.7
40
0.00688976
0
CIRCLE
8
BLACK
10
0.75
20
-6.6
40
0.00688976
0
CIRCLE
8
BLACK
10
1.19921
20
-7.32
40
0.00688976
0
CIRCLE
8
BLACK
10
0.9
20
-7.32
40
0.00688976
0
CIRCLE
8
BLACK
10
1.195
20
-6.6
40
0.00688976
0
CIRCLE
8
BLACK
10
0.895
20
-6.6
40
0.00688976
0
CIRCLE
8
BLACK
10
0.72
20
-7.4
40
0.00688976
0
CIRCLE
8
BLACK
10
0.72
20
-7.1
40
0.00688976
  0
ENDSEC
  0
EOF
