  0
SECTION
  2
HEADER
  9
$ANGBASE
  50
0.0
  9
$ANGDIR
  70
1
  9
$MEASUREMENT
  70
1
  0
ENDSEC
  0
SECTION
  2
TABLES
  0
TABLE
  2
LTYPE
  70
4
  0
LTYPE
  5
40F
  2
CONTINUOUS
  70
0
  3
Solid line
  72
65
  73
0
  40
0.0
  0
LTYPE
  5
410
  2
DASHDOT
 70
0
  3
Dash Dot ____ _ ____ _
 72
65
 73
4
 40
2.0
 49
1.25
 49
-0.25
 49
0.25
 49
-0.25
  0
LTYPE
  5
411
  2
DASHED
 70
0
  3
Dashed __ __ __ __ __
 72
65
 73
2
 40
0.75
 49
0.5
 49
-0.25
  0
LTYPE
  5
43B
  2
DOTTED
 70
0
  3
Dotted .  .  .  .
 72
65
 73
2
 40
0.2
 49
0.0
 49
-0.2
  0
ENDTAB
  0
TABLE
  2
STYLE
  70
4
  0
STYLE
  2
KICAD
  70
0
  40
0
  41
1
  42
1
  50
0
  71
0
  3
isocp.shx
  0
STYLE
  2
KICADB
  70
0
  40
0
  41
1
  42
1
  50
0
  71
0
  3
isocp.shx
  0
STYLE
  2
KICADI
  70
0
  40
0
  41
1
  42
1
  50
15
  71
0
  3
isocp.shx
  0
STYLE
  2
KICADBI
  70
0
  40
0
  41
1
  42
1
  50
15
  71
0
  3
isocp.shx
  0
ENDTAB
  0
TABLE
  2
LAYER
  70
1
  0
LAYER
  2
BLACK
  70
0
  62
7
  6
CONTINUOUS
  0
ENDTAB
  0
ENDSEC
  0
SECTION
  2
ENTITIES
0
LINE
8
BLACK
6
CONTINUOUS
10
158.238
20
-84.0191
11
158.227
21
-84.0157
0
LINE
8
BLACK
6
CONTINUOUS
10
158.227
20
-84.0157
11
158.217
21
-84.0101
0
LINE
8
BLACK
6
CONTINUOUS
10
158.217
20
-84.0101
11
158.207
21
-84.0026
0
LINE
8
BLACK
6
CONTINUOUS
10
158.207
20
-84.0026
11
158.2
21
-83.9935
0
LINE
8
BLACK
6
CONTINUOUS
10
158.2
20
-83.9935
11
158.194
21
-83.9831
0
LINE
8
BLACK
6
CONTINUOUS
10
158.194
20
-83.9831
11
158.191
21
-83.9718
0
LINE
8
BLACK
6
CONTINUOUS
10
158.191
20
-83.9718
11
158.19
21
-83.96
0
LINE
8
BLACK
6
CONTINUOUS
10
158.19
20
-83.96
11
158.191
21
-83.9482
0
LINE
8
BLACK
6
CONTINUOUS
10
158.191
20
-83.9482
11
158.194
21
-83.9369
0
LINE
8
BLACK
6
CONTINUOUS
10
158.194
20
-83.9369
11
158.2
21
-83.9265
0
LINE
8
BLACK
6
CONTINUOUS
10
158.2
20
-83.9265
11
158.207
21
-83.9174
0
LINE
8
BLACK
6
CONTINUOUS
10
158.207
20
-83.9174
11
158.217
21
-83.9099
0
LINE
8
BLACK
6
CONTINUOUS
10
158.217
20
-83.9099
11
158.227
21
-83.9043
0
LINE
8
BLACK
6
CONTINUOUS
10
158.227
20
-83.9043
11
158.238
21
-83.9009
0
LINE
8
BLACK
6
CONTINUOUS
10
158.238
20
-83.9009
11
158.247
21
-83.9
0
LINE
8
BLACK
6
CONTINUOUS
10
158.247
20
-83.9
11
162.153
21
-83.9
0
LINE
8
BLACK
6
CONTINUOUS
10
162.153
20
-83.9
11
162.162
21
-83.9009
0
LINE
8
BLACK
6
CONTINUOUS
10
162.162
20
-83.9009
11
162.173
21
-83.9043
0
LINE
8
BLACK
6
CONTINUOUS
10
162.173
20
-83.9043
11
162.183
21
-83.9099
0
LINE
8
BLACK
6
CONTINUOUS
10
162.183
20
-83.9099
11
162.193
21
-83.9174
0
LINE
8
BLACK
6
CONTINUOUS
10
162.193
20
-83.9174
11
162.2
21
-83.9265
0
LINE
8
BLACK
6
CONTINUOUS
10
162.2
20
-83.9265
11
162.206
21
-83.9369
0
LINE
8
BLACK
6
CONTINUOUS
10
162.206
20
-83.9369
11
162.209
21
-83.9482
0
LINE
8
BLACK
6
CONTINUOUS
10
162.209
20
-83.9482
11
162.21
21
-83.96
0
LINE
8
BLACK
6
CONTINUOUS
10
162.21
20
-83.96
11
162.209
21
-83.9718
0
LINE
8
BLACK
6
CONTINUOUS
10
162.209
20
-83.9718
11
162.206
21
-83.9831
0
LINE
8
BLACK
6
CONTINUOUS
10
162.206
20
-83.9831
11
162.2
21
-83.9935
0
LINE
8
BLACK
6
CONTINUOUS
10
162.2
20
-83.9935
11
162.193
21
-84.0026
0
LINE
8
BLACK
6
CONTINUOUS
10
162.193
20
-84.0026
11
162.183
21
-84.0101
0
LINE
8
BLACK
6
CONTINUOUS
10
162.183
20
-84.0101
11
162.173
21
-84.0157
0
LINE
8
BLACK
6
CONTINUOUS
10
162.173
20
-84.0157
11
162.162
21
-84.0191
0
LINE
8
BLACK
6
CONTINUOUS
10
162.162
20
-84.0191
11
162.153
21
-84.02
0
LINE
8
BLACK
6
CONTINUOUS
10
162.153
20
-84.02
11
158.247
21
-84.02
0
LINE
8
BLACK
6
CONTINUOUS
10
158.247
20
-84.02
11
158.238
21
-84.0191
0
LINE
8
BLACK
6
CONTINUOUS
10
156.738
20
-78.8991
11
156.727
21
-78.8957
0
LINE
8
BLACK
6
CONTINUOUS
10
156.727
20
-78.8957
11
156.717
21
-78.8901
0
LINE
8
BLACK
6
CONTINUOUS
10
156.717
20
-78.8901
11
156.707
21
-78.8826
0
LINE
8
BLACK
6
CONTINUOUS
10
156.707
20
-78.8826
11
156.7
21
-78.8735
0
LINE
8
BLACK
6
CONTINUOUS
10
156.7
20
-78.8735
11
156.694
21
-78.8631
0
LINE
8
BLACK
6
CONTINUOUS
10
156.694
20
-78.8631
11
156.691
21
-78.8518
0
LINE
8
BLACK
6
CONTINUOUS
10
156.691
20
-78.8518
11
156.69
21
-78.84
0
LINE
8
BLACK
6
CONTINUOUS
10
156.69
20
-78.84
11
156.691
21
-78.8282
0
LINE
8
BLACK
6
CONTINUOUS
10
156.691
20
-78.8282
11
156.694
21
-78.8169
0
LINE
8
BLACK
6
CONTINUOUS
10
156.694
20
-78.8169
11
156.7
21
-78.8065
0
LINE
8
BLACK
6
CONTINUOUS
10
156.7
20
-78.8065
11
156.707
21
-78.7974
0
LINE
8
BLACK
6
CONTINUOUS
10
156.707
20
-78.7974
11
156.717
21
-78.7899
0
LINE
8
BLACK
6
CONTINUOUS
10
156.717
20
-78.7899
11
156.727
21
-78.7843
0
LINE
8
BLACK
6
CONTINUOUS
10
156.727
20
-78.7843
11
156.738
21
-78.7809
0
LINE
8
BLACK
6
CONTINUOUS
10
156.738
20
-78.7809
11
156.747
21
-78.78
0
LINE
8
BLACK
6
CONTINUOUS
10
156.747
20
-78.78
11
162.153
21
-78.78
0
LINE
8
BLACK
6
CONTINUOUS
10
162.153
20
-78.78
11
162.162
21
-78.7809
0
LINE
8
BLACK
6
CONTINUOUS
10
162.162
20
-78.7809
11
162.173
21
-78.7843
0
LINE
8
BLACK
6
CONTINUOUS
10
162.173
20
-78.7843
11
162.183
21
-78.7899
0
LINE
8
BLACK
6
CONTINUOUS
10
162.183
20
-78.7899
11
162.193
21
-78.7974
0
LINE
8
BLACK
6
CONTINUOUS
10
162.193
20
-78.7974
11
162.2
21
-78.8065
0
LINE
8
BLACK
6
CONTINUOUS
10
162.2
20
-78.8065
11
162.206
21
-78.8169
0
LINE
8
BLACK
6
CONTINUOUS
10
162.206
20
-78.8169
11
162.209
21
-78.8282
0
LINE
8
BLACK
6
CONTINUOUS
10
162.209
20
-78.8282
11
162.21
21
-78.84
0
LINE
8
BLACK
6
CONTINUOUS
10
162.21
20
-78.84
11
162.209
21
-78.8518
0
LINE
8
BLACK
6
CONTINUOUS
10
162.209
20
-78.8518
11
162.206
21
-78.8631
0
LINE
8
BLACK
6
CONTINUOUS
10
162.206
20
-78.8631
11
162.2
21
-78.8735
0
LINE
8
BLACK
6
CONTINUOUS
10
162.2
20
-78.8735
11
162.193
21
-78.8826
0
LINE
8
BLACK
6
CONTINUOUS
10
162.193
20
-78.8826
11
162.183
21
-78.8901
0
LINE
8
BLACK
6
CONTINUOUS
10
162.183
20
-78.8901
11
162.173
21
-78.8957
0
LINE
8
BLACK
6
CONTINUOUS
10
162.173
20
-78.8957
11
162.162
21
-78.8991
0
LINE
8
BLACK
6
CONTINUOUS
10
162.162
20
-78.8991
11
162.153
21
-78.9
0
LINE
8
BLACK
6
CONTINUOUS
10
162.153
20
-78.9
11
156.747
21
-78.9
0
LINE
8
BLACK
6
CONTINUOUS
10
156.747
20
-78.9
11
156.738
21
-78.8991
0
LINE
8
BLACK
6
CONTINUOUS
10
160.724
20
-77.3774
11
160.724
21
-77.3774
0
LINE
8
BLACK
6
CONTINUOUS
10
160.724
20
-77.3774
11
160.732
21
-77.3782
0
LINE
8
BLACK
6
CONTINUOUS
10
160.732
20
-77.3782
11
160.739
21
-77.3789
0
LINE
8
BLACK
6
CONTINUOUS
10
160.739
20
-77.3789
11
160.739
21
-77.3789
0
LINE
8
BLACK
6
CONTINUOUS
10
160.739
20
-77.3789
11
160.739
21
-77.3789
0
LINE
8
BLACK
6
CONTINUOUS
10
160.739
20
-77.3789
11
160.746
21
-77.3812
0
LINE
8
BLACK
6
CONTINUOUS
10
160.746
20
-77.3812
11
160.753
21
-77.3832
0
LINE
8
BLACK
6
CONTINUOUS
10
160.753
20
-77.3832
11
160.753
21
-77.3833
0
LINE
8
BLACK
6
CONTINUOUS
10
160.753
20
-77.3833
11
160.753
21
-77.3833
0
LINE
8
BLACK
6
CONTINUOUS
10
160.753
20
-77.3833
11
160.76
21
-77.3868
0
LINE
8
BLACK
6
CONTINUOUS
10
160.76
20
-77.3868
11
160.766
21
-77.3902
0
LINE
8
BLACK
6
CONTINUOUS
10
160.766
20
-77.3902
11
160.766
21
-77.3902
0
LINE
8
BLACK
6
CONTINUOUS
10
160.766
20
-77.3902
11
160.766
21
-77.3903
0
LINE
8
BLACK
6
CONTINUOUS
10
160.766
20
-77.3903
11
160.771
21
-77.3949
0
LINE
8
BLACK
6
CONTINUOUS
10
160.771
20
-77.3949
11
160.777
21
-77.3995
0
LINE
8
BLACK
6
CONTINUOUS
10
160.777
20
-77.3995
11
160.777
21
-77.3996
0
LINE
8
BLACK
6
CONTINUOUS
10
160.777
20
-77.3996
11
160.777
21
-77.3996
0
LINE
8
BLACK
6
CONTINUOUS
10
160.777
20
-77.3996
11
160.782
21
-77.4056
0
LINE
8
BLACK
6
CONTINUOUS
10
160.782
20
-77.4056
11
160.786
21
-77.4109
0
LINE
8
BLACK
6
CONTINUOUS
10
160.786
20
-77.4109
11
160.786
21
-77.4109
0
LINE
8
BLACK
6
CONTINUOUS
10
160.786
20
-77.4109
11
160.786
21
-77.411
0
LINE
8
BLACK
6
CONTINUOUS
10
160.786
20
-77.411
11
160.79
21
-77.4179
0
LINE
8
BLACK
6
CONTINUOUS
10
160.79
20
-77.4179
11
160.793
21
-77.4238
0
LINE
8
BLACK
6
CONTINUOUS
10
160.793
20
-77.4238
11
160.793
21
-77.4239
0
LINE
8
BLACK
6
CONTINUOUS
10
160.793
20
-77.4239
11
160.793
21
-77.4239
0
LINE
8
BLACK
6
CONTINUOUS
10
160.793
20
-77.4239
11
160.795
21
-77.4311
0
LINE
8
BLACK
6
CONTINUOUS
10
160.795
20
-77.4311
11
160.797
21
-77.4378
0
LINE
8
BLACK
6
CONTINUOUS
10
160.797
20
-77.4378
11
160.797
21
-77.4379
0
LINE
8
BLACK
6
CONTINUOUS
10
160.797
20
-77.4379
11
160.797
21
-77.4379
0
LINE
8
BLACK
6
CONTINUOUS
10
160.797
20
-77.4379
11
160.798
21
-77.4453
0
LINE
8
BLACK
6
CONTINUOUS
10
160.798
20
-77.4453
11
160.799
21
-77.4524
0
LINE
8
BLACK
6
CONTINUOUS
10
160.799
20
-77.4524
11
160.799
21
-78.3774
0
LINE
8
BLACK
6
CONTINUOUS
10
160.799
20
-78.3774
11
161.01
21
-78.3774
0
LINE
8
BLACK
6
CONTINUOUS
10
161.01
20
-78.3774
11
161.011
21
-78.3774
0
LINE
8
BLACK
6
CONTINUOUS
10
161.011
20
-78.3774
11
161.025
21
-78.379
0
LINE
8
BLACK
6
CONTINUOUS
10
161.025
20
-78.379
11
161.039
21
-78.3834
0
LINE
8
BLACK
6
CONTINUOUS
10
161.039
20
-78.3834
11
161.052
21
-78.3905
0
LINE
8
BLACK
6
CONTINUOUS
10
161.052
20
-78.3905
11
161.063
21
-78.3999
0
LINE
8
BLACK
6
CONTINUOUS
10
161.063
20
-78.3999
11
161.072
21
-78.4113
0
LINE
8
BLACK
6
CONTINUOUS
10
161.072
20
-78.4113
11
161.079
21
-78.4243
0
LINE
8
BLACK
6
CONTINUOUS
10
161.079
20
-78.4243
11
161.083
21
-78.4383
0
LINE
8
BLACK
6
CONTINUOUS
10
161.083
20
-78.4383
11
161.085
21
-78.4529
0
LINE
8
BLACK
6
CONTINUOUS
10
161.085
20
-78.4529
11
161.083
21
-78.4675
0
LINE
8
BLACK
6
CONTINUOUS
10
161.083
20
-78.4675
11
161.079
21
-78.4814
0
LINE
8
BLACK
6
CONTINUOUS
10
161.079
20
-78.4814
11
161.072
21
-78.4943
0
LINE
8
BLACK
6
CONTINUOUS
10
161.072
20
-78.4943
11
161.062
21
-78.5056
0
LINE
8
BLACK
6
CONTINUOUS
10
161.062
20
-78.5056
11
161.051
21
-78.5148
0
LINE
8
BLACK
6
CONTINUOUS
10
161.051
20
-78.5148
11
161.038
21
-78.5217
0
LINE
8
BLACK
6
CONTINUOUS
10
161.038
20
-78.5217
11
161.024
21
-78.526
0
LINE
8
BLACK
6
CONTINUOUS
10
161.024
20
-78.526
11
161.01
21
-78.5274
0
LINE
8
BLACK
6
CONTINUOUS
10
161.01
20
-78.5274
11
160.438
21
-78.5274
0
LINE
8
BLACK
6
CONTINUOUS
10
160.438
20
-78.5274
11
160.437
21
-78.5274
0
LINE
8
BLACK
6
CONTINUOUS
10
160.437
20
-78.5274
11
160.423
21
-78.5257
0
LINE
8
BLACK
6
CONTINUOUS
10
160.423
20
-78.5257
11
160.409
21
-78.5213
0
LINE
8
BLACK
6
CONTINUOUS
10
160.409
20
-78.5213
11
160.396
21
-78.5143
0
LINE
8
BLACK
6
CONTINUOUS
10
160.396
20
-78.5143
11
160.385
21
-78.5049
0
LINE
8
BLACK
6
CONTINUOUS
10
160.385
20
-78.5049
11
160.375
21
-78.4934
0
LINE
8
BLACK
6
CONTINUOUS
10
160.375
20
-78.4934
11
160.369
21
-78.4805
0
LINE
8
BLACK
6
CONTINUOUS
10
160.369
20
-78.4805
11
160.364
21
-78.4664
0
LINE
8
BLACK
6
CONTINUOUS
10
160.364
20
-78.4664
11
160.363
21
-78.4519
0
LINE
8
BLACK
6
CONTINUOUS
10
160.363
20
-78.4519
11
160.365
21
-78.4373
0
LINE
8
BLACK
6
CONTINUOUS
10
160.365
20
-78.4373
11
160.369
21
-78.4233
0
LINE
8
BLACK
6
CONTINUOUS
10
160.369
20
-78.4233
11
160.376
21
-78.4104
0
LINE
8
BLACK
6
CONTINUOUS
10
160.376
20
-78.4104
11
160.385
21
-78.3992
0
LINE
8
BLACK
6
CONTINUOUS
10
160.385
20
-78.3992
11
160.397
21
-78.3899
0
LINE
8
BLACK
6
CONTINUOUS
10
160.397
20
-78.3899
11
160.41
21
-78.383
0
LINE
8
BLACK
6
CONTINUOUS
10
160.41
20
-78.383
11
160.424
21
-78.3788
0
LINE
8
BLACK
6
CONTINUOUS
10
160.424
20
-78.3788
11
160.438
21
-78.3774
0
LINE
8
BLACK
6
CONTINUOUS
10
160.438
20
-78.3774
11
160.649
21
-78.3774
0
LINE
8
BLACK
6
CONTINUOUS
10
160.649
20
-78.3774
11
160.649
21
-77.6811
0
LINE
8
BLACK
6
CONTINUOUS
10
160.649
20
-77.6811
11
160.586
21
-77.7435
0
LINE
8
BLACK
6
CONTINUOUS
10
160.586
20
-77.7435
11
160.586
21
-77.7442
0
LINE
8
BLACK
6
CONTINUOUS
10
160.586
20
-77.7442
11
160.582
21
-77.7469
0
LINE
8
BLACK
6
CONTINUOUS
10
160.582
20
-77.7469
11
160.579
21
-77.7498
0
LINE
8
BLACK
6
CONTINUOUS
10
160.579
20
-77.7498
11
160.577
21
-77.7514
0
LINE
8
BLACK
6
CONTINUOUS
10
160.577
20
-77.7514
11
160.574
21
-77.7534
0
LINE
8
BLACK
6
CONTINUOUS
10
160.574
20
-77.7534
11
160.57
21
-77.7553
0
LINE
8
BLACK
6
CONTINUOUS
10
160.57
20
-77.7553
11
160.567
21
-77.7576
0
LINE
8
BLACK
6
CONTINUOUS
10
160.567
20
-77.7576
11
160.472
21
-77.8052
0
LINE
8
BLACK
6
CONTINUOUS
10
160.472
20
-77.8052
11
160.471
21
-77.8056
0
LINE
8
BLACK
6
CONTINUOUS
10
160.471
20
-77.8056
11
160.457
21
-77.8107
0
LINE
8
BLACK
6
CONTINUOUS
10
160.457
20
-77.8107
11
160.442
21
-77.813
0
LINE
8
BLACK
6
CONTINUOUS
10
160.442
20
-77.813
11
160.428
21
-77.8124
0
LINE
8
BLACK
6
CONTINUOUS
10
160.428
20
-77.8124
11
160.414
21
-77.809
0
LINE
8
BLACK
6
CONTINUOUS
10
160.414
20
-77.809
11
160.4
21
-77.8029
0
LINE
8
BLACK
6
CONTINUOUS
10
160.4
20
-77.8029
11
160.388
21
-77.7943
0
LINE
8
BLACK
6
CONTINUOUS
10
160.388
20
-77.7943
11
160.378
21
-77.7836
0
LINE
8
BLACK
6
CONTINUOUS
10
160.378
20
-77.7836
11
160.371
21
-77.7712
0
LINE
8
BLACK
6
CONTINUOUS
10
160.371
20
-77.7712
11
160.366
21
-77.7575
0
LINE
8
BLACK
6
CONTINUOUS
10
160.366
20
-77.7575
11
160.363
21
-77.743
0
LINE
8
BLACK
6
CONTINUOUS
10
160.363
20
-77.743
11
160.364
21
-77.7284
0
LINE
8
BLACK
6
CONTINUOUS
10
160.364
20
-77.7284
11
160.367
21
-77.7141
0
LINE
8
BLACK
6
CONTINUOUS
10
160.367
20
-77.7141
11
160.373
21
-77.7008
0
LINE
8
BLACK
6
CONTINUOUS
10
160.373
20
-77.7008
11
160.382
21
-77.6889
0
LINE
8
BLACK
6
CONTINUOUS
10
160.382
20
-77.6889
11
160.392
21
-77.6788
0
LINE
8
BLACK
6
CONTINUOUS
10
160.392
20
-77.6788
11
160.405
21
-77.671
0
LINE
8
BLACK
6
CONTINUOUS
10
160.405
20
-77.671
11
160.489
21
-77.6288
0
LINE
8
BLACK
6
CONTINUOUS
10
160.489
20
-77.6288
11
160.57
21
-77.5475
0
LINE
8
BLACK
6
CONTINUOUS
10
160.57
20
-77.5475
11
160.661
21
-77.4108
0
LINE
8
BLACK
6
CONTINUOUS
10
160.661
20
-77.4108
11
160.662
21
-77.41
0
LINE
8
BLACK
6
CONTINUOUS
10
160.662
20
-77.41
11
160.662
21
-77.41
0
LINE
8
BLACK
6
CONTINUOUS
10
160.662
20
-77.41
11
160.662
21
-77.41
0
LINE
8
BLACK
6
CONTINUOUS
10
160.662
20
-77.41
11
160.662
21
-77.4099
0
LINE
8
BLACK
6
CONTINUOUS
10
160.662
20
-77.4099
11
160.667
21
-77.4043
0
LINE
8
BLACK
6
CONTINUOUS
10
160.667
20
-77.4043
11
160.671
21
-77.3988
0
LINE
8
BLACK
6
CONTINUOUS
10
160.671
20
-77.3988
11
160.671
21
-77.3988
0
LINE
8
BLACK
6
CONTINUOUS
10
160.671
20
-77.3988
11
160.671
21
-77.3987
0
LINE
8
BLACK
6
CONTINUOUS
10
160.671
20
-77.3987
11
160.677
21
-77.394
0
LINE
8
BLACK
6
CONTINUOUS
10
160.677
20
-77.394
11
160.683
21
-77.3896
0
LINE
8
BLACK
6
CONTINUOUS
10
160.683
20
-77.3896
11
160.683
21
-77.3896
0
LINE
8
BLACK
6
CONTINUOUS
10
160.683
20
-77.3896
11
160.683
21
-77.3896
0
LINE
8
BLACK
6
CONTINUOUS
10
160.683
20
-77.3896
11
160.69
21
-77.386
0
LINE
8
BLACK
6
CONTINUOUS
10
160.69
20
-77.386
11
160.696
21
-77.3828
0
LINE
8
BLACK
6
CONTINUOUS
10
160.696
20
-77.3828
11
160.696
21
-77.3828
0
LINE
8
BLACK
6
CONTINUOUS
10
160.696
20
-77.3828
11
160.696
21
-77.3828
0
LINE
8
BLACK
6
CONTINUOUS
10
160.696
20
-77.3828
11
160.703
21
-77.3807
0
LINE
8
BLACK
6
CONTINUOUS
10
160.703
20
-77.3807
11
160.71
21
-77.3787
0
LINE
8
BLACK
6
CONTINUOUS
10
160.71
20
-77.3787
11
160.71
21
-77.3787
0
LINE
8
BLACK
6
CONTINUOUS
10
160.71
20
-77.3787
11
160.71
21
-77.3787
0
LINE
8
BLACK
6
CONTINUOUS
10
160.71
20
-77.3787
11
160.717
21
-77.378
0
LINE
8
BLACK
6
CONTINUOUS
10
160.717
20
-77.378
11
160.724
21
-77.3774
0
LINE
8
BLACK
6
CONTINUOUS
10
160.724
20
-77.3774
11
160.724
21
-77.3774
0
LINE
8
BLACK
6
CONTINUOUS
10
160.025
20
-77.3789
11
160.039
21
-77.3832
0
LINE
8
BLACK
6
CONTINUOUS
10
160.039
20
-77.3832
11
160.051
21
-77.3902
0
LINE
8
BLACK
6
CONTINUOUS
10
160.051
20
-77.3902
11
160.063
21
-77.3995
0
LINE
8
BLACK
6
CONTINUOUS
10
160.063
20
-77.3995
11
160.072
21
-77.4109
0
LINE
8
BLACK
6
CONTINUOUS
10
160.072
20
-77.4109
11
160.079
21
-77.4238
0
LINE
8
BLACK
6
CONTINUOUS
10
160.079
20
-77.4238
11
160.083
21
-77.4378
0
LINE
8
BLACK
6
CONTINUOUS
10
160.083
20
-77.4378
11
160.085
21
-77.4524
0
LINE
8
BLACK
6
CONTINUOUS
10
160.085
20
-77.4524
11
160.085
21
-78.2619
0
LINE
8
BLACK
6
CONTINUOUS
10
160.085
20
-78.2619
11
160.085
21
-78.263
0
LINE
8
BLACK
6
CONTINUOUS
10
160.085
20
-78.263
11
160.084
21
-78.2651
0
LINE
8
BLACK
6
CONTINUOUS
10
160.084
20
-78.2651
11
160.084
21
-78.2674
0
LINE
8
BLACK
6
CONTINUOUS
10
160.084
20
-78.2674
11
160.083
21
-78.2724
0
LINE
8
BLACK
6
CONTINUOUS
10
160.083
20
-78.2724
11
160.083
21
-78.2775
0
LINE
8
BLACK
6
CONTINUOUS
10
160.083
20
-78.2775
11
160.082
21
-78.2796
0
LINE
8
BLACK
6
CONTINUOUS
10
160.082
20
-78.2796
11
160.082
21
-78.2818
0
LINE
8
BLACK
6
CONTINUOUS
10
160.082
20
-78.2818
11
160.08
21
-78.2866
0
LINE
8
BLACK
6
CONTINUOUS
10
160.08
20
-78.2866
11
160.078
21
-78.2914
0
LINE
8
BLACK
6
CONTINUOUS
10
160.078
20
-78.2914
11
160.077
21
-78.2934
0
LINE
8
BLACK
6
CONTINUOUS
10
160.077
20
-78.2934
11
160.077
21
-78.2954
0
LINE
8
BLACK
6
CONTINUOUS
10
160.077
20
-78.2954
11
160.029
21
-78.3907
0
LINE
8
BLACK
6
CONTINUOUS
10
160.029
20
-78.3907
11
160.029
21
-78.3916
0
LINE
8
BLACK
6
CONTINUOUS
10
160.029
20
-78.3916
11
160.026
21
-78.3952
0
LINE
8
BLACK
6
CONTINUOUS
10
160.026
20
-78.3952
11
160.024
21
-78.3989
0
LINE
8
BLACK
6
CONTINUOUS
10
160.024
20
-78.3989
11
160.022
21
-78.4013
0
LINE
8
BLACK
6
CONTINUOUS
10
160.022
20
-78.4013
11
160.021
21
-78.4039
0
LINE
8
BLACK
6
CONTINUOUS
10
160.021
20
-78.4039
11
160.018
21
-78.4069
0
LINE
8
BLACK
6
CONTINUOUS
10
160.018
20
-78.4069
11
160.015
21
-78.4102
0
LINE
8
BLACK
6
CONTINUOUS
10
160.015
20
-78.4102
11
159.967
21
-78.4578
0
LINE
8
BLACK
6
CONTINUOUS
10
159.967
20
-78.4578
11
159.967
21
-78.4585
0
LINE
8
BLACK
6
CONTINUOUS
10
159.967
20
-78.4585
11
159.963
21
-78.4612
0
LINE
8
BLACK
6
CONTINUOUS
10
159.963
20
-78.4612
11
159.96
21
-78.4641
0
LINE
8
BLACK
6
CONTINUOUS
10
159.96
20
-78.4641
11
159.958
21
-78.4657
0
LINE
8
BLACK
6
CONTINUOUS
10
159.958
20
-78.4657
11
159.955
21
-78.4677
0
LINE
8
BLACK
6
CONTINUOUS
10
159.955
20
-78.4677
11
159.951
21
-78.4696
0
LINE
8
BLACK
6
CONTINUOUS
10
159.951
20
-78.4696
11
159.948
21
-78.4718
0
LINE
8
BLACK
6
CONTINUOUS
10
159.948
20
-78.4718
11
159.853
21
-78.5195
0
LINE
8
BLACK
6
CONTINUOUS
10
159.853
20
-78.5195
11
159.852
21
-78.5199
0
LINE
8
BLACK
6
CONTINUOUS
10
159.852
20
-78.5199
11
159.85
21
-78.5207
0
LINE
8
BLACK
6
CONTINUOUS
10
159.85
20
-78.5207
11
159.848
21
-78.5217
0
LINE
8
BLACK
6
CONTINUOUS
10
159.848
20
-78.5217
11
159.843
21
-78.5232
0
LINE
8
BLACK
6
CONTINUOUS
10
159.843
20
-78.5232
11
159.838
21
-78.525
0
LINE
8
BLACK
6
CONTINUOUS
10
159.838
20
-78.525
11
159.836
21
-78.5253
0
LINE
8
BLACK
6
CONTINUOUS
10
159.836
20
-78.5253
11
159.834
21
-78.526
0
LINE
8
BLACK
6
CONTINUOUS
10
159.834
20
-78.526
11
159.829
21
-78.5265
0
LINE
8
BLACK
6
CONTINUOUS
10
159.829
20
-78.5265
11
159.823
21
-78.5273
0
LINE
8
BLACK
6
CONTINUOUS
10
159.823
20
-78.5273
11
159.821
21
-78.5272
0
LINE
8
BLACK
6
CONTINUOUS
10
159.821
20
-78.5272
11
159.819
21
-78.5274
0
LINE
8
BLACK
6
CONTINUOUS
10
159.819
20
-78.5274
11
159.629
21
-78.5274
0
LINE
8
BLACK
6
CONTINUOUS
10
159.629
20
-78.5274
11
159.628
21
-78.5274
0
LINE
8
BLACK
6
CONTINUOUS
10
159.628
20
-78.5274
11
159.625
21
-78.5271
0
LINE
8
BLACK
6
CONTINUOUS
10
159.625
20
-78.5271
11
159.623
21
-78.5272
0
LINE
8
BLACK
6
CONTINUOUS
10
159.623
20
-78.5272
11
159.618
21
-78.5263
0
LINE
8
BLACK
6
CONTINUOUS
10
159.618
20
-78.5263
11
159.613
21
-78.5257
0
LINE
8
BLACK
6
CONTINUOUS
10
159.613
20
-78.5257
11
159.611
21
-78.5251
0
LINE
8
BLACK
6
CONTINUOUS
10
159.611
20
-78.5251
11
159.609
21
-78.5247
0
LINE
8
BLACK
6
CONTINUOUS
10
159.609
20
-78.5247
11
159.604
21
-78.5229
0
LINE
8
BLACK
6
CONTINUOUS
10
159.604
20
-78.5229
11
159.599
21
-78.5213
0
LINE
8
BLACK
6
CONTINUOUS
10
159.599
20
-78.5213
11
159.597
21
-78.5203
0
LINE
8
BLACK
6
CONTINUOUS
10
159.597
20
-78.5203
11
159.595
21
-78.5195
0
LINE
8
BLACK
6
CONTINUOUS
10
159.595
20
-78.5195
11
159.5
21
-78.4718
0
LINE
8
BLACK
6
CONTINUOUS
10
159.5
20
-78.4718
11
159.499
21
-78.4714
0
LINE
8
BLACK
6
CONTINUOUS
10
159.499
20
-78.4714
11
159.495
21
-78.4691
0
LINE
8
BLACK
6
CONTINUOUS
10
159.495
20
-78.4691
11
159.492
21
-78.4671
0
LINE
8
BLACK
6
CONTINUOUS
10
159.492
20
-78.4671
11
159.489
21
-78.4651
0
LINE
8
BLACK
6
CONTINUOUS
10
159.489
20
-78.4651
11
159.487
21
-78.4634
0
LINE
8
BLACK
6
CONTINUOUS
10
159.487
20
-78.4634
11
159.484
21
-78.4605
0
LINE
8
BLACK
6
CONTINUOUS
10
159.484
20
-78.4605
11
159.48
21
-78.4578
0
LINE
8
BLACK
6
CONTINUOUS
10
159.48
20
-78.4578
11
159.433
21
-78.4102
0
LINE
8
BLACK
6
CONTINUOUS
10
159.433
20
-78.4102
11
159.432
21
-78.4094
0
LINE
8
BLACK
6
CONTINUOUS
10
159.432
20
-78.4094
11
159.429
21
-78.4061
0
LINE
8
BLACK
6
CONTINUOUS
10
159.429
20
-78.4061
11
159.426
21
-78.4031
0
LINE
8
BLACK
6
CONTINUOUS
10
159.426
20
-78.4031
11
159.425
21
-78.4004
0
LINE
8
BLACK
6
CONTINUOUS
10
159.425
20
-78.4004
11
159.423
21
-78.398
0
LINE
8
BLACK
6
CONTINUOUS
10
159.423
20
-78.398
11
159.421
21
-78.3943
0
LINE
8
BLACK
6
CONTINUOUS
10
159.421
20
-78.3943
11
159.419
21
-78.3907
0
LINE
8
BLACK
6
CONTINUOUS
10
159.419
20
-78.3907
11
159.371
21
-78.2954
0
LINE
8
BLACK
6
CONTINUOUS
10
159.371
20
-78.2954
11
159.371
21
-78.2945
0
LINE
8
BLACK
6
CONTINUOUS
10
159.371
20
-78.2945
11
159.37
21
-78.2924
0
LINE
8
BLACK
6
CONTINUOUS
10
159.37
20
-78.2924
11
159.369
21
-78.2905
0
LINE
8
BLACK
6
CONTINUOUS
10
159.369
20
-78.2905
11
159.367
21
-78.2856
0
LINE
8
BLACK
6
CONTINUOUS
10
159.367
20
-78.2856
11
159.366
21
-78.2808
0
LINE
8
BLACK
6
CONTINUOUS
10
159.366
20
-78.2808
11
159.365
21
-78.2786
0
LINE
8
BLACK
6
CONTINUOUS
10
159.365
20
-78.2786
11
159.365
21
-78.2765
0
LINE
8
BLACK
6
CONTINUOUS
10
159.365
20
-78.2765
11
159.364
21
-78.2714
0
LINE
8
BLACK
6
CONTINUOUS
10
159.364
20
-78.2714
11
159.363
21
-78.2663
0
LINE
8
BLACK
6
CONTINUOUS
10
159.363
20
-78.2663
11
159.363
21
-78.2641
0
LINE
8
BLACK
6
CONTINUOUS
10
159.363
20
-78.2641
11
159.363
21
-78.2619
0
LINE
8
BLACK
6
CONTINUOUS
10
159.363
20
-78.2619
11
159.363
21
-77.4524
0
LINE
8
BLACK
6
CONTINUOUS
10
159.363
20
-77.4524
11
159.363
21
-77.4513
0
LINE
8
BLACK
6
CONTINUOUS
10
159.363
20
-77.4513
11
159.365
21
-77.4368
0
LINE
8
BLACK
6
CONTINUOUS
10
159.365
20
-77.4368
11
159.369
21
-77.4228
0
LINE
8
BLACK
6
CONTINUOUS
10
159.369
20
-77.4228
11
159.376
21
-77.41
0
LINE
8
BLACK
6
CONTINUOUS
10
159.376
20
-77.41
11
159.386
21
-77.3988
0
LINE
8
BLACK
6
CONTINUOUS
10
159.386
20
-77.3988
11
159.397
21
-77.3896
0
LINE
8
BLACK
6
CONTINUOUS
10
159.397
20
-77.3896
11
159.41
21
-77.3828
0
LINE
8
BLACK
6
CONTINUOUS
10
159.41
20
-77.3828
11
159.424
21
-77.3787
0
LINE
8
BLACK
6
CONTINUOUS
10
159.424
20
-77.3787
11
159.439
21
-77.3774
0
LINE
8
BLACK
6
CONTINUOUS
10
159.439
20
-77.3774
11
159.453
21
-77.3789
0
LINE
8
BLACK
6
CONTINUOUS
10
159.453
20
-77.3789
11
159.467
21
-77.3832
0
LINE
8
BLACK
6
CONTINUOUS
10
159.467
20
-77.3832
11
159.48
21
-77.3902
0
LINE
8
BLACK
6
CONTINUOUS
10
159.48
20
-77.3902
11
159.491
21
-77.3995
0
LINE
8
BLACK
6
CONTINUOUS
10
159.491
20
-77.3995
11
159.501
21
-77.4109
0
LINE
8
BLACK
6
CONTINUOUS
10
159.501
20
-77.4109
11
159.507
21
-77.4238
0
LINE
8
BLACK
6
CONTINUOUS
10
159.507
20
-77.4238
11
159.512
21
-77.4378
0
LINE
8
BLACK
6
CONTINUOUS
10
159.512
20
-77.4378
11
159.513
21
-77.4524
0
LINE
8
BLACK
6
CONTINUOUS
10
159.513
20
-77.4524
11
159.513
21
-78.2442
0
LINE
8
BLACK
6
CONTINUOUS
10
159.513
20
-78.2442
11
159.547
21
-78.3127
0
LINE
8
BLACK
6
CONTINUOUS
10
159.547
20
-78.3127
11
159.578
21
-78.3431
0
LINE
8
BLACK
6
CONTINUOUS
10
159.578
20
-78.3431
11
159.646
21
-78.3774
0
LINE
8
BLACK
6
CONTINUOUS
10
159.646
20
-78.3774
11
159.801
21
-78.3774
0
LINE
8
BLACK
6
CONTINUOUS
10
159.801
20
-78.3774
11
159.87
21
-78.3431
0
LINE
8
BLACK
6
CONTINUOUS
10
159.87
20
-78.3431
11
159.9
21
-78.3127
0
LINE
8
BLACK
6
CONTINUOUS
10
159.9
20
-78.3127
11
159.935
21
-78.2442
0
LINE
8
BLACK
6
CONTINUOUS
10
159.935
20
-78.2442
11
159.935
21
-77.4524
0
LINE
8
BLACK
6
CONTINUOUS
10
159.935
20
-77.4524
11
159.935
21
-77.4513
0
LINE
8
BLACK
6
CONTINUOUS
10
159.935
20
-77.4513
11
159.936
21
-77.4368
0
LINE
8
BLACK
6
CONTINUOUS
10
159.936
20
-77.4368
11
159.941
21
-77.4228
0
LINE
8
BLACK
6
CONTINUOUS
10
159.941
20
-77.4228
11
159.948
21
-77.41
0
LINE
8
BLACK
6
CONTINUOUS
10
159.948
20
-77.41
11
159.957
21
-77.3988
0
LINE
8
BLACK
6
CONTINUOUS
10
159.957
20
-77.3988
11
159.968
21
-77.3896
0
LINE
8
BLACK
6
CONTINUOUS
10
159.968
20
-77.3896
11
159.981
21
-77.3828
0
LINE
8
BLACK
6
CONTINUOUS
10
159.981
20
-77.3828
11
159.995
21
-77.3787
0
LINE
8
BLACK
6
CONTINUOUS
10
159.995
20
-77.3787
11
160.01
21
-77.3774
0
LINE
8
BLACK
6
CONTINUOUS
10
160.01
20
-77.3774
11
160.025
21
-77.3789
0
CIRCLE
8
BLACK
10
171.069
20
-86.313
40
0.475
0
CIRCLE
8
BLACK
10
171.069
20
-88.813
40
0.475
0
CIRCLE
8
BLACK
10
171.069
20
-91.313
40
0.475
0
CIRCLE
8
BLACK
10
156.3
20
-75.05
40
0.4
0
CIRCLE
8
BLACK
10
163.92
20
-75.05
40
0.4
0
CIRCLE
8
BLACK
10
157.55
20
-70.4
40
0.4
0
CIRCLE
8
BLACK
10
157.55
20
-66.9
40
0.4
0
CIRCLE
8
BLACK
10
151.05
20
-71.5
40
0.4
0
CIRCLE
8
BLACK
10
151.05
20
-66.5
40
0.4
0
CIRCLE
8
BLACK
10
168.4
20
-66.85
40
0.45
0
CIRCLE
8
BLACK
10
168.4
20
-64.31
40
0.45
0
CIRCLE
8
BLACK
10
145.288
20
-95.123
40
0.475
0
CIRCLE
8
BLACK
10
147.788
20
-95.123
40
0.475
0
CIRCLE
8
BLACK
10
150.288
20
-95.123
40
0.475
0
CIRCLE
8
BLACK
10
169.4
20
-80.15
40
0.5
0
CIRCLE
8
BLACK
10
171.94
20
-80.15
40
0.5
0
CIRCLE
8
BLACK
10
169.4
20
-77.61
40
0.5
0
CIRCLE
8
BLACK
10
171.94
20
-77.61
40
0.5
0
CIRCLE
8
BLACK
10
169.4
20
-75.07
40
0.5
0
CIRCLE
8
BLACK
10
171.94
20
-75.07
40
0.5
0
CIRCLE
8
BLACK
10
144.9
20
-78.95
40
0.475
0
CIRCLE
8
BLACK
10
144.9
20
-81.45
40
0.475
0
CIRCLE
8
BLACK
10
144.9
20
-83.95
40
0.475
0
CIRCLE
8
BLACK
10
144.9
20
-86.45
40
0.475
0
CIRCLE
8
BLACK
10
145.75
20
-70.15
40
0.5
0
CIRCLE
8
BLACK
10
145.75
20
-67.65
40
0.5
0
CIRCLE
8
BLACK
10
164.3
20
-96.45
40
0.5
0
CIRCLE
8
BLACK
10
156.7
20
-96.45
40
0.5
0
CIRCLE
8
BLACK
10
156.33
20
-87.8
40
0.4
0
CIRCLE
8
BLACK
10
163.95
20
-87.8
40
0.4
0
CIRCLE
8
BLACK
10
164
20
-64.23
40
0.4
0
CIRCLE
8
BLACK
10
164
20
-71.85
40
0.4
  0
ENDSEC
  0
EOF
