  0
SECTION
  2
HEADER
  9
$ANGBASE
  50
0.0
  9
$ANGDIR
  70
1
  9
$MEASUREMENT
  70
1
  0
ENDSEC
  0
SECTION
  2
TABLES
  0
TABLE
  2
LTYPE
  70
4
  0
LTYPE
  5
40F
  2
CONTINUOUS
  70
0
  3
Solid line
  72
65
  73
0
  40
0.0
  0
LTYPE
  5
410
  2
DASHDOT
 70
0
  3
Dash Dot ____ _ ____ _
 72
65
 73
4
 40
2.0
 49
1.25
 49
-0.25
 49
0.25
 49
-0.25
  0
LTYPE
  5
411
  2
DASHED
 70
0
  3
Dashed __ __ __ __ __
 72
65
 73
2
 40
0.75
 49
0.5
 49
-0.25
  0
LTYPE
  5
43B
  2
DOTTED
 70
0
  3
Dotted .  .  .  .
 72
65
 73
2
 40
0.2
 49
0.0
 49
-0.2
  0
ENDTAB
  0
TABLE
  2
STYLE
  70
4
  0
STYLE
  2
KICAD
  70
0
  40
0
  41
1
  42
1
  50
0
  71
0
  3
isocp.shx
  0
STYLE
  2
KICADB
  70
0
  40
0
  41
1
  42
1
  50
0
  71
0
  3
isocp.shx
  0
STYLE
  2
KICADI
  70
0
  40
0
  41
1
  42
1
  50
15
  71
0
  3
isocp.shx
  0
STYLE
  2
KICADBI
  70
0
  40
0
  41
1
  42
1
  50
15
  71
0
  3
isocp.shx
  0
ENDTAB
  0
TABLE
  2
LAYER
  70
1
  0
LAYER
  2
BLACK
  70
0
  62
7
  6
CONTINUOUS
  0
ENDTAB
  0
ENDSEC
  0
SECTION
  2
ENTITIES
0
LINE
8
BLACK
6
CONTINUOUS
10
146.549
20
-69.3048
11
146.596
21
-69.319
0
LINE
8
BLACK
6
CONTINUOUS
10
146.596
20
-69.319
11
146.639
21
-69.3421
0
LINE
8
BLACK
6
CONTINUOUS
10
146.639
20
-69.3421
11
146.677
21
-69.3732
0
LINE
8
BLACK
6
CONTINUOUS
10
146.677
20
-69.3732
11
146.708
21
-69.4111
0
LINE
8
BLACK
6
CONTINUOUS
10
146.708
20
-69.4111
11
146.731
21
-69.4543
0
LINE
8
BLACK
6
CONTINUOUS
10
146.731
20
-69.4543
11
146.745
21
-69.5012
0
LINE
8
BLACK
6
CONTINUOUS
10
146.745
20
-69.5012
11
146.75
21
-69.55
0
LINE
8
BLACK
6
CONTINUOUS
10
146.75
20
-69.55
11
146.75
21
-69.9
0
LINE
8
BLACK
6
CONTINUOUS
10
146.75
20
-69.9
11
149.688
21
-69.9
0
LINE
8
BLACK
6
CONTINUOUS
10
149.688
20
-69.9
11
149.7
21
-69.8988
0
LINE
8
BLACK
6
CONTINUOUS
10
149.7
20
-69.8988
11
149.712
21
-69.9
0
LINE
8
BLACK
6
CONTINUOUS
10
149.712
20
-69.9
11
149.749
21
-69.9036
0
LINE
8
BLACK
6
CONTINUOUS
10
149.749
20
-69.9036
11
149.796
21
-69.9179
0
LINE
8
BLACK
6
CONTINUOUS
10
149.796
20
-69.9179
11
149.84
21
-69.9411
0
LINE
8
BLACK
6
CONTINUOUS
10
149.84
20
-69.9411
11
149.878
21
-69.9724
0
LINE
8
BLACK
6
CONTINUOUS
10
149.878
20
-69.9724
11
149.885
21
-69.9819
0
LINE
8
BLACK
6
CONTINUOUS
10
149.885
20
-69.9819
11
150.688
21
-70.7842
0
LINE
8
BLACK
6
CONTINUOUS
10
150.688
20
-70.7842
11
150.817
21
-70.7307
0
LINE
8
BLACK
6
CONTINUOUS
10
150.817
20
-70.7307
11
150.971
21
-70.7
0
LINE
8
BLACK
6
CONTINUOUS
10
150.971
20
-70.7
11
151.129
21
-70.7
0
LINE
8
BLACK
6
CONTINUOUS
10
151.129
20
-70.7
11
151.283
21
-70.7307
0
LINE
8
BLACK
6
CONTINUOUS
10
151.283
20
-70.7307
11
151.429
21
-70.791
0
LINE
8
BLACK
6
CONTINUOUS
10
151.429
20
-70.791
11
151.56
21
-70.8786
0
LINE
8
BLACK
6
CONTINUOUS
10
151.56
20
-70.8786
11
151.671
21
-70.99
0
LINE
8
BLACK
6
CONTINUOUS
10
151.671
20
-70.99
11
151.759
21
-71.1211
0
LINE
8
BLACK
6
CONTINUOUS
10
151.759
20
-71.1211
11
151.812
21
-71.25
0
LINE
8
BLACK
6
CONTINUOUS
10
151.812
20
-71.25
11
156.346
21
-71.25
0
LINE
8
BLACK
6
CONTINUOUS
10
156.346
20
-71.25
11
156.75
21
-70.8464
0
LINE
8
BLACK
6
CONTINUOUS
10
156.75
20
-70.8464
11
156.75
21
-69.6
0
LINE
8
BLACK
6
CONTINUOUS
10
156.75
20
-69.6
11
158.35
21
-69.6
0
LINE
8
BLACK
6
CONTINUOUS
10
158.35
20
-69.6
11
158.35
21
-70.15
0
LINE
8
BLACK
6
CONTINUOUS
10
158.35
20
-70.15
11
162.538
21
-70.15
0
LINE
8
BLACK
6
CONTINUOUS
10
162.538
20
-70.15
11
162.55
21
-70.1488
0
LINE
8
BLACK
6
CONTINUOUS
10
162.55
20
-70.1488
11
162.562
21
-70.15
0
LINE
8
BLACK
6
CONTINUOUS
10
162.562
20
-70.15
11
162.599
21
-70.1536
0
LINE
8
BLACK
6
CONTINUOUS
10
162.599
20
-70.1536
11
162.646
21
-70.1679
0
LINE
8
BLACK
6
CONTINUOUS
10
162.646
20
-70.1679
11
162.69
21
-70.1911
0
LINE
8
BLACK
6
CONTINUOUS
10
162.69
20
-70.1911
11
162.728
21
-70.2224
0
LINE
8
BLACK
6
CONTINUOUS
10
162.728
20
-70.2224
11
162.735
21
-70.2319
0
LINE
8
BLACK
6
CONTINUOUS
10
162.735
20
-70.2319
11
163.638
21
-71.1342
0
LINE
8
BLACK
6
CONTINUOUS
10
163.638
20
-71.1342
11
163.767
21
-71.0807
0
LINE
8
BLACK
6
CONTINUOUS
10
163.767
20
-71.0807
11
163.921
21
-71.05
0
LINE
8
BLACK
6
CONTINUOUS
10
163.921
20
-71.05
11
164.079
21
-71.05
0
LINE
8
BLACK
6
CONTINUOUS
10
164.079
20
-71.05
11
164.233
21
-71.0807
0
LINE
8
BLACK
6
CONTINUOUS
10
164.233
20
-71.0807
11
164.379
21
-71.141
0
LINE
8
BLACK
6
CONTINUOUS
10
164.379
20
-71.141
11
164.51
21
-71.2286
0
LINE
8
BLACK
6
CONTINUOUS
10
164.51
20
-71.2286
11
164.621
21
-71.34
0
LINE
8
BLACK
6
CONTINUOUS
10
164.621
20
-71.34
11
164.709
21
-71.4711
0
LINE
8
BLACK
6
CONTINUOUS
10
164.709
20
-71.4711
11
164.769
21
-71.6166
0
LINE
8
BLACK
6
CONTINUOUS
10
164.769
20
-71.6166
11
164.8
21
-71.7712
0
LINE
8
BLACK
6
CONTINUOUS
10
164.8
20
-71.7712
11
164.8
21
-71.9288
0
LINE
8
BLACK
6
CONTINUOUS
10
164.8
20
-71.9288
11
164.769
21
-72.0834
0
LINE
8
BLACK
6
CONTINUOUS
10
164.769
20
-72.0834
11
164.709
21
-72.2289
0
LINE
8
BLACK
6
CONTINUOUS
10
164.709
20
-72.2289
11
164.621
21
-72.36
0
LINE
8
BLACK
6
CONTINUOUS
10
164.621
20
-72.36
11
164.51
21
-72.4714
0
LINE
8
BLACK
6
CONTINUOUS
10
164.51
20
-72.4714
11
164.379
21
-72.559
0
LINE
8
BLACK
6
CONTINUOUS
10
164.379
20
-72.559
11
164.25
21
-72.6124
0
LINE
8
BLACK
6
CONTINUOUS
10
164.25
20
-72.6124
11
164.25
21
-74.3208
0
LINE
8
BLACK
6
CONTINUOUS
10
164.25
20
-74.3208
11
164.299
21
-74.341
0
LINE
8
BLACK
6
CONTINUOUS
10
164.299
20
-74.341
11
164.43
21
-74.4286
0
LINE
8
BLACK
6
CONTINUOUS
10
164.43
20
-74.4286
11
164.541
21
-74.54
0
LINE
8
BLACK
6
CONTINUOUS
10
164.541
20
-74.54
11
164.629
21
-74.6711
0
LINE
8
BLACK
6
CONTINUOUS
10
164.629
20
-74.6711
11
164.689
21
-74.8166
0
LINE
8
BLACK
6
CONTINUOUS
10
164.689
20
-74.8166
11
164.72
21
-74.9712
0
LINE
8
BLACK
6
CONTINUOUS
10
164.72
20
-74.9712
11
164.72
21
-75.1288
0
LINE
8
BLACK
6
CONTINUOUS
10
164.72
20
-75.1288
11
164.689
21
-75.2834
0
LINE
8
BLACK
6
CONTINUOUS
10
164.689
20
-75.2834
11
164.629
21
-75.4289
0
LINE
8
BLACK
6
CONTINUOUS
10
164.629
20
-75.4289
11
164.541
21
-75.56
0
LINE
8
BLACK
6
CONTINUOUS
10
164.541
20
-75.56
11
164.43
21
-75.6714
0
LINE
8
BLACK
6
CONTINUOUS
10
164.43
20
-75.6714
11
164.299
21
-75.759
0
LINE
8
BLACK
6
CONTINUOUS
10
164.299
20
-75.759
11
164.153
21
-75.8193
0
LINE
8
BLACK
6
CONTINUOUS
10
164.153
20
-75.8193
11
163.999
21
-75.85
0
LINE
8
BLACK
6
CONTINUOUS
10
163.999
20
-75.85
11
163.841
21
-75.85
0
LINE
8
BLACK
6
CONTINUOUS
10
163.841
20
-75.85
11
163.687
21
-75.8193
0
LINE
8
BLACK
6
CONTINUOUS
10
163.687
20
-75.8193
11
163.541
21
-75.759
0
LINE
8
BLACK
6
CONTINUOUS
10
163.541
20
-75.759
11
163.41
21
-75.6714
0
LINE
8
BLACK
6
CONTINUOUS
10
163.41
20
-75.6714
11
163.299
21
-75.56
0
LINE
8
BLACK
6
CONTINUOUS
10
163.299
20
-75.56
11
163.211
21
-75.4289
0
LINE
8
BLACK
6
CONTINUOUS
10
163.211
20
-75.4289
11
163.151
21
-75.2834
0
LINE
8
BLACK
6
CONTINUOUS
10
163.151
20
-75.2834
11
163.12
21
-75.1288
0
LINE
8
BLACK
6
CONTINUOUS
10
163.12
20
-75.1288
11
163.12
21
-74.9712
0
LINE
8
BLACK
6
CONTINUOUS
10
163.12
20
-74.9712
11
163.151
21
-74.8166
0
LINE
8
BLACK
6
CONTINUOUS
10
163.151
20
-74.8166
11
163.211
21
-74.6711
0
LINE
8
BLACK
6
CONTINUOUS
10
163.211
20
-74.6711
11
163.299
21
-74.54
0
LINE
8
BLACK
6
CONTINUOUS
10
163.299
20
-74.54
11
163.41
21
-74.4286
0
LINE
8
BLACK
6
CONTINUOUS
10
163.41
20
-74.4286
11
163.541
21
-74.341
0
LINE
8
BLACK
6
CONTINUOUS
10
163.541
20
-74.341
11
163.687
21
-74.2807
0
LINE
8
BLACK
6
CONTINUOUS
10
163.687
20
-74.2807
11
163.75
21
-74.2681
0
LINE
8
BLACK
6
CONTINUOUS
10
163.75
20
-74.2681
11
163.75
21
-72.6124
0
LINE
8
BLACK
6
CONTINUOUS
10
163.75
20
-72.6124
11
163.621
21
-72.559
0
LINE
8
BLACK
6
CONTINUOUS
10
163.621
20
-72.559
11
163.49
21
-72.4714
0
LINE
8
BLACK
6
CONTINUOUS
10
163.49
20
-72.4714
11
163.379
21
-72.36
0
LINE
8
BLACK
6
CONTINUOUS
10
163.379
20
-72.36
11
163.291
21
-72.2289
0
LINE
8
BLACK
6
CONTINUOUS
10
163.291
20
-72.2289
11
163.231
21
-72.0834
0
LINE
8
BLACK
6
CONTINUOUS
10
163.231
20
-72.0834
11
163.2
21
-71.9288
0
LINE
8
BLACK
6
CONTINUOUS
10
163.2
20
-71.9288
11
163.2
21
-71.7712
0
LINE
8
BLACK
6
CONTINUOUS
10
163.2
20
-71.7712
11
163.231
21
-71.6166
0
LINE
8
BLACK
6
CONTINUOUS
10
163.231
20
-71.6166
11
163.284
21
-71.4877
0
LINE
8
BLACK
6
CONTINUOUS
10
163.284
20
-71.4877
11
162.446
21
-70.65
0
LINE
8
BLACK
6
CONTINUOUS
10
162.446
20
-70.65
11
158.35
21
-70.65
0
LINE
8
BLACK
6
CONTINUOUS
10
158.35
20
-70.65
11
158.35
21
-71.2
0
LINE
8
BLACK
6
CONTINUOUS
10
158.35
20
-71.2
11
157.104
21
-71.2
0
LINE
8
BLACK
6
CONTINUOUS
10
157.104
20
-71.2
11
156.635
21
-71.6681
0
LINE
8
BLACK
6
CONTINUOUS
10
156.635
20
-71.6681
11
156.628
21
-71.6776
0
LINE
8
BLACK
6
CONTINUOUS
10
156.628
20
-71.6776
11
156.59
21
-71.7089
0
LINE
8
BLACK
6
CONTINUOUS
10
156.59
20
-71.7089
11
156.546
21
-71.7321
0
LINE
8
BLACK
6
CONTINUOUS
10
156.546
20
-71.7321
11
156.499
21
-71.7464
0
LINE
8
BLACK
6
CONTINUOUS
10
156.499
20
-71.7464
11
156.499
21
-71.7464
0
LINE
8
BLACK
6
CONTINUOUS
10
156.499
20
-71.7464
11
156.45
21
-71.7512
0
LINE
8
BLACK
6
CONTINUOUS
10
156.45
20
-71.7512
11
156.438
21
-71.75
0
LINE
8
BLACK
6
CONTINUOUS
10
156.438
20
-71.75
11
151.812
21
-71.75
0
LINE
8
BLACK
6
CONTINUOUS
10
151.812
20
-71.75
11
151.759
21
-71.8789
0
LINE
8
BLACK
6
CONTINUOUS
10
151.759
20
-71.8789
11
151.671
21
-72.01
0
LINE
8
BLACK
6
CONTINUOUS
10
151.671
20
-72.01
11
151.56
21
-72.1214
0
LINE
8
BLACK
6
CONTINUOUS
10
151.56
20
-72.1214
11
151.429
21
-72.209
0
LINE
8
BLACK
6
CONTINUOUS
10
151.429
20
-72.209
11
151.283
21
-72.2693
0
LINE
8
BLACK
6
CONTINUOUS
10
151.283
20
-72.2693
11
151.129
21
-72.3
0
LINE
8
BLACK
6
CONTINUOUS
10
151.129
20
-72.3
11
150.971
21
-72.3
0
LINE
8
BLACK
6
CONTINUOUS
10
150.971
20
-72.3
11
150.817
21
-72.2693
0
LINE
8
BLACK
6
CONTINUOUS
10
150.817
20
-72.2693
11
150.671
21
-72.209
0
LINE
8
BLACK
6
CONTINUOUS
10
150.671
20
-72.209
11
150.54
21
-72.1214
0
LINE
8
BLACK
6
CONTINUOUS
10
150.54
20
-72.1214
11
150.429
21
-72.01
0
LINE
8
BLACK
6
CONTINUOUS
10
150.429
20
-72.01
11
150.341
21
-71.8789
0
LINE
8
BLACK
6
CONTINUOUS
10
150.341
20
-71.8789
11
150.281
21
-71.7334
0
LINE
8
BLACK
6
CONTINUOUS
10
150.281
20
-71.7334
11
150.25
21
-71.5788
0
LINE
8
BLACK
6
CONTINUOUS
10
150.25
20
-71.5788
11
150.25
21
-71.4212
0
LINE
8
BLACK
6
CONTINUOUS
10
150.25
20
-71.4212
11
150.281
21
-71.2666
0
LINE
8
BLACK
6
CONTINUOUS
10
150.281
20
-71.2666
11
150.334
21
-71.1377
0
LINE
8
BLACK
6
CONTINUOUS
10
150.334
20
-71.1377
11
149.596
21
-70.4
0
LINE
8
BLACK
6
CONTINUOUS
10
149.596
20
-70.4
11
146.75
21
-70.4
0
LINE
8
BLACK
6
CONTINUOUS
10
146.75
20
-70.4
11
146.75
21
-70.75
0
LINE
8
BLACK
6
CONTINUOUS
10
146.75
20
-70.75
11
146.745
21
-70.7988
0
LINE
8
BLACK
6
CONTINUOUS
10
146.745
20
-70.7988
11
146.731
21
-70.8457
0
LINE
8
BLACK
6
CONTINUOUS
10
146.731
20
-70.8457
11
146.708
21
-70.8889
0
LINE
8
BLACK
6
CONTINUOUS
10
146.708
20
-70.8889
11
146.677
21
-70.9268
0
LINE
8
BLACK
6
CONTINUOUS
10
146.677
20
-70.9268
11
146.639
21
-70.9579
0
LINE
8
BLACK
6
CONTINUOUS
10
146.639
20
-70.9579
11
146.596
21
-70.981
0
LINE
8
BLACK
6
CONTINUOUS
10
146.596
20
-70.981
11
146.549
21
-70.9952
0
LINE
8
BLACK
6
CONTINUOUS
10
146.549
20
-70.9952
11
146.5
21
-71
0
LINE
8
BLACK
6
CONTINUOUS
10
146.5
20
-71
11
146
21
-71
0
LINE
8
BLACK
6
CONTINUOUS
10
146
20
-71
11
146
21
-78.0877
0
LINE
8
BLACK
6
CONTINUOUS
10
146
20
-78.0877
11
146.001
21
-78.1
0
LINE
8
BLACK
6
CONTINUOUS
10
146.001
20
-78.1
11
146
21
-78.1123
0
LINE
8
BLACK
6
CONTINUOUS
10
146
20
-78.1123
11
145.996
21
-78.149
0
LINE
8
BLACK
6
CONTINUOUS
10
145.996
20
-78.149
11
145.982
21
-78.1961
0
LINE
8
BLACK
6
CONTINUOUS
10
145.982
20
-78.1961
11
145.959
21
-78.2396
0
LINE
8
BLACK
6
CONTINUOUS
10
145.959
20
-78.2396
11
145.928
21
-78.2776
0
LINE
8
BLACK
6
CONTINUOUS
10
145.928
20
-78.2776
11
145.918
21
-78.2855
0
LINE
8
BLACK
6
CONTINUOUS
10
145.918
20
-78.2855
11
145.873
21
-78.3305
0
LINE
8
BLACK
6
CONTINUOUS
10
145.873
20
-78.3305
11
145.875
21
-78.35
0
LINE
8
BLACK
6
CONTINUOUS
10
145.875
20
-78.35
11
145.875
21
-79.55
0
LINE
8
BLACK
6
CONTINUOUS
10
145.875
20
-79.55
11
145.87
21
-79.5988
0
LINE
8
BLACK
6
CONTINUOUS
10
145.87
20
-79.5988
11
145.856
21
-79.6457
0
LINE
8
BLACK
6
CONTINUOUS
10
145.856
20
-79.6457
11
145.833
21
-79.6889
0
LINE
8
BLACK
6
CONTINUOUS
10
145.833
20
-79.6889
11
145.802
21
-79.7268
0
LINE
8
BLACK
6
CONTINUOUS
10
145.802
20
-79.7268
11
145.764
21
-79.7579
0
LINE
8
BLACK
6
CONTINUOUS
10
145.764
20
-79.7579
11
145.721
21
-79.781
0
LINE
8
BLACK
6
CONTINUOUS
10
145.721
20
-79.781
11
145.674
21
-79.7952
0
LINE
8
BLACK
6
CONTINUOUS
10
145.674
20
-79.7952
11
145.625
21
-79.8
0
LINE
8
BLACK
6
CONTINUOUS
10
145.625
20
-79.8
11
144.175
21
-79.8
0
LINE
8
BLACK
6
CONTINUOUS
10
144.175
20
-79.8
11
144.126
21
-79.7952
0
LINE
8
BLACK
6
CONTINUOUS
10
144.126
20
-79.7952
11
144.079
21
-79.781
0
LINE
8
BLACK
6
CONTINUOUS
10
144.079
20
-79.781
11
144.036
21
-79.7579
0
LINE
8
BLACK
6
CONTINUOUS
10
144.036
20
-79.7579
11
143.998
21
-79.7268
0
LINE
8
BLACK
6
CONTINUOUS
10
143.998
20
-79.7268
11
143.967
21
-79.6889
0
LINE
8
BLACK
6
CONTINUOUS
10
143.967
20
-79.6889
11
143.944
21
-79.6457
0
LINE
8
BLACK
6
CONTINUOUS
10
143.944
20
-79.6457
11
143.93
21
-79.5988
0
LINE
8
BLACK
6
CONTINUOUS
10
143.93
20
-79.5988
11
143.925
21
-79.55
0
LINE
8
BLACK
6
CONTINUOUS
10
143.925
20
-79.55
11
143.925
21
-79.2
0
LINE
8
BLACK
6
CONTINUOUS
10
143.925
20
-79.2
11
143.531
21
-79.2
0
LINE
8
BLACK
6
CONTINUOUS
10
143.531
20
-79.2
11
142.744
21
-79.9866
0
LINE
8
BLACK
6
CONTINUOUS
10
142.744
20
-79.9866
11
142.744
21
-94.0034
0
LINE
8
BLACK
6
CONTINUOUS
10
142.744
20
-94.0034
11
143.614
21
-94.873
0
LINE
8
BLACK
6
CONTINUOUS
10
143.614
20
-94.873
11
144.438
21
-94.873
0
LINE
8
BLACK
6
CONTINUOUS
10
144.438
20
-94.873
11
144.438
21
-94.398
0
LINE
8
BLACK
6
CONTINUOUS
10
144.438
20
-94.398
11
144.443
21
-94.3492
0
LINE
8
BLACK
6
CONTINUOUS
10
144.443
20
-94.3492
11
144.457
21
-94.3023
0
LINE
8
BLACK
6
CONTINUOUS
10
144.457
20
-94.3023
11
144.48
21
-94.2591
0
LINE
8
BLACK
6
CONTINUOUS
10
144.48
20
-94.2591
11
144.511
21
-94.2212
0
LINE
8
BLACK
6
CONTINUOUS
10
144.511
20
-94.2212
11
144.549
21
-94.1901
0
LINE
8
BLACK
6
CONTINUOUS
10
144.549
20
-94.1901
11
144.592
21
-94.167
0
LINE
8
BLACK
6
CONTINUOUS
10
144.592
20
-94.167
11
144.639
21
-94.1528
0
LINE
8
BLACK
6
CONTINUOUS
10
144.639
20
-94.1528
11
144.688
21
-94.148
0
LINE
8
BLACK
6
CONTINUOUS
10
144.688
20
-94.148
11
145.888
21
-94.148
0
LINE
8
BLACK
6
CONTINUOUS
10
145.888
20
-94.148
11
145.937
21
-94.1528
0
LINE
8
BLACK
6
CONTINUOUS
10
145.937
20
-94.1528
11
145.984
21
-94.167
0
LINE
8
BLACK
6
CONTINUOUS
10
145.984
20
-94.167
11
146.027
21
-94.1901
0
LINE
8
BLACK
6
CONTINUOUS
10
146.027
20
-94.1901
11
146.065
21
-94.2212
0
LINE
8
BLACK
6
CONTINUOUS
10
146.065
20
-94.2212
11
146.096
21
-94.2591
0
LINE
8
BLACK
6
CONTINUOUS
10
146.096
20
-94.2591
11
146.119
21
-94.3023
0
LINE
8
BLACK
6
CONTINUOUS
10
146.119
20
-94.3023
11
146.133
21
-94.3492
0
LINE
8
BLACK
6
CONTINUOUS
10
146.133
20
-94.3492
11
146.138
21
-94.398
0
LINE
8
BLACK
6
CONTINUOUS
10
146.138
20
-94.398
11
146.138
21
-95.848
0
LINE
8
BLACK
6
CONTINUOUS
10
146.138
20
-95.848
11
146.133
21
-95.8968
0
LINE
8
BLACK
6
CONTINUOUS
10
146.133
20
-95.8968
11
146.119
21
-95.9437
0
LINE
8
BLACK
6
CONTINUOUS
10
146.119
20
-95.9437
11
146.096
21
-95.9869
0
LINE
8
BLACK
6
CONTINUOUS
10
146.096
20
-95.9869
11
146.065
21
-96.0248
0
LINE
8
BLACK
6
CONTINUOUS
10
146.065
20
-96.0248
11
146.027
21
-96.0559
0
LINE
8
BLACK
6
CONTINUOUS
10
146.027
20
-96.0559
11
145.984
21
-96.079
0
LINE
8
BLACK
6
CONTINUOUS
10
145.984
20
-96.079
11
145.937
21
-96.0932
0
LINE
8
BLACK
6
CONTINUOUS
10
145.937
20
-96.0932
11
145.888
21
-96.098
0
LINE
8
BLACK
6
CONTINUOUS
10
145.888
20
-96.098
11
145.601
21
-96.098
0
LINE
8
BLACK
6
CONTINUOUS
10
145.601
20
-96.098
11
146.535
21
-97.032
0
LINE
8
BLACK
6
CONTINUOUS
10
146.535
20
-97.032
11
155.764
21
-97.032
0
LINE
8
BLACK
6
CONTINUOUS
10
155.764
20
-97.032
11
155.837
21
-96.959
0
LINE
8
BLACK
6
CONTINUOUS
10
155.837
20
-96.959
11
155.814
21
-96.9237
0
LINE
8
BLACK
6
CONTINUOUS
10
155.814
20
-96.9237
11
155.738
21
-96.7417
0
LINE
8
BLACK
6
CONTINUOUS
10
155.738
20
-96.7417
11
155.7
21
-96.5485
0
LINE
8
BLACK
6
CONTINUOUS
10
155.7
20
-96.5485
11
155.7
21
-96.3515
0
LINE
8
BLACK
6
CONTINUOUS
10
155.7
20
-96.3515
11
155.738
21
-96.1583
0
LINE
8
BLACK
6
CONTINUOUS
10
155.738
20
-96.1583
11
155.814
21
-95.9763
0
LINE
8
BLACK
6
CONTINUOUS
10
155.814
20
-95.9763
11
155.923
21
-95.8125
0
LINE
8
BLACK
6
CONTINUOUS
10
155.923
20
-95.8125
11
156.063
21
-95.6732
0
LINE
8
BLACK
6
CONTINUOUS
10
156.063
20
-95.6732
11
156.226
21
-95.5638
0
LINE
8
BLACK
6
CONTINUOUS
10
156.226
20
-95.5638
11
156.408
21
-95.4884
0
LINE
8
BLACK
6
CONTINUOUS
10
156.408
20
-95.4884
11
156.602
21
-95.45
0
LINE
8
BLACK
6
CONTINUOUS
10
156.602
20
-95.45
11
156.798
21
-95.45
0
LINE
8
BLACK
6
CONTINUOUS
10
156.798
20
-95.45
11
156.992
21
-95.4884
0
LINE
8
BLACK
6
CONTINUOUS
10
156.992
20
-95.4884
11
157.174
21
-95.5638
0
LINE
8
BLACK
6
CONTINUOUS
10
157.174
20
-95.5638
11
157.337
21
-95.6732
0
LINE
8
BLACK
6
CONTINUOUS
10
157.337
20
-95.6732
11
157.477
21
-95.8125
0
LINE
8
BLACK
6
CONTINUOUS
10
157.477
20
-95.8125
11
157.586
21
-95.9763
0
LINE
8
BLACK
6
CONTINUOUS
10
157.586
20
-95.9763
11
157.662
21
-96.1583
0
LINE
8
BLACK
6
CONTINUOUS
10
157.662
20
-96.1583
11
157.7
21
-96.3515
0
LINE
8
BLACK
6
CONTINUOUS
10
157.7
20
-96.3515
11
157.7
21
-96.5485
0
LINE
8
BLACK
6
CONTINUOUS
10
157.7
20
-96.5485
11
157.662
21
-96.7417
0
LINE
8
BLACK
6
CONTINUOUS
10
157.662
20
-96.7417
11
157.586
21
-96.9237
0
LINE
8
BLACK
6
CONTINUOUS
10
157.586
20
-96.9237
11
157.563
21
-96.959
0
LINE
8
BLACK
6
CONTINUOUS
10
157.563
20
-96.959
11
159.287
21
-98.683
0
LINE
8
BLACK
6
CONTINUOUS
10
159.287
20
-98.683
11
166.012
21
-98.683
0
LINE
8
BLACK
6
CONTINUOUS
10
166.012
20
-98.683
11
167.263
21
-97.4324
0
LINE
8
BLACK
6
CONTINUOUS
10
167.263
20
-97.4324
11
167.263
21
-96.0593
0
LINE
8
BLACK
6
CONTINUOUS
10
167.263
20
-96.0593
11
167.262
21
-96.047
0
LINE
8
BLACK
6
CONTINUOUS
10
167.262
20
-96.047
11
167.267
21
-95.998
0
LINE
8
BLACK
6
CONTINUOUS
10
167.267
20
-95.998
11
167.281
21
-95.9509
0
LINE
8
BLACK
6
CONTINUOUS
10
167.281
20
-95.9509
11
167.281
21
-95.9509
0
LINE
8
BLACK
6
CONTINUOUS
10
167.281
20
-95.9509
11
167.304
21
-95.9074
0
LINE
8
BLACK
6
CONTINUOUS
10
167.304
20
-95.9074
11
167.335
21
-95.8694
0
LINE
8
BLACK
6
CONTINUOUS
10
167.335
20
-95.8694
11
167.345
21
-95.8615
0
LINE
8
BLACK
6
CONTINUOUS
10
167.345
20
-95.8615
11
170.819
21
-92.3874
0
LINE
8
BLACK
6
CONTINUOUS
10
170.819
20
-92.3874
11
170.819
21
-92.163
0
LINE
8
BLACK
6
CONTINUOUS
10
170.819
20
-92.163
11
170.344
21
-92.163
0
LINE
8
BLACK
6
CONTINUOUS
10
170.344
20
-92.163
11
170.295
21
-92.1582
0
LINE
8
BLACK
6
CONTINUOUS
10
170.295
20
-92.1582
11
170.248
21
-92.144
0
LINE
8
BLACK
6
CONTINUOUS
10
170.248
20
-92.144
11
170.205
21
-92.1209
0
LINE
8
BLACK
6
CONTINUOUS
10
170.205
20
-92.1209
11
170.167
21
-92.0898
0
LINE
8
BLACK
6
CONTINUOUS
10
170.167
20
-92.0898
11
170.136
21
-92.0519
0
LINE
8
BLACK
6
CONTINUOUS
10
170.136
20
-92.0519
11
170.113
21
-92.0087
0
LINE
8
BLACK
6
CONTINUOUS
10
170.113
20
-92.0087
11
170.099
21
-91.9618
0
LINE
8
BLACK
6
CONTINUOUS
10
170.099
20
-91.9618
11
170.094
21
-91.913
0
LINE
8
BLACK
6
CONTINUOUS
10
170.094
20
-91.913
11
170.094
21
-90.713
0
LINE
8
BLACK
6
CONTINUOUS
10
170.094
20
-90.713
11
170.099
21
-90.6642
0
LINE
8
BLACK
6
CONTINUOUS
10
170.099
20
-90.6642
11
170.113
21
-90.6173
0
LINE
8
BLACK
6
CONTINUOUS
10
170.113
20
-90.6173
11
170.136
21
-90.5741
0
LINE
8
BLACK
6
CONTINUOUS
10
170.136
20
-90.5741
11
170.167
21
-90.5362
0
LINE
8
BLACK
6
CONTINUOUS
10
170.167
20
-90.5362
11
170.205
21
-90.5051
0
LINE
8
BLACK
6
CONTINUOUS
10
170.205
20
-90.5051
11
170.248
21
-90.482
0
LINE
8
BLACK
6
CONTINUOUS
10
170.248
20
-90.482
11
170.295
21
-90.4678
0
LINE
8
BLACK
6
CONTINUOUS
10
170.295
20
-90.4678
11
170.344
21
-90.463
0
LINE
8
BLACK
6
CONTINUOUS
10
170.344
20
-90.463
11
171.794
21
-90.463
0
LINE
8
BLACK
6
CONTINUOUS
10
171.794
20
-90.463
11
171.843
21
-90.4678
0
LINE
8
BLACK
6
CONTINUOUS
10
171.843
20
-90.4678
11
171.89
21
-90.482
0
LINE
8
BLACK
6
CONTINUOUS
10
171.89
20
-90.482
11
171.933
21
-90.5051
0
LINE
8
BLACK
6
CONTINUOUS
10
171.933
20
-90.5051
11
171.971
21
-90.5362
0
LINE
8
BLACK
6
CONTINUOUS
10
171.971
20
-90.5362
11
172.002
21
-90.5741
0
LINE
8
BLACK
6
CONTINUOUS
10
172.002
20
-90.5741
11
172.025
21
-90.6173
0
LINE
8
BLACK
6
CONTINUOUS
10
172.025
20
-90.6173
11
172.039
21
-90.6642
0
LINE
8
BLACK
6
CONTINUOUS
10
172.039
20
-90.6642
11
172.044
21
-90.713
0
LINE
8
BLACK
6
CONTINUOUS
10
172.044
20
-90.713
11
172.044
21
-91.063
0
LINE
8
BLACK
6
CONTINUOUS
10
172.044
20
-91.063
11
172.235
21
-91.063
0
LINE
8
BLACK
6
CONTINUOUS
10
172.235
20
-91.063
11
173.359
21
-89.9394
0
LINE
8
BLACK
6
CONTINUOUS
10
173.359
20
-89.9394
11
173.359
21
-81.9226
0
LINE
8
BLACK
6
CONTINUOUS
10
173.359
20
-81.9226
11
172.341
21
-80.9041
0
LINE
8
BLACK
6
CONTINUOUS
10
172.341
20
-80.9041
11
172.188
21
-80.9673
0
LINE
8
BLACK
6
CONTINUOUS
10
172.188
20
-80.9673
11
172.024
21
-81
0
LINE
8
BLACK
6
CONTINUOUS
10
172.024
20
-81
11
171.856
21
-81
0
LINE
8
BLACK
6
CONTINUOUS
10
171.856
20
-81
11
171.692
21
-80.9673
0
LINE
8
BLACK
6
CONTINUOUS
10
171.692
20
-80.9673
11
171.537
21
-80.9033
0
LINE
8
BLACK
6
CONTINUOUS
10
171.537
20
-80.9033
11
171.398
21
-80.8102
0
LINE
8
BLACK
6
CONTINUOUS
10
171.398
20
-80.8102
11
171.28
21
-80.6918
0
LINE
8
BLACK
6
CONTINUOUS
10
171.28
20
-80.6918
11
171.187
21
-80.5526
0
LINE
8
BLACK
6
CONTINUOUS
10
171.187
20
-80.5526
11
171.123
21
-80.3979
0
LINE
8
BLACK
6
CONTINUOUS
10
171.123
20
-80.3979
11
171.09
21
-80.2337
0
LINE
8
BLACK
6
CONTINUOUS
10
171.09
20
-80.2337
11
171.09
21
-80.0663
0
LINE
8
BLACK
6
CONTINUOUS
10
171.09
20
-80.0663
11
171.123
21
-79.9021
0
LINE
8
BLACK
6
CONTINUOUS
10
171.123
20
-79.9021
11
171.187
21
-79.7474
0
LINE
8
BLACK
6
CONTINUOUS
10
171.187
20
-79.7474
11
171.28
21
-79.6082
0
LINE
8
BLACK
6
CONTINUOUS
10
171.28
20
-79.6082
11
171.398
21
-79.4898
0
LINE
8
BLACK
6
CONTINUOUS
10
171.398
20
-79.4898
11
171.537
21
-79.3967
0
LINE
8
BLACK
6
CONTINUOUS
10
171.537
20
-79.3967
11
171.692
21
-79.3327
0
LINE
8
BLACK
6
CONTINUOUS
10
171.692
20
-79.3327
11
171.856
21
-79.3
0
LINE
8
BLACK
6
CONTINUOUS
10
171.856
20
-79.3
11
172.024
21
-79.3
0
LINE
8
BLACK
6
CONTINUOUS
10
172.024
20
-79.3
11
172.188
21
-79.3327
0
LINE
8
BLACK
6
CONTINUOUS
10
172.188
20
-79.3327
11
172.343
21
-79.3967
0
LINE
8
BLACK
6
CONTINUOUS
10
172.343
20
-79.3967
11
172.482
21
-79.4898
0
LINE
8
BLACK
6
CONTINUOUS
10
172.482
20
-79.4898
11
172.6
21
-79.6082
0
LINE
8
BLACK
6
CONTINUOUS
10
172.6
20
-79.6082
11
172.693
21
-79.7474
0
LINE
8
BLACK
6
CONTINUOUS
10
172.693
20
-79.7474
11
172.757
21
-79.9021
0
LINE
8
BLACK
6
CONTINUOUS
10
172.757
20
-79.9021
11
172.79
21
-80.0663
0
LINE
8
BLACK
6
CONTINUOUS
10
172.79
20
-80.0663
11
172.79
21
-80.2337
0
LINE
8
BLACK
6
CONTINUOUS
10
172.79
20
-80.2337
11
172.757
21
-80.3979
0
LINE
8
BLACK
6
CONTINUOUS
10
172.757
20
-80.3979
11
172.694
21
-80.5506
0
LINE
8
BLACK
6
CONTINUOUS
10
172.694
20
-80.5506
11
173.777
21
-81.6335
0
LINE
8
BLACK
6
CONTINUOUS
10
173.777
20
-81.6335
11
173.787
21
-81.6414
0
LINE
8
BLACK
6
CONTINUOUS
10
173.787
20
-81.6414
11
173.818
21
-81.6794
0
LINE
8
BLACK
6
CONTINUOUS
10
173.818
20
-81.6794
11
173.841
21
-81.7229
0
LINE
8
BLACK
6
CONTINUOUS
10
173.841
20
-81.7229
11
173.855
21
-81.77
0
LINE
8
BLACK
6
CONTINUOUS
10
173.855
20
-81.77
11
173.859
21
-81.8067
0
LINE
8
BLACK
6
CONTINUOUS
10
173.859
20
-81.8067
11
173.86
21
-81.819
0
LINE
8
BLACK
6
CONTINUOUS
10
173.86
20
-81.819
11
173.859
21
-81.8313
0
LINE
8
BLACK
6
CONTINUOUS
10
173.859
20
-81.8313
11
173.859
21
-90.0307
0
LINE
8
BLACK
6
CONTINUOUS
10
173.859
20
-90.0307
11
173.86
21
-90.043
0
LINE
8
BLACK
6
CONTINUOUS
10
173.86
20
-90.043
11
173.855
21
-90.092
0
LINE
8
BLACK
6
CONTINUOUS
10
173.855
20
-90.092
11
173.841
21
-90.1391
0
LINE
8
BLACK
6
CONTINUOUS
10
173.841
20
-90.1391
11
173.841
21
-90.1391
0
LINE
8
BLACK
6
CONTINUOUS
10
173.841
20
-90.1391
11
173.818
21
-90.1826
0
LINE
8
BLACK
6
CONTINUOUS
10
173.818
20
-90.1826
11
173.787
21
-90.2206
0
LINE
8
BLACK
6
CONTINUOUS
10
173.787
20
-90.2206
11
173.777
21
-90.2285
0
LINE
8
BLACK
6
CONTINUOUS
10
173.777
20
-90.2285
11
172.524
21
-91.4811
0
LINE
8
BLACK
6
CONTINUOUS
10
172.524
20
-91.4811
11
172.517
21
-91.4906
0
LINE
8
BLACK
6
CONTINUOUS
10
172.517
20
-91.4906
11
172.479
21
-91.5219
0
LINE
8
BLACK
6
CONTINUOUS
10
172.479
20
-91.5219
11
172.435
21
-91.5451
0
LINE
8
BLACK
6
CONTINUOUS
10
172.435
20
-91.5451
11
172.388
21
-91.5594
0
LINE
8
BLACK
6
CONTINUOUS
10
172.388
20
-91.5594
11
172.339
21
-91.5642
0
LINE
8
BLACK
6
CONTINUOUS
10
172.339
20
-91.5642
11
172.327
21
-91.563
0
LINE
8
BLACK
6
CONTINUOUS
10
172.327
20
-91.563
11
172.044
21
-91.563
0
LINE
8
BLACK
6
CONTINUOUS
10
172.044
20
-91.563
11
172.044
21
-91.913
0
LINE
8
BLACK
6
CONTINUOUS
10
172.044
20
-91.913
11
172.039
21
-91.9618
0
LINE
8
BLACK
6
CONTINUOUS
10
172.039
20
-91.9618
11
172.025
21
-92.0087
0
LINE
8
BLACK
6
CONTINUOUS
10
172.025
20
-92.0087
11
172.002
21
-92.0519
0
LINE
8
BLACK
6
CONTINUOUS
10
172.002
20
-92.0519
11
171.971
21
-92.0898
0
LINE
8
BLACK
6
CONTINUOUS
10
171.971
20
-92.0898
11
171.933
21
-92.1209
0
LINE
8
BLACK
6
CONTINUOUS
10
171.933
20
-92.1209
11
171.89
21
-92.144
0
LINE
8
BLACK
6
CONTINUOUS
10
171.89
20
-92.144
11
171.843
21
-92.1582
0
LINE
8
BLACK
6
CONTINUOUS
10
171.843
20
-92.1582
11
171.794
21
-92.163
0
LINE
8
BLACK
6
CONTINUOUS
10
171.794
20
-92.163
11
171.319
21
-92.163
0
LINE
8
BLACK
6
CONTINUOUS
10
171.319
20
-92.163
11
171.319
21
-92.4787
0
LINE
8
BLACK
6
CONTINUOUS
10
171.319
20
-92.4787
11
171.32
21
-92.491
0
LINE
8
BLACK
6
CONTINUOUS
10
171.32
20
-92.491
11
171.319
21
-92.5033
0
LINE
8
BLACK
6
CONTINUOUS
10
171.319
20
-92.5033
11
171.319
21
-92.5033
0
LINE
8
BLACK
6
CONTINUOUS
10
171.319
20
-92.5033
11
171.315
21
-92.54
0
LINE
8
BLACK
6
CONTINUOUS
10
171.315
20
-92.54
11
171.301
21
-92.5871
0
LINE
8
BLACK
6
CONTINUOUS
10
171.301
20
-92.5871
11
171.278
21
-92.6306
0
LINE
8
BLACK
6
CONTINUOUS
10
171.278
20
-92.6306
11
171.247
21
-92.6686
0
LINE
8
BLACK
6
CONTINUOUS
10
171.247
20
-92.6686
11
171.237
21
-92.6765
0
LINE
8
BLACK
6
CONTINUOUS
10
171.237
20
-92.6765
11
167.763
21
-96.1506
0
LINE
8
BLACK
6
CONTINUOUS
10
167.763
20
-96.1506
11
167.763
21
-97.5237
0
LINE
8
BLACK
6
CONTINUOUS
10
167.763
20
-97.5237
11
167.764
21
-97.536
0
LINE
8
BLACK
6
CONTINUOUS
10
167.764
20
-97.536
11
167.763
21
-97.5483
0
LINE
8
BLACK
6
CONTINUOUS
10
167.763
20
-97.5483
11
167.763
21
-97.5483
0
LINE
8
BLACK
6
CONTINUOUS
10
167.763
20
-97.5483
11
167.759
21
-97.585
0
LINE
8
BLACK
6
CONTINUOUS
10
167.759
20
-97.585
11
167.745
21
-97.6321
0
LINE
8
BLACK
6
CONTINUOUS
10
167.745
20
-97.6321
11
167.722
21
-97.6756
0
LINE
8
BLACK
6
CONTINUOUS
10
167.722
20
-97.6756
11
167.691
21
-97.7136
0
LINE
8
BLACK
6
CONTINUOUS
10
167.691
20
-97.7136
11
167.681
21
-97.7215
0
LINE
8
BLACK
6
CONTINUOUS
10
167.681
20
-97.7215
11
166.301
21
-99.1011
0
LINE
8
BLACK
6
CONTINUOUS
10
166.301
20
-99.1011
11
166.294
21
-99.1106
0
LINE
8
BLACK
6
CONTINUOUS
10
166.294
20
-99.1106
11
166.256
21
-99.1419
0
LINE
8
BLACK
6
CONTINUOUS
10
166.256
20
-99.1419
11
166.212
21
-99.1651
0
LINE
8
BLACK
6
CONTINUOUS
10
166.212
20
-99.1651
11
166.165
21
-99.1794
0
LINE
8
BLACK
6
CONTINUOUS
10
166.165
20
-99.1794
11
166.165
21
-99.1794
0
LINE
8
BLACK
6
CONTINUOUS
10
166.165
20
-99.1794
11
166.116
21
-99.1842
0
LINE
8
BLACK
6
CONTINUOUS
10
166.116
20
-99.1842
11
166.104
21
-99.183
0
LINE
8
BLACK
6
CONTINUOUS
10
166.104
20
-99.183
11
159.195
21
-99.183
0
LINE
8
BLACK
6
CONTINUOUS
10
159.195
20
-99.183
11
159.183
21
-99.1842
0
LINE
8
BLACK
6
CONTINUOUS
10
159.183
20
-99.1842
11
159.171
21
-99.183
0
LINE
8
BLACK
6
CONTINUOUS
10
159.171
20
-99.183
11
159.171
21
-99.183
0
LINE
8
BLACK
6
CONTINUOUS
10
159.171
20
-99.183
11
159.134
21
-99.1794
0
LINE
8
BLACK
6
CONTINUOUS
10
159.134
20
-99.1794
11
159.087
21
-99.1651
0
LINE
8
BLACK
6
CONTINUOUS
10
159.087
20
-99.1651
11
159.043
21
-99.1419
0
LINE
8
BLACK
6
CONTINUOUS
10
159.043
20
-99.1419
11
159.005
21
-99.1106
0
LINE
8
BLACK
6
CONTINUOUS
10
159.005
20
-99.1106
11
158.998
21
-99.1011
0
LINE
8
BLACK
6
CONTINUOUS
10
158.998
20
-99.1011
11
157.209
21
-97.3126
0
LINE
8
BLACK
6
CONTINUOUS
10
157.209
20
-97.3126
11
157.174
21
-97.3362
0
LINE
8
BLACK
6
CONTINUOUS
10
157.174
20
-97.3362
11
156.992
21
-97.4116
0
LINE
8
BLACK
6
CONTINUOUS
10
156.992
20
-97.4116
11
156.798
21
-97.45
0
LINE
8
BLACK
6
CONTINUOUS
10
156.798
20
-97.45
11
156.602
21
-97.45
0
LINE
8
BLACK
6
CONTINUOUS
10
156.602
20
-97.45
11
156.408
21
-97.4116
0
LINE
8
BLACK
6
CONTINUOUS
10
156.408
20
-97.4116
11
156.226
21
-97.3362
0
LINE
8
BLACK
6
CONTINUOUS
10
156.226
20
-97.3362
11
156.191
21
-97.3126
0
LINE
8
BLACK
6
CONTINUOUS
10
156.191
20
-97.3126
11
156.053
21
-97.4501
0
LINE
8
BLACK
6
CONTINUOUS
10
156.053
20
-97.4501
11
156.046
21
-97.4596
0
LINE
8
BLACK
6
CONTINUOUS
10
156.046
20
-97.4596
11
156.008
21
-97.4909
0
LINE
8
BLACK
6
CONTINUOUS
10
156.008
20
-97.4909
11
155.964
21
-97.5141
0
LINE
8
BLACK
6
CONTINUOUS
10
155.964
20
-97.5141
11
155.917
21
-97.5284
0
LINE
8
BLACK
6
CONTINUOUS
10
155.917
20
-97.5284
11
155.868
21
-97.5332
0
LINE
8
BLACK
6
CONTINUOUS
10
155.868
20
-97.5332
11
155.856
21
-97.532
0
LINE
8
BLACK
6
CONTINUOUS
10
155.856
20
-97.532
11
146.443
21
-97.532
0
LINE
8
BLACK
6
CONTINUOUS
10
146.443
20
-97.532
11
146.431
21
-97.5332
0
LINE
8
BLACK
6
CONTINUOUS
10
146.431
20
-97.5332
11
146.382
21
-97.5284
0
LINE
8
BLACK
6
CONTINUOUS
10
146.382
20
-97.5284
11
146.335
21
-97.5141
0
LINE
8
BLACK
6
CONTINUOUS
10
146.335
20
-97.5141
11
146.291
21
-97.4909
0
LINE
8
BLACK
6
CONTINUOUS
10
146.291
20
-97.4909
11
146.253
21
-97.4596
0
LINE
8
BLACK
6
CONTINUOUS
10
146.253
20
-97.4596
11
146.246
21
-97.4501
0
LINE
8
BLACK
6
CONTINUOUS
10
146.246
20
-97.4501
11
145.12
21
-96.3245
0
LINE
8
BLACK
6
CONTINUOUS
10
145.12
20
-96.3245
11
145.11
21
-96.3166
0
LINE
8
BLACK
6
CONTINUOUS
10
145.11
20
-96.3166
11
145.079
21
-96.2786
0
LINE
8
BLACK
6
CONTINUOUS
10
145.079
20
-96.2786
11
145.067
21
-96.2559
0
LINE
8
BLACK
6
CONTINUOUS
10
145.067
20
-96.2559
11
145.056
21
-96.2351
0
LINE
8
BLACK
6
CONTINUOUS
10
145.056
20
-96.2351
11
145.042
21
-96.188
0
LINE
8
BLACK
6
CONTINUOUS
10
145.042
20
-96.188
11
145.037
21
-96.139
0
LINE
8
BLACK
6
CONTINUOUS
10
145.037
20
-96.139
11
145.038
21
-96.1267
0
LINE
8
BLACK
6
CONTINUOUS
10
145.038
20
-96.1267
11
145.038
21
-96.098
0
LINE
8
BLACK
6
CONTINUOUS
10
145.038
20
-96.098
11
144.688
21
-96.098
0
LINE
8
BLACK
6
CONTINUOUS
10
144.688
20
-96.098
11
144.639
21
-96.0932
0
LINE
8
BLACK
6
CONTINUOUS
10
144.639
20
-96.0932
11
144.592
21
-96.079
0
LINE
8
BLACK
6
CONTINUOUS
10
144.592
20
-96.079
11
144.549
21
-96.0559
0
LINE
8
BLACK
6
CONTINUOUS
10
144.549
20
-96.0559
11
144.511
21
-96.0248
0
LINE
8
BLACK
6
CONTINUOUS
10
144.511
20
-96.0248
11
144.48
21
-95.9869
0
LINE
8
BLACK
6
CONTINUOUS
10
144.48
20
-95.9869
11
144.457
21
-95.9437
0
LINE
8
BLACK
6
CONTINUOUS
10
144.457
20
-95.9437
11
144.443
21
-95.8968
0
LINE
8
BLACK
6
CONTINUOUS
10
144.443
20
-95.8968
11
144.438
21
-95.848
0
LINE
8
BLACK
6
CONTINUOUS
10
144.438
20
-95.848
11
144.438
21
-95.373
0
LINE
8
BLACK
6
CONTINUOUS
10
144.438
20
-95.373
11
143.522
21
-95.373
0
LINE
8
BLACK
6
CONTINUOUS
10
143.522
20
-95.373
11
143.51
21
-95.3742
0
LINE
8
BLACK
6
CONTINUOUS
10
143.51
20
-95.3742
11
143.461
21
-95.3694
0
LINE
8
BLACK
6
CONTINUOUS
10
143.461
20
-95.3694
11
143.414
21
-95.3551
0
LINE
8
BLACK
6
CONTINUOUS
10
143.414
20
-95.3551
11
143.37
21
-95.3319
0
LINE
8
BLACK
6
CONTINUOUS
10
143.37
20
-95.3319
11
143.332
21
-95.3006
0
LINE
8
BLACK
6
CONTINUOUS
10
143.332
20
-95.3006
11
143.325
21
-95.2911
0
LINE
8
BLACK
6
CONTINUOUS
10
143.325
20
-95.2911
11
142.326
21
-94.2925
0
LINE
8
BLACK
6
CONTINUOUS
10
142.326
20
-94.2925
11
142.316
21
-94.2846
0
LINE
8
BLACK
6
CONTINUOUS
10
142.316
20
-94.2846
11
142.285
21
-94.2466
0
LINE
8
BLACK
6
CONTINUOUS
10
142.285
20
-94.2466
11
142.262
21
-94.2031
0
LINE
8
BLACK
6
CONTINUOUS
10
142.262
20
-94.2031
11
142.258
21
-94.1901
0
LINE
8
BLACK
6
CONTINUOUS
10
142.258
20
-94.1901
11
142.248
21
-94.156
0
LINE
8
BLACK
6
CONTINUOUS
10
142.248
20
-94.156
11
142.243
21
-94.107
0
LINE
8
BLACK
6
CONTINUOUS
10
142.243
20
-94.107
11
142.244
21
-94.0947
0
LINE
8
BLACK
6
CONTINUOUS
10
142.244
20
-94.0947
11
142.244
21
-79.8953
0
LINE
8
BLACK
6
CONTINUOUS
10
142.244
20
-79.8953
11
142.243
21
-79.883
0
LINE
8
BLACK
6
CONTINUOUS
10
142.243
20
-79.883
11
142.248
21
-79.834
0
LINE
8
BLACK
6
CONTINUOUS
10
142.248
20
-79.834
11
142.262
21
-79.7869
0
LINE
8
BLACK
6
CONTINUOUS
10
142.262
20
-79.7869
11
142.285
21
-79.7434
0
LINE
8
BLACK
6
CONTINUOUS
10
142.285
20
-79.7434
11
142.287
21
-79.7414
0
LINE
8
BLACK
6
CONTINUOUS
10
142.287
20
-79.7414
11
142.316
21
-79.7054
0
LINE
8
BLACK
6
CONTINUOUS
10
142.316
20
-79.7054
11
142.326
21
-79.6975
0
LINE
8
BLACK
6
CONTINUOUS
10
142.326
20
-79.6975
11
143.242
21
-78.7819
0
LINE
8
BLACK
6
CONTINUOUS
10
143.242
20
-78.7819
11
143.249
21
-78.7724
0
LINE
8
BLACK
6
CONTINUOUS
10
143.249
20
-78.7724
11
143.287
21
-78.7411
0
LINE
8
BLACK
6
CONTINUOUS
10
143.287
20
-78.7411
11
143.331
21
-78.7179
0
LINE
8
BLACK
6
CONTINUOUS
10
143.331
20
-78.7179
11
143.378
21
-78.7036
0
LINE
8
BLACK
6
CONTINUOUS
10
143.378
20
-78.7036
11
143.415
21
-78.7
0
LINE
8
BLACK
6
CONTINUOUS
10
143.415
20
-78.7
11
143.415
21
-78.7
0
LINE
8
BLACK
6
CONTINUOUS
10
143.415
20
-78.7
11
143.427
21
-78.6988
0
LINE
8
BLACK
6
CONTINUOUS
10
143.427
20
-78.6988
11
143.439
21
-78.7
0
LINE
8
BLACK
6
CONTINUOUS
10
143.439
20
-78.7
11
143.925
21
-78.7
0
LINE
8
BLACK
6
CONTINUOUS
10
143.925
20
-78.7
11
143.925
21
-78.35
0
LINE
8
BLACK
6
CONTINUOUS
10
143.925
20
-78.35
11
143.93
21
-78.3012
0
LINE
8
BLACK
6
CONTINUOUS
10
143.93
20
-78.3012
11
143.944
21
-78.2543
0
LINE
8
BLACK
6
CONTINUOUS
10
143.944
20
-78.2543
11
143.967
21
-78.2111
0
LINE
8
BLACK
6
CONTINUOUS
10
143.967
20
-78.2111
11
143.998
21
-78.1732
0
LINE
8
BLACK
6
CONTINUOUS
10
143.998
20
-78.1732
11
144.036
21
-78.1421
0
LINE
8
BLACK
6
CONTINUOUS
10
144.036
20
-78.1421
11
144.079
21
-78.119
0
LINE
8
BLACK
6
CONTINUOUS
10
144.079
20
-78.119
11
144.126
21
-78.1048
0
LINE
8
BLACK
6
CONTINUOUS
10
144.126
20
-78.1048
11
144.175
21
-78.1
0
LINE
8
BLACK
6
CONTINUOUS
10
144.175
20
-78.1
11
145.396
21
-78.1
0
LINE
8
BLACK
6
CONTINUOUS
10
145.396
20
-78.1
11
145.5
21
-77.9964
0
LINE
8
BLACK
6
CONTINUOUS
10
145.5
20
-77.9964
11
145.5
21
-71
0
LINE
8
BLACK
6
CONTINUOUS
10
145.5
20
-71
11
145
21
-71
0
LINE
8
BLACK
6
CONTINUOUS
10
145
20
-71
11
144.951
21
-70.9952
0
LINE
8
BLACK
6
CONTINUOUS
10
144.951
20
-70.9952
11
144.904
21
-70.981
0
LINE
8
BLACK
6
CONTINUOUS
10
144.904
20
-70.981
11
144.861
21
-70.9579
0
LINE
8
BLACK
6
CONTINUOUS
10
144.861
20
-70.9579
11
144.823
21
-70.9268
0
LINE
8
BLACK
6
CONTINUOUS
10
144.823
20
-70.9268
11
144.792
21
-70.8889
0
LINE
8
BLACK
6
CONTINUOUS
10
144.792
20
-70.8889
11
144.769
21
-70.8457
0
LINE
8
BLACK
6
CONTINUOUS
10
144.769
20
-70.8457
11
144.755
21
-70.7988
0
LINE
8
BLACK
6
CONTINUOUS
10
144.755
20
-70.7988
11
144.75
21
-70.75
0
LINE
8
BLACK
6
CONTINUOUS
10
144.75
20
-70.75
11
144.75
21
-69.55
0
LINE
8
BLACK
6
CONTINUOUS
10
144.75
20
-69.55
11
144.755
21
-69.5012
0
LINE
8
BLACK
6
CONTINUOUS
10
144.755
20
-69.5012
11
144.769
21
-69.4543
0
LINE
8
BLACK
6
CONTINUOUS
10
144.769
20
-69.4543
11
144.792
21
-69.4111
0
LINE
8
BLACK
6
CONTINUOUS
10
144.792
20
-69.4111
11
144.823
21
-69.3732
0
LINE
8
BLACK
6
CONTINUOUS
10
144.823
20
-69.3732
11
144.861
21
-69.3421
0
LINE
8
BLACK
6
CONTINUOUS
10
144.861
20
-69.3421
11
144.904
21
-69.319
0
LINE
8
BLACK
6
CONTINUOUS
10
144.904
20
-69.319
11
144.951
21
-69.3048
0
LINE
8
BLACK
6
CONTINUOUS
10
144.951
20
-69.3048
11
145
21
-69.3
0
LINE
8
BLACK
6
CONTINUOUS
10
145
20
-69.3
11
146.5
21
-69.3
0
LINE
8
BLACK
6
CONTINUOUS
10
146.5
20
-69.3
11
146.549
21
-69.3048
0
LINE
8
BLACK
6
CONTINUOUS
10
164.183
20
-87.0307
11
164.329
21
-87.091
0
LINE
8
BLACK
6
CONTINUOUS
10
164.329
20
-87.091
11
164.46
21
-87.1786
0
LINE
8
BLACK
6
CONTINUOUS
10
164.46
20
-87.1786
11
164.571
21
-87.29
0
LINE
8
BLACK
6
CONTINUOUS
10
164.571
20
-87.29
11
164.659
21
-87.4211
0
LINE
8
BLACK
6
CONTINUOUS
10
164.659
20
-87.4211
11
164.719
21
-87.5666
0
LINE
8
BLACK
6
CONTINUOUS
10
164.719
20
-87.5666
11
164.75
21
-87.7212
0
LINE
8
BLACK
6
CONTINUOUS
10
164.75
20
-87.7212
11
164.75
21
-87.8788
0
LINE
8
BLACK
6
CONTINUOUS
10
164.75
20
-87.8788
11
164.719
21
-88.0334
0
LINE
8
BLACK
6
CONTINUOUS
10
164.719
20
-88.0334
11
164.659
21
-88.1789
0
LINE
8
BLACK
6
CONTINUOUS
10
164.659
20
-88.1789
11
164.571
21
-88.31
0
LINE
8
BLACK
6
CONTINUOUS
10
164.571
20
-88.31
11
164.55
21
-88.3314
0
LINE
8
BLACK
6
CONTINUOUS
10
164.55
20
-88.3314
11
164.55
21
-95.45
0
LINE
8
BLACK
6
CONTINUOUS
10
164.55
20
-95.45
11
165.3
21
-95.45
0
LINE
8
BLACK
6
CONTINUOUS
10
165.3
20
-95.45
11
165.3
21
-97.45
0
LINE
8
BLACK
6
CONTINUOUS
10
165.3
20
-97.45
11
163.3
21
-97.45
0
LINE
8
BLACK
6
CONTINUOUS
10
163.3
20
-97.45
11
163.3
21
-95.45
0
LINE
8
BLACK
6
CONTINUOUS
10
163.3
20
-95.45
11
164.05
21
-95.45
0
LINE
8
BLACK
6
CONTINUOUS
10
164.05
20
-95.45
11
164.05
21
-88.5958
0
LINE
8
BLACK
6
CONTINUOUS
10
164.05
20
-88.5958
11
164.029
21
-88.6
0
LINE
8
BLACK
6
CONTINUOUS
10
164.029
20
-88.6
11
163.871
21
-88.6
0
LINE
8
BLACK
6
CONTINUOUS
10
163.871
20
-88.6
11
163.717
21
-88.5693
0
LINE
8
BLACK
6
CONTINUOUS
10
163.717
20
-88.5693
11
163.571
21
-88.509
0
LINE
8
BLACK
6
CONTINUOUS
10
163.571
20
-88.509
11
163.44
21
-88.4214
0
LINE
8
BLACK
6
CONTINUOUS
10
163.44
20
-88.4214
11
163.329
21
-88.31
0
LINE
8
BLACK
6
CONTINUOUS
10
163.329
20
-88.31
11
163.241
21
-88.1789
0
LINE
8
BLACK
6
CONTINUOUS
10
163.241
20
-88.1789
11
163.181
21
-88.0334
0
LINE
8
BLACK
6
CONTINUOUS
10
163.181
20
-88.0334
11
163.15
21
-87.8788
0
LINE
8
BLACK
6
CONTINUOUS
10
163.15
20
-87.8788
11
163.15
21
-87.7212
0
LINE
8
BLACK
6
CONTINUOUS
10
163.15
20
-87.7212
11
163.181
21
-87.5666
0
LINE
8
BLACK
6
CONTINUOUS
10
163.181
20
-87.5666
11
163.241
21
-87.4211
0
LINE
8
BLACK
6
CONTINUOUS
10
163.241
20
-87.4211
11
163.329
21
-87.29
0
LINE
8
BLACK
6
CONTINUOUS
10
163.329
20
-87.29
11
163.44
21
-87.1786
0
LINE
8
BLACK
6
CONTINUOUS
10
163.44
20
-87.1786
11
163.571
21
-87.091
0
LINE
8
BLACK
6
CONTINUOUS
10
163.571
20
-87.091
11
163.717
21
-87.0307
0
LINE
8
BLACK
6
CONTINUOUS
10
163.717
20
-87.0307
11
163.871
21
-87
0
LINE
8
BLACK
6
CONTINUOUS
10
163.871
20
-87
11
164.029
21
-87
0
LINE
8
BLACK
6
CONTINUOUS
10
164.029
20
-87
11
164.183
21
-87.0307
0
LINE
8
BLACK
6
CONTINUOUS
10
150.455
20
-94.1603
11
150.615
21
-94.2089
0
LINE
8
BLACK
6
CONTINUOUS
10
150.615
20
-94.2089
11
150.763
21
-94.2878
0
LINE
8
BLACK
6
CONTINUOUS
10
150.763
20
-94.2878
11
150.892
21
-94.3941
0
LINE
8
BLACK
6
CONTINUOUS
10
150.892
20
-94.3941
11
150.998
21
-94.5235
0
LINE
8
BLACK
6
CONTINUOUS
10
150.998
20
-94.5235
11
151.077
21
-94.6711
0
LINE
8
BLACK
6
CONTINUOUS
10
151.077
20
-94.6711
11
151.126
21
-94.8314
0
LINE
8
BLACK
6
CONTINUOUS
10
151.126
20
-94.8314
11
151.138
21
-94.9563
0
LINE
8
BLACK
6
CONTINUOUS
10
151.138
20
-94.9563
11
151.138
21
-95.2897
0
LINE
8
BLACK
6
CONTINUOUS
10
151.138
20
-95.2897
11
151.126
21
-95.4146
0
LINE
8
BLACK
6
CONTINUOUS
10
151.126
20
-95.4146
11
151.077
21
-95.5749
0
LINE
8
BLACK
6
CONTINUOUS
10
151.077
20
-95.5749
11
150.998
21
-95.7225
0
LINE
8
BLACK
6
CONTINUOUS
10
150.998
20
-95.7225
11
150.892
21
-95.8519
0
LINE
8
BLACK
6
CONTINUOUS
10
150.892
20
-95.8519
11
150.763
21
-95.9582
0
LINE
8
BLACK
6
CONTINUOUS
10
150.763
20
-95.9582
11
150.615
21
-96.0371
0
LINE
8
BLACK
6
CONTINUOUS
10
150.615
20
-96.0371
11
150.455
21
-96.0857
0
LINE
8
BLACK
6
CONTINUOUS
10
150.455
20
-96.0857
11
150.288
21
-96.1021
0
LINE
8
BLACK
6
CONTINUOUS
10
150.288
20
-96.1021
11
150.121
21
-96.0857
0
LINE
8
BLACK
6
CONTINUOUS
10
150.121
20
-96.0857
11
149.961
21
-96.0371
0
LINE
8
BLACK
6
CONTINUOUS
10
149.961
20
-96.0371
11
149.813
21
-95.9582
0
LINE
8
BLACK
6
CONTINUOUS
10
149.813
20
-95.9582
11
149.684
21
-95.8519
0
LINE
8
BLACK
6
CONTINUOUS
10
149.684
20
-95.8519
11
149.578
21
-95.7225
0
LINE
8
BLACK
6
CONTINUOUS
10
149.578
20
-95.7225
11
149.499
21
-95.5749
0
LINE
8
BLACK
6
CONTINUOUS
10
149.499
20
-95.5749
11
149.45
21
-95.4146
0
LINE
8
BLACK
6
CONTINUOUS
10
149.45
20
-95.4146
11
149.438
21
-95.2897
0
LINE
8
BLACK
6
CONTINUOUS
10
149.438
20
-95.2897
11
149.438
21
-94.9563
0
LINE
8
BLACK
6
CONTINUOUS
10
149.438
20
-94.9563
11
149.45
21
-94.8314
0
LINE
8
BLACK
6
CONTINUOUS
10
149.45
20
-94.8314
11
149.499
21
-94.6711
0
LINE
8
BLACK
6
CONTINUOUS
10
149.499
20
-94.6711
11
149.578
21
-94.5235
0
LINE
8
BLACK
6
CONTINUOUS
10
149.578
20
-94.5235
11
149.684
21
-94.3941
0
LINE
8
BLACK
6
CONTINUOUS
10
149.684
20
-94.3941
11
149.813
21
-94.2878
0
LINE
8
BLACK
6
CONTINUOUS
10
149.813
20
-94.2878
11
149.961
21
-94.2089
0
LINE
8
BLACK
6
CONTINUOUS
10
149.961
20
-94.2089
11
150.121
21
-94.1603
0
LINE
8
BLACK
6
CONTINUOUS
10
150.121
20
-94.1603
11
150.288
21
-94.1439
0
LINE
8
BLACK
6
CONTINUOUS
10
150.288
20
-94.1439
11
150.455
21
-94.1603
0
LINE
8
BLACK
6
CONTINUOUS
10
147.955
20
-94.1603
11
148.115
21
-94.2089
0
LINE
8
BLACK
6
CONTINUOUS
10
148.115
20
-94.2089
11
148.263
21
-94.2878
0
LINE
8
BLACK
6
CONTINUOUS
10
148.263
20
-94.2878
11
148.392
21
-94.3941
0
LINE
8
BLACK
6
CONTINUOUS
10
148.392
20
-94.3941
11
148.498
21
-94.5235
0
LINE
8
BLACK
6
CONTINUOUS
10
148.498
20
-94.5235
11
148.577
21
-94.6711
0
LINE
8
BLACK
6
CONTINUOUS
10
148.577
20
-94.6711
11
148.626
21
-94.8314
0
LINE
8
BLACK
6
CONTINUOUS
10
148.626
20
-94.8314
11
148.638
21
-94.9563
0
LINE
8
BLACK
6
CONTINUOUS
10
148.638
20
-94.9563
11
148.638
21
-95.2897
0
LINE
8
BLACK
6
CONTINUOUS
10
148.638
20
-95.2897
11
148.626
21
-95.4146
0
LINE
8
BLACK
6
CONTINUOUS
10
148.626
20
-95.4146
11
148.577
21
-95.5749
0
LINE
8
BLACK
6
CONTINUOUS
10
148.577
20
-95.5749
11
148.498
21
-95.7225
0
LINE
8
BLACK
6
CONTINUOUS
10
148.498
20
-95.7225
11
148.392
21
-95.8519
0
LINE
8
BLACK
6
CONTINUOUS
10
148.392
20
-95.8519
11
148.263
21
-95.9582
0
LINE
8
BLACK
6
CONTINUOUS
10
148.263
20
-95.9582
11
148.115
21
-96.0371
0
LINE
8
BLACK
6
CONTINUOUS
10
148.115
20
-96.0371
11
147.955
21
-96.0857
0
LINE
8
BLACK
6
CONTINUOUS
10
147.955
20
-96.0857
11
147.788
21
-96.1021
0
LINE
8
BLACK
6
CONTINUOUS
10
147.788
20
-96.1021
11
147.621
21
-96.0857
0
LINE
8
BLACK
6
CONTINUOUS
10
147.621
20
-96.0857
11
147.461
21
-96.0371
0
LINE
8
BLACK
6
CONTINUOUS
10
147.461
20
-96.0371
11
147.313
21
-95.9582
0
LINE
8
BLACK
6
CONTINUOUS
10
147.313
20
-95.9582
11
147.184
21
-95.8519
0
LINE
8
BLACK
6
CONTINUOUS
10
147.184
20
-95.8519
11
147.078
21
-95.7225
0
LINE
8
BLACK
6
CONTINUOUS
10
147.078
20
-95.7225
11
146.999
21
-95.5749
0
LINE
8
BLACK
6
CONTINUOUS
10
146.999
20
-95.5749
11
146.95
21
-95.4146
0
LINE
8
BLACK
6
CONTINUOUS
10
146.95
20
-95.4146
11
146.938
21
-95.2897
0
LINE
8
BLACK
6
CONTINUOUS
10
146.938
20
-95.2897
11
146.938
21
-94.9563
0
LINE
8
BLACK
6
CONTINUOUS
10
146.938
20
-94.9563
11
146.95
21
-94.8314
0
LINE
8
BLACK
6
CONTINUOUS
10
146.95
20
-94.8314
11
146.999
21
-94.6711
0
LINE
8
BLACK
6
CONTINUOUS
10
146.999
20
-94.6711
11
147.078
21
-94.5235
0
LINE
8
BLACK
6
CONTINUOUS
10
147.078
20
-94.5235
11
147.184
21
-94.3941
0
LINE
8
BLACK
6
CONTINUOUS
10
147.184
20
-94.3941
11
147.313
21
-94.2878
0
LINE
8
BLACK
6
CONTINUOUS
10
147.313
20
-94.2878
11
147.461
21
-94.2089
0
LINE
8
BLACK
6
CONTINUOUS
10
147.461
20
-94.2089
11
147.621
21
-94.1603
0
LINE
8
BLACK
6
CONTINUOUS
10
147.621
20
-94.1603
11
147.788
21
-94.1439
0
LINE
8
BLACK
6
CONTINUOUS
10
147.788
20
-94.1439
11
147.955
21
-94.1603
0
LINE
8
BLACK
6
CONTINUOUS
10
171.361
20
-87.9753
11
171.521
21
-88.0239
0
LINE
8
BLACK
6
CONTINUOUS
10
171.521
20
-88.0239
11
171.669
21
-88.1028
0
LINE
8
BLACK
6
CONTINUOUS
10
171.669
20
-88.1028
11
171.798
21
-88.2091
0
LINE
8
BLACK
6
CONTINUOUS
10
171.798
20
-88.2091
11
171.904
21
-88.3385
0
LINE
8
BLACK
6
CONTINUOUS
10
171.904
20
-88.3385
11
171.983
21
-88.4861
0
LINE
8
BLACK
6
CONTINUOUS
10
171.983
20
-88.4861
11
172.032
21
-88.6464
0
LINE
8
BLACK
6
CONTINUOUS
10
172.032
20
-88.6464
11
172.048
21
-88.813
0
LINE
8
BLACK
6
CONTINUOUS
10
172.048
20
-88.813
11
172.032
21
-88.9796
0
LINE
8
BLACK
6
CONTINUOUS
10
172.032
20
-88.9796
11
171.983
21
-89.1399
0
LINE
8
BLACK
6
CONTINUOUS
10
171.983
20
-89.1399
11
171.904
21
-89.2875
0
LINE
8
BLACK
6
CONTINUOUS
10
171.904
20
-89.2875
11
171.798
21
-89.4169
0
LINE
8
BLACK
6
CONTINUOUS
10
171.798
20
-89.4169
11
171.669
21
-89.5232
0
LINE
8
BLACK
6
CONTINUOUS
10
171.669
20
-89.5232
11
171.521
21
-89.6021
0
LINE
8
BLACK
6
CONTINUOUS
10
171.521
20
-89.6021
11
171.361
21
-89.6507
0
LINE
8
BLACK
6
CONTINUOUS
10
171.361
20
-89.6507
11
171.236
21
-89.663
0
LINE
8
BLACK
6
CONTINUOUS
10
171.236
20
-89.663
11
170.902
21
-89.663
0
LINE
8
BLACK
6
CONTINUOUS
10
170.902
20
-89.663
11
170.777
21
-89.6507
0
LINE
8
BLACK
6
CONTINUOUS
10
170.777
20
-89.6507
11
170.617
21
-89.6021
0
LINE
8
BLACK
6
CONTINUOUS
10
170.617
20
-89.6021
11
170.469
21
-89.5232
0
LINE
8
BLACK
6
CONTINUOUS
10
170.469
20
-89.5232
11
170.34
21
-89.4169
0
LINE
8
BLACK
6
CONTINUOUS
10
170.34
20
-89.4169
11
170.234
21
-89.2875
0
LINE
8
BLACK
6
CONTINUOUS
10
170.234
20
-89.2875
11
170.155
21
-89.1399
0
LINE
8
BLACK
6
CONTINUOUS
10
170.155
20
-89.1399
11
170.106
21
-88.9796
0
LINE
8
BLACK
6
CONTINUOUS
10
170.106
20
-88.9796
11
170.09
21
-88.813
0
LINE
8
BLACK
6
CONTINUOUS
10
170.09
20
-88.813
11
170.106
21
-88.6464
0
LINE
8
BLACK
6
CONTINUOUS
10
170.106
20
-88.6464
11
170.155
21
-88.4861
0
LINE
8
BLACK
6
CONTINUOUS
10
170.155
20
-88.4861
11
170.234
21
-88.3385
0
LINE
8
BLACK
6
CONTINUOUS
10
170.234
20
-88.3385
11
170.34
21
-88.2091
0
LINE
8
BLACK
6
CONTINUOUS
10
170.34
20
-88.2091
11
170.469
21
-88.1028
0
LINE
8
BLACK
6
CONTINUOUS
10
170.469
20
-88.1028
11
170.617
21
-88.0239
0
LINE
8
BLACK
6
CONTINUOUS
10
170.617
20
-88.0239
11
170.777
21
-87.9753
0
LINE
8
BLACK
6
CONTINUOUS
10
170.777
20
-87.9753
11
170.902
21
-87.963
0
LINE
8
BLACK
6
CONTINUOUS
10
170.902
20
-87.963
11
171.236
21
-87.963
0
LINE
8
BLACK
6
CONTINUOUS
10
171.236
20
-87.963
11
171.361
21
-87.9753
0
LINE
8
BLACK
6
CONTINUOUS
10
156.563
20
-87.0307
11
156.709
21
-87.091
0
LINE
8
BLACK
6
CONTINUOUS
10
156.709
20
-87.091
11
156.84
21
-87.1786
0
LINE
8
BLACK
6
CONTINUOUS
10
156.84
20
-87.1786
11
156.951
21
-87.29
0
LINE
8
BLACK
6
CONTINUOUS
10
156.951
20
-87.29
11
157.039
21
-87.4211
0
LINE
8
BLACK
6
CONTINUOUS
10
157.039
20
-87.4211
11
157.099
21
-87.5666
0
LINE
8
BLACK
6
CONTINUOUS
10
157.099
20
-87.5666
11
157.13
21
-87.7212
0
LINE
8
BLACK
6
CONTINUOUS
10
157.13
20
-87.7212
11
157.13
21
-87.8788
0
LINE
8
BLACK
6
CONTINUOUS
10
157.13
20
-87.8788
11
157.099
21
-88.0334
0
LINE
8
BLACK
6
CONTINUOUS
10
157.099
20
-88.0334
11
157.039
21
-88.1789
0
LINE
8
BLACK
6
CONTINUOUS
10
157.039
20
-88.1789
11
156.951
21
-88.31
0
LINE
8
BLACK
6
CONTINUOUS
10
156.951
20
-88.31
11
156.84
21
-88.4214
0
LINE
8
BLACK
6
CONTINUOUS
10
156.84
20
-88.4214
11
156.709
21
-88.509
0
LINE
8
BLACK
6
CONTINUOUS
10
156.709
20
-88.509
11
156.563
21
-88.5693
0
LINE
8
BLACK
6
CONTINUOUS
10
156.563
20
-88.5693
11
156.409
21
-88.6
0
LINE
8
BLACK
6
CONTINUOUS
10
156.409
20
-88.6
11
156.251
21
-88.6
0
LINE
8
BLACK
6
CONTINUOUS
10
156.251
20
-88.6
11
156.097
21
-88.5693
0
LINE
8
BLACK
6
CONTINUOUS
10
156.097
20
-88.5693
11
155.951
21
-88.509
0
LINE
8
BLACK
6
CONTINUOUS
10
155.951
20
-88.509
11
155.82
21
-88.4214
0
LINE
8
BLACK
6
CONTINUOUS
10
155.82
20
-88.4214
11
155.709
21
-88.31
0
LINE
8
BLACK
6
CONTINUOUS
10
155.709
20
-88.31
11
155.621
21
-88.1789
0
LINE
8
BLACK
6
CONTINUOUS
10
155.621
20
-88.1789
11
155.561
21
-88.0334
0
LINE
8
BLACK
6
CONTINUOUS
10
155.561
20
-88.0334
11
155.53
21
-87.8788
0
LINE
8
BLACK
6
CONTINUOUS
10
155.53
20
-87.8788
11
155.53
21
-87.7212
0
LINE
8
BLACK
6
CONTINUOUS
10
155.53
20
-87.7212
11
155.561
21
-87.5666
0
LINE
8
BLACK
6
CONTINUOUS
10
155.561
20
-87.5666
11
155.621
21
-87.4211
0
LINE
8
BLACK
6
CONTINUOUS
10
155.621
20
-87.4211
11
155.709
21
-87.29
0
LINE
8
BLACK
6
CONTINUOUS
10
155.709
20
-87.29
11
155.82
21
-87.1786
0
LINE
8
BLACK
6
CONTINUOUS
10
155.82
20
-87.1786
11
155.951
21
-87.091
0
LINE
8
BLACK
6
CONTINUOUS
10
155.951
20
-87.091
11
156.097
21
-87.0307
0
LINE
8
BLACK
6
CONTINUOUS
10
156.097
20
-87.0307
11
156.251
21
-87
0
LINE
8
BLACK
6
CONTINUOUS
10
156.251
20
-87
11
156.409
21
-87
0
LINE
8
BLACK
6
CONTINUOUS
10
156.409
20
-87
11
156.563
21
-87.0307
0
LINE
8
BLACK
6
CONTINUOUS
10
145.192
20
-85.6123
11
145.352
21
-85.6609
0
LINE
8
BLACK
6
CONTINUOUS
10
145.352
20
-85.6609
11
145.5
21
-85.7398
0
LINE
8
BLACK
6
CONTINUOUS
10
145.5
20
-85.7398
11
145.629
21
-85.8461
0
LINE
8
BLACK
6
CONTINUOUS
10
145.629
20
-85.8461
11
145.735
21
-85.9755
0
LINE
8
BLACK
6
CONTINUOUS
10
145.735
20
-85.9755
11
145.814
21
-86.1231
0
LINE
8
BLACK
6
CONTINUOUS
10
145.814
20
-86.1231
11
145.863
21
-86.2834
0
LINE
8
BLACK
6
CONTINUOUS
10
145.863
20
-86.2834
11
145.879
21
-86.45
0
LINE
8
BLACK
6
CONTINUOUS
10
145.879
20
-86.45
11
145.863
21
-86.6166
0
LINE
8
BLACK
6
CONTINUOUS
10
145.863
20
-86.6166
11
145.814
21
-86.7769
0
LINE
8
BLACK
6
CONTINUOUS
10
145.814
20
-86.7769
11
145.735
21
-86.9245
0
LINE
8
BLACK
6
CONTINUOUS
10
145.735
20
-86.9245
11
145.629
21
-87.0539
0
LINE
8
BLACK
6
CONTINUOUS
10
145.629
20
-87.0539
11
145.5
21
-87.1602
0
LINE
8
BLACK
6
CONTINUOUS
10
145.5
20
-87.1602
11
145.352
21
-87.2391
0
LINE
8
BLACK
6
CONTINUOUS
10
145.352
20
-87.2391
11
145.192
21
-87.2877
0
LINE
8
BLACK
6
CONTINUOUS
10
145.192
20
-87.2877
11
145.067
21
-87.3
0
LINE
8
BLACK
6
CONTINUOUS
10
145.067
20
-87.3
11
144.733
21
-87.3
0
LINE
8
BLACK
6
CONTINUOUS
10
144.733
20
-87.3
11
144.608
21
-87.2877
0
LINE
8
BLACK
6
CONTINUOUS
10
144.608
20
-87.2877
11
144.448
21
-87.2391
0
LINE
8
BLACK
6
CONTINUOUS
10
144.448
20
-87.2391
11
144.3
21
-87.1602
0
LINE
8
BLACK
6
CONTINUOUS
10
144.3
20
-87.1602
11
144.171
21
-87.0539
0
LINE
8
BLACK
6
CONTINUOUS
10
144.171
20
-87.0539
11
144.065
21
-86.9245
0
LINE
8
BLACK
6
CONTINUOUS
10
144.065
20
-86.9245
11
143.986
21
-86.7769
0
LINE
8
BLACK
6
CONTINUOUS
10
143.986
20
-86.7769
11
143.937
21
-86.6166
0
LINE
8
BLACK
6
CONTINUOUS
10
143.937
20
-86.6166
11
143.921
21
-86.45
0
LINE
8
BLACK
6
CONTINUOUS
10
143.921
20
-86.45
11
143.937
21
-86.2834
0
LINE
8
BLACK
6
CONTINUOUS
10
143.937
20
-86.2834
11
143.986
21
-86.1231
0
LINE
8
BLACK
6
CONTINUOUS
10
143.986
20
-86.1231
11
144.065
21
-85.9755
0
LINE
8
BLACK
6
CONTINUOUS
10
144.065
20
-85.9755
11
144.171
21
-85.8461
0
LINE
8
BLACK
6
CONTINUOUS
10
144.171
20
-85.8461
11
144.3
21
-85.7398
0
LINE
8
BLACK
6
CONTINUOUS
10
144.3
20
-85.7398
11
144.448
21
-85.6609
0
LINE
8
BLACK
6
CONTINUOUS
10
144.448
20
-85.6609
11
144.608
21
-85.6123
0
LINE
8
BLACK
6
CONTINUOUS
10
144.608
20
-85.6123
11
144.733
21
-85.6
0
LINE
8
BLACK
6
CONTINUOUS
10
144.733
20
-85.6
11
145.067
21
-85.6
0
LINE
8
BLACK
6
CONTINUOUS
10
145.067
20
-85.6
11
145.192
21
-85.6123
0
LINE
8
BLACK
6
CONTINUOUS
10
171.361
20
-85.4753
11
171.521
21
-85.5239
0
LINE
8
BLACK
6
CONTINUOUS
10
171.521
20
-85.5239
11
171.669
21
-85.6028
0
LINE
8
BLACK
6
CONTINUOUS
10
171.669
20
-85.6028
11
171.798
21
-85.7091
0
LINE
8
BLACK
6
CONTINUOUS
10
171.798
20
-85.7091
11
171.904
21
-85.8385
0
LINE
8
BLACK
6
CONTINUOUS
10
171.904
20
-85.8385
11
171.983
21
-85.9861
0
LINE
8
BLACK
6
CONTINUOUS
10
171.983
20
-85.9861
11
172.032
21
-86.1464
0
LINE
8
BLACK
6
CONTINUOUS
10
172.032
20
-86.1464
11
172.048
21
-86.313
0
LINE
8
BLACK
6
CONTINUOUS
10
172.048
20
-86.313
11
172.032
21
-86.4796
0
LINE
8
BLACK
6
CONTINUOUS
10
172.032
20
-86.4796
11
171.983
21
-86.6399
0
LINE
8
BLACK
6
CONTINUOUS
10
171.983
20
-86.6399
11
171.904
21
-86.7875
0
LINE
8
BLACK
6
CONTINUOUS
10
171.904
20
-86.7875
11
171.798
21
-86.9169
0
LINE
8
BLACK
6
CONTINUOUS
10
171.798
20
-86.9169
11
171.669
21
-87.0232
0
LINE
8
BLACK
6
CONTINUOUS
10
171.669
20
-87.0232
11
171.521
21
-87.1021
0
LINE
8
BLACK
6
CONTINUOUS
10
171.521
20
-87.1021
11
171.361
21
-87.1507
0
LINE
8
BLACK
6
CONTINUOUS
10
171.361
20
-87.1507
11
171.236
21
-87.163
0
LINE
8
BLACK
6
CONTINUOUS
10
171.236
20
-87.163
11
170.902
21
-87.163
0
LINE
8
BLACK
6
CONTINUOUS
10
170.902
20
-87.163
11
170.777
21
-87.1507
0
LINE
8
BLACK
6
CONTINUOUS
10
170.777
20
-87.1507
11
170.617
21
-87.1021
0
LINE
8
BLACK
6
CONTINUOUS
10
170.617
20
-87.1021
11
170.469
21
-87.0232
0
LINE
8
BLACK
6
CONTINUOUS
10
170.469
20
-87.0232
11
170.34
21
-86.9169
0
LINE
8
BLACK
6
CONTINUOUS
10
170.34
20
-86.9169
11
170.234
21
-86.7875
0
LINE
8
BLACK
6
CONTINUOUS
10
170.234
20
-86.7875
11
170.155
21
-86.6399
0
LINE
8
BLACK
6
CONTINUOUS
10
170.155
20
-86.6399
11
170.106
21
-86.4796
0
LINE
8
BLACK
6
CONTINUOUS
10
170.106
20
-86.4796
11
170.09
21
-86.313
0
LINE
8
BLACK
6
CONTINUOUS
10
170.09
20
-86.313
11
170.106
21
-86.1464
0
LINE
8
BLACK
6
CONTINUOUS
10
170.106
20
-86.1464
11
170.155
21
-85.9861
0
LINE
8
BLACK
6
CONTINUOUS
10
170.155
20
-85.9861
11
170.234
21
-85.8385
0
LINE
8
BLACK
6
CONTINUOUS
10
170.234
20
-85.8385
11
170.34
21
-85.7091
0
LINE
8
BLACK
6
CONTINUOUS
10
170.34
20
-85.7091
11
170.469
21
-85.6028
0
LINE
8
BLACK
6
CONTINUOUS
10
170.469
20
-85.6028
11
170.617
21
-85.5239
0
LINE
8
BLACK
6
CONTINUOUS
10
170.617
20
-85.5239
11
170.777
21
-85.4753
0
LINE
8
BLACK
6
CONTINUOUS
10
170.777
20
-85.4753
11
170.902
21
-85.463
0
LINE
8
BLACK
6
CONTINUOUS
10
170.902
20
-85.463
11
171.236
21
-85.463
0
LINE
8
BLACK
6
CONTINUOUS
10
171.236
20
-85.463
11
171.361
21
-85.4753
0
LINE
8
BLACK
6
CONTINUOUS
10
145.192
20
-83.1123
11
145.352
21
-83.1609
0
LINE
8
BLACK
6
CONTINUOUS
10
145.352
20
-83.1609
11
145.5
21
-83.2398
0
LINE
8
BLACK
6
CONTINUOUS
10
145.5
20
-83.2398
11
145.629
21
-83.3461
0
LINE
8
BLACK
6
CONTINUOUS
10
145.629
20
-83.3461
11
145.735
21
-83.4755
0
LINE
8
BLACK
6
CONTINUOUS
10
145.735
20
-83.4755
11
145.814
21
-83.6231
0
LINE
8
BLACK
6
CONTINUOUS
10
145.814
20
-83.6231
11
145.863
21
-83.7834
0
LINE
8
BLACK
6
CONTINUOUS
10
145.863
20
-83.7834
11
145.879
21
-83.95
0
LINE
8
BLACK
6
CONTINUOUS
10
145.879
20
-83.95
11
145.863
21
-84.1166
0
LINE
8
BLACK
6
CONTINUOUS
10
145.863
20
-84.1166
11
145.814
21
-84.2769
0
LINE
8
BLACK
6
CONTINUOUS
10
145.814
20
-84.2769
11
145.735
21
-84.4245
0
LINE
8
BLACK
6
CONTINUOUS
10
145.735
20
-84.4245
11
145.629
21
-84.5539
0
LINE
8
BLACK
6
CONTINUOUS
10
145.629
20
-84.5539
11
145.5
21
-84.6602
0
LINE
8
BLACK
6
CONTINUOUS
10
145.5
20
-84.6602
11
145.352
21
-84.7391
0
LINE
8
BLACK
6
CONTINUOUS
10
145.352
20
-84.7391
11
145.192
21
-84.7877
0
LINE
8
BLACK
6
CONTINUOUS
10
145.192
20
-84.7877
11
145.067
21
-84.8
0
LINE
8
BLACK
6
CONTINUOUS
10
145.067
20
-84.8
11
144.733
21
-84.8
0
LINE
8
BLACK
6
CONTINUOUS
10
144.733
20
-84.8
11
144.608
21
-84.7877
0
LINE
8
BLACK
6
CONTINUOUS
10
144.608
20
-84.7877
11
144.448
21
-84.7391
0
LINE
8
BLACK
6
CONTINUOUS
10
144.448
20
-84.7391
11
144.3
21
-84.6602
0
LINE
8
BLACK
6
CONTINUOUS
10
144.3
20
-84.6602
11
144.171
21
-84.5539
0
LINE
8
BLACK
6
CONTINUOUS
10
144.171
20
-84.5539
11
144.065
21
-84.4245
0
LINE
8
BLACK
6
CONTINUOUS
10
144.065
20
-84.4245
11
143.986
21
-84.2769
0
LINE
8
BLACK
6
CONTINUOUS
10
143.986
20
-84.2769
11
143.937
21
-84.1166
0
LINE
8
BLACK
6
CONTINUOUS
10
143.937
20
-84.1166
11
143.921
21
-83.95
0
LINE
8
BLACK
6
CONTINUOUS
10
143.921
20
-83.95
11
143.937
21
-83.7834
0
LINE
8
BLACK
6
CONTINUOUS
10
143.937
20
-83.7834
11
143.986
21
-83.6231
0
LINE
8
BLACK
6
CONTINUOUS
10
143.986
20
-83.6231
11
144.065
21
-83.4755
0
LINE
8
BLACK
6
CONTINUOUS
10
144.065
20
-83.4755
11
144.171
21
-83.3461
0
LINE
8
BLACK
6
CONTINUOUS
10
144.171
20
-83.3461
11
144.3
21
-83.2398
0
LINE
8
BLACK
6
CONTINUOUS
10
144.3
20
-83.2398
11
144.448
21
-83.1609
0
LINE
8
BLACK
6
CONTINUOUS
10
144.448
20
-83.1609
11
144.608
21
-83.1123
0
LINE
8
BLACK
6
CONTINUOUS
10
144.608
20
-83.1123
11
144.733
21
-83.1
0
LINE
8
BLACK
6
CONTINUOUS
10
144.733
20
-83.1
11
145.067
21
-83.1
0
LINE
8
BLACK
6
CONTINUOUS
10
145.067
20
-83.1
11
145.192
21
-83.1123
0
LINE
8
BLACK
6
CONTINUOUS
10
164.963
20
-82.9274
11
165.035
21
-82.9575
0
LINE
8
BLACK
6
CONTINUOUS
10
165.035
20
-82.9575
11
165.101
21
-83.0013
0
LINE
8
BLACK
6
CONTINUOUS
10
165.101
20
-83.0013
11
165.157
21
-83.057
0
LINE
8
BLACK
6
CONTINUOUS
10
165.157
20
-83.057
11
165.2
21
-83.1225
0
LINE
8
BLACK
6
CONTINUOUS
10
165.2
20
-83.1225
11
165.231
21
-83.1953
0
LINE
8
BLACK
6
CONTINUOUS
10
165.231
20
-83.1953
11
165.246
21
-83.2726
0
LINE
8
BLACK
6
CONTINUOUS
10
165.246
20
-83.2726
11
165.246
21
-83.3514
0
LINE
8
BLACK
6
CONTINUOUS
10
165.246
20
-83.3514
11
165.231
21
-83.4287
0
LINE
8
BLACK
6
CONTINUOUS
10
165.231
20
-83.4287
11
165.2
21
-83.5015
0
LINE
8
BLACK
6
CONTINUOUS
10
165.2
20
-83.5015
11
165.157
21
-83.567
0
LINE
8
BLACK
6
CONTINUOUS
10
165.157
20
-83.567
11
165.101
21
-83.6227
0
LINE
8
BLACK
6
CONTINUOUS
10
165.101
20
-83.6227
11
165.035
21
-83.6665
0
LINE
8
BLACK
6
CONTINUOUS
10
165.035
20
-83.6665
11
164.963
21
-83.6966
0
LINE
8
BLACK
6
CONTINUOUS
10
164.963
20
-83.6966
11
164.885
21
-83.712
0
LINE
8
BLACK
6
CONTINUOUS
10
164.885
20
-83.712
11
164.807
21
-83.712
0
LINE
8
BLACK
6
CONTINUOUS
10
164.807
20
-83.712
11
164.729
21
-83.6966
0
LINE
8
BLACK
6
CONTINUOUS
10
164.729
20
-83.6966
11
164.657
21
-83.6665
0
LINE
8
BLACK
6
CONTINUOUS
10
164.657
20
-83.6665
11
164.591
21
-83.6227
0
LINE
8
BLACK
6
CONTINUOUS
10
164.591
20
-83.6227
11
164.535
21
-83.567
0
LINE
8
BLACK
6
CONTINUOUS
10
164.535
20
-83.567
11
164.527
21
-83.555
0
LINE
8
BLACK
6
CONTINUOUS
10
164.527
20
-83.555
11
163.611
21
-83.555
0
LINE
8
BLACK
6
CONTINUOUS
10
163.611
20
-83.555
11
163.606
21
-83.5611
0
LINE
8
BLACK
6
CONTINUOUS
10
163.606
20
-83.5611
11
163.583
21
-83.5797
0
LINE
8
BLACK
6
CONTINUOUS
10
163.583
20
-83.5797
11
163.557
21
-83.5936
0
LINE
8
BLACK
6
CONTINUOUS
10
163.557
20
-83.5936
11
163.529
21
-83.6021
0
LINE
8
BLACK
6
CONTINUOUS
10
163.529
20
-83.6021
11
163.5
21
-83.605
0
LINE
8
BLACK
6
CONTINUOUS
10
163.5
20
-83.605
11
161.85
21
-83.605
0
LINE
8
BLACK
6
CONTINUOUS
10
161.85
20
-83.605
11
161.821
21
-83.6021
0
LINE
8
BLACK
6
CONTINUOUS
10
161.821
20
-83.6021
11
161.793
21
-83.5936
0
LINE
8
BLACK
6
CONTINUOUS
10
161.793
20
-83.5936
11
161.767
21
-83.5797
0
LINE
8
BLACK
6
CONTINUOUS
10
161.767
20
-83.5797
11
161.744
21
-83.5611
0
LINE
8
BLACK
6
CONTINUOUS
10
161.744
20
-83.5611
11
161.725
21
-83.5383
0
LINE
8
BLACK
6
CONTINUOUS
10
161.725
20
-83.5383
11
161.711
21
-83.5124
0
LINE
8
BLACK
6
CONTINUOUS
10
161.711
20
-83.5124
11
161.703
21
-83.4843
0
LINE
8
BLACK
6
CONTINUOUS
10
161.703
20
-83.4843
11
161.7
21
-83.455
0
LINE
8
BLACK
6
CONTINUOUS
10
161.7
20
-83.455
11
161.7
21
-83.155
0
LINE
8
BLACK
6
CONTINUOUS
10
161.7
20
-83.155
11
161.703
21
-83.1257
0
LINE
8
BLACK
6
CONTINUOUS
10
161.703
20
-83.1257
11
161.711
21
-83.0976
0
LINE
8
BLACK
6
CONTINUOUS
10
161.711
20
-83.0976
11
161.725
21
-83.0717
0
LINE
8
BLACK
6
CONTINUOUS
10
161.725
20
-83.0717
11
161.744
21
-83.0489
0
LINE
8
BLACK
6
CONTINUOUS
10
161.744
20
-83.0489
11
161.767
21
-83.0303
0
LINE
8
BLACK
6
CONTINUOUS
10
161.767
20
-83.0303
11
161.793
21
-83.0164
0
LINE
8
BLACK
6
CONTINUOUS
10
161.793
20
-83.0164
11
161.821
21
-83.0079
0
LINE
8
BLACK
6
CONTINUOUS
10
161.821
20
-83.0079
11
161.85
21
-83.005
0
LINE
8
BLACK
6
CONTINUOUS
10
161.85
20
-83.005
11
163.5
21
-83.005
0
LINE
8
BLACK
6
CONTINUOUS
10
163.5
20
-83.005
11
163.529
21
-83.0079
0
LINE
8
BLACK
6
CONTINUOUS
10
163.529
20
-83.0079
11
163.557
21
-83.0164
0
LINE
8
BLACK
6
CONTINUOUS
10
163.557
20
-83.0164
11
163.583
21
-83.0303
0
LINE
8
BLACK
6
CONTINUOUS
10
163.583
20
-83.0303
11
163.606
21
-83.0489
0
LINE
8
BLACK
6
CONTINUOUS
10
163.606
20
-83.0489
11
163.611
21
-83.055
0
LINE
8
BLACK
6
CONTINUOUS
10
163.611
20
-83.055
11
164.537
21
-83.055
0
LINE
8
BLACK
6
CONTINUOUS
10
164.537
20
-83.055
11
164.591
21
-83.0013
0
LINE
8
BLACK
6
CONTINUOUS
10
164.591
20
-83.0013
11
164.657
21
-82.9575
0
LINE
8
BLACK
6
CONTINUOUS
10
164.657
20
-82.9575
11
164.729
21
-82.9274
0
LINE
8
BLACK
6
CONTINUOUS
10
164.729
20
-82.9274
11
164.807
21
-82.912
0
LINE
8
BLACK
6
CONTINUOUS
10
164.807
20
-82.912
11
164.885
21
-82.912
0
LINE
8
BLACK
6
CONTINUOUS
10
164.885
20
-82.912
11
164.963
21
-82.9274
0
LINE
8
BLACK
6
CONTINUOUS
10
155.057
20
-82.9274
11
155.129
21
-82.9575
0
LINE
8
BLACK
6
CONTINUOUS
10
155.129
20
-82.9575
11
155.195
21
-83.0013
0
LINE
8
BLACK
6
CONTINUOUS
10
155.195
20
-83.0013
11
155.249
21
-83.055
0
LINE
8
BLACK
6
CONTINUOUS
10
155.249
20
-83.055
11
156.789
21
-83.055
0
LINE
8
BLACK
6
CONTINUOUS
10
156.789
20
-83.055
11
156.794
21
-83.0489
0
LINE
8
BLACK
6
CONTINUOUS
10
156.794
20
-83.0489
11
156.817
21
-83.0303
0
LINE
8
BLACK
6
CONTINUOUS
10
156.817
20
-83.0303
11
156.843
21
-83.0164
0
LINE
8
BLACK
6
CONTINUOUS
10
156.843
20
-83.0164
11
156.871
21
-83.0079
0
LINE
8
BLACK
6
CONTINUOUS
10
156.871
20
-83.0079
11
156.9
21
-83.005
0
LINE
8
BLACK
6
CONTINUOUS
10
156.9
20
-83.005
11
158.55
21
-83.005
0
LINE
8
BLACK
6
CONTINUOUS
10
158.55
20
-83.005
11
158.579
21
-83.0079
0
LINE
8
BLACK
6
CONTINUOUS
10
158.579
20
-83.0079
11
158.607
21
-83.0164
0
LINE
8
BLACK
6
CONTINUOUS
10
158.607
20
-83.0164
11
158.633
21
-83.0303
0
LINE
8
BLACK
6
CONTINUOUS
10
158.633
20
-83.0303
11
158.656
21
-83.0489
0
LINE
8
BLACK
6
CONTINUOUS
10
158.656
20
-83.0489
11
158.675
21
-83.0717
0
LINE
8
BLACK
6
CONTINUOUS
10
158.675
20
-83.0717
11
158.689
21
-83.0976
0
LINE
8
BLACK
6
CONTINUOUS
10
158.689
20
-83.0976
11
158.697
21
-83.1257
0
LINE
8
BLACK
6
CONTINUOUS
10
158.697
20
-83.1257
11
158.7
21
-83.155
0
LINE
8
BLACK
6
CONTINUOUS
10
158.7
20
-83.155
11
158.7
21
-83.455
0
LINE
8
BLACK
6
CONTINUOUS
10
158.7
20
-83.455
11
158.697
21
-83.4843
0
LINE
8
BLACK
6
CONTINUOUS
10
158.697
20
-83.4843
11
158.689
21
-83.5124
0
LINE
8
BLACK
6
CONTINUOUS
10
158.689
20
-83.5124
11
158.675
21
-83.5383
0
LINE
8
BLACK
6
CONTINUOUS
10
158.675
20
-83.5383
11
158.656
21
-83.5611
0
LINE
8
BLACK
6
CONTINUOUS
10
158.656
20
-83.5611
11
158.633
21
-83.5797
0
LINE
8
BLACK
6
CONTINUOUS
10
158.633
20
-83.5797
11
158.607
21
-83.5936
0
LINE
8
BLACK
6
CONTINUOUS
10
158.607
20
-83.5936
11
158.579
21
-83.6021
0
LINE
8
BLACK
6
CONTINUOUS
10
158.579
20
-83.6021
11
158.55
21
-83.605
0
LINE
8
BLACK
6
CONTINUOUS
10
158.55
20
-83.605
11
157.774
21
-83.605
0
LINE
8
BLACK
6
CONTINUOUS
10
157.774
20
-83.605
11
157.77
21
-83.6089
0
LINE
8
BLACK
6
CONTINUOUS
10
157.77
20
-83.6089
11
157.726
21
-83.6321
0
LINE
8
BLACK
6
CONTINUOUS
10
157.726
20
-83.6321
11
157.679
21
-83.6464
0
LINE
8
BLACK
6
CONTINUOUS
10
157.679
20
-83.6464
11
157.63
21
-83.6512
0
LINE
8
BLACK
6
CONTINUOUS
10
157.63
20
-83.6512
11
157.581
21
-83.6464
0
LINE
8
BLACK
6
CONTINUOUS
10
157.581
20
-83.6464
11
157.534
21
-83.6321
0
LINE
8
BLACK
6
CONTINUOUS
10
157.534
20
-83.6321
11
157.49
21
-83.6089
0
LINE
8
BLACK
6
CONTINUOUS
10
157.49
20
-83.6089
11
157.486
21
-83.605
0
LINE
8
BLACK
6
CONTINUOUS
10
157.486
20
-83.605
11
156.9
21
-83.605
0
LINE
8
BLACK
6
CONTINUOUS
10
156.9
20
-83.605
11
156.871
21
-83.6021
0
LINE
8
BLACK
6
CONTINUOUS
10
156.871
20
-83.6021
11
156.843
21
-83.5936
0
LINE
8
BLACK
6
CONTINUOUS
10
156.843
20
-83.5936
11
156.817
21
-83.5797
0
LINE
8
BLACK
6
CONTINUOUS
10
156.817
20
-83.5797
11
156.794
21
-83.5611
0
LINE
8
BLACK
6
CONTINUOUS
10
156.794
20
-83.5611
11
156.789
21
-83.555
0
LINE
8
BLACK
6
CONTINUOUS
10
156.789
20
-83.555
11
155.259
21
-83.555
0
LINE
8
BLACK
6
CONTINUOUS
10
155.259
20
-83.555
11
155.251
21
-83.567
0
LINE
8
BLACK
6
CONTINUOUS
10
155.251
20
-83.567
11
155.195
21
-83.6227
0
LINE
8
BLACK
6
CONTINUOUS
10
155.195
20
-83.6227
11
155.129
21
-83.6665
0
LINE
8
BLACK
6
CONTINUOUS
10
155.129
20
-83.6665
11
155.057
21
-83.6966
0
LINE
8
BLACK
6
CONTINUOUS
10
155.057
20
-83.6966
11
154.979
21
-83.712
0
LINE
8
BLACK
6
CONTINUOUS
10
154.979
20
-83.712
11
154.901
21
-83.712
0
LINE
8
BLACK
6
CONTINUOUS
10
154.901
20
-83.712
11
154.823
21
-83.6966
0
LINE
8
BLACK
6
CONTINUOUS
10
154.823
20
-83.6966
11
154.751
21
-83.6665
0
LINE
8
BLACK
6
CONTINUOUS
10
154.751
20
-83.6665
11
154.685
21
-83.6227
0
LINE
8
BLACK
6
CONTINUOUS
10
154.685
20
-83.6227
11
154.629
21
-83.567
0
LINE
8
BLACK
6
CONTINUOUS
10
154.629
20
-83.567
11
154.586
21
-83.5015
0
LINE
8
BLACK
6
CONTINUOUS
10
154.586
20
-83.5015
11
154.555
21
-83.4287
0
LINE
8
BLACK
6
CONTINUOUS
10
154.555
20
-83.4287
11
154.54
21
-83.3514
0
LINE
8
BLACK
6
CONTINUOUS
10
154.54
20
-83.3514
11
154.54
21
-83.2726
0
LINE
8
BLACK
6
CONTINUOUS
10
154.54
20
-83.2726
11
154.555
21
-83.1953
0
LINE
8
BLACK
6
CONTINUOUS
10
154.555
20
-83.1953
11
154.586
21
-83.1225
0
LINE
8
BLACK
6
CONTINUOUS
10
154.586
20
-83.1225
11
154.629
21
-83.057
0
LINE
8
BLACK
6
CONTINUOUS
10
154.629
20
-83.057
11
154.685
21
-83.0013
0
LINE
8
BLACK
6
CONTINUOUS
10
154.685
20
-83.0013
11
154.751
21
-82.9575
0
LINE
8
BLACK
6
CONTINUOUS
10
154.751
20
-82.9575
11
154.823
21
-82.9274
0
LINE
8
BLACK
6
CONTINUOUS
10
154.823
20
-82.9274
11
154.901
21
-82.912
0
LINE
8
BLACK
6
CONTINUOUS
10
154.901
20
-82.912
11
154.979
21
-82.912
0
LINE
8
BLACK
6
CONTINUOUS
10
154.979
20
-82.912
11
155.057
21
-82.9274
0
LINE
8
BLACK
6
CONTINUOUS
10
164.963
20
-81.6574
11
165.035
21
-81.6875
0
LINE
8
BLACK
6
CONTINUOUS
10
165.035
20
-81.6875
11
165.101
21
-81.7313
0
LINE
8
BLACK
6
CONTINUOUS
10
165.101
20
-81.7313
11
165.157
21
-81.787
0
LINE
8
BLACK
6
CONTINUOUS
10
165.157
20
-81.787
11
165.2
21
-81.8525
0
LINE
8
BLACK
6
CONTINUOUS
10
165.2
20
-81.8525
11
165.231
21
-81.9253
0
LINE
8
BLACK
6
CONTINUOUS
10
165.231
20
-81.9253
11
165.246
21
-82.0026
0
LINE
8
BLACK
6
CONTINUOUS
10
165.246
20
-82.0026
11
165.246
21
-82.0814
0
LINE
8
BLACK
6
CONTINUOUS
10
165.246
20
-82.0814
11
165.231
21
-82.1587
0
LINE
8
BLACK
6
CONTINUOUS
10
165.231
20
-82.1587
11
165.2
21
-82.2315
0
LINE
8
BLACK
6
CONTINUOUS
10
165.2
20
-82.2315
11
165.157
21
-82.297
0
LINE
8
BLACK
6
CONTINUOUS
10
165.157
20
-82.297
11
165.101
21
-82.3527
0
LINE
8
BLACK
6
CONTINUOUS
10
165.101
20
-82.3527
11
165.035
21
-82.3965
0
LINE
8
BLACK
6
CONTINUOUS
10
165.035
20
-82.3965
11
164.963
21
-82.4266
0
LINE
8
BLACK
6
CONTINUOUS
10
164.963
20
-82.4266
11
164.885
21
-82.442
0
LINE
8
BLACK
6
CONTINUOUS
10
164.885
20
-82.442
11
164.807
21
-82.442
0
LINE
8
BLACK
6
CONTINUOUS
10
164.807
20
-82.442
11
164.729
21
-82.4266
0
LINE
8
BLACK
6
CONTINUOUS
10
164.729
20
-82.4266
11
164.657
21
-82.3965
0
LINE
8
BLACK
6
CONTINUOUS
10
164.657
20
-82.3965
11
164.591
21
-82.3527
0
LINE
8
BLACK
6
CONTINUOUS
10
164.591
20
-82.3527
11
164.535
21
-82.297
0
LINE
8
BLACK
6
CONTINUOUS
10
164.535
20
-82.297
11
164.527
21
-82.285
0
LINE
8
BLACK
6
CONTINUOUS
10
164.527
20
-82.285
11
163.611
21
-82.285
0
LINE
8
BLACK
6
CONTINUOUS
10
163.611
20
-82.285
11
163.606
21
-82.2911
0
LINE
8
BLACK
6
CONTINUOUS
10
163.606
20
-82.2911
11
163.583
21
-82.3097
0
LINE
8
BLACK
6
CONTINUOUS
10
163.583
20
-82.3097
11
163.557
21
-82.3236
0
LINE
8
BLACK
6
CONTINUOUS
10
163.557
20
-82.3236
11
163.529
21
-82.3321
0
LINE
8
BLACK
6
CONTINUOUS
10
163.529
20
-82.3321
11
163.5
21
-82.335
0
LINE
8
BLACK
6
CONTINUOUS
10
163.5
20
-82.335
11
161.85
21
-82.335
0
LINE
8
BLACK
6
CONTINUOUS
10
161.85
20
-82.335
11
161.821
21
-82.3321
0
LINE
8
BLACK
6
CONTINUOUS
10
161.821
20
-82.3321
11
161.793
21
-82.3236
0
LINE
8
BLACK
6
CONTINUOUS
10
161.793
20
-82.3236
11
161.767
21
-82.3097
0
LINE
8
BLACK
6
CONTINUOUS
10
161.767
20
-82.3097
11
161.744
21
-82.2911
0
LINE
8
BLACK
6
CONTINUOUS
10
161.744
20
-82.2911
11
161.725
21
-82.2683
0
LINE
8
BLACK
6
CONTINUOUS
10
161.725
20
-82.2683
11
161.711
21
-82.2424
0
LINE
8
BLACK
6
CONTINUOUS
10
161.711
20
-82.2424
11
161.703
21
-82.2143
0
LINE
8
BLACK
6
CONTINUOUS
10
161.703
20
-82.2143
11
161.7
21
-82.185
0
LINE
8
BLACK
6
CONTINUOUS
10
161.7
20
-82.185
11
161.7
21
-81.885
0
LINE
8
BLACK
6
CONTINUOUS
10
161.7
20
-81.885
11
161.703
21
-81.8557
0
LINE
8
BLACK
6
CONTINUOUS
10
161.703
20
-81.8557
11
161.711
21
-81.8276
0
LINE
8
BLACK
6
CONTINUOUS
10
161.711
20
-81.8276
11
161.725
21
-81.8017
0
LINE
8
BLACK
6
CONTINUOUS
10
161.725
20
-81.8017
11
161.744
21
-81.7789
0
LINE
8
BLACK
6
CONTINUOUS
10
161.744
20
-81.7789
11
161.767
21
-81.7603
0
LINE
8
BLACK
6
CONTINUOUS
10
161.767
20
-81.7603
11
161.793
21
-81.7464
0
LINE
8
BLACK
6
CONTINUOUS
10
161.793
20
-81.7464
11
161.821
21
-81.7379
0
LINE
8
BLACK
6
CONTINUOUS
10
161.821
20
-81.7379
11
161.85
21
-81.735
0
LINE
8
BLACK
6
CONTINUOUS
10
161.85
20
-81.735
11
163.5
21
-81.735
0
LINE
8
BLACK
6
CONTINUOUS
10
163.5
20
-81.735
11
163.529
21
-81.7379
0
LINE
8
BLACK
6
CONTINUOUS
10
163.529
20
-81.7379
11
163.557
21
-81.7464
0
LINE
8
BLACK
6
CONTINUOUS
10
163.557
20
-81.7464
11
163.583
21
-81.7603
0
LINE
8
BLACK
6
CONTINUOUS
10
163.583
20
-81.7603
11
163.606
21
-81.7789
0
LINE
8
BLACK
6
CONTINUOUS
10
163.606
20
-81.7789
11
163.611
21
-81.785
0
LINE
8
BLACK
6
CONTINUOUS
10
163.611
20
-81.785
11
164.537
21
-81.785
0
LINE
8
BLACK
6
CONTINUOUS
10
164.537
20
-81.785
11
164.591
21
-81.7313
0
LINE
8
BLACK
6
CONTINUOUS
10
164.591
20
-81.7313
11
164.657
21
-81.6875
0
LINE
8
BLACK
6
CONTINUOUS
10
164.657
20
-81.6875
11
164.729
21
-81.6574
0
LINE
8
BLACK
6
CONTINUOUS
10
164.729
20
-81.6574
11
164.807
21
-81.642
0
LINE
8
BLACK
6
CONTINUOUS
10
164.807
20
-81.642
11
164.885
21
-81.642
0
LINE
8
BLACK
6
CONTINUOUS
10
164.885
20
-81.642
11
164.963
21
-81.6574
0
LINE
8
BLACK
6
CONTINUOUS
10
155.057
20
-81.6574
11
155.129
21
-81.6875
0
LINE
8
BLACK
6
CONTINUOUS
10
155.129
20
-81.6875
11
155.195
21
-81.7313
0
LINE
8
BLACK
6
CONTINUOUS
10
155.195
20
-81.7313
11
155.249
21
-81.785
0
LINE
8
BLACK
6
CONTINUOUS
10
155.249
20
-81.785
11
156.789
21
-81.785
0
LINE
8
BLACK
6
CONTINUOUS
10
156.789
20
-81.785
11
156.794
21
-81.7789
0
LINE
8
BLACK
6
CONTINUOUS
10
156.794
20
-81.7789
11
156.817
21
-81.7603
0
LINE
8
BLACK
6
CONTINUOUS
10
156.817
20
-81.7603
11
156.843
21
-81.7464
0
LINE
8
BLACK
6
CONTINUOUS
10
156.843
20
-81.7464
11
156.871
21
-81.7379
0
LINE
8
BLACK
6
CONTINUOUS
10
156.871
20
-81.7379
11
156.9
21
-81.735
0
LINE
8
BLACK
6
CONTINUOUS
10
156.9
20
-81.735
11
158.55
21
-81.735
0
LINE
8
BLACK
6
CONTINUOUS
10
158.55
20
-81.735
11
158.579
21
-81.7379
0
LINE
8
BLACK
6
CONTINUOUS
10
158.579
20
-81.7379
11
158.607
21
-81.7464
0
LINE
8
BLACK
6
CONTINUOUS
10
158.607
20
-81.7464
11
158.633
21
-81.7603
0
LINE
8
BLACK
6
CONTINUOUS
10
158.633
20
-81.7603
11
158.656
21
-81.7789
0
LINE
8
BLACK
6
CONTINUOUS
10
158.656
20
-81.7789
11
158.675
21
-81.8017
0
LINE
8
BLACK
6
CONTINUOUS
10
158.675
20
-81.8017
11
158.689
21
-81.8276
0
LINE
8
BLACK
6
CONTINUOUS
10
158.689
20
-81.8276
11
158.697
21
-81.8557
0
LINE
8
BLACK
6
CONTINUOUS
10
158.697
20
-81.8557
11
158.7
21
-81.885
0
LINE
8
BLACK
6
CONTINUOUS
10
158.7
20
-81.885
11
158.7
21
-82.185
0
LINE
8
BLACK
6
CONTINUOUS
10
158.7
20
-82.185
11
158.697
21
-82.2143
0
LINE
8
BLACK
6
CONTINUOUS
10
158.697
20
-82.2143
11
158.689
21
-82.2424
0
LINE
8
BLACK
6
CONTINUOUS
10
158.689
20
-82.2424
11
158.675
21
-82.2683
0
LINE
8
BLACK
6
CONTINUOUS
10
158.675
20
-82.2683
11
158.656
21
-82.2911
0
LINE
8
BLACK
6
CONTINUOUS
10
158.656
20
-82.2911
11
158.633
21
-82.3097
0
LINE
8
BLACK
6
CONTINUOUS
10
158.633
20
-82.3097
11
158.607
21
-82.3236
0
LINE
8
BLACK
6
CONTINUOUS
10
158.607
20
-82.3236
11
158.579
21
-82.3321
0
LINE
8
BLACK
6
CONTINUOUS
10
158.579
20
-82.3321
11
158.55
21
-82.335
0
LINE
8
BLACK
6
CONTINUOUS
10
158.55
20
-82.335
11
156.9
21
-82.335
0
LINE
8
BLACK
6
CONTINUOUS
10
156.9
20
-82.335
11
156.871
21
-82.3321
0
LINE
8
BLACK
6
CONTINUOUS
10
156.871
20
-82.3321
11
156.843
21
-82.3236
0
LINE
8
BLACK
6
CONTINUOUS
10
156.843
20
-82.3236
11
156.817
21
-82.3097
0
LINE
8
BLACK
6
CONTINUOUS
10
156.817
20
-82.3097
11
156.794
21
-82.2911
0
LINE
8
BLACK
6
CONTINUOUS
10
156.794
20
-82.2911
11
156.789
21
-82.285
0
LINE
8
BLACK
6
CONTINUOUS
10
156.789
20
-82.285
11
155.259
21
-82.285
0
LINE
8
BLACK
6
CONTINUOUS
10
155.259
20
-82.285
11
155.251
21
-82.297
0
LINE
8
BLACK
6
CONTINUOUS
10
155.251
20
-82.297
11
155.195
21
-82.3527
0
LINE
8
BLACK
6
CONTINUOUS
10
155.195
20
-82.3527
11
155.129
21
-82.3965
0
LINE
8
BLACK
6
CONTINUOUS
10
155.129
20
-82.3965
11
155.057
21
-82.4266
0
LINE
8
BLACK
6
CONTINUOUS
10
155.057
20
-82.4266
11
154.979
21
-82.442
0
LINE
8
BLACK
6
CONTINUOUS
10
154.979
20
-82.442
11
154.901
21
-82.442
0
LINE
8
BLACK
6
CONTINUOUS
10
154.901
20
-82.442
11
154.823
21
-82.4266
0
LINE
8
BLACK
6
CONTINUOUS
10
154.823
20
-82.4266
11
154.751
21
-82.3965
0
LINE
8
BLACK
6
CONTINUOUS
10
154.751
20
-82.3965
11
154.685
21
-82.3527
0
LINE
8
BLACK
6
CONTINUOUS
10
154.685
20
-82.3527
11
154.629
21
-82.297
0
LINE
8
BLACK
6
CONTINUOUS
10
154.629
20
-82.297
11
154.586
21
-82.2315
0
LINE
8
BLACK
6
CONTINUOUS
10
154.586
20
-82.2315
11
154.555
21
-82.1587
0
LINE
8
BLACK
6
CONTINUOUS
10
154.555
20
-82.1587
11
154.54
21
-82.0814
0
LINE
8
BLACK
6
CONTINUOUS
10
154.54
20
-82.0814
11
154.54
21
-82.0026
0
LINE
8
BLACK
6
CONTINUOUS
10
154.54
20
-82.0026
11
154.555
21
-81.9253
0
LINE
8
BLACK
6
CONTINUOUS
10
154.555
20
-81.9253
11
154.586
21
-81.8525
0
LINE
8
BLACK
6
CONTINUOUS
10
154.586
20
-81.8525
11
154.629
21
-81.787
0
LINE
8
BLACK
6
CONTINUOUS
10
154.629
20
-81.787
11
154.685
21
-81.7313
0
LINE
8
BLACK
6
CONTINUOUS
10
154.685
20
-81.7313
11
154.751
21
-81.6875
0
LINE
8
BLACK
6
CONTINUOUS
10
154.751
20
-81.6875
11
154.823
21
-81.6574
0
LINE
8
BLACK
6
CONTINUOUS
10
154.823
20
-81.6574
11
154.901
21
-81.642
0
LINE
8
BLACK
6
CONTINUOUS
10
154.901
20
-81.642
11
154.979
21
-81.642
0
LINE
8
BLACK
6
CONTINUOUS
10
154.979
20
-81.642
11
155.057
21
-81.6574
0
LINE
8
BLACK
6
CONTINUOUS
10
145.192
20
-80.6123
11
145.352
21
-80.6609
0
LINE
8
BLACK
6
CONTINUOUS
10
145.352
20
-80.6609
11
145.5
21
-80.7398
0
LINE
8
BLACK
6
CONTINUOUS
10
145.5
20
-80.7398
11
145.629
21
-80.8461
0
LINE
8
BLACK
6
CONTINUOUS
10
145.629
20
-80.8461
11
145.735
21
-80.9755
0
LINE
8
BLACK
6
CONTINUOUS
10
145.735
20
-80.9755
11
145.814
21
-81.1231
0
LINE
8
BLACK
6
CONTINUOUS
10
145.814
20
-81.1231
11
145.863
21
-81.2834
0
LINE
8
BLACK
6
CONTINUOUS
10
145.863
20
-81.2834
11
145.879
21
-81.45
0
LINE
8
BLACK
6
CONTINUOUS
10
145.879
20
-81.45
11
145.863
21
-81.6166
0
LINE
8
BLACK
6
CONTINUOUS
10
145.863
20
-81.6166
11
145.814
21
-81.7769
0
LINE
8
BLACK
6
CONTINUOUS
10
145.814
20
-81.7769
11
145.735
21
-81.9245
0
LINE
8
BLACK
6
CONTINUOUS
10
145.735
20
-81.9245
11
145.629
21
-82.0539
0
LINE
8
BLACK
6
CONTINUOUS
10
145.629
20
-82.0539
11
145.5
21
-82.1602
0
LINE
8
BLACK
6
CONTINUOUS
10
145.5
20
-82.1602
11
145.352
21
-82.2391
0
LINE
8
BLACK
6
CONTINUOUS
10
145.352
20
-82.2391
11
145.192
21
-82.2877
0
LINE
8
BLACK
6
CONTINUOUS
10
145.192
20
-82.2877
11
145.067
21
-82.3
0
LINE
8
BLACK
6
CONTINUOUS
10
145.067
20
-82.3
11
144.733
21
-82.3
0
LINE
8
BLACK
6
CONTINUOUS
10
144.733
20
-82.3
11
144.608
21
-82.2877
0
LINE
8
BLACK
6
CONTINUOUS
10
144.608
20
-82.2877
11
144.448
21
-82.2391
0
LINE
8
BLACK
6
CONTINUOUS
10
144.448
20
-82.2391
11
144.3
21
-82.1602
0
LINE
8
BLACK
6
CONTINUOUS
10
144.3
20
-82.1602
11
144.171
21
-82.0539
0
LINE
8
BLACK
6
CONTINUOUS
10
144.171
20
-82.0539
11
144.065
21
-81.9245
0
LINE
8
BLACK
6
CONTINUOUS
10
144.065
20
-81.9245
11
143.986
21
-81.7769
0
LINE
8
BLACK
6
CONTINUOUS
10
143.986
20
-81.7769
11
143.937
21
-81.6166
0
LINE
8
BLACK
6
CONTINUOUS
10
143.937
20
-81.6166
11
143.921
21
-81.45
0
LINE
8
BLACK
6
CONTINUOUS
10
143.921
20
-81.45
11
143.937
21
-81.2834
0
LINE
8
BLACK
6
CONTINUOUS
10
143.937
20
-81.2834
11
143.986
21
-81.1231
0
LINE
8
BLACK
6
CONTINUOUS
10
143.986
20
-81.1231
11
144.065
21
-80.9755
0
LINE
8
BLACK
6
CONTINUOUS
10
144.065
20
-80.9755
11
144.171
21
-80.8461
0
LINE
8
BLACK
6
CONTINUOUS
10
144.171
20
-80.8461
11
144.3
21
-80.7398
0
LINE
8
BLACK
6
CONTINUOUS
10
144.3
20
-80.7398
11
144.448
21
-80.6609
0
LINE
8
BLACK
6
CONTINUOUS
10
144.448
20
-80.6609
11
144.608
21
-80.6123
0
LINE
8
BLACK
6
CONTINUOUS
10
144.608
20
-80.6123
11
144.733
21
-80.6
0
LINE
8
BLACK
6
CONTINUOUS
10
144.733
20
-80.6
11
145.067
21
-80.6
0
LINE
8
BLACK
6
CONTINUOUS
10
145.067
20
-80.6
11
145.192
21
-80.6123
0
LINE
8
BLACK
6
CONTINUOUS
10
164.963
20
-80.3874
11
165.035
21
-80.4175
0
LINE
8
BLACK
6
CONTINUOUS
10
165.035
20
-80.4175
11
165.101
21
-80.4613
0
LINE
8
BLACK
6
CONTINUOUS
10
165.101
20
-80.4613
11
165.157
21
-80.517
0
LINE
8
BLACK
6
CONTINUOUS
10
165.157
20
-80.517
11
165.2
21
-80.5825
0
LINE
8
BLACK
6
CONTINUOUS
10
165.2
20
-80.5825
11
165.231
21
-80.6553
0
LINE
8
BLACK
6
CONTINUOUS
10
165.231
20
-80.6553
11
165.246
21
-80.7326
0
LINE
8
BLACK
6
CONTINUOUS
10
165.246
20
-80.7326
11
165.246
21
-80.8114
0
LINE
8
BLACK
6
CONTINUOUS
10
165.246
20
-80.8114
11
165.231
21
-80.8887
0
LINE
8
BLACK
6
CONTINUOUS
10
165.231
20
-80.8887
11
165.2
21
-80.9615
0
LINE
8
BLACK
6
CONTINUOUS
10
165.2
20
-80.9615
11
165.157
21
-81.027
0
LINE
8
BLACK
6
CONTINUOUS
10
165.157
20
-81.027
11
165.101
21
-81.0827
0
LINE
8
BLACK
6
CONTINUOUS
10
165.101
20
-81.0827
11
165.035
21
-81.1265
0
LINE
8
BLACK
6
CONTINUOUS
10
165.035
20
-81.1265
11
164.963
21
-81.1566
0
LINE
8
BLACK
6
CONTINUOUS
10
164.963
20
-81.1566
11
164.885
21
-81.172
0
LINE
8
BLACK
6
CONTINUOUS
10
164.885
20
-81.172
11
164.807
21
-81.172
0
LINE
8
BLACK
6
CONTINUOUS
10
164.807
20
-81.172
11
164.729
21
-81.1566
0
LINE
8
BLACK
6
CONTINUOUS
10
164.729
20
-81.1566
11
164.657
21
-81.1265
0
LINE
8
BLACK
6
CONTINUOUS
10
164.657
20
-81.1265
11
164.591
21
-81.0827
0
LINE
8
BLACK
6
CONTINUOUS
10
164.591
20
-81.0827
11
164.535
21
-81.027
0
LINE
8
BLACK
6
CONTINUOUS
10
164.535
20
-81.027
11
164.527
21
-81.015
0
LINE
8
BLACK
6
CONTINUOUS
10
164.527
20
-81.015
11
163.611
21
-81.015
0
LINE
8
BLACK
6
CONTINUOUS
10
163.611
20
-81.015
11
163.606
21
-81.0211
0
LINE
8
BLACK
6
CONTINUOUS
10
163.606
20
-81.0211
11
163.583
21
-81.0397
0
LINE
8
BLACK
6
CONTINUOUS
10
163.583
20
-81.0397
11
163.557
21
-81.0536
0
LINE
8
BLACK
6
CONTINUOUS
10
163.557
20
-81.0536
11
163.529
21
-81.0621
0
LINE
8
BLACK
6
CONTINUOUS
10
163.529
20
-81.0621
11
163.5
21
-81.065
0
LINE
8
BLACK
6
CONTINUOUS
10
163.5
20
-81.065
11
161.85
21
-81.065
0
LINE
8
BLACK
6
CONTINUOUS
10
161.85
20
-81.065
11
161.821
21
-81.0621
0
LINE
8
BLACK
6
CONTINUOUS
10
161.821
20
-81.0621
11
161.793
21
-81.0536
0
LINE
8
BLACK
6
CONTINUOUS
10
161.793
20
-81.0536
11
161.767
21
-81.0397
0
LINE
8
BLACK
6
CONTINUOUS
10
161.767
20
-81.0397
11
161.744
21
-81.0211
0
LINE
8
BLACK
6
CONTINUOUS
10
161.744
20
-81.0211
11
161.725
21
-80.9983
0
LINE
8
BLACK
6
CONTINUOUS
10
161.725
20
-80.9983
11
161.711
21
-80.9724
0
LINE
8
BLACK
6
CONTINUOUS
10
161.711
20
-80.9724
11
161.703
21
-80.9443
0
LINE
8
BLACK
6
CONTINUOUS
10
161.703
20
-80.9443
11
161.7
21
-80.915
0
LINE
8
BLACK
6
CONTINUOUS
10
161.7
20
-80.915
11
161.7
21
-80.615
0
LINE
8
BLACK
6
CONTINUOUS
10
161.7
20
-80.615
11
161.703
21
-80.5857
0
LINE
8
BLACK
6
CONTINUOUS
10
161.703
20
-80.5857
11
161.711
21
-80.5576
0
LINE
8
BLACK
6
CONTINUOUS
10
161.711
20
-80.5576
11
161.725
21
-80.5317
0
LINE
8
BLACK
6
CONTINUOUS
10
161.725
20
-80.5317
11
161.744
21
-80.5089
0
LINE
8
BLACK
6
CONTINUOUS
10
161.744
20
-80.5089
11
161.767
21
-80.4903
0
LINE
8
BLACK
6
CONTINUOUS
10
161.767
20
-80.4903
11
161.793
21
-80.4764
0
LINE
8
BLACK
6
CONTINUOUS
10
161.793
20
-80.4764
11
161.821
21
-80.4679
0
LINE
8
BLACK
6
CONTINUOUS
10
161.821
20
-80.4679
11
161.85
21
-80.465
0
LINE
8
BLACK
6
CONTINUOUS
10
161.85
20
-80.465
11
163.5
21
-80.465
0
LINE
8
BLACK
6
CONTINUOUS
10
163.5
20
-80.465
11
163.529
21
-80.4679
0
LINE
8
BLACK
6
CONTINUOUS
10
163.529
20
-80.4679
11
163.557
21
-80.4764
0
LINE
8
BLACK
6
CONTINUOUS
10
163.557
20
-80.4764
11
163.583
21
-80.4903
0
LINE
8
BLACK
6
CONTINUOUS
10
163.583
20
-80.4903
11
163.606
21
-80.5089
0
LINE
8
BLACK
6
CONTINUOUS
10
163.606
20
-80.5089
11
163.611
21
-80.515
0
LINE
8
BLACK
6
CONTINUOUS
10
163.611
20
-80.515
11
164.537
21
-80.515
0
LINE
8
BLACK
6
CONTINUOUS
10
164.537
20
-80.515
11
164.591
21
-80.4613
0
LINE
8
BLACK
6
CONTINUOUS
10
164.591
20
-80.4613
11
164.657
21
-80.4175
0
LINE
8
BLACK
6
CONTINUOUS
10
164.657
20
-80.4175
11
164.729
21
-80.3874
0
LINE
8
BLACK
6
CONTINUOUS
10
164.729
20
-80.3874
11
164.807
21
-80.372
0
LINE
8
BLACK
6
CONTINUOUS
10
164.807
20
-80.372
11
164.885
21
-80.372
0
LINE
8
BLACK
6
CONTINUOUS
10
164.885
20
-80.372
11
164.963
21
-80.3874
0
LINE
8
BLACK
6
CONTINUOUS
10
155.057
20
-80.3874
11
155.129
21
-80.4175
0
LINE
8
BLACK
6
CONTINUOUS
10
155.129
20
-80.4175
11
155.195
21
-80.4613
0
LINE
8
BLACK
6
CONTINUOUS
10
155.195
20
-80.4613
11
155.249
21
-80.515
0
LINE
8
BLACK
6
CONTINUOUS
10
155.249
20
-80.515
11
156.789
21
-80.515
0
LINE
8
BLACK
6
CONTINUOUS
10
156.789
20
-80.515
11
156.794
21
-80.5089
0
LINE
8
BLACK
6
CONTINUOUS
10
156.794
20
-80.5089
11
156.817
21
-80.4903
0
LINE
8
BLACK
6
CONTINUOUS
10
156.817
20
-80.4903
11
156.843
21
-80.4764
0
LINE
8
BLACK
6
CONTINUOUS
10
156.843
20
-80.4764
11
156.871
21
-80.4679
0
LINE
8
BLACK
6
CONTINUOUS
10
156.871
20
-80.4679
11
156.9
21
-80.465
0
LINE
8
BLACK
6
CONTINUOUS
10
156.9
20
-80.465
11
158.55
21
-80.465
0
LINE
8
BLACK
6
CONTINUOUS
10
158.55
20
-80.465
11
158.579
21
-80.4679
0
LINE
8
BLACK
6
CONTINUOUS
10
158.579
20
-80.4679
11
158.607
21
-80.4764
0
LINE
8
BLACK
6
CONTINUOUS
10
158.607
20
-80.4764
11
158.633
21
-80.4903
0
LINE
8
BLACK
6
CONTINUOUS
10
158.633
20
-80.4903
11
158.656
21
-80.5089
0
LINE
8
BLACK
6
CONTINUOUS
10
158.656
20
-80.5089
11
158.675
21
-80.5317
0
LINE
8
BLACK
6
CONTINUOUS
10
158.675
20
-80.5317
11
158.689
21
-80.5576
0
LINE
8
BLACK
6
CONTINUOUS
10
158.689
20
-80.5576
11
158.697
21
-80.5857
0
LINE
8
BLACK
6
CONTINUOUS
10
158.697
20
-80.5857
11
158.7
21
-80.615
0
LINE
8
BLACK
6
CONTINUOUS
10
158.7
20
-80.615
11
158.7
21
-80.915
0
LINE
8
BLACK
6
CONTINUOUS
10
158.7
20
-80.915
11
158.697
21
-80.9443
0
LINE
8
BLACK
6
CONTINUOUS
10
158.697
20
-80.9443
11
158.689
21
-80.9724
0
LINE
8
BLACK
6
CONTINUOUS
10
158.689
20
-80.9724
11
158.675
21
-80.9983
0
LINE
8
BLACK
6
CONTINUOUS
10
158.675
20
-80.9983
11
158.656
21
-81.0211
0
LINE
8
BLACK
6
CONTINUOUS
10
158.656
20
-81.0211
11
158.633
21
-81.0397
0
LINE
8
BLACK
6
CONTINUOUS
10
158.633
20
-81.0397
11
158.607
21
-81.0536
0
LINE
8
BLACK
6
CONTINUOUS
10
158.607
20
-81.0536
11
158.579
21
-81.0621
0
LINE
8
BLACK
6
CONTINUOUS
10
158.579
20
-81.0621
11
158.55
21
-81.065
0
LINE
8
BLACK
6
CONTINUOUS
10
158.55
20
-81.065
11
156.9
21
-81.065
0
LINE
8
BLACK
6
CONTINUOUS
10
156.9
20
-81.065
11
156.871
21
-81.0621
0
LINE
8
BLACK
6
CONTINUOUS
10
156.871
20
-81.0621
11
156.843
21
-81.0536
0
LINE
8
BLACK
6
CONTINUOUS
10
156.843
20
-81.0536
11
156.817
21
-81.0397
0
LINE
8
BLACK
6
CONTINUOUS
10
156.817
20
-81.0397
11
156.794
21
-81.0211
0
LINE
8
BLACK
6
CONTINUOUS
10
156.794
20
-81.0211
11
156.789
21
-81.015
0
LINE
8
BLACK
6
CONTINUOUS
10
156.789
20
-81.015
11
155.259
21
-81.015
0
LINE
8
BLACK
6
CONTINUOUS
10
155.259
20
-81.015
11
155.251
21
-81.027
0
LINE
8
BLACK
6
CONTINUOUS
10
155.251
20
-81.027
11
155.195
21
-81.0827
0
LINE
8
BLACK
6
CONTINUOUS
10
155.195
20
-81.0827
11
155.129
21
-81.1265
0
LINE
8
BLACK
6
CONTINUOUS
10
155.129
20
-81.1265
11
155.057
21
-81.1566
0
LINE
8
BLACK
6
CONTINUOUS
10
155.057
20
-81.1566
11
154.979
21
-81.172
0
LINE
8
BLACK
6
CONTINUOUS
10
154.979
20
-81.172
11
154.901
21
-81.172
0
LINE
8
BLACK
6
CONTINUOUS
10
154.901
20
-81.172
11
154.823
21
-81.1566
0
LINE
8
BLACK
6
CONTINUOUS
10
154.823
20
-81.1566
11
154.751
21
-81.1265
0
LINE
8
BLACK
6
CONTINUOUS
10
154.751
20
-81.1265
11
154.685
21
-81.0827
0
LINE
8
BLACK
6
CONTINUOUS
10
154.685
20
-81.0827
11
154.629
21
-81.027
0
LINE
8
BLACK
6
CONTINUOUS
10
154.629
20
-81.027
11
154.586
21
-80.9615
0
LINE
8
BLACK
6
CONTINUOUS
10
154.586
20
-80.9615
11
154.555
21
-80.8887
0
LINE
8
BLACK
6
CONTINUOUS
10
154.555
20
-80.8887
11
154.54
21
-80.8114
0
LINE
8
BLACK
6
CONTINUOUS
10
154.54
20
-80.8114
11
154.54
21
-80.7326
0
LINE
8
BLACK
6
CONTINUOUS
10
154.54
20
-80.7326
11
154.555
21
-80.6553
0
LINE
8
BLACK
6
CONTINUOUS
10
154.555
20
-80.6553
11
154.586
21
-80.5825
0
LINE
8
BLACK
6
CONTINUOUS
10
154.586
20
-80.5825
11
154.629
21
-80.517
0
LINE
8
BLACK
6
CONTINUOUS
10
154.629
20
-80.517
11
154.685
21
-80.4613
0
LINE
8
BLACK
6
CONTINUOUS
10
154.685
20
-80.4613
11
154.751
21
-80.4175
0
LINE
8
BLACK
6
CONTINUOUS
10
154.751
20
-80.4175
11
154.823
21
-80.3874
0
LINE
8
BLACK
6
CONTINUOUS
10
154.823
20
-80.3874
11
154.901
21
-80.372
0
LINE
8
BLACK
6
CONTINUOUS
10
154.901
20
-80.372
11
154.979
21
-80.372
0
LINE
8
BLACK
6
CONTINUOUS
10
154.979
20
-80.372
11
155.057
21
-80.3874
0
LINE
8
BLACK
6
CONTINUOUS
10
170.25
20
-81
11
168.55
21
-81
0
LINE
8
BLACK
6
CONTINUOUS
10
168.55
20
-81
11
168.55
21
-79.3
0
LINE
8
BLACK
6
CONTINUOUS
10
168.55
20
-79.3
11
170.25
21
-79.3
0
LINE
8
BLACK
6
CONTINUOUS
10
170.25
20
-79.3
11
170.25
21
-81
0
LINE
8
BLACK
6
CONTINUOUS
10
155.057
20
-79.1174
11
155.129
21
-79.1475
0
LINE
8
BLACK
6
CONTINUOUS
10
155.129
20
-79.1475
11
155.195
21
-79.1913
0
LINE
8
BLACK
6
CONTINUOUS
10
155.195
20
-79.1913
11
155.249
21
-79.245
0
LINE
8
BLACK
6
CONTINUOUS
10
155.249
20
-79.245
11
156.789
21
-79.245
0
LINE
8
BLACK
6
CONTINUOUS
10
156.789
20
-79.245
11
156.794
21
-79.2389
0
LINE
8
BLACK
6
CONTINUOUS
10
156.794
20
-79.2389
11
156.817
21
-79.2203
0
LINE
8
BLACK
6
CONTINUOUS
10
156.817
20
-79.2203
11
156.843
21
-79.2064
0
LINE
8
BLACK
6
CONTINUOUS
10
156.843
20
-79.2064
11
156.871
21
-79.1979
0
LINE
8
BLACK
6
CONTINUOUS
10
156.871
20
-79.1979
11
156.9
21
-79.195
0
LINE
8
BLACK
6
CONTINUOUS
10
156.9
20
-79.195
11
158.55
21
-79.195
0
LINE
8
BLACK
6
CONTINUOUS
10
158.55
20
-79.195
11
158.579
21
-79.1979
0
LINE
8
BLACK
6
CONTINUOUS
10
158.579
20
-79.1979
11
158.607
21
-79.2064
0
LINE
8
BLACK
6
CONTINUOUS
10
158.607
20
-79.2064
11
158.633
21
-79.2203
0
LINE
8
BLACK
6
CONTINUOUS
10
158.633
20
-79.2203
11
158.656
21
-79.2389
0
LINE
8
BLACK
6
CONTINUOUS
10
158.656
20
-79.2389
11
158.675
21
-79.2617
0
LINE
8
BLACK
6
CONTINUOUS
10
158.675
20
-79.2617
11
158.689
21
-79.2876
0
LINE
8
BLACK
6
CONTINUOUS
10
158.689
20
-79.2876
11
158.697
21
-79.3157
0
LINE
8
BLACK
6
CONTINUOUS
10
158.697
20
-79.3157
11
158.7
21
-79.345
0
LINE
8
BLACK
6
CONTINUOUS
10
158.7
20
-79.345
11
158.7
21
-79.645
0
LINE
8
BLACK
6
CONTINUOUS
10
158.7
20
-79.645
11
158.697
21
-79.6743
0
LINE
8
BLACK
6
CONTINUOUS
10
158.697
20
-79.6743
11
158.689
21
-79.7024
0
LINE
8
BLACK
6
CONTINUOUS
10
158.689
20
-79.7024
11
158.675
21
-79.7283
0
LINE
8
BLACK
6
CONTINUOUS
10
158.675
20
-79.7283
11
158.656
21
-79.7511
0
LINE
8
BLACK
6
CONTINUOUS
10
158.656
20
-79.7511
11
158.633
21
-79.7697
0
LINE
8
BLACK
6
CONTINUOUS
10
158.633
20
-79.7697
11
158.607
21
-79.7836
0
LINE
8
BLACK
6
CONTINUOUS
10
158.607
20
-79.7836
11
158.579
21
-79.7921
0
LINE
8
BLACK
6
CONTINUOUS
10
158.579
20
-79.7921
11
158.55
21
-79.795
0
LINE
8
BLACK
6
CONTINUOUS
10
158.55
20
-79.795
11
156.9
21
-79.795
0
LINE
8
BLACK
6
CONTINUOUS
10
156.9
20
-79.795
11
156.871
21
-79.7921
0
LINE
8
BLACK
6
CONTINUOUS
10
156.871
20
-79.7921
11
156.843
21
-79.7836
0
LINE
8
BLACK
6
CONTINUOUS
10
156.843
20
-79.7836
11
156.817
21
-79.7697
0
LINE
8
BLACK
6
CONTINUOUS
10
156.817
20
-79.7697
11
156.794
21
-79.7511
0
LINE
8
BLACK
6
CONTINUOUS
10
156.794
20
-79.7511
11
156.789
21
-79.745
0
LINE
8
BLACK
6
CONTINUOUS
10
156.789
20
-79.745
11
155.259
21
-79.745
0
LINE
8
BLACK
6
CONTINUOUS
10
155.259
20
-79.745
11
155.251
21
-79.757
0
LINE
8
BLACK
6
CONTINUOUS
10
155.251
20
-79.757
11
155.195
21
-79.8127
0
LINE
8
BLACK
6
CONTINUOUS
10
155.195
20
-79.8127
11
155.129
21
-79.8565
0
LINE
8
BLACK
6
CONTINUOUS
10
155.129
20
-79.8565
11
155.057
21
-79.8866
0
LINE
8
BLACK
6
CONTINUOUS
10
155.057
20
-79.8866
11
154.979
21
-79.902
0
LINE
8
BLACK
6
CONTINUOUS
10
154.979
20
-79.902
11
154.901
21
-79.902
0
LINE
8
BLACK
6
CONTINUOUS
10
154.901
20
-79.902
11
154.823
21
-79.8866
0
LINE
8
BLACK
6
CONTINUOUS
10
154.823
20
-79.8866
11
154.751
21
-79.8565
0
LINE
8
BLACK
6
CONTINUOUS
10
154.751
20
-79.8565
11
154.685
21
-79.8127
0
LINE
8
BLACK
6
CONTINUOUS
10
154.685
20
-79.8127
11
154.629
21
-79.757
0
LINE
8
BLACK
6
CONTINUOUS
10
154.629
20
-79.757
11
154.586
21
-79.6915
0
LINE
8
BLACK
6
CONTINUOUS
10
154.586
20
-79.6915
11
154.555
21
-79.6187
0
LINE
8
BLACK
6
CONTINUOUS
10
154.555
20
-79.6187
11
154.54
21
-79.5414
0
LINE
8
BLACK
6
CONTINUOUS
10
154.54
20
-79.5414
11
154.54
21
-79.4626
0
LINE
8
BLACK
6
CONTINUOUS
10
154.54
20
-79.4626
11
154.555
21
-79.3853
0
LINE
8
BLACK
6
CONTINUOUS
10
154.555
20
-79.3853
11
154.586
21
-79.3125
0
LINE
8
BLACK
6
CONTINUOUS
10
154.586
20
-79.3125
11
154.629
21
-79.247
0
LINE
8
BLACK
6
CONTINUOUS
10
154.629
20
-79.247
11
154.685
21
-79.1913
0
LINE
8
BLACK
6
CONTINUOUS
10
154.685
20
-79.1913
11
154.751
21
-79.1475
0
LINE
8
BLACK
6
CONTINUOUS
10
154.751
20
-79.1475
11
154.823
21
-79.1174
0
LINE
8
BLACK
6
CONTINUOUS
10
154.823
20
-79.1174
11
154.901
21
-79.102
0
LINE
8
BLACK
6
CONTINUOUS
10
154.901
20
-79.102
11
154.979
21
-79.102
0
LINE
8
BLACK
6
CONTINUOUS
10
154.979
20
-79.102
11
155.057
21
-79.1174
0
LINE
8
BLACK
6
CONTINUOUS
10
164.963
20
-79.1174
11
165.035
21
-79.1475
0
LINE
8
BLACK
6
CONTINUOUS
10
165.035
20
-79.1475
11
165.101
21
-79.1913
0
LINE
8
BLACK
6
CONTINUOUS
10
165.101
20
-79.1913
11
165.157
21
-79.247
0
LINE
8
BLACK
6
CONTINUOUS
10
165.157
20
-79.247
11
165.2
21
-79.3125
0
LINE
8
BLACK
6
CONTINUOUS
10
165.2
20
-79.3125
11
165.231
21
-79.3853
0
LINE
8
BLACK
6
CONTINUOUS
10
165.231
20
-79.3853
11
165.246
21
-79.4626
0
LINE
8
BLACK
6
CONTINUOUS
10
165.246
20
-79.4626
11
165.246
21
-79.5414
0
LINE
8
BLACK
6
CONTINUOUS
10
165.246
20
-79.5414
11
165.231
21
-79.6187
0
LINE
8
BLACK
6
CONTINUOUS
10
165.231
20
-79.6187
11
165.2
21
-79.6915
0
LINE
8
BLACK
6
CONTINUOUS
10
165.2
20
-79.6915
11
165.157
21
-79.757
0
LINE
8
BLACK
6
CONTINUOUS
10
165.157
20
-79.757
11
165.101
21
-79.8127
0
LINE
8
BLACK
6
CONTINUOUS
10
165.101
20
-79.8127
11
165.035
21
-79.8565
0
LINE
8
BLACK
6
CONTINUOUS
10
165.035
20
-79.8565
11
164.963
21
-79.8866
0
LINE
8
BLACK
6
CONTINUOUS
10
164.963
20
-79.8866
11
164.885
21
-79.902
0
LINE
8
BLACK
6
CONTINUOUS
10
164.885
20
-79.902
11
164.807
21
-79.902
0
LINE
8
BLACK
6
CONTINUOUS
10
164.807
20
-79.902
11
164.729
21
-79.8866
0
LINE
8
BLACK
6
CONTINUOUS
10
164.729
20
-79.8866
11
164.657
21
-79.8565
0
LINE
8
BLACK
6
CONTINUOUS
10
164.657
20
-79.8565
11
164.591
21
-79.8127
0
LINE
8
BLACK
6
CONTINUOUS
10
164.591
20
-79.8127
11
164.535
21
-79.757
0
LINE
8
BLACK
6
CONTINUOUS
10
164.535
20
-79.757
11
164.527
21
-79.745
0
LINE
8
BLACK
6
CONTINUOUS
10
164.527
20
-79.745
11
163.611
21
-79.745
0
LINE
8
BLACK
6
CONTINUOUS
10
163.611
20
-79.745
11
163.606
21
-79.7511
0
LINE
8
BLACK
6
CONTINUOUS
10
163.606
20
-79.7511
11
163.583
21
-79.7697
0
LINE
8
BLACK
6
CONTINUOUS
10
163.583
20
-79.7697
11
163.557
21
-79.7836
0
LINE
8
BLACK
6
CONTINUOUS
10
163.557
20
-79.7836
11
163.529
21
-79.7921
0
LINE
8
BLACK
6
CONTINUOUS
10
163.529
20
-79.7921
11
163.5
21
-79.795
0
LINE
8
BLACK
6
CONTINUOUS
10
163.5
20
-79.795
11
161.85
21
-79.795
0
LINE
8
BLACK
6
CONTINUOUS
10
161.85
20
-79.795
11
161.821
21
-79.7921
0
LINE
8
BLACK
6
CONTINUOUS
10
161.821
20
-79.7921
11
161.793
21
-79.7836
0
LINE
8
BLACK
6
CONTINUOUS
10
161.793
20
-79.7836
11
161.767
21
-79.7697
0
LINE
8
BLACK
6
CONTINUOUS
10
161.767
20
-79.7697
11
161.744
21
-79.7511
0
LINE
8
BLACK
6
CONTINUOUS
10
161.744
20
-79.7511
11
161.725
21
-79.7283
0
LINE
8
BLACK
6
CONTINUOUS
10
161.725
20
-79.7283
11
161.711
21
-79.7024
0
LINE
8
BLACK
6
CONTINUOUS
10
161.711
20
-79.7024
11
161.703
21
-79.6743
0
LINE
8
BLACK
6
CONTINUOUS
10
161.703
20
-79.6743
11
161.7
21
-79.645
0
LINE
8
BLACK
6
CONTINUOUS
10
161.7
20
-79.645
11
161.7
21
-79.345
0
LINE
8
BLACK
6
CONTINUOUS
10
161.7
20
-79.345
11
161.703
21
-79.3157
0
LINE
8
BLACK
6
CONTINUOUS
10
161.703
20
-79.3157
11
161.711
21
-79.2876
0
LINE
8
BLACK
6
CONTINUOUS
10
161.711
20
-79.2876
11
161.725
21
-79.2617
0
LINE
8
BLACK
6
CONTINUOUS
10
161.725
20
-79.2617
11
161.744
21
-79.2389
0
LINE
8
BLACK
6
CONTINUOUS
10
161.744
20
-79.2389
11
161.767
21
-79.2203
0
LINE
8
BLACK
6
CONTINUOUS
10
161.767
20
-79.2203
11
161.793
21
-79.2064
0
LINE
8
BLACK
6
CONTINUOUS
10
161.793
20
-79.2064
11
161.821
21
-79.1979
0
LINE
8
BLACK
6
CONTINUOUS
10
161.821
20
-79.1979
11
161.85
21
-79.195
0
LINE
8
BLACK
6
CONTINUOUS
10
161.85
20
-79.195
11
163.5
21
-79.195
0
LINE
8
BLACK
6
CONTINUOUS
10
163.5
20
-79.195
11
163.529
21
-79.1979
0
LINE
8
BLACK
6
CONTINUOUS
10
163.529
20
-79.1979
11
163.557
21
-79.2064
0
LINE
8
BLACK
6
CONTINUOUS
10
163.557
20
-79.2064
11
163.583
21
-79.2203
0
LINE
8
BLACK
6
CONTINUOUS
10
163.583
20
-79.2203
11
163.606
21
-79.2389
0
LINE
8
BLACK
6
CONTINUOUS
10
163.606
20
-79.2389
11
163.611
21
-79.245
0
LINE
8
BLACK
6
CONTINUOUS
10
163.611
20
-79.245
11
164.537
21
-79.245
0
LINE
8
BLACK
6
CONTINUOUS
10
164.537
20
-79.245
11
164.591
21
-79.1913
0
LINE
8
BLACK
6
CONTINUOUS
10
164.591
20
-79.1913
11
164.657
21
-79.1475
0
LINE
8
BLACK
6
CONTINUOUS
10
164.657
20
-79.1475
11
164.729
21
-79.1174
0
LINE
8
BLACK
6
CONTINUOUS
10
164.729
20
-79.1174
11
164.807
21
-79.102
0
LINE
8
BLACK
6
CONTINUOUS
10
164.807
20
-79.102
11
164.885
21
-79.102
0
LINE
8
BLACK
6
CONTINUOUS
10
164.885
20
-79.102
11
164.963
21
-79.1174
0
LINE
8
BLACK
6
CONTINUOUS
10
172.188
20
-76.7927
11
172.343
21
-76.8567
0
LINE
8
BLACK
6
CONTINUOUS
10
172.343
20
-76.8567
11
172.482
21
-76.9498
0
LINE
8
BLACK
6
CONTINUOUS
10
172.482
20
-76.9498
11
172.6
21
-77.0682
0
LINE
8
BLACK
6
CONTINUOUS
10
172.6
20
-77.0682
11
172.693
21
-77.2074
0
LINE
8
BLACK
6
CONTINUOUS
10
172.693
20
-77.2074
11
172.757
21
-77.3621
0
LINE
8
BLACK
6
CONTINUOUS
10
172.757
20
-77.3621
11
172.79
21
-77.5263
0
LINE
8
BLACK
6
CONTINUOUS
10
172.79
20
-77.5263
11
172.79
21
-77.6937
0
LINE
8
BLACK
6
CONTINUOUS
10
172.79
20
-77.6937
11
172.757
21
-77.8579
0
LINE
8
BLACK
6
CONTINUOUS
10
172.757
20
-77.8579
11
172.693
21
-78.0126
0
LINE
8
BLACK
6
CONTINUOUS
10
172.693
20
-78.0126
11
172.6
21
-78.1518
0
LINE
8
BLACK
6
CONTINUOUS
10
172.6
20
-78.1518
11
172.482
21
-78.2702
0
LINE
8
BLACK
6
CONTINUOUS
10
172.482
20
-78.2702
11
172.343
21
-78.3633
0
LINE
8
BLACK
6
CONTINUOUS
10
172.343
20
-78.3633
11
172.188
21
-78.4273
0
LINE
8
BLACK
6
CONTINUOUS
10
172.188
20
-78.4273
11
172.024
21
-78.46
0
LINE
8
BLACK
6
CONTINUOUS
10
172.024
20
-78.46
11
171.856
21
-78.46
0
LINE
8
BLACK
6
CONTINUOUS
10
171.856
20
-78.46
11
171.692
21
-78.4273
0
LINE
8
BLACK
6
CONTINUOUS
10
171.692
20
-78.4273
11
171.537
21
-78.3633
0
LINE
8
BLACK
6
CONTINUOUS
10
171.537
20
-78.3633
11
171.398
21
-78.2702
0
LINE
8
BLACK
6
CONTINUOUS
10
171.398
20
-78.2702
11
171.28
21
-78.1518
0
LINE
8
BLACK
6
CONTINUOUS
10
171.28
20
-78.1518
11
171.187
21
-78.0126
0
LINE
8
BLACK
6
CONTINUOUS
10
171.187
20
-78.0126
11
171.123
21
-77.8579
0
LINE
8
BLACK
6
CONTINUOUS
10
171.123
20
-77.8579
11
171.09
21
-77.6937
0
LINE
8
BLACK
6
CONTINUOUS
10
171.09
20
-77.6937
11
171.09
21
-77.5263
0
LINE
8
BLACK
6
CONTINUOUS
10
171.09
20
-77.5263
11
171.123
21
-77.3621
0
LINE
8
BLACK
6
CONTINUOUS
10
171.123
20
-77.3621
11
171.187
21
-77.2074
0
LINE
8
BLACK
6
CONTINUOUS
10
171.187
20
-77.2074
11
171.28
21
-77.0682
0
LINE
8
BLACK
6
CONTINUOUS
10
171.28
20
-77.0682
11
171.398
21
-76.9498
0
LINE
8
BLACK
6
CONTINUOUS
10
171.398
20
-76.9498
11
171.537
21
-76.8567
0
LINE
8
BLACK
6
CONTINUOUS
10
171.537
20
-76.8567
11
171.692
21
-76.7927
0
LINE
8
BLACK
6
CONTINUOUS
10
171.692
20
-76.7927
11
171.856
21
-76.76
0
LINE
8
BLACK
6
CONTINUOUS
10
171.856
20
-76.76
11
172.024
21
-76.76
0
LINE
8
BLACK
6
CONTINUOUS
10
172.024
20
-76.76
11
172.188
21
-76.7927
0
LINE
8
BLACK
6
CONTINUOUS
10
169.648
20
-76.7927
11
169.803
21
-76.8567
0
LINE
8
BLACK
6
CONTINUOUS
10
169.803
20
-76.8567
11
169.942
21
-76.9498
0
LINE
8
BLACK
6
CONTINUOUS
10
169.942
20
-76.9498
11
170.06
21
-77.0682
0
LINE
8
BLACK
6
CONTINUOUS
10
170.06
20
-77.0682
11
170.153
21
-77.2074
0
LINE
8
BLACK
6
CONTINUOUS
10
170.153
20
-77.2074
11
170.217
21
-77.3621
0
LINE
8
BLACK
6
CONTINUOUS
10
170.217
20
-77.3621
11
170.25
21
-77.5263
0
LINE
8
BLACK
6
CONTINUOUS
10
170.25
20
-77.5263
11
170.25
21
-77.6937
0
LINE
8
BLACK
6
CONTINUOUS
10
170.25
20
-77.6937
11
170.217
21
-77.8579
0
LINE
8
BLACK
6
CONTINUOUS
10
170.217
20
-77.8579
11
170.153
21
-78.0126
0
LINE
8
BLACK
6
CONTINUOUS
10
170.153
20
-78.0126
11
170.06
21
-78.1518
0
LINE
8
BLACK
6
CONTINUOUS
10
170.06
20
-78.1518
11
169.942
21
-78.2702
0
LINE
8
BLACK
6
CONTINUOUS
10
169.942
20
-78.2702
11
169.803
21
-78.3633
0
LINE
8
BLACK
6
CONTINUOUS
10
169.803
20
-78.3633
11
169.648
21
-78.4273
0
LINE
8
BLACK
6
CONTINUOUS
10
169.648
20
-78.4273
11
169.484
21
-78.46
0
LINE
8
BLACK
6
CONTINUOUS
10
169.484
20
-78.46
11
169.316
21
-78.46
0
LINE
8
BLACK
6
CONTINUOUS
10
169.316
20
-78.46
11
169.152
21
-78.4273
0
LINE
8
BLACK
6
CONTINUOUS
10
169.152
20
-78.4273
11
168.997
21
-78.3633
0
LINE
8
BLACK
6
CONTINUOUS
10
168.997
20
-78.3633
11
168.858
21
-78.2702
0
LINE
8
BLACK
6
CONTINUOUS
10
168.858
20
-78.2702
11
168.74
21
-78.1518
0
LINE
8
BLACK
6
CONTINUOUS
10
168.74
20
-78.1518
11
168.647
21
-78.0126
0
LINE
8
BLACK
6
CONTINUOUS
10
168.647
20
-78.0126
11
168.583
21
-77.8579
0
LINE
8
BLACK
6
CONTINUOUS
10
168.583
20
-77.8579
11
168.55
21
-77.6937
0
LINE
8
BLACK
6
CONTINUOUS
10
168.55
20
-77.6937
11
168.55
21
-77.5263
0
LINE
8
BLACK
6
CONTINUOUS
10
168.55
20
-77.5263
11
168.583
21
-77.3621
0
LINE
8
BLACK
6
CONTINUOUS
10
168.583
20
-77.3621
11
168.647
21
-77.2074
0
LINE
8
BLACK
6
CONTINUOUS
10
168.647
20
-77.2074
11
168.74
21
-77.0682
0
LINE
8
BLACK
6
CONTINUOUS
10
168.74
20
-77.0682
11
168.858
21
-76.9498
0
LINE
8
BLACK
6
CONTINUOUS
10
168.858
20
-76.9498
11
168.997
21
-76.8567
0
LINE
8
BLACK
6
CONTINUOUS
10
168.997
20
-76.8567
11
169.152
21
-76.7927
0
LINE
8
BLACK
6
CONTINUOUS
10
169.152
20
-76.7927
11
169.316
21
-76.76
0
LINE
8
BLACK
6
CONTINUOUS
10
169.316
20
-76.76
11
169.484
21
-76.76
0
LINE
8
BLACK
6
CONTINUOUS
10
169.484
20
-76.76
11
169.648
21
-76.7927
0
LINE
8
BLACK
6
CONTINUOUS
10
151.283
20
-65.7307
11
151.429
21
-65.791
0
LINE
8
BLACK
6
CONTINUOUS
10
151.429
20
-65.791
11
151.56
21
-65.8786
0
LINE
8
BLACK
6
CONTINUOUS
10
151.56
20
-65.8786
11
151.671
21
-65.99
0
LINE
8
BLACK
6
CONTINUOUS
10
151.671
20
-65.99
11
151.759
21
-66.1211
0
LINE
8
BLACK
6
CONTINUOUS
10
151.759
20
-66.1211
11
151.812
21
-66.25
0
LINE
8
BLACK
6
CONTINUOUS
10
151.812
20
-66.25
11
157.083
21
-66.25
0
LINE
8
BLACK
6
CONTINUOUS
10
157.083
20
-66.25
11
157.171
21
-66.191
0
LINE
8
BLACK
6
CONTINUOUS
10
157.171
20
-66.191
11
157.317
21
-66.1307
0
LINE
8
BLACK
6
CONTINUOUS
10
157.317
20
-66.1307
11
157.471
21
-66.1
0
LINE
8
BLACK
6
CONTINUOUS
10
157.471
20
-66.1
11
157.629
21
-66.1
0
LINE
8
BLACK
6
CONTINUOUS
10
157.629
20
-66.1
11
157.783
21
-66.1307
0
LINE
8
BLACK
6
CONTINUOUS
10
157.783
20
-66.1307
11
157.929
21
-66.191
0
LINE
8
BLACK
6
CONTINUOUS
10
157.929
20
-66.191
11
158.06
21
-66.2786
0
LINE
8
BLACK
6
CONTINUOUS
10
158.06
20
-66.2786
11
158.171
21
-66.39
0
LINE
8
BLACK
6
CONTINUOUS
10
158.171
20
-66.39
11
158.259
21
-66.5211
0
LINE
8
BLACK
6
CONTINUOUS
10
158.259
20
-66.5211
11
158.312
21
-66.65
0
LINE
8
BLACK
6
CONTINUOUS
10
158.312
20
-66.65
11
167.5
21
-66.65
0
LINE
8
BLACK
6
CONTINUOUS
10
167.5
20
-66.65
11
167.5
21
-65.95
0
LINE
8
BLACK
6
CONTINUOUS
10
167.5
20
-65.95
11
169.3
21
-65.95
0
LINE
8
BLACK
6
CONTINUOUS
10
169.3
20
-65.95
11
169.3
21
-67.75
0
LINE
8
BLACK
6
CONTINUOUS
10
169.3
20
-67.75
11
168.65
21
-67.75
0
LINE
8
BLACK
6
CONTINUOUS
10
168.65
20
-67.75
11
168.65
21
-68.4464
0
LINE
8
BLACK
6
CONTINUOUS
10
168.65
20
-68.4464
11
172.108
21
-71.9045
0
LINE
8
BLACK
6
CONTINUOUS
10
172.108
20
-71.9045
11
172.118
21
-71.9124
0
LINE
8
BLACK
6
CONTINUOUS
10
172.118
20
-71.9124
11
172.149
21
-71.9504
0
LINE
8
BLACK
6
CONTINUOUS
10
172.149
20
-71.9504
11
172.172
21
-71.9939
0
LINE
8
BLACK
6
CONTINUOUS
10
172.172
20
-71.9939
11
172.186
21
-72.041
0
LINE
8
BLACK
6
CONTINUOUS
10
172.186
20
-72.041
11
172.191
21
-72.09
0
LINE
8
BLACK
6
CONTINUOUS
10
172.191
20
-72.09
11
172.19
21
-72.1023
0
LINE
8
BLACK
6
CONTINUOUS
10
172.19
20
-72.1023
11
172.19
21
-74.2535
0
LINE
8
BLACK
6
CONTINUOUS
10
172.19
20
-74.2535
11
172.343
21
-74.3167
0
LINE
8
BLACK
6
CONTINUOUS
10
172.343
20
-74.3167
11
172.482
21
-74.4098
0
LINE
8
BLACK
6
CONTINUOUS
10
172.482
20
-74.4098
11
172.6
21
-74.5282
0
LINE
8
BLACK
6
CONTINUOUS
10
172.6
20
-74.5282
11
172.693
21
-74.6674
0
LINE
8
BLACK
6
CONTINUOUS
10
172.693
20
-74.6674
11
172.757
21
-74.8221
0
LINE
8
BLACK
6
CONTINUOUS
10
172.757
20
-74.8221
11
172.79
21
-74.9863
0
LINE
8
BLACK
6
CONTINUOUS
10
172.79
20
-74.9863
11
172.79
21
-75.1537
0
LINE
8
BLACK
6
CONTINUOUS
10
172.79
20
-75.1537
11
172.757
21
-75.3179
0
LINE
8
BLACK
6
CONTINUOUS
10
172.757
20
-75.3179
11
172.693
21
-75.4726
0
LINE
8
BLACK
6
CONTINUOUS
10
172.693
20
-75.4726
11
172.6
21
-75.6118
0
LINE
8
BLACK
6
CONTINUOUS
10
172.6
20
-75.6118
11
172.482
21
-75.7302
0
LINE
8
BLACK
6
CONTINUOUS
10
172.482
20
-75.7302
11
172.343
21
-75.8233
0
LINE
8
BLACK
6
CONTINUOUS
10
172.343
20
-75.8233
11
172.188
21
-75.8873
0
LINE
8
BLACK
6
CONTINUOUS
10
172.188
20
-75.8873
11
172.024
21
-75.92
0
LINE
8
BLACK
6
CONTINUOUS
10
172.024
20
-75.92
11
171.856
21
-75.92
0
LINE
8
BLACK
6
CONTINUOUS
10
171.856
20
-75.92
11
171.692
21
-75.8873
0
LINE
8
BLACK
6
CONTINUOUS
10
171.692
20
-75.8873
11
171.537
21
-75.8233
0
LINE
8
BLACK
6
CONTINUOUS
10
171.537
20
-75.8233
11
171.398
21
-75.7302
0
LINE
8
BLACK
6
CONTINUOUS
10
171.398
20
-75.7302
11
171.28
21
-75.6118
0
LINE
8
BLACK
6
CONTINUOUS
10
171.28
20
-75.6118
11
171.187
21
-75.4726
0
LINE
8
BLACK
6
CONTINUOUS
10
171.187
20
-75.4726
11
171.123
21
-75.3179
0
LINE
8
BLACK
6
CONTINUOUS
10
171.123
20
-75.3179
11
171.09
21
-75.1537
0
LINE
8
BLACK
6
CONTINUOUS
10
171.09
20
-75.1537
11
171.09
21
-74.9863
0
LINE
8
BLACK
6
CONTINUOUS
10
171.09
20
-74.9863
11
171.123
21
-74.8221
0
LINE
8
BLACK
6
CONTINUOUS
10
171.123
20
-74.8221
11
171.187
21
-74.6674
0
LINE
8
BLACK
6
CONTINUOUS
10
171.187
20
-74.6674
11
171.28
21
-74.5282
0
LINE
8
BLACK
6
CONTINUOUS
10
171.28
20
-74.5282
11
171.398
21
-74.4098
0
LINE
8
BLACK
6
CONTINUOUS
10
171.398
20
-74.4098
11
171.537
21
-74.3167
0
LINE
8
BLACK
6
CONTINUOUS
10
171.537
20
-74.3167
11
171.69
21
-74.2535
0
LINE
8
BLACK
6
CONTINUOUS
10
171.69
20
-74.2535
11
171.69
21
-72.1936
0
LINE
8
BLACK
6
CONTINUOUS
10
171.69
20
-72.1936
11
168.232
21
-68.7355
0
LINE
8
BLACK
6
CONTINUOUS
10
168.232
20
-68.7355
11
168.222
21
-68.7276
0
LINE
8
BLACK
6
CONTINUOUS
10
168.222
20
-68.7276
11
168.191
21
-68.6896
0
LINE
8
BLACK
6
CONTINUOUS
10
168.191
20
-68.6896
11
168.168
21
-68.6461
0
LINE
8
BLACK
6
CONTINUOUS
10
168.168
20
-68.6461
11
168.168
21
-68.6461
0
LINE
8
BLACK
6
CONTINUOUS
10
168.168
20
-68.6461
11
168.154
21
-68.599
0
LINE
8
BLACK
6
CONTINUOUS
10
168.154
20
-68.599
11
168.149
21
-68.55
0
LINE
8
BLACK
6
CONTINUOUS
10
168.149
20
-68.55
11
168.15
21
-68.5377
0
LINE
8
BLACK
6
CONTINUOUS
10
168.15
20
-68.5377
11
168.15
21
-67.75
0
LINE
8
BLACK
6
CONTINUOUS
10
168.15
20
-67.75
11
167.5
21
-67.75
0
LINE
8
BLACK
6
CONTINUOUS
10
167.5
20
-67.75
11
167.5
21
-67.15
0
LINE
8
BLACK
6
CONTINUOUS
10
167.5
20
-67.15
11
158.312
21
-67.15
0
LINE
8
BLACK
6
CONTINUOUS
10
158.312
20
-67.15
11
158.259
21
-67.2789
0
LINE
8
BLACK
6
CONTINUOUS
10
158.259
20
-67.2789
11
158.171
21
-67.41
0
LINE
8
BLACK
6
CONTINUOUS
10
158.171
20
-67.41
11
158.06
21
-67.5214
0
LINE
8
BLACK
6
CONTINUOUS
10
158.06
20
-67.5214
11
157.929
21
-67.609
0
LINE
8
BLACK
6
CONTINUOUS
10
157.929
20
-67.609
11
157.783
21
-67.6693
0
LINE
8
BLACK
6
CONTINUOUS
10
157.783
20
-67.6693
11
157.629
21
-67.7
0
LINE
8
BLACK
6
CONTINUOUS
10
157.629
20
-67.7
11
157.471
21
-67.7
0
LINE
8
BLACK
6
CONTINUOUS
10
157.471
20
-67.7
11
157.317
21
-67.6693
0
LINE
8
BLACK
6
CONTINUOUS
10
157.317
20
-67.6693
11
157.171
21
-67.609
0
LINE
8
BLACK
6
CONTINUOUS
10
157.171
20
-67.609
11
157.04
21
-67.5214
0
LINE
8
BLACK
6
CONTINUOUS
10
157.04
20
-67.5214
11
156.929
21
-67.41
0
LINE
8
BLACK
6
CONTINUOUS
10
156.929
20
-67.41
11
156.841
21
-67.2789
0
LINE
8
BLACK
6
CONTINUOUS
10
156.841
20
-67.2789
11
156.781
21
-67.1334
0
LINE
8
BLACK
6
CONTINUOUS
10
156.781
20
-67.1334
11
156.75
21
-66.9788
0
LINE
8
BLACK
6
CONTINUOUS
10
156.75
20
-66.9788
11
156.75
21
-66.8212
0
LINE
8
BLACK
6
CONTINUOUS
10
156.75
20
-66.8212
11
156.764
21
-66.75
0
LINE
8
BLACK
6
CONTINUOUS
10
156.764
20
-66.75
11
151.812
21
-66.75
0
LINE
8
BLACK
6
CONTINUOUS
10
151.812
20
-66.75
11
151.759
21
-66.8789
0
LINE
8
BLACK
6
CONTINUOUS
10
151.759
20
-66.8789
11
151.671
21
-67.01
0
LINE
8
BLACK
6
CONTINUOUS
10
151.671
20
-67.01
11
151.56
21
-67.1214
0
LINE
8
BLACK
6
CONTINUOUS
10
151.56
20
-67.1214
11
151.429
21
-67.209
0
LINE
8
BLACK
6
CONTINUOUS
10
151.429
20
-67.209
11
151.283
21
-67.2693
0
LINE
8
BLACK
6
CONTINUOUS
10
151.283
20
-67.2693
11
151.129
21
-67.3
0
LINE
8
BLACK
6
CONTINUOUS
10
151.129
20
-67.3
11
150.971
21
-67.3
0
LINE
8
BLACK
6
CONTINUOUS
10
150.971
20
-67.3
11
150.817
21
-67.2693
0
LINE
8
BLACK
6
CONTINUOUS
10
150.817
20
-67.2693
11
150.688
21
-67.2158
0
LINE
8
BLACK
6
CONTINUOUS
10
150.688
20
-67.2158
11
150.085
21
-67.8181
0
LINE
8
BLACK
6
CONTINUOUS
10
150.085
20
-67.8181
11
150.078
21
-67.8276
0
LINE
8
BLACK
6
CONTINUOUS
10
150.078
20
-67.8276
11
150.04
21
-67.8589
0
LINE
8
BLACK
6
CONTINUOUS
10
150.04
20
-67.8589
11
149.996
21
-67.8821
0
LINE
8
BLACK
6
CONTINUOUS
10
149.996
20
-67.8821
11
149.949
21
-67.8964
0
LINE
8
BLACK
6
CONTINUOUS
10
149.949
20
-67.8964
11
149.9
21
-67.9012
0
LINE
8
BLACK
6
CONTINUOUS
10
149.9
20
-67.9012
11
149.888
21
-67.9
0
LINE
8
BLACK
6
CONTINUOUS
10
149.888
20
-67.9
11
146.712
21
-67.9
0
LINE
8
BLACK
6
CONTINUOUS
10
146.712
20
-67.9
11
146.689
21
-67.9769
0
LINE
8
BLACK
6
CONTINUOUS
10
146.689
20
-67.9769
11
146.61
21
-68.1245
0
LINE
8
BLACK
6
CONTINUOUS
10
146.61
20
-68.1245
11
146.504
21
-68.2539
0
LINE
8
BLACK
6
CONTINUOUS
10
146.504
20
-68.2539
11
146.375
21
-68.3602
0
LINE
8
BLACK
6
CONTINUOUS
10
146.375
20
-68.3602
11
146.227
21
-68.4391
0
LINE
8
BLACK
6
CONTINUOUS
10
146.227
20
-68.4391
11
146.067
21
-68.4877
0
LINE
8
BLACK
6
CONTINUOUS
10
146.067
20
-68.4877
11
145.942
21
-68.5
0
LINE
8
BLACK
6
CONTINUOUS
10
145.942
20
-68.5
11
145.558
21
-68.5
0
LINE
8
BLACK
6
CONTINUOUS
10
145.558
20
-68.5
11
145.433
21
-68.4877
0
LINE
8
BLACK
6
CONTINUOUS
10
145.433
20
-68.4877
11
145.273
21
-68.4391
0
LINE
8
BLACK
6
CONTINUOUS
10
145.273
20
-68.4391
11
145.125
21
-68.3602
0
LINE
8
BLACK
6
CONTINUOUS
10
145.125
20
-68.3602
11
144.996
21
-68.2539
0
LINE
8
BLACK
6
CONTINUOUS
10
144.996
20
-68.2539
11
144.89
21
-68.1245
0
LINE
8
BLACK
6
CONTINUOUS
10
144.89
20
-68.1245
11
144.811
21
-67.9769
0
LINE
8
BLACK
6
CONTINUOUS
10
144.811
20
-67.9769
11
144.762
21
-67.8166
0
LINE
8
BLACK
6
CONTINUOUS
10
144.762
20
-67.8166
11
144.746
21
-67.65
0
LINE
8
BLACK
6
CONTINUOUS
10
144.746
20
-67.65
11
144.762
21
-67.4834
0
LINE
8
BLACK
6
CONTINUOUS
10
144.762
20
-67.4834
11
144.811
21
-67.3231
0
LINE
8
BLACK
6
CONTINUOUS
10
144.811
20
-67.3231
11
144.89
21
-67.1755
0
LINE
8
BLACK
6
CONTINUOUS
10
144.89
20
-67.1755
11
144.996
21
-67.0461
0
LINE
8
BLACK
6
CONTINUOUS
10
144.996
20
-67.0461
11
145.125
21
-66.9398
0
LINE
8
BLACK
6
CONTINUOUS
10
145.125
20
-66.9398
11
145.273
21
-66.8609
0
LINE
8
BLACK
6
CONTINUOUS
10
145.273
20
-66.8609
11
145.433
21
-66.8123
0
LINE
8
BLACK
6
CONTINUOUS
10
145.433
20
-66.8123
11
145.558
21
-66.8
0
LINE
8
BLACK
6
CONTINUOUS
10
145.558
20
-66.8
11
145.942
21
-66.8
0
LINE
8
BLACK
6
CONTINUOUS
10
145.942
20
-66.8
11
146.067
21
-66.8123
0
LINE
8
BLACK
6
CONTINUOUS
10
146.067
20
-66.8123
11
146.227
21
-66.8609
0
LINE
8
BLACK
6
CONTINUOUS
10
146.227
20
-66.8609
11
146.375
21
-66.9398
0
LINE
8
BLACK
6
CONTINUOUS
10
146.375
20
-66.9398
11
146.504
21
-67.0461
0
LINE
8
BLACK
6
CONTINUOUS
10
146.504
20
-67.0461
11
146.61
21
-67.1755
0
LINE
8
BLACK
6
CONTINUOUS
10
146.61
20
-67.1755
11
146.689
21
-67.3231
0
LINE
8
BLACK
6
CONTINUOUS
10
146.689
20
-67.3231
11
146.712
21
-67.4
0
LINE
8
BLACK
6
CONTINUOUS
10
146.712
20
-67.4
11
149.796
21
-67.4
0
LINE
8
BLACK
6
CONTINUOUS
10
149.796
20
-67.4
11
150.334
21
-66.8623
0
LINE
8
BLACK
6
CONTINUOUS
10
150.334
20
-66.8623
11
150.281
21
-66.7334
0
LINE
8
BLACK
6
CONTINUOUS
10
150.281
20
-66.7334
11
150.25
21
-66.5788
0
LINE
8
BLACK
6
CONTINUOUS
10
150.25
20
-66.5788
11
150.25
21
-66.4212
0
LINE
8
BLACK
6
CONTINUOUS
10
150.25
20
-66.4212
11
150.281
21
-66.2666
0
LINE
8
BLACK
6
CONTINUOUS
10
150.281
20
-66.2666
11
150.341
21
-66.1211
0
LINE
8
BLACK
6
CONTINUOUS
10
150.341
20
-66.1211
11
150.429
21
-65.99
0
LINE
8
BLACK
6
CONTINUOUS
10
150.429
20
-65.99
11
150.54
21
-65.8786
0
LINE
8
BLACK
6
CONTINUOUS
10
150.54
20
-65.8786
11
150.671
21
-65.791
0
LINE
8
BLACK
6
CONTINUOUS
10
150.671
20
-65.791
11
150.817
21
-65.7307
0
LINE
8
BLACK
6
CONTINUOUS
10
150.817
20
-65.7307
11
150.971
21
-65.7
0
LINE
8
BLACK
6
CONTINUOUS
10
150.971
20
-65.7
11
151.129
21
-65.7
0
LINE
8
BLACK
6
CONTINUOUS
10
151.129
20
-65.7
11
151.283
21
-65.7307
0
LINE
8
BLACK
6
CONTINUOUS
10
169.648
20
-74.2527
11
169.803
21
-74.3167
0
LINE
8
BLACK
6
CONTINUOUS
10
169.803
20
-74.3167
11
169.942
21
-74.4098
0
LINE
8
BLACK
6
CONTINUOUS
10
169.942
20
-74.4098
11
170.06
21
-74.5282
0
LINE
8
BLACK
6
CONTINUOUS
10
170.06
20
-74.5282
11
170.153
21
-74.6674
0
LINE
8
BLACK
6
CONTINUOUS
10
170.153
20
-74.6674
11
170.217
21
-74.8221
0
LINE
8
BLACK
6
CONTINUOUS
10
170.217
20
-74.8221
11
170.25
21
-74.9863
0
LINE
8
BLACK
6
CONTINUOUS
10
170.25
20
-74.9863
11
170.25
21
-75.1537
0
LINE
8
BLACK
6
CONTINUOUS
10
170.25
20
-75.1537
11
170.217
21
-75.3179
0
LINE
8
BLACK
6
CONTINUOUS
10
170.217
20
-75.3179
11
170.153
21
-75.4726
0
LINE
8
BLACK
6
CONTINUOUS
10
170.153
20
-75.4726
11
170.06
21
-75.6118
0
LINE
8
BLACK
6
CONTINUOUS
10
170.06
20
-75.6118
11
169.942
21
-75.7302
0
LINE
8
BLACK
6
CONTINUOUS
10
169.942
20
-75.7302
11
169.803
21
-75.8233
0
LINE
8
BLACK
6
CONTINUOUS
10
169.803
20
-75.8233
11
169.648
21
-75.8873
0
LINE
8
BLACK
6
CONTINUOUS
10
169.648
20
-75.8873
11
169.484
21
-75.92
0
LINE
8
BLACK
6
CONTINUOUS
10
169.484
20
-75.92
11
169.316
21
-75.92
0
LINE
8
BLACK
6
CONTINUOUS
10
169.316
20
-75.92
11
169.152
21
-75.8873
0
LINE
8
BLACK
6
CONTINUOUS
10
169.152
20
-75.8873
11
168.997
21
-75.8233
0
LINE
8
BLACK
6
CONTINUOUS
10
168.997
20
-75.8233
11
168.858
21
-75.7302
0
LINE
8
BLACK
6
CONTINUOUS
10
168.858
20
-75.7302
11
168.74
21
-75.6118
0
LINE
8
BLACK
6
CONTINUOUS
10
168.74
20
-75.6118
11
168.647
21
-75.4726
0
LINE
8
BLACK
6
CONTINUOUS
10
168.647
20
-75.4726
11
168.583
21
-75.3179
0
LINE
8
BLACK
6
CONTINUOUS
10
168.583
20
-75.3179
11
168.55
21
-75.1537
0
LINE
8
BLACK
6
CONTINUOUS
10
168.55
20
-75.1537
11
168.55
21
-74.9863
0
LINE
8
BLACK
6
CONTINUOUS
10
168.55
20
-74.9863
11
168.583
21
-74.8221
0
LINE
8
BLACK
6
CONTINUOUS
10
168.583
20
-74.8221
11
168.647
21
-74.6674
0
LINE
8
BLACK
6
CONTINUOUS
10
168.647
20
-74.6674
11
168.74
21
-74.5282
0
LINE
8
BLACK
6
CONTINUOUS
10
168.74
20
-74.5282
11
168.858
21
-74.4098
0
LINE
8
BLACK
6
CONTINUOUS
10
168.858
20
-74.4098
11
168.997
21
-74.3167
0
LINE
8
BLACK
6
CONTINUOUS
10
168.997
20
-74.3167
11
169.152
21
-74.2527
0
LINE
8
BLACK
6
CONTINUOUS
10
169.152
20
-74.2527
11
169.316
21
-74.22
0
LINE
8
BLACK
6
CONTINUOUS
10
169.316
20
-74.22
11
169.484
21
-74.22
0
LINE
8
BLACK
6
CONTINUOUS
10
169.484
20
-74.22
11
169.648
21
-74.2527
0
LINE
8
BLACK
6
CONTINUOUS
10
156.533
20
-74.2807
11
156.679
21
-74.341
0
LINE
8
BLACK
6
CONTINUOUS
10
156.679
20
-74.341
11
156.81
21
-74.4286
0
LINE
8
BLACK
6
CONTINUOUS
10
156.81
20
-74.4286
11
156.921
21
-74.54
0
LINE
8
BLACK
6
CONTINUOUS
10
156.921
20
-74.54
11
157.009
21
-74.6711
0
LINE
8
BLACK
6
CONTINUOUS
10
157.009
20
-74.6711
11
157.069
21
-74.8166
0
LINE
8
BLACK
6
CONTINUOUS
10
157.069
20
-74.8166
11
157.1
21
-74.9712
0
LINE
8
BLACK
6
CONTINUOUS
10
157.1
20
-74.9712
11
157.1
21
-75.1288
0
LINE
8
BLACK
6
CONTINUOUS
10
157.1
20
-75.1288
11
157.069
21
-75.2834
0
LINE
8
BLACK
6
CONTINUOUS
10
157.069
20
-75.2834
11
157.009
21
-75.4289
0
LINE
8
BLACK
6
CONTINUOUS
10
157.009
20
-75.4289
11
156.921
21
-75.56
0
LINE
8
BLACK
6
CONTINUOUS
10
156.921
20
-75.56
11
156.81
21
-75.6714
0
LINE
8
BLACK
6
CONTINUOUS
10
156.81
20
-75.6714
11
156.679
21
-75.759
0
LINE
8
BLACK
6
CONTINUOUS
10
156.679
20
-75.759
11
156.533
21
-75.8193
0
LINE
8
BLACK
6
CONTINUOUS
10
156.533
20
-75.8193
11
156.379
21
-75.85
0
LINE
8
BLACK
6
CONTINUOUS
10
156.379
20
-75.85
11
156.221
21
-75.85
0
LINE
8
BLACK
6
CONTINUOUS
10
156.221
20
-75.85
11
156.067
21
-75.8193
0
LINE
8
BLACK
6
CONTINUOUS
10
156.067
20
-75.8193
11
155.921
21
-75.759
0
LINE
8
BLACK
6
CONTINUOUS
10
155.921
20
-75.759
11
155.79
21
-75.6714
0
LINE
8
BLACK
6
CONTINUOUS
10
155.79
20
-75.6714
11
155.679
21
-75.56
0
LINE
8
BLACK
6
CONTINUOUS
10
155.679
20
-75.56
11
155.591
21
-75.4289
0
LINE
8
BLACK
6
CONTINUOUS
10
155.591
20
-75.4289
11
155.531
21
-75.2834
0
LINE
8
BLACK
6
CONTINUOUS
10
155.531
20
-75.2834
11
155.5
21
-75.1288
0
LINE
8
BLACK
6
CONTINUOUS
10
155.5
20
-75.1288
11
155.5
21
-74.9712
0
LINE
8
BLACK
6
CONTINUOUS
10
155.5
20
-74.9712
11
155.531
21
-74.8166
0
LINE
8
BLACK
6
CONTINUOUS
10
155.531
20
-74.8166
11
155.591
21
-74.6711
0
LINE
8
BLACK
6
CONTINUOUS
10
155.591
20
-74.6711
11
155.679
21
-74.54
0
LINE
8
BLACK
6
CONTINUOUS
10
155.679
20
-74.54
11
155.79
21
-74.4286
0
LINE
8
BLACK
6
CONTINUOUS
10
155.79
20
-74.4286
11
155.921
21
-74.341
0
LINE
8
BLACK
6
CONTINUOUS
10
155.921
20
-74.341
11
156.067
21
-74.2807
0
LINE
8
BLACK
6
CONTINUOUS
10
156.067
20
-74.2807
11
156.221
21
-74.25
0
LINE
8
BLACK
6
CONTINUOUS
10
156.221
20
-74.25
11
156.379
21
-74.25
0
LINE
8
BLACK
6
CONTINUOUS
10
156.379
20
-74.25
11
156.533
21
-74.2807
0
LINE
8
BLACK
6
CONTINUOUS
10
144.302
20
-73.3028
11
144.33
21
-73.3114
0
LINE
8
BLACK
6
CONTINUOUS
10
144.33
20
-73.3114
11
144.356
21
-73.3254
0
LINE
8
BLACK
6
CONTINUOUS
10
144.356
20
-73.3254
11
144.378
21
-73.344
0
LINE
8
BLACK
6
CONTINUOUS
10
144.378
20
-73.344
11
144.397
21
-73.3667
0
LINE
8
BLACK
6
CONTINUOUS
10
144.397
20
-73.3667
11
144.411
21
-73.3926
0
LINE
8
BLACK
6
CONTINUOUS
10
144.411
20
-73.3926
11
144.419
21
-73.4206
0
LINE
8
BLACK
6
CONTINUOUS
10
144.419
20
-73.4206
11
144.422
21
-73.4497
0
LINE
8
BLACK
6
CONTINUOUS
10
144.422
20
-73.4497
11
144.422
21
-73.8711
0
LINE
8
BLACK
6
CONTINUOUS
10
144.422
20
-73.8711
11
144.843
21
-73.8711
0
LINE
8
BLACK
6
CONTINUOUS
10
144.843
20
-73.8711
11
144.846
21
-73.8712
0
LINE
8
BLACK
6
CONTINUOUS
10
144.846
20
-73.8712
11
144.875
21
-73.8744
0
LINE
8
BLACK
6
CONTINUOUS
10
144.875
20
-73.8744
11
144.903
21
-73.8833
0
LINE
8
BLACK
6
CONTINUOUS
10
144.903
20
-73.8833
11
144.928
21
-73.8974
0
LINE
8
BLACK
6
CONTINUOUS
10
144.928
20
-73.8974
11
144.951
21
-73.9162
0
LINE
8
BLACK
6
CONTINUOUS
10
144.951
20
-73.9162
11
144.969
21
-73.939
0
LINE
8
BLACK
6
CONTINUOUS
10
144.969
20
-73.939
11
144.983
21
-73.965
0
LINE
8
BLACK
6
CONTINUOUS
10
144.983
20
-73.965
11
144.991
21
-73.993
0
LINE
8
BLACK
6
CONTINUOUS
10
144.991
20
-73.993
11
144.993
21
-74.0222
0
LINE
8
BLACK
6
CONTINUOUS
10
144.993
20
-74.0222
11
144.99
21
-74.0513
0
LINE
8
BLACK
6
CONTINUOUS
10
144.99
20
-74.0513
11
144.982
21
-74.0793
0
LINE
8
BLACK
6
CONTINUOUS
10
144.982
20
-74.0793
11
144.968
21
-74.105
0
LINE
8
BLACK
6
CONTINUOUS
10
144.968
20
-74.105
11
144.949
21
-74.1276
0
LINE
8
BLACK
6
CONTINUOUS
10
144.949
20
-74.1276
11
144.926
21
-74.1461
0
LINE
8
BLACK
6
CONTINUOUS
10
144.926
20
-74.1461
11
144.901
21
-74.1598
0
LINE
8
BLACK
6
CONTINUOUS
10
144.901
20
-74.1598
11
144.873
21
-74.1683
0
LINE
8
BLACK
6
CONTINUOUS
10
144.873
20
-74.1683
11
144.843
21
-74.1711
0
LINE
8
BLACK
6
CONTINUOUS
10
144.843
20
-74.1711
11
144.422
21
-74.1711
0
LINE
8
BLACK
6
CONTINUOUS
10
144.422
20
-74.1711
11
144.422
21
-74.5926
0
LINE
8
BLACK
6
CONTINUOUS
10
144.422
20
-74.5926
11
144.422
21
-74.5947
0
LINE
8
BLACK
6
CONTINUOUS
10
144.422
20
-74.5947
11
144.419
21
-74.6238
0
LINE
8
BLACK
6
CONTINUOUS
10
144.419
20
-74.6238
11
144.41
21
-74.6517
0
LINE
8
BLACK
6
CONTINUOUS
10
144.41
20
-74.6517
11
144.396
21
-74.6773
0
LINE
8
BLACK
6
CONTINUOUS
10
144.396
20
-74.6773
11
144.377
21
-74.6997
0
LINE
8
BLACK
6
CONTINUOUS
10
144.377
20
-74.6997
11
144.354
21
-74.7181
0
LINE
8
BLACK
6
CONTINUOUS
10
144.354
20
-74.7181
11
144.328
21
-74.7316
0
LINE
8
BLACK
6
CONTINUOUS
10
144.328
20
-74.7316
11
144.3
21
-74.7399
0
LINE
8
BLACK
6
CONTINUOUS
10
144.3
20
-74.7399
11
144.271
21
-74.7426
0
LINE
8
BLACK
6
CONTINUOUS
10
144.271
20
-74.7426
11
144.242
21
-74.7395
0
LINE
8
BLACK
6
CONTINUOUS
10
144.242
20
-74.7395
11
144.214
21
-74.7308
0
LINE
8
BLACK
6
CONTINUOUS
10
144.214
20
-74.7308
11
144.188
21
-74.7169
0
LINE
8
BLACK
6
CONTINUOUS
10
144.188
20
-74.7169
11
144.166
21
-74.6983
0
LINE
8
BLACK
6
CONTINUOUS
10
144.166
20
-74.6983
11
144.147
21
-74.6756
0
LINE
8
BLACK
6
CONTINUOUS
10
144.147
20
-74.6756
11
144.133
21
-74.6497
0
LINE
8
BLACK
6
CONTINUOUS
10
144.133
20
-74.6497
11
144.125
21
-74.6217
0
LINE
8
BLACK
6
CONTINUOUS
10
144.125
20
-74.6217
11
144.122
21
-74.5926
0
LINE
8
BLACK
6
CONTINUOUS
10
144.122
20
-74.5926
11
144.122
21
-74.1711
0
LINE
8
BLACK
6
CONTINUOUS
10
144.122
20
-74.1711
11
143.701
21
-74.1711
0
LINE
8
BLACK
6
CONTINUOUS
10
143.701
20
-74.1711
11
143.698
21
-74.1711
0
LINE
8
BLACK
6
CONTINUOUS
10
143.698
20
-74.1711
11
143.669
21
-74.1679
0
LINE
8
BLACK
6
CONTINUOUS
10
143.669
20
-74.1679
11
143.641
21
-74.159
0
LINE
8
BLACK
6
CONTINUOUS
10
143.641
20
-74.159
11
143.616
21
-74.1449
0
LINE
8
BLACK
6
CONTINUOUS
10
143.616
20
-74.1449
11
143.593
21
-74.1261
0
LINE
8
BLACK
6
CONTINUOUS
10
143.593
20
-74.1261
11
143.575
21
-74.1033
0
LINE
8
BLACK
6
CONTINUOUS
10
143.575
20
-74.1033
11
143.561
21
-74.0773
0
LINE
8
BLACK
6
CONTINUOUS
10
143.561
20
-74.0773
11
143.553
21
-74.0492
0
LINE
8
BLACK
6
CONTINUOUS
10
143.553
20
-74.0492
11
143.551
21
-74.0201
0
LINE
8
BLACK
6
CONTINUOUS
10
143.551
20
-74.0201
11
143.554
21
-73.991
0
LINE
8
BLACK
6
CONTINUOUS
10
143.554
20
-73.991
11
143.562
21
-73.963
0
LINE
8
BLACK
6
CONTINUOUS
10
143.562
20
-73.963
11
143.576
21
-73.9373
0
LINE
8
BLACK
6
CONTINUOUS
10
143.576
20
-73.9373
11
143.595
21
-73.9147
0
LINE
8
BLACK
6
CONTINUOUS
10
143.595
20
-73.9147
11
143.618
21
-73.8962
0
LINE
8
BLACK
6
CONTINUOUS
10
143.618
20
-73.8962
11
143.643
21
-73.8825
0
LINE
8
BLACK
6
CONTINUOUS
10
143.643
20
-73.8825
11
143.671
21
-73.874
0
LINE
8
BLACK
6
CONTINUOUS
10
143.671
20
-73.874
11
143.701
21
-73.8711
0
LINE
8
BLACK
6
CONTINUOUS
10
143.701
20
-73.8711
11
144.122
21
-73.8711
0
LINE
8
BLACK
6
CONTINUOUS
10
144.122
20
-73.8711
11
144.122
21
-73.4497
0
LINE
8
BLACK
6
CONTINUOUS
10
144.122
20
-73.4497
11
144.122
21
-73.4476
0
LINE
8
BLACK
6
CONTINUOUS
10
144.122
20
-73.4476
11
144.125
21
-73.4185
0
LINE
8
BLACK
6
CONTINUOUS
10
144.125
20
-73.4185
11
144.134
21
-73.3906
0
LINE
8
BLACK
6
CONTINUOUS
10
144.134
20
-73.3906
11
144.148
21
-73.365
0
LINE
8
BLACK
6
CONTINUOUS
10
144.148
20
-73.365
11
144.167
21
-73.3425
0
LINE
8
BLACK
6
CONTINUOUS
10
144.167
20
-73.3425
11
144.19
21
-73.3242
0
LINE
8
BLACK
6
CONTINUOUS
10
144.19
20
-73.3242
11
144.216
21
-73.3106
0
LINE
8
BLACK
6
CONTINUOUS
10
144.216
20
-73.3106
11
144.244
21
-73.3024
0
LINE
8
BLACK
6
CONTINUOUS
10
144.244
20
-73.3024
11
144.273
21
-73.2997
0
LINE
8
BLACK
6
CONTINUOUS
10
144.273
20
-73.2997
11
144.302
21
-73.3028
0
LINE
8
BLACK
6
CONTINUOUS
10
168.663
20
-63.4446
11
168.826
21
-63.5124
0
LINE
8
BLACK
6
CONTINUOUS
10
168.826
20
-63.5124
11
168.974
21
-63.6109
0
LINE
8
BLACK
6
CONTINUOUS
10
168.974
20
-63.6109
11
169.099
21
-63.7363
0
LINE
8
BLACK
6
CONTINUOUS
10
169.099
20
-63.7363
11
169.198
21
-63.8837
0
LINE
8
BLACK
6
CONTINUOUS
10
169.198
20
-63.8837
11
169.265
21
-64.0475
0
LINE
8
BLACK
6
CONTINUOUS
10
169.265
20
-64.0475
11
169.3
21
-64.2214
0
LINE
8
BLACK
6
CONTINUOUS
10
169.3
20
-64.2214
11
169.3
21
-64.3986
0
LINE
8
BLACK
6
CONTINUOUS
10
169.3
20
-64.3986
11
169.265
21
-64.5725
0
LINE
8
BLACK
6
CONTINUOUS
10
169.265
20
-64.5725
11
169.198
21
-64.7363
0
LINE
8
BLACK
6
CONTINUOUS
10
169.198
20
-64.7363
11
169.099
21
-64.8837
0
LINE
8
BLACK
6
CONTINUOUS
10
169.099
20
-64.8837
11
168.974
21
-65.0091
0
LINE
8
BLACK
6
CONTINUOUS
10
168.974
20
-65.0091
11
168.826
21
-65.1076
0
LINE
8
BLACK
6
CONTINUOUS
10
168.826
20
-65.1076
11
168.663
21
-65.1754
0
LINE
8
BLACK
6
CONTINUOUS
10
168.663
20
-65.1754
11
168.489
21
-65.21
0
LINE
8
BLACK
6
CONTINUOUS
10
168.489
20
-65.21
11
168.311
21
-65.21
0
LINE
8
BLACK
6
CONTINUOUS
10
168.311
20
-65.21
11
168.137
21
-65.1754
0
LINE
8
BLACK
6
CONTINUOUS
10
168.137
20
-65.1754
11
167.974
21
-65.1076
0
LINE
8
BLACK
6
CONTINUOUS
10
167.974
20
-65.1076
11
167.826
21
-65.0091
0
LINE
8
BLACK
6
CONTINUOUS
10
167.826
20
-65.0091
11
167.701
21
-64.8837
0
LINE
8
BLACK
6
CONTINUOUS
10
167.701
20
-64.8837
11
167.602
21
-64.7363
0
LINE
8
BLACK
6
CONTINUOUS
10
167.602
20
-64.7363
11
167.535
21
-64.5725
0
LINE
8
BLACK
6
CONTINUOUS
10
167.535
20
-64.5725
11
167.516
21
-64.48
0
LINE
8
BLACK
6
CONTINUOUS
10
167.516
20
-64.48
11
164.762
21
-64.48
0
LINE
8
BLACK
6
CONTINUOUS
10
164.762
20
-64.48
11
164.709
21
-64.6089
0
LINE
8
BLACK
6
CONTINUOUS
10
164.709
20
-64.6089
11
164.621
21
-64.74
0
LINE
8
BLACK
6
CONTINUOUS
10
164.621
20
-64.74
11
164.51
21
-64.8514
0
LINE
8
BLACK
6
CONTINUOUS
10
164.51
20
-64.8514
11
164.379
21
-64.939
0
LINE
8
BLACK
6
CONTINUOUS
10
164.379
20
-64.939
11
164.233
21
-64.9993
0
LINE
8
BLACK
6
CONTINUOUS
10
164.233
20
-64.9993
11
164.079
21
-65.03
0
LINE
8
BLACK
6
CONTINUOUS
10
164.079
20
-65.03
11
163.921
21
-65.03
0
LINE
8
BLACK
6
CONTINUOUS
10
163.921
20
-65.03
11
163.767
21
-64.9993
0
LINE
8
BLACK
6
CONTINUOUS
10
163.767
20
-64.9993
11
163.621
21
-64.939
0
LINE
8
BLACK
6
CONTINUOUS
10
163.621
20
-64.939
11
163.49
21
-64.8514
0
LINE
8
BLACK
6
CONTINUOUS
10
163.49
20
-64.8514
11
163.379
21
-64.74
0
LINE
8
BLACK
6
CONTINUOUS
10
163.379
20
-64.74
11
163.291
21
-64.6089
0
LINE
8
BLACK
6
CONTINUOUS
10
163.291
20
-64.6089
11
163.231
21
-64.4634
0
LINE
8
BLACK
6
CONTINUOUS
10
163.231
20
-64.4634
11
163.2
21
-64.3088
0
LINE
8
BLACK
6
CONTINUOUS
10
163.2
20
-64.3088
11
163.2
21
-64.1512
0
LINE
8
BLACK
6
CONTINUOUS
10
163.2
20
-64.1512
11
163.231
21
-63.9966
0
LINE
8
BLACK
6
CONTINUOUS
10
163.231
20
-63.9966
11
163.291
21
-63.8511
0
LINE
8
BLACK
6
CONTINUOUS
10
163.291
20
-63.8511
11
163.379
21
-63.72
0
LINE
8
BLACK
6
CONTINUOUS
10
163.379
20
-63.72
11
163.49
21
-63.6086
0
LINE
8
BLACK
6
CONTINUOUS
10
163.49
20
-63.6086
11
163.621
21
-63.521
0
LINE
8
BLACK
6
CONTINUOUS
10
163.621
20
-63.521
11
163.767
21
-63.4607
0
LINE
8
BLACK
6
CONTINUOUS
10
163.767
20
-63.4607
11
163.921
21
-63.43
0
LINE
8
BLACK
6
CONTINUOUS
10
163.921
20
-63.43
11
164.079
21
-63.43
0
LINE
8
BLACK
6
CONTINUOUS
10
164.079
20
-63.43
11
164.233
21
-63.4607
0
LINE
8
BLACK
6
CONTINUOUS
10
164.233
20
-63.4607
11
164.379
21
-63.521
0
LINE
8
BLACK
6
CONTINUOUS
10
164.379
20
-63.521
11
164.51
21
-63.6086
0
LINE
8
BLACK
6
CONTINUOUS
10
164.51
20
-63.6086
11
164.621
21
-63.72
0
LINE
8
BLACK
6
CONTINUOUS
10
164.621
20
-63.72
11
164.709
21
-63.8511
0
LINE
8
BLACK
6
CONTINUOUS
10
164.709
20
-63.8511
11
164.762
21
-63.98
0
LINE
8
BLACK
6
CONTINUOUS
10
164.762
20
-63.98
11
167.563
21
-63.98
0
LINE
8
BLACK
6
CONTINUOUS
10
167.563
20
-63.98
11
167.602
21
-63.8837
0
LINE
8
BLACK
6
CONTINUOUS
10
167.602
20
-63.8837
11
167.701
21
-63.7363
0
LINE
8
BLACK
6
CONTINUOUS
10
167.701
20
-63.7363
11
167.826
21
-63.6109
0
LINE
8
BLACK
6
CONTINUOUS
10
167.826
20
-63.6109
11
167.974
21
-63.5124
0
LINE
8
BLACK
6
CONTINUOUS
10
167.974
20
-63.5124
11
168.137
21
-63.4446
0
LINE
8
BLACK
6
CONTINUOUS
10
168.137
20
-63.4446
11
168.311
21
-63.41
0
LINE
8
BLACK
6
CONTINUOUS
10
168.311
20
-63.41
11
168.489
21
-63.41
0
LINE
8
BLACK
6
CONTINUOUS
10
168.489
20
-63.41
11
168.663
21
-63.4446
0
CIRCLE
8
BLACK
10
171.069
20
-86.313
40
0.475
0
CIRCLE
8
BLACK
10
171.069
20
-88.813
40
0.475
0
CIRCLE
8
BLACK
10
171.069
20
-91.313
40
0.475
0
CIRCLE
8
BLACK
10
156.3
20
-75.05
40
0.4
0
CIRCLE
8
BLACK
10
163.92
20
-75.05
40
0.4
0
CIRCLE
8
BLACK
10
157.55
20
-70.4
40
0.4
0
CIRCLE
8
BLACK
10
157.55
20
-66.9
40
0.4
0
CIRCLE
8
BLACK
10
151.05
20
-71.5
40
0.4
0
CIRCLE
8
BLACK
10
151.05
20
-66.5
40
0.4
0
CIRCLE
8
BLACK
10
168.4
20
-66.85
40
0.45
0
CIRCLE
8
BLACK
10
168.4
20
-64.31
40
0.45
0
CIRCLE
8
BLACK
10
145.288
20
-95.123
40
0.475
0
CIRCLE
8
BLACK
10
147.788
20
-95.123
40
0.475
0
CIRCLE
8
BLACK
10
150.288
20
-95.123
40
0.475
0
CIRCLE
8
BLACK
10
169.4
20
-80.15
40
0.5
0
CIRCLE
8
BLACK
10
171.94
20
-80.15
40
0.5
0
CIRCLE
8
BLACK
10
169.4
20
-77.61
40
0.5
0
CIRCLE
8
BLACK
10
171.94
20
-77.61
40
0.5
0
CIRCLE
8
BLACK
10
169.4
20
-75.07
40
0.5
0
CIRCLE
8
BLACK
10
171.94
20
-75.07
40
0.5
0
CIRCLE
8
BLACK
10
144.9
20
-78.95
40
0.475
0
CIRCLE
8
BLACK
10
144.9
20
-81.45
40
0.475
0
CIRCLE
8
BLACK
10
144.9
20
-83.95
40
0.475
0
CIRCLE
8
BLACK
10
144.9
20
-86.45
40
0.475
0
CIRCLE
8
BLACK
10
145.75
20
-70.15
40
0.5
0
CIRCLE
8
BLACK
10
145.75
20
-67.65
40
0.5
0
CIRCLE
8
BLACK
10
164.3
20
-96.45
40
0.5
0
CIRCLE
8
BLACK
10
156.7
20
-96.45
40
0.5
0
CIRCLE
8
BLACK
10
156.33
20
-87.8
40
0.4
0
CIRCLE
8
BLACK
10
163.95
20
-87.8
40
0.4
0
CIRCLE
8
BLACK
10
164
20
-64.23
40
0.4
0
CIRCLE
8
BLACK
10
164
20
-71.85
40
0.4
0
CIRCLE
8
BLACK
10
154.94
20
-79.502
40
0.2
0
CIRCLE
8
BLACK
10
154.94
20
-80.772
40
0.2
0
CIRCLE
8
BLACK
10
154.94
20
-82.042
40
0.2
0
CIRCLE
8
BLACK
10
154.94
20
-83.312
40
0.2
0
CIRCLE
8
BLACK
10
164.846
20
-79.502
40
0.2
0
CIRCLE
8
BLACK
10
164.846
20
-80.772
40
0.2
0
CIRCLE
8
BLACK
10
164.846
20
-82.042
40
0.2
0
CIRCLE
8
BLACK
10
164.846
20
-83.312
40
0.2
  0
ENDSEC
  0
EOF
