  0
SECTION
  2
HEADER
  9
$ANGBASE
  50
0.0
  9
$ANGDIR
  70
1
  9
$MEASUREMENT
  70
1
  0
ENDSEC
  0
SECTION
  2
TABLES
  0
TABLE
  2
LTYPE
  70
4
  0
LTYPE
  5
40F
  2
CONTINUOUS
  70
0
  3
Solid line
  72
65
  73
0
  40
0.0
  0
LTYPE
  5
410
  2
DASHDOT
 70
0
  3
Dash Dot ____ _ ____ _
 72
65
 73
4
 40
2.0
 49
1.25
 49
-0.25
 49
0.25
 49
-0.25
  0
LTYPE
  5
411
  2
DASHED
 70
0
  3
Dashed __ __ __ __ __
 72
65
 73
2
 40
0.75
 49
0.5
 49
-0.25
  0
LTYPE
  5
43B
  2
DOTTED
 70
0
  3
Dotted .  .  .  .
 72
65
 73
2
 40
0.2
 49
0.0
 49
-0.2
  0
ENDTAB
  0
TABLE
  2
STYLE
  70
4
  0
STYLE
  2
KICAD
  70
0
  40
0
  41
1
  42
1
  50
0
  71
0
  3
isocp.shx
  0
STYLE
  2
KICADB
  70
0
  40
0
  41
1
  42
1
  50
0
  71
0
  3
isocp.shx
  0
STYLE
  2
KICADI
  70
0
  40
0
  41
1
  42
1
  50
15
  71
0
  3
isocp.shx
  0
STYLE
  2
KICADBI
  70
0
  40
0
  41
1
  42
1
  50
15
  71
0
  3
isocp.shx
  0
ENDTAB
  0
TABLE
  2
LAYER
  70
1
  0
LAYER
  2
BLACK
  70
0
  62
7
  6
CONTINUOUS
  0
ENDTAB
  0
ENDSEC
  0
SECTION
  2
ENTITIES
0
LINE
8
BLACK
6
CONTINUOUS
10
172.188
20
-74.2527
11
172.343
21
-74.3167
0
LINE
8
BLACK
6
CONTINUOUS
10
172.343
20
-74.3167
11
172.482
21
-74.4098
0
LINE
8
BLACK
6
CONTINUOUS
10
172.482
20
-74.4098
11
172.6
21
-74.5282
0
LINE
8
BLACK
6
CONTINUOUS
10
172.6
20
-74.5282
11
172.693
21
-74.6674
0
LINE
8
BLACK
6
CONTINUOUS
10
172.693
20
-74.6674
11
172.756
21
-74.82
0
LINE
8
BLACK
6
CONTINUOUS
10
172.756
20
-74.82
11
172.975
21
-74.82
0
LINE
8
BLACK
6
CONTINUOUS
10
172.975
20
-74.82
11
172.987
21
-74.8188
0
LINE
8
BLACK
6
CONTINUOUS
10
172.987
20
-74.8188
11
172.999
21
-74.82
0
LINE
8
BLACK
6
CONTINUOUS
10
172.999
20
-74.82
11
173.036
21
-74.8236
0
LINE
8
BLACK
6
CONTINUOUS
10
173.036
20
-74.8236
11
173.083
21
-74.8379
0
LINE
8
BLACK
6
CONTINUOUS
10
173.083
20
-74.8379
11
173.127
21
-74.8611
0
LINE
8
BLACK
6
CONTINUOUS
10
173.127
20
-74.8611
11
173.165
21
-74.8924
0
LINE
8
BLACK
6
CONTINUOUS
10
173.165
20
-74.8924
11
173.172
21
-74.9019
0
LINE
8
BLACK
6
CONTINUOUS
10
173.172
20
-74.9019
11
175.047
21
-76.7765
0
LINE
8
BLACK
6
CONTINUOUS
10
175.047
20
-76.7765
11
175.057
21
-76.7844
0
LINE
8
BLACK
6
CONTINUOUS
10
175.057
20
-76.7844
11
175.064
21
-76.7939
0
LINE
8
BLACK
6
CONTINUOUS
10
175.064
20
-76.7939
11
175.088
21
-76.8224
0
LINE
8
BLACK
6
CONTINUOUS
10
175.088
20
-76.8224
11
175.111
21
-76.8659
0
LINE
8
BLACK
6
CONTINUOUS
10
175.111
20
-76.8659
11
175.125
21
-76.913
0
LINE
8
BLACK
6
CONTINUOUS
10
175.125
20
-76.913
11
175.13
21
-76.962
0
LINE
8
BLACK
6
CONTINUOUS
10
175.13
20
-76.962
11
175.129
21
-76.9743
0
LINE
8
BLACK
6
CONTINUOUS
10
175.129
20
-76.9743
11
175.129
21
-86.7287
0
LINE
8
BLACK
6
CONTINUOUS
10
175.129
20
-86.7287
11
175.13
21
-86.741
0
LINE
8
BLACK
6
CONTINUOUS
10
175.13
20
-86.741
11
175.127
21
-86.7769
0
LINE
8
BLACK
6
CONTINUOUS
10
175.127
20
-86.7769
11
175.125
21
-86.79
0
LINE
8
BLACK
6
CONTINUOUS
10
175.125
20
-86.79
11
175.111
21
-86.8371
0
LINE
8
BLACK
6
CONTINUOUS
10
175.111
20
-86.8371
11
175.088
21
-86.8806
0
LINE
8
BLACK
6
CONTINUOUS
10
175.088
20
-86.8806
11
175.057
21
-86.9186
0
LINE
8
BLACK
6
CONTINUOUS
10
175.057
20
-86.9186
11
175.047
21
-86.9265
0
LINE
8
BLACK
6
CONTINUOUS
10
175.047
20
-86.9265
11
172.992
21
-88.9811
0
LINE
8
BLACK
6
CONTINUOUS
10
172.992
20
-88.9811
11
172.985
21
-88.9906
0
LINE
8
BLACK
6
CONTINUOUS
10
172.985
20
-88.9906
11
172.947
21
-89.0219
0
LINE
8
BLACK
6
CONTINUOUS
10
172.947
20
-89.0219
11
172.903
21
-89.0451
0
LINE
8
BLACK
6
CONTINUOUS
10
172.903
20
-89.0451
11
172.856
21
-89.0594
0
LINE
8
BLACK
6
CONTINUOUS
10
172.856
20
-89.0594
11
172.807
21
-89.0642
0
LINE
8
BLACK
6
CONTINUOUS
10
172.807
20
-89.0642
11
172.795
21
-89.063
0
LINE
8
BLACK
6
CONTINUOUS
10
172.795
20
-89.063
11
172.006
21
-89.063
0
LINE
8
BLACK
6
CONTINUOUS
10
172.006
20
-89.063
11
171.983
21
-89.1399
0
LINE
8
BLACK
6
CONTINUOUS
10
171.983
20
-89.1399
11
171.904
21
-89.2875
0
LINE
8
BLACK
6
CONTINUOUS
10
171.904
20
-89.2875
11
171.798
21
-89.4169
0
LINE
8
BLACK
6
CONTINUOUS
10
171.798
20
-89.4169
11
171.669
21
-89.5232
0
LINE
8
BLACK
6
CONTINUOUS
10
171.669
20
-89.5232
11
171.521
21
-89.6021
0
LINE
8
BLACK
6
CONTINUOUS
10
171.521
20
-89.6021
11
171.361
21
-89.6507
0
LINE
8
BLACK
6
CONTINUOUS
10
171.361
20
-89.6507
11
171.236
21
-89.663
0
LINE
8
BLACK
6
CONTINUOUS
10
171.236
20
-89.663
11
170.902
21
-89.663
0
LINE
8
BLACK
6
CONTINUOUS
10
170.902
20
-89.663
11
170.777
21
-89.6507
0
LINE
8
BLACK
6
CONTINUOUS
10
170.777
20
-89.6507
11
170.617
21
-89.6021
0
LINE
8
BLACK
6
CONTINUOUS
10
170.617
20
-89.6021
11
170.469
21
-89.5232
0
LINE
8
BLACK
6
CONTINUOUS
10
170.469
20
-89.5232
11
170.34
21
-89.4169
0
LINE
8
BLACK
6
CONTINUOUS
10
170.34
20
-89.4169
11
170.234
21
-89.2875
0
LINE
8
BLACK
6
CONTINUOUS
10
170.234
20
-89.2875
11
170.155
21
-89.1399
0
LINE
8
BLACK
6
CONTINUOUS
10
170.155
20
-89.1399
11
170.132
21
-89.063
0
LINE
8
BLACK
6
CONTINUOUS
10
170.132
20
-89.063
11
168.974
21
-89.063
0
LINE
8
BLACK
6
CONTINUOUS
10
168.974
20
-89.063
11
167.317
21
-90.7191
0
LINE
8
BLACK
6
CONTINUOUS
10
167.317
20
-90.7191
11
167.31
21
-90.7286
0
LINE
8
BLACK
6
CONTINUOUS
10
167.31
20
-90.7286
11
167.272
21
-90.7599
0
LINE
8
BLACK
6
CONTINUOUS
10
167.272
20
-90.7599
11
167.228
21
-90.7831
0
LINE
8
BLACK
6
CONTINUOUS
10
167.228
20
-90.7831
11
167.183
21
-90.7966
0
LINE
8
BLACK
6
CONTINUOUS
10
167.183
20
-90.7966
11
167.181
21
-90.7974
0
LINE
8
BLACK
6
CONTINUOUS
10
167.181
20
-90.7974
11
167.132
21
-90.8022
0
LINE
8
BLACK
6
CONTINUOUS
10
167.132
20
-90.8022
11
167.12
21
-90.801
0
LINE
8
BLACK
6
CONTINUOUS
10
167.12
20
-90.801
11
164.061
21
-90.801
0
LINE
8
BLACK
6
CONTINUOUS
10
164.061
20
-90.801
11
160.905
21
-93.9566
0
LINE
8
BLACK
6
CONTINUOUS
10
160.905
20
-93.9566
11
160.905
21
-96.3807
0
LINE
8
BLACK
6
CONTINUOUS
10
160.905
20
-96.3807
11
160.906
21
-96.393
0
LINE
8
BLACK
6
CONTINUOUS
10
160.906
20
-96.393
11
160.901
21
-96.442
0
LINE
8
BLACK
6
CONTINUOUS
10
160.901
20
-96.442
11
160.887
21
-96.4891
0
LINE
8
BLACK
6
CONTINUOUS
10
160.887
20
-96.4891
11
160.887
21
-96.4891
0
LINE
8
BLACK
6
CONTINUOUS
10
160.887
20
-96.4891
11
160.864
21
-96.5326
0
LINE
8
BLACK
6
CONTINUOUS
10
160.864
20
-96.5326
11
160.833
21
-96.5706
0
LINE
8
BLACK
6
CONTINUOUS
10
160.833
20
-96.5706
11
160.823
21
-96.5785
0
LINE
8
BLACK
6
CONTINUOUS
10
160.823
20
-96.5785
11
158.554
21
-98.8471
0
LINE
8
BLACK
6
CONTINUOUS
10
158.554
20
-98.8471
11
158.547
21
-98.8566
0
LINE
8
BLACK
6
CONTINUOUS
10
158.547
20
-98.8566
11
158.509
21
-98.8879
0
LINE
8
BLACK
6
CONTINUOUS
10
158.509
20
-98.8879
11
158.465
21
-98.9111
0
LINE
8
BLACK
6
CONTINUOUS
10
158.465
20
-98.9111
11
158.418
21
-98.9254
0
LINE
8
BLACK
6
CONTINUOUS
10
158.418
20
-98.9254
11
158.369
21
-98.9302
0
LINE
8
BLACK
6
CONTINUOUS
10
158.369
20
-98.9302
11
158.357
21
-98.929
0
LINE
8
BLACK
6
CONTINUOUS
10
158.357
20
-98.929
11
149.364
21
-98.929
0
LINE
8
BLACK
6
CONTINUOUS
10
149.364
20
-98.929
11
149.352
21
-98.9302
0
LINE
8
BLACK
6
CONTINUOUS
10
149.352
20
-98.9302
11
149.303
21
-98.9254
0
LINE
8
BLACK
6
CONTINUOUS
10
149.303
20
-98.9254
11
149.256
21
-98.9111
0
LINE
8
BLACK
6
CONTINUOUS
10
149.256
20
-98.9111
11
149.212
21
-98.8879
0
LINE
8
BLACK
6
CONTINUOUS
10
149.212
20
-98.8879
11
149.174
21
-98.8566
0
LINE
8
BLACK
6
CONTINUOUS
10
149.174
20
-98.8566
11
149.167
21
-98.8471
0
LINE
8
BLACK
6
CONTINUOUS
10
149.167
20
-98.8471
11
147.62
21
-97.3005
0
LINE
8
BLACK
6
CONTINUOUS
10
147.62
20
-97.3005
11
147.61
21
-97.2926
0
LINE
8
BLACK
6
CONTINUOUS
10
147.61
20
-97.2926
11
147.579
21
-97.2546
0
LINE
8
BLACK
6
CONTINUOUS
10
147.579
20
-97.2546
11
147.556
21
-97.2111
0
LINE
8
BLACK
6
CONTINUOUS
10
147.556
20
-97.2111
11
147.542
21
-97.164
0
LINE
8
BLACK
6
CONTINUOUS
10
147.542
20
-97.164
11
147.537
21
-97.115
0
LINE
8
BLACK
6
CONTINUOUS
10
147.537
20
-97.115
11
147.538
21
-97.1027
0
LINE
8
BLACK
6
CONTINUOUS
10
147.538
20
-97.1027
11
147.538
21
-96.0604
0
LINE
8
BLACK
6
CONTINUOUS
10
147.538
20
-96.0604
11
147.461
21
-96.0371
0
LINE
8
BLACK
6
CONTINUOUS
10
147.461
20
-96.0371
11
147.313
21
-95.9582
0
LINE
8
BLACK
6
CONTINUOUS
10
147.313
20
-95.9582
11
147.184
21
-95.8519
0
LINE
8
BLACK
6
CONTINUOUS
10
147.184
20
-95.8519
11
147.078
21
-95.7225
0
LINE
8
BLACK
6
CONTINUOUS
10
147.078
20
-95.7225
11
146.999
21
-95.5749
0
LINE
8
BLACK
6
CONTINUOUS
10
146.999
20
-95.5749
11
146.95
21
-95.4146
0
LINE
8
BLACK
6
CONTINUOUS
10
146.95
20
-95.4146
11
146.938
21
-95.2897
0
LINE
8
BLACK
6
CONTINUOUS
10
146.938
20
-95.2897
11
146.938
21
-94.9563
0
LINE
8
BLACK
6
CONTINUOUS
10
146.938
20
-94.9563
11
146.95
21
-94.8314
0
LINE
8
BLACK
6
CONTINUOUS
10
146.95
20
-94.8314
11
146.999
21
-94.6711
0
LINE
8
BLACK
6
CONTINUOUS
10
146.999
20
-94.6711
11
147.078
21
-94.5235
0
LINE
8
BLACK
6
CONTINUOUS
10
147.078
20
-94.5235
11
147.184
21
-94.3941
0
LINE
8
BLACK
6
CONTINUOUS
10
147.184
20
-94.3941
11
147.313
21
-94.2878
0
LINE
8
BLACK
6
CONTINUOUS
10
147.313
20
-94.2878
11
147.461
21
-94.2089
0
LINE
8
BLACK
6
CONTINUOUS
10
147.461
20
-94.2089
11
147.55
21
-94.1819
0
LINE
8
BLACK
6
CONTINUOUS
10
147.55
20
-94.1819
11
147.55
21
-92.2776
0
LINE
8
BLACK
6
CONTINUOUS
10
147.55
20
-92.2776
11
144.732
21
-89.4595
0
LINE
8
BLACK
6
CONTINUOUS
10
144.732
20
-89.4595
11
144.722
21
-89.4516
0
LINE
8
BLACK
6
CONTINUOUS
10
144.722
20
-89.4516
11
144.691
21
-89.4136
0
LINE
8
BLACK
6
CONTINUOUS
10
144.691
20
-89.4136
11
144.668
21
-89.3701
0
LINE
8
BLACK
6
CONTINUOUS
10
144.668
20
-89.3701
11
144.668
21
-89.3701
0
LINE
8
BLACK
6
CONTINUOUS
10
144.668
20
-89.3701
11
144.654
21
-89.323
0
LINE
8
BLACK
6
CONTINUOUS
10
144.654
20
-89.323
11
144.649
21
-89.274
0
LINE
8
BLACK
6
CONTINUOUS
10
144.649
20
-89.274
11
144.65
21
-89.2617
0
LINE
8
BLACK
6
CONTINUOUS
10
144.65
20
-89.2617
11
144.65
21
-87.2918
0
LINE
8
BLACK
6
CONTINUOUS
10
144.65
20
-87.2918
11
144.608
21
-87.2877
0
LINE
8
BLACK
6
CONTINUOUS
10
144.608
20
-87.2877
11
144.448
21
-87.2391
0
LINE
8
BLACK
6
CONTINUOUS
10
144.448
20
-87.2391
11
144.3
21
-87.1602
0
LINE
8
BLACK
6
CONTINUOUS
10
144.3
20
-87.1602
11
144.171
21
-87.0539
0
LINE
8
BLACK
6
CONTINUOUS
10
144.171
20
-87.0539
11
144.065
21
-86.9245
0
LINE
8
BLACK
6
CONTINUOUS
10
144.065
20
-86.9245
11
143.986
21
-86.7769
0
LINE
8
BLACK
6
CONTINUOUS
10
143.986
20
-86.7769
11
143.937
21
-86.6166
0
LINE
8
BLACK
6
CONTINUOUS
10
143.937
20
-86.6166
11
143.921
21
-86.45
0
LINE
8
BLACK
6
CONTINUOUS
10
143.921
20
-86.45
11
143.937
21
-86.2834
0
LINE
8
BLACK
6
CONTINUOUS
10
143.937
20
-86.2834
11
143.986
21
-86.1231
0
LINE
8
BLACK
6
CONTINUOUS
10
143.986
20
-86.1231
11
144.065
21
-85.9755
0
LINE
8
BLACK
6
CONTINUOUS
10
144.065
20
-85.9755
11
144.171
21
-85.8461
0
LINE
8
BLACK
6
CONTINUOUS
10
144.171
20
-85.8461
11
144.3
21
-85.7398
0
LINE
8
BLACK
6
CONTINUOUS
10
144.3
20
-85.7398
11
144.448
21
-85.6609
0
LINE
8
BLACK
6
CONTINUOUS
10
144.448
20
-85.6609
11
144.608
21
-85.6123
0
LINE
8
BLACK
6
CONTINUOUS
10
144.608
20
-85.6123
11
144.733
21
-85.6
0
LINE
8
BLACK
6
CONTINUOUS
10
144.733
20
-85.6
11
145.067
21
-85.6
0
LINE
8
BLACK
6
CONTINUOUS
10
145.067
20
-85.6
11
145.192
21
-85.6123
0
LINE
8
BLACK
6
CONTINUOUS
10
145.192
20
-85.6123
11
145.352
21
-85.6609
0
LINE
8
BLACK
6
CONTINUOUS
10
145.352
20
-85.6609
11
145.5
21
-85.7398
0
LINE
8
BLACK
6
CONTINUOUS
10
145.5
20
-85.7398
11
145.629
21
-85.8461
0
LINE
8
BLACK
6
CONTINUOUS
10
145.629
20
-85.8461
11
145.735
21
-85.9755
0
LINE
8
BLACK
6
CONTINUOUS
10
145.735
20
-85.9755
11
145.814
21
-86.1231
0
LINE
8
BLACK
6
CONTINUOUS
10
145.814
20
-86.1231
11
145.837
21
-86.2
0
LINE
8
BLACK
6
CONTINUOUS
10
145.837
20
-86.2
11
149.92
21
-86.2
0
LINE
8
BLACK
6
CONTINUOUS
10
149.92
20
-86.2
11
152.977
21
-83.1439
0
LINE
8
BLACK
6
CONTINUOUS
10
152.977
20
-83.1439
11
152.984
21
-83.1344
0
LINE
8
BLACK
6
CONTINUOUS
10
152.984
20
-83.1344
11
153.022
21
-83.1031
0
LINE
8
BLACK
6
CONTINUOUS
10
153.022
20
-83.1031
11
153.066
21
-83.0799
0
LINE
8
BLACK
6
CONTINUOUS
10
153.066
20
-83.0799
11
153.113
21
-83.0656
0
LINE
8
BLACK
6
CONTINUOUS
10
153.113
20
-83.0656
11
153.162
21
-83.0608
0
LINE
8
BLACK
6
CONTINUOUS
10
153.162
20
-83.0608
11
153.174
21
-83.062
0
LINE
8
BLACK
6
CONTINUOUS
10
153.174
20
-83.062
11
154.626
21
-83.062
0
LINE
8
BLACK
6
CONTINUOUS
10
154.626
20
-83.062
11
154.629
21
-83.057
0
LINE
8
BLACK
6
CONTINUOUS
10
154.629
20
-83.057
11
154.685
21
-83.0013
0
LINE
8
BLACK
6
CONTINUOUS
10
154.685
20
-83.0013
11
154.751
21
-82.9575
0
LINE
8
BLACK
6
CONTINUOUS
10
154.751
20
-82.9575
11
154.823
21
-82.9274
0
LINE
8
BLACK
6
CONTINUOUS
10
154.823
20
-82.9274
11
154.901
21
-82.912
0
LINE
8
BLACK
6
CONTINUOUS
10
154.901
20
-82.912
11
154.979
21
-82.912
0
LINE
8
BLACK
6
CONTINUOUS
10
154.979
20
-82.912
11
155.057
21
-82.9274
0
LINE
8
BLACK
6
CONTINUOUS
10
155.057
20
-82.9274
11
155.129
21
-82.9575
0
LINE
8
BLACK
6
CONTINUOUS
10
155.129
20
-82.9575
11
155.195
21
-83.0013
0
LINE
8
BLACK
6
CONTINUOUS
10
155.195
20
-83.0013
11
155.251
21
-83.057
0
LINE
8
BLACK
6
CONTINUOUS
10
155.251
20
-83.057
11
155.294
21
-83.1225
0
LINE
8
BLACK
6
CONTINUOUS
10
155.294
20
-83.1225
11
155.325
21
-83.1953
0
LINE
8
BLACK
6
CONTINUOUS
10
155.325
20
-83.1953
11
155.34
21
-83.2726
0
LINE
8
BLACK
6
CONTINUOUS
10
155.34
20
-83.2726
11
155.34
21
-83.3514
0
LINE
8
BLACK
6
CONTINUOUS
10
155.34
20
-83.3514
11
155.325
21
-83.4287
0
LINE
8
BLACK
6
CONTINUOUS
10
155.325
20
-83.4287
11
155.294
21
-83.5015
0
LINE
8
BLACK
6
CONTINUOUS
10
155.294
20
-83.5015
11
155.251
21
-83.567
0
LINE
8
BLACK
6
CONTINUOUS
10
155.251
20
-83.567
11
155.195
21
-83.6227
0
LINE
8
BLACK
6
CONTINUOUS
10
155.195
20
-83.6227
11
155.129
21
-83.6665
0
LINE
8
BLACK
6
CONTINUOUS
10
155.129
20
-83.6665
11
155.057
21
-83.6966
0
LINE
8
BLACK
6
CONTINUOUS
10
155.057
20
-83.6966
11
154.979
21
-83.712
0
LINE
8
BLACK
6
CONTINUOUS
10
154.979
20
-83.712
11
154.901
21
-83.712
0
LINE
8
BLACK
6
CONTINUOUS
10
154.901
20
-83.712
11
154.823
21
-83.6966
0
LINE
8
BLACK
6
CONTINUOUS
10
154.823
20
-83.6966
11
154.751
21
-83.6665
0
LINE
8
BLACK
6
CONTINUOUS
10
154.751
20
-83.6665
11
154.685
21
-83.6227
0
LINE
8
BLACK
6
CONTINUOUS
10
154.685
20
-83.6227
11
154.629
21
-83.567
0
LINE
8
BLACK
6
CONTINUOUS
10
154.629
20
-83.567
11
154.626
21
-83.562
0
LINE
8
BLACK
6
CONTINUOUS
10
154.626
20
-83.562
11
153.266
21
-83.562
0
LINE
8
BLACK
6
CONTINUOUS
10
153.266
20
-83.562
11
150.209
21
-86.6181
0
LINE
8
BLACK
6
CONTINUOUS
10
150.209
20
-86.6181
11
150.202
21
-86.6276
0
LINE
8
BLACK
6
CONTINUOUS
10
150.202
20
-86.6276
11
150.164
21
-86.6589
0
LINE
8
BLACK
6
CONTINUOUS
10
150.164
20
-86.6589
11
150.12
21
-86.6821
0
LINE
8
BLACK
6
CONTINUOUS
10
150.12
20
-86.6821
11
150.073
21
-86.6964
0
LINE
8
BLACK
6
CONTINUOUS
10
150.073
20
-86.6964
11
150.024
21
-86.7012
0
LINE
8
BLACK
6
CONTINUOUS
10
150.024
20
-86.7012
11
150.012
21
-86.7
0
LINE
8
BLACK
6
CONTINUOUS
10
150.012
20
-86.7
11
145.837
21
-86.7
0
LINE
8
BLACK
6
CONTINUOUS
10
145.837
20
-86.7
11
145.814
21
-86.7769
0
LINE
8
BLACK
6
CONTINUOUS
10
145.814
20
-86.7769
11
145.735
21
-86.9245
0
LINE
8
BLACK
6
CONTINUOUS
10
145.735
20
-86.9245
11
145.629
21
-87.0539
0
LINE
8
BLACK
6
CONTINUOUS
10
145.629
20
-87.0539
11
145.5
21
-87.1602
0
LINE
8
BLACK
6
CONTINUOUS
10
145.5
20
-87.1602
11
145.352
21
-87.2391
0
LINE
8
BLACK
6
CONTINUOUS
10
145.352
20
-87.2391
11
145.192
21
-87.2877
0
LINE
8
BLACK
6
CONTINUOUS
10
145.192
20
-87.2877
11
145.15
21
-87.2918
0
LINE
8
BLACK
6
CONTINUOUS
10
145.15
20
-87.2918
11
145.15
21
-89.1704
0
LINE
8
BLACK
6
CONTINUOUS
10
145.15
20
-89.1704
11
147.968
21
-91.9885
0
LINE
8
BLACK
6
CONTINUOUS
10
147.968
20
-91.9885
11
147.978
21
-91.9964
0
LINE
8
BLACK
6
CONTINUOUS
10
147.978
20
-91.9964
11
148.009
21
-92.0344
0
LINE
8
BLACK
6
CONTINUOUS
10
148.009
20
-92.0344
11
148.032
21
-92.0779
0
LINE
8
BLACK
6
CONTINUOUS
10
148.032
20
-92.0779
11
148.046
21
-92.125
0
LINE
8
BLACK
6
CONTINUOUS
10
148.046
20
-92.125
11
148.048
21
-92.144
0
LINE
8
BLACK
6
CONTINUOUS
10
148.048
20
-92.144
11
148.051
21
-92.174
0
LINE
8
BLACK
6
CONTINUOUS
10
148.051
20
-92.174
11
148.05
21
-92.1863
0
LINE
8
BLACK
6
CONTINUOUS
10
148.05
20
-92.1863
11
148.05
21
-94.1892
0
LINE
8
BLACK
6
CONTINUOUS
10
148.05
20
-94.1892
11
148.115
21
-94.2089
0
LINE
8
BLACK
6
CONTINUOUS
10
148.115
20
-94.2089
11
148.263
21
-94.2878
0
LINE
8
BLACK
6
CONTINUOUS
10
148.263
20
-94.2878
11
148.392
21
-94.3941
0
LINE
8
BLACK
6
CONTINUOUS
10
148.392
20
-94.3941
11
148.498
21
-94.5235
0
LINE
8
BLACK
6
CONTINUOUS
10
148.498
20
-94.5235
11
148.577
21
-94.6711
0
LINE
8
BLACK
6
CONTINUOUS
10
148.577
20
-94.6711
11
148.626
21
-94.8314
0
LINE
8
BLACK
6
CONTINUOUS
10
148.626
20
-94.8314
11
148.638
21
-94.9563
0
LINE
8
BLACK
6
CONTINUOUS
10
148.638
20
-94.9563
11
148.638
21
-95.2897
0
LINE
8
BLACK
6
CONTINUOUS
10
148.638
20
-95.2897
11
148.626
21
-95.4146
0
LINE
8
BLACK
6
CONTINUOUS
10
148.626
20
-95.4146
11
148.577
21
-95.5749
0
LINE
8
BLACK
6
CONTINUOUS
10
148.577
20
-95.5749
11
148.498
21
-95.7225
0
LINE
8
BLACK
6
CONTINUOUS
10
148.498
20
-95.7225
11
148.392
21
-95.8519
0
LINE
8
BLACK
6
CONTINUOUS
10
148.392
20
-95.8519
11
148.263
21
-95.9582
0
LINE
8
BLACK
6
CONTINUOUS
10
148.263
20
-95.9582
11
148.115
21
-96.0371
0
LINE
8
BLACK
6
CONTINUOUS
10
148.115
20
-96.0371
11
148.038
21
-96.0604
0
LINE
8
BLACK
6
CONTINUOUS
10
148.038
20
-96.0604
11
148.038
21
-97.0114
0
LINE
8
BLACK
6
CONTINUOUS
10
148.038
20
-97.0114
11
149.456
21
-98.429
0
LINE
8
BLACK
6
CONTINUOUS
10
149.456
20
-98.429
11
158.265
21
-98.429
0
LINE
8
BLACK
6
CONTINUOUS
10
158.265
20
-98.429
11
160.405
21
-96.2894
0
LINE
8
BLACK
6
CONTINUOUS
10
160.405
20
-96.2894
11
160.405
21
-93.8653
0
LINE
8
BLACK
6
CONTINUOUS
10
160.405
20
-93.8653
11
160.404
21
-93.853
0
LINE
8
BLACK
6
CONTINUOUS
10
160.404
20
-93.853
11
160.409
21
-93.804
0
LINE
8
BLACK
6
CONTINUOUS
10
160.409
20
-93.804
11
160.423
21
-93.7569
0
LINE
8
BLACK
6
CONTINUOUS
10
160.423
20
-93.7569
11
160.446
21
-93.7134
0
LINE
8
BLACK
6
CONTINUOUS
10
160.446
20
-93.7134
11
160.477
21
-93.6754
0
LINE
8
BLACK
6
CONTINUOUS
10
160.477
20
-93.6754
11
160.487
21
-93.6675
0
LINE
8
BLACK
6
CONTINUOUS
10
160.487
20
-93.6675
11
163.772
21
-90.3829
0
LINE
8
BLACK
6
CONTINUOUS
10
163.772
20
-90.3829
11
163.779
21
-90.3734
0
LINE
8
BLACK
6
CONTINUOUS
10
163.779
20
-90.3734
11
163.817
21
-90.3421
0
LINE
8
BLACK
6
CONTINUOUS
10
163.817
20
-90.3421
11
163.861
21
-90.3189
0
LINE
8
BLACK
6
CONTINUOUS
10
163.861
20
-90.3189
11
163.908
21
-90.3046
0
LINE
8
BLACK
6
CONTINUOUS
10
163.908
20
-90.3046
11
163.957
21
-90.2998
0
LINE
8
BLACK
6
CONTINUOUS
10
163.957
20
-90.2998
11
163.969
21
-90.301
0
LINE
8
BLACK
6
CONTINUOUS
10
163.969
20
-90.301
11
167.028
21
-90.301
0
LINE
8
BLACK
6
CONTINUOUS
10
167.028
20
-90.301
11
168.685
21
-88.6449
0
LINE
8
BLACK
6
CONTINUOUS
10
168.685
20
-88.6449
11
168.692
21
-88.6354
0
LINE
8
BLACK
6
CONTINUOUS
10
168.692
20
-88.6354
11
168.73
21
-88.6041
0
LINE
8
BLACK
6
CONTINUOUS
10
168.73
20
-88.6041
11
168.774
21
-88.5809
0
LINE
8
BLACK
6
CONTINUOUS
10
168.774
20
-88.5809
11
168.821
21
-88.5666
0
LINE
8
BLACK
6
CONTINUOUS
10
168.821
20
-88.5666
11
168.87
21
-88.5618
0
LINE
8
BLACK
6
CONTINUOUS
10
168.87
20
-88.5618
11
168.882
21
-88.563
0
LINE
8
BLACK
6
CONTINUOUS
10
168.882
20
-88.563
11
170.132
21
-88.563
0
LINE
8
BLACK
6
CONTINUOUS
10
170.132
20
-88.563
11
170.155
21
-88.4861
0
LINE
8
BLACK
6
CONTINUOUS
10
170.155
20
-88.4861
11
170.234
21
-88.3385
0
LINE
8
BLACK
6
CONTINUOUS
10
170.234
20
-88.3385
11
170.34
21
-88.2091
0
LINE
8
BLACK
6
CONTINUOUS
10
170.34
20
-88.2091
11
170.469
21
-88.1028
0
LINE
8
BLACK
6
CONTINUOUS
10
170.469
20
-88.1028
11
170.617
21
-88.0239
0
LINE
8
BLACK
6
CONTINUOUS
10
170.617
20
-88.0239
11
170.777
21
-87.9753
0
LINE
8
BLACK
6
CONTINUOUS
10
170.777
20
-87.9753
11
170.902
21
-87.963
0
LINE
8
BLACK
6
CONTINUOUS
10
170.902
20
-87.963
11
171.236
21
-87.963
0
LINE
8
BLACK
6
CONTINUOUS
10
171.236
20
-87.963
11
171.361
21
-87.9753
0
LINE
8
BLACK
6
CONTINUOUS
10
171.361
20
-87.9753
11
171.521
21
-88.0239
0
LINE
8
BLACK
6
CONTINUOUS
10
171.521
20
-88.0239
11
171.669
21
-88.1028
0
LINE
8
BLACK
6
CONTINUOUS
10
171.669
20
-88.1028
11
171.798
21
-88.2091
0
LINE
8
BLACK
6
CONTINUOUS
10
171.798
20
-88.2091
11
171.904
21
-88.3385
0
LINE
8
BLACK
6
CONTINUOUS
10
171.904
20
-88.3385
11
171.983
21
-88.4861
0
LINE
8
BLACK
6
CONTINUOUS
10
171.983
20
-88.4861
11
172.006
21
-88.563
0
LINE
8
BLACK
6
CONTINUOUS
10
172.006
20
-88.563
11
172.703
21
-88.563
0
LINE
8
BLACK
6
CONTINUOUS
10
172.703
20
-88.563
11
174.629
21
-86.6374
0
LINE
8
BLACK
6
CONTINUOUS
10
174.629
20
-86.6374
11
174.629
21
-77.0656
0
LINE
8
BLACK
6
CONTINUOUS
10
174.629
20
-77.0656
11
172.883
21
-75.32
0
LINE
8
BLACK
6
CONTINUOUS
10
172.883
20
-75.32
11
172.756
21
-75.32
0
LINE
8
BLACK
6
CONTINUOUS
10
172.756
20
-75.32
11
172.693
21
-75.4726
0
LINE
8
BLACK
6
CONTINUOUS
10
172.693
20
-75.4726
11
172.6
21
-75.6118
0
LINE
8
BLACK
6
CONTINUOUS
10
172.6
20
-75.6118
11
172.482
21
-75.7302
0
LINE
8
BLACK
6
CONTINUOUS
10
172.482
20
-75.7302
11
172.343
21
-75.8233
0
LINE
8
BLACK
6
CONTINUOUS
10
172.343
20
-75.8233
11
172.188
21
-75.8873
0
LINE
8
BLACK
6
CONTINUOUS
10
172.188
20
-75.8873
11
172.024
21
-75.92
0
LINE
8
BLACK
6
CONTINUOUS
10
172.024
20
-75.92
11
171.856
21
-75.92
0
LINE
8
BLACK
6
CONTINUOUS
10
171.856
20
-75.92
11
171.692
21
-75.8873
0
LINE
8
BLACK
6
CONTINUOUS
10
171.692
20
-75.8873
11
171.537
21
-75.8233
0
LINE
8
BLACK
6
CONTINUOUS
10
171.537
20
-75.8233
11
171.398
21
-75.7302
0
LINE
8
BLACK
6
CONTINUOUS
10
171.398
20
-75.7302
11
171.28
21
-75.6118
0
LINE
8
BLACK
6
CONTINUOUS
10
171.28
20
-75.6118
11
171.187
21
-75.4726
0
LINE
8
BLACK
6
CONTINUOUS
10
171.187
20
-75.4726
11
171.123
21
-75.3179
0
LINE
8
BLACK
6
CONTINUOUS
10
171.123
20
-75.3179
11
171.09
21
-75.1537
0
LINE
8
BLACK
6
CONTINUOUS
10
171.09
20
-75.1537
11
171.09
21
-74.9863
0
LINE
8
BLACK
6
CONTINUOUS
10
171.09
20
-74.9863
11
171.123
21
-74.8221
0
LINE
8
BLACK
6
CONTINUOUS
10
171.123
20
-74.8221
11
171.187
21
-74.6674
0
LINE
8
BLACK
6
CONTINUOUS
10
171.187
20
-74.6674
11
171.28
21
-74.5282
0
LINE
8
BLACK
6
CONTINUOUS
10
171.28
20
-74.5282
11
171.398
21
-74.4098
0
LINE
8
BLACK
6
CONTINUOUS
10
171.398
20
-74.4098
11
171.537
21
-74.3167
0
LINE
8
BLACK
6
CONTINUOUS
10
171.537
20
-74.3167
11
171.692
21
-74.2527
0
LINE
8
BLACK
6
CONTINUOUS
10
171.692
20
-74.2527
11
171.856
21
-74.22
0
LINE
8
BLACK
6
CONTINUOUS
10
171.856
20
-74.22
11
172.024
21
-74.22
0
LINE
8
BLACK
6
CONTINUOUS
10
172.024
20
-74.22
11
172.188
21
-74.2527
0
LINE
8
BLACK
6
CONTINUOUS
10
156.992
20
-95.4884
11
157.174
21
-95.5638
0
LINE
8
BLACK
6
CONTINUOUS
10
157.174
20
-95.5638
11
157.337
21
-95.6732
0
LINE
8
BLACK
6
CONTINUOUS
10
157.337
20
-95.6732
11
157.477
21
-95.8125
0
LINE
8
BLACK
6
CONTINUOUS
10
157.477
20
-95.8125
11
157.586
21
-95.9763
0
LINE
8
BLACK
6
CONTINUOUS
10
157.586
20
-95.9763
11
157.662
21
-96.1583
0
LINE
8
BLACK
6
CONTINUOUS
10
157.662
20
-96.1583
11
157.7
21
-96.3515
0
LINE
8
BLACK
6
CONTINUOUS
10
157.7
20
-96.3515
11
157.7
21
-96.5485
0
LINE
8
BLACK
6
CONTINUOUS
10
157.7
20
-96.5485
11
157.662
21
-96.7417
0
LINE
8
BLACK
6
CONTINUOUS
10
157.662
20
-96.7417
11
157.586
21
-96.9237
0
LINE
8
BLACK
6
CONTINUOUS
10
157.586
20
-96.9237
11
157.477
21
-97.0875
0
LINE
8
BLACK
6
CONTINUOUS
10
157.477
20
-97.0875
11
157.337
21
-97.2268
0
LINE
8
BLACK
6
CONTINUOUS
10
157.337
20
-97.2268
11
157.174
21
-97.3362
0
LINE
8
BLACK
6
CONTINUOUS
10
157.174
20
-97.3362
11
156.992
21
-97.4116
0
LINE
8
BLACK
6
CONTINUOUS
10
156.992
20
-97.4116
11
156.798
21
-97.45
0
LINE
8
BLACK
6
CONTINUOUS
10
156.798
20
-97.45
11
156.602
21
-97.45
0
LINE
8
BLACK
6
CONTINUOUS
10
156.602
20
-97.45
11
156.408
21
-97.4116
0
LINE
8
BLACK
6
CONTINUOUS
10
156.408
20
-97.4116
11
156.226
21
-97.3362
0
LINE
8
BLACK
6
CONTINUOUS
10
156.226
20
-97.3362
11
156.063
21
-97.2268
0
LINE
8
BLACK
6
CONTINUOUS
10
156.063
20
-97.2268
11
155.923
21
-97.0875
0
LINE
8
BLACK
6
CONTINUOUS
10
155.923
20
-97.0875
11
155.814
21
-96.9237
0
LINE
8
BLACK
6
CONTINUOUS
10
155.814
20
-96.9237
11
155.738
21
-96.7417
0
LINE
8
BLACK
6
CONTINUOUS
10
155.738
20
-96.7417
11
155.7
21
-96.5485
0
LINE
8
BLACK
6
CONTINUOUS
10
155.7
20
-96.5485
11
155.7
21
-96.3515
0
LINE
8
BLACK
6
CONTINUOUS
10
155.7
20
-96.3515
11
155.738
21
-96.1583
0
LINE
8
BLACK
6
CONTINUOUS
10
155.738
20
-96.1583
11
155.814
21
-95.9763
0
LINE
8
BLACK
6
CONTINUOUS
10
155.814
20
-95.9763
11
155.923
21
-95.8125
0
LINE
8
BLACK
6
CONTINUOUS
10
155.923
20
-95.8125
11
156.063
21
-95.6732
0
LINE
8
BLACK
6
CONTINUOUS
10
156.063
20
-95.6732
11
156.226
21
-95.5638
0
LINE
8
BLACK
6
CONTINUOUS
10
156.226
20
-95.5638
11
156.408
21
-95.4884
0
LINE
8
BLACK
6
CONTINUOUS
10
156.408
20
-95.4884
11
156.602
21
-95.45
0
LINE
8
BLACK
6
CONTINUOUS
10
156.602
20
-95.45
11
156.798
21
-95.45
0
LINE
8
BLACK
6
CONTINUOUS
10
156.798
20
-95.45
11
156.992
21
-95.4884
0
LINE
8
BLACK
6
CONTINUOUS
10
165.3
20
-97.45
11
163.3
21
-97.45
0
LINE
8
BLACK
6
CONTINUOUS
10
163.3
20
-97.45
11
163.3
21
-95.45
0
LINE
8
BLACK
6
CONTINUOUS
10
163.3
20
-95.45
11
165.3
21
-95.45
0
LINE
8
BLACK
6
CONTINUOUS
10
165.3
20
-95.45
11
165.3
21
-97.45
0
LINE
8
BLACK
6
CONTINUOUS
10
159.889
20
-82.1456
11
159.889
21
-84.0617
0
LINE
8
BLACK
6
CONTINUOUS
10
159.889
20
-84.0617
11
159.89
21
-84.074
0
LINE
8
BLACK
6
CONTINUOUS
10
159.89
20
-84.074
11
159.885
21
-84.123
0
LINE
8
BLACK
6
CONTINUOUS
10
159.885
20
-84.123
11
159.882
21
-84.1355
0
LINE
8
BLACK
6
CONTINUOUS
10
159.882
20
-84.1355
11
159.871
21
-84.1701
0
LINE
8
BLACK
6
CONTINUOUS
10
159.871
20
-84.1701
11
159.848
21
-84.2136
0
LINE
8
BLACK
6
CONTINUOUS
10
159.848
20
-84.2136
11
159.817
21
-84.2516
0
LINE
8
BLACK
6
CONTINUOUS
10
159.817
20
-84.2516
11
159.807
21
-84.2595
0
LINE
8
BLACK
6
CONTINUOUS
10
159.807
20
-84.2595
11
158.935
21
-85.1311
0
LINE
8
BLACK
6
CONTINUOUS
10
158.935
20
-85.1311
11
158.928
21
-85.1406
0
LINE
8
BLACK
6
CONTINUOUS
10
158.928
20
-85.1406
11
158.89
21
-85.1719
0
LINE
8
BLACK
6
CONTINUOUS
10
158.89
20
-85.1719
11
158.846
21
-85.1951
0
LINE
8
BLACK
6
CONTINUOUS
10
158.846
20
-85.1951
11
158.799
21
-85.2094
0
LINE
8
BLACK
6
CONTINUOUS
10
158.799
20
-85.2094
11
158.75
21
-85.2142
0
LINE
8
BLACK
6
CONTINUOUS
10
158.75
20
-85.2142
11
158.738
21
-85.213
0
LINE
8
BLACK
6
CONTINUOUS
10
158.738
20
-85.213
11
156.06
21
-85.213
0
LINE
8
BLACK
6
CONTINUOUS
10
156.06
20
-85.213
11
153.728
21
-87.5441
0
LINE
8
BLACK
6
CONTINUOUS
10
153.728
20
-87.5441
11
153.728
21
-87.5441
0
LINE
8
BLACK
6
CONTINUOUS
10
153.728
20
-87.5441
11
153.65
21
-87.6224
0
LINE
8
BLACK
6
CONTINUOUS
10
153.65
20
-87.6224
11
150.55
21
-90.7226
0
LINE
8
BLACK
6
CONTINUOUS
10
150.55
20
-90.7226
11
150.55
21
-94.1892
0
LINE
8
BLACK
6
CONTINUOUS
10
150.55
20
-94.1892
11
150.615
21
-94.2089
0
LINE
8
BLACK
6
CONTINUOUS
10
150.615
20
-94.2089
11
150.763
21
-94.2878
0
LINE
8
BLACK
6
CONTINUOUS
10
150.763
20
-94.2878
11
150.892
21
-94.3941
0
LINE
8
BLACK
6
CONTINUOUS
10
150.892
20
-94.3941
11
150.998
21
-94.5235
0
LINE
8
BLACK
6
CONTINUOUS
10
150.998
20
-94.5235
11
151.077
21
-94.6711
0
LINE
8
BLACK
6
CONTINUOUS
10
151.077
20
-94.6711
11
151.126
21
-94.8314
0
LINE
8
BLACK
6
CONTINUOUS
10
151.126
20
-94.8314
11
151.138
21
-94.9563
0
LINE
8
BLACK
6
CONTINUOUS
10
151.138
20
-94.9563
11
151.138
21
-95.2897
0
LINE
8
BLACK
6
CONTINUOUS
10
151.138
20
-95.2897
11
151.126
21
-95.4146
0
LINE
8
BLACK
6
CONTINUOUS
10
151.126
20
-95.4146
11
151.077
21
-95.5749
0
LINE
8
BLACK
6
CONTINUOUS
10
151.077
20
-95.5749
11
150.998
21
-95.7225
0
LINE
8
BLACK
6
CONTINUOUS
10
150.998
20
-95.7225
11
150.892
21
-95.8519
0
LINE
8
BLACK
6
CONTINUOUS
10
150.892
20
-95.8519
11
150.763
21
-95.9582
0
LINE
8
BLACK
6
CONTINUOUS
10
150.763
20
-95.9582
11
150.615
21
-96.0371
0
LINE
8
BLACK
6
CONTINUOUS
10
150.615
20
-96.0371
11
150.455
21
-96.0857
0
LINE
8
BLACK
6
CONTINUOUS
10
150.455
20
-96.0857
11
150.288
21
-96.1021
0
LINE
8
BLACK
6
CONTINUOUS
10
150.288
20
-96.1021
11
150.121
21
-96.0857
0
LINE
8
BLACK
6
CONTINUOUS
10
150.121
20
-96.0857
11
149.961
21
-96.0371
0
LINE
8
BLACK
6
CONTINUOUS
10
149.961
20
-96.0371
11
149.813
21
-95.9582
0
LINE
8
BLACK
6
CONTINUOUS
10
149.813
20
-95.9582
11
149.684
21
-95.8519
0
LINE
8
BLACK
6
CONTINUOUS
10
149.684
20
-95.8519
11
149.578
21
-95.7225
0
LINE
8
BLACK
6
CONTINUOUS
10
149.578
20
-95.7225
11
149.499
21
-95.5749
0
LINE
8
BLACK
6
CONTINUOUS
10
149.499
20
-95.5749
11
149.45
21
-95.4146
0
LINE
8
BLACK
6
CONTINUOUS
10
149.45
20
-95.4146
11
149.438
21
-95.2897
0
LINE
8
BLACK
6
CONTINUOUS
10
149.438
20
-95.2897
11
149.438
21
-94.9563
0
LINE
8
BLACK
6
CONTINUOUS
10
149.438
20
-94.9563
11
149.45
21
-94.8314
0
LINE
8
BLACK
6
CONTINUOUS
10
149.45
20
-94.8314
11
149.499
21
-94.6711
0
LINE
8
BLACK
6
CONTINUOUS
10
149.499
20
-94.6711
11
149.578
21
-94.5235
0
LINE
8
BLACK
6
CONTINUOUS
10
149.578
20
-94.5235
11
149.684
21
-94.3941
0
LINE
8
BLACK
6
CONTINUOUS
10
149.684
20
-94.3941
11
149.813
21
-94.2878
0
LINE
8
BLACK
6
CONTINUOUS
10
149.813
20
-94.2878
11
149.961
21
-94.2089
0
LINE
8
BLACK
6
CONTINUOUS
10
149.961
20
-94.2089
11
150.05
21
-94.1819
0
LINE
8
BLACK
6
CONTINUOUS
10
150.05
20
-94.1819
11
150.05
21
-90.6313
0
LINE
8
BLACK
6
CONTINUOUS
10
150.05
20
-90.6313
11
150.049
21
-90.619
0
LINE
8
BLACK
6
CONTINUOUS
10
150.049
20
-90.619
11
150.054
21
-90.57
0
LINE
8
BLACK
6
CONTINUOUS
10
150.054
20
-90.57
11
150.068
21
-90.5229
0
LINE
8
BLACK
6
CONTINUOUS
10
150.068
20
-90.5229
11
150.079
21
-90.502
0
LINE
8
BLACK
6
CONTINUOUS
10
150.079
20
-90.502
11
150.091
21
-90.4794
0
LINE
8
BLACK
6
CONTINUOUS
10
150.091
20
-90.4794
11
150.122
21
-90.4414
0
LINE
8
BLACK
6
CONTINUOUS
10
150.122
20
-90.4414
11
150.132
21
-90.4335
0
LINE
8
BLACK
6
CONTINUOUS
10
150.132
20
-90.4335
11
153.286
21
-87.2799
0
LINE
8
BLACK
6
CONTINUOUS
10
153.286
20
-87.2799
11
153.375
21
-87.1905
0
LINE
8
BLACK
6
CONTINUOUS
10
153.375
20
-87.1905
11
153.375
21
-87.1905
0
LINE
8
BLACK
6
CONTINUOUS
10
153.375
20
-87.1905
11
155.771
21
-84.7949
0
LINE
8
BLACK
6
CONTINUOUS
10
155.771
20
-84.7949
11
155.778
21
-84.7854
0
LINE
8
BLACK
6
CONTINUOUS
10
155.778
20
-84.7854
11
155.816
21
-84.7541
0
LINE
8
BLACK
6
CONTINUOUS
10
155.816
20
-84.7541
11
155.86
21
-84.7309
0
LINE
8
BLACK
6
CONTINUOUS
10
155.86
20
-84.7309
11
155.907
21
-84.7166
0
LINE
8
BLACK
6
CONTINUOUS
10
155.907
20
-84.7166
11
155.944
21
-84.713
0
LINE
8
BLACK
6
CONTINUOUS
10
155.944
20
-84.713
11
155.944
21
-84.713
0
LINE
8
BLACK
6
CONTINUOUS
10
155.944
20
-84.713
11
155.956
21
-84.7118
0
LINE
8
BLACK
6
CONTINUOUS
10
155.956
20
-84.7118
11
155.968
21
-84.713
0
LINE
8
BLACK
6
CONTINUOUS
10
155.968
20
-84.713
11
158.646
21
-84.713
0
LINE
8
BLACK
6
CONTINUOUS
10
158.646
20
-84.713
11
159.389
21
-83.9704
0
LINE
8
BLACK
6
CONTINUOUS
10
159.389
20
-83.9704
11
159.389
21
-82.0543
0
LINE
8
BLACK
6
CONTINUOUS
10
159.389
20
-82.0543
11
159.388
21
-82.042
0
LINE
8
BLACK
6
CONTINUOUS
10
159.388
20
-82.042
11
159.393
21
-81.993
0
LINE
8
BLACK
6
CONTINUOUS
10
159.393
20
-81.993
11
159.407
21
-81.9459
0
LINE
8
BLACK
6
CONTINUOUS
10
159.407
20
-81.9459
11
159.43
21
-81.9024
0
LINE
8
BLACK
6
CONTINUOUS
10
159.43
20
-81.9024
11
159.461
21
-81.8644
0
LINE
8
BLACK
6
CONTINUOUS
10
159.461
20
-81.8644
11
159.471
21
-81.8565
0
LINE
8
BLACK
6
CONTINUOUS
10
159.471
20
-81.8565
11
160.724
21
-80.6039
0
LINE
8
BLACK
6
CONTINUOUS
10
160.724
20
-80.6039
11
160.731
21
-80.5944
0
LINE
8
BLACK
6
CONTINUOUS
10
160.731
20
-80.5944
11
160.769
21
-80.5631
0
LINE
8
BLACK
6
CONTINUOUS
10
160.769
20
-80.5631
11
160.813
21
-80.5399
0
LINE
8
BLACK
6
CONTINUOUS
10
160.813
20
-80.5399
11
160.86
21
-80.5256
0
LINE
8
BLACK
6
CONTINUOUS
10
160.86
20
-80.5256
11
160.909
21
-80.5208
0
LINE
8
BLACK
6
CONTINUOUS
10
160.909
20
-80.5208
11
160.921
21
-80.522
0
LINE
8
BLACK
6
CONTINUOUS
10
160.921
20
-80.522
11
164.532
21
-80.522
0
LINE
8
BLACK
6
CONTINUOUS
10
164.532
20
-80.522
11
164.535
21
-80.517
0
LINE
8
BLACK
6
CONTINUOUS
10
164.535
20
-80.517
11
164.591
21
-80.4613
0
LINE
8
BLACK
6
CONTINUOUS
10
164.591
20
-80.4613
11
164.657
21
-80.4175
0
LINE
8
BLACK
6
CONTINUOUS
10
164.657
20
-80.4175
11
164.729
21
-80.3874
0
LINE
8
BLACK
6
CONTINUOUS
10
164.729
20
-80.3874
11
164.807
21
-80.372
0
LINE
8
BLACK
6
CONTINUOUS
10
164.807
20
-80.372
11
164.885
21
-80.372
0
LINE
8
BLACK
6
CONTINUOUS
10
164.885
20
-80.372
11
164.963
21
-80.3874
0
LINE
8
BLACK
6
CONTINUOUS
10
164.963
20
-80.3874
11
165.035
21
-80.4175
0
LINE
8
BLACK
6
CONTINUOUS
10
165.035
20
-80.4175
11
165.101
21
-80.4613
0
LINE
8
BLACK
6
CONTINUOUS
10
165.101
20
-80.4613
11
165.157
21
-80.517
0
LINE
8
BLACK
6
CONTINUOUS
10
165.157
20
-80.517
11
165.16
21
-80.522
0
LINE
8
BLACK
6
CONTINUOUS
10
165.16
20
-80.522
11
165.885
21
-80.522
0
LINE
8
BLACK
6
CONTINUOUS
10
165.885
20
-80.522
11
166.628
21
-79.7794
0
LINE
8
BLACK
6
CONTINUOUS
10
166.628
20
-79.7794
11
166.628
21
-78.6253
0
LINE
8
BLACK
6
CONTINUOUS
10
166.628
20
-78.6253
11
166.627
21
-78.613
0
LINE
8
BLACK
6
CONTINUOUS
10
166.627
20
-78.613
11
166.632
21
-78.564
0
LINE
8
BLACK
6
CONTINUOUS
10
166.632
20
-78.564
11
166.646
21
-78.5169
0
LINE
8
BLACK
6
CONTINUOUS
10
166.646
20
-78.5169
11
166.669
21
-78.4734
0
LINE
8
BLACK
6
CONTINUOUS
10
166.669
20
-78.4734
11
166.7
21
-78.4354
0
LINE
8
BLACK
6
CONTINUOUS
10
166.7
20
-78.4354
11
166.71
21
-78.4275
0
LINE
8
BLACK
6
CONTINUOUS
10
166.71
20
-78.4275
11
167.696
21
-77.4419
0
LINE
8
BLACK
6
CONTINUOUS
10
167.696
20
-77.4419
11
167.703
21
-77.4324
0
LINE
8
BLACK
6
CONTINUOUS
10
167.703
20
-77.4324
11
167.741
21
-77.4011
0
LINE
8
BLACK
6
CONTINUOUS
10
167.741
20
-77.4011
11
167.785
21
-77.3779
0
LINE
8
BLACK
6
CONTINUOUS
10
167.785
20
-77.3779
11
167.832
21
-77.3636
0
LINE
8
BLACK
6
CONTINUOUS
10
167.832
20
-77.3636
11
167.881
21
-77.3588
0
LINE
8
BLACK
6
CONTINUOUS
10
167.881
20
-77.3588
11
167.893
21
-77.36
0
LINE
8
BLACK
6
CONTINUOUS
10
167.893
20
-77.36
11
168.584
21
-77.36
0
LINE
8
BLACK
6
CONTINUOUS
10
168.584
20
-77.36
11
168.647
21
-77.2074
0
LINE
8
BLACK
6
CONTINUOUS
10
168.647
20
-77.2074
11
168.74
21
-77.0682
0
LINE
8
BLACK
6
CONTINUOUS
10
168.74
20
-77.0682
11
168.858
21
-76.9498
0
LINE
8
BLACK
6
CONTINUOUS
10
168.858
20
-76.9498
11
168.997
21
-76.8567
0
LINE
8
BLACK
6
CONTINUOUS
10
168.997
20
-76.8567
11
169.152
21
-76.7927
0
LINE
8
BLACK
6
CONTINUOUS
10
169.152
20
-76.7927
11
169.316
21
-76.76
0
LINE
8
BLACK
6
CONTINUOUS
10
169.316
20
-76.76
11
169.484
21
-76.76
0
LINE
8
BLACK
6
CONTINUOUS
10
169.484
20
-76.76
11
169.648
21
-76.7927
0
LINE
8
BLACK
6
CONTINUOUS
10
169.648
20
-76.7927
11
169.803
21
-76.8567
0
LINE
8
BLACK
6
CONTINUOUS
10
169.803
20
-76.8567
11
169.942
21
-76.9498
0
LINE
8
BLACK
6
CONTINUOUS
10
169.942
20
-76.9498
11
170.06
21
-77.0682
0
LINE
8
BLACK
6
CONTINUOUS
10
170.06
20
-77.0682
11
170.153
21
-77.2074
0
LINE
8
BLACK
6
CONTINUOUS
10
170.153
20
-77.2074
11
170.217
21
-77.3621
0
LINE
8
BLACK
6
CONTINUOUS
10
170.217
20
-77.3621
11
170.25
21
-77.5263
0
LINE
8
BLACK
6
CONTINUOUS
10
170.25
20
-77.5263
11
170.25
21
-77.6937
0
LINE
8
BLACK
6
CONTINUOUS
10
170.25
20
-77.6937
11
170.217
21
-77.8579
0
LINE
8
BLACK
6
CONTINUOUS
10
170.217
20
-77.8579
11
170.153
21
-78.0126
0
LINE
8
BLACK
6
CONTINUOUS
10
170.153
20
-78.0126
11
170.06
21
-78.1518
0
LINE
8
BLACK
6
CONTINUOUS
10
170.06
20
-78.1518
11
169.942
21
-78.2702
0
LINE
8
BLACK
6
CONTINUOUS
10
169.942
20
-78.2702
11
169.803
21
-78.3633
0
LINE
8
BLACK
6
CONTINUOUS
10
169.803
20
-78.3633
11
169.648
21
-78.4273
0
LINE
8
BLACK
6
CONTINUOUS
10
169.648
20
-78.4273
11
169.484
21
-78.46
0
LINE
8
BLACK
6
CONTINUOUS
10
169.484
20
-78.46
11
169.316
21
-78.46
0
LINE
8
BLACK
6
CONTINUOUS
10
169.316
20
-78.46
11
169.152
21
-78.4273
0
LINE
8
BLACK
6
CONTINUOUS
10
169.152
20
-78.4273
11
168.997
21
-78.3633
0
LINE
8
BLACK
6
CONTINUOUS
10
168.997
20
-78.3633
11
168.858
21
-78.2702
0
LINE
8
BLACK
6
CONTINUOUS
10
168.858
20
-78.2702
11
168.74
21
-78.1518
0
LINE
8
BLACK
6
CONTINUOUS
10
168.74
20
-78.1518
11
168.647
21
-78.0126
0
LINE
8
BLACK
6
CONTINUOUS
10
168.647
20
-78.0126
11
168.584
21
-77.86
0
LINE
8
BLACK
6
CONTINUOUS
10
168.584
20
-77.86
11
167.985
21
-77.86
0
LINE
8
BLACK
6
CONTINUOUS
10
167.985
20
-77.86
11
167.128
21
-78.7166
0
LINE
8
BLACK
6
CONTINUOUS
10
167.128
20
-78.7166
11
167.128
21
-79.8707
0
LINE
8
BLACK
6
CONTINUOUS
10
167.128
20
-79.8707
11
167.129
21
-79.883
0
LINE
8
BLACK
6
CONTINUOUS
10
167.129
20
-79.883
11
167.128
21
-79.8953
0
LINE
8
BLACK
6
CONTINUOUS
10
167.128
20
-79.8953
11
167.128
21
-79.8953
0
LINE
8
BLACK
6
CONTINUOUS
10
167.128
20
-79.8953
11
167.124
21
-79.932
0
LINE
8
BLACK
6
CONTINUOUS
10
167.124
20
-79.932
11
167.11
21
-79.9791
0
LINE
8
BLACK
6
CONTINUOUS
10
167.11
20
-79.9791
11
167.087
21
-80.0226
0
LINE
8
BLACK
6
CONTINUOUS
10
167.087
20
-80.0226
11
167.056
21
-80.0606
0
LINE
8
BLACK
6
CONTINUOUS
10
167.056
20
-80.0606
11
167.046
21
-80.0685
0
LINE
8
BLACK
6
CONTINUOUS
10
167.046
20
-80.0685
11
166.174
21
-80.9401
0
LINE
8
BLACK
6
CONTINUOUS
10
166.174
20
-80.9401
11
166.167
21
-80.9496
0
LINE
8
BLACK
6
CONTINUOUS
10
166.167
20
-80.9496
11
166.129
21
-80.9809
0
LINE
8
BLACK
6
CONTINUOUS
10
166.129
20
-80.9809
11
166.085
21
-81.0041
0
LINE
8
BLACK
6
CONTINUOUS
10
166.085
20
-81.0041
11
166.038
21
-81.0184
0
LINE
8
BLACK
6
CONTINUOUS
10
166.038
20
-81.0184
11
165.989
21
-81.0232
0
LINE
8
BLACK
6
CONTINUOUS
10
165.989
20
-81.0232
11
165.977
21
-81.022
0
LINE
8
BLACK
6
CONTINUOUS
10
165.977
20
-81.022
11
165.16
21
-81.022
0
LINE
8
BLACK
6
CONTINUOUS
10
165.16
20
-81.022
11
165.157
21
-81.027
0
LINE
8
BLACK
6
CONTINUOUS
10
165.157
20
-81.027
11
165.101
21
-81.0827
0
LINE
8
BLACK
6
CONTINUOUS
10
165.101
20
-81.0827
11
165.035
21
-81.1265
0
LINE
8
BLACK
6
CONTINUOUS
10
165.035
20
-81.1265
11
164.963
21
-81.1566
0
LINE
8
BLACK
6
CONTINUOUS
10
164.963
20
-81.1566
11
164.885
21
-81.172
0
LINE
8
BLACK
6
CONTINUOUS
10
164.885
20
-81.172
11
164.807
21
-81.172
0
LINE
8
BLACK
6
CONTINUOUS
10
164.807
20
-81.172
11
164.729
21
-81.1566
0
LINE
8
BLACK
6
CONTINUOUS
10
164.729
20
-81.1566
11
164.657
21
-81.1265
0
LINE
8
BLACK
6
CONTINUOUS
10
164.657
20
-81.1265
11
164.591
21
-81.0827
0
LINE
8
BLACK
6
CONTINUOUS
10
164.591
20
-81.0827
11
164.535
21
-81.027
0
LINE
8
BLACK
6
CONTINUOUS
10
164.535
20
-81.027
11
164.532
21
-81.022
0
LINE
8
BLACK
6
CONTINUOUS
10
164.532
20
-81.022
11
161.013
21
-81.022
0
LINE
8
BLACK
6
CONTINUOUS
10
161.013
20
-81.022
11
159.889
21
-82.1456
0
LINE
8
BLACK
6
CONTINUOUS
10
145.937
20
-94.1528
11
145.984
21
-94.167
0
LINE
8
BLACK
6
CONTINUOUS
10
145.984
20
-94.167
11
146.027
21
-94.1901
0
LINE
8
BLACK
6
CONTINUOUS
10
146.027
20
-94.1901
11
146.065
21
-94.2212
0
LINE
8
BLACK
6
CONTINUOUS
10
146.065
20
-94.2212
11
146.096
21
-94.2591
0
LINE
8
BLACK
6
CONTINUOUS
10
146.096
20
-94.2591
11
146.119
21
-94.3023
0
LINE
8
BLACK
6
CONTINUOUS
10
146.119
20
-94.3023
11
146.133
21
-94.3492
0
LINE
8
BLACK
6
CONTINUOUS
10
146.133
20
-94.3492
11
146.138
21
-94.398
0
LINE
8
BLACK
6
CONTINUOUS
10
146.138
20
-94.398
11
146.138
21
-95.848
0
LINE
8
BLACK
6
CONTINUOUS
10
146.138
20
-95.848
11
146.133
21
-95.8968
0
LINE
8
BLACK
6
CONTINUOUS
10
146.133
20
-95.8968
11
146.119
21
-95.9437
0
LINE
8
BLACK
6
CONTINUOUS
10
146.119
20
-95.9437
11
146.096
21
-95.9869
0
LINE
8
BLACK
6
CONTINUOUS
10
146.096
20
-95.9869
11
146.065
21
-96.0248
0
LINE
8
BLACK
6
CONTINUOUS
10
146.065
20
-96.0248
11
146.027
21
-96.0559
0
LINE
8
BLACK
6
CONTINUOUS
10
146.027
20
-96.0559
11
145.984
21
-96.079
0
LINE
8
BLACK
6
CONTINUOUS
10
145.984
20
-96.079
11
145.937
21
-96.0932
0
LINE
8
BLACK
6
CONTINUOUS
10
145.937
20
-96.0932
11
145.888
21
-96.098
0
LINE
8
BLACK
6
CONTINUOUS
10
145.888
20
-96.098
11
144.688
21
-96.098
0
LINE
8
BLACK
6
CONTINUOUS
10
144.688
20
-96.098
11
144.639
21
-96.0932
0
LINE
8
BLACK
6
CONTINUOUS
10
144.639
20
-96.0932
11
144.592
21
-96.079
0
LINE
8
BLACK
6
CONTINUOUS
10
144.592
20
-96.079
11
144.549
21
-96.0559
0
LINE
8
BLACK
6
CONTINUOUS
10
144.549
20
-96.0559
11
144.511
21
-96.0248
0
LINE
8
BLACK
6
CONTINUOUS
10
144.511
20
-96.0248
11
144.48
21
-95.9869
0
LINE
8
BLACK
6
CONTINUOUS
10
144.48
20
-95.9869
11
144.457
21
-95.9437
0
LINE
8
BLACK
6
CONTINUOUS
10
144.457
20
-95.9437
11
144.443
21
-95.8968
0
LINE
8
BLACK
6
CONTINUOUS
10
144.443
20
-95.8968
11
144.438
21
-95.848
0
LINE
8
BLACK
6
CONTINUOUS
10
144.438
20
-95.848
11
144.438
21
-94.398
0
LINE
8
BLACK
6
CONTINUOUS
10
144.438
20
-94.398
11
144.443
21
-94.3492
0
LINE
8
BLACK
6
CONTINUOUS
10
144.443
20
-94.3492
11
144.457
21
-94.3023
0
LINE
8
BLACK
6
CONTINUOUS
10
144.457
20
-94.3023
11
144.48
21
-94.2591
0
LINE
8
BLACK
6
CONTINUOUS
10
144.48
20
-94.2591
11
144.511
21
-94.2212
0
LINE
8
BLACK
6
CONTINUOUS
10
144.511
20
-94.2212
11
144.549
21
-94.1901
0
LINE
8
BLACK
6
CONTINUOUS
10
144.549
20
-94.1901
11
144.592
21
-94.167
0
LINE
8
BLACK
6
CONTINUOUS
10
144.592
20
-94.167
11
144.639
21
-94.1528
0
LINE
8
BLACK
6
CONTINUOUS
10
144.639
20
-94.1528
11
144.688
21
-94.148
0
LINE
8
BLACK
6
CONTINUOUS
10
144.688
20
-94.148
11
145.888
21
-94.148
0
LINE
8
BLACK
6
CONTINUOUS
10
145.888
20
-94.148
11
145.937
21
-94.1528
0
LINE
8
BLACK
6
CONTINUOUS
10
171.843
20
-90.4678
11
171.89
21
-90.482
0
LINE
8
BLACK
6
CONTINUOUS
10
171.89
20
-90.482
11
171.933
21
-90.5051
0
LINE
8
BLACK
6
CONTINUOUS
10
171.933
20
-90.5051
11
171.971
21
-90.5362
0
LINE
8
BLACK
6
CONTINUOUS
10
171.971
20
-90.5362
11
172.002
21
-90.5741
0
LINE
8
BLACK
6
CONTINUOUS
10
172.002
20
-90.5741
11
172.025
21
-90.6173
0
LINE
8
BLACK
6
CONTINUOUS
10
172.025
20
-90.6173
11
172.039
21
-90.6642
0
LINE
8
BLACK
6
CONTINUOUS
10
172.039
20
-90.6642
11
172.044
21
-90.713
0
LINE
8
BLACK
6
CONTINUOUS
10
172.044
20
-90.713
11
172.044
21
-91.913
0
LINE
8
BLACK
6
CONTINUOUS
10
172.044
20
-91.913
11
172.039
21
-91.9618
0
LINE
8
BLACK
6
CONTINUOUS
10
172.039
20
-91.9618
11
172.025
21
-92.0087
0
LINE
8
BLACK
6
CONTINUOUS
10
172.025
20
-92.0087
11
172.002
21
-92.0519
0
LINE
8
BLACK
6
CONTINUOUS
10
172.002
20
-92.0519
11
171.971
21
-92.0898
0
LINE
8
BLACK
6
CONTINUOUS
10
171.971
20
-92.0898
11
171.933
21
-92.1209
0
LINE
8
BLACK
6
CONTINUOUS
10
171.933
20
-92.1209
11
171.89
21
-92.144
0
LINE
8
BLACK
6
CONTINUOUS
10
171.89
20
-92.144
11
171.843
21
-92.1582
0
LINE
8
BLACK
6
CONTINUOUS
10
171.843
20
-92.1582
11
171.794
21
-92.163
0
LINE
8
BLACK
6
CONTINUOUS
10
171.794
20
-92.163
11
170.344
21
-92.163
0
LINE
8
BLACK
6
CONTINUOUS
10
170.344
20
-92.163
11
170.295
21
-92.1582
0
LINE
8
BLACK
6
CONTINUOUS
10
170.295
20
-92.1582
11
170.248
21
-92.144
0
LINE
8
BLACK
6
CONTINUOUS
10
170.248
20
-92.144
11
170.205
21
-92.1209
0
LINE
8
BLACK
6
CONTINUOUS
10
170.205
20
-92.1209
11
170.167
21
-92.0898
0
LINE
8
BLACK
6
CONTINUOUS
10
170.167
20
-92.0898
11
170.136
21
-92.0519
0
LINE
8
BLACK
6
CONTINUOUS
10
170.136
20
-92.0519
11
170.113
21
-92.0087
0
LINE
8
BLACK
6
CONTINUOUS
10
170.113
20
-92.0087
11
170.099
21
-91.9618
0
LINE
8
BLACK
6
CONTINUOUS
10
170.099
20
-91.9618
11
170.094
21
-91.913
0
LINE
8
BLACK
6
CONTINUOUS
10
170.094
20
-91.913
11
170.094
21
-90.713
0
LINE
8
BLACK
6
CONTINUOUS
10
170.094
20
-90.713
11
170.099
21
-90.6642
0
LINE
8
BLACK
6
CONTINUOUS
10
170.099
20
-90.6642
11
170.113
21
-90.6173
0
LINE
8
BLACK
6
CONTINUOUS
10
170.113
20
-90.6173
11
170.136
21
-90.5741
0
LINE
8
BLACK
6
CONTINUOUS
10
170.136
20
-90.5741
11
170.167
21
-90.5362
0
LINE
8
BLACK
6
CONTINUOUS
10
170.167
20
-90.5362
11
170.205
21
-90.5051
0
LINE
8
BLACK
6
CONTINUOUS
10
170.205
20
-90.5051
11
170.248
21
-90.482
0
LINE
8
BLACK
6
CONTINUOUS
10
170.248
20
-90.482
11
170.295
21
-90.4678
0
LINE
8
BLACK
6
CONTINUOUS
10
170.295
20
-90.4678
11
170.344
21
-90.463
0
LINE
8
BLACK
6
CONTINUOUS
10
170.344
20
-90.463
11
171.794
21
-90.463
0
LINE
8
BLACK
6
CONTINUOUS
10
171.794
20
-90.463
11
171.843
21
-90.4678
0
LINE
8
BLACK
6
CONTINUOUS
10
164.183
20
-87.0307
11
164.329
21
-87.091
0
LINE
8
BLACK
6
CONTINUOUS
10
164.329
20
-87.091
11
164.46
21
-87.1786
0
LINE
8
BLACK
6
CONTINUOUS
10
164.46
20
-87.1786
11
164.571
21
-87.29
0
LINE
8
BLACK
6
CONTINUOUS
10
164.571
20
-87.29
11
164.659
21
-87.4211
0
LINE
8
BLACK
6
CONTINUOUS
10
164.659
20
-87.4211
11
164.719
21
-87.5666
0
LINE
8
BLACK
6
CONTINUOUS
10
164.719
20
-87.5666
11
164.75
21
-87.7212
0
LINE
8
BLACK
6
CONTINUOUS
10
164.75
20
-87.7212
11
164.75
21
-87.8788
0
LINE
8
BLACK
6
CONTINUOUS
10
164.75
20
-87.8788
11
164.719
21
-88.0334
0
LINE
8
BLACK
6
CONTINUOUS
10
164.719
20
-88.0334
11
164.659
21
-88.1789
0
LINE
8
BLACK
6
CONTINUOUS
10
164.659
20
-88.1789
11
164.571
21
-88.31
0
LINE
8
BLACK
6
CONTINUOUS
10
164.571
20
-88.31
11
164.46
21
-88.4214
0
LINE
8
BLACK
6
CONTINUOUS
10
164.46
20
-88.4214
11
164.329
21
-88.509
0
LINE
8
BLACK
6
CONTINUOUS
10
164.329
20
-88.509
11
164.183
21
-88.5693
0
LINE
8
BLACK
6
CONTINUOUS
10
164.183
20
-88.5693
11
164.029
21
-88.6
0
LINE
8
BLACK
6
CONTINUOUS
10
164.029
20
-88.6
11
163.871
21
-88.6
0
LINE
8
BLACK
6
CONTINUOUS
10
163.871
20
-88.6
11
163.717
21
-88.5693
0
LINE
8
BLACK
6
CONTINUOUS
10
163.717
20
-88.5693
11
163.571
21
-88.509
0
LINE
8
BLACK
6
CONTINUOUS
10
163.571
20
-88.509
11
163.44
21
-88.4214
0
LINE
8
BLACK
6
CONTINUOUS
10
163.44
20
-88.4214
11
163.329
21
-88.31
0
LINE
8
BLACK
6
CONTINUOUS
10
163.329
20
-88.31
11
163.241
21
-88.1789
0
LINE
8
BLACK
6
CONTINUOUS
10
163.241
20
-88.1789
11
163.181
21
-88.0334
0
LINE
8
BLACK
6
CONTINUOUS
10
163.181
20
-88.0334
11
163.15
21
-87.8788
0
LINE
8
BLACK
6
CONTINUOUS
10
163.15
20
-87.8788
11
163.15
21
-87.7212
0
LINE
8
BLACK
6
CONTINUOUS
10
163.15
20
-87.7212
11
163.181
21
-87.5666
0
LINE
8
BLACK
6
CONTINUOUS
10
163.181
20
-87.5666
11
163.241
21
-87.4211
0
LINE
8
BLACK
6
CONTINUOUS
10
163.241
20
-87.4211
11
163.329
21
-87.29
0
LINE
8
BLACK
6
CONTINUOUS
10
163.329
20
-87.29
11
163.44
21
-87.1786
0
LINE
8
BLACK
6
CONTINUOUS
10
163.44
20
-87.1786
11
163.571
21
-87.091
0
LINE
8
BLACK
6
CONTINUOUS
10
163.571
20
-87.091
11
163.717
21
-87.0307
0
LINE
8
BLACK
6
CONTINUOUS
10
163.717
20
-87.0307
11
163.871
21
-87
0
LINE
8
BLACK
6
CONTINUOUS
10
163.871
20
-87
11
164.029
21
-87
0
LINE
8
BLACK
6
CONTINUOUS
10
164.029
20
-87
11
164.183
21
-87.0307
0
LINE
8
BLACK
6
CONTINUOUS
10
170.25
20
-81
11
168.904
21
-81
0
LINE
8
BLACK
6
CONTINUOUS
10
168.904
20
-81
11
167.693
21
-82.2101
0
LINE
8
BLACK
6
CONTINUOUS
10
167.693
20
-82.2101
11
167.686
21
-82.2196
0
LINE
8
BLACK
6
CONTINUOUS
10
167.686
20
-82.2196
11
167.648
21
-82.2509
0
LINE
8
BLACK
6
CONTINUOUS
10
167.648
20
-82.2509
11
167.604
21
-82.2741
0
LINE
8
BLACK
6
CONTINUOUS
10
167.604
20
-82.2741
11
167.559
21
-82.2877
0
LINE
8
BLACK
6
CONTINUOUS
10
167.559
20
-82.2877
11
167.557
21
-82.2884
0
LINE
8
BLACK
6
CONTINUOUS
10
167.557
20
-82.2884
11
167.508
21
-82.2932
0
LINE
8
BLACK
6
CONTINUOUS
10
167.508
20
-82.2932
11
167.496
21
-82.292
0
LINE
8
BLACK
6
CONTINUOUS
10
167.496
20
-82.292
11
165.16
21
-82.292
0
LINE
8
BLACK
6
CONTINUOUS
10
165.16
20
-82.292
11
165.157
21
-82.297
0
LINE
8
BLACK
6
CONTINUOUS
10
165.157
20
-82.297
11
165.101
21
-82.3527
0
LINE
8
BLACK
6
CONTINUOUS
10
165.101
20
-82.3527
11
165.035
21
-82.3965
0
LINE
8
BLACK
6
CONTINUOUS
10
165.035
20
-82.3965
11
164.963
21
-82.4266
0
LINE
8
BLACK
6
CONTINUOUS
10
164.963
20
-82.4266
11
164.885
21
-82.442
0
LINE
8
BLACK
6
CONTINUOUS
10
164.885
20
-82.442
11
164.807
21
-82.442
0
LINE
8
BLACK
6
CONTINUOUS
10
164.807
20
-82.442
11
164.729
21
-82.4266
0
LINE
8
BLACK
6
CONTINUOUS
10
164.729
20
-82.4266
11
164.657
21
-82.3965
0
LINE
8
BLACK
6
CONTINUOUS
10
164.657
20
-82.3965
11
164.591
21
-82.3527
0
LINE
8
BLACK
6
CONTINUOUS
10
164.591
20
-82.3527
11
164.535
21
-82.297
0
LINE
8
BLACK
6
CONTINUOUS
10
164.535
20
-82.297
11
164.532
21
-82.292
0
LINE
8
BLACK
6
CONTINUOUS
10
164.532
20
-82.292
11
161.521
21
-82.292
0
LINE
8
BLACK
6
CONTINUOUS
10
161.521
20
-82.292
11
160.905
21
-82.9076
0
LINE
8
BLACK
6
CONTINUOUS
10
160.905
20
-82.9076
11
160.905
21
-84.8237
0
LINE
8
BLACK
6
CONTINUOUS
10
160.905
20
-84.8237
11
160.906
21
-84.836
0
LINE
8
BLACK
6
CONTINUOUS
10
160.906
20
-84.836
11
160.905
21
-84.8483
0
LINE
8
BLACK
6
CONTINUOUS
10
160.905
20
-84.8483
11
160.905
21
-84.8483
0
LINE
8
BLACK
6
CONTINUOUS
10
160.905
20
-84.8483
11
160.901
21
-84.885
0
LINE
8
BLACK
6
CONTINUOUS
10
160.901
20
-84.885
11
160.887
21
-84.9321
0
LINE
8
BLACK
6
CONTINUOUS
10
160.887
20
-84.9321
11
160.864
21
-84.9756
0
LINE
8
BLACK
6
CONTINUOUS
10
160.864
20
-84.9756
11
160.833
21
-85.0136
0
LINE
8
BLACK
6
CONTINUOUS
10
160.833
20
-85.0136
11
160.823
21
-85.0215
0
LINE
8
BLACK
6
CONTINUOUS
10
160.823
20
-85.0215
11
157.876
21
-87.9681
0
LINE
8
BLACK
6
CONTINUOUS
10
157.876
20
-87.9681
11
157.869
21
-87.9776
0
LINE
8
BLACK
6
CONTINUOUS
10
157.869
20
-87.9776
11
157.831
21
-88.0089
0
LINE
8
BLACK
6
CONTINUOUS
10
157.831
20
-88.0089
11
157.787
21
-88.0321
0
LINE
8
BLACK
6
CONTINUOUS
10
157.787
20
-88.0321
11
157.74
21
-88.0464
0
LINE
8
BLACK
6
CONTINUOUS
10
157.74
20
-88.0464
11
157.691
21
-88.0512
0
LINE
8
BLACK
6
CONTINUOUS
10
157.691
20
-88.0512
11
157.679
21
-88.05
0
LINE
8
BLACK
6
CONTINUOUS
10
157.679
20
-88.05
11
157.092
21
-88.05
0
LINE
8
BLACK
6
CONTINUOUS
10
157.092
20
-88.05
11
157.039
21
-88.1789
0
LINE
8
BLACK
6
CONTINUOUS
10
157.039
20
-88.1789
11
156.951
21
-88.31
0
LINE
8
BLACK
6
CONTINUOUS
10
156.951
20
-88.31
11
156.84
21
-88.4214
0
LINE
8
BLACK
6
CONTINUOUS
10
156.84
20
-88.4214
11
156.709
21
-88.509
0
LINE
8
BLACK
6
CONTINUOUS
10
156.709
20
-88.509
11
156.563
21
-88.5693
0
LINE
8
BLACK
6
CONTINUOUS
10
156.563
20
-88.5693
11
156.409
21
-88.6
0
LINE
8
BLACK
6
CONTINUOUS
10
156.409
20
-88.6
11
156.251
21
-88.6
0
LINE
8
BLACK
6
CONTINUOUS
10
156.251
20
-88.6
11
156.097
21
-88.5693
0
LINE
8
BLACK
6
CONTINUOUS
10
156.097
20
-88.5693
11
155.951
21
-88.509
0
LINE
8
BLACK
6
CONTINUOUS
10
155.951
20
-88.509
11
155.82
21
-88.4214
0
LINE
8
BLACK
6
CONTINUOUS
10
155.82
20
-88.4214
11
155.709
21
-88.31
0
LINE
8
BLACK
6
CONTINUOUS
10
155.709
20
-88.31
11
155.621
21
-88.1789
0
LINE
8
BLACK
6
CONTINUOUS
10
155.621
20
-88.1789
11
155.561
21
-88.0334
0
LINE
8
BLACK
6
CONTINUOUS
10
155.561
20
-88.0334
11
155.53
21
-87.8788
0
LINE
8
BLACK
6
CONTINUOUS
10
155.53
20
-87.8788
11
155.53
21
-87.7212
0
LINE
8
BLACK
6
CONTINUOUS
10
155.53
20
-87.7212
11
155.561
21
-87.5666
0
LINE
8
BLACK
6
CONTINUOUS
10
155.561
20
-87.5666
11
155.621
21
-87.4211
0
LINE
8
BLACK
6
CONTINUOUS
10
155.621
20
-87.4211
11
155.709
21
-87.29
0
LINE
8
BLACK
6
CONTINUOUS
10
155.709
20
-87.29
11
155.82
21
-87.1786
0
LINE
8
BLACK
6
CONTINUOUS
10
155.82
20
-87.1786
11
155.951
21
-87.091
0
LINE
8
BLACK
6
CONTINUOUS
10
155.951
20
-87.091
11
156.097
21
-87.0307
0
LINE
8
BLACK
6
CONTINUOUS
10
156.097
20
-87.0307
11
156.251
21
-87
0
LINE
8
BLACK
6
CONTINUOUS
10
156.251
20
-87
11
156.409
21
-87
0
LINE
8
BLACK
6
CONTINUOUS
10
156.409
20
-87
11
156.563
21
-87.0307
0
LINE
8
BLACK
6
CONTINUOUS
10
156.563
20
-87.0307
11
156.709
21
-87.091
0
LINE
8
BLACK
6
CONTINUOUS
10
156.709
20
-87.091
11
156.84
21
-87.1786
0
LINE
8
BLACK
6
CONTINUOUS
10
156.84
20
-87.1786
11
156.951
21
-87.29
0
LINE
8
BLACK
6
CONTINUOUS
10
156.951
20
-87.29
11
157.039
21
-87.4211
0
LINE
8
BLACK
6
CONTINUOUS
10
157.039
20
-87.4211
11
157.092
21
-87.55
0
LINE
8
BLACK
6
CONTINUOUS
10
157.092
20
-87.55
11
157.587
21
-87.55
0
LINE
8
BLACK
6
CONTINUOUS
10
157.587
20
-87.55
11
160.405
21
-84.7324
0
LINE
8
BLACK
6
CONTINUOUS
10
160.405
20
-84.7324
11
160.405
21
-82.8163
0
LINE
8
BLACK
6
CONTINUOUS
10
160.405
20
-82.8163
11
160.404
21
-82.804
0
LINE
8
BLACK
6
CONTINUOUS
10
160.404
20
-82.804
11
160.409
21
-82.755
0
LINE
8
BLACK
6
CONTINUOUS
10
160.409
20
-82.755
11
160.423
21
-82.7079
0
LINE
8
BLACK
6
CONTINUOUS
10
160.423
20
-82.7079
11
160.446
21
-82.6644
0
LINE
8
BLACK
6
CONTINUOUS
10
160.446
20
-82.6644
11
160.477
21
-82.6264
0
LINE
8
BLACK
6
CONTINUOUS
10
160.477
20
-82.6264
11
160.487
21
-82.6185
0
LINE
8
BLACK
6
CONTINUOUS
10
160.487
20
-82.6185
11
161.232
21
-81.8739
0
LINE
8
BLACK
6
CONTINUOUS
10
161.232
20
-81.8739
11
161.239
21
-81.8644
0
LINE
8
BLACK
6
CONTINUOUS
10
161.239
20
-81.8644
11
161.277
21
-81.8331
0
LINE
8
BLACK
6
CONTINUOUS
10
161.277
20
-81.8331
11
161.321
21
-81.8099
0
LINE
8
BLACK
6
CONTINUOUS
10
161.321
20
-81.8099
11
161.368
21
-81.7956
0
LINE
8
BLACK
6
CONTINUOUS
10
161.368
20
-81.7956
11
161.417
21
-81.7908
0
LINE
8
BLACK
6
CONTINUOUS
10
161.417
20
-81.7908
11
161.429
21
-81.792
0
LINE
8
BLACK
6
CONTINUOUS
10
161.429
20
-81.792
11
164.532
21
-81.792
0
LINE
8
BLACK
6
CONTINUOUS
10
164.532
20
-81.792
11
164.535
21
-81.787
0
LINE
8
BLACK
6
CONTINUOUS
10
164.535
20
-81.787
11
164.591
21
-81.7313
0
LINE
8
BLACK
6
CONTINUOUS
10
164.591
20
-81.7313
11
164.657
21
-81.6875
0
LINE
8
BLACK
6
CONTINUOUS
10
164.657
20
-81.6875
11
164.729
21
-81.6574
0
LINE
8
BLACK
6
CONTINUOUS
10
164.729
20
-81.6574
11
164.807
21
-81.642
0
LINE
8
BLACK
6
CONTINUOUS
10
164.807
20
-81.642
11
164.885
21
-81.642
0
LINE
8
BLACK
6
CONTINUOUS
10
164.885
20
-81.642
11
164.963
21
-81.6574
0
LINE
8
BLACK
6
CONTINUOUS
10
164.963
20
-81.6574
11
165.035
21
-81.6875
0
LINE
8
BLACK
6
CONTINUOUS
10
165.035
20
-81.6875
11
165.101
21
-81.7313
0
LINE
8
BLACK
6
CONTINUOUS
10
165.101
20
-81.7313
11
165.157
21
-81.787
0
LINE
8
BLACK
6
CONTINUOUS
10
165.157
20
-81.787
11
165.16
21
-81.792
0
LINE
8
BLACK
6
CONTINUOUS
10
165.16
20
-81.792
11
167.404
21
-81.792
0
LINE
8
BLACK
6
CONTINUOUS
10
167.404
20
-81.792
11
168.55
21
-80.6464
0
LINE
8
BLACK
6
CONTINUOUS
10
168.55
20
-80.6464
11
168.55
21
-79.3
0
LINE
8
BLACK
6
CONTINUOUS
10
168.55
20
-79.3
11
170.25
21
-79.3
0
LINE
8
BLACK
6
CONTINUOUS
10
170.25
20
-79.3
11
170.25
21
-81
0
LINE
8
BLACK
6
CONTINUOUS
10
172.188
20
-76.7927
11
172.343
21
-76.8567
0
LINE
8
BLACK
6
CONTINUOUS
10
172.343
20
-76.8567
11
172.482
21
-76.9498
0
LINE
8
BLACK
6
CONTINUOUS
10
172.482
20
-76.9498
11
172.6
21
-77.0682
0
LINE
8
BLACK
6
CONTINUOUS
10
172.6
20
-77.0682
11
172.693
21
-77.2074
0
LINE
8
BLACK
6
CONTINUOUS
10
172.693
20
-77.2074
11
172.756
21
-77.36
0
LINE
8
BLACK
6
CONTINUOUS
10
172.756
20
-77.36
11
172.975
21
-77.36
0
LINE
8
BLACK
6
CONTINUOUS
10
172.975
20
-77.36
11
172.987
21
-77.3588
0
LINE
8
BLACK
6
CONTINUOUS
10
172.987
20
-77.3588
11
172.999
21
-77.36
0
LINE
8
BLACK
6
CONTINUOUS
10
172.999
20
-77.36
11
173.036
21
-77.3636
0
LINE
8
BLACK
6
CONTINUOUS
10
173.036
20
-77.3636
11
173.083
21
-77.3779
0
LINE
8
BLACK
6
CONTINUOUS
10
173.083
20
-77.3779
11
173.127
21
-77.4011
0
LINE
8
BLACK
6
CONTINUOUS
10
173.127
20
-77.4011
11
173.165
21
-77.4324
0
LINE
8
BLACK
6
CONTINUOUS
10
173.165
20
-77.4324
11
173.172
21
-77.4419
0
LINE
8
BLACK
6
CONTINUOUS
10
173.172
20
-77.4419
11
173.904
21
-78.1735
0
LINE
8
BLACK
6
CONTINUOUS
10
173.904
20
-78.1735
11
173.914
21
-78.1814
0
LINE
8
BLACK
6
CONTINUOUS
10
173.914
20
-78.1814
11
173.945
21
-78.2194
0
LINE
8
BLACK
6
CONTINUOUS
10
173.945
20
-78.2194
11
173.968
21
-78.2629
0
LINE
8
BLACK
6
CONTINUOUS
10
173.968
20
-78.2629
11
173.982
21
-78.31
0
LINE
8
BLACK
6
CONTINUOUS
10
173.982
20
-78.31
11
173.987
21
-78.359
0
LINE
8
BLACK
6
CONTINUOUS
10
173.987
20
-78.359
11
173.986
21
-78.3713
0
LINE
8
BLACK
6
CONTINUOUS
10
173.986
20
-78.3713
11
173.986
21
-84.0617
0
LINE
8
BLACK
6
CONTINUOUS
10
173.986
20
-84.0617
11
173.987
21
-84.074
0
LINE
8
BLACK
6
CONTINUOUS
10
173.987
20
-84.074
11
173.982
21
-84.123
0
LINE
8
BLACK
6
CONTINUOUS
10
173.982
20
-84.123
11
173.979
21
-84.1355
0
LINE
8
BLACK
6
CONTINUOUS
10
173.979
20
-84.1355
11
173.968
21
-84.1701
0
LINE
8
BLACK
6
CONTINUOUS
10
173.968
20
-84.1701
11
173.945
21
-84.2136
0
LINE
8
BLACK
6
CONTINUOUS
10
173.945
20
-84.2136
11
173.914
21
-84.2516
0
LINE
8
BLACK
6
CONTINUOUS
10
173.914
20
-84.2516
11
173.904
21
-84.2595
0
LINE
8
BLACK
6
CONTINUOUS
10
173.904
20
-84.2595
11
172.028
21
-86.1352
0
LINE
8
BLACK
6
CONTINUOUS
10
172.028
20
-86.1352
11
172.032
21
-86.1464
0
LINE
8
BLACK
6
CONTINUOUS
10
172.032
20
-86.1464
11
172.048
21
-86.313
0
LINE
8
BLACK
6
CONTINUOUS
10
172.048
20
-86.313
11
172.032
21
-86.4796
0
LINE
8
BLACK
6
CONTINUOUS
10
172.032
20
-86.4796
11
171.983
21
-86.6399
0
LINE
8
BLACK
6
CONTINUOUS
10
171.983
20
-86.6399
11
171.904
21
-86.7875
0
LINE
8
BLACK
6
CONTINUOUS
10
171.904
20
-86.7875
11
171.798
21
-86.9169
0
LINE
8
BLACK
6
CONTINUOUS
10
171.798
20
-86.9169
11
171.669
21
-87.0232
0
LINE
8
BLACK
6
CONTINUOUS
10
171.669
20
-87.0232
11
171.521
21
-87.1021
0
LINE
8
BLACK
6
CONTINUOUS
10
171.521
20
-87.1021
11
171.361
21
-87.1507
0
LINE
8
BLACK
6
CONTINUOUS
10
171.361
20
-87.1507
11
171.236
21
-87.163
0
LINE
8
BLACK
6
CONTINUOUS
10
171.236
20
-87.163
11
170.902
21
-87.163
0
LINE
8
BLACK
6
CONTINUOUS
10
170.902
20
-87.163
11
170.777
21
-87.1507
0
LINE
8
BLACK
6
CONTINUOUS
10
170.777
20
-87.1507
11
170.617
21
-87.1021
0
LINE
8
BLACK
6
CONTINUOUS
10
170.617
20
-87.1021
11
170.469
21
-87.0232
0
LINE
8
BLACK
6
CONTINUOUS
10
170.469
20
-87.0232
11
170.34
21
-86.9169
0
LINE
8
BLACK
6
CONTINUOUS
10
170.34
20
-86.9169
11
170.234
21
-86.7875
0
LINE
8
BLACK
6
CONTINUOUS
10
170.234
20
-86.7875
11
170.155
21
-86.6399
0
LINE
8
BLACK
6
CONTINUOUS
10
170.155
20
-86.6399
11
170.106
21
-86.4796
0
LINE
8
BLACK
6
CONTINUOUS
10
170.106
20
-86.4796
11
170.09
21
-86.313
0
LINE
8
BLACK
6
CONTINUOUS
10
170.09
20
-86.313
11
170.106
21
-86.1464
0
LINE
8
BLACK
6
CONTINUOUS
10
170.106
20
-86.1464
11
170.155
21
-85.9861
0
LINE
8
BLACK
6
CONTINUOUS
10
170.155
20
-85.9861
11
170.234
21
-85.8385
0
LINE
8
BLACK
6
CONTINUOUS
10
170.234
20
-85.8385
11
170.237
21
-85.8346
0
LINE
8
BLACK
6
CONTINUOUS
10
170.237
20
-85.8346
11
167.964
21
-83.562
0
LINE
8
BLACK
6
CONTINUOUS
10
167.964
20
-83.562
11
165.16
21
-83.562
0
LINE
8
BLACK
6
CONTINUOUS
10
165.16
20
-83.562
11
165.157
21
-83.567
0
LINE
8
BLACK
6
CONTINUOUS
10
165.157
20
-83.567
11
165.101
21
-83.6227
0
LINE
8
BLACK
6
CONTINUOUS
10
165.101
20
-83.6227
11
165.035
21
-83.6665
0
LINE
8
BLACK
6
CONTINUOUS
10
165.035
20
-83.6665
11
164.963
21
-83.6966
0
LINE
8
BLACK
6
CONTINUOUS
10
164.963
20
-83.6966
11
164.885
21
-83.712
0
LINE
8
BLACK
6
CONTINUOUS
10
164.885
20
-83.712
11
164.807
21
-83.712
0
LINE
8
BLACK
6
CONTINUOUS
10
164.807
20
-83.712
11
164.729
21
-83.6966
0
LINE
8
BLACK
6
CONTINUOUS
10
164.729
20
-83.6966
11
164.657
21
-83.6665
0
LINE
8
BLACK
6
CONTINUOUS
10
164.657
20
-83.6665
11
164.591
21
-83.6227
0
LINE
8
BLACK
6
CONTINUOUS
10
164.591
20
-83.6227
11
164.535
21
-83.567
0
LINE
8
BLACK
6
CONTINUOUS
10
164.535
20
-83.567
11
164.492
21
-83.5015
0
LINE
8
BLACK
6
CONTINUOUS
10
164.492
20
-83.5015
11
164.461
21
-83.4287
0
LINE
8
BLACK
6
CONTINUOUS
10
164.461
20
-83.4287
11
164.446
21
-83.3514
0
LINE
8
BLACK
6
CONTINUOUS
10
164.446
20
-83.3514
11
164.446
21
-83.2726
0
LINE
8
BLACK
6
CONTINUOUS
10
164.446
20
-83.2726
11
164.461
21
-83.1953
0
LINE
8
BLACK
6
CONTINUOUS
10
164.461
20
-83.1953
11
164.492
21
-83.1225
0
LINE
8
BLACK
6
CONTINUOUS
10
164.492
20
-83.1225
11
164.535
21
-83.057
0
LINE
8
BLACK
6
CONTINUOUS
10
164.535
20
-83.057
11
164.591
21
-83.0013
0
LINE
8
BLACK
6
CONTINUOUS
10
164.591
20
-83.0013
11
164.657
21
-82.9575
0
LINE
8
BLACK
6
CONTINUOUS
10
164.657
20
-82.9575
11
164.729
21
-82.9274
0
LINE
8
BLACK
6
CONTINUOUS
10
164.729
20
-82.9274
11
164.807
21
-82.912
0
LINE
8
BLACK
6
CONTINUOUS
10
164.807
20
-82.912
11
164.885
21
-82.912
0
LINE
8
BLACK
6
CONTINUOUS
10
164.885
20
-82.912
11
164.963
21
-82.9274
0
LINE
8
BLACK
6
CONTINUOUS
10
164.963
20
-82.9274
11
165.035
21
-82.9575
0
LINE
8
BLACK
6
CONTINUOUS
10
165.035
20
-82.9575
11
165.101
21
-83.0013
0
LINE
8
BLACK
6
CONTINUOUS
10
165.101
20
-83.0013
11
165.157
21
-83.057
0
LINE
8
BLACK
6
CONTINUOUS
10
165.157
20
-83.057
11
165.16
21
-83.062
0
LINE
8
BLACK
6
CONTINUOUS
10
165.16
20
-83.062
11
168.056
21
-83.062
0
LINE
8
BLACK
6
CONTINUOUS
10
168.056
20
-83.062
11
168.068
21
-83.0608
0
LINE
8
BLACK
6
CONTINUOUS
10
168.068
20
-83.0608
11
168.08
21
-83.062
0
LINE
8
BLACK
6
CONTINUOUS
10
168.08
20
-83.062
11
168.117
21
-83.0656
0
LINE
8
BLACK
6
CONTINUOUS
10
168.117
20
-83.0656
11
168.164
21
-83.0799
0
LINE
8
BLACK
6
CONTINUOUS
10
168.164
20
-83.0799
11
168.208
21
-83.1031
0
LINE
8
BLACK
6
CONTINUOUS
10
168.208
20
-83.1031
11
168.246
21
-83.1344
0
LINE
8
BLACK
6
CONTINUOUS
10
168.246
20
-83.1344
11
168.253
21
-83.1439
0
LINE
8
BLACK
6
CONTINUOUS
10
168.253
20
-83.1439
11
170.63
21
-85.5201
0
LINE
8
BLACK
6
CONTINUOUS
10
170.63
20
-85.5201
11
170.777
21
-85.4753
0
LINE
8
BLACK
6
CONTINUOUS
10
170.777
20
-85.4753
11
170.902
21
-85.463
0
LINE
8
BLACK
6
CONTINUOUS
10
170.902
20
-85.463
11
171.236
21
-85.463
0
LINE
8
BLACK
6
CONTINUOUS
10
171.236
20
-85.463
11
171.361
21
-85.4753
0
LINE
8
BLACK
6
CONTINUOUS
10
171.361
20
-85.4753
11
171.521
21
-85.5239
0
LINE
8
BLACK
6
CONTINUOUS
10
171.521
20
-85.5239
11
171.669
21
-85.6028
0
LINE
8
BLACK
6
CONTINUOUS
10
171.669
20
-85.6028
11
171.77
21
-85.6863
0
LINE
8
BLACK
6
CONTINUOUS
10
171.77
20
-85.6863
11
173.486
21
-83.9704
0
LINE
8
BLACK
6
CONTINUOUS
10
173.486
20
-83.9704
11
173.486
21
-78.4626
0
LINE
8
BLACK
6
CONTINUOUS
10
173.486
20
-78.4626
11
172.883
21
-77.86
0
LINE
8
BLACK
6
CONTINUOUS
10
172.883
20
-77.86
11
172.756
21
-77.86
0
LINE
8
BLACK
6
CONTINUOUS
10
172.756
20
-77.86
11
172.693
21
-78.0126
0
LINE
8
BLACK
6
CONTINUOUS
10
172.693
20
-78.0126
11
172.6
21
-78.1518
0
LINE
8
BLACK
6
CONTINUOUS
10
172.6
20
-78.1518
11
172.482
21
-78.2702
0
LINE
8
BLACK
6
CONTINUOUS
10
172.482
20
-78.2702
11
172.343
21
-78.3633
0
LINE
8
BLACK
6
CONTINUOUS
10
172.343
20
-78.3633
11
172.188
21
-78.4273
0
LINE
8
BLACK
6
CONTINUOUS
10
172.188
20
-78.4273
11
172.024
21
-78.46
0
LINE
8
BLACK
6
CONTINUOUS
10
172.024
20
-78.46
11
171.856
21
-78.46
0
LINE
8
BLACK
6
CONTINUOUS
10
171.856
20
-78.46
11
171.692
21
-78.4273
0
LINE
8
BLACK
6
CONTINUOUS
10
171.692
20
-78.4273
11
171.537
21
-78.3633
0
LINE
8
BLACK
6
CONTINUOUS
10
171.537
20
-78.3633
11
171.398
21
-78.2702
0
LINE
8
BLACK
6
CONTINUOUS
10
171.398
20
-78.2702
11
171.28
21
-78.1518
0
LINE
8
BLACK
6
CONTINUOUS
10
171.28
20
-78.1518
11
171.187
21
-78.0126
0
LINE
8
BLACK
6
CONTINUOUS
10
171.187
20
-78.0126
11
171.123
21
-77.8579
0
LINE
8
BLACK
6
CONTINUOUS
10
171.123
20
-77.8579
11
171.09
21
-77.6937
0
LINE
8
BLACK
6
CONTINUOUS
10
171.09
20
-77.6937
11
171.09
21
-77.5263
0
LINE
8
BLACK
6
CONTINUOUS
10
171.09
20
-77.5263
11
171.123
21
-77.3621
0
LINE
8
BLACK
6
CONTINUOUS
10
171.123
20
-77.3621
11
171.187
21
-77.2074
0
LINE
8
BLACK
6
CONTINUOUS
10
171.187
20
-77.2074
11
171.28
21
-77.0682
0
LINE
8
BLACK
6
CONTINUOUS
10
171.28
20
-77.0682
11
171.398
21
-76.9498
0
LINE
8
BLACK
6
CONTINUOUS
10
171.398
20
-76.9498
11
171.537
21
-76.8567
0
LINE
8
BLACK
6
CONTINUOUS
10
171.537
20
-76.8567
11
171.692
21
-76.7927
0
LINE
8
BLACK
6
CONTINUOUS
10
171.692
20
-76.7927
11
171.856
21
-76.76
0
LINE
8
BLACK
6
CONTINUOUS
10
171.856
20
-76.76
11
172.024
21
-76.76
0
LINE
8
BLACK
6
CONTINUOUS
10
172.024
20
-76.76
11
172.188
21
-76.7927
0
LINE
8
BLACK
6
CONTINUOUS
10
155.057
20
-81.6574
11
155.129
21
-81.6875
0
LINE
8
BLACK
6
CONTINUOUS
10
155.129
20
-81.6875
11
155.195
21
-81.7313
0
LINE
8
BLACK
6
CONTINUOUS
10
155.195
20
-81.7313
11
155.251
21
-81.787
0
LINE
8
BLACK
6
CONTINUOUS
10
155.251
20
-81.787
11
155.294
21
-81.8525
0
LINE
8
BLACK
6
CONTINUOUS
10
155.294
20
-81.8525
11
155.325
21
-81.9253
0
LINE
8
BLACK
6
CONTINUOUS
10
155.325
20
-81.9253
11
155.34
21
-82.0026
0
LINE
8
BLACK
6
CONTINUOUS
10
155.34
20
-82.0026
11
155.34
21
-82.0814
0
LINE
8
BLACK
6
CONTINUOUS
10
155.34
20
-82.0814
11
155.325
21
-82.1587
0
LINE
8
BLACK
6
CONTINUOUS
10
155.325
20
-82.1587
11
155.294
21
-82.2315
0
LINE
8
BLACK
6
CONTINUOUS
10
155.294
20
-82.2315
11
155.251
21
-82.297
0
LINE
8
BLACK
6
CONTINUOUS
10
155.251
20
-82.297
11
155.195
21
-82.3527
0
LINE
8
BLACK
6
CONTINUOUS
10
155.195
20
-82.3527
11
155.129
21
-82.3965
0
LINE
8
BLACK
6
CONTINUOUS
10
155.129
20
-82.3965
11
155.057
21
-82.4266
0
LINE
8
BLACK
6
CONTINUOUS
10
155.057
20
-82.4266
11
154.979
21
-82.442
0
LINE
8
BLACK
6
CONTINUOUS
10
154.979
20
-82.442
11
154.901
21
-82.442
0
LINE
8
BLACK
6
CONTINUOUS
10
154.901
20
-82.442
11
154.823
21
-82.4266
0
LINE
8
BLACK
6
CONTINUOUS
10
154.823
20
-82.4266
11
154.751
21
-82.3965
0
LINE
8
BLACK
6
CONTINUOUS
10
154.751
20
-82.3965
11
154.685
21
-82.3527
0
LINE
8
BLACK
6
CONTINUOUS
10
154.685
20
-82.3527
11
154.629
21
-82.297
0
LINE
8
BLACK
6
CONTINUOUS
10
154.629
20
-82.297
11
154.626
21
-82.292
0
LINE
8
BLACK
6
CONTINUOUS
10
154.626
20
-82.292
11
152.123
21
-82.292
0
LINE
8
BLACK
6
CONTINUOUS
10
152.123
20
-82.292
11
150.296
21
-84.1181
0
LINE
8
BLACK
6
CONTINUOUS
10
150.296
20
-84.1181
11
150.289
21
-84.1276
0
LINE
8
BLACK
6
CONTINUOUS
10
150.289
20
-84.1276
11
150.251
21
-84.1589
0
LINE
8
BLACK
6
CONTINUOUS
10
150.251
20
-84.1589
11
150.207
21
-84.1821
0
LINE
8
BLACK
6
CONTINUOUS
10
150.207
20
-84.1821
11
150.16
21
-84.1964
0
LINE
8
BLACK
6
CONTINUOUS
10
150.16
20
-84.1964
11
150.111
21
-84.2012
0
LINE
8
BLACK
6
CONTINUOUS
10
150.111
20
-84.2012
11
150.099
21
-84.2
0
LINE
8
BLACK
6
CONTINUOUS
10
150.099
20
-84.2
11
145.837
21
-84.2
0
LINE
8
BLACK
6
CONTINUOUS
10
145.837
20
-84.2
11
145.814
21
-84.2769
0
LINE
8
BLACK
6
CONTINUOUS
10
145.814
20
-84.2769
11
145.735
21
-84.4245
0
LINE
8
BLACK
6
CONTINUOUS
10
145.735
20
-84.4245
11
145.629
21
-84.5539
0
LINE
8
BLACK
6
CONTINUOUS
10
145.629
20
-84.5539
11
145.5
21
-84.6602
0
LINE
8
BLACK
6
CONTINUOUS
10
145.5
20
-84.6602
11
145.352
21
-84.7391
0
LINE
8
BLACK
6
CONTINUOUS
10
145.352
20
-84.7391
11
145.192
21
-84.7877
0
LINE
8
BLACK
6
CONTINUOUS
10
145.192
20
-84.7877
11
145.067
21
-84.8
0
LINE
8
BLACK
6
CONTINUOUS
10
145.067
20
-84.8
11
144.733
21
-84.8
0
LINE
8
BLACK
6
CONTINUOUS
10
144.733
20
-84.8
11
144.608
21
-84.7877
0
LINE
8
BLACK
6
CONTINUOUS
10
144.608
20
-84.7877
11
144.448
21
-84.7391
0
LINE
8
BLACK
6
CONTINUOUS
10
144.448
20
-84.7391
11
144.3
21
-84.6602
0
LINE
8
BLACK
6
CONTINUOUS
10
144.3
20
-84.6602
11
144.171
21
-84.5539
0
LINE
8
BLACK
6
CONTINUOUS
10
144.171
20
-84.5539
11
144.065
21
-84.4245
0
LINE
8
BLACK
6
CONTINUOUS
10
144.065
20
-84.4245
11
143.986
21
-84.2769
0
LINE
8
BLACK
6
CONTINUOUS
10
143.986
20
-84.2769
11
143.937
21
-84.1166
0
LINE
8
BLACK
6
CONTINUOUS
10
143.937
20
-84.1166
11
143.921
21
-83.95
0
LINE
8
BLACK
6
CONTINUOUS
10
143.921
20
-83.95
11
143.937
21
-83.7834
0
LINE
8
BLACK
6
CONTINUOUS
10
143.937
20
-83.7834
11
143.986
21
-83.6231
0
LINE
8
BLACK
6
CONTINUOUS
10
143.986
20
-83.6231
11
144.065
21
-83.4755
0
LINE
8
BLACK
6
CONTINUOUS
10
144.065
20
-83.4755
11
144.171
21
-83.3461
0
LINE
8
BLACK
6
CONTINUOUS
10
144.171
20
-83.3461
11
144.3
21
-83.2398
0
LINE
8
BLACK
6
CONTINUOUS
10
144.3
20
-83.2398
11
144.448
21
-83.1609
0
LINE
8
BLACK
6
CONTINUOUS
10
144.448
20
-83.1609
11
144.608
21
-83.1123
0
LINE
8
BLACK
6
CONTINUOUS
10
144.608
20
-83.1123
11
144.733
21
-83.1
0
LINE
8
BLACK
6
CONTINUOUS
10
144.733
20
-83.1
11
145.067
21
-83.1
0
LINE
8
BLACK
6
CONTINUOUS
10
145.067
20
-83.1
11
145.192
21
-83.1123
0
LINE
8
BLACK
6
CONTINUOUS
10
145.192
20
-83.1123
11
145.352
21
-83.1609
0
LINE
8
BLACK
6
CONTINUOUS
10
145.352
20
-83.1609
11
145.5
21
-83.2398
0
LINE
8
BLACK
6
CONTINUOUS
10
145.5
20
-83.2398
11
145.629
21
-83.3461
0
LINE
8
BLACK
6
CONTINUOUS
10
145.629
20
-83.3461
11
145.735
21
-83.4755
0
LINE
8
BLACK
6
CONTINUOUS
10
145.735
20
-83.4755
11
145.814
21
-83.6231
0
LINE
8
BLACK
6
CONTINUOUS
10
145.814
20
-83.6231
11
145.837
21
-83.7
0
LINE
8
BLACK
6
CONTINUOUS
10
145.837
20
-83.7
11
150.007
21
-83.7
0
LINE
8
BLACK
6
CONTINUOUS
10
150.007
20
-83.7
11
151.834
21
-81.8739
0
LINE
8
BLACK
6
CONTINUOUS
10
151.834
20
-81.8739
11
151.841
21
-81.8644
0
LINE
8
BLACK
6
CONTINUOUS
10
151.841
20
-81.8644
11
151.879
21
-81.8331
0
LINE
8
BLACK
6
CONTINUOUS
10
151.879
20
-81.8331
11
151.923
21
-81.8099
0
LINE
8
BLACK
6
CONTINUOUS
10
151.923
20
-81.8099
11
151.97
21
-81.7956
0
LINE
8
BLACK
6
CONTINUOUS
10
151.97
20
-81.7956
11
152.007
21
-81.792
0
LINE
8
BLACK
6
CONTINUOUS
10
152.007
20
-81.792
11
152.007
21
-81.792
0
LINE
8
BLACK
6
CONTINUOUS
10
152.007
20
-81.792
11
152.019
21
-81.7908
0
LINE
8
BLACK
6
CONTINUOUS
10
152.019
20
-81.7908
11
152.031
21
-81.792
0
LINE
8
BLACK
6
CONTINUOUS
10
152.031
20
-81.792
11
154.626
21
-81.792
0
LINE
8
BLACK
6
CONTINUOUS
10
154.626
20
-81.792
11
154.629
21
-81.787
0
LINE
8
BLACK
6
CONTINUOUS
10
154.629
20
-81.787
11
154.685
21
-81.7313
0
LINE
8
BLACK
6
CONTINUOUS
10
154.685
20
-81.7313
11
154.751
21
-81.6875
0
LINE
8
BLACK
6
CONTINUOUS
10
154.751
20
-81.6875
11
154.823
21
-81.6574
0
LINE
8
BLACK
6
CONTINUOUS
10
154.823
20
-81.6574
11
154.901
21
-81.642
0
LINE
8
BLACK
6
CONTINUOUS
10
154.901
20
-81.642
11
154.979
21
-81.642
0
LINE
8
BLACK
6
CONTINUOUS
10
154.979
20
-81.642
11
155.057
21
-81.6574
0
LINE
8
BLACK
6
CONTINUOUS
10
155.057
20
-80.3874
11
155.129
21
-80.4175
0
LINE
8
BLACK
6
CONTINUOUS
10
155.129
20
-80.4175
11
155.195
21
-80.4613
0
LINE
8
BLACK
6
CONTINUOUS
10
155.195
20
-80.4613
11
155.251
21
-80.517
0
LINE
8
BLACK
6
CONTINUOUS
10
155.251
20
-80.517
11
155.294
21
-80.5825
0
LINE
8
BLACK
6
CONTINUOUS
10
155.294
20
-80.5825
11
155.325
21
-80.6553
0
LINE
8
BLACK
6
CONTINUOUS
10
155.325
20
-80.6553
11
155.34
21
-80.7326
0
LINE
8
BLACK
6
CONTINUOUS
10
155.34
20
-80.7326
11
155.34
21
-80.8114
0
LINE
8
BLACK
6
CONTINUOUS
10
155.34
20
-80.8114
11
155.325
21
-80.8887
0
LINE
8
BLACK
6
CONTINUOUS
10
155.325
20
-80.8887
11
155.294
21
-80.9615
0
LINE
8
BLACK
6
CONTINUOUS
10
155.294
20
-80.9615
11
155.251
21
-81.027
0
LINE
8
BLACK
6
CONTINUOUS
10
155.251
20
-81.027
11
155.195
21
-81.0827
0
LINE
8
BLACK
6
CONTINUOUS
10
155.195
20
-81.0827
11
155.129
21
-81.1265
0
LINE
8
BLACK
6
CONTINUOUS
10
155.129
20
-81.1265
11
155.057
21
-81.1566
0
LINE
8
BLACK
6
CONTINUOUS
10
155.057
20
-81.1566
11
154.979
21
-81.172
0
LINE
8
BLACK
6
CONTINUOUS
10
154.979
20
-81.172
11
154.901
21
-81.172
0
LINE
8
BLACK
6
CONTINUOUS
10
154.901
20
-81.172
11
154.823
21
-81.1566
0
LINE
8
BLACK
6
CONTINUOUS
10
154.823
20
-81.1566
11
154.751
21
-81.1265
0
LINE
8
BLACK
6
CONTINUOUS
10
154.751
20
-81.1265
11
154.685
21
-81.0827
0
LINE
8
BLACK
6
CONTINUOUS
10
154.685
20
-81.0827
11
154.629
21
-81.027
0
LINE
8
BLACK
6
CONTINUOUS
10
154.629
20
-81.027
11
154.626
21
-81.022
0
LINE
8
BLACK
6
CONTINUOUS
10
154.626
20
-81.022
11
149.964
21
-81.022
0
LINE
8
BLACK
6
CONTINUOUS
10
149.964
20
-81.022
11
149.367
21
-81.6181
0
LINE
8
BLACK
6
CONTINUOUS
10
149.367
20
-81.6181
11
149.36
21
-81.6276
0
LINE
8
BLACK
6
CONTINUOUS
10
149.36
20
-81.6276
11
149.322
21
-81.6589
0
LINE
8
BLACK
6
CONTINUOUS
10
149.322
20
-81.6589
11
149.278
21
-81.6821
0
LINE
8
BLACK
6
CONTINUOUS
10
149.278
20
-81.6821
11
149.231
21
-81.6964
0
LINE
8
BLACK
6
CONTINUOUS
10
149.231
20
-81.6964
11
149.182
21
-81.7012
0
LINE
8
BLACK
6
CONTINUOUS
10
149.182
20
-81.7012
11
149.17
21
-81.7
0
LINE
8
BLACK
6
CONTINUOUS
10
149.17
20
-81.7
11
145.837
21
-81.7
0
LINE
8
BLACK
6
CONTINUOUS
10
145.837
20
-81.7
11
145.814
21
-81.7769
0
LINE
8
BLACK
6
CONTINUOUS
10
145.814
20
-81.7769
11
145.735
21
-81.9245
0
LINE
8
BLACK
6
CONTINUOUS
10
145.735
20
-81.9245
11
145.629
21
-82.0539
0
LINE
8
BLACK
6
CONTINUOUS
10
145.629
20
-82.0539
11
145.5
21
-82.1602
0
LINE
8
BLACK
6
CONTINUOUS
10
145.5
20
-82.1602
11
145.352
21
-82.2391
0
LINE
8
BLACK
6
CONTINUOUS
10
145.352
20
-82.2391
11
145.192
21
-82.2877
0
LINE
8
BLACK
6
CONTINUOUS
10
145.192
20
-82.2877
11
145.067
21
-82.3
0
LINE
8
BLACK
6
CONTINUOUS
10
145.067
20
-82.3
11
144.733
21
-82.3
0
LINE
8
BLACK
6
CONTINUOUS
10
144.733
20
-82.3
11
144.608
21
-82.2877
0
LINE
8
BLACK
6
CONTINUOUS
10
144.608
20
-82.2877
11
144.448
21
-82.2391
0
LINE
8
BLACK
6
CONTINUOUS
10
144.448
20
-82.2391
11
144.3
21
-82.1602
0
LINE
8
BLACK
6
CONTINUOUS
10
144.3
20
-82.1602
11
144.171
21
-82.0539
0
LINE
8
BLACK
6
CONTINUOUS
10
144.171
20
-82.0539
11
144.065
21
-81.9245
0
LINE
8
BLACK
6
CONTINUOUS
10
144.065
20
-81.9245
11
143.986
21
-81.7769
0
LINE
8
BLACK
6
CONTINUOUS
10
143.986
20
-81.7769
11
143.937
21
-81.6166
0
LINE
8
BLACK
6
CONTINUOUS
10
143.937
20
-81.6166
11
143.921
21
-81.45
0
LINE
8
BLACK
6
CONTINUOUS
10
143.921
20
-81.45
11
143.937
21
-81.2834
0
LINE
8
BLACK
6
CONTINUOUS
10
143.937
20
-81.2834
11
143.986
21
-81.1231
0
LINE
8
BLACK
6
CONTINUOUS
10
143.986
20
-81.1231
11
144.065
21
-80.9755
0
LINE
8
BLACK
6
CONTINUOUS
10
144.065
20
-80.9755
11
144.171
21
-80.8461
0
LINE
8
BLACK
6
CONTINUOUS
10
144.171
20
-80.8461
11
144.3
21
-80.7398
0
LINE
8
BLACK
6
CONTINUOUS
10
144.3
20
-80.7398
11
144.448
21
-80.6609
0
LINE
8
BLACK
6
CONTINUOUS
10
144.448
20
-80.6609
11
144.608
21
-80.6123
0
LINE
8
BLACK
6
CONTINUOUS
10
144.608
20
-80.6123
11
144.733
21
-80.6
0
LINE
8
BLACK
6
CONTINUOUS
10
144.733
20
-80.6
11
145.067
21
-80.6
0
LINE
8
BLACK
6
CONTINUOUS
10
145.067
20
-80.6
11
145.192
21
-80.6123
0
LINE
8
BLACK
6
CONTINUOUS
10
145.192
20
-80.6123
11
145.352
21
-80.6609
0
LINE
8
BLACK
6
CONTINUOUS
10
145.352
20
-80.6609
11
145.5
21
-80.7398
0
LINE
8
BLACK
6
CONTINUOUS
10
145.5
20
-80.7398
11
145.629
21
-80.8461
0
LINE
8
BLACK
6
CONTINUOUS
10
145.629
20
-80.8461
11
145.735
21
-80.9755
0
LINE
8
BLACK
6
CONTINUOUS
10
145.735
20
-80.9755
11
145.814
21
-81.1231
0
LINE
8
BLACK
6
CONTINUOUS
10
145.814
20
-81.1231
11
145.837
21
-81.2
0
LINE
8
BLACK
6
CONTINUOUS
10
145.837
20
-81.2
11
149.078
21
-81.2
0
LINE
8
BLACK
6
CONTINUOUS
10
149.078
20
-81.2
11
149.675
21
-80.6039
0
LINE
8
BLACK
6
CONTINUOUS
10
149.675
20
-80.6039
11
149.682
21
-80.5944
0
LINE
8
BLACK
6
CONTINUOUS
10
149.682
20
-80.5944
11
149.72
21
-80.5631
0
LINE
8
BLACK
6
CONTINUOUS
10
149.72
20
-80.5631
11
149.764
21
-80.5399
0
LINE
8
BLACK
6
CONTINUOUS
10
149.764
20
-80.5399
11
149.811
21
-80.5256
0
LINE
8
BLACK
6
CONTINUOUS
10
149.811
20
-80.5256
11
149.86
21
-80.5208
0
LINE
8
BLACK
6
CONTINUOUS
10
149.86
20
-80.5208
11
149.872
21
-80.522
0
LINE
8
BLACK
6
CONTINUOUS
10
149.872
20
-80.522
11
154.626
21
-80.522
0
LINE
8
BLACK
6
CONTINUOUS
10
154.626
20
-80.522
11
154.629
21
-80.517
0
LINE
8
BLACK
6
CONTINUOUS
10
154.629
20
-80.517
11
154.685
21
-80.4613
0
LINE
8
BLACK
6
CONTINUOUS
10
154.685
20
-80.4613
11
154.751
21
-80.4175
0
LINE
8
BLACK
6
CONTINUOUS
10
154.751
20
-80.4175
11
154.823
21
-80.3874
0
LINE
8
BLACK
6
CONTINUOUS
10
154.823
20
-80.3874
11
154.901
21
-80.372
0
LINE
8
BLACK
6
CONTINUOUS
10
154.901
20
-80.372
11
154.979
21
-80.372
0
LINE
8
BLACK
6
CONTINUOUS
10
154.979
20
-80.372
11
155.057
21
-80.3874
0
LINE
8
BLACK
6
CONTINUOUS
10
172.188
20
-79.3327
11
172.343
21
-79.3967
0
LINE
8
BLACK
6
CONTINUOUS
10
172.343
20
-79.3967
11
172.482
21
-79.4898
0
LINE
8
BLACK
6
CONTINUOUS
10
172.482
20
-79.4898
11
172.6
21
-79.6082
0
LINE
8
BLACK
6
CONTINUOUS
10
172.6
20
-79.6082
11
172.693
21
-79.7474
0
LINE
8
BLACK
6
CONTINUOUS
10
172.693
20
-79.7474
11
172.757
21
-79.9021
0
LINE
8
BLACK
6
CONTINUOUS
10
172.757
20
-79.9021
11
172.79
21
-80.0663
0
LINE
8
BLACK
6
CONTINUOUS
10
172.79
20
-80.0663
11
172.79
21
-80.2337
0
LINE
8
BLACK
6
CONTINUOUS
10
172.79
20
-80.2337
11
172.757
21
-80.3979
0
LINE
8
BLACK
6
CONTINUOUS
10
172.757
20
-80.3979
11
172.693
21
-80.5526
0
LINE
8
BLACK
6
CONTINUOUS
10
172.693
20
-80.5526
11
172.6
21
-80.6918
0
LINE
8
BLACK
6
CONTINUOUS
10
172.6
20
-80.6918
11
172.482
21
-80.8102
0
LINE
8
BLACK
6
CONTINUOUS
10
172.482
20
-80.8102
11
172.343
21
-80.9033
0
LINE
8
BLACK
6
CONTINUOUS
10
172.343
20
-80.9033
11
172.188
21
-80.9673
0
LINE
8
BLACK
6
CONTINUOUS
10
172.188
20
-80.9673
11
172.024
21
-81
0
LINE
8
BLACK
6
CONTINUOUS
10
172.024
20
-81
11
171.856
21
-81
0
LINE
8
BLACK
6
CONTINUOUS
10
171.856
20
-81
11
171.692
21
-80.9673
0
LINE
8
BLACK
6
CONTINUOUS
10
171.692
20
-80.9673
11
171.537
21
-80.9033
0
LINE
8
BLACK
6
CONTINUOUS
10
171.537
20
-80.9033
11
171.398
21
-80.8102
0
LINE
8
BLACK
6
CONTINUOUS
10
171.398
20
-80.8102
11
171.28
21
-80.6918
0
LINE
8
BLACK
6
CONTINUOUS
10
171.28
20
-80.6918
11
171.187
21
-80.5526
0
LINE
8
BLACK
6
CONTINUOUS
10
171.187
20
-80.5526
11
171.123
21
-80.3979
0
LINE
8
BLACK
6
CONTINUOUS
10
171.123
20
-80.3979
11
171.09
21
-80.2337
0
LINE
8
BLACK
6
CONTINUOUS
10
171.09
20
-80.2337
11
171.09
21
-80.0663
0
LINE
8
BLACK
6
CONTINUOUS
10
171.09
20
-80.0663
11
171.123
21
-79.9021
0
LINE
8
BLACK
6
CONTINUOUS
10
171.123
20
-79.9021
11
171.187
21
-79.7474
0
LINE
8
BLACK
6
CONTINUOUS
10
171.187
20
-79.7474
11
171.28
21
-79.6082
0
LINE
8
BLACK
6
CONTINUOUS
10
171.28
20
-79.6082
11
171.398
21
-79.4898
0
LINE
8
BLACK
6
CONTINUOUS
10
171.398
20
-79.4898
11
171.537
21
-79.3967
0
LINE
8
BLACK
6
CONTINUOUS
10
171.537
20
-79.3967
11
171.692
21
-79.3327
0
LINE
8
BLACK
6
CONTINUOUS
10
171.692
20
-79.3327
11
171.856
21
-79.3
0
LINE
8
BLACK
6
CONTINUOUS
10
171.856
20
-79.3
11
172.024
21
-79.3
0
LINE
8
BLACK
6
CONTINUOUS
10
172.024
20
-79.3
11
172.188
21
-79.3327
0
LINE
8
BLACK
6
CONTINUOUS
10
164.153
20
-74.2807
11
164.299
21
-74.341
0
LINE
8
BLACK
6
CONTINUOUS
10
164.299
20
-74.341
11
164.43
21
-74.4286
0
LINE
8
BLACK
6
CONTINUOUS
10
164.43
20
-74.4286
11
164.541
21
-74.54
0
LINE
8
BLACK
6
CONTINUOUS
10
164.541
20
-74.54
11
164.629
21
-74.6711
0
LINE
8
BLACK
6
CONTINUOUS
10
164.629
20
-74.6711
11
164.689
21
-74.8166
0
LINE
8
BLACK
6
CONTINUOUS
10
164.689
20
-74.8166
11
164.72
21
-74.9712
0
LINE
8
BLACK
6
CONTINUOUS
10
164.72
20
-74.9712
11
164.72
21
-75.1288
0
LINE
8
BLACK
6
CONTINUOUS
10
164.72
20
-75.1288
11
164.689
21
-75.2834
0
LINE
8
BLACK
6
CONTINUOUS
10
164.689
20
-75.2834
11
164.636
21
-75.4123
0
LINE
8
BLACK
6
CONTINUOUS
10
164.636
20
-75.4123
11
165.014
21
-75.7905
0
LINE
8
BLACK
6
CONTINUOUS
10
165.014
20
-75.7905
11
165.024
21
-75.7984
0
LINE
8
BLACK
6
CONTINUOUS
10
165.024
20
-75.7984
11
165.055
21
-75.8364
0
LINE
8
BLACK
6
CONTINUOUS
10
165.055
20
-75.8364
11
165.078
21
-75.8799
0
LINE
8
BLACK
6
CONTINUOUS
10
165.078
20
-75.8799
11
165.092
21
-75.927
0
LINE
8
BLACK
6
CONTINUOUS
10
165.092
20
-75.927
11
165.097
21
-75.976
0
LINE
8
BLACK
6
CONTINUOUS
10
165.097
20
-75.976
11
165.096
21
-75.9883
0
LINE
8
BLACK
6
CONTINUOUS
10
165.096
20
-75.9883
11
165.096
21
-79.188
0
LINE
8
BLACK
6
CONTINUOUS
10
165.096
20
-79.188
11
165.101
21
-79.1913
0
LINE
8
BLACK
6
CONTINUOUS
10
165.101
20
-79.1913
11
165.157
21
-79.247
0
LINE
8
BLACK
6
CONTINUOUS
10
165.157
20
-79.247
11
165.2
21
-79.3125
0
LINE
8
BLACK
6
CONTINUOUS
10
165.2
20
-79.3125
11
165.231
21
-79.3853
0
LINE
8
BLACK
6
CONTINUOUS
10
165.231
20
-79.3853
11
165.246
21
-79.4626
0
LINE
8
BLACK
6
CONTINUOUS
10
165.246
20
-79.4626
11
165.246
21
-79.5414
0
LINE
8
BLACK
6
CONTINUOUS
10
165.246
20
-79.5414
11
165.231
21
-79.6187
0
LINE
8
BLACK
6
CONTINUOUS
10
165.231
20
-79.6187
11
165.2
21
-79.6915
0
LINE
8
BLACK
6
CONTINUOUS
10
165.2
20
-79.6915
11
165.157
21
-79.757
0
LINE
8
BLACK
6
CONTINUOUS
10
165.157
20
-79.757
11
165.101
21
-79.8127
0
LINE
8
BLACK
6
CONTINUOUS
10
165.101
20
-79.8127
11
165.035
21
-79.8565
0
LINE
8
BLACK
6
CONTINUOUS
10
165.035
20
-79.8565
11
164.963
21
-79.8866
0
LINE
8
BLACK
6
CONTINUOUS
10
164.963
20
-79.8866
11
164.885
21
-79.902
0
LINE
8
BLACK
6
CONTINUOUS
10
164.885
20
-79.902
11
164.807
21
-79.902
0
LINE
8
BLACK
6
CONTINUOUS
10
164.807
20
-79.902
11
164.729
21
-79.8866
0
LINE
8
BLACK
6
CONTINUOUS
10
164.729
20
-79.8866
11
164.657
21
-79.8565
0
LINE
8
BLACK
6
CONTINUOUS
10
164.657
20
-79.8565
11
164.591
21
-79.8127
0
LINE
8
BLACK
6
CONTINUOUS
10
164.591
20
-79.8127
11
164.535
21
-79.757
0
LINE
8
BLACK
6
CONTINUOUS
10
164.535
20
-79.757
11
164.492
21
-79.6915
0
LINE
8
BLACK
6
CONTINUOUS
10
164.492
20
-79.6915
11
164.461
21
-79.6187
0
LINE
8
BLACK
6
CONTINUOUS
10
164.461
20
-79.6187
11
164.446
21
-79.5414
0
LINE
8
BLACK
6
CONTINUOUS
10
164.446
20
-79.5414
11
164.446
21
-79.4626
0
LINE
8
BLACK
6
CONTINUOUS
10
164.446
20
-79.4626
11
164.461
21
-79.3853
0
LINE
8
BLACK
6
CONTINUOUS
10
164.461
20
-79.3853
11
164.492
21
-79.3125
0
LINE
8
BLACK
6
CONTINUOUS
10
164.492
20
-79.3125
11
164.535
21
-79.247
0
LINE
8
BLACK
6
CONTINUOUS
10
164.535
20
-79.247
11
164.591
21
-79.1913
0
LINE
8
BLACK
6
CONTINUOUS
10
164.591
20
-79.1913
11
164.596
21
-79.188
0
LINE
8
BLACK
6
CONTINUOUS
10
164.596
20
-79.188
11
164.596
21
-76.0796
0
LINE
8
BLACK
6
CONTINUOUS
10
164.596
20
-76.0796
11
164.282
21
-75.7658
0
LINE
8
BLACK
6
CONTINUOUS
10
164.282
20
-75.7658
11
164.153
21
-75.8193
0
LINE
8
BLACK
6
CONTINUOUS
10
164.153
20
-75.8193
11
163.999
21
-75.85
0
LINE
8
BLACK
6
CONTINUOUS
10
163.999
20
-75.85
11
163.841
21
-75.85
0
LINE
8
BLACK
6
CONTINUOUS
10
163.841
20
-75.85
11
163.687
21
-75.8193
0
LINE
8
BLACK
6
CONTINUOUS
10
163.687
20
-75.8193
11
163.541
21
-75.759
0
LINE
8
BLACK
6
CONTINUOUS
10
163.541
20
-75.759
11
163.41
21
-75.6714
0
LINE
8
BLACK
6
CONTINUOUS
10
163.41
20
-75.6714
11
163.299
21
-75.56
0
LINE
8
BLACK
6
CONTINUOUS
10
163.299
20
-75.56
11
163.211
21
-75.4289
0
LINE
8
BLACK
6
CONTINUOUS
10
163.211
20
-75.4289
11
163.151
21
-75.2834
0
LINE
8
BLACK
6
CONTINUOUS
10
163.151
20
-75.2834
11
163.12
21
-75.1288
0
LINE
8
BLACK
6
CONTINUOUS
10
163.12
20
-75.1288
11
163.12
21
-74.9712
0
LINE
8
BLACK
6
CONTINUOUS
10
163.12
20
-74.9712
11
163.151
21
-74.8166
0
LINE
8
BLACK
6
CONTINUOUS
10
163.151
20
-74.8166
11
163.211
21
-74.6711
0
LINE
8
BLACK
6
CONTINUOUS
10
163.211
20
-74.6711
11
163.299
21
-74.54
0
LINE
8
BLACK
6
CONTINUOUS
10
163.299
20
-74.54
11
163.41
21
-74.4286
0
LINE
8
BLACK
6
CONTINUOUS
10
163.41
20
-74.4286
11
163.541
21
-74.341
0
LINE
8
BLACK
6
CONTINUOUS
10
163.541
20
-74.341
11
163.687
21
-74.2807
0
LINE
8
BLACK
6
CONTINUOUS
10
163.687
20
-74.2807
11
163.841
21
-74.25
0
LINE
8
BLACK
6
CONTINUOUS
10
163.841
20
-74.25
11
163.999
21
-74.25
0
LINE
8
BLACK
6
CONTINUOUS
10
163.999
20
-74.25
11
164.153
21
-74.2807
0
LINE
8
BLACK
6
CONTINUOUS
10
167.748
20
-73.156
11
167.785
21
-73.1596
0
LINE
8
BLACK
6
CONTINUOUS
10
167.785
20
-73.1596
11
167.832
21
-73.1739
0
LINE
8
BLACK
6
CONTINUOUS
10
167.832
20
-73.1739
11
167.876
21
-73.1971
0
LINE
8
BLACK
6
CONTINUOUS
10
167.876
20
-73.1971
11
167.914
21
-73.2284
0
LINE
8
BLACK
6
CONTINUOUS
10
167.914
20
-73.2284
11
167.921
21
-73.2379
0
LINE
8
BLACK
6
CONTINUOUS
10
167.921
20
-73.2379
11
168.999
21
-74.3159
0
LINE
8
BLACK
6
CONTINUOUS
10
168.999
20
-74.3159
11
169.152
21
-74.2527
0
LINE
8
BLACK
6
CONTINUOUS
10
169.152
20
-74.2527
11
169.316
21
-74.22
0
LINE
8
BLACK
6
CONTINUOUS
10
169.316
20
-74.22
11
169.484
21
-74.22
0
LINE
8
BLACK
6
CONTINUOUS
10
169.484
20
-74.22
11
169.648
21
-74.2527
0
LINE
8
BLACK
6
CONTINUOUS
10
169.648
20
-74.2527
11
169.803
21
-74.3167
0
LINE
8
BLACK
6
CONTINUOUS
10
169.803
20
-74.3167
11
169.942
21
-74.4098
0
LINE
8
BLACK
6
CONTINUOUS
10
169.942
20
-74.4098
11
170.06
21
-74.5282
0
LINE
8
BLACK
6
CONTINUOUS
10
170.06
20
-74.5282
11
170.153
21
-74.6674
0
LINE
8
BLACK
6
CONTINUOUS
10
170.153
20
-74.6674
11
170.217
21
-74.8221
0
LINE
8
BLACK
6
CONTINUOUS
10
170.217
20
-74.8221
11
170.25
21
-74.9863
0
LINE
8
BLACK
6
CONTINUOUS
10
170.25
20
-74.9863
11
170.25
21
-75.1537
0
LINE
8
BLACK
6
CONTINUOUS
10
170.25
20
-75.1537
11
170.217
21
-75.3179
0
LINE
8
BLACK
6
CONTINUOUS
10
170.217
20
-75.3179
11
170.153
21
-75.4726
0
LINE
8
BLACK
6
CONTINUOUS
10
170.153
20
-75.4726
11
170.06
21
-75.6118
0
LINE
8
BLACK
6
CONTINUOUS
10
170.06
20
-75.6118
11
169.942
21
-75.7302
0
LINE
8
BLACK
6
CONTINUOUS
10
169.942
20
-75.7302
11
169.803
21
-75.8233
0
LINE
8
BLACK
6
CONTINUOUS
10
169.803
20
-75.8233
11
169.648
21
-75.8873
0
LINE
8
BLACK
6
CONTINUOUS
10
169.648
20
-75.8873
11
169.484
21
-75.92
0
LINE
8
BLACK
6
CONTINUOUS
10
169.484
20
-75.92
11
169.316
21
-75.92
0
LINE
8
BLACK
6
CONTINUOUS
10
169.316
20
-75.92
11
169.152
21
-75.8873
0
LINE
8
BLACK
6
CONTINUOUS
10
169.152
20
-75.8873
11
168.997
21
-75.8233
0
LINE
8
BLACK
6
CONTINUOUS
10
168.997
20
-75.8233
11
168.858
21
-75.7302
0
LINE
8
BLACK
6
CONTINUOUS
10
168.858
20
-75.7302
11
168.74
21
-75.6118
0
LINE
8
BLACK
6
CONTINUOUS
10
168.74
20
-75.6118
11
168.647
21
-75.4726
0
LINE
8
BLACK
6
CONTINUOUS
10
168.647
20
-75.4726
11
168.583
21
-75.3179
0
LINE
8
BLACK
6
CONTINUOUS
10
168.583
20
-75.3179
11
168.55
21
-75.1537
0
LINE
8
BLACK
6
CONTINUOUS
10
168.55
20
-75.1537
11
168.55
21
-74.9863
0
LINE
8
BLACK
6
CONTINUOUS
10
168.55
20
-74.9863
11
168.583
21
-74.8221
0
LINE
8
BLACK
6
CONTINUOUS
10
168.583
20
-74.8221
11
168.646
21
-74.6694
0
LINE
8
BLACK
6
CONTINUOUS
10
168.646
20
-74.6694
11
167.632
21
-73.656
0
LINE
8
BLACK
6
CONTINUOUS
10
167.632
20
-73.656
11
158.048
21
-73.656
0
LINE
8
BLACK
6
CONTINUOUS
10
158.048
20
-73.656
11
157.016
21
-74.6877
0
LINE
8
BLACK
6
CONTINUOUS
10
157.016
20
-74.6877
11
157.069
21
-74.8166
0
LINE
8
BLACK
6
CONTINUOUS
10
157.069
20
-74.8166
11
157.1
21
-74.9712
0
LINE
8
BLACK
6
CONTINUOUS
10
157.1
20
-74.9712
11
157.1
21
-75.1288
0
LINE
8
BLACK
6
CONTINUOUS
10
157.1
20
-75.1288
11
157.069
21
-75.2834
0
LINE
8
BLACK
6
CONTINUOUS
10
157.069
20
-75.2834
11
157.009
21
-75.4289
0
LINE
8
BLACK
6
CONTINUOUS
10
157.009
20
-75.4289
11
156.921
21
-75.56
0
LINE
8
BLACK
6
CONTINUOUS
10
156.921
20
-75.56
11
156.81
21
-75.6714
0
LINE
8
BLACK
6
CONTINUOUS
10
156.81
20
-75.6714
11
156.679
21
-75.759
0
LINE
8
BLACK
6
CONTINUOUS
10
156.679
20
-75.759
11
156.533
21
-75.8193
0
LINE
8
BLACK
6
CONTINUOUS
10
156.533
20
-75.8193
11
156.379
21
-75.85
0
LINE
8
BLACK
6
CONTINUOUS
10
156.379
20
-75.85
11
156.221
21
-75.85
0
LINE
8
BLACK
6
CONTINUOUS
10
156.221
20
-75.85
11
156.067
21
-75.8193
0
LINE
8
BLACK
6
CONTINUOUS
10
156.067
20
-75.8193
11
155.921
21
-75.759
0
LINE
8
BLACK
6
CONTINUOUS
10
155.921
20
-75.759
11
155.79
21
-75.6714
0
LINE
8
BLACK
6
CONTINUOUS
10
155.79
20
-75.6714
11
155.679
21
-75.56
0
LINE
8
BLACK
6
CONTINUOUS
10
155.679
20
-75.56
11
155.591
21
-75.4289
0
LINE
8
BLACK
6
CONTINUOUS
10
155.591
20
-75.4289
11
155.538
21
-75.3
0
LINE
8
BLACK
6
CONTINUOUS
10
155.538
20
-75.3
11
155.305
21
-75.3
0
LINE
8
BLACK
6
CONTINUOUS
10
155.305
20
-75.3
11
155.19
21
-75.4146
0
LINE
8
BLACK
6
CONTINUOUS
10
155.19
20
-75.4146
11
155.19
21
-79.188
0
LINE
8
BLACK
6
CONTINUOUS
10
155.19
20
-79.188
11
155.195
21
-79.1913
0
LINE
8
BLACK
6
CONTINUOUS
10
155.195
20
-79.1913
11
155.251
21
-79.247
0
LINE
8
BLACK
6
CONTINUOUS
10
155.251
20
-79.247
11
155.294
21
-79.3125
0
LINE
8
BLACK
6
CONTINUOUS
10
155.294
20
-79.3125
11
155.325
21
-79.3853
0
LINE
8
BLACK
6
CONTINUOUS
10
155.325
20
-79.3853
11
155.34
21
-79.4626
0
LINE
8
BLACK
6
CONTINUOUS
10
155.34
20
-79.4626
11
155.34
21
-79.5414
0
LINE
8
BLACK
6
CONTINUOUS
10
155.34
20
-79.5414
11
155.325
21
-79.6187
0
LINE
8
BLACK
6
CONTINUOUS
10
155.325
20
-79.6187
11
155.294
21
-79.6915
0
LINE
8
BLACK
6
CONTINUOUS
10
155.294
20
-79.6915
11
155.251
21
-79.757
0
LINE
8
BLACK
6
CONTINUOUS
10
155.251
20
-79.757
11
155.195
21
-79.8127
0
LINE
8
BLACK
6
CONTINUOUS
10
155.195
20
-79.8127
11
155.129
21
-79.8565
0
LINE
8
BLACK
6
CONTINUOUS
10
155.129
20
-79.8565
11
155.057
21
-79.8866
0
LINE
8
BLACK
6
CONTINUOUS
10
155.057
20
-79.8866
11
154.979
21
-79.902
0
LINE
8
BLACK
6
CONTINUOUS
10
154.979
20
-79.902
11
154.901
21
-79.902
0
LINE
8
BLACK
6
CONTINUOUS
10
154.901
20
-79.902
11
154.823
21
-79.8866
0
LINE
8
BLACK
6
CONTINUOUS
10
154.823
20
-79.8866
11
154.751
21
-79.8565
0
LINE
8
BLACK
6
CONTINUOUS
10
154.751
20
-79.8565
11
154.685
21
-79.8127
0
LINE
8
BLACK
6
CONTINUOUS
10
154.685
20
-79.8127
11
154.629
21
-79.757
0
LINE
8
BLACK
6
CONTINUOUS
10
154.629
20
-79.757
11
154.586
21
-79.6915
0
LINE
8
BLACK
6
CONTINUOUS
10
154.586
20
-79.6915
11
154.555
21
-79.6187
0
LINE
8
BLACK
6
CONTINUOUS
10
154.555
20
-79.6187
11
154.54
21
-79.5414
0
LINE
8
BLACK
6
CONTINUOUS
10
154.54
20
-79.5414
11
154.54
21
-79.4626
0
LINE
8
BLACK
6
CONTINUOUS
10
154.54
20
-79.4626
11
154.555
21
-79.3853
0
LINE
8
BLACK
6
CONTINUOUS
10
154.555
20
-79.3853
11
154.586
21
-79.3125
0
LINE
8
BLACK
6
CONTINUOUS
10
154.586
20
-79.3125
11
154.629
21
-79.247
0
LINE
8
BLACK
6
CONTINUOUS
10
154.629
20
-79.247
11
154.685
21
-79.1913
0
LINE
8
BLACK
6
CONTINUOUS
10
154.685
20
-79.1913
11
154.69
21
-79.188
0
LINE
8
BLACK
6
CONTINUOUS
10
154.69
20
-79.188
11
154.69
21
-75.3233
0
LINE
8
BLACK
6
CONTINUOUS
10
154.69
20
-75.3233
11
154.689
21
-75.311
0
LINE
8
BLACK
6
CONTINUOUS
10
154.689
20
-75.311
11
154.694
21
-75.262
0
LINE
8
BLACK
6
CONTINUOUS
10
154.694
20
-75.262
11
154.708
21
-75.2149
0
LINE
8
BLACK
6
CONTINUOUS
10
154.708
20
-75.2149
11
154.708
21
-75.2149
0
LINE
8
BLACK
6
CONTINUOUS
10
154.708
20
-75.2149
11
154.731
21
-75.1714
0
LINE
8
BLACK
6
CONTINUOUS
10
154.731
20
-75.1714
11
154.762
21
-75.1334
0
LINE
8
BLACK
6
CONTINUOUS
10
154.762
20
-75.1334
11
154.772
21
-75.1255
0
LINE
8
BLACK
6
CONTINUOUS
10
154.772
20
-75.1255
11
155.016
21
-74.8819
0
LINE
8
BLACK
6
CONTINUOUS
10
155.016
20
-74.8819
11
155.023
21
-74.8724
0
LINE
8
BLACK
6
CONTINUOUS
10
155.023
20
-74.8724
11
155.061
21
-74.8411
0
LINE
8
BLACK
6
CONTINUOUS
10
155.061
20
-74.8411
11
155.105
21
-74.8179
0
LINE
8
BLACK
6
CONTINUOUS
10
155.105
20
-74.8179
11
155.109
21
-74.8166
0
LINE
8
BLACK
6
CONTINUOUS
10
155.109
20
-74.8166
11
155.152
21
-74.8036
0
LINE
8
BLACK
6
CONTINUOUS
10
155.152
20
-74.8036
11
155.201
21
-74.7988
0
LINE
8
BLACK
6
CONTINUOUS
10
155.201
20
-74.7988
11
155.213
21
-74.8
0
LINE
8
BLACK
6
CONTINUOUS
10
155.213
20
-74.8
11
155.538
21
-74.8
0
LINE
8
BLACK
6
CONTINUOUS
10
155.538
20
-74.8
11
155.591
21
-74.6711
0
LINE
8
BLACK
6
CONTINUOUS
10
155.591
20
-74.6711
11
155.679
21
-74.54
0
LINE
8
BLACK
6
CONTINUOUS
10
155.679
20
-74.54
11
155.79
21
-74.4286
0
LINE
8
BLACK
6
CONTINUOUS
10
155.79
20
-74.4286
11
155.921
21
-74.341
0
LINE
8
BLACK
6
CONTINUOUS
10
155.921
20
-74.341
11
156.067
21
-74.2807
0
LINE
8
BLACK
6
CONTINUOUS
10
156.067
20
-74.2807
11
156.221
21
-74.25
0
LINE
8
BLACK
6
CONTINUOUS
10
156.221
20
-74.25
11
156.379
21
-74.25
0
LINE
8
BLACK
6
CONTINUOUS
10
156.379
20
-74.25
11
156.533
21
-74.2807
0
LINE
8
BLACK
6
CONTINUOUS
10
156.533
20
-74.2807
11
156.662
21
-74.3342
0
LINE
8
BLACK
6
CONTINUOUS
10
156.662
20
-74.3342
11
157.759
21
-73.2379
0
LINE
8
BLACK
6
CONTINUOUS
10
157.759
20
-73.2379
11
157.766
21
-73.2284
0
LINE
8
BLACK
6
CONTINUOUS
10
157.766
20
-73.2284
11
157.804
21
-73.1971
0
LINE
8
BLACK
6
CONTINUOUS
10
157.804
20
-73.1971
11
157.848
21
-73.1739
0
LINE
8
BLACK
6
CONTINUOUS
10
157.848
20
-73.1739
11
157.895
21
-73.1596
0
LINE
8
BLACK
6
CONTINUOUS
10
157.895
20
-73.1596
11
157.944
21
-73.1548
0
LINE
8
BLACK
6
CONTINUOUS
10
157.944
20
-73.1548
11
157.956
21
-73.156
0
LINE
8
BLACK
6
CONTINUOUS
10
157.956
20
-73.156
11
167.724
21
-73.156
0
LINE
8
BLACK
6
CONTINUOUS
10
167.724
20
-73.156
11
167.736
21
-73.1548
0
LINE
8
BLACK
6
CONTINUOUS
10
167.736
20
-73.1548
11
167.748
21
-73.156
0
LINE
8
BLACK
6
CONTINUOUS
10
145.674
20
-78.1048
11
145.721
21
-78.119
0
LINE
8
BLACK
6
CONTINUOUS
10
145.721
20
-78.119
11
145.764
21
-78.1421
0
LINE
8
BLACK
6
CONTINUOUS
10
145.764
20
-78.1421
11
145.802
21
-78.1732
0
LINE
8
BLACK
6
CONTINUOUS
10
145.802
20
-78.1732
11
145.833
21
-78.2111
0
LINE
8
BLACK
6
CONTINUOUS
10
145.833
20
-78.2111
11
145.856
21
-78.2543
0
LINE
8
BLACK
6
CONTINUOUS
10
145.856
20
-78.2543
11
145.87
21
-78.3012
0
LINE
8
BLACK
6
CONTINUOUS
10
145.87
20
-78.3012
11
145.875
21
-78.35
0
LINE
8
BLACK
6
CONTINUOUS
10
145.875
20
-78.35
11
145.875
21
-79.55
0
LINE
8
BLACK
6
CONTINUOUS
10
145.875
20
-79.55
11
145.87
21
-79.5988
0
LINE
8
BLACK
6
CONTINUOUS
10
145.87
20
-79.5988
11
145.856
21
-79.6457
0
LINE
8
BLACK
6
CONTINUOUS
10
145.856
20
-79.6457
11
145.833
21
-79.6889
0
LINE
8
BLACK
6
CONTINUOUS
10
145.833
20
-79.6889
11
145.802
21
-79.7268
0
LINE
8
BLACK
6
CONTINUOUS
10
145.802
20
-79.7268
11
145.764
21
-79.7579
0
LINE
8
BLACK
6
CONTINUOUS
10
145.764
20
-79.7579
11
145.721
21
-79.781
0
LINE
8
BLACK
6
CONTINUOUS
10
145.721
20
-79.781
11
145.674
21
-79.7952
0
LINE
8
BLACK
6
CONTINUOUS
10
145.674
20
-79.7952
11
145.625
21
-79.8
0
LINE
8
BLACK
6
CONTINUOUS
10
145.625
20
-79.8
11
144.175
21
-79.8
0
LINE
8
BLACK
6
CONTINUOUS
10
144.175
20
-79.8
11
144.126
21
-79.7952
0
LINE
8
BLACK
6
CONTINUOUS
10
144.126
20
-79.7952
11
144.079
21
-79.781
0
LINE
8
BLACK
6
CONTINUOUS
10
144.079
20
-79.781
11
144.036
21
-79.7579
0
LINE
8
BLACK
6
CONTINUOUS
10
144.036
20
-79.7579
11
143.998
21
-79.7268
0
LINE
8
BLACK
6
CONTINUOUS
10
143.998
20
-79.7268
11
143.967
21
-79.6889
0
LINE
8
BLACK
6
CONTINUOUS
10
143.967
20
-79.6889
11
143.944
21
-79.6457
0
LINE
8
BLACK
6
CONTINUOUS
10
143.944
20
-79.6457
11
143.93
21
-79.5988
0
LINE
8
BLACK
6
CONTINUOUS
10
143.93
20
-79.5988
11
143.925
21
-79.55
0
LINE
8
BLACK
6
CONTINUOUS
10
143.925
20
-79.55
11
143.925
21
-78.35
0
LINE
8
BLACK
6
CONTINUOUS
10
143.925
20
-78.35
11
143.93
21
-78.3012
0
LINE
8
BLACK
6
CONTINUOUS
10
143.93
20
-78.3012
11
143.944
21
-78.2543
0
LINE
8
BLACK
6
CONTINUOUS
10
143.944
20
-78.2543
11
143.967
21
-78.2111
0
LINE
8
BLACK
6
CONTINUOUS
10
143.967
20
-78.2111
11
143.998
21
-78.1732
0
LINE
8
BLACK
6
CONTINUOUS
10
143.998
20
-78.1732
11
144.036
21
-78.1421
0
LINE
8
BLACK
6
CONTINUOUS
10
144.036
20
-78.1421
11
144.079
21
-78.119
0
LINE
8
BLACK
6
CONTINUOUS
10
144.079
20
-78.119
11
144.126
21
-78.1048
0
LINE
8
BLACK
6
CONTINUOUS
10
144.126
20
-78.1048
11
144.175
21
-78.1
0
LINE
8
BLACK
6
CONTINUOUS
10
144.175
20
-78.1
11
145.625
21
-78.1
0
LINE
8
BLACK
6
CONTINUOUS
10
145.625
20
-78.1
11
145.674
21
-78.1048
0
LINE
8
BLACK
6
CONTINUOUS
10
164.233
20
-71.0807
11
164.379
21
-71.141
0
LINE
8
BLACK
6
CONTINUOUS
10
164.379
20
-71.141
11
164.51
21
-71.2286
0
LINE
8
BLACK
6
CONTINUOUS
10
164.51
20
-71.2286
11
164.621
21
-71.34
0
LINE
8
BLACK
6
CONTINUOUS
10
164.621
20
-71.34
11
164.709
21
-71.4711
0
LINE
8
BLACK
6
CONTINUOUS
10
164.709
20
-71.4711
11
164.769
21
-71.6166
0
LINE
8
BLACK
6
CONTINUOUS
10
164.769
20
-71.6166
11
164.8
21
-71.7712
0
LINE
8
BLACK
6
CONTINUOUS
10
164.8
20
-71.7712
11
164.8
21
-71.9288
0
LINE
8
BLACK
6
CONTINUOUS
10
164.8
20
-71.9288
11
164.769
21
-72.0834
0
LINE
8
BLACK
6
CONTINUOUS
10
164.769
20
-72.0834
11
164.709
21
-72.2289
0
LINE
8
BLACK
6
CONTINUOUS
10
164.709
20
-72.2289
11
164.621
21
-72.36
0
LINE
8
BLACK
6
CONTINUOUS
10
164.621
20
-72.36
11
164.51
21
-72.4714
0
LINE
8
BLACK
6
CONTINUOUS
10
164.51
20
-72.4714
11
164.379
21
-72.559
0
LINE
8
BLACK
6
CONTINUOUS
10
164.379
20
-72.559
11
164.233
21
-72.6193
0
LINE
8
BLACK
6
CONTINUOUS
10
164.233
20
-72.6193
11
164.079
21
-72.65
0
LINE
8
BLACK
6
CONTINUOUS
10
164.079
20
-72.65
11
163.921
21
-72.65
0
LINE
8
BLACK
6
CONTINUOUS
10
163.921
20
-72.65
11
163.767
21
-72.6193
0
LINE
8
BLACK
6
CONTINUOUS
10
163.767
20
-72.6193
11
163.621
21
-72.559
0
LINE
8
BLACK
6
CONTINUOUS
10
163.621
20
-72.559
11
163.49
21
-72.4714
0
LINE
8
BLACK
6
CONTINUOUS
10
163.49
20
-72.4714
11
163.379
21
-72.36
0
LINE
8
BLACK
6
CONTINUOUS
10
163.379
20
-72.36
11
163.291
21
-72.2289
0
LINE
8
BLACK
6
CONTINUOUS
10
163.291
20
-72.2289
11
163.231
21
-72.0834
0
LINE
8
BLACK
6
CONTINUOUS
10
163.231
20
-72.0834
11
163.2
21
-71.9288
0
LINE
8
BLACK
6
CONTINUOUS
10
163.2
20
-71.9288
11
163.2
21
-71.7712
0
LINE
8
BLACK
6
CONTINUOUS
10
163.2
20
-71.7712
11
163.231
21
-71.6166
0
LINE
8
BLACK
6
CONTINUOUS
10
163.231
20
-71.6166
11
163.291
21
-71.4711
0
LINE
8
BLACK
6
CONTINUOUS
10
163.291
20
-71.4711
11
163.379
21
-71.34
0
LINE
8
BLACK
6
CONTINUOUS
10
163.379
20
-71.34
11
163.49
21
-71.2286
0
LINE
8
BLACK
6
CONTINUOUS
10
163.49
20
-71.2286
11
163.621
21
-71.141
0
LINE
8
BLACK
6
CONTINUOUS
10
163.621
20
-71.141
11
163.767
21
-71.0807
0
LINE
8
BLACK
6
CONTINUOUS
10
163.767
20
-71.0807
11
163.921
21
-71.05
0
LINE
8
BLACK
6
CONTINUOUS
10
163.921
20
-71.05
11
164.079
21
-71.05
0
LINE
8
BLACK
6
CONTINUOUS
10
164.079
20
-71.05
11
164.233
21
-71.0807
0
LINE
8
BLACK
6
CONTINUOUS
10
151.283
20
-70.7307
11
151.429
21
-70.791
0
LINE
8
BLACK
6
CONTINUOUS
10
151.429
20
-70.791
11
151.56
21
-70.8786
0
LINE
8
BLACK
6
CONTINUOUS
10
151.56
20
-70.8786
11
151.671
21
-70.99
0
LINE
8
BLACK
6
CONTINUOUS
10
151.671
20
-70.99
11
151.759
21
-71.1211
0
LINE
8
BLACK
6
CONTINUOUS
10
151.759
20
-71.1211
11
151.819
21
-71.2666
0
LINE
8
BLACK
6
CONTINUOUS
10
151.819
20
-71.2666
11
151.85
21
-71.4212
0
LINE
8
BLACK
6
CONTINUOUS
10
151.85
20
-71.4212
11
151.85
21
-71.5788
0
LINE
8
BLACK
6
CONTINUOUS
10
151.85
20
-71.5788
11
151.819
21
-71.7334
0
LINE
8
BLACK
6
CONTINUOUS
10
151.819
20
-71.7334
11
151.759
21
-71.8789
0
LINE
8
BLACK
6
CONTINUOUS
10
151.759
20
-71.8789
11
151.671
21
-72.01
0
LINE
8
BLACK
6
CONTINUOUS
10
151.671
20
-72.01
11
151.56
21
-72.1214
0
LINE
8
BLACK
6
CONTINUOUS
10
151.56
20
-72.1214
11
151.429
21
-72.209
0
LINE
8
BLACK
6
CONTINUOUS
10
151.429
20
-72.209
11
151.283
21
-72.2693
0
LINE
8
BLACK
6
CONTINUOUS
10
151.283
20
-72.2693
11
151.129
21
-72.3
0
LINE
8
BLACK
6
CONTINUOUS
10
151.129
20
-72.3
11
150.971
21
-72.3
0
LINE
8
BLACK
6
CONTINUOUS
10
150.971
20
-72.3
11
150.817
21
-72.2693
0
LINE
8
BLACK
6
CONTINUOUS
10
150.817
20
-72.2693
11
150.671
21
-72.209
0
LINE
8
BLACK
6
CONTINUOUS
10
150.671
20
-72.209
11
150.54
21
-72.1214
0
LINE
8
BLACK
6
CONTINUOUS
10
150.54
20
-72.1214
11
150.429
21
-72.01
0
LINE
8
BLACK
6
CONTINUOUS
10
150.429
20
-72.01
11
150.341
21
-71.8789
0
LINE
8
BLACK
6
CONTINUOUS
10
150.341
20
-71.8789
11
150.281
21
-71.7334
0
LINE
8
BLACK
6
CONTINUOUS
10
150.281
20
-71.7334
11
150.25
21
-71.5788
0
LINE
8
BLACK
6
CONTINUOUS
10
150.25
20
-71.5788
11
150.25
21
-71.4212
0
LINE
8
BLACK
6
CONTINUOUS
10
150.25
20
-71.4212
11
150.281
21
-71.2666
0
LINE
8
BLACK
6
CONTINUOUS
10
150.281
20
-71.2666
11
150.341
21
-71.1211
0
LINE
8
BLACK
6
CONTINUOUS
10
150.341
20
-71.1211
11
150.429
21
-70.99
0
LINE
8
BLACK
6
CONTINUOUS
10
150.429
20
-70.99
11
150.54
21
-70.8786
0
LINE
8
BLACK
6
CONTINUOUS
10
150.54
20
-70.8786
11
150.671
21
-70.791
0
LINE
8
BLACK
6
CONTINUOUS
10
150.671
20
-70.791
11
150.817
21
-70.7307
0
LINE
8
BLACK
6
CONTINUOUS
10
150.817
20
-70.7307
11
150.971
21
-70.7
0
LINE
8
BLACK
6
CONTINUOUS
10
150.971
20
-70.7
11
151.129
21
-70.7
0
LINE
8
BLACK
6
CONTINUOUS
10
151.129
20
-70.7
11
151.283
21
-70.7307
0
LINE
8
BLACK
6
CONTINUOUS
10
158.35
20
-71.2
11
156.75
21
-71.2
0
LINE
8
BLACK
6
CONTINUOUS
10
156.75
20
-71.2
11
156.75
21
-69.6
0
LINE
8
BLACK
6
CONTINUOUS
10
156.75
20
-69.6
11
158.35
21
-69.6
0
LINE
8
BLACK
6
CONTINUOUS
10
158.35
20
-69.6
11
158.35
21
-71.2
0
LINE
8
BLACK
6
CONTINUOUS
10
146.549
20
-69.3048
11
146.596
21
-69.319
0
LINE
8
BLACK
6
CONTINUOUS
10
146.596
20
-69.319
11
146.639
21
-69.3421
0
LINE
8
BLACK
6
CONTINUOUS
10
146.639
20
-69.3421
11
146.677
21
-69.3732
0
LINE
8
BLACK
6
CONTINUOUS
10
146.677
20
-69.3732
11
146.708
21
-69.4111
0
LINE
8
BLACK
6
CONTINUOUS
10
146.708
20
-69.4111
11
146.731
21
-69.4543
0
LINE
8
BLACK
6
CONTINUOUS
10
146.731
20
-69.4543
11
146.745
21
-69.5012
0
LINE
8
BLACK
6
CONTINUOUS
10
146.745
20
-69.5012
11
146.75
21
-69.55
0
LINE
8
BLACK
6
CONTINUOUS
10
146.75
20
-69.55
11
146.75
21
-70.75
0
LINE
8
BLACK
6
CONTINUOUS
10
146.75
20
-70.75
11
146.745
21
-70.7988
0
LINE
8
BLACK
6
CONTINUOUS
10
146.745
20
-70.7988
11
146.731
21
-70.8457
0
LINE
8
BLACK
6
CONTINUOUS
10
146.731
20
-70.8457
11
146.708
21
-70.8889
0
LINE
8
BLACK
6
CONTINUOUS
10
146.708
20
-70.8889
11
146.677
21
-70.9268
0
LINE
8
BLACK
6
CONTINUOUS
10
146.677
20
-70.9268
11
146.639
21
-70.9579
0
LINE
8
BLACK
6
CONTINUOUS
10
146.639
20
-70.9579
11
146.596
21
-70.981
0
LINE
8
BLACK
6
CONTINUOUS
10
146.596
20
-70.981
11
146.549
21
-70.9952
0
LINE
8
BLACK
6
CONTINUOUS
10
146.549
20
-70.9952
11
146.5
21
-71
0
LINE
8
BLACK
6
CONTINUOUS
10
146.5
20
-71
11
145
21
-71
0
LINE
8
BLACK
6
CONTINUOUS
10
145
20
-71
11
144.951
21
-70.9952
0
LINE
8
BLACK
6
CONTINUOUS
10
144.951
20
-70.9952
11
144.904
21
-70.981
0
LINE
8
BLACK
6
CONTINUOUS
10
144.904
20
-70.981
11
144.861
21
-70.9579
0
LINE
8
BLACK
6
CONTINUOUS
10
144.861
20
-70.9579
11
144.823
21
-70.9268
0
LINE
8
BLACK
6
CONTINUOUS
10
144.823
20
-70.9268
11
144.792
21
-70.8889
0
LINE
8
BLACK
6
CONTINUOUS
10
144.792
20
-70.8889
11
144.769
21
-70.8457
0
LINE
8
BLACK
6
CONTINUOUS
10
144.769
20
-70.8457
11
144.755
21
-70.7988
0
LINE
8
BLACK
6
CONTINUOUS
10
144.755
20
-70.7988
11
144.75
21
-70.75
0
LINE
8
BLACK
6
CONTINUOUS
10
144.75
20
-70.75
11
144.75
21
-69.55
0
LINE
8
BLACK
6
CONTINUOUS
10
144.75
20
-69.55
11
144.755
21
-69.5012
0
LINE
8
BLACK
6
CONTINUOUS
10
144.755
20
-69.5012
11
144.769
21
-69.4543
0
LINE
8
BLACK
6
CONTINUOUS
10
144.769
20
-69.4543
11
144.792
21
-69.4111
0
LINE
8
BLACK
6
CONTINUOUS
10
144.792
20
-69.4111
11
144.823
21
-69.3732
0
LINE
8
BLACK
6
CONTINUOUS
10
144.823
20
-69.3732
11
144.861
21
-69.3421
0
LINE
8
BLACK
6
CONTINUOUS
10
144.861
20
-69.3421
11
144.904
21
-69.319
0
LINE
8
BLACK
6
CONTINUOUS
10
144.904
20
-69.319
11
144.951
21
-69.3048
0
LINE
8
BLACK
6
CONTINUOUS
10
144.951
20
-69.3048
11
145
21
-69.3
0
LINE
8
BLACK
6
CONTINUOUS
10
145
20
-69.3
11
146.5
21
-69.3
0
LINE
8
BLACK
6
CONTINUOUS
10
146.5
20
-69.3
11
146.549
21
-69.3048
0
LINE
8
BLACK
6
CONTINUOUS
10
146.067
20
-66.8123
11
146.227
21
-66.8609
0
LINE
8
BLACK
6
CONTINUOUS
10
146.227
20
-66.8609
11
146.375
21
-66.9398
0
LINE
8
BLACK
6
CONTINUOUS
10
146.375
20
-66.9398
11
146.504
21
-67.0461
0
LINE
8
BLACK
6
CONTINUOUS
10
146.504
20
-67.0461
11
146.61
21
-67.1755
0
LINE
8
BLACK
6
CONTINUOUS
10
146.61
20
-67.1755
11
146.689
21
-67.3231
0
LINE
8
BLACK
6
CONTINUOUS
10
146.689
20
-67.3231
11
146.738
21
-67.4834
0
LINE
8
BLACK
6
CONTINUOUS
10
146.738
20
-67.4834
11
146.754
21
-67.65
0
LINE
8
BLACK
6
CONTINUOUS
10
146.754
20
-67.65
11
146.738
21
-67.8166
0
LINE
8
BLACK
6
CONTINUOUS
10
146.738
20
-67.8166
11
146.689
21
-67.9769
0
LINE
8
BLACK
6
CONTINUOUS
10
146.689
20
-67.9769
11
146.61
21
-68.1245
0
LINE
8
BLACK
6
CONTINUOUS
10
146.61
20
-68.1245
11
146.504
21
-68.2539
0
LINE
8
BLACK
6
CONTINUOUS
10
146.504
20
-68.2539
11
146.375
21
-68.3602
0
LINE
8
BLACK
6
CONTINUOUS
10
146.375
20
-68.3602
11
146.227
21
-68.4391
0
LINE
8
BLACK
6
CONTINUOUS
10
146.227
20
-68.4391
11
146.067
21
-68.4877
0
LINE
8
BLACK
6
CONTINUOUS
10
146.067
20
-68.4877
11
145.942
21
-68.5
0
LINE
8
BLACK
6
CONTINUOUS
10
145.942
20
-68.5
11
145.558
21
-68.5
0
LINE
8
BLACK
6
CONTINUOUS
10
145.558
20
-68.5
11
145.433
21
-68.4877
0
LINE
8
BLACK
6
CONTINUOUS
10
145.433
20
-68.4877
11
145.273
21
-68.4391
0
LINE
8
BLACK
6
CONTINUOUS
10
145.273
20
-68.4391
11
145.125
21
-68.3602
0
LINE
8
BLACK
6
CONTINUOUS
10
145.125
20
-68.3602
11
144.996
21
-68.2539
0
LINE
8
BLACK
6
CONTINUOUS
10
144.996
20
-68.2539
11
144.89
21
-68.1245
0
LINE
8
BLACK
6
CONTINUOUS
10
144.89
20
-68.1245
11
144.811
21
-67.9769
0
LINE
8
BLACK
6
CONTINUOUS
10
144.811
20
-67.9769
11
144.762
21
-67.8166
0
LINE
8
BLACK
6
CONTINUOUS
10
144.762
20
-67.8166
11
144.746
21
-67.65
0
LINE
8
BLACK
6
CONTINUOUS
10
144.746
20
-67.65
11
144.762
21
-67.4834
0
LINE
8
BLACK
6
CONTINUOUS
10
144.762
20
-67.4834
11
144.811
21
-67.3231
0
LINE
8
BLACK
6
CONTINUOUS
10
144.811
20
-67.3231
11
144.89
21
-67.1755
0
LINE
8
BLACK
6
CONTINUOUS
10
144.89
20
-67.1755
11
144.996
21
-67.0461
0
LINE
8
BLACK
6
CONTINUOUS
10
144.996
20
-67.0461
11
145.125
21
-66.9398
0
LINE
8
BLACK
6
CONTINUOUS
10
145.125
20
-66.9398
11
145.273
21
-66.8609
0
LINE
8
BLACK
6
CONTINUOUS
10
145.273
20
-66.8609
11
145.433
21
-66.8123
0
LINE
8
BLACK
6
CONTINUOUS
10
145.433
20
-66.8123
11
145.558
21
-66.8
0
LINE
8
BLACK
6
CONTINUOUS
10
145.558
20
-66.8
11
145.942
21
-66.8
0
LINE
8
BLACK
6
CONTINUOUS
10
145.942
20
-66.8
11
146.067
21
-66.8123
0
LINE
8
BLACK
6
CONTINUOUS
10
169.3
20
-67.75
11
167.5
21
-67.75
0
LINE
8
BLACK
6
CONTINUOUS
10
167.5
20
-67.75
11
167.5
21
-65.95
0
LINE
8
BLACK
6
CONTINUOUS
10
167.5
20
-65.95
11
169.3
21
-65.95
0
LINE
8
BLACK
6
CONTINUOUS
10
169.3
20
-65.95
11
169.3
21
-67.75
0
LINE
8
BLACK
6
CONTINUOUS
10
157.783
20
-66.1307
11
157.929
21
-66.191
0
LINE
8
BLACK
6
CONTINUOUS
10
157.929
20
-66.191
11
158.06
21
-66.2786
0
LINE
8
BLACK
6
CONTINUOUS
10
158.06
20
-66.2786
11
158.171
21
-66.39
0
LINE
8
BLACK
6
CONTINUOUS
10
158.171
20
-66.39
11
158.259
21
-66.5211
0
LINE
8
BLACK
6
CONTINUOUS
10
158.259
20
-66.5211
11
158.319
21
-66.6666
0
LINE
8
BLACK
6
CONTINUOUS
10
158.319
20
-66.6666
11
158.35
21
-66.8212
0
LINE
8
BLACK
6
CONTINUOUS
10
158.35
20
-66.8212
11
158.35
21
-66.9788
0
LINE
8
BLACK
6
CONTINUOUS
10
158.35
20
-66.9788
11
158.319
21
-67.1334
0
LINE
8
BLACK
6
CONTINUOUS
10
158.319
20
-67.1334
11
158.259
21
-67.2789
0
LINE
8
BLACK
6
CONTINUOUS
10
158.259
20
-67.2789
11
158.171
21
-67.41
0
LINE
8
BLACK
6
CONTINUOUS
10
158.171
20
-67.41
11
158.06
21
-67.5214
0
LINE
8
BLACK
6
CONTINUOUS
10
158.06
20
-67.5214
11
157.929
21
-67.609
0
LINE
8
BLACK
6
CONTINUOUS
10
157.929
20
-67.609
11
157.783
21
-67.6693
0
LINE
8
BLACK
6
CONTINUOUS
10
157.783
20
-67.6693
11
157.629
21
-67.7
0
LINE
8
BLACK
6
CONTINUOUS
10
157.629
20
-67.7
11
157.471
21
-67.7
0
LINE
8
BLACK
6
CONTINUOUS
10
157.471
20
-67.7
11
157.317
21
-67.6693
0
LINE
8
BLACK
6
CONTINUOUS
10
157.317
20
-67.6693
11
157.171
21
-67.609
0
LINE
8
BLACK
6
CONTINUOUS
10
157.171
20
-67.609
11
157.04
21
-67.5214
0
LINE
8
BLACK
6
CONTINUOUS
10
157.04
20
-67.5214
11
156.929
21
-67.41
0
LINE
8
BLACK
6
CONTINUOUS
10
156.929
20
-67.41
11
156.841
21
-67.2789
0
LINE
8
BLACK
6
CONTINUOUS
10
156.841
20
-67.2789
11
156.781
21
-67.1334
0
LINE
8
BLACK
6
CONTINUOUS
10
156.781
20
-67.1334
11
156.75
21
-66.9788
0
LINE
8
BLACK
6
CONTINUOUS
10
156.75
20
-66.9788
11
156.75
21
-66.8212
0
LINE
8
BLACK
6
CONTINUOUS
10
156.75
20
-66.8212
11
156.781
21
-66.6666
0
LINE
8
BLACK
6
CONTINUOUS
10
156.781
20
-66.6666
11
156.841
21
-66.5211
0
LINE
8
BLACK
6
CONTINUOUS
10
156.841
20
-66.5211
11
156.929
21
-66.39
0
LINE
8
BLACK
6
CONTINUOUS
10
156.929
20
-66.39
11
157.04
21
-66.2786
0
LINE
8
BLACK
6
CONTINUOUS
10
157.04
20
-66.2786
11
157.171
21
-66.191
0
LINE
8
BLACK
6
CONTINUOUS
10
157.171
20
-66.191
11
157.317
21
-66.1307
0
LINE
8
BLACK
6
CONTINUOUS
10
157.317
20
-66.1307
11
157.471
21
-66.1
0
LINE
8
BLACK
6
CONTINUOUS
10
157.471
20
-66.1
11
157.629
21
-66.1
0
LINE
8
BLACK
6
CONTINUOUS
10
157.629
20
-66.1
11
157.783
21
-66.1307
0
LINE
8
BLACK
6
CONTINUOUS
10
151.283
20
-65.7307
11
151.429
21
-65.791
0
LINE
8
BLACK
6
CONTINUOUS
10
151.429
20
-65.791
11
151.56
21
-65.8786
0
LINE
8
BLACK
6
CONTINUOUS
10
151.56
20
-65.8786
11
151.671
21
-65.99
0
LINE
8
BLACK
6
CONTINUOUS
10
151.671
20
-65.99
11
151.759
21
-66.1211
0
LINE
8
BLACK
6
CONTINUOUS
10
151.759
20
-66.1211
11
151.819
21
-66.2666
0
LINE
8
BLACK
6
CONTINUOUS
10
151.819
20
-66.2666
11
151.85
21
-66.4212
0
LINE
8
BLACK
6
CONTINUOUS
10
151.85
20
-66.4212
11
151.85
21
-66.5788
0
LINE
8
BLACK
6
CONTINUOUS
10
151.85
20
-66.5788
11
151.819
21
-66.7334
0
LINE
8
BLACK
6
CONTINUOUS
10
151.819
20
-66.7334
11
151.759
21
-66.8789
0
LINE
8
BLACK
6
CONTINUOUS
10
151.759
20
-66.8789
11
151.671
21
-67.01
0
LINE
8
BLACK
6
CONTINUOUS
10
151.671
20
-67.01
11
151.56
21
-67.1214
0
LINE
8
BLACK
6
CONTINUOUS
10
151.56
20
-67.1214
11
151.429
21
-67.209
0
LINE
8
BLACK
6
CONTINUOUS
10
151.429
20
-67.209
11
151.283
21
-67.2693
0
LINE
8
BLACK
6
CONTINUOUS
10
151.283
20
-67.2693
11
151.129
21
-67.3
0
LINE
8
BLACK
6
CONTINUOUS
10
151.129
20
-67.3
11
150.971
21
-67.3
0
LINE
8
BLACK
6
CONTINUOUS
10
150.971
20
-67.3
11
150.817
21
-67.2693
0
LINE
8
BLACK
6
CONTINUOUS
10
150.817
20
-67.2693
11
150.671
21
-67.209
0
LINE
8
BLACK
6
CONTINUOUS
10
150.671
20
-67.209
11
150.54
21
-67.1214
0
LINE
8
BLACK
6
CONTINUOUS
10
150.54
20
-67.1214
11
150.429
21
-67.01
0
LINE
8
BLACK
6
CONTINUOUS
10
150.429
20
-67.01
11
150.341
21
-66.8789
0
LINE
8
BLACK
6
CONTINUOUS
10
150.341
20
-66.8789
11
150.281
21
-66.7334
0
LINE
8
BLACK
6
CONTINUOUS
10
150.281
20
-66.7334
11
150.25
21
-66.5788
0
LINE
8
BLACK
6
CONTINUOUS
10
150.25
20
-66.5788
11
150.25
21
-66.4212
0
LINE
8
BLACK
6
CONTINUOUS
10
150.25
20
-66.4212
11
150.281
21
-66.2666
0
LINE
8
BLACK
6
CONTINUOUS
10
150.281
20
-66.2666
11
150.341
21
-66.1211
0
LINE
8
BLACK
6
CONTINUOUS
10
150.341
20
-66.1211
11
150.429
21
-65.99
0
LINE
8
BLACK
6
CONTINUOUS
10
150.429
20
-65.99
11
150.54
21
-65.8786
0
LINE
8
BLACK
6
CONTINUOUS
10
150.54
20
-65.8786
11
150.671
21
-65.791
0
LINE
8
BLACK
6
CONTINUOUS
10
150.671
20
-65.791
11
150.817
21
-65.7307
0
LINE
8
BLACK
6
CONTINUOUS
10
150.817
20
-65.7307
11
150.971
21
-65.7
0
LINE
8
BLACK
6
CONTINUOUS
10
150.971
20
-65.7
11
151.129
21
-65.7
0
LINE
8
BLACK
6
CONTINUOUS
10
151.129
20
-65.7
11
151.283
21
-65.7307
0
LINE
8
BLACK
6
CONTINUOUS
10
168.663
20
-63.4446
11
168.826
21
-63.5124
0
LINE
8
BLACK
6
CONTINUOUS
10
168.826
20
-63.5124
11
168.974
21
-63.6109
0
LINE
8
BLACK
6
CONTINUOUS
10
168.974
20
-63.6109
11
169.099
21
-63.7363
0
LINE
8
BLACK
6
CONTINUOUS
10
169.099
20
-63.7363
11
169.198
21
-63.8837
0
LINE
8
BLACK
6
CONTINUOUS
10
169.198
20
-63.8837
11
169.265
21
-64.0475
0
LINE
8
BLACK
6
CONTINUOUS
10
169.265
20
-64.0475
11
169.3
21
-64.2214
0
LINE
8
BLACK
6
CONTINUOUS
10
169.3
20
-64.2214
11
169.3
21
-64.3986
0
LINE
8
BLACK
6
CONTINUOUS
10
169.3
20
-64.3986
11
169.265
21
-64.5725
0
LINE
8
BLACK
6
CONTINUOUS
10
169.265
20
-64.5725
11
169.198
21
-64.7363
0
LINE
8
BLACK
6
CONTINUOUS
10
169.198
20
-64.7363
11
169.099
21
-64.8837
0
LINE
8
BLACK
6
CONTINUOUS
10
169.099
20
-64.8837
11
168.974
21
-65.0091
0
LINE
8
BLACK
6
CONTINUOUS
10
168.974
20
-65.0091
11
168.826
21
-65.1076
0
LINE
8
BLACK
6
CONTINUOUS
10
168.826
20
-65.1076
11
168.663
21
-65.1754
0
LINE
8
BLACK
6
CONTINUOUS
10
168.663
20
-65.1754
11
168.489
21
-65.21
0
LINE
8
BLACK
6
CONTINUOUS
10
168.489
20
-65.21
11
168.311
21
-65.21
0
LINE
8
BLACK
6
CONTINUOUS
10
168.311
20
-65.21
11
168.137
21
-65.1754
0
LINE
8
BLACK
6
CONTINUOUS
10
168.137
20
-65.1754
11
167.974
21
-65.1076
0
LINE
8
BLACK
6
CONTINUOUS
10
167.974
20
-65.1076
11
167.826
21
-65.0091
0
LINE
8
BLACK
6
CONTINUOUS
10
167.826
20
-65.0091
11
167.701
21
-64.8837
0
LINE
8
BLACK
6
CONTINUOUS
10
167.701
20
-64.8837
11
167.602
21
-64.7363
0
LINE
8
BLACK
6
CONTINUOUS
10
167.602
20
-64.7363
11
167.535
21
-64.5725
0
LINE
8
BLACK
6
CONTINUOUS
10
167.535
20
-64.5725
11
167.5
21
-64.3986
0
LINE
8
BLACK
6
CONTINUOUS
10
167.5
20
-64.3986
11
167.5
21
-64.2214
0
LINE
8
BLACK
6
CONTINUOUS
10
167.5
20
-64.2214
11
167.535
21
-64.0475
0
LINE
8
BLACK
6
CONTINUOUS
10
167.535
20
-64.0475
11
167.602
21
-63.8837
0
LINE
8
BLACK
6
CONTINUOUS
10
167.602
20
-63.8837
11
167.701
21
-63.7363
0
LINE
8
BLACK
6
CONTINUOUS
10
167.701
20
-63.7363
11
167.826
21
-63.6109
0
LINE
8
BLACK
6
CONTINUOUS
10
167.826
20
-63.6109
11
167.974
21
-63.5124
0
LINE
8
BLACK
6
CONTINUOUS
10
167.974
20
-63.5124
11
168.137
21
-63.4446
0
LINE
8
BLACK
6
CONTINUOUS
10
168.137
20
-63.4446
11
168.311
21
-63.41
0
LINE
8
BLACK
6
CONTINUOUS
10
168.311
20
-63.41
11
168.489
21
-63.41
0
LINE
8
BLACK
6
CONTINUOUS
10
168.489
20
-63.41
11
168.663
21
-63.4446
0
LINE
8
BLACK
6
CONTINUOUS
10
164.233
20
-63.4607
11
164.379
21
-63.521
0
LINE
8
BLACK
6
CONTINUOUS
10
164.379
20
-63.521
11
164.51
21
-63.6086
0
LINE
8
BLACK
6
CONTINUOUS
10
164.51
20
-63.6086
11
164.621
21
-63.72
0
LINE
8
BLACK
6
CONTINUOUS
10
164.621
20
-63.72
11
164.709
21
-63.8511
0
LINE
8
BLACK
6
CONTINUOUS
10
164.709
20
-63.8511
11
164.769
21
-63.9966
0
LINE
8
BLACK
6
CONTINUOUS
10
164.769
20
-63.9966
11
164.8
21
-64.1512
0
LINE
8
BLACK
6
CONTINUOUS
10
164.8
20
-64.1512
11
164.8
21
-64.3088
0
LINE
8
BLACK
6
CONTINUOUS
10
164.8
20
-64.3088
11
164.769
21
-64.4634
0
LINE
8
BLACK
6
CONTINUOUS
10
164.769
20
-64.4634
11
164.709
21
-64.6089
0
LINE
8
BLACK
6
CONTINUOUS
10
164.709
20
-64.6089
11
164.621
21
-64.74
0
LINE
8
BLACK
6
CONTINUOUS
10
164.621
20
-64.74
11
164.51
21
-64.8514
0
LINE
8
BLACK
6
CONTINUOUS
10
164.51
20
-64.8514
11
164.379
21
-64.939
0
LINE
8
BLACK
6
CONTINUOUS
10
164.379
20
-64.939
11
164.233
21
-64.9993
0
LINE
8
BLACK
6
CONTINUOUS
10
164.233
20
-64.9993
11
164.079
21
-65.03
0
LINE
8
BLACK
6
CONTINUOUS
10
164.079
20
-65.03
11
163.921
21
-65.03
0
LINE
8
BLACK
6
CONTINUOUS
10
163.921
20
-65.03
11
163.767
21
-64.9993
0
LINE
8
BLACK
6
CONTINUOUS
10
163.767
20
-64.9993
11
163.621
21
-64.939
0
LINE
8
BLACK
6
CONTINUOUS
10
163.621
20
-64.939
11
163.49
21
-64.8514
0
LINE
8
BLACK
6
CONTINUOUS
10
163.49
20
-64.8514
11
163.379
21
-64.74
0
LINE
8
BLACK
6
CONTINUOUS
10
163.379
20
-64.74
11
163.291
21
-64.6089
0
LINE
8
BLACK
6
CONTINUOUS
10
163.291
20
-64.6089
11
163.231
21
-64.4634
0
LINE
8
BLACK
6
CONTINUOUS
10
163.231
20
-64.4634
11
163.2
21
-64.3088
0
LINE
8
BLACK
6
CONTINUOUS
10
163.2
20
-64.3088
11
163.2
21
-64.1512
0
LINE
8
BLACK
6
CONTINUOUS
10
163.2
20
-64.1512
11
163.231
21
-63.9966
0
LINE
8
BLACK
6
CONTINUOUS
10
163.231
20
-63.9966
11
163.291
21
-63.8511
0
LINE
8
BLACK
6
CONTINUOUS
10
163.291
20
-63.8511
11
163.379
21
-63.72
0
LINE
8
BLACK
6
CONTINUOUS
10
163.379
20
-63.72
11
163.49
21
-63.6086
0
LINE
8
BLACK
6
CONTINUOUS
10
163.49
20
-63.6086
11
163.621
21
-63.521
0
LINE
8
BLACK
6
CONTINUOUS
10
163.621
20
-63.521
11
163.767
21
-63.4607
0
LINE
8
BLACK
6
CONTINUOUS
10
163.767
20
-63.4607
11
163.921
21
-63.43
0
LINE
8
BLACK
6
CONTINUOUS
10
163.921
20
-63.43
11
164.079
21
-63.43
0
LINE
8
BLACK
6
CONTINUOUS
10
164.079
20
-63.43
11
164.233
21
-63.4607
0
CIRCLE
8
BLACK
10
171.069
20
-86.313
40
0.475
0
CIRCLE
8
BLACK
10
171.069
20
-88.813
40
0.475
0
CIRCLE
8
BLACK
10
171.069
20
-91.313
40
0.475
0
CIRCLE
8
BLACK
10
156.3
20
-75.05
40
0.4
0
CIRCLE
8
BLACK
10
163.92
20
-75.05
40
0.4
0
CIRCLE
8
BLACK
10
157.55
20
-70.4
40
0.4
0
CIRCLE
8
BLACK
10
157.55
20
-66.9
40
0.4
0
CIRCLE
8
BLACK
10
151.05
20
-71.5
40
0.4
0
CIRCLE
8
BLACK
10
151.05
20
-66.5
40
0.4
0
CIRCLE
8
BLACK
10
168.4
20
-66.85
40
0.45
0
CIRCLE
8
BLACK
10
168.4
20
-64.31
40
0.45
0
CIRCLE
8
BLACK
10
145.288
20
-95.123
40
0.475
0
CIRCLE
8
BLACK
10
147.788
20
-95.123
40
0.475
0
CIRCLE
8
BLACK
10
150.288
20
-95.123
40
0.475
0
CIRCLE
8
BLACK
10
169.4
20
-80.15
40
0.5
0
CIRCLE
8
BLACK
10
171.94
20
-80.15
40
0.5
0
CIRCLE
8
BLACK
10
169.4
20
-77.61
40
0.5
0
CIRCLE
8
BLACK
10
171.94
20
-77.61
40
0.5
0
CIRCLE
8
BLACK
10
169.4
20
-75.07
40
0.5
0
CIRCLE
8
BLACK
10
171.94
20
-75.07
40
0.5
0
CIRCLE
8
BLACK
10
144.9
20
-78.95
40
0.475
0
CIRCLE
8
BLACK
10
144.9
20
-81.45
40
0.475
0
CIRCLE
8
BLACK
10
144.9
20
-83.95
40
0.475
0
CIRCLE
8
BLACK
10
144.9
20
-86.45
40
0.475
0
CIRCLE
8
BLACK
10
145.75
20
-70.15
40
0.5
0
CIRCLE
8
BLACK
10
145.75
20
-67.65
40
0.5
0
CIRCLE
8
BLACK
10
164.3
20
-96.45
40
0.5
0
CIRCLE
8
BLACK
10
156.7
20
-96.45
40
0.5
0
CIRCLE
8
BLACK
10
156.33
20
-87.8
40
0.4
0
CIRCLE
8
BLACK
10
163.95
20
-87.8
40
0.4
0
CIRCLE
8
BLACK
10
164
20
-64.23
40
0.4
0
CIRCLE
8
BLACK
10
164
20
-71.85
40
0.4
0
CIRCLE
8
BLACK
10
154.94
20
-79.502
40
0.2
0
CIRCLE
8
BLACK
10
154.94
20
-80.772
40
0.2
0
CIRCLE
8
BLACK
10
154.94
20
-82.042
40
0.2
0
CIRCLE
8
BLACK
10
154.94
20
-83.312
40
0.2
0
CIRCLE
8
BLACK
10
164.846
20
-79.502
40
0.2
0
CIRCLE
8
BLACK
10
164.846
20
-80.772
40
0.2
0
CIRCLE
8
BLACK
10
164.846
20
-82.042
40
0.2
0
CIRCLE
8
BLACK
10
164.846
20
-83.312
40
0.2
  0
ENDSEC
  0
EOF
