<?xml version="1.0" standalone="no"?>
 <!DOCTYPE svg PUBLIC "-//W3C//DTD SVG 1.1//EN" 
 "http://www.w3.org/Graphics/SVG/1.1/DTD/svg11.dtd"> 
<svg
  xmlns:svg="http://www.w3.org/2000/svg"
  xmlns="http://www.w3.org/2000/svg"
  xmlns:xlink="http://www.w3.org/1999/xlink"
  version="1.1"
  width="2.679700cm" height="3.507740cm" viewBox="0 0 10550 13810">
<title>SVG Picture created as EEC_Project-brd.svg date 2021/01/15 01:00:41 </title>
  <desc>Picture generated by PCBNEW </desc>
<g style="fill:#000000; fill-opacity:1;stroke:#000000; stroke-opacity:1;
stroke-linecap:round; stroke-linejoin:round;"
 transform="translate(0 0) scale(1 1)">
</g>
<g style="fill:#000000; fill-opacity:0.0; 
stroke:#000000; stroke-width:-0.000393701; stroke-opacity:1; 
stroke-linecap:round; stroke-linejoin:round;">
<g >
</g>
<g style="fill:#000000; fill-opacity:1.0; 
stroke:#000000; stroke-width:0; stroke-opacity:1; 
stroke-linecap:round; stroke-linejoin:round;">
<circle cx="1131.3" cy="12298" r="354.331" /> 
</g>
<g style="fill:#000000; fill-opacity:1.0; 
stroke:#000000; stroke-width:39.3701; stroke-opacity:1; 
stroke-linecap:round; stroke-linejoin:round;">
</g>
<g style="fill:#000000; fill-opacity:1.0; 
stroke:#000000; stroke-width:0; stroke-opacity:1; 
stroke-linecap:round; stroke-linejoin:round;">
<path style="fill:#000000; fill-opacity:1.0; 
stroke:#000000; stroke-width:0; stroke-opacity:1; 
stroke-linecap:round; stroke-linejoin:round;fill-rule:evenodd;"
d="M 2485.63,11943.7
2485.63,12652.4
1776.97,12652.4
1776.97,11943.7
Z" /> 
</g>
<g >
</g>
<g style="fill:#000000; fill-opacity:1.0; 
stroke:#000000; stroke-width:0; stroke-opacity:1; 
stroke-linecap:round; stroke-linejoin:round;">
<circle cx="3031.3" cy="6498.03" r="314.961" /> 
</g>
<g style="fill:#000000; fill-opacity:1.0; 
stroke:#000000; stroke-width:39.3701; stroke-opacity:1; 
stroke-linecap:round; stroke-linejoin:round;">
</g>
<g style="fill:#000000; fill-opacity:1.0; 
stroke:#000000; stroke-width:0; stroke-opacity:1; 
stroke-linecap:round; stroke-linejoin:round;">
<circle cx="6031.3" cy="6498.03" r="314.961" /> 
</g>
<g >
</g>
<g style="fill:#000000; fill-opacity:1.0; 
stroke:#000000; stroke-width:0; stroke-opacity:1; 
stroke-linecap:round; stroke-linejoin:round;">
<path style="fill:#000000; fill-opacity:1.0; 
stroke:#000000; stroke-width:0; stroke-opacity:1; 
stroke-linecap:round; stroke-linejoin:round;fill-rule:evenodd;"
d="M 7696.65,1663.39
8365.94,1663.39
8365.94,2332.68
7696.65,2332.68
Z" /> 
<circle cx="9031.3" cy="1998.03" r="334.646" /> 
</g>
<g >
</g>
<g style="fill:#000000; fill-opacity:1.0; 
stroke:#000000; stroke-width:0; stroke-opacity:1; 
stroke-linecap:round; stroke-linejoin:round;">
<circle cx="7931.3" cy="10798" r="334.646" /> 
<circle cx="8931.3" cy="10798" r="334.646" /> 
<circle cx="7931.3" cy="9798.03" r="334.646" /> 
<circle cx="8931.3" cy="9798.03" r="334.646" /> 
<path style="fill:#000000; fill-opacity:1.0; 
stroke:#000000; stroke-width:0; stroke-opacity:1; 
stroke-linecap:round; stroke-linejoin:round;fill-rule:evenodd;"
d="M 8226.57,8502.76
8226.57,9093.31
7636.02,9093.31
7636.02,8502.76
Z" /> 
<circle cx="8931.3" cy="8798.03" r="334.646" /> 
</g>
<g >
</g>
<g style="fill:#000000; fill-opacity:1.0; 
stroke:#000000; stroke-width:0; stroke-opacity:1; 
stroke-linecap:round; stroke-linejoin:round;">
<circle cx="8331.3" cy="6298.03" r="334.646" /> 
<circle cx="8331.3" cy="5298.03" r="334.646" /> 
<path style="fill:#000000; fill-opacity:1.0; 
stroke:#000000; stroke-width:0; stroke-opacity:1; 
stroke-linecap:round; stroke-linejoin:round;fill-rule:evenodd;"
d="M 8665.94,3963.39
8665.94,4632.68
7996.65,4632.68
7996.65,3963.39
Z" /> 
</g>
<g >
</g>
<g style="fill:#000000; fill-opacity:1.0; 
stroke:#000000; stroke-width:0; stroke-opacity:1; 
stroke-linecap:round; stroke-linejoin:round;">
<circle cx="1531.3" cy="5498.03" r="334.646" /> 
<circle cx="1531.3" cy="4498.03" r="334.646" /> 
<circle cx="1531.3" cy="3498.03" r="334.646" /> 
<path style="fill:#000000; fill-opacity:1.0; 
stroke:#000000; stroke-width:0; stroke-opacity:1; 
stroke-linecap:round; stroke-linejoin:round;fill-rule:evenodd;"
d="M 1865.94,2163.39
1865.94,2832.68
1196.65,2832.68
1196.65,2163.39
Z" /> 
</g>
<g >
</g>
<g style="fill:#000000; fill-opacity:1.0; 
stroke:#000000; stroke-width:0; stroke-opacity:1; 
stroke-linecap:round; stroke-linejoin:round;">
<circle cx="6023.43" cy="9698.03" r="393.701" /> 
</g>
<g style="fill:#000000; fill-opacity:1.0; 
stroke:#000000; stroke-width:39.3701; stroke-opacity:1; 
stroke-linecap:round; stroke-linejoin:round;">
</g>
<g style="fill:#000000; fill-opacity:1.0; 
stroke:#000000; stroke-width:0; stroke-opacity:1; 
stroke-linecap:round; stroke-linejoin:round;">
<path style="fill:#000000; fill-opacity:1.0; 
stroke:#000000; stroke-width:0; stroke-opacity:1; 
stroke-linecap:round; stroke-linejoin:round;fill-rule:evenodd;"
d="M 2637.6,10091.7
2637.6,9304.33
3425,9304.33
3425,10091.7
Z" /> 
</g>
<g >
</g>
<g style="fill:#000000; fill-opacity:1.0; 
stroke:#000000; stroke-width:0; stroke-opacity:1; 
stroke-linecap:round; stroke-linejoin:round;">
<circle cx="5981.3" cy="2498.03" r="314.961" /> 
<circle cx="2981.3" cy="2498.03" r="314.961" /> 
</g>
<g style="fill:#000000; fill-opacity:1.0; 
stroke:#000000; stroke-width:39.3701; stroke-opacity:1; 
stroke-linecap:round; stroke-linejoin:round;">
</g>
<g >
</g>
<g style="fill:#000000; fill-opacity:1.0; 
stroke:#000000; stroke-width:39.3701; stroke-opacity:1; 
stroke-linecap:round; stroke-linejoin:round;">
</g>
<g style="fill:#000000; fill-opacity:1.0; 
stroke:#000000; stroke-width:0; stroke-opacity:1; 
stroke-linecap:round; stroke-linejoin:round;">
<circle cx="1231.3" cy="10498" r="314.961" /> 
<circle cx="1231.3" cy="7498.03" r="314.961" /> 
</g>
<g style="fill:#000000; fill-opacity:1.0; 
stroke:#000000; stroke-width:39.3701; stroke-opacity:1; 
stroke-linecap:round; stroke-linejoin:round;">
</g>
<g >
</g>
<g style="fill:#000000; fill-opacity:1.0; 
stroke:#000000; stroke-width:39.3701; stroke-opacity:1; 
stroke-linecap:round; stroke-linejoin:round;">
</g>
<g style="fill:#000000; fill-opacity:1.0; 
stroke:#000000; stroke-width:0; stroke-opacity:1; 
stroke-linecap:round; stroke-linejoin:round;">
<path style="fill:#000000; fill-opacity:1.0; 
stroke:#000000; stroke-width:0; stroke-opacity:1; 
stroke-linecap:round; stroke-linejoin:round;fill-rule:evenodd;"
d="M 5836.3,3630.21
5842.03,3631.06
5847.65,3632.46
5853.11,3634.42
5858.35,3636.89
5863.32,3639.87
5867.98,3643.33
5872.27,3647.22
5876.16,3651.51
5879.61,3656.17
5882.59,3661.14
5885.07,3666.38
5887.02,3671.83
5888.43,3677.46
5889.28,3683.19
5889.57,3688.98
5889.57,3807.09
5889.28,3812.88
5888.43,3818.61
5887.02,3824.23
5885.07,3829.69
5882.59,3834.93
5879.61,3839.9
5876.16,3844.55
5872.27,3848.84
5867.98,3852.74
5863.32,3856.19
5858.35,3859.17
5853.11,3861.65
5847.65,3863.6
5842.03,3865.01
5836.3,3865.86
5830.51,3866.14
5180.91,3866.14
5175.12,3865.86
5169.38,3865.01
5163.76,3863.6
5158.31,3861.65
5153.07,3859.17
5148.1,3856.19
5143.44,3852.74
5139.15,3848.84
5135.26,3844.55
5131.8,3839.9
5128.82,3834.93
5126.35,3829.69
5124.39,3824.23
5122.99,3818.61
5122.13,3812.88
5121.85,3807.09
5121.85,3688.98
5122.13,3683.19
5122.99,3677.46
5124.39,3671.83
5126.35,3666.38
5128.82,3661.14
5131.8,3656.17
5135.26,3651.51
5139.15,3647.22
5143.44,3643.33
5148.1,3639.87
5153.07,3636.89
5158.31,3634.42
5163.76,3632.46
5169.38,3631.06
5175.12,3630.21
5180.91,3629.92
5830.51,3629.92
Z" /> 
<path style="fill:#000000; fill-opacity:1.0; 
stroke:#000000; stroke-width:0; stroke-opacity:1; 
stroke-linecap:round; stroke-linejoin:round;fill-rule:evenodd;"
d="M 5836.3,4130.21
5842.03,4131.06
5847.65,4132.46
5853.11,4134.42
5858.35,4136.89
5863.32,4139.87
5867.98,4143.33
5872.27,4147.22
5876.16,4151.51
5879.61,4156.17
5882.59,4161.14
5885.07,4166.38
5887.02,4171.83
5888.43,4177.46
5889.28,4183.19
5889.57,4188.98
5889.57,4307.09
5889.28,4312.88
5888.43,4318.61
5887.02,4324.23
5885.07,4329.69
5882.59,4334.93
5879.61,4339.9
5876.16,4344.55
5872.27,4348.84
5867.98,4352.74
5863.32,4356.19
5858.35,4359.17
5853.11,4361.65
5847.65,4363.6
5842.03,4365.01
5836.3,4365.86
5830.51,4366.14
5180.91,4366.14
5175.12,4365.86
5169.38,4365.01
5163.76,4363.6
5158.31,4361.65
5153.07,4359.17
5148.1,4356.19
5143.44,4352.74
5139.15,4348.84
5135.26,4344.55
5131.8,4339.9
5128.82,4334.93
5126.35,4329.69
5124.39,4324.23
5122.99,4318.61
5122.13,4312.88
5121.85,4307.09
5121.85,4188.98
5122.13,4183.19
5122.99,4177.46
5124.39,4171.83
5126.35,4166.38
5128.82,4161.14
5131.8,4156.17
5135.26,4151.51
5139.15,4147.22
5143.44,4143.33
5148.1,4139.87
5153.07,4136.89
5158.31,4134.42
5163.76,4132.46
5169.38,4131.06
5175.12,4130.21
5180.91,4129.92
5830.51,4129.92
Z" /> 
<path style="fill:#000000; fill-opacity:1.0; 
stroke:#000000; stroke-width:0; stroke-opacity:1; 
stroke-linecap:round; stroke-linejoin:round;fill-rule:evenodd;"
d="M 5836.3,4630.21
5842.03,4631.06
5847.65,4632.46
5853.11,4634.42
5858.35,4636.89
5863.32,4639.87
5867.98,4643.33
5872.27,4647.22
5876.16,4651.51
5879.61,4656.17
5882.59,4661.14
5885.07,4666.38
5887.02,4671.83
5888.43,4677.46
5889.28,4683.19
5889.57,4688.98
5889.57,4807.09
5889.28,4812.88
5888.43,4818.61
5887.02,4824.23
5885.07,4829.69
5882.59,4834.93
5879.61,4839.9
5876.16,4844.55
5872.27,4848.84
5867.98,4852.74
5863.32,4856.19
5858.35,4859.17
5853.11,4861.65
5847.65,4863.6
5842.03,4865.01
5836.3,4865.86
5830.51,4866.14
5180.91,4866.14
5175.12,4865.86
5169.38,4865.01
5163.76,4863.6
5158.31,4861.65
5153.07,4859.17
5148.1,4856.19
5143.44,4852.74
5139.15,4848.84
5135.26,4844.55
5131.8,4839.9
5128.82,4834.93
5126.35,4829.69
5124.39,4824.23
5122.99,4818.61
5122.13,4812.88
5121.85,4807.09
5121.85,4688.98
5122.13,4683.19
5122.99,4677.46
5124.39,4671.83
5126.35,4666.38
5128.82,4661.14
5131.8,4656.17
5135.26,4651.51
5139.15,4647.22
5143.44,4643.33
5148.1,4639.87
5153.07,4636.89
5158.31,4634.42
5163.76,4632.46
5169.38,4631.06
5175.12,4630.21
5180.91,4629.92
5830.51,4629.92
Z" /> 
<path style="fill:#000000; fill-opacity:1.0; 
stroke:#000000; stroke-width:0; stroke-opacity:1; 
stroke-linecap:round; stroke-linejoin:round;fill-rule:evenodd;"
d="M 5836.3,5130.21
5842.03,5131.06
5847.65,5132.46
5853.11,5134.42
5858.35,5136.89
5863.32,5139.87
5867.98,5143.33
5872.27,5147.22
5876.16,5151.51
5879.61,5156.17
5882.59,5161.14
5885.07,5166.38
5887.02,5171.83
5888.43,5177.46
5889.28,5183.19
5889.57,5188.98
5889.57,5307.09
5889.28,5312.88
5888.43,5318.61
5887.02,5324.23
5885.07,5329.69
5882.59,5334.93
5879.61,5339.9
5876.16,5344.55
5872.27,5348.84
5867.98,5352.74
5863.32,5356.19
5858.35,5359.17
5853.11,5361.65
5847.65,5363.6
5842.03,5365.01
5836.3,5365.86
5830.51,5366.14
5180.91,5366.14
5175.12,5365.86
5169.38,5365.01
5163.76,5363.6
5158.31,5361.65
5153.07,5359.17
5148.1,5356.19
5143.44,5352.74
5139.15,5348.84
5135.26,5344.55
5131.8,5339.9
5128.82,5334.93
5126.35,5329.69
5124.39,5324.23
5122.99,5318.61
5122.13,5312.88
5121.85,5307.09
5121.85,5188.98
5122.13,5183.19
5122.99,5177.46
5124.39,5171.83
5126.35,5166.38
5128.82,5161.14
5131.8,5156.17
5135.26,5151.51
5139.15,5147.22
5143.44,5143.33
5148.1,5139.87
5153.07,5136.89
5158.31,5134.42
5163.76,5132.46
5169.38,5131.06
5175.12,5130.21
5180.91,5129.92
5830.51,5129.92
Z" /> 
<path style="fill:#000000; fill-opacity:1.0; 
stroke:#000000; stroke-width:0; stroke-opacity:1; 
stroke-linecap:round; stroke-linejoin:round;fill-rule:evenodd;"
d="M 3887.48,5130.21
3893.21,5131.06
3898.84,5132.46
3904.29,5134.42
3909.53,5136.89
3914.5,5139.87
3919.16,5143.33
3923.45,5147.22
3927.34,5151.51
3930.8,5156.17
3933.77,5161.14
3936.25,5166.38
3938.21,5171.83
3939.61,5177.46
3940.46,5183.19
3940.75,5188.98
3940.75,5307.09
3940.46,5312.88
3939.61,5318.61
3938.21,5324.23
3936.25,5329.69
3933.77,5334.93
3930.8,5339.9
3927.34,5344.55
3923.45,5348.84
3919.16,5352.74
3914.5,5356.19
3909.53,5359.17
3904.29,5361.65
3898.84,5363.6
3893.21,5365.01
3887.48,5365.86
3881.69,5366.14
3232.09,5366.14
3226.3,5365.86
3220.57,5365.01
3214.94,5363.6
3209.49,5361.65
3204.25,5359.17
3199.28,5356.19
3194.62,5352.74
3190.33,5348.84
3186.44,5344.55
3182.98,5339.9
3180,5334.93
3177.53,5329.69
3175.57,5324.23
3174.17,5318.61
3173.32,5312.88
3173.03,5307.09
3173.03,5188.98
3173.32,5183.19
3174.17,5177.46
3175.57,5171.83
3177.53,5166.38
3180,5161.14
3182.98,5156.17
3186.44,5151.51
3190.33,5147.22
3194.62,5143.33
3199.28,5139.87
3204.25,5136.89
3209.49,5134.42
3214.94,5132.46
3220.57,5131.06
3226.3,5130.21
3232.09,5129.92
3881.69,5129.92
Z" /> 
<path style="fill:#000000; fill-opacity:1.0; 
stroke:#000000; stroke-width:0; stroke-opacity:1; 
stroke-linecap:round; stroke-linejoin:round;fill-rule:evenodd;"
d="M 3887.48,4630.21
3893.21,4631.06
3898.84,4632.46
3904.29,4634.42
3909.53,4636.89
3914.5,4639.87
3919.16,4643.33
3923.45,4647.22
3927.34,4651.51
3930.8,4656.17
3933.77,4661.14
3936.25,4666.38
3938.21,4671.83
3939.61,4677.46
3940.46,4683.19
3940.75,4688.98
3940.75,4807.09
3940.46,4812.88
3939.61,4818.61
3938.21,4824.23
3936.25,4829.69
3933.77,4834.93
3930.8,4839.9
3927.34,4844.55
3923.45,4848.84
3919.16,4852.74
3914.5,4856.19
3909.53,4859.17
3904.29,4861.65
3898.84,4863.6
3893.21,4865.01
3887.48,4865.86
3881.69,4866.14
3232.09,4866.14
3226.3,4865.86
3220.57,4865.01
3214.94,4863.6
3209.49,4861.65
3204.25,4859.17
3199.28,4856.19
3194.62,4852.74
3190.33,4848.84
3186.44,4844.55
3182.98,4839.9
3180,4834.93
3177.53,4829.69
3175.57,4824.23
3174.17,4818.61
3173.32,4812.88
3173.03,4807.09
3173.03,4688.98
3173.32,4683.19
3174.17,4677.46
3175.57,4671.83
3177.53,4666.38
3180,4661.14
3182.98,4656.17
3186.44,4651.51
3190.33,4647.22
3194.62,4643.33
3199.28,4639.87
3204.25,4636.89
3209.49,4634.42
3214.94,4632.46
3220.57,4631.06
3226.3,4630.21
3232.09,4629.92
3881.69,4629.92
Z" /> 
<path style="fill:#000000; fill-opacity:1.0; 
stroke:#000000; stroke-width:0; stroke-opacity:1; 
stroke-linecap:round; stroke-linejoin:round;fill-rule:evenodd;"
d="M 3887.48,4130.21
3893.21,4131.06
3898.84,4132.46
3904.29,4134.42
3909.53,4136.89
3914.5,4139.87
3919.16,4143.33
3923.45,4147.22
3927.34,4151.51
3930.8,4156.17
3933.77,4161.14
3936.25,4166.38
3938.21,4171.83
3939.61,4177.46
3940.46,4183.19
3940.75,4188.98
3940.75,4307.09
3940.46,4312.88
3939.61,4318.61
3938.21,4324.23
3936.25,4329.69
3933.77,4334.93
3930.8,4339.9
3927.34,4344.55
3923.45,4348.84
3919.16,4352.74
3914.5,4356.19
3909.53,4359.17
3904.29,4361.65
3898.84,4363.6
3893.21,4365.01
3887.48,4365.86
3881.69,4366.14
3232.09,4366.14
3226.3,4365.86
3220.57,4365.01
3214.94,4363.6
3209.49,4361.65
3204.25,4359.17
3199.28,4356.19
3194.62,4352.74
3190.33,4348.84
3186.44,4344.55
3182.98,4339.9
3180,4334.93
3177.53,4329.69
3175.57,4324.23
3174.17,4318.61
3173.32,4312.88
3173.03,4307.09
3173.03,4188.98
3173.32,4183.19
3174.17,4177.46
3175.57,4171.83
3177.53,4166.38
3180,4161.14
3182.98,4156.17
3186.44,4151.51
3190.33,4147.22
3194.62,4143.33
3199.28,4139.87
3204.25,4136.89
3209.49,4134.42
3214.94,4132.46
3220.57,4131.06
3226.3,4130.21
3232.09,4129.92
3881.69,4129.92
Z" /> 
<path style="fill:#000000; fill-opacity:1.0; 
stroke:#000000; stroke-width:0; stroke-opacity:1; 
stroke-linecap:round; stroke-linejoin:round;fill-rule:evenodd;"
d="M 3887.48,3630.21
3893.21,3631.06
3898.84,3632.46
3904.29,3634.42
3909.53,3636.89
3914.5,3639.87
3919.16,3643.33
3923.45,3647.22
3927.34,3651.51
3930.8,3656.17
3933.77,3661.14
3936.25,3666.38
3938.21,3671.83
3939.61,3677.46
3940.46,3683.19
3940.75,3688.98
3940.75,3807.09
3940.46,3812.88
3939.61,3818.61
3938.21,3824.23
3936.25,3829.69
3933.77,3834.93
3930.8,3839.9
3927.34,3844.55
3923.45,3848.84
3919.16,3852.74
3914.5,3856.19
3909.53,3859.17
3904.29,3861.65
3898.84,3863.6
3893.21,3865.01
3887.48,3865.86
3881.69,3866.14
3232.09,3866.14
3226.3,3865.86
3220.57,3865.01
3214.94,3863.6
3209.49,3861.65
3204.25,3859.17
3199.28,3856.19
3194.62,3852.74
3190.33,3848.84
3186.44,3844.55
3182.98,3839.9
3180,3834.93
3177.53,3829.69
3175.57,3824.23
3174.17,3818.61
3173.32,3812.88
3173.03,3807.09
3173.03,3688.98
3173.32,3683.19
3174.17,3677.46
3175.57,3671.83
3177.53,3666.38
3180,3661.14
3182.98,3656.17
3186.44,3651.51
3190.33,3647.22
3194.62,3643.33
3199.28,3639.87
3204.25,3636.89
3209.49,3634.42
3214.94,3632.46
3220.57,3631.06
3226.3,3630.21
3232.09,3629.92
3881.69,3629.92
Z" /> 
</g>
<g >
</g>
<g >
</g>
<g style="fill:#000000; fill-opacity:1.0; 
stroke:#000000; stroke-width:0; stroke-opacity:1; 
stroke-linecap:round; stroke-linejoin:round;">
</g>
<g style="fill:#000000; fill-opacity:1.0; 
stroke:#000000; stroke-width:196.85; stroke-opacity:1; 
stroke-linecap:round; stroke-linejoin:round;">
</g>
<g style="fill:#000000; fill-opacity:0.0; 
stroke:#000000; stroke-width:196.85; stroke-opacity:1; 
stroke-linecap:round; stroke-linejoin:round;">
<path d="M1781 5248
L1531 5498
" />
<path d="M3556 5248
L1781 5248
" />
<path d="M9031 1998
L9031 4998
" />
<path d="M8731 5298
L8331 5298
" />
<path d="M9031 4998
L8731 5298
" />
<path d="M2331 6298
L1531 5498
" />
<path d="M2331 11998
L2331 6298
" />
<path d="M2231 12098
L2331 11998
" />
<path d="M9031 1598
L9031 1998
" />
<path d="M8731 1298
L9031 1598
" />
<path d="M331 1898
L931 1298
" />
<path d="M931 1298
L8731 1298
" />
<path d="M331 12398
L331 1898
" />
<path d="M1531 12898
L831 12898
" />
<path d="M831 12898
L331 12398
" />
<path d="M2231 12198
L1531 12898
" />
<path d="M6531 12198
L2231 12198
" />
<path d="M7931 10798
L6531 12198
" />
<path d="M1231 12198
L1131 12298
" />
<path d="M1231 10498
L1231 12198
" />
<path d="M5031 3748
L5505 3748
" />
<path d="M5031 3748
L4781 3748
" />
<path d="M4781 3748
L4531 3748
" />
<path d="M5981 2498
L4531 2498
" />
<path d="M4531 2498
L3781 1748
" />
<path d="M1531 1748
L1281 1748
" />
<path d="M4505 8180
L4505 2523
" />
<path d="M4505 2523
L4531 2498
" />
<path d="M731 6998
L1231 7498
" />
<path d="M731 2198
L731 6998
" />
<path d="M1181 1748
L731 2198
" />
<path d="M1281 1748
L1181 1748
" />
<path d="M4505 8180
L6023 9698
" />
<path d="M6023 9698
L6923 8798
" />
<path d="M6923 8798
L7931 8798
" />
<path d="M1531 1798
L1581 1748
" />
<path d="M1531 2498
L1531 1798
" />
<path d="M1581 1748
L1281 1748
" />
<path d="M3781 1748
L1581 1748
" />
<path d="M7531 2498
L8031 1998
" />
<path d="M5981 2498
L7531 2498
" />
<path d="M8331 2298
L8031 1998
" />
<path d="M8331 4298
L8331 2298
" />
<path d="M6281 4248
L8031 5998
" />
<path d="M5505 4248
L6281 4248
" />
<path d="M8031 5998
L9531 7498
" />
<path d="M9531 9198
L8931 9798
" />
<path d="M9531 7498
L9531 9198
" />
<path d="M5505 4748
L6081 4748
" />
<path d="M6081 4748
L6231 4898
" />
<path d="M6231 6298
L6031 6498
" />
<path d="M6231 4898
L6231 6298
" />
<path d="M6031 6498
L7131 6498
" />
<path d="M8931 8298
L8931 8798
" />
<path d="M7131 6498
L8931 8298
" />
<path d="M4881 5348
L4881 6237
" />
<path d="M4981 5248
L4881 5348
" />
<path d="M5505 5248
L4981 5248
" />
<path d="M4881 6237
L6541 7898
" />
<path d="M6541 7898
L8031 7898
" />
<path d="M8419 9309
L7931 9798
" />
<path d="M8419 8286
L8419 9309
" />
<path d="M8031 7898
L8419 8286
" />
</g>
<g style="fill:#000000; fill-opacity:0.0; 
stroke:#000000; stroke-width:157.48; stroke-opacity:1; 
stroke-linecap:round; stroke-linejoin:round;">
<path d="M8431 10298
L8931 10798
" />
<path d="M7731 10298
L8431 10298
" />
</g>
<g style="fill:#000000; fill-opacity:0.0; 
stroke:#000000; stroke-width:196.85; stroke-opacity:1; 
stroke-linecap:round; stroke-linejoin:round;">
<path d="M3531 2498
L2981 2498
" />
<path d="M5631 10298
L4117 8784
" />
<path d="M4117 3084
L3531 2498
" />
<path d="M7731 10298
L5631 10298
" />
<path d="M4081 3748
L4117 3784
" />
<path d="M4117 3784
L4117 3084
" />
<path d="M3556 3748
L4081 3748
" />
<path d="M4117 8784
L4117 3784
" />
<path d="M2281 4248
L3556 4248
" />
<path d="M2281 4248
L1531 3498
" />
<path d="M1781 4748
L3556 4748
" />
<path d="M1781 4748
L1531 4498
" />
<path d="M3031 6498
L3031 9698
" />
</g>
<g >
</g>
</g>
<g style="fill:#FFFFFF; fill-opacity:0.0; 
stroke:#FFFFFF; stroke-width:196.85; stroke-opacity:1; 
stroke-linecap:round; stroke-linejoin:round;">
</g>
<g style="fill:#FFFFFF; fill-opacity:1.0; 
stroke:#FFFFFF; stroke-width:0; stroke-opacity:1; 
stroke-linecap:round; stroke-linejoin:round;">
<circle cx="1131.3" cy="12298" r="177.165" /> 
</g>
<g style="fill:#FFFFFF; fill-opacity:1.0; 
stroke:#FFFFFF; stroke-width:39.3701; stroke-opacity:1; 
stroke-linecap:round; stroke-linejoin:round;">
</g>
<g style="fill:#FFFFFF; fill-opacity:1.0; 
stroke:#FFFFFF; stroke-width:0; stroke-opacity:1; 
stroke-linecap:round; stroke-linejoin:round;">
<circle cx="2131.3" cy="12298" r="177.165" /> 
</g>
<g style="fill:#FFFFFF; fill-opacity:1.0; 
stroke:#FFFFFF; stroke-width:39.3701; stroke-opacity:1; 
stroke-linecap:round; stroke-linejoin:round;">
</g>
<g style="fill:#FFFFFF; fill-opacity:1.0; 
stroke:#FFFFFF; stroke-width:0; stroke-opacity:1; 
stroke-linecap:round; stroke-linejoin:round;">
<circle cx="3031.3" cy="6498.03" r="157.48" /> 
</g>
<g style="fill:#FFFFFF; fill-opacity:1.0; 
stroke:#FFFFFF; stroke-width:39.3701; stroke-opacity:1; 
stroke-linecap:round; stroke-linejoin:round;">
</g>
<g style="fill:#FFFFFF; fill-opacity:1.0; 
stroke:#FFFFFF; stroke-width:0; stroke-opacity:1; 
stroke-linecap:round; stroke-linejoin:round;">
<circle cx="6031.3" cy="6498.03" r="157.48" /> 
</g>
<g style="fill:#FFFFFF; fill-opacity:1.0; 
stroke:#FFFFFF; stroke-width:39.3701; stroke-opacity:1; 
stroke-linecap:round; stroke-linejoin:round;">
</g>
<g style="fill:#FFFFFF; fill-opacity:1.0; 
stroke:#FFFFFF; stroke-width:0; stroke-opacity:1; 
stroke-linecap:round; stroke-linejoin:round;">
<circle cx="8031.3" cy="1998.03" r="196.85" /> 
</g>
<g style="fill:#FFFFFF; fill-opacity:1.0; 
stroke:#FFFFFF; stroke-width:39.3701; stroke-opacity:1; 
stroke-linecap:round; stroke-linejoin:round;">
</g>
<g style="fill:#FFFFFF; fill-opacity:1.0; 
stroke:#FFFFFF; stroke-width:0; stroke-opacity:1; 
stroke-linecap:round; stroke-linejoin:round;">
<circle cx="9031.3" cy="1998.03" r="196.85" /> 
</g>
<g style="fill:#FFFFFF; fill-opacity:1.0; 
stroke:#FFFFFF; stroke-width:39.3701; stroke-opacity:1; 
stroke-linecap:round; stroke-linejoin:round;">
</g>
<g style="fill:#FFFFFF; fill-opacity:1.0; 
stroke:#FFFFFF; stroke-width:0; stroke-opacity:1; 
stroke-linecap:round; stroke-linejoin:round;">
<circle cx="7931.3" cy="10798" r="196.85" /> 
</g>
<g style="fill:#FFFFFF; fill-opacity:1.0; 
stroke:#FFFFFF; stroke-width:39.3701; stroke-opacity:1; 
stroke-linecap:round; stroke-linejoin:round;">
</g>
<g style="fill:#FFFFFF; fill-opacity:1.0; 
stroke:#FFFFFF; stroke-width:0; stroke-opacity:1; 
stroke-linecap:round; stroke-linejoin:round;">
<circle cx="8931.3" cy="10798" r="196.85" /> 
</g>
<g style="fill:#FFFFFF; fill-opacity:1.0; 
stroke:#FFFFFF; stroke-width:39.3701; stroke-opacity:1; 
stroke-linecap:round; stroke-linejoin:round;">
</g>
<g style="fill:#FFFFFF; fill-opacity:1.0; 
stroke:#FFFFFF; stroke-width:0; stroke-opacity:1; 
stroke-linecap:round; stroke-linejoin:round;">
<circle cx="7931.3" cy="9798.03" r="196.85" /> 
</g>
<g style="fill:#FFFFFF; fill-opacity:1.0; 
stroke:#FFFFFF; stroke-width:39.3701; stroke-opacity:1; 
stroke-linecap:round; stroke-linejoin:round;">
</g>
<g style="fill:#FFFFFF; fill-opacity:1.0; 
stroke:#FFFFFF; stroke-width:0; stroke-opacity:1; 
stroke-linecap:round; stroke-linejoin:round;">
<circle cx="8931.3" cy="9798.03" r="196.85" /> 
</g>
<g style="fill:#FFFFFF; fill-opacity:1.0; 
stroke:#FFFFFF; stroke-width:39.3701; stroke-opacity:1; 
stroke-linecap:round; stroke-linejoin:round;">
</g>
<g style="fill:#FFFFFF; fill-opacity:1.0; 
stroke:#FFFFFF; stroke-width:0; stroke-opacity:1; 
stroke-linecap:round; stroke-linejoin:round;">
<circle cx="7931.3" cy="8798.03" r="196.85" /> 
</g>
<g style="fill:#FFFFFF; fill-opacity:1.0; 
stroke:#FFFFFF; stroke-width:39.3701; stroke-opacity:1; 
stroke-linecap:round; stroke-linejoin:round;">
</g>
<g style="fill:#FFFFFF; fill-opacity:1.0; 
stroke:#FFFFFF; stroke-width:0; stroke-opacity:1; 
stroke-linecap:round; stroke-linejoin:round;">
<circle cx="8931.3" cy="8798.03" r="196.85" /> 
</g>
<g style="fill:#FFFFFF; fill-opacity:1.0; 
stroke:#FFFFFF; stroke-width:39.3701; stroke-opacity:1; 
stroke-linecap:round; stroke-linejoin:round;">
</g>
<g style="fill:#FFFFFF; fill-opacity:1.0; 
stroke:#FFFFFF; stroke-width:0; stroke-opacity:1; 
stroke-linecap:round; stroke-linejoin:round;">
<circle cx="8331.3" cy="6298.03" r="196.85" /> 
</g>
<g style="fill:#FFFFFF; fill-opacity:1.0; 
stroke:#FFFFFF; stroke-width:39.3701; stroke-opacity:1; 
stroke-linecap:round; stroke-linejoin:round;">
</g>
<g style="fill:#FFFFFF; fill-opacity:1.0; 
stroke:#FFFFFF; stroke-width:0; stroke-opacity:1; 
stroke-linecap:round; stroke-linejoin:round;">
<circle cx="8331.3" cy="5298.03" r="196.85" /> 
</g>
<g style="fill:#FFFFFF; fill-opacity:1.0; 
stroke:#FFFFFF; stroke-width:39.3701; stroke-opacity:1; 
stroke-linecap:round; stroke-linejoin:round;">
</g>
<g style="fill:#FFFFFF; fill-opacity:1.0; 
stroke:#FFFFFF; stroke-width:0; stroke-opacity:1; 
stroke-linecap:round; stroke-linejoin:round;">
<circle cx="8331.3" cy="4298.03" r="196.85" /> 
</g>
<g style="fill:#FFFFFF; fill-opacity:1.0; 
stroke:#FFFFFF; stroke-width:39.3701; stroke-opacity:1; 
stroke-linecap:round; stroke-linejoin:round;">
</g>
<g style="fill:#FFFFFF; fill-opacity:1.0; 
stroke:#FFFFFF; stroke-width:0; stroke-opacity:1; 
stroke-linecap:round; stroke-linejoin:round;">
<circle cx="1531.3" cy="5498.03" r="196.85" /> 
</g>
<g style="fill:#FFFFFF; fill-opacity:1.0; 
stroke:#FFFFFF; stroke-width:39.3701; stroke-opacity:1; 
stroke-linecap:round; stroke-linejoin:round;">
</g>
<g style="fill:#FFFFFF; fill-opacity:1.0; 
stroke:#FFFFFF; stroke-width:0; stroke-opacity:1; 
stroke-linecap:round; stroke-linejoin:round;">
<circle cx="1531.3" cy="4498.03" r="196.85" /> 
</g>
<g style="fill:#FFFFFF; fill-opacity:1.0; 
stroke:#FFFFFF; stroke-width:39.3701; stroke-opacity:1; 
stroke-linecap:round; stroke-linejoin:round;">
</g>
<g style="fill:#FFFFFF; fill-opacity:1.0; 
stroke:#FFFFFF; stroke-width:0; stroke-opacity:1; 
stroke-linecap:round; stroke-linejoin:round;">
<circle cx="1531.3" cy="3498.03" r="196.85" /> 
</g>
<g style="fill:#FFFFFF; fill-opacity:1.0; 
stroke:#FFFFFF; stroke-width:39.3701; stroke-opacity:1; 
stroke-linecap:round; stroke-linejoin:round;">
</g>
<g style="fill:#FFFFFF; fill-opacity:1.0; 
stroke:#FFFFFF; stroke-width:0; stroke-opacity:1; 
stroke-linecap:round; stroke-linejoin:round;">
<circle cx="1531.3" cy="2498.03" r="196.85" /> 
</g>
<g style="fill:#FFFFFF; fill-opacity:1.0; 
stroke:#FFFFFF; stroke-width:39.3701; stroke-opacity:1; 
stroke-linecap:round; stroke-linejoin:round;">
</g>
<g style="fill:#FFFFFF; fill-opacity:1.0; 
stroke:#FFFFFF; stroke-width:0; stroke-opacity:1; 
stroke-linecap:round; stroke-linejoin:round;">
<circle cx="6023.43" cy="9698.03" r="196.85" /> 
</g>
<g style="fill:#FFFFFF; fill-opacity:1.0; 
stroke:#FFFFFF; stroke-width:39.3701; stroke-opacity:1; 
stroke-linecap:round; stroke-linejoin:round;">
</g>
<g style="fill:#FFFFFF; fill-opacity:1.0; 
stroke:#FFFFFF; stroke-width:0; stroke-opacity:1; 
stroke-linecap:round; stroke-linejoin:round;">
<circle cx="3031.3" cy="9698.03" r="196.85" /> 
</g>
<g style="fill:#FFFFFF; fill-opacity:1.0; 
stroke:#FFFFFF; stroke-width:39.3701; stroke-opacity:1; 
stroke-linecap:round; stroke-linejoin:round;">
</g>
<g style="fill:#FFFFFF; fill-opacity:1.0; 
stroke:#FFFFFF; stroke-width:0; stroke-opacity:1; 
stroke-linecap:round; stroke-linejoin:round;">
<circle cx="5981.3" cy="2498.03" r="157.48" /> 
</g>
<g style="fill:#FFFFFF; fill-opacity:1.0; 
stroke:#FFFFFF; stroke-width:39.3701; stroke-opacity:1; 
stroke-linecap:round; stroke-linejoin:round;">
</g>
<g style="fill:#FFFFFF; fill-opacity:1.0; 
stroke:#FFFFFF; stroke-width:0; stroke-opacity:1; 
stroke-linecap:round; stroke-linejoin:round;">
<circle cx="2981.3" cy="2498.03" r="157.48" /> 
</g>
<g style="fill:#FFFFFF; fill-opacity:1.0; 
stroke:#FFFFFF; stroke-width:39.3701; stroke-opacity:1; 
stroke-linecap:round; stroke-linejoin:round;">
</g>
<g style="fill:#FFFFFF; fill-opacity:1.0; 
stroke:#FFFFFF; stroke-width:0; stroke-opacity:1; 
stroke-linecap:round; stroke-linejoin:round;">
<circle cx="1231.3" cy="10498" r="157.48" /> 
</g>
<g style="fill:#FFFFFF; fill-opacity:1.0; 
stroke:#FFFFFF; stroke-width:39.3701; stroke-opacity:1; 
stroke-linecap:round; stroke-linejoin:round;">
</g>
<g style="fill:#FFFFFF; fill-opacity:1.0; 
stroke:#FFFFFF; stroke-width:0; stroke-opacity:1; 
stroke-linecap:round; stroke-linejoin:round;">
<circle cx="1231.3" cy="7498.03" r="157.48" /> 
</g>
<g style="fill:#FFFFFF; fill-opacity:1.0; 
stroke:#FFFFFF; stroke-width:39.3701; stroke-opacity:1; 
stroke-linecap:round; stroke-linejoin:round;">
</g>
<g style="fill:#000000; fill-opacity:1.0; 
stroke:#000000; stroke-width:39.3701; stroke-opacity:1; 
stroke-linecap:round; stroke-linejoin:round;">
<g >
</g>
<g style="fill:#000000; fill-opacity:1.0; 
stroke:#000000; stroke-width:0; stroke-opacity:1; 
stroke-linecap:round; stroke-linejoin:round;">
<circle cx="1131.3" cy="12298" r="354.331" /> 
</g>
<g style="fill:#000000; fill-opacity:1.0; 
stroke:#000000; stroke-width:39.3701; stroke-opacity:1; 
stroke-linecap:round; stroke-linejoin:round;">
</g>
<g style="fill:#000000; fill-opacity:1.0; 
stroke:#000000; stroke-width:0; stroke-opacity:1; 
stroke-linecap:round; stroke-linejoin:round;">
<path style="fill:#000000; fill-opacity:1.0; 
stroke:#000000; stroke-width:0; stroke-opacity:1; 
stroke-linecap:round; stroke-linejoin:round;fill-rule:evenodd;"
d="M 2485.63,11943.7
2485.63,12652.4
1776.97,12652.4
1776.97,11943.7
Z" /> 
</g>
<g >
</g>
<g style="fill:#000000; fill-opacity:1.0; 
stroke:#000000; stroke-width:0; stroke-opacity:1; 
stroke-linecap:round; stroke-linejoin:round;">
<circle cx="3031.3" cy="6498.03" r="314.961" /> 
</g>
<g style="fill:#000000; fill-opacity:1.0; 
stroke:#000000; stroke-width:39.3701; stroke-opacity:1; 
stroke-linecap:round; stroke-linejoin:round;">
</g>
<g style="fill:#000000; fill-opacity:1.0; 
stroke:#000000; stroke-width:0; stroke-opacity:1; 
stroke-linecap:round; stroke-linejoin:round;">
<circle cx="6031.3" cy="6498.03" r="314.961" /> 
</g>
<g >
</g>
<g style="fill:#000000; fill-opacity:1.0; 
stroke:#000000; stroke-width:0; stroke-opacity:1; 
stroke-linecap:round; stroke-linejoin:round;">
<path style="fill:#000000; fill-opacity:1.0; 
stroke:#000000; stroke-width:0; stroke-opacity:1; 
stroke-linecap:round; stroke-linejoin:round;fill-rule:evenodd;"
d="M 7696.65,1663.39
8365.94,1663.39
8365.94,2332.68
7696.65,2332.68
Z" /> 
<circle cx="9031.3" cy="1998.03" r="334.646" /> 
</g>
<g >
</g>
<g style="fill:#000000; fill-opacity:1.0; 
stroke:#000000; stroke-width:0; stroke-opacity:1; 
stroke-linecap:round; stroke-linejoin:round;">
<circle cx="7931.3" cy="10798" r="334.646" /> 
<circle cx="8931.3" cy="10798" r="334.646" /> 
<circle cx="7931.3" cy="9798.03" r="334.646" /> 
<circle cx="8931.3" cy="9798.03" r="334.646" /> 
<path style="fill:#000000; fill-opacity:1.0; 
stroke:#000000; stroke-width:0; stroke-opacity:1; 
stroke-linecap:round; stroke-linejoin:round;fill-rule:evenodd;"
d="M 8226.57,8502.76
8226.57,9093.31
7636.02,9093.31
7636.02,8502.76
Z" /> 
<circle cx="8931.3" cy="8798.03" r="334.646" /> 
</g>
<g >
</g>
<g style="fill:#000000; fill-opacity:1.0; 
stroke:#000000; stroke-width:0; stroke-opacity:1; 
stroke-linecap:round; stroke-linejoin:round;">
<circle cx="8331.3" cy="6298.03" r="334.646" /> 
<circle cx="8331.3" cy="5298.03" r="334.646" /> 
<path style="fill:#000000; fill-opacity:1.0; 
stroke:#000000; stroke-width:0; stroke-opacity:1; 
stroke-linecap:round; stroke-linejoin:round;fill-rule:evenodd;"
d="M 8665.94,3963.39
8665.94,4632.68
7996.65,4632.68
7996.65,3963.39
Z" /> 
</g>
<g >
</g>
<g style="fill:#000000; fill-opacity:1.0; 
stroke:#000000; stroke-width:0; stroke-opacity:1; 
stroke-linecap:round; stroke-linejoin:round;">
<circle cx="1531.3" cy="5498.03" r="334.646" /> 
<circle cx="1531.3" cy="4498.03" r="334.646" /> 
<circle cx="1531.3" cy="3498.03" r="334.646" /> 
<path style="fill:#000000; fill-opacity:1.0; 
stroke:#000000; stroke-width:0; stroke-opacity:1; 
stroke-linecap:round; stroke-linejoin:round;fill-rule:evenodd;"
d="M 1865.94,2163.39
1865.94,2832.68
1196.65,2832.68
1196.65,2163.39
Z" /> 
</g>
<g >
</g>
<g style="fill:#000000; fill-opacity:1.0; 
stroke:#000000; stroke-width:0; stroke-opacity:1; 
stroke-linecap:round; stroke-linejoin:round;">
<circle cx="6023.43" cy="9698.03" r="393.701" /> 
</g>
<g style="fill:#000000; fill-opacity:1.0; 
stroke:#000000; stroke-width:39.3701; stroke-opacity:1; 
stroke-linecap:round; stroke-linejoin:round;">
</g>
<g style="fill:#000000; fill-opacity:1.0; 
stroke:#000000; stroke-width:0; stroke-opacity:1; 
stroke-linecap:round; stroke-linejoin:round;">
<path style="fill:#000000; fill-opacity:1.0; 
stroke:#000000; stroke-width:0; stroke-opacity:1; 
stroke-linecap:round; stroke-linejoin:round;fill-rule:evenodd;"
d="M 2637.6,10091.7
2637.6,9304.33
3425,9304.33
3425,10091.7
Z" /> 
</g>
<g >
</g>
<g style="fill:#000000; fill-opacity:1.0; 
stroke:#000000; stroke-width:0; stroke-opacity:1; 
stroke-linecap:round; stroke-linejoin:round;">
<circle cx="5981.3" cy="2498.03" r="314.961" /> 
<circle cx="2981.3" cy="2498.03" r="314.961" /> 
</g>
<g style="fill:#000000; fill-opacity:1.0; 
stroke:#000000; stroke-width:39.3701; stroke-opacity:1; 
stroke-linecap:round; stroke-linejoin:round;">
</g>
<g >
</g>
<g style="fill:#000000; fill-opacity:1.0; 
stroke:#000000; stroke-width:39.3701; stroke-opacity:1; 
stroke-linecap:round; stroke-linejoin:round;">
</g>
<g style="fill:#000000; fill-opacity:1.0; 
stroke:#000000; stroke-width:0; stroke-opacity:1; 
stroke-linecap:round; stroke-linejoin:round;">
<circle cx="1231.3" cy="10498" r="314.961" /> 
<circle cx="1231.3" cy="7498.03" r="314.961" /> 
</g>
<g style="fill:#000000; fill-opacity:1.0; 
stroke:#000000; stroke-width:39.3701; stroke-opacity:1; 
stroke-linecap:round; stroke-linejoin:round;">
</g>
<g >
</g>
<g style="fill:#000000; fill-opacity:1.0; 
stroke:#000000; stroke-width:39.3701; stroke-opacity:1; 
stroke-linecap:round; stroke-linejoin:round;">
</g>
<g style="fill:#000000; fill-opacity:1.0; 
stroke:#000000; stroke-width:0; stroke-opacity:1; 
stroke-linecap:round; stroke-linejoin:round;">
<path style="fill:#000000; fill-opacity:1.0; 
stroke:#000000; stroke-width:0; stroke-opacity:1; 
stroke-linecap:round; stroke-linejoin:round;fill-rule:evenodd;"
d="M 5836.3,3630.21
5842.03,3631.06
5847.65,3632.46
5853.11,3634.42
5858.35,3636.89
5863.32,3639.87
5867.98,3643.33
5872.27,3647.22
5876.16,3651.51
5879.61,3656.17
5882.59,3661.14
5885.07,3666.38
5887.02,3671.83
5888.43,3677.46
5889.28,3683.19
5889.57,3688.98
5889.57,3807.09
5889.28,3812.88
5888.43,3818.61
5887.02,3824.23
5885.07,3829.69
5882.59,3834.93
5879.61,3839.9
5876.16,3844.55
5872.27,3848.84
5867.98,3852.74
5863.32,3856.19
5858.35,3859.17
5853.11,3861.65
5847.65,3863.6
5842.03,3865.01
5836.3,3865.86
5830.51,3866.14
5180.91,3866.14
5175.12,3865.86
5169.38,3865.01
5163.76,3863.6
5158.31,3861.65
5153.07,3859.17
5148.1,3856.19
5143.44,3852.74
5139.15,3848.84
5135.26,3844.55
5131.8,3839.9
5128.82,3834.93
5126.35,3829.69
5124.39,3824.23
5122.99,3818.61
5122.13,3812.88
5121.85,3807.09
5121.85,3688.98
5122.13,3683.19
5122.99,3677.46
5124.39,3671.83
5126.35,3666.38
5128.82,3661.14
5131.8,3656.17
5135.26,3651.51
5139.15,3647.22
5143.44,3643.33
5148.1,3639.87
5153.07,3636.89
5158.31,3634.42
5163.76,3632.46
5169.38,3631.06
5175.12,3630.21
5180.91,3629.92
5830.51,3629.92
Z" /> 
<path style="fill:#000000; fill-opacity:1.0; 
stroke:#000000; stroke-width:0; stroke-opacity:1; 
stroke-linecap:round; stroke-linejoin:round;fill-rule:evenodd;"
d="M 5836.3,4130.21
5842.03,4131.06
5847.65,4132.46
5853.11,4134.42
5858.35,4136.89
5863.32,4139.87
5867.98,4143.33
5872.27,4147.22
5876.16,4151.51
5879.61,4156.17
5882.59,4161.14
5885.07,4166.38
5887.02,4171.83
5888.43,4177.46
5889.28,4183.19
5889.57,4188.98
5889.57,4307.09
5889.28,4312.88
5888.43,4318.61
5887.02,4324.23
5885.07,4329.69
5882.59,4334.93
5879.61,4339.9
5876.16,4344.55
5872.27,4348.84
5867.98,4352.74
5863.32,4356.19
5858.35,4359.17
5853.11,4361.65
5847.65,4363.6
5842.03,4365.01
5836.3,4365.86
5830.51,4366.14
5180.91,4366.14
5175.12,4365.86
5169.38,4365.01
5163.76,4363.6
5158.31,4361.65
5153.07,4359.17
5148.1,4356.19
5143.44,4352.74
5139.15,4348.84
5135.26,4344.55
5131.8,4339.9
5128.82,4334.93
5126.35,4329.69
5124.39,4324.23
5122.99,4318.61
5122.13,4312.88
5121.85,4307.09
5121.85,4188.98
5122.13,4183.19
5122.99,4177.46
5124.39,4171.83
5126.35,4166.38
5128.82,4161.14
5131.8,4156.17
5135.26,4151.51
5139.15,4147.22
5143.44,4143.33
5148.1,4139.87
5153.07,4136.89
5158.31,4134.42
5163.76,4132.46
5169.38,4131.06
5175.12,4130.21
5180.91,4129.92
5830.51,4129.92
Z" /> 
<path style="fill:#000000; fill-opacity:1.0; 
stroke:#000000; stroke-width:0; stroke-opacity:1; 
stroke-linecap:round; stroke-linejoin:round;fill-rule:evenodd;"
d="M 5836.3,4630.21
5842.03,4631.06
5847.65,4632.46
5853.11,4634.42
5858.35,4636.89
5863.32,4639.87
5867.98,4643.33
5872.27,4647.22
5876.16,4651.51
5879.61,4656.17
5882.59,4661.14
5885.07,4666.38
5887.02,4671.83
5888.43,4677.46
5889.28,4683.19
5889.57,4688.98
5889.57,4807.09
5889.28,4812.88
5888.43,4818.61
5887.02,4824.23
5885.07,4829.69
5882.59,4834.93
5879.61,4839.9
5876.16,4844.55
5872.27,4848.84
5867.98,4852.74
5863.32,4856.19
5858.35,4859.17
5853.11,4861.65
5847.65,4863.6
5842.03,4865.01
5836.3,4865.86
5830.51,4866.14
5180.91,4866.14
5175.12,4865.86
5169.38,4865.01
5163.76,4863.6
5158.31,4861.65
5153.07,4859.17
5148.1,4856.19
5143.44,4852.74
5139.15,4848.84
5135.26,4844.55
5131.8,4839.9
5128.82,4834.93
5126.35,4829.69
5124.39,4824.23
5122.99,4818.61
5122.13,4812.88
5121.85,4807.09
5121.85,4688.98
5122.13,4683.19
5122.99,4677.46
5124.39,4671.83
5126.35,4666.38
5128.82,4661.14
5131.8,4656.17
5135.26,4651.51
5139.15,4647.22
5143.44,4643.33
5148.1,4639.87
5153.07,4636.89
5158.31,4634.42
5163.76,4632.46
5169.38,4631.06
5175.12,4630.21
5180.91,4629.92
5830.51,4629.92
Z" /> 
<path style="fill:#000000; fill-opacity:1.0; 
stroke:#000000; stroke-width:0; stroke-opacity:1; 
stroke-linecap:round; stroke-linejoin:round;fill-rule:evenodd;"
d="M 5836.3,5130.21
5842.03,5131.06
5847.65,5132.46
5853.11,5134.42
5858.35,5136.89
5863.32,5139.87
5867.98,5143.33
5872.27,5147.22
5876.16,5151.51
5879.61,5156.17
5882.59,5161.14
5885.07,5166.38
5887.02,5171.83
5888.43,5177.46
5889.28,5183.19
5889.57,5188.98
5889.57,5307.09
5889.28,5312.88
5888.43,5318.61
5887.02,5324.23
5885.07,5329.69
5882.59,5334.93
5879.61,5339.9
5876.16,5344.55
5872.27,5348.84
5867.98,5352.74
5863.32,5356.19
5858.35,5359.17
5853.11,5361.65
5847.65,5363.6
5842.03,5365.01
5836.3,5365.86
5830.51,5366.14
5180.91,5366.14
5175.12,5365.86
5169.38,5365.01
5163.76,5363.6
5158.31,5361.65
5153.07,5359.17
5148.1,5356.19
5143.44,5352.74
5139.15,5348.84
5135.26,5344.55
5131.8,5339.9
5128.82,5334.93
5126.35,5329.69
5124.39,5324.23
5122.99,5318.61
5122.13,5312.88
5121.85,5307.09
5121.85,5188.98
5122.13,5183.19
5122.99,5177.46
5124.39,5171.83
5126.35,5166.38
5128.82,5161.14
5131.8,5156.17
5135.26,5151.51
5139.15,5147.22
5143.44,5143.33
5148.1,5139.87
5153.07,5136.89
5158.31,5134.42
5163.76,5132.46
5169.38,5131.06
5175.12,5130.21
5180.91,5129.92
5830.51,5129.92
Z" /> 
<path style="fill:#000000; fill-opacity:1.0; 
stroke:#000000; stroke-width:0; stroke-opacity:1; 
stroke-linecap:round; stroke-linejoin:round;fill-rule:evenodd;"
d="M 3887.48,5130.21
3893.21,5131.06
3898.84,5132.46
3904.29,5134.42
3909.53,5136.89
3914.5,5139.87
3919.16,5143.33
3923.45,5147.22
3927.34,5151.51
3930.8,5156.17
3933.77,5161.14
3936.25,5166.38
3938.21,5171.83
3939.61,5177.46
3940.46,5183.19
3940.75,5188.98
3940.75,5307.09
3940.46,5312.88
3939.61,5318.61
3938.21,5324.23
3936.25,5329.69
3933.77,5334.93
3930.8,5339.9
3927.34,5344.55
3923.45,5348.84
3919.16,5352.74
3914.5,5356.19
3909.53,5359.17
3904.29,5361.65
3898.84,5363.6
3893.21,5365.01
3887.48,5365.86
3881.69,5366.14
3232.09,5366.14
3226.3,5365.86
3220.57,5365.01
3214.94,5363.6
3209.49,5361.65
3204.25,5359.17
3199.28,5356.19
3194.62,5352.74
3190.33,5348.84
3186.44,5344.55
3182.98,5339.9
3180,5334.93
3177.53,5329.69
3175.57,5324.23
3174.17,5318.61
3173.32,5312.88
3173.03,5307.09
3173.03,5188.98
3173.32,5183.19
3174.17,5177.46
3175.57,5171.83
3177.53,5166.38
3180,5161.14
3182.98,5156.17
3186.44,5151.51
3190.33,5147.22
3194.62,5143.33
3199.28,5139.87
3204.25,5136.89
3209.49,5134.42
3214.94,5132.46
3220.57,5131.06
3226.3,5130.21
3232.09,5129.92
3881.69,5129.92
Z" /> 
<path style="fill:#000000; fill-opacity:1.0; 
stroke:#000000; stroke-width:0; stroke-opacity:1; 
stroke-linecap:round; stroke-linejoin:round;fill-rule:evenodd;"
d="M 3887.48,4630.21
3893.21,4631.06
3898.84,4632.46
3904.29,4634.42
3909.53,4636.89
3914.5,4639.87
3919.16,4643.33
3923.45,4647.22
3927.34,4651.51
3930.8,4656.17
3933.77,4661.14
3936.25,4666.38
3938.21,4671.83
3939.61,4677.46
3940.46,4683.19
3940.75,4688.98
3940.75,4807.09
3940.46,4812.88
3939.61,4818.61
3938.21,4824.23
3936.25,4829.69
3933.77,4834.93
3930.8,4839.9
3927.34,4844.55
3923.45,4848.84
3919.16,4852.74
3914.5,4856.19
3909.53,4859.17
3904.29,4861.65
3898.84,4863.6
3893.21,4865.01
3887.48,4865.86
3881.69,4866.14
3232.09,4866.14
3226.3,4865.86
3220.57,4865.01
3214.94,4863.6
3209.49,4861.65
3204.25,4859.17
3199.28,4856.19
3194.62,4852.74
3190.33,4848.84
3186.44,4844.55
3182.98,4839.9
3180,4834.93
3177.53,4829.69
3175.57,4824.23
3174.17,4818.61
3173.32,4812.88
3173.03,4807.09
3173.03,4688.98
3173.32,4683.19
3174.17,4677.46
3175.57,4671.83
3177.53,4666.38
3180,4661.14
3182.98,4656.17
3186.44,4651.51
3190.33,4647.22
3194.62,4643.33
3199.28,4639.87
3204.25,4636.89
3209.49,4634.42
3214.94,4632.46
3220.57,4631.06
3226.3,4630.21
3232.09,4629.92
3881.69,4629.92
Z" /> 
<path style="fill:#000000; fill-opacity:1.0; 
stroke:#000000; stroke-width:0; stroke-opacity:1; 
stroke-linecap:round; stroke-linejoin:round;fill-rule:evenodd;"
d="M 3887.48,4130.21
3893.21,4131.06
3898.84,4132.46
3904.29,4134.42
3909.53,4136.89
3914.5,4139.87
3919.16,4143.33
3923.45,4147.22
3927.34,4151.51
3930.8,4156.17
3933.77,4161.14
3936.25,4166.38
3938.21,4171.83
3939.61,4177.46
3940.46,4183.19
3940.75,4188.98
3940.75,4307.09
3940.46,4312.88
3939.61,4318.61
3938.21,4324.23
3936.25,4329.69
3933.77,4334.93
3930.8,4339.9
3927.34,4344.55
3923.45,4348.84
3919.16,4352.74
3914.5,4356.19
3909.53,4359.17
3904.29,4361.65
3898.84,4363.6
3893.21,4365.01
3887.48,4365.86
3881.69,4366.14
3232.09,4366.14
3226.3,4365.86
3220.57,4365.01
3214.94,4363.6
3209.49,4361.65
3204.25,4359.17
3199.28,4356.19
3194.62,4352.74
3190.33,4348.84
3186.44,4344.55
3182.98,4339.9
3180,4334.93
3177.53,4329.69
3175.57,4324.23
3174.17,4318.61
3173.32,4312.88
3173.03,4307.09
3173.03,4188.98
3173.32,4183.19
3174.17,4177.46
3175.57,4171.83
3177.53,4166.38
3180,4161.14
3182.98,4156.17
3186.44,4151.51
3190.33,4147.22
3194.62,4143.33
3199.28,4139.87
3204.25,4136.89
3209.49,4134.42
3214.94,4132.46
3220.57,4131.06
3226.3,4130.21
3232.09,4129.92
3881.69,4129.92
Z" /> 
<path style="fill:#000000; fill-opacity:1.0; 
stroke:#000000; stroke-width:0; stroke-opacity:1; 
stroke-linecap:round; stroke-linejoin:round;fill-rule:evenodd;"
d="M 3887.48,3630.21
3893.21,3631.06
3898.84,3632.46
3904.29,3634.42
3909.53,3636.89
3914.5,3639.87
3919.16,3643.33
3923.45,3647.22
3927.34,3651.51
3930.8,3656.17
3933.77,3661.14
3936.25,3666.38
3938.21,3671.83
3939.61,3677.46
3940.46,3683.19
3940.75,3688.98
3940.75,3807.09
3940.46,3812.88
3939.61,3818.61
3938.21,3824.23
3936.25,3829.69
3933.77,3834.93
3930.8,3839.9
3927.34,3844.55
3923.45,3848.84
3919.16,3852.74
3914.5,3856.19
3909.53,3859.17
3904.29,3861.65
3898.84,3863.6
3893.21,3865.01
3887.48,3865.86
3881.69,3866.14
3232.09,3866.14
3226.3,3865.86
3220.57,3865.01
3214.94,3863.6
3209.49,3861.65
3204.25,3859.17
3199.28,3856.19
3194.62,3852.74
3190.33,3848.84
3186.44,3844.55
3182.98,3839.9
3180,3834.93
3177.53,3829.69
3175.57,3824.23
3174.17,3818.61
3173.32,3812.88
3173.03,3807.09
3173.03,3688.98
3173.32,3683.19
3174.17,3677.46
3175.57,3671.83
3177.53,3666.38
3180,3661.14
3182.98,3656.17
3186.44,3651.51
3190.33,3647.22
3194.62,3643.33
3199.28,3639.87
3204.25,3636.89
3209.49,3634.42
3214.94,3632.46
3220.57,3631.06
3226.3,3630.21
3232.09,3629.92
3881.69,3629.92
Z" /> 
</g>
<g >
</g>
<g >
</g>
<g >
</g>
</g>
<g style="fill:#000000; fill-opacity:1.0; 
stroke:#000000; stroke-width:0; stroke-opacity:1; 
stroke-linecap:round; stroke-linejoin:round;">
<g >
</g>
<g >
</g>
<g >
</g>
<g >
</g>
<g >
</g>
<g >
</g>
<g >
</g>
<g >
</g>
<g >
</g>
<g >
</g>
<g style="fill:#000000; fill-opacity:1.0; 
stroke:#000000; stroke-width:0; stroke-opacity:1; 
stroke-linecap:round; stroke-linejoin:round;">
<path style="fill:#000000; fill-opacity:1.0; 
stroke:#000000; stroke-width:0; stroke-opacity:1; 
stroke-linecap:round; stroke-linejoin:round;fill-rule:evenodd;"
d="M 5836.3,3630.21
5842.03,3631.06
5847.65,3632.46
5853.11,3634.42
5858.35,3636.89
5863.32,3639.87
5867.98,3643.33
5872.27,3647.22
5876.16,3651.51
5879.61,3656.17
5882.59,3661.14
5885.07,3666.38
5887.02,3671.83
5888.43,3677.46
5889.28,3683.19
5889.57,3688.98
5889.57,3807.09
5889.28,3812.88
5888.43,3818.61
5887.02,3824.23
5885.07,3829.69
5882.59,3834.93
5879.61,3839.9
5876.16,3844.55
5872.27,3848.84
5867.98,3852.74
5863.32,3856.19
5858.35,3859.17
5853.11,3861.65
5847.65,3863.6
5842.03,3865.01
5836.3,3865.86
5830.51,3866.14
5180.91,3866.14
5175.12,3865.86
5169.38,3865.01
5163.76,3863.6
5158.31,3861.65
5153.07,3859.17
5148.1,3856.19
5143.44,3852.74
5139.15,3848.84
5135.26,3844.55
5131.8,3839.9
5128.82,3834.93
5126.35,3829.69
5124.39,3824.23
5122.99,3818.61
5122.13,3812.88
5121.85,3807.09
5121.85,3688.98
5122.13,3683.19
5122.99,3677.46
5124.39,3671.83
5126.35,3666.38
5128.82,3661.14
5131.8,3656.17
5135.26,3651.51
5139.15,3647.22
5143.44,3643.33
5148.1,3639.87
5153.07,3636.89
5158.31,3634.42
5163.76,3632.46
5169.38,3631.06
5175.12,3630.21
5180.91,3629.92
5830.51,3629.92
Z" /> 
<path style="fill:#000000; fill-opacity:1.0; 
stroke:#000000; stroke-width:0; stroke-opacity:1; 
stroke-linecap:round; stroke-linejoin:round;fill-rule:evenodd;"
d="M 5836.3,4130.21
5842.03,4131.06
5847.65,4132.46
5853.11,4134.42
5858.35,4136.89
5863.32,4139.87
5867.98,4143.33
5872.27,4147.22
5876.16,4151.51
5879.61,4156.17
5882.59,4161.14
5885.07,4166.38
5887.02,4171.83
5888.43,4177.46
5889.28,4183.19
5889.57,4188.98
5889.57,4307.09
5889.28,4312.88
5888.43,4318.61
5887.02,4324.23
5885.07,4329.69
5882.59,4334.93
5879.61,4339.9
5876.16,4344.55
5872.27,4348.84
5867.98,4352.74
5863.32,4356.19
5858.35,4359.17
5853.11,4361.65
5847.65,4363.6
5842.03,4365.01
5836.3,4365.86
5830.51,4366.14
5180.91,4366.14
5175.12,4365.86
5169.38,4365.01
5163.76,4363.6
5158.31,4361.65
5153.07,4359.17
5148.1,4356.19
5143.44,4352.74
5139.15,4348.84
5135.26,4344.55
5131.8,4339.9
5128.82,4334.93
5126.35,4329.69
5124.39,4324.23
5122.99,4318.61
5122.13,4312.88
5121.85,4307.09
5121.85,4188.98
5122.13,4183.19
5122.99,4177.46
5124.39,4171.83
5126.35,4166.38
5128.82,4161.14
5131.8,4156.17
5135.26,4151.51
5139.15,4147.22
5143.44,4143.33
5148.1,4139.87
5153.07,4136.89
5158.31,4134.42
5163.76,4132.46
5169.38,4131.06
5175.12,4130.21
5180.91,4129.92
5830.51,4129.92
Z" /> 
<path style="fill:#000000; fill-opacity:1.0; 
stroke:#000000; stroke-width:0; stroke-opacity:1; 
stroke-linecap:round; stroke-linejoin:round;fill-rule:evenodd;"
d="M 5836.3,4630.21
5842.03,4631.06
5847.65,4632.46
5853.11,4634.42
5858.35,4636.89
5863.32,4639.87
5867.98,4643.33
5872.27,4647.22
5876.16,4651.51
5879.61,4656.17
5882.59,4661.14
5885.07,4666.38
5887.02,4671.83
5888.43,4677.46
5889.28,4683.19
5889.57,4688.98
5889.57,4807.09
5889.28,4812.88
5888.43,4818.61
5887.02,4824.23
5885.07,4829.69
5882.59,4834.93
5879.61,4839.9
5876.16,4844.55
5872.27,4848.84
5867.98,4852.74
5863.32,4856.19
5858.35,4859.17
5853.11,4861.65
5847.65,4863.6
5842.03,4865.01
5836.3,4865.86
5830.51,4866.14
5180.91,4866.14
5175.12,4865.86
5169.38,4865.01
5163.76,4863.6
5158.31,4861.65
5153.07,4859.17
5148.1,4856.19
5143.44,4852.74
5139.15,4848.84
5135.26,4844.55
5131.8,4839.9
5128.82,4834.93
5126.35,4829.69
5124.39,4824.23
5122.99,4818.61
5122.13,4812.88
5121.85,4807.09
5121.85,4688.98
5122.13,4683.19
5122.99,4677.46
5124.39,4671.83
5126.35,4666.38
5128.82,4661.14
5131.8,4656.17
5135.26,4651.51
5139.15,4647.22
5143.44,4643.33
5148.1,4639.87
5153.07,4636.89
5158.31,4634.42
5163.76,4632.46
5169.38,4631.06
5175.12,4630.21
5180.91,4629.92
5830.51,4629.92
Z" /> 
<path style="fill:#000000; fill-opacity:1.0; 
stroke:#000000; stroke-width:0; stroke-opacity:1; 
stroke-linecap:round; stroke-linejoin:round;fill-rule:evenodd;"
d="M 5836.3,5130.21
5842.03,5131.06
5847.65,5132.46
5853.11,5134.42
5858.35,5136.89
5863.32,5139.87
5867.98,5143.33
5872.27,5147.22
5876.16,5151.51
5879.61,5156.17
5882.59,5161.14
5885.07,5166.38
5887.02,5171.83
5888.43,5177.46
5889.28,5183.19
5889.57,5188.98
5889.57,5307.09
5889.28,5312.88
5888.43,5318.61
5887.02,5324.23
5885.07,5329.69
5882.59,5334.93
5879.61,5339.9
5876.16,5344.55
5872.27,5348.84
5867.98,5352.74
5863.32,5356.19
5858.35,5359.17
5853.11,5361.65
5847.65,5363.6
5842.03,5365.01
5836.3,5365.86
5830.51,5366.14
5180.91,5366.14
5175.12,5365.86
5169.38,5365.01
5163.76,5363.6
5158.31,5361.65
5153.07,5359.17
5148.1,5356.19
5143.44,5352.74
5139.15,5348.84
5135.26,5344.55
5131.8,5339.9
5128.82,5334.93
5126.35,5329.69
5124.39,5324.23
5122.99,5318.61
5122.13,5312.88
5121.85,5307.09
5121.85,5188.98
5122.13,5183.19
5122.99,5177.46
5124.39,5171.83
5126.35,5166.38
5128.82,5161.14
5131.8,5156.17
5135.26,5151.51
5139.15,5147.22
5143.44,5143.33
5148.1,5139.87
5153.07,5136.89
5158.31,5134.42
5163.76,5132.46
5169.38,5131.06
5175.12,5130.21
5180.91,5129.92
5830.51,5129.92
Z" /> 
<path style="fill:#000000; fill-opacity:1.0; 
stroke:#000000; stroke-width:0; stroke-opacity:1; 
stroke-linecap:round; stroke-linejoin:round;fill-rule:evenodd;"
d="M 3887.48,5130.21
3893.21,5131.06
3898.84,5132.46
3904.29,5134.42
3909.53,5136.89
3914.5,5139.87
3919.16,5143.33
3923.45,5147.22
3927.34,5151.51
3930.8,5156.17
3933.77,5161.14
3936.25,5166.38
3938.21,5171.83
3939.61,5177.46
3940.46,5183.19
3940.75,5188.98
3940.75,5307.09
3940.46,5312.88
3939.61,5318.61
3938.21,5324.23
3936.25,5329.69
3933.77,5334.93
3930.8,5339.9
3927.34,5344.55
3923.45,5348.84
3919.16,5352.74
3914.5,5356.19
3909.53,5359.17
3904.29,5361.65
3898.84,5363.6
3893.21,5365.01
3887.48,5365.86
3881.69,5366.14
3232.09,5366.14
3226.3,5365.86
3220.57,5365.01
3214.94,5363.6
3209.49,5361.65
3204.25,5359.17
3199.28,5356.19
3194.62,5352.74
3190.33,5348.84
3186.44,5344.55
3182.98,5339.9
3180,5334.93
3177.53,5329.69
3175.57,5324.23
3174.17,5318.61
3173.32,5312.88
3173.03,5307.09
3173.03,5188.98
3173.32,5183.19
3174.17,5177.46
3175.57,5171.83
3177.53,5166.38
3180,5161.14
3182.98,5156.17
3186.44,5151.51
3190.33,5147.22
3194.62,5143.33
3199.28,5139.87
3204.25,5136.89
3209.49,5134.42
3214.94,5132.46
3220.57,5131.06
3226.3,5130.21
3232.09,5129.92
3881.69,5129.92
Z" /> 
<path style="fill:#000000; fill-opacity:1.0; 
stroke:#000000; stroke-width:0; stroke-opacity:1; 
stroke-linecap:round; stroke-linejoin:round;fill-rule:evenodd;"
d="M 3887.48,4630.21
3893.21,4631.06
3898.84,4632.46
3904.29,4634.42
3909.53,4636.89
3914.5,4639.87
3919.16,4643.33
3923.45,4647.22
3927.34,4651.51
3930.8,4656.17
3933.77,4661.14
3936.25,4666.38
3938.21,4671.83
3939.61,4677.46
3940.46,4683.19
3940.75,4688.98
3940.75,4807.09
3940.46,4812.88
3939.61,4818.61
3938.21,4824.23
3936.25,4829.69
3933.77,4834.93
3930.8,4839.9
3927.34,4844.55
3923.45,4848.84
3919.16,4852.74
3914.5,4856.19
3909.53,4859.17
3904.29,4861.65
3898.84,4863.6
3893.21,4865.01
3887.48,4865.86
3881.69,4866.14
3232.09,4866.14
3226.3,4865.86
3220.57,4865.01
3214.94,4863.6
3209.49,4861.65
3204.25,4859.17
3199.28,4856.19
3194.62,4852.74
3190.33,4848.84
3186.44,4844.55
3182.98,4839.9
3180,4834.93
3177.53,4829.69
3175.57,4824.23
3174.17,4818.61
3173.32,4812.88
3173.03,4807.09
3173.03,4688.98
3173.32,4683.19
3174.17,4677.46
3175.57,4671.83
3177.53,4666.38
3180,4661.14
3182.98,4656.17
3186.44,4651.51
3190.33,4647.22
3194.62,4643.33
3199.28,4639.87
3204.25,4636.89
3209.49,4634.42
3214.94,4632.46
3220.57,4631.06
3226.3,4630.21
3232.09,4629.92
3881.69,4629.92
Z" /> 
<path style="fill:#000000; fill-opacity:1.0; 
stroke:#000000; stroke-width:0; stroke-opacity:1; 
stroke-linecap:round; stroke-linejoin:round;fill-rule:evenodd;"
d="M 3887.48,4130.21
3893.21,4131.06
3898.84,4132.46
3904.29,4134.42
3909.53,4136.89
3914.5,4139.87
3919.16,4143.33
3923.45,4147.22
3927.34,4151.51
3930.8,4156.17
3933.77,4161.14
3936.25,4166.38
3938.21,4171.83
3939.61,4177.46
3940.46,4183.19
3940.75,4188.98
3940.75,4307.09
3940.46,4312.88
3939.61,4318.61
3938.21,4324.23
3936.25,4329.69
3933.77,4334.93
3930.8,4339.9
3927.34,4344.55
3923.45,4348.84
3919.16,4352.74
3914.5,4356.19
3909.53,4359.17
3904.29,4361.65
3898.84,4363.6
3893.21,4365.01
3887.48,4365.86
3881.69,4366.14
3232.09,4366.14
3226.3,4365.86
3220.57,4365.01
3214.94,4363.6
3209.49,4361.65
3204.25,4359.17
3199.28,4356.19
3194.62,4352.74
3190.33,4348.84
3186.44,4344.55
3182.98,4339.9
3180,4334.93
3177.53,4329.69
3175.57,4324.23
3174.17,4318.61
3173.32,4312.88
3173.03,4307.09
3173.03,4188.98
3173.32,4183.19
3174.17,4177.46
3175.57,4171.83
3177.53,4166.38
3180,4161.14
3182.98,4156.17
3186.44,4151.51
3190.33,4147.22
3194.62,4143.33
3199.28,4139.87
3204.25,4136.89
3209.49,4134.42
3214.94,4132.46
3220.57,4131.06
3226.3,4130.21
3232.09,4129.92
3881.69,4129.92
Z" /> 
<path style="fill:#000000; fill-opacity:1.0; 
stroke:#000000; stroke-width:0; stroke-opacity:1; 
stroke-linecap:round; stroke-linejoin:round;fill-rule:evenodd;"
d="M 3887.48,3630.21
3893.21,3631.06
3898.84,3632.46
3904.29,3634.42
3909.53,3636.89
3914.5,3639.87
3919.16,3643.33
3923.45,3647.22
3927.34,3651.51
3930.8,3656.17
3933.77,3661.14
3936.25,3666.38
3938.21,3671.83
3939.61,3677.46
3940.46,3683.19
3940.75,3688.98
3940.75,3807.09
3940.46,3812.88
3939.61,3818.61
3938.21,3824.23
3936.25,3829.69
3933.77,3834.93
3930.8,3839.9
3927.34,3844.55
3923.45,3848.84
3919.16,3852.74
3914.5,3856.19
3909.53,3859.17
3904.29,3861.65
3898.84,3863.6
3893.21,3865.01
3887.48,3865.86
3881.69,3866.14
3232.09,3866.14
3226.3,3865.86
3220.57,3865.01
3214.94,3863.6
3209.49,3861.65
3204.25,3859.17
3199.28,3856.19
3194.62,3852.74
3190.33,3848.84
3186.44,3844.55
3182.98,3839.9
3180,3834.93
3177.53,3829.69
3175.57,3824.23
3174.17,3818.61
3173.32,3812.88
3173.03,3807.09
3173.03,3688.98
3173.32,3683.19
3174.17,3677.46
3175.57,3671.83
3177.53,3666.38
3180,3661.14
3182.98,3656.17
3186.44,3651.51
3190.33,3647.22
3194.62,3643.33
3199.28,3639.87
3204.25,3636.89
3209.49,3634.42
3214.94,3632.46
3220.57,3631.06
3226.3,3630.21
3232.09,3629.92
3881.69,3629.92
Z" /> 
</g>
<g >
</g>
<g >
</g>
<g >
</g>
</g>
<g style="fill:#000000; fill-opacity:1.0; 
stroke:#000000; stroke-width:0; stroke-opacity:1; 
stroke-linecap:round; stroke-linejoin:round;">
</g>
<g style="fill:#000000; fill-opacity:1.0; 
stroke:#000000; stroke-width:47.2441; stroke-opacity:1; 
stroke-linecap:round; stroke-linejoin:round;">
</g>
<g style="fill:#000000; fill-opacity:0.0; 
stroke:#000000; stroke-width:47.2441; stroke-opacity:1; 
stroke-linecap:round; stroke-linejoin:round;">
<path d="M4531 5505
L5299 5505
" />
<path d="M4531 5505
L3763 5505
" />
<path d="M4531 3490
L5299 3490
" />
<path d="M4531 3490
L3173 3490
" />
</g>
<g style="fill:#000000; fill-opacity:0.0; 
stroke:#000000; stroke-width:59.0551; stroke-opacity:1; 
stroke-linecap:round; stroke-linejoin:round;">
<text x="4531.3" y="3356.3"
textLength="787.404" font-size="524.934" lengthAdjust="spacingAndGlyphs"
text-anchor="middle" opacity="0">U1</text>
<path d="M4231 2943
L4231 3262
L4250 3300
L4268 3318
L4306 3337
L4381 3337
L4418 3318
L4437 3300
L4456 3262
L4456 2943
" />
<path d="M4850 3337
L4625 3337
" />
<path d="M4737 3337
L4737 2943
L4700 3000
L4662 3037
L4625 3056
" />
<g >
</g>
</g>
<g style="fill:#000000; fill-opacity:0.0; 
stroke:#000000; stroke-width:59.0551; stroke-opacity:1; 
stroke-linecap:round; stroke-linejoin:round;">
<g >
</g>
<g >
</g>
<g >
</g>
<g >
</g>
<g >
</g>
<g >
</g>
<g >
</g>
<g >
</g>
<g >
</g>
<g >
</g>
<g >
</g>
<g >
</g>
<g >
</g>
</g>
<g style="fill:#000000; fill-opacity:0.0; 
stroke:#000000; stroke-width:59.0551; stroke-opacity:1; 
stroke-linecap:round; stroke-linejoin:round;">
</g>
<g style="fill:#000000; fill-opacity:0.0; 
stroke:#000000; stroke-width:19.685; stroke-opacity:1; 
stroke-linecap:round; stroke-linejoin:round;">
<path d="M3074 3435
L3074 5561
" />
<path d="M3074 5561
L5987 5561
" />
<path d="M5987 5561
L5987 3435
" />
<path d="M5987 3435
L3074 3435
" />
<g >
</g>
<g >
</g>
<g >
</g>
<g >
</g>
<g >
</g>
<g >
</g>
<g >
</g>
<g >
</g>
<g >
</g>
<g >
</g>
<g >
</g>
</g>
<g style="fill:#000000; fill-opacity:0.0; 
stroke:#000000; stroke-width:19.685; stroke-opacity:1; 
stroke-linecap:round; stroke-linejoin:round;">
</g>
<g style="fill:#000000; fill-opacity:0.0; 
stroke:#000000; stroke-width:39.3701; stroke-opacity:1; 
stroke-linecap:round; stroke-linejoin:round;">
<path d="M4147 3533
L5299 3533
" />
<path d="M5299 3533
L5299 5462
" />
<path d="M5299 5462
L3763 5462
" />
<path d="M3763 5462
L3763 3917
" />
<path d="M3763 3917
L4147 3533
" />
<g >
</g>
<g >
</g>
<g >
</g>
<g >
</g>
<g >
</g>
<g >
</g>
<g >
</g>
<g >
</g>
<g >
</g>
<g >
</g>
</g>
<g style="fill:#000000; fill-opacity:0.0; 
stroke:#000000; stroke-width:39.3701; stroke-opacity:1; 
stroke-linecap:round; stroke-linejoin:round;">
</g>
<g style="fill:#000000; fill-opacity:0.0; 
stroke:#000000; stroke-width:59.0551; stroke-opacity:1; 
stroke-linecap:round; stroke-linejoin:round;">
<text x="4531.3" y="6033.46"
textLength="4519.97" font-size="524.934" lengthAdjust="spacingAndGlyphs"
text-anchor="middle" opacity="0">ATtiny13A-SSU</text>
<path d="M2384 5902
L2572 5902
" />
<path d="M2347 6014
L2478 5621
L2609 6014
" />
<path d="M2684 5621
L2909 5621
" />
<path d="M2797 6014
L2797 5621
" />
<path d="M2984 5752
L3134 5752
" />
<path d="M3040 5621
L3040 5958
L3059 5995
L3097 6014
L3134 6014
" />
<path d="M3265 6014
L3265 5752
" />
<path d="M3265 5621
L3247 5639
L3265 5658
L3284 5639
L3265 5621
L3265 5658
" />
<path d="M3453 5752
L3453 6014
" />
<path d="M3453 5789
L3472 5770
L3509 5752
L3565 5752
L3603 5770
L3622 5808
L3622 6014
" />
<path d="M3772 5752
L3865 6014
" />
<path d="M3959 5752
L3865 6014
L3828 6108
L3809 6127
L3772 6145
" />
<path d="M4315 6014
L4090 6014
" />
<path d="M4203 6014
L4203 5621
L4165 5677
L4128 5714
L4090 5733
" />
<path d="M4446 5621
L4690 5621
L4559 5770
L4615 5770
L4653 5789
L4671 5808
L4690 5845
L4690 5939
L4671 5977
L4653 5995
L4615 6014
L4503 6014
L4465 5995
L4446 5977
" />
<path d="M4840 5902
L5028 5902
" />
<path d="M4803 6014
L4934 5621
L5065 6014
" />
<path d="M5196 5864
L5496 5864
" />
<path d="M5665 5995
L5721 6014
L5815 6014
L5853 5995
L5871 5977
L5890 5939
L5890 5902
L5871 5864
L5853 5845
L5815 5827
L5740 5808
L5703 5789
L5684 5770
L5665 5733
L5665 5696
L5684 5658
L5703 5639
L5740 5621
L5834 5621
L5890 5639
" />
<path d="M6040 5995
L6096 6014
L6190 6014
L6227 5995
L6246 5977
L6265 5939
L6265 5902
L6246 5864
L6227 5845
L6190 5827
L6115 5808
L6077 5789
L6059 5770
L6040 5733
L6040 5696
L6059 5658
L6077 5639
L6115 5621
L6209 5621
L6265 5639
" />
<path d="M6434 5621
L6434 5939
L6452 5977
L6471 5995
L6509 6014
L6584 6014
L6621 5995
L6640 5977
L6659 5939
L6659 5621
" />
<text x="4531.3" y="4690.94"
textLength="848.425" font-size="514.435" lengthAdjust="spacingAndGlyphs"
text-anchor="middle" opacity="0">U1</text>
<path d="M4237 4286
L4237 4599
L4255 4635
L4274 4654
L4310 4672
L4384 4672
L4421 4654
L4439 4635
L4457 4599
L4457 4286
" />
<path d="M4843 4672
L4623 4672
" />
<path d="M4733 4672
L4733 4286
L4696 4341
L4659 4378
L4623 4396
" />
<g >
</g>
</g>
<g style="fill:#000000; fill-opacity:0.0; 
stroke:#000000; stroke-width:59.0551; stroke-opacity:1; 
stroke-linecap:round; stroke-linejoin:round;">
<g >
</g>
<g >
</g>
<g >
</g>
<g >
</g>
<g >
</g>
<g >
</g>
<g >
</g>
<g >
</g>
<g >
</g>
<g >
</g>
<g >
</g>
</g> 
</svg>
