<?xml version="1.0" standalone="no"?>
 <!DOCTYPE svg PUBLIC "-//W3C//DTD SVG 1.1//EN" 
 "http://www.w3.org/Graphics/SVG/1.1/DTD/svg11.dtd"> 
<svg
  xmlns:svg="http://www.w3.org/2000/svg"
  xmlns="http://www.w3.org/2000/svg"
  xmlns:xlink="http://www.w3.org/1999/xlink"
  version="1.1"
  width="29.700220cm" height="21.000720cm" viewBox="0 0 116930 82680">
<title>SVG Picture created as EEC_Project_1-B_SilkS.svg date 2021/01/22 23:01:58 </title>
  <desc>Picture generated by PCBNEW </desc>
<g style="fill:#000000; fill-opacity:1;stroke:#000000; stroke-opacity:1;
stroke-linecap:round; stroke-linejoin:round;"
 transform="translate(0 0) scale(1 1)">
</g>
<g style="fill:#000000; fill-opacity:0.0; 
stroke:#000000; stroke-width:-0.000393701; stroke-opacity:1; 
stroke-linecap:round; stroke-linejoin:round;">
</g>
<g style="fill:#000000; fill-opacity:0.0; 
stroke:#000000; stroke-width:47.2441; stroke-opacity:1; 
stroke-linecap:round; stroke-linejoin:round;">
<path d="M68432 37072
L67940 37072
" />
<path d="M68432 36579
L68432 37072
" />
<path d="M66267 33272
L66267 34965
" />
<path d="M67428 33272
L66267 33272
" />
<path d="M67428 32977
L67428 33272
" />
<path d="M66267 36658
L66267 34965
" />
<path d="M67428 36658
L66267 36658
" />
<path d="M67428 36953
L67428 36658
" />
<path d="M68314 32977
L68314 33686
" />
<path d="M68019 32977
L68314 32977
" />
<path d="M68019 33686
L68019 32977
" />
<path d="M68314 33686
L68019 33686
" />
<path d="M68314 36245
L68314 36953
" />
<path d="M68019 36245
L68314 36245
" />
<path d="M68019 36953
L68019 36245
" />
<path d="M68314 36953
L68019 36953
" />
<path d="M68314 34276
L68314 35654
" />
<path d="M68019 34276
L68314 34276
" />
<path d="M68019 35654
L68019 34276
" />
<path d="M68314 35654
L68019 35654
" />
<path d="M68318 32973
L68318 36957
" />
<path d="M65968 32973
L68318 32973
" />
<path d="M65968 36957
L65968 32973
" />
<path d="M68318 36957
L65968 36957
" />
<path d="M61748 29956
L61748 30086
" />
<path d="M61748 30086
L64322 30086
" />
<path d="M64322 30086
L64322 29956
" />
<path d="M61748 29137
L61748 29007
" />
<path d="M61748 29007
L64322 29007
" />
<path d="M64322 29007
L64322 29137
" />
<circle cx="62027.6" cy="27027.6" r="1622.05" /> 
<path d="M63633 27027
L60421 27027
" />
<path d="M63633 27011
L60421 27011
" />
<path d="M63633 26996
L60421 26996
" />
<path d="M63633 26980
L60421 26980
" />
<path d="M63632 26964
L60422 26964
" />
<path d="M63632 26948
L60422 26948
" />
<path d="M63631 26933
L60423 26933
" />
<path d="M63630 26917
L60424 26917
" />
<path d="M63629 26901
L60425 26901
" />
<path d="M63627 26885
L60427 26885
" />
<path d="M63626 26870
L60428 26870
" />
<path d="M63624 26854
L60430 26854
" />
<path d="M63622 26838
L60432 26838
" />
<path d="M63621 26822
L60433 26822
" />
<path d="M63618 26807
L60436 26807
" />
<path d="M63616 26791
L60438 26791
" />
<path d="M63614 26775
L60440 26775
" />
<path d="M63611 26759
L60443 26759
" />
<path d="M63609 26743
L62437 26743
" />
<path d="M61618 26743
L60446 26743
" />
<path d="M63606 26727
L62437 26727
" />
<path d="M61618 26727
L60448 26727
" />
<path d="M63603 26712
L62437 26712
" />
<path d="M61618 26712
L60451 26712
" />
<path d="M63600 26696
L62437 26696
" />
<path d="M61618 26696
L60455 26696
" />
<path d="M63596 26680
L62437 26680
" />
<path d="M61618 26680
L60458 26680
" />
<path d="M63592 26664
L62437 26664
" />
<path d="M61618 26664
L60462 26664
" />
<path d="M63589 26649
L62437 26649
" />
<path d="M61618 26649
L60465 26649
" />
<path d="M63585 26633
L62437 26633
" />
<path d="M61618 26633
L60469 26633
" />
<path d="M63581 26617
L62437 26617
" />
<path d="M61618 26617
L60473 26617
" />
<path d="M63577 26601
L62437 26601
" />
<path d="M61618 26601
L60477 26601
" />
<path d="M63572 26586
L62437 26586
" />
<path d="M61618 26586
L60482 26586
" />
<path d="M63568 26570
L62437 26570
" />
<path d="M61618 26570
L60486 26570
" />
<path d="M63563 26554
L62437 26554
" />
<path d="M61618 26554
L60491 26554
" />
<path d="M63558 26538
L62437 26538
" />
<path d="M61618 26538
L60496 26538
" />
<path d="M63553 26523
L62437 26523
" />
<path d="M61618 26523
L60501 26523
" />
<path d="M63548 26507
L62437 26507
" />
<path d="M61618 26507
L60506 26507
" />
<path d="M63543 26491
L62437 26491
" />
<path d="M61618 26491
L60511 26491
" />
<path d="M63537 26475
L62437 26475
" />
<path d="M61618 26475
L60517 26475
" />
<path d="M63531 26460
L62437 26460
" />
<path d="M61618 26460
L60523 26460
" />
<path d="M63525 26444
L62437 26444
" />
<path d="M61618 26444
L60529 26444
" />
<path d="M63519 26428
L62437 26428
" />
<path d="M61618 26428
L60535 26428
" />
<path d="M63513 26412
L62437 26412
" />
<path d="M61618 26412
L60541 26412
" />
<path d="M63506 26397
L62437 26397
" />
<path d="M61618 26397
L60548 26397
" />
<path d="M63500 26381
L62437 26381
" />
<path d="M61618 26381
L60555 26381
" />
<path d="M63492 26365
L62437 26365
" />
<path d="M61618 26365
L60562 26365
" />
<path d="M63485 26350
L62437 26350
" />
<path d="M61618 26350
L60569 26350
" />
<path d="M63478 26334
L62437 26334
" />
<path d="M61618 26334
L60576 26334
" />
<path d="M63470 26318
L62437 26318
" />
<path d="M61618 26318
L60584 26318
" />
<path d="M63463 26302
L62437 26302
" />
<path d="M61618 26302
L60591 26302
" />
<path d="M63455 26287
L62437 26287
" />
<path d="M61618 26287
L60599 26287
" />
<path d="M63447 26271
L62437 26271
" />
<path d="M61618 26271
L60607 26271
" />
<path d="M63438 26255
L62437 26255
" />
<path d="M61618 26255
L60616 26255
" />
<path d="M63429 26239
L62437 26239
" />
<path d="M61618 26239
L60625 26239
" />
<path d="M63421 26224
L62437 26224
" />
<path d="M61618 26224
L60633 26224
" />
<path d="M63412 26208
L62437 26208
" />
<path d="M61618 26208
L60642 26208
" />
<path d="M63402 26192
L62437 26192
" />
<path d="M61618 26192
L60652 26192
" />
<path d="M63393 26176
L62437 26176
" />
<path d="M61618 26176
L60661 26176
" />
<path d="M63383 26161
L62437 26161
" />
<path d="M61618 26161
L60671 26161
" />
<path d="M63373 26145
L62437 26145
" />
<path d="M61618 26145
L60681 26145
" />
<path d="M63362 26129
L62437 26129
" />
<path d="M61618 26129
L60692 26129
" />
<path d="M63352 26113
L62437 26113
" />
<path d="M61618 26113
L60702 26113
" />
<path d="M63341 26098
L62437 26098
" />
<path d="M61618 26098
L60713 26098
" />
<path d="M63330 26082
L62437 26082
" />
<path d="M61618 26082
L60724 26082
" />
<path d="M63318 26066
L62437 26066
" />
<path d="M61618 26066
L60736 26066
" />
<path d="M63307 26050
L62437 26050
" />
<path d="M61618 26050
L60748 26050
" />
<path d="M63295 26035
L62437 26035
" />
<path d="M61618 26035
L60759 26035
" />
<path d="M63283 26019
L62437 26019
" />
<path d="M61618 26019
L60772 26019
" />
<path d="M63270 26003
L62437 26003
" />
<path d="M61618 26003
L60785 26003
" />
<path d="M63257 25987
L62437 25987
" />
<path d="M61618 25987
L60797 25987
" />
<path d="M63244 25972
L62437 25972
" />
<path d="M61618 25972
L60811 25972
" />
<path d="M63230 25956
L62437 25956
" />
<path d="M61618 25956
L60824 25956
" />
<path d="M63216 25940
L62437 25940
" />
<path d="M61618 25940
L60838 25940
" />
<path d="M63201 25924
L60853 25924
" />
<path d="M63187 25909
L60868 25909
" />
<path d="M63172 25893
L60883 25893
" />
<path d="M63156 25877
L60898 25877
" />
<path d="M63140 25861
L60914 25861
" />
<path d="M63123 25846
L60931 25846
" />
<path d="M63106 25830
L60948 25830
" />
<path d="M63089 25814
L60965 25814
" />
<path d="M63071 25798
L60983 25798
" />
<path d="M63052 25783
L61002 25783
" />
<path d="M63033 25767
L61021 25767
" />
<path d="M63013 25751
L61041 25751
" />
<path d="M62993 25735
L61061 25735
" />
<path d="M62972 25720
L61082 25720
" />
<path d="M62950 25704
L61104 25704
" />
<path d="M62927 25688
L61127 25688
" />
<path d="M62904 25672
L61150 25672
" />
<path d="M62880 25657
L61174 25657
" />
<path d="M62855 25641
L61200 25641
" />
<path d="M62828 25625
L61226 25625
" />
<path d="M62800 25609
L61254 25609
" />
<path d="M62771 25594
L61283 25594
" />
<path d="M62741 25578
L61313 25578
" />
<path d="M62709 25562
L61346 25562
" />
<path d="M62675 25546
L61379 25546
" />
<path d="M62638 25531
L61416 25531
" />
<path d="M62599 25515
L61455 25515
" />
<path d="M62557 25499
L61497 25499
" />
<path d="M62511 25483
L61543 25483
" />
<path d="M62459 25468
L61595 25468
" />
<path d="M62400 25452
L61654 25452
" />
<path d="M62329 25436
L61725 25436
" />
<path d="M62237 25420
L61817 25420
" />
<path d="M62938 28763
L62938 28448
" />
<path d="M63096 28606
L62781 28606
" />
<path d="M60007 28590
L60007 25740
" />
<path d="M58929 28590
L58929 25740
" />
<path d="M60007 28590
L58929 28590
" />
<path d="M60007 25740
L58929 25740
" />
<path d="M66785 26433
L66724 26433
" />
<path d="M65874 26433
L65812 26433
" />
<path d="M66785.6 26433.1 A783.465 783.465 0.0 0 0 66723.9 25160.5" />
<path d="M65874.6 25160.5 A783.465 783.465 0.0 0 0 65812.8 26433.1" />
<path d="M66724.4 26228.7 A590.551 590.551 0.0 0 0 66724.3 25409" />
<path d="M65874.1 25409 A590.551 590.551 0.0 0 0 65874 26228.7" />
<path d="M56192 38418
L56192 36068
" />
<path d="M56192 36068
L60176 36068
" />
<path d="M60176 36068
L60176 38418
" />
<path d="M60176 38418
L56192 38418
" />
<path d="M57495 38414
L57495 38119
" />
<path d="M57495 38119
L58873 38119
" />
<path d="M58873 38119
L58873 38414
" />
<path d="M58873 38414
L57495 38414
" />
<path d="M56196 38414
L56196 38119
" />
<path d="M56196 38119
L56904 38119
" />
<path d="M56904 38119
L56904 38414
" />
<path d="M56904 38414
L56196 38414
" />
<path d="M59463 38414
L59463 38119
" />
<path d="M59463 38119
L60172 38119
" />
<path d="M60172 38119
L60172 38414
" />
<path d="M60172 38414
L59463 38414
" />
<path d="M56196 37528
L56491 37528
" />
<path d="M56491 37528
L56491 36367
" />
<path d="M56491 36367
L58184 36367
" />
<path d="M60172 37528
L59877 37528
" />
<path d="M59877 37528
L59877 36367
" />
<path d="M59877 36367
L58184 36367
" />
<path d="M56570 38532
L56077 38532
" />
<path d="M56077 38532
L56077 38040
" />
<path d="M66169 29031
L68216 29031
" />
<path d="M66169 31055
L66169 29031
" />
<path d="M68216 32078
L68216 29031
" />
<path d="M66169 31055
L67192 31055
" />
<path d="M67192 31055
L67192 32078
" />
<path d="M67192 32078
L68216 32078
" />
<path d="M66169 31555
L66169 32078
" />
<path d="M66169 32078
L66692 32078
" />
<path d="M56078 30074
L58429 30074
" />
<path d="M58429 30074
L58429 35043
" />
<path d="M58429 35043
L56078 35043
" />
<path d="M56078 35043
L56078 30074
" />
<path d="M56082 31377
L56377 31377
" />
<path d="M56377 31377
L56377 33740
" />
<path d="M56377 33740
L56082 33740
" />
<path d="M56082 33740
L56082 31377
" />
<path d="M56082 30078
L56377 30078
" />
<path d="M56377 30078
L56377 30787
" />
<path d="M56377 30787
L56082 30787
" />
<path d="M56082 30787
L56082 30078
" />
<path d="M56082 34330
L56377 34330
" />
<path d="M56377 34330
L56377 35039
" />
<path d="M56377 35039
L56082 35039
" />
<path d="M56082 35039
L56082 34330
" />
<path d="M56968 30078
L56968 30374
" />
<path d="M56968 30374
L58129 30374
" />
<path d="M58129 30374
L58129 32559
" />
<path d="M56968 35039
L56968 34744
" />
<path d="M56968 34744
L58129 34744
" />
<path d="M58129 34744
L58129 32559
" />
<path d="M55964 30452
L55964 29960
" />
<path d="M55964 29960
L56456 29960
" />
<path d="M58350 28625
L56000 28625
" />
<path d="M56000 28625
L56000 25625
" />
<path d="M56000 25625
L58350 25625
" />
<path d="M58350 25625
L58350 28625
" />
<path d="M58346 27322
L58051 27322
" />
<path d="M58051 27322
L58051 26929
" />
<path d="M58051 26929
L58346 26929
" />
<path d="M58346 26929
L58346 27322
" />
<path d="M58346 28622
L58051 28622
" />
<path d="M58051 28622
L58051 27913
" />
<path d="M58051 27913
L58346 27913
" />
<path d="M58346 27913
L58346 28622
" />
<path d="M58346 26338
L58051 26338
" />
<path d="M58051 26338
L58051 25629
" />
<path d="M58051 25629
L58346 25629
" />
<path d="M58346 25629
L58346 26338
" />
<path d="M57460 28622
L57460 28326
" />
<path d="M57460 28326
L56299 28326
" />
<path d="M56299 28326
L56299 27125
" />
<path d="M57460 25629
L57460 25925
" />
<path d="M57460 25925
L56299 25925
" />
<path d="M56299 25925
L56299 27125
" />
<path d="M58464 28248
L58464 28740
" />
<path d="M58464 28740
L57972 28740
" />
<circle cx="63189" cy="37972.4" r="2401.57" /> 
<path d="M61759 35106
L61759 34976
" />
<path d="M64334 35106
L61759 35106
" />
<path d="M64334 34976
L64334 35106
" />
<path d="M61759 34027
L61759 34157
" />
<path d="M64334 34027
L61759 34027
" />
<path d="M64334 34157
L64334 34027
" />
<path d="M64157 25500
L64027 25500
" />
<path d="M64027 25500
L64027 28074
" />
<path d="M64027 28074
L64157 28074
" />
<path d="M64976 25500
L65106 25500
" />
<path d="M65106 25500
L65106 28074
" />
<path d="M65106 28074
L64976 28074
" />
</g>
<g style="fill:#000000; fill-opacity:0.0; 
stroke:#000000; stroke-width:59.0551; stroke-opacity:1; 
stroke-linecap:round; stroke-linejoin:round;">
<g transform="rotate(-90 68747.6 34965.7)">
<text x="68747.6" y="35162.6"
transform="scale(-1 1) translate(-137495.275591 0)"
textLength="3522.78" font-size="524.934" lengthAdjust="spacingAndGlyphs"
text-anchor="middle" opacity="0">J5 Reserved</text>
</g>
<path d="M68532 33372
L68813 33372
L68869 33353
L68906 33315
L68925 33259
L68925 33222
" />
<path d="M68532 33747
L68532 33559
L68719 33540
L68700 33559
L68682 33597
L68682 33690
L68700 33728
L68719 33747
L68757 33765
L68850 33765
L68888 33747
L68906 33728
L68925 33690
L68925 33597
L68906 33559
L68888 33540
" />
<path d="M68925 34459
L68738 34328
" />
<path d="M68925 34234
L68532 34234
L68532 34384
L68550 34422
L68569 34440
L68607 34459
L68663 34459
L68700 34440
L68719 34422
L68738 34384
L68738 34234
" />
<path d="M68906 34778
L68925 34740
L68925 34665
L68906 34628
L68869 34609
L68719 34609
L68682 34628
L68663 34665
L68663 34740
L68682 34778
L68719 34797
L68757 34797
L68794 34609
" />
<path d="M68906 34947
L68925 34984
L68925 35059
L68906 35096
L68869 35115
L68850 35115
L68813 35096
L68794 35059
L68794 35003
L68775 34965
L68738 34947
L68719 34947
L68682 34965
L68663 35003
L68663 35059
L68682 35096
" />
<path d="M68906 35434
L68925 35396
L68925 35321
L68906 35284
L68869 35265
L68719 35265
L68682 35284
L68663 35321
L68663 35396
L68682 35434
L68719 35453
L68757 35453
L68794 35265
" />
<path d="M68925 35621
L68663 35621
" />
<path d="M68738 35621
L68700 35640
L68682 35659
L68663 35696
L68663 35734
" />
<path d="M68663 35828
L68925 35921
L68663 36015
" />
<path d="M68906 36315
L68925 36278
L68925 36203
L68906 36165
L68869 36146
L68719 36146
L68682 36165
L68663 36203
L68663 36278
L68682 36315
L68719 36334
L68757 36334
L68794 36146
" />
<path d="M68925 36671
L68532 36671
" />
<path d="M68906 36671
L68925 36634
L68925 36559
L68906 36521
L68888 36503
L68850 36484
L68738 36484
L68700 36503
L68682 36521
L68663 36559
L68663 36634
L68682 36671
" />
<text x="63035.4" y="30677.2"
transform="scale(-1 1) translate(-126070.866142 0)"
textLength="691.882" font-size="524.934" lengthAdjust="spacingAndGlyphs"
text-anchor="middle" opacity="0">R1</text>
<path d="M63101 30658
L63232 30470
" />
<path d="M63326 30658
L63326 30264
L63176 30264
L63138 30283
L63119 30302
L63101 30339
L63101 30395
L63119 30433
L63138 30452
L63176 30470
L63326 30470
" />
<path d="M62726 30658
L62951 30658
" />
<path d="M62838 30658
L62838 30264
L62876 30320
L62913 30358
L62951 30377
" />
<g transform="rotate(-90 62047.2 24822.8)">
<text x="62047.2" y="25019.7"
transform="scale(-1 1) translate(-124094.488189 0)"
textLength="691.882" font-size="524.934" lengthAdjust="spacingAndGlyphs"
text-anchor="middle" opacity="0">C1</text>
</g>
<path d="M62187 24757
L62206 24738
L62225 24682
L62225 24644
L62206 24588
L62169 24550
L62131 24532
L62056 24513
L62000 24513
L61925 24532
L61887 24550
L61850 24588
L61831 24644
L61831 24682
L61850 24738
L61869 24757
" />
<path d="M62225 25132
L62225 24907
" />
<path d="M62225 25019
L61831 25019
L61887 24982
L61925 24944
L61944 24907
" />
<g transform="rotate(-90 59547.2 24960.6)">
<text x="59547.2" y="25157.5"
transform="scale(-1 1) translate(-119094.488189 0)"
textLength="691.882" font-size="524.934" lengthAdjust="spacingAndGlyphs"
text-anchor="middle" opacity="0">C2</text>
</g>
<path d="M59687 24895
L59706 24876
L59725 24820
L59725 24782
L59706 24726
L59669 24688
L59631 24670
L59556 24651
L59500 24651
L59425 24670
L59387 24688
L59350 24726
L59331 24782
L59331 24820
L59350 24876
L59369 24895
" />
<path d="M59369 25044
L59350 25063
L59331 25101
L59331 25194
L59350 25232
L59369 25251
L59406 25269
L59444 25269
L59500 25251
L59725 25026
L59725 25269
" />
<g transform="rotate(-90 67464.6 25818.9)">
<text x="67464.6" y="26015.7"
transform="scale(-1 1) translate(-134929.133858 0)"
textLength="691.882" font-size="524.934" lengthAdjust="spacingAndGlyphs"
text-anchor="middle" opacity="0">D1</text>
</g>
<path d="M67642 25528
L67248 25528
L67248 25622
L67267 25678
L67305 25715
L67342 25734
L67417 25753
L67473 25753
L67548 25734
L67586 25715
L67623 25678
L67642 25622
L67642 25528
" />
<path d="M67642 26128
L67642 25903
" />
<path d="M67642 26015
L67248 26015
L67305 25978
L67342 25940
L67361 25903
" />
<text x="58184.3" y="39044.5"
transform="scale(-1 1) translate(-116368.503937 0)"
textLength="5285.06" font-size="524.934" lengthAdjust="spacingAndGlyphs"
text-anchor="middle" opacity="0">J1 Current sensor</text>
<path d="M60658 38632
L60658 38913
L60677 38969
L60715 39006
L60771 39025
L60808 39025
" />
<path d="M60265 39025
L60490 39025
" />
<path d="M60377 39025
L60377 38632
L60415 38688
L60452 38725
L60490 38744
" />
<path d="M59571 38988
L59590 39006
L59646 39025
L59684 39025
L59740 39006
L59777 38969
L59796 38932
L59815 38857
L59815 38800
L59796 38725
L59777 38688
L59740 38650
L59684 38632
L59646 38632
L59590 38650
L59571 38669
" />
<path d="M59234 38763
L59234 39025
" />
<path d="M59402 38763
L59402 38969
L59384 39006
L59346 39025
L59290 39025
L59252 39006
L59234 38988
" />
<path d="M59046 39025
L59046 38763
" />
<path d="M59046 38838
L59027 38800
L59009 38782
L58971 38763
L58934 38763
" />
<path d="M58802 39025
L58802 38763
" />
<path d="M58802 38838
L58784 38800
L58765 38782
L58727 38763
L58690 38763
" />
<path d="M58409 39006
L58446 39025
L58521 39025
L58559 39006
L58577 38969
L58577 38819
L58559 38782
L58521 38763
L58446 38763
L58409 38782
L58390 38819
L58390 38857
L58577 38894
" />
<path d="M58221 38763
L58221 39025
" />
<path d="M58221 38800
L58202 38782
L58165 38763
L58109 38763
L58071 38782
L58053 38819
L58053 39025
" />
<path d="M57921 38763
L57771 38763
" />
<path d="M57865 38632
L57865 38969
L57846 39006
L57809 39025
L57771 39025
" />
<path d="M57359 39006
L57321 39025
L57246 39025
L57209 39006
L57190 38969
L57190 38950
L57209 38913
L57246 38894
L57303 38894
L57340 38875
L57359 38838
L57359 38819
L57340 38782
L57303 38763
L57246 38763
L57209 38782
" />
<path d="M56871 39006
L56909 39025
L56984 39025
L57021 39006
L57040 38969
L57040 38819
L57021 38782
L56984 38763
L56909 38763
L56871 38782
L56853 38819
L56853 38857
L57040 38894
" />
<path d="M56684 38763
L56684 39025
" />
<path d="M56684 38800
L56665 38782
L56628 38763
L56571 38763
L56534 38782
L56515 38819
L56515 39025
" />
<path d="M56346 39006
L56309 39025
L56234 39025
L56197 39006
L56178 38969
L56178 38950
L56197 38913
L56234 38894
L56290 38894
L56328 38875
L56346 38838
L56346 38819
L56328 38782
L56290 38763
L56234 38763
L56197 38782
" />
<path d="M55953 39025
L55990 39006
L56009 38988
L56028 38950
L56028 38838
L56009 38800
L55990 38782
L55953 38763
L55897 38763
L55859 38782
L55840 38800
L55822 38838
L55822 38950
L55840 38988
L55859 39006
L55897 39025
L55953 39025
" />
<path d="M55653 39025
L55653 38763
" />
<path d="M55653 38838
L55634 38800
L55615 38782
L55578 38763
L55540 38763
" />
<text x="67250" y="28596.9"
transform="scale(-1 1) translate(-134500.000000 0)"
textLength="2247.94" font-size="524.934" lengthAdjust="spacingAndGlyphs"
text-anchor="middle" opacity="0">J2 ICSP</text>
<path d="M68206 28184
L68206 28465
L68224 28521
L68262 28559
L68318 28578
L68356 28578
" />
<path d="M68037 28221
L68018 28203
L67981 28184
L67887 28184
L67849 28203
L67831 28221
L67812 28259
L67812 28296
L67831 28353
L68056 28578
L67812 28578
" />
<path d="M67343 28578
L67343 28184
" />
<path d="M66931 28540
L66950 28559
L67006 28578
L67043 28578
L67100 28559
L67137 28521
L67156 28484
L67175 28409
L67175 28353
L67156 28278
L67137 28240
L67100 28203
L67043 28184
L67006 28184
L66950 28203
L66931 28221
" />
<path d="M66781 28559
L66725 28578
L66631 28578
L66593 28559
L66575 28540
L66556 28503
L66556 28465
L66575 28428
L66593 28409
L66631 28390
L66706 28371
L66743 28353
L66762 28334
L66781 28296
L66781 28259
L66762 28221
L66743 28203
L66706 28184
L66612 28184
L66556 28203
" />
<path d="M66387 28578
L66387 28184
L66237 28184
L66200 28203
L66181 28221
L66162 28259
L66162 28315
L66181 28353
L66200 28371
L66237 28390
L66387 28390
" />
<g transform="rotate(-90 55450 32550)">
<text x="55450" y="32746.9"
transform="scale(-1 1) translate(-110900.000000 0)"
textLength="2491.66" font-size="524.934" lengthAdjust="spacingAndGlyphs"
text-anchor="middle" opacity="0">J3 Relay</text>
</g>
<path d="M55234 31472
L55515 31472
L55571 31453
L55609 31415
L55628 31359
L55628 31322
" />
<path d="M55234 31621
L55234 31865
L55384 31734
L55384 31790
L55403 31828
L55421 31846
L55459 31865
L55553 31865
L55590 31846
L55609 31828
L55628 31790
L55628 31678
L55609 31640
L55590 31621
" />
<path d="M55628 32559
L55440 32428
" />
<path d="M55628 32334
L55234 32334
L55234 32484
L55253 32521
L55271 32540
L55309 32559
L55365 32559
L55403 32540
L55421 32521
L55440 32484
L55440 32334
" />
<path d="M55609 32878
L55628 32840
L55628 32765
L55609 32728
L55571 32709
L55421 32709
L55384 32728
L55365 32765
L55365 32840
L55384 32878
L55421 32896
L55459 32896
L55496 32709
" />
<path d="M55628 33121
L55609 33084
L55571 33065
L55234 33065
" />
<path d="M55628 33440
L55421 33440
L55384 33421
L55365 33384
L55365 33309
L55384 33271
" />
<path d="M55609 33440
L55628 33403
L55628 33309
L55609 33271
L55571 33253
L55534 33253
L55496 33271
L55478 33309
L55478 33403
L55459 33440
" />
<path d="M55365 33590
L55628 33684
" />
<path d="M55365 33777
L55628 33684
L55721 33646
L55740 33627
L55759 33590
" />
<g transform="rotate(-90 55450 27250)">
<text x="55450" y="27446.9"
transform="scale(-1 1) translate(-110900.000000 0)"
textLength="1573.02" font-size="524.934" lengthAdjust="spacingAndGlyphs"
text-anchor="middle" opacity="0">J4 5v</text>
</g>
<path d="M55234 26631
L55515 26631
L55571 26612
L55609 26575
L55628 26518
L55628 26481
" />
<path d="M55365 26987
L55628 26987
" />
<path d="M55215 26893
L55496 26800
L55496 27043
" />
<path d="M55234 27681
L55234 27493
L55421 27474
L55403 27493
L55384 27531
L55384 27624
L55403 27662
L55421 27681
L55459 27699
L55553 27699
L55590 27681
L55609 27662
L55628 27624
L55628 27531
L55609 27493
L55590 27474
" />
<path d="M55365 27831
L55628 27924
L55365 28018
" />
<text x="66000" y="39596.9"
transform="scale(-1 1) translate(-132000.000000 0)"
textLength="991.845" font-size="524.934" lengthAdjust="spacingAndGlyphs"
text-anchor="middle" opacity="0">LS1</text>
<path d="M66253 39578
L66440 39578
L66440 39184
" />
<path d="M66140 39559
L66084 39578
L65990 39578
L65953 39559
L65934 39540
L65915 39503
L65915 39465
L65934 39428
L65953 39409
L65990 39390
L66065 39371
L66103 39353
L66121 39334
L66140 39296
L66140 39259
L66121 39221
L66103 39203
L66065 39184
L65971 39184
L65915 39203
" />
<path d="M65540 39578
L65765 39578
" />
<path d="M65653 39578
L65653 39184
L65690 39240
L65728 39278
L65765 39296
" />
<text x="64689" y="37169.3"
transform="scale(-1 1) translate(-129377.952756 0)"
textLength="410.667" font-size="524.934" lengthAdjust="spacingAndGlyphs"
text-anchor="middle" opacity="0">+</text>
<path d="M64838 37000
L64538 37000
" />
<path d="M64688 37150
L64688 36850
" />
<text x="60550" y="35346.9"
transform="scale(-1 1) translate(-121100.000000 0)"
textLength="691.882" font-size="524.934" lengthAdjust="spacingAndGlyphs"
text-anchor="middle" opacity="0">R2</text>
<path d="M60615 35328
L60746 35140
" />
<path d="M60840 35328
L60840 34934
L60690 34934
L60653 34953
L60634 34971
L60615 35009
L60615 35065
L60634 35103
L60653 35121
L60690 35140
L60840 35140
" />
<path d="M60465 34971
L60446 34953
L60409 34934
L60315 34934
L60278 34953
L60259 34971
L60240 35009
L60240 35046
L60259 35103
L60484 35328
L60240 35328
" />
<g transform="rotate(-90 63550 25000)">
<text x="63550" y="25196.9"
transform="scale(-1 1) translate(-127100.000000 0)"
textLength="691.882" font-size="524.934" lengthAdjust="spacingAndGlyphs"
text-anchor="middle" opacity="0">R3</text>
</g>
<path d="M63728 24934
L63540 24803
" />
<path d="M63728 24709
L63334 24709
L63334 24859
L63353 24896
L63371 24915
L63409 24934
L63465 24934
L63503 24915
L63521 24896
L63540 24859
L63540 24709
" />
<path d="M63334 25065
L63334 25309
L63484 25178
L63484 25234
L63503 25271
L63521 25290
L63559 25309
L63653 25309
L63690 25290
L63709 25271
L63728 25234
L63728 25121
L63709 25084
L63690 25065
" />
<g >
</g>
</g> 
</svg>
